M48
; DRILL file {KiCad (5.1.4)-1} date 2/20/2022 2:51:20 PM
; FORMAT={-:-/ absolute / metric / decimal}
; #@! TF.CreationDate,2022-02-20T14:51:20-05:00
; #@! TF.GenerationSoftware,Kicad,Pcbnew,(5.1.4)-1
; #@! TF.FileFunction,Plated,1,4,PTH
FMAT,2
METRIC
T1C0.400
T2C0.500
T3C0.750
T4C1.000
T5C3.200
%
G90
G05
T1
X108.39Y-93.0
X108.43Y-101.26
X109.21Y-92.99
X109.26Y-101.25
X110.02Y-93.0
X110.08Y-101.26
X110.83Y-93.0
X110.91Y-101.25
X111.64Y-93.0
X111.74Y-101.26
X114.49Y-94.2
X115.5Y-99.19
X115.5Y-100.77
X115.5Y-102.31
X116.3Y-91.66
X117.14Y-95.71
X117.43Y-98.29
X117.61Y-117.38
X117.83Y-91.66
X118.23Y-103.52
X118.754Y-91.201
X119.165Y-94.205
X119.24Y-107.21
X119.74Y-103.77
X120.263Y-94.463
X121.045Y-93.545
X121.3Y-103.77
X121.43Y-113.35
X121.64Y-88.39
X122.26Y-111.72
X122.34Y-95.68
X122.36Y-96.94
X122.38Y-98.07
X122.88Y-103.77
X123.54Y-96.89
X123.57Y-98.06
X123.6Y-95.69
X124.34Y-87.2
X124.71Y-98.06
X124.72Y-96.92
X124.75Y-95.66
X125.29Y-103.54
X125.7Y-93.42
X125.78Y-114.67
X125.79Y-116.57
X125.88Y-88.76
X127.07Y-94.412
X127.27Y-93.41
X128.08Y-110.04
X131.51Y-88.76
X133.01Y-102.83
X133.03Y-89.4
T2
X135.6Y-125.5
X136.303Y-123.803
X136.303Y-127.197
X138.0Y-123.1
X138.0Y-127.9
X139.697Y-123.803
X139.697Y-127.197
X140.4Y-125.5
X109.35Y-84.0
X110.053Y-82.303
X110.053Y-85.697
X111.75Y-81.6
X111.75Y-86.4
X113.447Y-82.303
X113.447Y-85.697
X114.15Y-84.0
X135.6Y-84.0
X136.303Y-82.303
X136.303Y-85.697
X138.0Y-81.6
X138.0Y-86.4
X139.697Y-82.303
X139.697Y-85.697
X140.4Y-84.0
X109.35Y-125.5
X110.053Y-123.803
X110.053Y-127.197
X111.75Y-123.1
X111.75Y-127.9
X113.447Y-123.803
X113.447Y-127.197
X114.15Y-125.5
T3
X136.05Y-92.12
X136.05Y-94.12
X136.05Y-96.12
X136.05Y-98.12
X136.05Y-100.12
X136.04Y-105.21
X136.04Y-107.21
X136.04Y-109.21
X136.04Y-111.21
X119.2Y-85.25
X121.2Y-85.25
T4
X113.94Y-106.13
X113.94Y-108.63
X113.93Y-114.66
X113.93Y-117.16
T5
X138.0Y-125.5
X111.75Y-84.0
X138.0Y-84.0
X111.75Y-125.5
T0
M30
