G04 #@! TF.GenerationSoftware,KiCad,Pcbnew,(5.1.4)-1*
G04 #@! TF.CreationDate,2022-02-20T14:50:57-05:00*
G04 #@! TF.ProjectId,Telemetry PCB,54656c65-6d65-4747-9279-205043422e6b,rev?*
G04 #@! TF.SameCoordinates,Original*
G04 #@! TF.FileFunction,Copper,L4,Bot*
G04 #@! TF.FilePolarity,Positive*
%FSLAX46Y46*%
G04 Gerber Fmt 4.6, Leading zero omitted, Abs format (unit mm)*
G04 Created by KiCad (PCBNEW (5.1.4)-1) date 2022-02-20 14:50:57*
%MOMM*%
%LPD*%
G04 APERTURE LIST*
%ADD10R,3.500000X1.500000*%
%ADD11C,0.100000*%
%ADD12C,0.875000*%
%ADD13O,2.000000X1.700000*%
%ADD14C,1.700000*%
%ADD15O,1.750000X1.200000*%
%ADD16C,1.200000*%
%ADD17O,1.200000X1.750000*%
%ADD18C,0.800000*%
%ADD19C,6.400000*%
%ADD20C,0.500000*%
%ADD21C,0.250000*%
%ADD22C,0.254000*%
G04 APERTURE END LIST*
D10*
X109840000Y-99830000D03*
X109840000Y-94430000D03*
D11*
G36*
X115885191Y-93726053D02*
G01*
X115906426Y-93729203D01*
X115927250Y-93734419D01*
X115947462Y-93741651D01*
X115966868Y-93750830D01*
X115985281Y-93761866D01*
X116002524Y-93774654D01*
X116018430Y-93789070D01*
X116032846Y-93804976D01*
X116045634Y-93822219D01*
X116056670Y-93840632D01*
X116065849Y-93860038D01*
X116073081Y-93880250D01*
X116078297Y-93901074D01*
X116081447Y-93922309D01*
X116082500Y-93943750D01*
X116082500Y-94456250D01*
X116081447Y-94477691D01*
X116078297Y-94498926D01*
X116073081Y-94519750D01*
X116065849Y-94539962D01*
X116056670Y-94559368D01*
X116045634Y-94577781D01*
X116032846Y-94595024D01*
X116018430Y-94610930D01*
X116002524Y-94625346D01*
X115985281Y-94638134D01*
X115966868Y-94649170D01*
X115947462Y-94658349D01*
X115927250Y-94665581D01*
X115906426Y-94670797D01*
X115885191Y-94673947D01*
X115863750Y-94675000D01*
X115426250Y-94675000D01*
X115404809Y-94673947D01*
X115383574Y-94670797D01*
X115362750Y-94665581D01*
X115342538Y-94658349D01*
X115323132Y-94649170D01*
X115304719Y-94638134D01*
X115287476Y-94625346D01*
X115271570Y-94610930D01*
X115257154Y-94595024D01*
X115244366Y-94577781D01*
X115233330Y-94559368D01*
X115224151Y-94539962D01*
X115216919Y-94519750D01*
X115211703Y-94498926D01*
X115208553Y-94477691D01*
X115207500Y-94456250D01*
X115207500Y-93943750D01*
X115208553Y-93922309D01*
X115211703Y-93901074D01*
X115216919Y-93880250D01*
X115224151Y-93860038D01*
X115233330Y-93840632D01*
X115244366Y-93822219D01*
X115257154Y-93804976D01*
X115271570Y-93789070D01*
X115287476Y-93774654D01*
X115304719Y-93761866D01*
X115323132Y-93750830D01*
X115342538Y-93741651D01*
X115362750Y-93734419D01*
X115383574Y-93729203D01*
X115404809Y-93726053D01*
X115426250Y-93725000D01*
X115863750Y-93725000D01*
X115885191Y-93726053D01*
X115885191Y-93726053D01*
G37*
D12*
X115645000Y-94200000D03*
D11*
G36*
X117460191Y-93726053D02*
G01*
X117481426Y-93729203D01*
X117502250Y-93734419D01*
X117522462Y-93741651D01*
X117541868Y-93750830D01*
X117560281Y-93761866D01*
X117577524Y-93774654D01*
X117593430Y-93789070D01*
X117607846Y-93804976D01*
X117620634Y-93822219D01*
X117631670Y-93840632D01*
X117640849Y-93860038D01*
X117648081Y-93880250D01*
X117653297Y-93901074D01*
X117656447Y-93922309D01*
X117657500Y-93943750D01*
X117657500Y-94456250D01*
X117656447Y-94477691D01*
X117653297Y-94498926D01*
X117648081Y-94519750D01*
X117640849Y-94539962D01*
X117631670Y-94559368D01*
X117620634Y-94577781D01*
X117607846Y-94595024D01*
X117593430Y-94610930D01*
X117577524Y-94625346D01*
X117560281Y-94638134D01*
X117541868Y-94649170D01*
X117522462Y-94658349D01*
X117502250Y-94665581D01*
X117481426Y-94670797D01*
X117460191Y-94673947D01*
X117438750Y-94675000D01*
X117001250Y-94675000D01*
X116979809Y-94673947D01*
X116958574Y-94670797D01*
X116937750Y-94665581D01*
X116917538Y-94658349D01*
X116898132Y-94649170D01*
X116879719Y-94638134D01*
X116862476Y-94625346D01*
X116846570Y-94610930D01*
X116832154Y-94595024D01*
X116819366Y-94577781D01*
X116808330Y-94559368D01*
X116799151Y-94539962D01*
X116791919Y-94519750D01*
X116786703Y-94498926D01*
X116783553Y-94477691D01*
X116782500Y-94456250D01*
X116782500Y-93943750D01*
X116783553Y-93922309D01*
X116786703Y-93901074D01*
X116791919Y-93880250D01*
X116799151Y-93860038D01*
X116808330Y-93840632D01*
X116819366Y-93822219D01*
X116832154Y-93804976D01*
X116846570Y-93789070D01*
X116862476Y-93774654D01*
X116879719Y-93761866D01*
X116898132Y-93750830D01*
X116917538Y-93741651D01*
X116937750Y-93734419D01*
X116958574Y-93729203D01*
X116979809Y-93726053D01*
X117001250Y-93725000D01*
X117438750Y-93725000D01*
X117460191Y-93726053D01*
X117460191Y-93726053D01*
G37*
D12*
X117220000Y-94200000D03*
D13*
X113940000Y-108630000D03*
D11*
G36*
X114714504Y-105281204D02*
G01*
X114738773Y-105284804D01*
X114762571Y-105290765D01*
X114785671Y-105299030D01*
X114807849Y-105309520D01*
X114828893Y-105322133D01*
X114848598Y-105336747D01*
X114866777Y-105353223D01*
X114883253Y-105371402D01*
X114897867Y-105391107D01*
X114910480Y-105412151D01*
X114920970Y-105434329D01*
X114929235Y-105457429D01*
X114935196Y-105481227D01*
X114938796Y-105505496D01*
X114940000Y-105530000D01*
X114940000Y-106730000D01*
X114938796Y-106754504D01*
X114935196Y-106778773D01*
X114929235Y-106802571D01*
X114920970Y-106825671D01*
X114910480Y-106847849D01*
X114897867Y-106868893D01*
X114883253Y-106888598D01*
X114866777Y-106906777D01*
X114848598Y-106923253D01*
X114828893Y-106937867D01*
X114807849Y-106950480D01*
X114785671Y-106960970D01*
X114762571Y-106969235D01*
X114738773Y-106975196D01*
X114714504Y-106978796D01*
X114690000Y-106980000D01*
X113190000Y-106980000D01*
X113165496Y-106978796D01*
X113141227Y-106975196D01*
X113117429Y-106969235D01*
X113094329Y-106960970D01*
X113072151Y-106950480D01*
X113051107Y-106937867D01*
X113031402Y-106923253D01*
X113013223Y-106906777D01*
X112996747Y-106888598D01*
X112982133Y-106868893D01*
X112969520Y-106847849D01*
X112959030Y-106825671D01*
X112950765Y-106802571D01*
X112944804Y-106778773D01*
X112941204Y-106754504D01*
X112940000Y-106730000D01*
X112940000Y-105530000D01*
X112941204Y-105505496D01*
X112944804Y-105481227D01*
X112950765Y-105457429D01*
X112959030Y-105434329D01*
X112969520Y-105412151D01*
X112982133Y-105391107D01*
X112996747Y-105371402D01*
X113013223Y-105353223D01*
X113031402Y-105336747D01*
X113051107Y-105322133D01*
X113072151Y-105309520D01*
X113094329Y-105299030D01*
X113117429Y-105290765D01*
X113141227Y-105284804D01*
X113165496Y-105281204D01*
X113190000Y-105280000D01*
X114690000Y-105280000D01*
X114714504Y-105281204D01*
X114714504Y-105281204D01*
G37*
D14*
X113940000Y-106130000D03*
D13*
X113930000Y-117160000D03*
D11*
G36*
X114704504Y-113811204D02*
G01*
X114728773Y-113814804D01*
X114752571Y-113820765D01*
X114775671Y-113829030D01*
X114797849Y-113839520D01*
X114818893Y-113852133D01*
X114838598Y-113866747D01*
X114856777Y-113883223D01*
X114873253Y-113901402D01*
X114887867Y-113921107D01*
X114900480Y-113942151D01*
X114910970Y-113964329D01*
X114919235Y-113987429D01*
X114925196Y-114011227D01*
X114928796Y-114035496D01*
X114930000Y-114060000D01*
X114930000Y-115260000D01*
X114928796Y-115284504D01*
X114925196Y-115308773D01*
X114919235Y-115332571D01*
X114910970Y-115355671D01*
X114900480Y-115377849D01*
X114887867Y-115398893D01*
X114873253Y-115418598D01*
X114856777Y-115436777D01*
X114838598Y-115453253D01*
X114818893Y-115467867D01*
X114797849Y-115480480D01*
X114775671Y-115490970D01*
X114752571Y-115499235D01*
X114728773Y-115505196D01*
X114704504Y-115508796D01*
X114680000Y-115510000D01*
X113180000Y-115510000D01*
X113155496Y-115508796D01*
X113131227Y-115505196D01*
X113107429Y-115499235D01*
X113084329Y-115490970D01*
X113062151Y-115480480D01*
X113041107Y-115467867D01*
X113021402Y-115453253D01*
X113003223Y-115436777D01*
X112986747Y-115418598D01*
X112972133Y-115398893D01*
X112959520Y-115377849D01*
X112949030Y-115355671D01*
X112940765Y-115332571D01*
X112934804Y-115308773D01*
X112931204Y-115284504D01*
X112930000Y-115260000D01*
X112930000Y-114060000D01*
X112931204Y-114035496D01*
X112934804Y-114011227D01*
X112940765Y-113987429D01*
X112949030Y-113964329D01*
X112959520Y-113942151D01*
X112972133Y-113921107D01*
X112986747Y-113901402D01*
X113003223Y-113883223D01*
X113021402Y-113866747D01*
X113041107Y-113852133D01*
X113062151Y-113839520D01*
X113084329Y-113829030D01*
X113107429Y-113820765D01*
X113131227Y-113814804D01*
X113155496Y-113811204D01*
X113180000Y-113810000D01*
X114680000Y-113810000D01*
X114704504Y-113811204D01*
X114704504Y-113811204D01*
G37*
D14*
X113930000Y-114660000D03*
D15*
X136040000Y-105210000D03*
X136040000Y-107210000D03*
X136040000Y-109210000D03*
D11*
G36*
X136689505Y-110611204D02*
G01*
X136713773Y-110614804D01*
X136737572Y-110620765D01*
X136760671Y-110629030D01*
X136782850Y-110639520D01*
X136803893Y-110652132D01*
X136823599Y-110666747D01*
X136841777Y-110683223D01*
X136858253Y-110701401D01*
X136872868Y-110721107D01*
X136885480Y-110742150D01*
X136895970Y-110764329D01*
X136904235Y-110787428D01*
X136910196Y-110811227D01*
X136913796Y-110835495D01*
X136915000Y-110859999D01*
X136915000Y-111560001D01*
X136913796Y-111584505D01*
X136910196Y-111608773D01*
X136904235Y-111632572D01*
X136895970Y-111655671D01*
X136885480Y-111677850D01*
X136872868Y-111698893D01*
X136858253Y-111718599D01*
X136841777Y-111736777D01*
X136823599Y-111753253D01*
X136803893Y-111767868D01*
X136782850Y-111780480D01*
X136760671Y-111790970D01*
X136737572Y-111799235D01*
X136713773Y-111805196D01*
X136689505Y-111808796D01*
X136665001Y-111810000D01*
X135414999Y-111810000D01*
X135390495Y-111808796D01*
X135366227Y-111805196D01*
X135342428Y-111799235D01*
X135319329Y-111790970D01*
X135297150Y-111780480D01*
X135276107Y-111767868D01*
X135256401Y-111753253D01*
X135238223Y-111736777D01*
X135221747Y-111718599D01*
X135207132Y-111698893D01*
X135194520Y-111677850D01*
X135184030Y-111655671D01*
X135175765Y-111632572D01*
X135169804Y-111608773D01*
X135166204Y-111584505D01*
X135165000Y-111560001D01*
X135165000Y-110859999D01*
X135166204Y-110835495D01*
X135169804Y-110811227D01*
X135175765Y-110787428D01*
X135184030Y-110764329D01*
X135194520Y-110742150D01*
X135207132Y-110721107D01*
X135221747Y-110701401D01*
X135238223Y-110683223D01*
X135256401Y-110666747D01*
X135276107Y-110652132D01*
X135297150Y-110639520D01*
X135319329Y-110629030D01*
X135342428Y-110620765D01*
X135366227Y-110614804D01*
X135390495Y-110611204D01*
X135414999Y-110610000D01*
X136665001Y-110610000D01*
X136689505Y-110611204D01*
X136689505Y-110611204D01*
G37*
D16*
X136040000Y-111210000D03*
D15*
X136050000Y-92120000D03*
X136050000Y-94120000D03*
X136050000Y-96120000D03*
X136050000Y-98120000D03*
D11*
G36*
X136699505Y-99521204D02*
G01*
X136723773Y-99524804D01*
X136747572Y-99530765D01*
X136770671Y-99539030D01*
X136792850Y-99549520D01*
X136813893Y-99562132D01*
X136833599Y-99576747D01*
X136851777Y-99593223D01*
X136868253Y-99611401D01*
X136882868Y-99631107D01*
X136895480Y-99652150D01*
X136905970Y-99674329D01*
X136914235Y-99697428D01*
X136920196Y-99721227D01*
X136923796Y-99745495D01*
X136925000Y-99769999D01*
X136925000Y-100470001D01*
X136923796Y-100494505D01*
X136920196Y-100518773D01*
X136914235Y-100542572D01*
X136905970Y-100565671D01*
X136895480Y-100587850D01*
X136882868Y-100608893D01*
X136868253Y-100628599D01*
X136851777Y-100646777D01*
X136833599Y-100663253D01*
X136813893Y-100677868D01*
X136792850Y-100690480D01*
X136770671Y-100700970D01*
X136747572Y-100709235D01*
X136723773Y-100715196D01*
X136699505Y-100718796D01*
X136675001Y-100720000D01*
X135424999Y-100720000D01*
X135400495Y-100718796D01*
X135376227Y-100715196D01*
X135352428Y-100709235D01*
X135329329Y-100700970D01*
X135307150Y-100690480D01*
X135286107Y-100677868D01*
X135266401Y-100663253D01*
X135248223Y-100646777D01*
X135231747Y-100628599D01*
X135217132Y-100608893D01*
X135204520Y-100587850D01*
X135194030Y-100565671D01*
X135185765Y-100542572D01*
X135179804Y-100518773D01*
X135176204Y-100494505D01*
X135175000Y-100470001D01*
X135175000Y-99769999D01*
X135176204Y-99745495D01*
X135179804Y-99721227D01*
X135185765Y-99697428D01*
X135194030Y-99674329D01*
X135204520Y-99652150D01*
X135217132Y-99631107D01*
X135231747Y-99611401D01*
X135248223Y-99593223D01*
X135266401Y-99576747D01*
X135286107Y-99562132D01*
X135307150Y-99549520D01*
X135329329Y-99539030D01*
X135352428Y-99530765D01*
X135376227Y-99524804D01*
X135400495Y-99521204D01*
X135424999Y-99520000D01*
X136675001Y-99520000D01*
X136699505Y-99521204D01*
X136699505Y-99521204D01*
G37*
D16*
X136050000Y-100120000D03*
D17*
X119200000Y-85250000D03*
D11*
G36*
X121574505Y-84376204D02*
G01*
X121598773Y-84379804D01*
X121622572Y-84385765D01*
X121645671Y-84394030D01*
X121667850Y-84404520D01*
X121688893Y-84417132D01*
X121708599Y-84431747D01*
X121726777Y-84448223D01*
X121743253Y-84466401D01*
X121757868Y-84486107D01*
X121770480Y-84507150D01*
X121780970Y-84529329D01*
X121789235Y-84552428D01*
X121795196Y-84576227D01*
X121798796Y-84600495D01*
X121800000Y-84624999D01*
X121800000Y-85875001D01*
X121798796Y-85899505D01*
X121795196Y-85923773D01*
X121789235Y-85947572D01*
X121780970Y-85970671D01*
X121770480Y-85992850D01*
X121757868Y-86013893D01*
X121743253Y-86033599D01*
X121726777Y-86051777D01*
X121708599Y-86068253D01*
X121688893Y-86082868D01*
X121667850Y-86095480D01*
X121645671Y-86105970D01*
X121622572Y-86114235D01*
X121598773Y-86120196D01*
X121574505Y-86123796D01*
X121550001Y-86125000D01*
X120849999Y-86125000D01*
X120825495Y-86123796D01*
X120801227Y-86120196D01*
X120777428Y-86114235D01*
X120754329Y-86105970D01*
X120732150Y-86095480D01*
X120711107Y-86082868D01*
X120691401Y-86068253D01*
X120673223Y-86051777D01*
X120656747Y-86033599D01*
X120642132Y-86013893D01*
X120629520Y-85992850D01*
X120619030Y-85970671D01*
X120610765Y-85947572D01*
X120604804Y-85923773D01*
X120601204Y-85899505D01*
X120600000Y-85875001D01*
X120600000Y-84624999D01*
X120601204Y-84600495D01*
X120604804Y-84576227D01*
X120610765Y-84552428D01*
X120619030Y-84529329D01*
X120629520Y-84507150D01*
X120642132Y-84486107D01*
X120656747Y-84466401D01*
X120673223Y-84448223D01*
X120691401Y-84431747D01*
X120711107Y-84417132D01*
X120732150Y-84404520D01*
X120754329Y-84394030D01*
X120777428Y-84385765D01*
X120801227Y-84379804D01*
X120825495Y-84376204D01*
X120849999Y-84375000D01*
X121550001Y-84375000D01*
X121574505Y-84376204D01*
X121574505Y-84376204D01*
G37*
D16*
X121200000Y-85250000D03*
D18*
X139697056Y-123802944D03*
X138000000Y-123100000D03*
X136302944Y-123802944D03*
X135600000Y-125500000D03*
X136302944Y-127197056D03*
X138000000Y-127900000D03*
X139697056Y-127197056D03*
X140400000Y-125500000D03*
D19*
X138000000Y-125500000D03*
D18*
X113447056Y-123802944D03*
X111750000Y-123100000D03*
X110052944Y-123802944D03*
X109350000Y-125500000D03*
X110052944Y-127197056D03*
X111750000Y-127900000D03*
X113447056Y-127197056D03*
X114150000Y-125500000D03*
D19*
X111750000Y-125500000D03*
D18*
X139697056Y-82302944D03*
X138000000Y-81600000D03*
X136302944Y-82302944D03*
X135600000Y-84000000D03*
X136302944Y-85697056D03*
X138000000Y-86400000D03*
X139697056Y-85697056D03*
X140400000Y-84000000D03*
D19*
X138000000Y-84000000D03*
D18*
X113447056Y-82302944D03*
X111750000Y-81600000D03*
X110052944Y-82302944D03*
X109350000Y-84000000D03*
X110052944Y-85697056D03*
X111750000Y-86400000D03*
X113447056Y-85697056D03*
X114150000Y-84000000D03*
D19*
X111750000Y-84000000D03*
D11*
G36*
X118935191Y-95226053D02*
G01*
X118956426Y-95229203D01*
X118977250Y-95234419D01*
X118997462Y-95241651D01*
X119016868Y-95250830D01*
X119035281Y-95261866D01*
X119052524Y-95274654D01*
X119068430Y-95289070D01*
X119082846Y-95304976D01*
X119095634Y-95322219D01*
X119106670Y-95340632D01*
X119115849Y-95360038D01*
X119123081Y-95380250D01*
X119128297Y-95401074D01*
X119131447Y-95422309D01*
X119132500Y-95443750D01*
X119132500Y-95956250D01*
X119131447Y-95977691D01*
X119128297Y-95998926D01*
X119123081Y-96019750D01*
X119115849Y-96039962D01*
X119106670Y-96059368D01*
X119095634Y-96077781D01*
X119082846Y-96095024D01*
X119068430Y-96110930D01*
X119052524Y-96125346D01*
X119035281Y-96138134D01*
X119016868Y-96149170D01*
X118997462Y-96158349D01*
X118977250Y-96165581D01*
X118956426Y-96170797D01*
X118935191Y-96173947D01*
X118913750Y-96175000D01*
X118476250Y-96175000D01*
X118454809Y-96173947D01*
X118433574Y-96170797D01*
X118412750Y-96165581D01*
X118392538Y-96158349D01*
X118373132Y-96149170D01*
X118354719Y-96138134D01*
X118337476Y-96125346D01*
X118321570Y-96110930D01*
X118307154Y-96095024D01*
X118294366Y-96077781D01*
X118283330Y-96059368D01*
X118274151Y-96039962D01*
X118266919Y-96019750D01*
X118261703Y-95998926D01*
X118258553Y-95977691D01*
X118257500Y-95956250D01*
X118257500Y-95443750D01*
X118258553Y-95422309D01*
X118261703Y-95401074D01*
X118266919Y-95380250D01*
X118274151Y-95360038D01*
X118283330Y-95340632D01*
X118294366Y-95322219D01*
X118307154Y-95304976D01*
X118321570Y-95289070D01*
X118337476Y-95274654D01*
X118354719Y-95261866D01*
X118373132Y-95250830D01*
X118392538Y-95241651D01*
X118412750Y-95234419D01*
X118433574Y-95229203D01*
X118454809Y-95226053D01*
X118476250Y-95225000D01*
X118913750Y-95225000D01*
X118935191Y-95226053D01*
X118935191Y-95226053D01*
G37*
D12*
X118695000Y-95700000D03*
D11*
G36*
X120510191Y-95226053D02*
G01*
X120531426Y-95229203D01*
X120552250Y-95234419D01*
X120572462Y-95241651D01*
X120591868Y-95250830D01*
X120610281Y-95261866D01*
X120627524Y-95274654D01*
X120643430Y-95289070D01*
X120657846Y-95304976D01*
X120670634Y-95322219D01*
X120681670Y-95340632D01*
X120690849Y-95360038D01*
X120698081Y-95380250D01*
X120703297Y-95401074D01*
X120706447Y-95422309D01*
X120707500Y-95443750D01*
X120707500Y-95956250D01*
X120706447Y-95977691D01*
X120703297Y-95998926D01*
X120698081Y-96019750D01*
X120690849Y-96039962D01*
X120681670Y-96059368D01*
X120670634Y-96077781D01*
X120657846Y-96095024D01*
X120643430Y-96110930D01*
X120627524Y-96125346D01*
X120610281Y-96138134D01*
X120591868Y-96149170D01*
X120572462Y-96158349D01*
X120552250Y-96165581D01*
X120531426Y-96170797D01*
X120510191Y-96173947D01*
X120488750Y-96175000D01*
X120051250Y-96175000D01*
X120029809Y-96173947D01*
X120008574Y-96170797D01*
X119987750Y-96165581D01*
X119967538Y-96158349D01*
X119948132Y-96149170D01*
X119929719Y-96138134D01*
X119912476Y-96125346D01*
X119896570Y-96110930D01*
X119882154Y-96095024D01*
X119869366Y-96077781D01*
X119858330Y-96059368D01*
X119849151Y-96039962D01*
X119841919Y-96019750D01*
X119836703Y-95998926D01*
X119833553Y-95977691D01*
X119832500Y-95956250D01*
X119832500Y-95443750D01*
X119833553Y-95422309D01*
X119836703Y-95401074D01*
X119841919Y-95380250D01*
X119849151Y-95360038D01*
X119858330Y-95340632D01*
X119869366Y-95322219D01*
X119882154Y-95304976D01*
X119896570Y-95289070D01*
X119912476Y-95274654D01*
X119929719Y-95261866D01*
X119948132Y-95250830D01*
X119967538Y-95241651D01*
X119987750Y-95234419D01*
X120008574Y-95229203D01*
X120029809Y-95226053D01*
X120051250Y-95225000D01*
X120488750Y-95225000D01*
X120510191Y-95226053D01*
X120510191Y-95226053D01*
G37*
D12*
X120270000Y-95700000D03*
D11*
G36*
X127515191Y-91776053D02*
G01*
X127536426Y-91779203D01*
X127557250Y-91784419D01*
X127577462Y-91791651D01*
X127596868Y-91800830D01*
X127615281Y-91811866D01*
X127632524Y-91824654D01*
X127648430Y-91839070D01*
X127662846Y-91854976D01*
X127675634Y-91872219D01*
X127686670Y-91890632D01*
X127695849Y-91910038D01*
X127703081Y-91930250D01*
X127708297Y-91951074D01*
X127711447Y-91972309D01*
X127712500Y-91993750D01*
X127712500Y-92506250D01*
X127711447Y-92527691D01*
X127708297Y-92548926D01*
X127703081Y-92569750D01*
X127695849Y-92589962D01*
X127686670Y-92609368D01*
X127675634Y-92627781D01*
X127662846Y-92645024D01*
X127648430Y-92660930D01*
X127632524Y-92675346D01*
X127615281Y-92688134D01*
X127596868Y-92699170D01*
X127577462Y-92708349D01*
X127557250Y-92715581D01*
X127536426Y-92720797D01*
X127515191Y-92723947D01*
X127493750Y-92725000D01*
X127056250Y-92725000D01*
X127034809Y-92723947D01*
X127013574Y-92720797D01*
X126992750Y-92715581D01*
X126972538Y-92708349D01*
X126953132Y-92699170D01*
X126934719Y-92688134D01*
X126917476Y-92675346D01*
X126901570Y-92660930D01*
X126887154Y-92645024D01*
X126874366Y-92627781D01*
X126863330Y-92609368D01*
X126854151Y-92589962D01*
X126846919Y-92569750D01*
X126841703Y-92548926D01*
X126838553Y-92527691D01*
X126837500Y-92506250D01*
X126837500Y-91993750D01*
X126838553Y-91972309D01*
X126841703Y-91951074D01*
X126846919Y-91930250D01*
X126854151Y-91910038D01*
X126863330Y-91890632D01*
X126874366Y-91872219D01*
X126887154Y-91854976D01*
X126901570Y-91839070D01*
X126917476Y-91824654D01*
X126934719Y-91811866D01*
X126953132Y-91800830D01*
X126972538Y-91791651D01*
X126992750Y-91784419D01*
X127013574Y-91779203D01*
X127034809Y-91776053D01*
X127056250Y-91775000D01*
X127493750Y-91775000D01*
X127515191Y-91776053D01*
X127515191Y-91776053D01*
G37*
D12*
X127275000Y-92250000D03*
D11*
G36*
X125940191Y-91776053D02*
G01*
X125961426Y-91779203D01*
X125982250Y-91784419D01*
X126002462Y-91791651D01*
X126021868Y-91800830D01*
X126040281Y-91811866D01*
X126057524Y-91824654D01*
X126073430Y-91839070D01*
X126087846Y-91854976D01*
X126100634Y-91872219D01*
X126111670Y-91890632D01*
X126120849Y-91910038D01*
X126128081Y-91930250D01*
X126133297Y-91951074D01*
X126136447Y-91972309D01*
X126137500Y-91993750D01*
X126137500Y-92506250D01*
X126136447Y-92527691D01*
X126133297Y-92548926D01*
X126128081Y-92569750D01*
X126120849Y-92589962D01*
X126111670Y-92609368D01*
X126100634Y-92627781D01*
X126087846Y-92645024D01*
X126073430Y-92660930D01*
X126057524Y-92675346D01*
X126040281Y-92688134D01*
X126021868Y-92699170D01*
X126002462Y-92708349D01*
X125982250Y-92715581D01*
X125961426Y-92720797D01*
X125940191Y-92723947D01*
X125918750Y-92725000D01*
X125481250Y-92725000D01*
X125459809Y-92723947D01*
X125438574Y-92720797D01*
X125417750Y-92715581D01*
X125397538Y-92708349D01*
X125378132Y-92699170D01*
X125359719Y-92688134D01*
X125342476Y-92675346D01*
X125326570Y-92660930D01*
X125312154Y-92645024D01*
X125299366Y-92627781D01*
X125288330Y-92609368D01*
X125279151Y-92589962D01*
X125271919Y-92569750D01*
X125266703Y-92548926D01*
X125263553Y-92527691D01*
X125262500Y-92506250D01*
X125262500Y-91993750D01*
X125263553Y-91972309D01*
X125266703Y-91951074D01*
X125271919Y-91930250D01*
X125279151Y-91910038D01*
X125288330Y-91890632D01*
X125299366Y-91872219D01*
X125312154Y-91854976D01*
X125326570Y-91839070D01*
X125342476Y-91824654D01*
X125359719Y-91811866D01*
X125378132Y-91800830D01*
X125397538Y-91791651D01*
X125417750Y-91784419D01*
X125438574Y-91779203D01*
X125459809Y-91776053D01*
X125481250Y-91775000D01*
X125918750Y-91775000D01*
X125940191Y-91776053D01*
X125940191Y-91776053D01*
G37*
D12*
X125700000Y-92250000D03*
D11*
G36*
X119715191Y-91886053D02*
G01*
X119736426Y-91889203D01*
X119757250Y-91894419D01*
X119777462Y-91901651D01*
X119796868Y-91910830D01*
X119815281Y-91921866D01*
X119832524Y-91934654D01*
X119848430Y-91949070D01*
X119862846Y-91964976D01*
X119875634Y-91982219D01*
X119886670Y-92000632D01*
X119895849Y-92020038D01*
X119903081Y-92040250D01*
X119908297Y-92061074D01*
X119911447Y-92082309D01*
X119912500Y-92103750D01*
X119912500Y-92616250D01*
X119911447Y-92637691D01*
X119908297Y-92658926D01*
X119903081Y-92679750D01*
X119895849Y-92699962D01*
X119886670Y-92719368D01*
X119875634Y-92737781D01*
X119862846Y-92755024D01*
X119848430Y-92770930D01*
X119832524Y-92785346D01*
X119815281Y-92798134D01*
X119796868Y-92809170D01*
X119777462Y-92818349D01*
X119757250Y-92825581D01*
X119736426Y-92830797D01*
X119715191Y-92833947D01*
X119693750Y-92835000D01*
X119256250Y-92835000D01*
X119234809Y-92833947D01*
X119213574Y-92830797D01*
X119192750Y-92825581D01*
X119172538Y-92818349D01*
X119153132Y-92809170D01*
X119134719Y-92798134D01*
X119117476Y-92785346D01*
X119101570Y-92770930D01*
X119087154Y-92755024D01*
X119074366Y-92737781D01*
X119063330Y-92719368D01*
X119054151Y-92699962D01*
X119046919Y-92679750D01*
X119041703Y-92658926D01*
X119038553Y-92637691D01*
X119037500Y-92616250D01*
X119037500Y-92103750D01*
X119038553Y-92082309D01*
X119041703Y-92061074D01*
X119046919Y-92040250D01*
X119054151Y-92020038D01*
X119063330Y-92000632D01*
X119074366Y-91982219D01*
X119087154Y-91964976D01*
X119101570Y-91949070D01*
X119117476Y-91934654D01*
X119134719Y-91921866D01*
X119153132Y-91910830D01*
X119172538Y-91901651D01*
X119192750Y-91894419D01*
X119213574Y-91889203D01*
X119234809Y-91886053D01*
X119256250Y-91885000D01*
X119693750Y-91885000D01*
X119715191Y-91886053D01*
X119715191Y-91886053D01*
G37*
D12*
X119475000Y-92360000D03*
D11*
G36*
X121290191Y-91886053D02*
G01*
X121311426Y-91889203D01*
X121332250Y-91894419D01*
X121352462Y-91901651D01*
X121371868Y-91910830D01*
X121390281Y-91921866D01*
X121407524Y-91934654D01*
X121423430Y-91949070D01*
X121437846Y-91964976D01*
X121450634Y-91982219D01*
X121461670Y-92000632D01*
X121470849Y-92020038D01*
X121478081Y-92040250D01*
X121483297Y-92061074D01*
X121486447Y-92082309D01*
X121487500Y-92103750D01*
X121487500Y-92616250D01*
X121486447Y-92637691D01*
X121483297Y-92658926D01*
X121478081Y-92679750D01*
X121470849Y-92699962D01*
X121461670Y-92719368D01*
X121450634Y-92737781D01*
X121437846Y-92755024D01*
X121423430Y-92770930D01*
X121407524Y-92785346D01*
X121390281Y-92798134D01*
X121371868Y-92809170D01*
X121352462Y-92818349D01*
X121332250Y-92825581D01*
X121311426Y-92830797D01*
X121290191Y-92833947D01*
X121268750Y-92835000D01*
X120831250Y-92835000D01*
X120809809Y-92833947D01*
X120788574Y-92830797D01*
X120767750Y-92825581D01*
X120747538Y-92818349D01*
X120728132Y-92809170D01*
X120709719Y-92798134D01*
X120692476Y-92785346D01*
X120676570Y-92770930D01*
X120662154Y-92755024D01*
X120649366Y-92737781D01*
X120638330Y-92719368D01*
X120629151Y-92699962D01*
X120621919Y-92679750D01*
X120616703Y-92658926D01*
X120613553Y-92637691D01*
X120612500Y-92616250D01*
X120612500Y-92103750D01*
X120613553Y-92082309D01*
X120616703Y-92061074D01*
X120621919Y-92040250D01*
X120629151Y-92020038D01*
X120638330Y-92000632D01*
X120649366Y-91982219D01*
X120662154Y-91964976D01*
X120676570Y-91949070D01*
X120692476Y-91934654D01*
X120709719Y-91921866D01*
X120728132Y-91910830D01*
X120747538Y-91901651D01*
X120767750Y-91894419D01*
X120788574Y-91889203D01*
X120809809Y-91886053D01*
X120831250Y-91885000D01*
X121268750Y-91885000D01*
X121290191Y-91886053D01*
X121290191Y-91886053D01*
G37*
D12*
X121050000Y-92360000D03*
D18*
X124710000Y-98060000D03*
X123570000Y-98060000D03*
X122380000Y-98070000D03*
X124720000Y-96920000D03*
X122360000Y-96940000D03*
X124750000Y-95660000D03*
X123600000Y-95690000D03*
X122340000Y-95680000D03*
X117140000Y-95710000D03*
X108430000Y-101260000D03*
X109260000Y-101250000D03*
X110080000Y-101260000D03*
X110910000Y-101250000D03*
X111740000Y-101260000D03*
X108390000Y-93000000D03*
X109210000Y-92990000D03*
X110020000Y-93000000D03*
X110830000Y-93000000D03*
X111640000Y-93000000D03*
X119240000Y-107210000D03*
X119740000Y-103770000D03*
X121300000Y-103770000D03*
X122880000Y-103770000D03*
X125290000Y-103540000D03*
X122260000Y-111720000D03*
X128080000Y-110040000D03*
X115500000Y-99190000D03*
X115500000Y-100770000D03*
X115500000Y-102310000D03*
X116300000Y-91660000D03*
X117830000Y-91660000D03*
X124340000Y-87200000D03*
X125880000Y-88760000D03*
X131510000Y-88760000D03*
X133010000Y-102830000D03*
X117430000Y-98290000D03*
X123540000Y-96890000D03*
X117610000Y-117380000D03*
X125780000Y-114670000D03*
X125790000Y-116570000D03*
X114490000Y-94200000D03*
X118753657Y-91200698D03*
X127270000Y-93410000D03*
X133030000Y-89400000D03*
X121430000Y-113350000D03*
X121640000Y-88390000D03*
X118230000Y-103520000D03*
X121045147Y-93544853D03*
X125700000Y-93420001D03*
X120263048Y-94463342D03*
X127070000Y-94412400D03*
X119165403Y-94204597D03*
D20*
X115645000Y-94200000D02*
X114490000Y-94200000D01*
X117150000Y-95700000D02*
X117140000Y-95710000D01*
X118695000Y-95700000D02*
X117150000Y-95700000D01*
X119475000Y-92360000D02*
X119475000Y-91922041D01*
X119475000Y-91922041D02*
X118753657Y-91200698D01*
X127275000Y-92250000D02*
X127275000Y-93405000D01*
X127275000Y-93405000D02*
X127270000Y-93410000D01*
D21*
X121045147Y-92364853D02*
X121050000Y-92360000D01*
X121045147Y-93544853D02*
X121045147Y-92364853D01*
X125700000Y-93420001D02*
X125700000Y-92250000D01*
X120263048Y-95693048D02*
X120270000Y-95700000D01*
X120263048Y-94463342D02*
X120263048Y-95693048D01*
X136040000Y-104360000D02*
X136040000Y-105210000D01*
X136040000Y-102816715D02*
X136040000Y-104360000D01*
X127635685Y-94412400D02*
X136040000Y-102816715D01*
X127070000Y-94412400D02*
X127635685Y-94412400D01*
X117224597Y-94204597D02*
X117220000Y-94200000D01*
X119165403Y-94204597D02*
X117224597Y-94204597D01*
D22*
G36*
X135555330Y-81021161D02*
G01*
X135021161Y-81555330D01*
X134601467Y-82183446D01*
X134312377Y-82881372D01*
X134165000Y-83622285D01*
X134165000Y-84377715D01*
X134312377Y-85118628D01*
X134601467Y-85816554D01*
X135021161Y-86444670D01*
X135555330Y-86978839D01*
X136183446Y-87398533D01*
X136881372Y-87687623D01*
X137622285Y-87835000D01*
X138377715Y-87835000D01*
X139118628Y-87687623D01*
X139816554Y-87398533D01*
X140444670Y-86978839D01*
X140978839Y-86444670D01*
X141398533Y-85816554D01*
X141590001Y-85354309D01*
X141590000Y-122217581D01*
X141590000Y-124145689D01*
X141398533Y-123683446D01*
X140978839Y-123055330D01*
X140444670Y-122521161D01*
X139816554Y-122101467D01*
X139118628Y-121812377D01*
X138377715Y-121665000D01*
X137622285Y-121665000D01*
X136881372Y-121812377D01*
X136183446Y-122101467D01*
X135555330Y-122521161D01*
X135021161Y-123055330D01*
X134601467Y-123683446D01*
X134312377Y-124381372D01*
X134165000Y-125122285D01*
X134165000Y-125877715D01*
X134312377Y-126618628D01*
X134601467Y-127316554D01*
X135021161Y-127944670D01*
X135555330Y-128478839D01*
X136183446Y-128898533D01*
X136645689Y-129090000D01*
X113104311Y-129090000D01*
X113566554Y-128898533D01*
X114194670Y-128478839D01*
X114728839Y-127944670D01*
X115148533Y-127316554D01*
X115437623Y-126618628D01*
X115585000Y-125877715D01*
X115585000Y-125122285D01*
X115437623Y-124381372D01*
X115148533Y-123683446D01*
X114728839Y-123055330D01*
X114194670Y-122521161D01*
X113566554Y-122101467D01*
X112868628Y-121812377D01*
X112127715Y-121665000D01*
X111372285Y-121665000D01*
X110631372Y-121812377D01*
X109933446Y-122101467D01*
X109305330Y-122521161D01*
X108771161Y-123055330D01*
X108351467Y-123683446D01*
X108160000Y-124145689D01*
X108160000Y-117516890D01*
X112338524Y-117516890D01*
X112340446Y-117529261D01*
X112440146Y-117803009D01*
X112591336Y-118052046D01*
X112788205Y-118266802D01*
X113023188Y-118439025D01*
X113287255Y-118562096D01*
X113570258Y-118631285D01*
X113803000Y-118487232D01*
X113803000Y-117287000D01*
X114057000Y-117287000D01*
X114057000Y-118487232D01*
X114289742Y-118631285D01*
X114572745Y-118562096D01*
X114836812Y-118439025D01*
X115071795Y-118266802D01*
X115268664Y-118052046D01*
X115419854Y-117803009D01*
X115519554Y-117529261D01*
X115521476Y-117516890D01*
X115400155Y-117287000D01*
X114057000Y-117287000D01*
X113803000Y-117287000D01*
X112459845Y-117287000D01*
X112338524Y-117516890D01*
X108160000Y-117516890D01*
X108160000Y-114060000D01*
X112291928Y-114060000D01*
X112291928Y-115260000D01*
X112308992Y-115433254D01*
X112359528Y-115599850D01*
X112441595Y-115753386D01*
X112552038Y-115887962D01*
X112686614Y-115998405D01*
X112788593Y-116052914D01*
X112788205Y-116053198D01*
X112591336Y-116267954D01*
X112440146Y-116516991D01*
X112340446Y-116790739D01*
X112338524Y-116803110D01*
X112459845Y-117033000D01*
X113803000Y-117033000D01*
X113803000Y-117013000D01*
X114057000Y-117013000D01*
X114057000Y-117033000D01*
X115400155Y-117033000D01*
X115521476Y-116803110D01*
X115519554Y-116790739D01*
X115419854Y-116516991D01*
X115268664Y-116267954D01*
X115071795Y-116053198D01*
X115071407Y-116052914D01*
X115173386Y-115998405D01*
X115307962Y-115887962D01*
X115418405Y-115753386D01*
X115500472Y-115599850D01*
X115551008Y-115433254D01*
X115568072Y-115260000D01*
X115568072Y-114060000D01*
X115551008Y-113886746D01*
X115500472Y-113720150D01*
X115418405Y-113566614D01*
X115307962Y-113432038D01*
X115173386Y-113321595D01*
X115035815Y-113248061D01*
X120395000Y-113248061D01*
X120395000Y-113451939D01*
X120434774Y-113651898D01*
X120512795Y-113840256D01*
X120626063Y-114009774D01*
X120770226Y-114153937D01*
X120939744Y-114267205D01*
X121128102Y-114345226D01*
X121328061Y-114385000D01*
X121531939Y-114385000D01*
X121731898Y-114345226D01*
X121920256Y-114267205D01*
X122089774Y-114153937D01*
X122233937Y-114009774D01*
X122347205Y-113840256D01*
X122425226Y-113651898D01*
X122465000Y-113451939D01*
X122465000Y-113248061D01*
X122425226Y-113048102D01*
X122347205Y-112859744D01*
X122233937Y-112690226D01*
X122089774Y-112546063D01*
X121920256Y-112432795D01*
X121731898Y-112354774D01*
X121531939Y-112315000D01*
X121328061Y-112315000D01*
X121128102Y-112354774D01*
X120939744Y-112432795D01*
X120770226Y-112546063D01*
X120626063Y-112690226D01*
X120512795Y-112859744D01*
X120434774Y-113048102D01*
X120395000Y-113248061D01*
X115035815Y-113248061D01*
X115019850Y-113239528D01*
X114853254Y-113188992D01*
X114680000Y-113171928D01*
X113180000Y-113171928D01*
X113006746Y-113188992D01*
X112840150Y-113239528D01*
X112686614Y-113321595D01*
X112552038Y-113432038D01*
X112441595Y-113566614D01*
X112359528Y-113720150D01*
X112308992Y-113886746D01*
X112291928Y-114060000D01*
X108160000Y-114060000D01*
X108160000Y-108986890D01*
X112348524Y-108986890D01*
X112350446Y-108999261D01*
X112450146Y-109273009D01*
X112601336Y-109522046D01*
X112798205Y-109736802D01*
X113033188Y-109909025D01*
X113297255Y-110032096D01*
X113580258Y-110101285D01*
X113813000Y-109957232D01*
X113813000Y-108757000D01*
X114067000Y-108757000D01*
X114067000Y-109957232D01*
X114299742Y-110101285D01*
X114582745Y-110032096D01*
X114846812Y-109909025D01*
X115081795Y-109736802D01*
X115278664Y-109522046D01*
X115429854Y-109273009D01*
X115529554Y-108999261D01*
X115531476Y-108986890D01*
X115410155Y-108757000D01*
X114067000Y-108757000D01*
X113813000Y-108757000D01*
X112469845Y-108757000D01*
X112348524Y-108986890D01*
X108160000Y-108986890D01*
X108160000Y-105530000D01*
X112301928Y-105530000D01*
X112301928Y-106730000D01*
X112318992Y-106903254D01*
X112369528Y-107069850D01*
X112451595Y-107223386D01*
X112562038Y-107357962D01*
X112696614Y-107468405D01*
X112798593Y-107522914D01*
X112798205Y-107523198D01*
X112601336Y-107737954D01*
X112450146Y-107986991D01*
X112350446Y-108260739D01*
X112348524Y-108273110D01*
X112469845Y-108503000D01*
X113813000Y-108503000D01*
X113813000Y-108483000D01*
X114067000Y-108483000D01*
X114067000Y-108503000D01*
X115410155Y-108503000D01*
X115531476Y-108273110D01*
X115529554Y-108260739D01*
X115429854Y-107986991D01*
X115278664Y-107737954D01*
X115081795Y-107523198D01*
X115081407Y-107522914D01*
X115183386Y-107468405D01*
X115317962Y-107357962D01*
X115428405Y-107223386D01*
X115510472Y-107069850D01*
X115561008Y-106903254D01*
X115578072Y-106730000D01*
X115578072Y-105530000D01*
X115561008Y-105356746D01*
X115510472Y-105190150D01*
X115428405Y-105036614D01*
X115317962Y-104902038D01*
X115183386Y-104791595D01*
X115029850Y-104709528D01*
X114863254Y-104658992D01*
X114690000Y-104641928D01*
X113190000Y-104641928D01*
X113016746Y-104658992D01*
X112850150Y-104709528D01*
X112696614Y-104791595D01*
X112562038Y-104902038D01*
X112451595Y-105036614D01*
X112369528Y-105190150D01*
X112318992Y-105356746D01*
X112301928Y-105530000D01*
X108160000Y-105530000D01*
X108160000Y-103418061D01*
X117195000Y-103418061D01*
X117195000Y-103621939D01*
X117234774Y-103821898D01*
X117312795Y-104010256D01*
X117426063Y-104179774D01*
X117570226Y-104323937D01*
X117739744Y-104437205D01*
X117928102Y-104515226D01*
X118128061Y-104555000D01*
X118331939Y-104555000D01*
X118531898Y-104515226D01*
X118720256Y-104437205D01*
X118889774Y-104323937D01*
X119033937Y-104179774D01*
X119147205Y-104010256D01*
X119225226Y-103821898D01*
X119265000Y-103621939D01*
X119265000Y-103418061D01*
X119225226Y-103218102D01*
X119147205Y-103029744D01*
X119033937Y-102860226D01*
X118889774Y-102716063D01*
X118720256Y-102602795D01*
X118531898Y-102524774D01*
X118331939Y-102485000D01*
X118128061Y-102485000D01*
X117928102Y-102524774D01*
X117739744Y-102602795D01*
X117570226Y-102716063D01*
X117426063Y-102860226D01*
X117312795Y-103029744D01*
X117234774Y-103218102D01*
X117195000Y-103418061D01*
X108160000Y-103418061D01*
X108160000Y-101217925D01*
X109554250Y-101215000D01*
X109713000Y-101056250D01*
X109713000Y-99957000D01*
X109967000Y-99957000D01*
X109967000Y-101056250D01*
X110125750Y-101215000D01*
X111590000Y-101218072D01*
X111714482Y-101205812D01*
X111834180Y-101169502D01*
X111944494Y-101110537D01*
X112041185Y-101031185D01*
X112120537Y-100934494D01*
X112179502Y-100824180D01*
X112215812Y-100704482D01*
X112228072Y-100580000D01*
X112225000Y-100115750D01*
X112066250Y-99957000D01*
X109967000Y-99957000D01*
X109713000Y-99957000D01*
X109693000Y-99957000D01*
X109693000Y-99703000D01*
X109713000Y-99703000D01*
X109713000Y-98603750D01*
X109967000Y-98603750D01*
X109967000Y-99703000D01*
X112066250Y-99703000D01*
X112225000Y-99544250D01*
X112228072Y-99080000D01*
X112215812Y-98955518D01*
X112179502Y-98835820D01*
X112120537Y-98725506D01*
X112041185Y-98628815D01*
X111944494Y-98549463D01*
X111834180Y-98490498D01*
X111714482Y-98454188D01*
X111590000Y-98441928D01*
X110125750Y-98445000D01*
X109967000Y-98603750D01*
X109713000Y-98603750D01*
X109554250Y-98445000D01*
X108160000Y-98442075D01*
X108160000Y-96175000D01*
X117619428Y-96175000D01*
X117631688Y-96299482D01*
X117667998Y-96419180D01*
X117726963Y-96529494D01*
X117806315Y-96626185D01*
X117903006Y-96705537D01*
X118013320Y-96764502D01*
X118133018Y-96800812D01*
X118257500Y-96813072D01*
X118409250Y-96810000D01*
X118568000Y-96651250D01*
X118568000Y-95827000D01*
X117781250Y-95827000D01*
X117622500Y-95985750D01*
X117619428Y-96175000D01*
X108160000Y-96175000D01*
X108160000Y-95817925D01*
X109554250Y-95815000D01*
X109713000Y-95656250D01*
X109713000Y-94557000D01*
X109967000Y-94557000D01*
X109967000Y-95656250D01*
X110125750Y-95815000D01*
X111590000Y-95818072D01*
X111714482Y-95805812D01*
X111834180Y-95769502D01*
X111944494Y-95710537D01*
X112041185Y-95631185D01*
X112120537Y-95534494D01*
X112179502Y-95424180D01*
X112215812Y-95304482D01*
X112228072Y-95180000D01*
X112225000Y-94715750D01*
X112184250Y-94675000D01*
X114569428Y-94675000D01*
X114581688Y-94799482D01*
X114617998Y-94919180D01*
X114676963Y-95029494D01*
X114756315Y-95126185D01*
X114853006Y-95205537D01*
X114963320Y-95264502D01*
X115083018Y-95300812D01*
X115207500Y-95313072D01*
X115359250Y-95310000D01*
X115518000Y-95151250D01*
X115518000Y-94327000D01*
X114731250Y-94327000D01*
X114572500Y-94485750D01*
X114569428Y-94675000D01*
X112184250Y-94675000D01*
X112066250Y-94557000D01*
X109967000Y-94557000D01*
X109713000Y-94557000D01*
X109693000Y-94557000D01*
X109693000Y-94303000D01*
X109713000Y-94303000D01*
X109713000Y-93203750D01*
X109967000Y-93203750D01*
X109967000Y-94303000D01*
X112066250Y-94303000D01*
X112225000Y-94144250D01*
X112227774Y-93725000D01*
X114569428Y-93725000D01*
X114572500Y-93914250D01*
X114731250Y-94073000D01*
X115518000Y-94073000D01*
X115518000Y-93248750D01*
X115772000Y-93248750D01*
X115772000Y-94073000D01*
X115792000Y-94073000D01*
X115792000Y-94327000D01*
X115772000Y-94327000D01*
X115772000Y-95151250D01*
X115930750Y-95310000D01*
X116082500Y-95313072D01*
X116206982Y-95300812D01*
X116326680Y-95264502D01*
X116436994Y-95205537D01*
X116503570Y-95150900D01*
X116525225Y-95168671D01*
X116673358Y-95247850D01*
X116834092Y-95296608D01*
X117001250Y-95313072D01*
X117438750Y-95313072D01*
X117605908Y-95296608D01*
X117620518Y-95292176D01*
X117622500Y-95414250D01*
X117781250Y-95573000D01*
X118568000Y-95573000D01*
X118568000Y-95553000D01*
X118822000Y-95553000D01*
X118822000Y-95573000D01*
X118842000Y-95573000D01*
X118842000Y-95827000D01*
X118822000Y-95827000D01*
X118822000Y-96651250D01*
X118980750Y-96810000D01*
X119132500Y-96813072D01*
X119256982Y-96800812D01*
X119376680Y-96764502D01*
X119486994Y-96705537D01*
X119553570Y-96650900D01*
X119575225Y-96668671D01*
X119723358Y-96747850D01*
X119884092Y-96796608D01*
X120051250Y-96813072D01*
X120488750Y-96813072D01*
X120655908Y-96796608D01*
X120816642Y-96747850D01*
X120964775Y-96668671D01*
X121094615Y-96562115D01*
X121201171Y-96432275D01*
X121280350Y-96284142D01*
X121329108Y-96123408D01*
X121345572Y-95956250D01*
X121345572Y-95443750D01*
X121329108Y-95276592D01*
X121280350Y-95115858D01*
X121201171Y-94967725D01*
X121183381Y-94946047D01*
X121258274Y-94765240D01*
X121298048Y-94565281D01*
X121298048Y-94549825D01*
X121347045Y-94540079D01*
X121535403Y-94462058D01*
X121704921Y-94348790D01*
X121849084Y-94204627D01*
X121962352Y-94035109D01*
X122040373Y-93846751D01*
X122080147Y-93646792D01*
X122080147Y-93442914D01*
X122040373Y-93242955D01*
X121979036Y-93094876D01*
X121981171Y-93092275D01*
X122060350Y-92944142D01*
X122109108Y-92783408D01*
X122125572Y-92616250D01*
X122125572Y-92103750D01*
X122114738Y-91993750D01*
X124624428Y-91993750D01*
X124624428Y-92506250D01*
X124640892Y-92673408D01*
X124689650Y-92834142D01*
X124764439Y-92974061D01*
X124704774Y-93118103D01*
X124665000Y-93318062D01*
X124665000Y-93521940D01*
X124704774Y-93721899D01*
X124782795Y-93910257D01*
X124896063Y-94079775D01*
X125040226Y-94223938D01*
X125209744Y-94337206D01*
X125398102Y-94415227D01*
X125598061Y-94455001D01*
X125801939Y-94455001D01*
X126001898Y-94415227D01*
X126035000Y-94401516D01*
X126035000Y-94514339D01*
X126074774Y-94714298D01*
X126152795Y-94902656D01*
X126266063Y-95072174D01*
X126410226Y-95216337D01*
X126579744Y-95329605D01*
X126768102Y-95407626D01*
X126968061Y-95447400D01*
X127171939Y-95447400D01*
X127371898Y-95407626D01*
X127502155Y-95353671D01*
X135280000Y-103131517D01*
X135280001Y-104068887D01*
X135075551Y-104178167D01*
X134887498Y-104332498D01*
X134733167Y-104520551D01*
X134618489Y-104735099D01*
X134547870Y-104967898D01*
X134524025Y-105210000D01*
X134547870Y-105452102D01*
X134618489Y-105684901D01*
X134733167Y-105899449D01*
X134887498Y-106087502D01*
X135036762Y-106210000D01*
X134887498Y-106332498D01*
X134733167Y-106520551D01*
X134618489Y-106735099D01*
X134547870Y-106967898D01*
X134524025Y-107210000D01*
X134547870Y-107452102D01*
X134618489Y-107684901D01*
X134733167Y-107899449D01*
X134887498Y-108087502D01*
X135036762Y-108210000D01*
X134887498Y-108332498D01*
X134733167Y-108520551D01*
X134618489Y-108735099D01*
X134547870Y-108967898D01*
X134524025Y-109210000D01*
X134547870Y-109452102D01*
X134618489Y-109684901D01*
X134733167Y-109899449D01*
X134887498Y-110087502D01*
X134926111Y-110119191D01*
X134921613Y-110121595D01*
X134787038Y-110232038D01*
X134676595Y-110366613D01*
X134594528Y-110520149D01*
X134543992Y-110686745D01*
X134526928Y-110859999D01*
X134526928Y-111560001D01*
X134543992Y-111733255D01*
X134594528Y-111899851D01*
X134676595Y-112053387D01*
X134787038Y-112187962D01*
X134921613Y-112298405D01*
X135075149Y-112380472D01*
X135241745Y-112431008D01*
X135414999Y-112448072D01*
X136665001Y-112448072D01*
X136838255Y-112431008D01*
X137004851Y-112380472D01*
X137158387Y-112298405D01*
X137292962Y-112187962D01*
X137403405Y-112053387D01*
X137485472Y-111899851D01*
X137536008Y-111733255D01*
X137553072Y-111560001D01*
X137553072Y-110859999D01*
X137536008Y-110686745D01*
X137485472Y-110520149D01*
X137403405Y-110366613D01*
X137292962Y-110232038D01*
X137158387Y-110121595D01*
X137153889Y-110119191D01*
X137192502Y-110087502D01*
X137346833Y-109899449D01*
X137461511Y-109684901D01*
X137532130Y-109452102D01*
X137555975Y-109210000D01*
X137532130Y-108967898D01*
X137461511Y-108735099D01*
X137346833Y-108520551D01*
X137192502Y-108332498D01*
X137043238Y-108210000D01*
X137192502Y-108087502D01*
X137346833Y-107899449D01*
X137461511Y-107684901D01*
X137532130Y-107452102D01*
X137555975Y-107210000D01*
X137532130Y-106967898D01*
X137461511Y-106735099D01*
X137346833Y-106520551D01*
X137192502Y-106332498D01*
X137043238Y-106210000D01*
X137192502Y-106087502D01*
X137346833Y-105899449D01*
X137461511Y-105684901D01*
X137532130Y-105452102D01*
X137555975Y-105210000D01*
X137532130Y-104967898D01*
X137461511Y-104735099D01*
X137346833Y-104520551D01*
X137192502Y-104332498D01*
X137004449Y-104178167D01*
X136800000Y-104068887D01*
X136800000Y-102854037D01*
X136803676Y-102816714D01*
X136800000Y-102779391D01*
X136800000Y-102779382D01*
X136789003Y-102667729D01*
X136745546Y-102524468D01*
X136674974Y-102392439D01*
X136580001Y-102276714D01*
X136551004Y-102252917D01*
X135656159Y-101358072D01*
X136675001Y-101358072D01*
X136848255Y-101341008D01*
X137014851Y-101290472D01*
X137168387Y-101208405D01*
X137302962Y-101097962D01*
X137413405Y-100963387D01*
X137495472Y-100809851D01*
X137546008Y-100643255D01*
X137563072Y-100470001D01*
X137563072Y-99769999D01*
X137546008Y-99596745D01*
X137495472Y-99430149D01*
X137413405Y-99276613D01*
X137302962Y-99142038D01*
X137168387Y-99031595D01*
X137163889Y-99029191D01*
X137202502Y-98997502D01*
X137356833Y-98809449D01*
X137471511Y-98594901D01*
X137542130Y-98362102D01*
X137565975Y-98120000D01*
X137542130Y-97877898D01*
X137471511Y-97645099D01*
X137356833Y-97430551D01*
X137202502Y-97242498D01*
X137053238Y-97120000D01*
X137202502Y-96997502D01*
X137356833Y-96809449D01*
X137471511Y-96594901D01*
X137542130Y-96362102D01*
X137565975Y-96120000D01*
X137542130Y-95877898D01*
X137471511Y-95645099D01*
X137356833Y-95430551D01*
X137202502Y-95242498D01*
X137053238Y-95120000D01*
X137202502Y-94997502D01*
X137356833Y-94809449D01*
X137471511Y-94594901D01*
X137542130Y-94362102D01*
X137565975Y-94120000D01*
X137542130Y-93877898D01*
X137471511Y-93645099D01*
X137356833Y-93430551D01*
X137202502Y-93242498D01*
X137053238Y-93120000D01*
X137202502Y-92997502D01*
X137356833Y-92809449D01*
X137471511Y-92594901D01*
X137542130Y-92362102D01*
X137565975Y-92120000D01*
X137542130Y-91877898D01*
X137471511Y-91645099D01*
X137356833Y-91430551D01*
X137202502Y-91242498D01*
X137014449Y-91088167D01*
X136799901Y-90973489D01*
X136567102Y-90902870D01*
X136385665Y-90885000D01*
X135714335Y-90885000D01*
X135532898Y-90902870D01*
X135300099Y-90973489D01*
X135085551Y-91088167D01*
X134897498Y-91242498D01*
X134743167Y-91430551D01*
X134628489Y-91645099D01*
X134557870Y-91877898D01*
X134534025Y-92120000D01*
X134557870Y-92362102D01*
X134628489Y-92594901D01*
X134743167Y-92809449D01*
X134897498Y-92997502D01*
X135046762Y-93120000D01*
X134897498Y-93242498D01*
X134743167Y-93430551D01*
X134628489Y-93645099D01*
X134557870Y-93877898D01*
X134534025Y-94120000D01*
X134557870Y-94362102D01*
X134628489Y-94594901D01*
X134743167Y-94809449D01*
X134897498Y-94997502D01*
X135046762Y-95120000D01*
X134897498Y-95242498D01*
X134743167Y-95430551D01*
X134628489Y-95645099D01*
X134557870Y-95877898D01*
X134534025Y-96120000D01*
X134557870Y-96362102D01*
X134628489Y-96594901D01*
X134743167Y-96809449D01*
X134897498Y-96997502D01*
X135046762Y-97120000D01*
X134897498Y-97242498D01*
X134743167Y-97430551D01*
X134628489Y-97645099D01*
X134557870Y-97877898D01*
X134534025Y-98120000D01*
X134557870Y-98362102D01*
X134628489Y-98594901D01*
X134743167Y-98809449D01*
X134897498Y-98997502D01*
X134936111Y-99029191D01*
X134931613Y-99031595D01*
X134797038Y-99142038D01*
X134686595Y-99276613D01*
X134604528Y-99430149D01*
X134553992Y-99596745D01*
X134536928Y-99769999D01*
X134536928Y-100238841D01*
X128199489Y-93901403D01*
X128175686Y-93872399D01*
X128059961Y-93777426D01*
X127927932Y-93706854D01*
X127784724Y-93663413D01*
X127729774Y-93608463D01*
X127560256Y-93495195D01*
X127371898Y-93417174D01*
X127171939Y-93377400D01*
X126968061Y-93377400D01*
X126768102Y-93417174D01*
X126735000Y-93430885D01*
X126735000Y-93352977D01*
X126837500Y-93363072D01*
X126989250Y-93360000D01*
X127148000Y-93201250D01*
X127148000Y-92377000D01*
X127402000Y-92377000D01*
X127402000Y-93201250D01*
X127560750Y-93360000D01*
X127712500Y-93363072D01*
X127836982Y-93350812D01*
X127956680Y-93314502D01*
X128066994Y-93255537D01*
X128163685Y-93176185D01*
X128243037Y-93079494D01*
X128302002Y-92969180D01*
X128338312Y-92849482D01*
X128350572Y-92725000D01*
X128347500Y-92535750D01*
X128188750Y-92377000D01*
X127402000Y-92377000D01*
X127148000Y-92377000D01*
X127128000Y-92377000D01*
X127128000Y-92123000D01*
X127148000Y-92123000D01*
X127148000Y-91298750D01*
X127402000Y-91298750D01*
X127402000Y-92123000D01*
X128188750Y-92123000D01*
X128347500Y-91964250D01*
X128350572Y-91775000D01*
X128338312Y-91650518D01*
X128302002Y-91530820D01*
X128243037Y-91420506D01*
X128163685Y-91323815D01*
X128066994Y-91244463D01*
X127956680Y-91185498D01*
X127836982Y-91149188D01*
X127712500Y-91136928D01*
X127560750Y-91140000D01*
X127402000Y-91298750D01*
X127148000Y-91298750D01*
X126989250Y-91140000D01*
X126837500Y-91136928D01*
X126713018Y-91149188D01*
X126593320Y-91185498D01*
X126483006Y-91244463D01*
X126416430Y-91299100D01*
X126394775Y-91281329D01*
X126246642Y-91202150D01*
X126085908Y-91153392D01*
X125918750Y-91136928D01*
X125481250Y-91136928D01*
X125314092Y-91153392D01*
X125153358Y-91202150D01*
X125005225Y-91281329D01*
X124875385Y-91387885D01*
X124768829Y-91517725D01*
X124689650Y-91665858D01*
X124640892Y-91826592D01*
X124624428Y-91993750D01*
X122114738Y-91993750D01*
X122109108Y-91936592D01*
X122060350Y-91775858D01*
X121981171Y-91627725D01*
X121874615Y-91497885D01*
X121744775Y-91391329D01*
X121596642Y-91312150D01*
X121435908Y-91263392D01*
X121268750Y-91246928D01*
X120831250Y-91246928D01*
X120664092Y-91263392D01*
X120503358Y-91312150D01*
X120355225Y-91391329D01*
X120333570Y-91409100D01*
X120266994Y-91354463D01*
X120156680Y-91295498D01*
X120036982Y-91259188D01*
X119912500Y-91246928D01*
X119760750Y-91250000D01*
X119602000Y-91408750D01*
X119602000Y-92233000D01*
X119622000Y-92233000D01*
X119622000Y-92487000D01*
X119602000Y-92487000D01*
X119602000Y-92507000D01*
X119348000Y-92507000D01*
X119348000Y-92487000D01*
X118561250Y-92487000D01*
X118402500Y-92645750D01*
X118399428Y-92835000D01*
X118411688Y-92959482D01*
X118447998Y-93079180D01*
X118506963Y-93189494D01*
X118586315Y-93286185D01*
X118626992Y-93319568D01*
X118505629Y-93400660D01*
X118461692Y-93444597D01*
X118132191Y-93444597D01*
X118044615Y-93337885D01*
X117914775Y-93231329D01*
X117766642Y-93152150D01*
X117605908Y-93103392D01*
X117438750Y-93086928D01*
X117001250Y-93086928D01*
X116834092Y-93103392D01*
X116673358Y-93152150D01*
X116525225Y-93231329D01*
X116503570Y-93249100D01*
X116436994Y-93194463D01*
X116326680Y-93135498D01*
X116206982Y-93099188D01*
X116082500Y-93086928D01*
X115930750Y-93090000D01*
X115772000Y-93248750D01*
X115518000Y-93248750D01*
X115359250Y-93090000D01*
X115207500Y-93086928D01*
X115083018Y-93099188D01*
X114963320Y-93135498D01*
X114853006Y-93194463D01*
X114756315Y-93273815D01*
X114676963Y-93370506D01*
X114617998Y-93480820D01*
X114581688Y-93600518D01*
X114569428Y-93725000D01*
X112227774Y-93725000D01*
X112228072Y-93680000D01*
X112215812Y-93555518D01*
X112179502Y-93435820D01*
X112120537Y-93325506D01*
X112041185Y-93228815D01*
X111944494Y-93149463D01*
X111834180Y-93090498D01*
X111714482Y-93054188D01*
X111590000Y-93041928D01*
X110125750Y-93045000D01*
X109967000Y-93203750D01*
X109713000Y-93203750D01*
X109554250Y-93045000D01*
X108160000Y-93042075D01*
X108160000Y-91885000D01*
X118399428Y-91885000D01*
X118402500Y-92074250D01*
X118561250Y-92233000D01*
X119348000Y-92233000D01*
X119348000Y-91408750D01*
X119189250Y-91250000D01*
X119037500Y-91246928D01*
X118913018Y-91259188D01*
X118793320Y-91295498D01*
X118683006Y-91354463D01*
X118586315Y-91433815D01*
X118506963Y-91530506D01*
X118447998Y-91640820D01*
X118411688Y-91760518D01*
X118399428Y-91885000D01*
X108160000Y-91885000D01*
X108160000Y-88288061D01*
X120605000Y-88288061D01*
X120605000Y-88491939D01*
X120644774Y-88691898D01*
X120722795Y-88880256D01*
X120836063Y-89049774D01*
X120980226Y-89193937D01*
X121149744Y-89307205D01*
X121338102Y-89385226D01*
X121538061Y-89425000D01*
X121741939Y-89425000D01*
X121941898Y-89385226D01*
X122130256Y-89307205D01*
X122143941Y-89298061D01*
X131995000Y-89298061D01*
X131995000Y-89501939D01*
X132034774Y-89701898D01*
X132112795Y-89890256D01*
X132226063Y-90059774D01*
X132370226Y-90203937D01*
X132539744Y-90317205D01*
X132728102Y-90395226D01*
X132928061Y-90435000D01*
X133131939Y-90435000D01*
X133331898Y-90395226D01*
X133520256Y-90317205D01*
X133689774Y-90203937D01*
X133833937Y-90059774D01*
X133947205Y-89890256D01*
X134025226Y-89701898D01*
X134065000Y-89501939D01*
X134065000Y-89298061D01*
X134025226Y-89098102D01*
X133947205Y-88909744D01*
X133833937Y-88740226D01*
X133689774Y-88596063D01*
X133520256Y-88482795D01*
X133331898Y-88404774D01*
X133131939Y-88365000D01*
X132928061Y-88365000D01*
X132728102Y-88404774D01*
X132539744Y-88482795D01*
X132370226Y-88596063D01*
X132226063Y-88740226D01*
X132112795Y-88909744D01*
X132034774Y-89098102D01*
X131995000Y-89298061D01*
X122143941Y-89298061D01*
X122299774Y-89193937D01*
X122443937Y-89049774D01*
X122557205Y-88880256D01*
X122635226Y-88691898D01*
X122675000Y-88491939D01*
X122675000Y-88288061D01*
X122635226Y-88088102D01*
X122557205Y-87899744D01*
X122443937Y-87730226D01*
X122299774Y-87586063D01*
X122130256Y-87472795D01*
X121941898Y-87394774D01*
X121741939Y-87355000D01*
X121538061Y-87355000D01*
X121338102Y-87394774D01*
X121149744Y-87472795D01*
X120980226Y-87586063D01*
X120836063Y-87730226D01*
X120722795Y-87899744D01*
X120644774Y-88088102D01*
X120605000Y-88288061D01*
X108160000Y-88288061D01*
X108160000Y-85354311D01*
X108351467Y-85816554D01*
X108771161Y-86444670D01*
X109305330Y-86978839D01*
X109933446Y-87398533D01*
X110631372Y-87687623D01*
X111372285Y-87835000D01*
X112127715Y-87835000D01*
X112868628Y-87687623D01*
X113566554Y-87398533D01*
X114194670Y-86978839D01*
X114728839Y-86444670D01*
X115148533Y-85816554D01*
X115437623Y-85118628D01*
X115478259Y-84914335D01*
X117965000Y-84914335D01*
X117965000Y-85585664D01*
X117982870Y-85767101D01*
X118053489Y-85999900D01*
X118168167Y-86214448D01*
X118322498Y-86402502D01*
X118510551Y-86556833D01*
X118725099Y-86671511D01*
X118957898Y-86742130D01*
X119200000Y-86765975D01*
X119442101Y-86742130D01*
X119674900Y-86671511D01*
X119889448Y-86556833D01*
X120077502Y-86402502D01*
X120109191Y-86363889D01*
X120111595Y-86368387D01*
X120222038Y-86502962D01*
X120356613Y-86613405D01*
X120510149Y-86695472D01*
X120676745Y-86746008D01*
X120849999Y-86763072D01*
X121550001Y-86763072D01*
X121723255Y-86746008D01*
X121889851Y-86695472D01*
X122043387Y-86613405D01*
X122177962Y-86502962D01*
X122288405Y-86368387D01*
X122370472Y-86214851D01*
X122421008Y-86048255D01*
X122438072Y-85875001D01*
X122438072Y-84624999D01*
X122421008Y-84451745D01*
X122370472Y-84285149D01*
X122288405Y-84131613D01*
X122177962Y-83997038D01*
X122043387Y-83886595D01*
X121889851Y-83804528D01*
X121723255Y-83753992D01*
X121550001Y-83736928D01*
X120849999Y-83736928D01*
X120676745Y-83753992D01*
X120510149Y-83804528D01*
X120356613Y-83886595D01*
X120222038Y-83997038D01*
X120111595Y-84131613D01*
X120109191Y-84136111D01*
X120077502Y-84097498D01*
X119889449Y-83943167D01*
X119674901Y-83828489D01*
X119442102Y-83757870D01*
X119200000Y-83734025D01*
X118957899Y-83757870D01*
X118725100Y-83828489D01*
X118510552Y-83943167D01*
X118322499Y-84097498D01*
X118168168Y-84285551D01*
X118053489Y-84500099D01*
X117982870Y-84732898D01*
X117965000Y-84914335D01*
X115478259Y-84914335D01*
X115585000Y-84377715D01*
X115585000Y-83622285D01*
X115437623Y-82881372D01*
X115148533Y-82183446D01*
X114728839Y-81555330D01*
X114194670Y-81021161D01*
X113654155Y-80660000D01*
X136095845Y-80660000D01*
X135555330Y-81021161D01*
X135555330Y-81021161D01*
G37*
X135555330Y-81021161D02*
X135021161Y-81555330D01*
X134601467Y-82183446D01*
X134312377Y-82881372D01*
X134165000Y-83622285D01*
X134165000Y-84377715D01*
X134312377Y-85118628D01*
X134601467Y-85816554D01*
X135021161Y-86444670D01*
X135555330Y-86978839D01*
X136183446Y-87398533D01*
X136881372Y-87687623D01*
X137622285Y-87835000D01*
X138377715Y-87835000D01*
X139118628Y-87687623D01*
X139816554Y-87398533D01*
X140444670Y-86978839D01*
X140978839Y-86444670D01*
X141398533Y-85816554D01*
X141590001Y-85354309D01*
X141590000Y-122217581D01*
X141590000Y-124145689D01*
X141398533Y-123683446D01*
X140978839Y-123055330D01*
X140444670Y-122521161D01*
X139816554Y-122101467D01*
X139118628Y-121812377D01*
X138377715Y-121665000D01*
X137622285Y-121665000D01*
X136881372Y-121812377D01*
X136183446Y-122101467D01*
X135555330Y-122521161D01*
X135021161Y-123055330D01*
X134601467Y-123683446D01*
X134312377Y-124381372D01*
X134165000Y-125122285D01*
X134165000Y-125877715D01*
X134312377Y-126618628D01*
X134601467Y-127316554D01*
X135021161Y-127944670D01*
X135555330Y-128478839D01*
X136183446Y-128898533D01*
X136645689Y-129090000D01*
X113104311Y-129090000D01*
X113566554Y-128898533D01*
X114194670Y-128478839D01*
X114728839Y-127944670D01*
X115148533Y-127316554D01*
X115437623Y-126618628D01*
X115585000Y-125877715D01*
X115585000Y-125122285D01*
X115437623Y-124381372D01*
X115148533Y-123683446D01*
X114728839Y-123055330D01*
X114194670Y-122521161D01*
X113566554Y-122101467D01*
X112868628Y-121812377D01*
X112127715Y-121665000D01*
X111372285Y-121665000D01*
X110631372Y-121812377D01*
X109933446Y-122101467D01*
X109305330Y-122521161D01*
X108771161Y-123055330D01*
X108351467Y-123683446D01*
X108160000Y-124145689D01*
X108160000Y-117516890D01*
X112338524Y-117516890D01*
X112340446Y-117529261D01*
X112440146Y-117803009D01*
X112591336Y-118052046D01*
X112788205Y-118266802D01*
X113023188Y-118439025D01*
X113287255Y-118562096D01*
X113570258Y-118631285D01*
X113803000Y-118487232D01*
X113803000Y-117287000D01*
X114057000Y-117287000D01*
X114057000Y-118487232D01*
X114289742Y-118631285D01*
X114572745Y-118562096D01*
X114836812Y-118439025D01*
X115071795Y-118266802D01*
X115268664Y-118052046D01*
X115419854Y-117803009D01*
X115519554Y-117529261D01*
X115521476Y-117516890D01*
X115400155Y-117287000D01*
X114057000Y-117287000D01*
X113803000Y-117287000D01*
X112459845Y-117287000D01*
X112338524Y-117516890D01*
X108160000Y-117516890D01*
X108160000Y-114060000D01*
X112291928Y-114060000D01*
X112291928Y-115260000D01*
X112308992Y-115433254D01*
X112359528Y-115599850D01*
X112441595Y-115753386D01*
X112552038Y-115887962D01*
X112686614Y-115998405D01*
X112788593Y-116052914D01*
X112788205Y-116053198D01*
X112591336Y-116267954D01*
X112440146Y-116516991D01*
X112340446Y-116790739D01*
X112338524Y-116803110D01*
X112459845Y-117033000D01*
X113803000Y-117033000D01*
X113803000Y-117013000D01*
X114057000Y-117013000D01*
X114057000Y-117033000D01*
X115400155Y-117033000D01*
X115521476Y-116803110D01*
X115519554Y-116790739D01*
X115419854Y-116516991D01*
X115268664Y-116267954D01*
X115071795Y-116053198D01*
X115071407Y-116052914D01*
X115173386Y-115998405D01*
X115307962Y-115887962D01*
X115418405Y-115753386D01*
X115500472Y-115599850D01*
X115551008Y-115433254D01*
X115568072Y-115260000D01*
X115568072Y-114060000D01*
X115551008Y-113886746D01*
X115500472Y-113720150D01*
X115418405Y-113566614D01*
X115307962Y-113432038D01*
X115173386Y-113321595D01*
X115035815Y-113248061D01*
X120395000Y-113248061D01*
X120395000Y-113451939D01*
X120434774Y-113651898D01*
X120512795Y-113840256D01*
X120626063Y-114009774D01*
X120770226Y-114153937D01*
X120939744Y-114267205D01*
X121128102Y-114345226D01*
X121328061Y-114385000D01*
X121531939Y-114385000D01*
X121731898Y-114345226D01*
X121920256Y-114267205D01*
X122089774Y-114153937D01*
X122233937Y-114009774D01*
X122347205Y-113840256D01*
X122425226Y-113651898D01*
X122465000Y-113451939D01*
X122465000Y-113248061D01*
X122425226Y-113048102D01*
X122347205Y-112859744D01*
X122233937Y-112690226D01*
X122089774Y-112546063D01*
X121920256Y-112432795D01*
X121731898Y-112354774D01*
X121531939Y-112315000D01*
X121328061Y-112315000D01*
X121128102Y-112354774D01*
X120939744Y-112432795D01*
X120770226Y-112546063D01*
X120626063Y-112690226D01*
X120512795Y-112859744D01*
X120434774Y-113048102D01*
X120395000Y-113248061D01*
X115035815Y-113248061D01*
X115019850Y-113239528D01*
X114853254Y-113188992D01*
X114680000Y-113171928D01*
X113180000Y-113171928D01*
X113006746Y-113188992D01*
X112840150Y-113239528D01*
X112686614Y-113321595D01*
X112552038Y-113432038D01*
X112441595Y-113566614D01*
X112359528Y-113720150D01*
X112308992Y-113886746D01*
X112291928Y-114060000D01*
X108160000Y-114060000D01*
X108160000Y-108986890D01*
X112348524Y-108986890D01*
X112350446Y-108999261D01*
X112450146Y-109273009D01*
X112601336Y-109522046D01*
X112798205Y-109736802D01*
X113033188Y-109909025D01*
X113297255Y-110032096D01*
X113580258Y-110101285D01*
X113813000Y-109957232D01*
X113813000Y-108757000D01*
X114067000Y-108757000D01*
X114067000Y-109957232D01*
X114299742Y-110101285D01*
X114582745Y-110032096D01*
X114846812Y-109909025D01*
X115081795Y-109736802D01*
X115278664Y-109522046D01*
X115429854Y-109273009D01*
X115529554Y-108999261D01*
X115531476Y-108986890D01*
X115410155Y-108757000D01*
X114067000Y-108757000D01*
X113813000Y-108757000D01*
X112469845Y-108757000D01*
X112348524Y-108986890D01*
X108160000Y-108986890D01*
X108160000Y-105530000D01*
X112301928Y-105530000D01*
X112301928Y-106730000D01*
X112318992Y-106903254D01*
X112369528Y-107069850D01*
X112451595Y-107223386D01*
X112562038Y-107357962D01*
X112696614Y-107468405D01*
X112798593Y-107522914D01*
X112798205Y-107523198D01*
X112601336Y-107737954D01*
X112450146Y-107986991D01*
X112350446Y-108260739D01*
X112348524Y-108273110D01*
X112469845Y-108503000D01*
X113813000Y-108503000D01*
X113813000Y-108483000D01*
X114067000Y-108483000D01*
X114067000Y-108503000D01*
X115410155Y-108503000D01*
X115531476Y-108273110D01*
X115529554Y-108260739D01*
X115429854Y-107986991D01*
X115278664Y-107737954D01*
X115081795Y-107523198D01*
X115081407Y-107522914D01*
X115183386Y-107468405D01*
X115317962Y-107357962D01*
X115428405Y-107223386D01*
X115510472Y-107069850D01*
X115561008Y-106903254D01*
X115578072Y-106730000D01*
X115578072Y-105530000D01*
X115561008Y-105356746D01*
X115510472Y-105190150D01*
X115428405Y-105036614D01*
X115317962Y-104902038D01*
X115183386Y-104791595D01*
X115029850Y-104709528D01*
X114863254Y-104658992D01*
X114690000Y-104641928D01*
X113190000Y-104641928D01*
X113016746Y-104658992D01*
X112850150Y-104709528D01*
X112696614Y-104791595D01*
X112562038Y-104902038D01*
X112451595Y-105036614D01*
X112369528Y-105190150D01*
X112318992Y-105356746D01*
X112301928Y-105530000D01*
X108160000Y-105530000D01*
X108160000Y-103418061D01*
X117195000Y-103418061D01*
X117195000Y-103621939D01*
X117234774Y-103821898D01*
X117312795Y-104010256D01*
X117426063Y-104179774D01*
X117570226Y-104323937D01*
X117739744Y-104437205D01*
X117928102Y-104515226D01*
X118128061Y-104555000D01*
X118331939Y-104555000D01*
X118531898Y-104515226D01*
X118720256Y-104437205D01*
X118889774Y-104323937D01*
X119033937Y-104179774D01*
X119147205Y-104010256D01*
X119225226Y-103821898D01*
X119265000Y-103621939D01*
X119265000Y-103418061D01*
X119225226Y-103218102D01*
X119147205Y-103029744D01*
X119033937Y-102860226D01*
X118889774Y-102716063D01*
X118720256Y-102602795D01*
X118531898Y-102524774D01*
X118331939Y-102485000D01*
X118128061Y-102485000D01*
X117928102Y-102524774D01*
X117739744Y-102602795D01*
X117570226Y-102716063D01*
X117426063Y-102860226D01*
X117312795Y-103029744D01*
X117234774Y-103218102D01*
X117195000Y-103418061D01*
X108160000Y-103418061D01*
X108160000Y-101217925D01*
X109554250Y-101215000D01*
X109713000Y-101056250D01*
X109713000Y-99957000D01*
X109967000Y-99957000D01*
X109967000Y-101056250D01*
X110125750Y-101215000D01*
X111590000Y-101218072D01*
X111714482Y-101205812D01*
X111834180Y-101169502D01*
X111944494Y-101110537D01*
X112041185Y-101031185D01*
X112120537Y-100934494D01*
X112179502Y-100824180D01*
X112215812Y-100704482D01*
X112228072Y-100580000D01*
X112225000Y-100115750D01*
X112066250Y-99957000D01*
X109967000Y-99957000D01*
X109713000Y-99957000D01*
X109693000Y-99957000D01*
X109693000Y-99703000D01*
X109713000Y-99703000D01*
X109713000Y-98603750D01*
X109967000Y-98603750D01*
X109967000Y-99703000D01*
X112066250Y-99703000D01*
X112225000Y-99544250D01*
X112228072Y-99080000D01*
X112215812Y-98955518D01*
X112179502Y-98835820D01*
X112120537Y-98725506D01*
X112041185Y-98628815D01*
X111944494Y-98549463D01*
X111834180Y-98490498D01*
X111714482Y-98454188D01*
X111590000Y-98441928D01*
X110125750Y-98445000D01*
X109967000Y-98603750D01*
X109713000Y-98603750D01*
X109554250Y-98445000D01*
X108160000Y-98442075D01*
X108160000Y-96175000D01*
X117619428Y-96175000D01*
X117631688Y-96299482D01*
X117667998Y-96419180D01*
X117726963Y-96529494D01*
X117806315Y-96626185D01*
X117903006Y-96705537D01*
X118013320Y-96764502D01*
X118133018Y-96800812D01*
X118257500Y-96813072D01*
X118409250Y-96810000D01*
X118568000Y-96651250D01*
X118568000Y-95827000D01*
X117781250Y-95827000D01*
X117622500Y-95985750D01*
X117619428Y-96175000D01*
X108160000Y-96175000D01*
X108160000Y-95817925D01*
X109554250Y-95815000D01*
X109713000Y-95656250D01*
X109713000Y-94557000D01*
X109967000Y-94557000D01*
X109967000Y-95656250D01*
X110125750Y-95815000D01*
X111590000Y-95818072D01*
X111714482Y-95805812D01*
X111834180Y-95769502D01*
X111944494Y-95710537D01*
X112041185Y-95631185D01*
X112120537Y-95534494D01*
X112179502Y-95424180D01*
X112215812Y-95304482D01*
X112228072Y-95180000D01*
X112225000Y-94715750D01*
X112184250Y-94675000D01*
X114569428Y-94675000D01*
X114581688Y-94799482D01*
X114617998Y-94919180D01*
X114676963Y-95029494D01*
X114756315Y-95126185D01*
X114853006Y-95205537D01*
X114963320Y-95264502D01*
X115083018Y-95300812D01*
X115207500Y-95313072D01*
X115359250Y-95310000D01*
X115518000Y-95151250D01*
X115518000Y-94327000D01*
X114731250Y-94327000D01*
X114572500Y-94485750D01*
X114569428Y-94675000D01*
X112184250Y-94675000D01*
X112066250Y-94557000D01*
X109967000Y-94557000D01*
X109713000Y-94557000D01*
X109693000Y-94557000D01*
X109693000Y-94303000D01*
X109713000Y-94303000D01*
X109713000Y-93203750D01*
X109967000Y-93203750D01*
X109967000Y-94303000D01*
X112066250Y-94303000D01*
X112225000Y-94144250D01*
X112227774Y-93725000D01*
X114569428Y-93725000D01*
X114572500Y-93914250D01*
X114731250Y-94073000D01*
X115518000Y-94073000D01*
X115518000Y-93248750D01*
X115772000Y-93248750D01*
X115772000Y-94073000D01*
X115792000Y-94073000D01*
X115792000Y-94327000D01*
X115772000Y-94327000D01*
X115772000Y-95151250D01*
X115930750Y-95310000D01*
X116082500Y-95313072D01*
X116206982Y-95300812D01*
X116326680Y-95264502D01*
X116436994Y-95205537D01*
X116503570Y-95150900D01*
X116525225Y-95168671D01*
X116673358Y-95247850D01*
X116834092Y-95296608D01*
X117001250Y-95313072D01*
X117438750Y-95313072D01*
X117605908Y-95296608D01*
X117620518Y-95292176D01*
X117622500Y-95414250D01*
X117781250Y-95573000D01*
X118568000Y-95573000D01*
X118568000Y-95553000D01*
X118822000Y-95553000D01*
X118822000Y-95573000D01*
X118842000Y-95573000D01*
X118842000Y-95827000D01*
X118822000Y-95827000D01*
X118822000Y-96651250D01*
X118980750Y-96810000D01*
X119132500Y-96813072D01*
X119256982Y-96800812D01*
X119376680Y-96764502D01*
X119486994Y-96705537D01*
X119553570Y-96650900D01*
X119575225Y-96668671D01*
X119723358Y-96747850D01*
X119884092Y-96796608D01*
X120051250Y-96813072D01*
X120488750Y-96813072D01*
X120655908Y-96796608D01*
X120816642Y-96747850D01*
X120964775Y-96668671D01*
X121094615Y-96562115D01*
X121201171Y-96432275D01*
X121280350Y-96284142D01*
X121329108Y-96123408D01*
X121345572Y-95956250D01*
X121345572Y-95443750D01*
X121329108Y-95276592D01*
X121280350Y-95115858D01*
X121201171Y-94967725D01*
X121183381Y-94946047D01*
X121258274Y-94765240D01*
X121298048Y-94565281D01*
X121298048Y-94549825D01*
X121347045Y-94540079D01*
X121535403Y-94462058D01*
X121704921Y-94348790D01*
X121849084Y-94204627D01*
X121962352Y-94035109D01*
X122040373Y-93846751D01*
X122080147Y-93646792D01*
X122080147Y-93442914D01*
X122040373Y-93242955D01*
X121979036Y-93094876D01*
X121981171Y-93092275D01*
X122060350Y-92944142D01*
X122109108Y-92783408D01*
X122125572Y-92616250D01*
X122125572Y-92103750D01*
X122114738Y-91993750D01*
X124624428Y-91993750D01*
X124624428Y-92506250D01*
X124640892Y-92673408D01*
X124689650Y-92834142D01*
X124764439Y-92974061D01*
X124704774Y-93118103D01*
X124665000Y-93318062D01*
X124665000Y-93521940D01*
X124704774Y-93721899D01*
X124782795Y-93910257D01*
X124896063Y-94079775D01*
X125040226Y-94223938D01*
X125209744Y-94337206D01*
X125398102Y-94415227D01*
X125598061Y-94455001D01*
X125801939Y-94455001D01*
X126001898Y-94415227D01*
X126035000Y-94401516D01*
X126035000Y-94514339D01*
X126074774Y-94714298D01*
X126152795Y-94902656D01*
X126266063Y-95072174D01*
X126410226Y-95216337D01*
X126579744Y-95329605D01*
X126768102Y-95407626D01*
X126968061Y-95447400D01*
X127171939Y-95447400D01*
X127371898Y-95407626D01*
X127502155Y-95353671D01*
X135280000Y-103131517D01*
X135280001Y-104068887D01*
X135075551Y-104178167D01*
X134887498Y-104332498D01*
X134733167Y-104520551D01*
X134618489Y-104735099D01*
X134547870Y-104967898D01*
X134524025Y-105210000D01*
X134547870Y-105452102D01*
X134618489Y-105684901D01*
X134733167Y-105899449D01*
X134887498Y-106087502D01*
X135036762Y-106210000D01*
X134887498Y-106332498D01*
X134733167Y-106520551D01*
X134618489Y-106735099D01*
X134547870Y-106967898D01*
X134524025Y-107210000D01*
X134547870Y-107452102D01*
X134618489Y-107684901D01*
X134733167Y-107899449D01*
X134887498Y-108087502D01*
X135036762Y-108210000D01*
X134887498Y-108332498D01*
X134733167Y-108520551D01*
X134618489Y-108735099D01*
X134547870Y-108967898D01*
X134524025Y-109210000D01*
X134547870Y-109452102D01*
X134618489Y-109684901D01*
X134733167Y-109899449D01*
X134887498Y-110087502D01*
X134926111Y-110119191D01*
X134921613Y-110121595D01*
X134787038Y-110232038D01*
X134676595Y-110366613D01*
X134594528Y-110520149D01*
X134543992Y-110686745D01*
X134526928Y-110859999D01*
X134526928Y-111560001D01*
X134543992Y-111733255D01*
X134594528Y-111899851D01*
X134676595Y-112053387D01*
X134787038Y-112187962D01*
X134921613Y-112298405D01*
X135075149Y-112380472D01*
X135241745Y-112431008D01*
X135414999Y-112448072D01*
X136665001Y-112448072D01*
X136838255Y-112431008D01*
X137004851Y-112380472D01*
X137158387Y-112298405D01*
X137292962Y-112187962D01*
X137403405Y-112053387D01*
X137485472Y-111899851D01*
X137536008Y-111733255D01*
X137553072Y-111560001D01*
X137553072Y-110859999D01*
X137536008Y-110686745D01*
X137485472Y-110520149D01*
X137403405Y-110366613D01*
X137292962Y-110232038D01*
X137158387Y-110121595D01*
X137153889Y-110119191D01*
X137192502Y-110087502D01*
X137346833Y-109899449D01*
X137461511Y-109684901D01*
X137532130Y-109452102D01*
X137555975Y-109210000D01*
X137532130Y-108967898D01*
X137461511Y-108735099D01*
X137346833Y-108520551D01*
X137192502Y-108332498D01*
X137043238Y-108210000D01*
X137192502Y-108087502D01*
X137346833Y-107899449D01*
X137461511Y-107684901D01*
X137532130Y-107452102D01*
X137555975Y-107210000D01*
X137532130Y-106967898D01*
X137461511Y-106735099D01*
X137346833Y-106520551D01*
X137192502Y-106332498D01*
X137043238Y-106210000D01*
X137192502Y-106087502D01*
X137346833Y-105899449D01*
X137461511Y-105684901D01*
X137532130Y-105452102D01*
X137555975Y-105210000D01*
X137532130Y-104967898D01*
X137461511Y-104735099D01*
X137346833Y-104520551D01*
X137192502Y-104332498D01*
X137004449Y-104178167D01*
X136800000Y-104068887D01*
X136800000Y-102854037D01*
X136803676Y-102816714D01*
X136800000Y-102779391D01*
X136800000Y-102779382D01*
X136789003Y-102667729D01*
X136745546Y-102524468D01*
X136674974Y-102392439D01*
X136580001Y-102276714D01*
X136551004Y-102252917D01*
X135656159Y-101358072D01*
X136675001Y-101358072D01*
X136848255Y-101341008D01*
X137014851Y-101290472D01*
X137168387Y-101208405D01*
X137302962Y-101097962D01*
X137413405Y-100963387D01*
X137495472Y-100809851D01*
X137546008Y-100643255D01*
X137563072Y-100470001D01*
X137563072Y-99769999D01*
X137546008Y-99596745D01*
X137495472Y-99430149D01*
X137413405Y-99276613D01*
X137302962Y-99142038D01*
X137168387Y-99031595D01*
X137163889Y-99029191D01*
X137202502Y-98997502D01*
X137356833Y-98809449D01*
X137471511Y-98594901D01*
X137542130Y-98362102D01*
X137565975Y-98120000D01*
X137542130Y-97877898D01*
X137471511Y-97645099D01*
X137356833Y-97430551D01*
X137202502Y-97242498D01*
X137053238Y-97120000D01*
X137202502Y-96997502D01*
X137356833Y-96809449D01*
X137471511Y-96594901D01*
X137542130Y-96362102D01*
X137565975Y-96120000D01*
X137542130Y-95877898D01*
X137471511Y-95645099D01*
X137356833Y-95430551D01*
X137202502Y-95242498D01*
X137053238Y-95120000D01*
X137202502Y-94997502D01*
X137356833Y-94809449D01*
X137471511Y-94594901D01*
X137542130Y-94362102D01*
X137565975Y-94120000D01*
X137542130Y-93877898D01*
X137471511Y-93645099D01*
X137356833Y-93430551D01*
X137202502Y-93242498D01*
X137053238Y-93120000D01*
X137202502Y-92997502D01*
X137356833Y-92809449D01*
X137471511Y-92594901D01*
X137542130Y-92362102D01*
X137565975Y-92120000D01*
X137542130Y-91877898D01*
X137471511Y-91645099D01*
X137356833Y-91430551D01*
X137202502Y-91242498D01*
X137014449Y-91088167D01*
X136799901Y-90973489D01*
X136567102Y-90902870D01*
X136385665Y-90885000D01*
X135714335Y-90885000D01*
X135532898Y-90902870D01*
X135300099Y-90973489D01*
X135085551Y-91088167D01*
X134897498Y-91242498D01*
X134743167Y-91430551D01*
X134628489Y-91645099D01*
X134557870Y-91877898D01*
X134534025Y-92120000D01*
X134557870Y-92362102D01*
X134628489Y-92594901D01*
X134743167Y-92809449D01*
X134897498Y-92997502D01*
X135046762Y-93120000D01*
X134897498Y-93242498D01*
X134743167Y-93430551D01*
X134628489Y-93645099D01*
X134557870Y-93877898D01*
X134534025Y-94120000D01*
X134557870Y-94362102D01*
X134628489Y-94594901D01*
X134743167Y-94809449D01*
X134897498Y-94997502D01*
X135046762Y-95120000D01*
X134897498Y-95242498D01*
X134743167Y-95430551D01*
X134628489Y-95645099D01*
X134557870Y-95877898D01*
X134534025Y-96120000D01*
X134557870Y-96362102D01*
X134628489Y-96594901D01*
X134743167Y-96809449D01*
X134897498Y-96997502D01*
X135046762Y-97120000D01*
X134897498Y-97242498D01*
X134743167Y-97430551D01*
X134628489Y-97645099D01*
X134557870Y-97877898D01*
X134534025Y-98120000D01*
X134557870Y-98362102D01*
X134628489Y-98594901D01*
X134743167Y-98809449D01*
X134897498Y-98997502D01*
X134936111Y-99029191D01*
X134931613Y-99031595D01*
X134797038Y-99142038D01*
X134686595Y-99276613D01*
X134604528Y-99430149D01*
X134553992Y-99596745D01*
X134536928Y-99769999D01*
X134536928Y-100238841D01*
X128199489Y-93901403D01*
X128175686Y-93872399D01*
X128059961Y-93777426D01*
X127927932Y-93706854D01*
X127784724Y-93663413D01*
X127729774Y-93608463D01*
X127560256Y-93495195D01*
X127371898Y-93417174D01*
X127171939Y-93377400D01*
X126968061Y-93377400D01*
X126768102Y-93417174D01*
X126735000Y-93430885D01*
X126735000Y-93352977D01*
X126837500Y-93363072D01*
X126989250Y-93360000D01*
X127148000Y-93201250D01*
X127148000Y-92377000D01*
X127402000Y-92377000D01*
X127402000Y-93201250D01*
X127560750Y-93360000D01*
X127712500Y-93363072D01*
X127836982Y-93350812D01*
X127956680Y-93314502D01*
X128066994Y-93255537D01*
X128163685Y-93176185D01*
X128243037Y-93079494D01*
X128302002Y-92969180D01*
X128338312Y-92849482D01*
X128350572Y-92725000D01*
X128347500Y-92535750D01*
X128188750Y-92377000D01*
X127402000Y-92377000D01*
X127148000Y-92377000D01*
X127128000Y-92377000D01*
X127128000Y-92123000D01*
X127148000Y-92123000D01*
X127148000Y-91298750D01*
X127402000Y-91298750D01*
X127402000Y-92123000D01*
X128188750Y-92123000D01*
X128347500Y-91964250D01*
X128350572Y-91775000D01*
X128338312Y-91650518D01*
X128302002Y-91530820D01*
X128243037Y-91420506D01*
X128163685Y-91323815D01*
X128066994Y-91244463D01*
X127956680Y-91185498D01*
X127836982Y-91149188D01*
X127712500Y-91136928D01*
X127560750Y-91140000D01*
X127402000Y-91298750D01*
X127148000Y-91298750D01*
X126989250Y-91140000D01*
X126837500Y-91136928D01*
X126713018Y-91149188D01*
X126593320Y-91185498D01*
X126483006Y-91244463D01*
X126416430Y-91299100D01*
X126394775Y-91281329D01*
X126246642Y-91202150D01*
X126085908Y-91153392D01*
X125918750Y-91136928D01*
X125481250Y-91136928D01*
X125314092Y-91153392D01*
X125153358Y-91202150D01*
X125005225Y-91281329D01*
X124875385Y-91387885D01*
X124768829Y-91517725D01*
X124689650Y-91665858D01*
X124640892Y-91826592D01*
X124624428Y-91993750D01*
X122114738Y-91993750D01*
X122109108Y-91936592D01*
X122060350Y-91775858D01*
X121981171Y-91627725D01*
X121874615Y-91497885D01*
X121744775Y-91391329D01*
X121596642Y-91312150D01*
X121435908Y-91263392D01*
X121268750Y-91246928D01*
X120831250Y-91246928D01*
X120664092Y-91263392D01*
X120503358Y-91312150D01*
X120355225Y-91391329D01*
X120333570Y-91409100D01*
X120266994Y-91354463D01*
X120156680Y-91295498D01*
X120036982Y-91259188D01*
X119912500Y-91246928D01*
X119760750Y-91250000D01*
X119602000Y-91408750D01*
X119602000Y-92233000D01*
X119622000Y-92233000D01*
X119622000Y-92487000D01*
X119602000Y-92487000D01*
X119602000Y-92507000D01*
X119348000Y-92507000D01*
X119348000Y-92487000D01*
X118561250Y-92487000D01*
X118402500Y-92645750D01*
X118399428Y-92835000D01*
X118411688Y-92959482D01*
X118447998Y-93079180D01*
X118506963Y-93189494D01*
X118586315Y-93286185D01*
X118626992Y-93319568D01*
X118505629Y-93400660D01*
X118461692Y-93444597D01*
X118132191Y-93444597D01*
X118044615Y-93337885D01*
X117914775Y-93231329D01*
X117766642Y-93152150D01*
X117605908Y-93103392D01*
X117438750Y-93086928D01*
X117001250Y-93086928D01*
X116834092Y-93103392D01*
X116673358Y-93152150D01*
X116525225Y-93231329D01*
X116503570Y-93249100D01*
X116436994Y-93194463D01*
X116326680Y-93135498D01*
X116206982Y-93099188D01*
X116082500Y-93086928D01*
X115930750Y-93090000D01*
X115772000Y-93248750D01*
X115518000Y-93248750D01*
X115359250Y-93090000D01*
X115207500Y-93086928D01*
X115083018Y-93099188D01*
X114963320Y-93135498D01*
X114853006Y-93194463D01*
X114756315Y-93273815D01*
X114676963Y-93370506D01*
X114617998Y-93480820D01*
X114581688Y-93600518D01*
X114569428Y-93725000D01*
X112227774Y-93725000D01*
X112228072Y-93680000D01*
X112215812Y-93555518D01*
X112179502Y-93435820D01*
X112120537Y-93325506D01*
X112041185Y-93228815D01*
X111944494Y-93149463D01*
X111834180Y-93090498D01*
X111714482Y-93054188D01*
X111590000Y-93041928D01*
X110125750Y-93045000D01*
X109967000Y-93203750D01*
X109713000Y-93203750D01*
X109554250Y-93045000D01*
X108160000Y-93042075D01*
X108160000Y-91885000D01*
X118399428Y-91885000D01*
X118402500Y-92074250D01*
X118561250Y-92233000D01*
X119348000Y-92233000D01*
X119348000Y-91408750D01*
X119189250Y-91250000D01*
X119037500Y-91246928D01*
X118913018Y-91259188D01*
X118793320Y-91295498D01*
X118683006Y-91354463D01*
X118586315Y-91433815D01*
X118506963Y-91530506D01*
X118447998Y-91640820D01*
X118411688Y-91760518D01*
X118399428Y-91885000D01*
X108160000Y-91885000D01*
X108160000Y-88288061D01*
X120605000Y-88288061D01*
X120605000Y-88491939D01*
X120644774Y-88691898D01*
X120722795Y-88880256D01*
X120836063Y-89049774D01*
X120980226Y-89193937D01*
X121149744Y-89307205D01*
X121338102Y-89385226D01*
X121538061Y-89425000D01*
X121741939Y-89425000D01*
X121941898Y-89385226D01*
X122130256Y-89307205D01*
X122143941Y-89298061D01*
X131995000Y-89298061D01*
X131995000Y-89501939D01*
X132034774Y-89701898D01*
X132112795Y-89890256D01*
X132226063Y-90059774D01*
X132370226Y-90203937D01*
X132539744Y-90317205D01*
X132728102Y-90395226D01*
X132928061Y-90435000D01*
X133131939Y-90435000D01*
X133331898Y-90395226D01*
X133520256Y-90317205D01*
X133689774Y-90203937D01*
X133833937Y-90059774D01*
X133947205Y-89890256D01*
X134025226Y-89701898D01*
X134065000Y-89501939D01*
X134065000Y-89298061D01*
X134025226Y-89098102D01*
X133947205Y-88909744D01*
X133833937Y-88740226D01*
X133689774Y-88596063D01*
X133520256Y-88482795D01*
X133331898Y-88404774D01*
X133131939Y-88365000D01*
X132928061Y-88365000D01*
X132728102Y-88404774D01*
X132539744Y-88482795D01*
X132370226Y-88596063D01*
X132226063Y-88740226D01*
X132112795Y-88909744D01*
X132034774Y-89098102D01*
X131995000Y-89298061D01*
X122143941Y-89298061D01*
X122299774Y-89193937D01*
X122443937Y-89049774D01*
X122557205Y-88880256D01*
X122635226Y-88691898D01*
X122675000Y-88491939D01*
X122675000Y-88288061D01*
X122635226Y-88088102D01*
X122557205Y-87899744D01*
X122443937Y-87730226D01*
X122299774Y-87586063D01*
X122130256Y-87472795D01*
X121941898Y-87394774D01*
X121741939Y-87355000D01*
X121538061Y-87355000D01*
X121338102Y-87394774D01*
X121149744Y-87472795D01*
X120980226Y-87586063D01*
X120836063Y-87730226D01*
X120722795Y-87899744D01*
X120644774Y-88088102D01*
X120605000Y-88288061D01*
X108160000Y-88288061D01*
X108160000Y-85354311D01*
X108351467Y-85816554D01*
X108771161Y-86444670D01*
X109305330Y-86978839D01*
X109933446Y-87398533D01*
X110631372Y-87687623D01*
X111372285Y-87835000D01*
X112127715Y-87835000D01*
X112868628Y-87687623D01*
X113566554Y-87398533D01*
X114194670Y-86978839D01*
X114728839Y-86444670D01*
X115148533Y-85816554D01*
X115437623Y-85118628D01*
X115478259Y-84914335D01*
X117965000Y-84914335D01*
X117965000Y-85585664D01*
X117982870Y-85767101D01*
X118053489Y-85999900D01*
X118168167Y-86214448D01*
X118322498Y-86402502D01*
X118510551Y-86556833D01*
X118725099Y-86671511D01*
X118957898Y-86742130D01*
X119200000Y-86765975D01*
X119442101Y-86742130D01*
X119674900Y-86671511D01*
X119889448Y-86556833D01*
X120077502Y-86402502D01*
X120109191Y-86363889D01*
X120111595Y-86368387D01*
X120222038Y-86502962D01*
X120356613Y-86613405D01*
X120510149Y-86695472D01*
X120676745Y-86746008D01*
X120849999Y-86763072D01*
X121550001Y-86763072D01*
X121723255Y-86746008D01*
X121889851Y-86695472D01*
X122043387Y-86613405D01*
X122177962Y-86502962D01*
X122288405Y-86368387D01*
X122370472Y-86214851D01*
X122421008Y-86048255D01*
X122438072Y-85875001D01*
X122438072Y-84624999D01*
X122421008Y-84451745D01*
X122370472Y-84285149D01*
X122288405Y-84131613D01*
X122177962Y-83997038D01*
X122043387Y-83886595D01*
X121889851Y-83804528D01*
X121723255Y-83753992D01*
X121550001Y-83736928D01*
X120849999Y-83736928D01*
X120676745Y-83753992D01*
X120510149Y-83804528D01*
X120356613Y-83886595D01*
X120222038Y-83997038D01*
X120111595Y-84131613D01*
X120109191Y-84136111D01*
X120077502Y-84097498D01*
X119889449Y-83943167D01*
X119674901Y-83828489D01*
X119442102Y-83757870D01*
X119200000Y-83734025D01*
X118957899Y-83757870D01*
X118725100Y-83828489D01*
X118510552Y-83943167D01*
X118322499Y-84097498D01*
X118168168Y-84285551D01*
X118053489Y-84500099D01*
X117982870Y-84732898D01*
X117965000Y-84914335D01*
X115478259Y-84914335D01*
X115585000Y-84377715D01*
X115585000Y-83622285D01*
X115437623Y-82881372D01*
X115148533Y-82183446D01*
X114728839Y-81555330D01*
X114194670Y-81021161D01*
X113654155Y-80660000D01*
X136095845Y-80660000D01*
X135555330Y-81021161D01*
M02*
