G04 #@! TF.GenerationSoftware,KiCad,Pcbnew,(5.1.4)-1*
G04 #@! TF.CreationDate,2022-02-20T14:50:57-05:00*
G04 #@! TF.ProjectId,Telemetry PCB,54656c65-6d65-4747-9279-205043422e6b,rev?*
G04 #@! TF.SameCoordinates,Original*
G04 #@! TF.FileFunction,Soldermask,Top*
G04 #@! TF.FilePolarity,Negative*
%FSLAX46Y46*%
G04 Gerber Fmt 4.6, Leading zero omitted, Abs format (unit mm)*
G04 Created by KiCad (PCBNEW (5.1.4)-1) date 2022-02-20 14:50:57*
%MOMM*%
%LPD*%
G04 APERTURE LIST*
%ADD10C,0.100000*%
G04 APERTURE END LIST*
D10*
G36*
X138634239Y-122311467D02*
G01*
X138948282Y-122373934D01*
X139539926Y-122619001D01*
X140072392Y-122974784D01*
X140525216Y-123427608D01*
X140880999Y-123960074D01*
X141126066Y-124551718D01*
X141126066Y-124551719D01*
X141251000Y-125179803D01*
X141251000Y-125820197D01*
X141188533Y-126134239D01*
X141126066Y-126448282D01*
X140880999Y-127039926D01*
X140525216Y-127572392D01*
X140072392Y-128025216D01*
X139539926Y-128380999D01*
X138948282Y-128626066D01*
X138634239Y-128688533D01*
X138320197Y-128751000D01*
X137679803Y-128751000D01*
X137365761Y-128688533D01*
X137051718Y-128626066D01*
X136460074Y-128380999D01*
X135927608Y-128025216D01*
X135474784Y-127572392D01*
X135119001Y-127039926D01*
X134873934Y-126448282D01*
X134811467Y-126134239D01*
X134749000Y-125820197D01*
X134749000Y-125179803D01*
X134873934Y-124551719D01*
X134873934Y-124551718D01*
X135119001Y-123960074D01*
X135474784Y-123427608D01*
X135927608Y-122974784D01*
X136460074Y-122619001D01*
X137051718Y-122373934D01*
X137365761Y-122311467D01*
X137679803Y-122249000D01*
X138320197Y-122249000D01*
X138634239Y-122311467D01*
X138634239Y-122311467D01*
G37*
G36*
X112384239Y-122311467D02*
G01*
X112698282Y-122373934D01*
X113289926Y-122619001D01*
X113822392Y-122974784D01*
X114275216Y-123427608D01*
X114630999Y-123960074D01*
X114876066Y-124551718D01*
X114876066Y-124551719D01*
X115001000Y-125179803D01*
X115001000Y-125820197D01*
X114938533Y-126134239D01*
X114876066Y-126448282D01*
X114630999Y-127039926D01*
X114275216Y-127572392D01*
X113822392Y-128025216D01*
X113289926Y-128380999D01*
X112698282Y-128626066D01*
X112384239Y-128688533D01*
X112070197Y-128751000D01*
X111429803Y-128751000D01*
X111115761Y-128688533D01*
X110801718Y-128626066D01*
X110210074Y-128380999D01*
X109677608Y-128025216D01*
X109224784Y-127572392D01*
X108869001Y-127039926D01*
X108623934Y-126448282D01*
X108561467Y-126134239D01*
X108499000Y-125820197D01*
X108499000Y-125179803D01*
X108623934Y-124551719D01*
X108623934Y-124551718D01*
X108869001Y-123960074D01*
X109224784Y-123427608D01*
X109677608Y-122974784D01*
X110210074Y-122619001D01*
X110801718Y-122373934D01*
X111115761Y-122311467D01*
X111429803Y-122249000D01*
X112070197Y-122249000D01*
X112384239Y-122311467D01*
X112384239Y-122311467D01*
G37*
G36*
X114190443Y-116265519D02*
G01*
X114256627Y-116272037D01*
X114426466Y-116323557D01*
X114582991Y-116407222D01*
X114618729Y-116436552D01*
X114720186Y-116519814D01*
X114803283Y-116621069D01*
X114832778Y-116657009D01*
X114916443Y-116813534D01*
X114967963Y-116983373D01*
X114985359Y-117160000D01*
X114967963Y-117336627D01*
X114916443Y-117506466D01*
X114832778Y-117662991D01*
X114803448Y-117698729D01*
X114720186Y-117800186D01*
X114618729Y-117883448D01*
X114582991Y-117912778D01*
X114426466Y-117996443D01*
X114256627Y-118047963D01*
X114190443Y-118054481D01*
X114124260Y-118061000D01*
X113735740Y-118061000D01*
X113669557Y-118054481D01*
X113603373Y-118047963D01*
X113433534Y-117996443D01*
X113277009Y-117912778D01*
X113241271Y-117883448D01*
X113139814Y-117800186D01*
X113056552Y-117698729D01*
X113027222Y-117662991D01*
X112943557Y-117506466D01*
X112892037Y-117336627D01*
X112874641Y-117160000D01*
X112892037Y-116983373D01*
X112943557Y-116813534D01*
X113027222Y-116657009D01*
X113056717Y-116621069D01*
X113139814Y-116519814D01*
X113241271Y-116436552D01*
X113277009Y-116407222D01*
X113433534Y-116323557D01*
X113603373Y-116272037D01*
X113669557Y-116265519D01*
X113735740Y-116259000D01*
X114124260Y-116259000D01*
X114190443Y-116265519D01*
X114190443Y-116265519D01*
G37*
G36*
X124977091Y-116048085D02*
G01*
X125011069Y-116058393D01*
X125042390Y-116075134D01*
X125069839Y-116097661D01*
X125092366Y-116125110D01*
X125109107Y-116156431D01*
X125119415Y-116190409D01*
X125123500Y-116231890D01*
X125123500Y-116908110D01*
X125119415Y-116949591D01*
X125109107Y-116983569D01*
X125092366Y-117014890D01*
X125069839Y-117042339D01*
X125042390Y-117064866D01*
X125011069Y-117081607D01*
X124977091Y-117091915D01*
X124935610Y-117096000D01*
X124334390Y-117096000D01*
X124292909Y-117091915D01*
X124258931Y-117081607D01*
X124227610Y-117064866D01*
X124200161Y-117042339D01*
X124177634Y-117014890D01*
X124160893Y-116983569D01*
X124150585Y-116949591D01*
X124146500Y-116908110D01*
X124146500Y-116231890D01*
X124150585Y-116190409D01*
X124160893Y-116156431D01*
X124177634Y-116125110D01*
X124200161Y-116097661D01*
X124227610Y-116075134D01*
X124258931Y-116058393D01*
X124292909Y-116048085D01*
X124334390Y-116044000D01*
X124935610Y-116044000D01*
X124977091Y-116048085D01*
X124977091Y-116048085D01*
G37*
G36*
X123402091Y-116048085D02*
G01*
X123436069Y-116058393D01*
X123467390Y-116075134D01*
X123494839Y-116097661D01*
X123517366Y-116125110D01*
X123534107Y-116156431D01*
X123544415Y-116190409D01*
X123548500Y-116231890D01*
X123548500Y-116908110D01*
X123544415Y-116949591D01*
X123534107Y-116983569D01*
X123517366Y-117014890D01*
X123494839Y-117042339D01*
X123467390Y-117064866D01*
X123436069Y-117081607D01*
X123402091Y-117091915D01*
X123360610Y-117096000D01*
X122759390Y-117096000D01*
X122717909Y-117091915D01*
X122683931Y-117081607D01*
X122652610Y-117064866D01*
X122625161Y-117042339D01*
X122602634Y-117014890D01*
X122585893Y-116983569D01*
X122575585Y-116949591D01*
X122571500Y-116908110D01*
X122571500Y-116231890D01*
X122575585Y-116190409D01*
X122585893Y-116156431D01*
X122602634Y-116125110D01*
X122625161Y-116097661D01*
X122652610Y-116075134D01*
X122683931Y-116058393D01*
X122717909Y-116048085D01*
X122759390Y-116044000D01*
X123360610Y-116044000D01*
X123402091Y-116048085D01*
X123402091Y-116048085D01*
G37*
G36*
X119821000Y-116946000D02*
G01*
X118659000Y-116946000D01*
X118659000Y-114294000D01*
X119821000Y-114294000D01*
X119821000Y-116946000D01*
X119821000Y-116946000D01*
G37*
G36*
X122021000Y-116946000D02*
G01*
X120859000Y-116946000D01*
X120859000Y-116194000D01*
X122021000Y-116194000D01*
X122021000Y-116946000D01*
X122021000Y-116946000D01*
G37*
G36*
X117999591Y-115760585D02*
G01*
X118033569Y-115770893D01*
X118064890Y-115787634D01*
X118092339Y-115810161D01*
X118114866Y-115837610D01*
X118131607Y-115868931D01*
X118141915Y-115902909D01*
X118146000Y-115944390D01*
X118146000Y-116545610D01*
X118141915Y-116587091D01*
X118131607Y-116621069D01*
X118114866Y-116652390D01*
X118092339Y-116679839D01*
X118064890Y-116702366D01*
X118033569Y-116719107D01*
X117999591Y-116729415D01*
X117958110Y-116733500D01*
X117281890Y-116733500D01*
X117240409Y-116729415D01*
X117206431Y-116719107D01*
X117175110Y-116702366D01*
X117147661Y-116679839D01*
X117125134Y-116652390D01*
X117108393Y-116621069D01*
X117098085Y-116587091D01*
X117094000Y-116545610D01*
X117094000Y-115944390D01*
X117098085Y-115902909D01*
X117108393Y-115868931D01*
X117125134Y-115837610D01*
X117147661Y-115810161D01*
X117175110Y-115787634D01*
X117206431Y-115770893D01*
X117240409Y-115760585D01*
X117281890Y-115756500D01*
X117958110Y-115756500D01*
X117999591Y-115760585D01*
X117999591Y-115760585D01*
G37*
G36*
X114838600Y-113762989D02*
G01*
X114871652Y-113773015D01*
X114902103Y-113789292D01*
X114928799Y-113811201D01*
X114950708Y-113837897D01*
X114966985Y-113868348D01*
X114977011Y-113901400D01*
X114981000Y-113941903D01*
X114981000Y-115378097D01*
X114977011Y-115418600D01*
X114966985Y-115451652D01*
X114950708Y-115482103D01*
X114928799Y-115508799D01*
X114902103Y-115530708D01*
X114871652Y-115546985D01*
X114838600Y-115557011D01*
X114798097Y-115561000D01*
X113061903Y-115561000D01*
X113021400Y-115557011D01*
X112988348Y-115546985D01*
X112957897Y-115530708D01*
X112931201Y-115508799D01*
X112909292Y-115482103D01*
X112893015Y-115451652D01*
X112882989Y-115418600D01*
X112879000Y-115378097D01*
X112879000Y-113941903D01*
X112882989Y-113901400D01*
X112893015Y-113868348D01*
X112909292Y-113837897D01*
X112931201Y-113811201D01*
X112957897Y-113789292D01*
X112988348Y-113773015D01*
X113021400Y-113762989D01*
X113061903Y-113759000D01*
X114798097Y-113759000D01*
X114838600Y-113762989D01*
X114838600Y-113762989D01*
G37*
G36*
X124977091Y-114148085D02*
G01*
X125011069Y-114158393D01*
X125042390Y-114175134D01*
X125069839Y-114197661D01*
X125092366Y-114225110D01*
X125109107Y-114256431D01*
X125119415Y-114290409D01*
X125123500Y-114331890D01*
X125123500Y-115008110D01*
X125119415Y-115049591D01*
X125109107Y-115083569D01*
X125092366Y-115114890D01*
X125069839Y-115142339D01*
X125042390Y-115164866D01*
X125011069Y-115181607D01*
X124977091Y-115191915D01*
X124935610Y-115196000D01*
X124334390Y-115196000D01*
X124292909Y-115191915D01*
X124258931Y-115181607D01*
X124227610Y-115164866D01*
X124200161Y-115142339D01*
X124177634Y-115114890D01*
X124160893Y-115083569D01*
X124150585Y-115049591D01*
X124146500Y-115008110D01*
X124146500Y-114331890D01*
X124150585Y-114290409D01*
X124160893Y-114256431D01*
X124177634Y-114225110D01*
X124200161Y-114197661D01*
X124227610Y-114175134D01*
X124258931Y-114158393D01*
X124292909Y-114148085D01*
X124334390Y-114144000D01*
X124935610Y-114144000D01*
X124977091Y-114148085D01*
X124977091Y-114148085D01*
G37*
G36*
X123402091Y-114148085D02*
G01*
X123436069Y-114158393D01*
X123467390Y-114175134D01*
X123494839Y-114197661D01*
X123517366Y-114225110D01*
X123534107Y-114256431D01*
X123544415Y-114290409D01*
X123548500Y-114331890D01*
X123548500Y-115008110D01*
X123544415Y-115049591D01*
X123534107Y-115083569D01*
X123517366Y-115114890D01*
X123494839Y-115142339D01*
X123467390Y-115164866D01*
X123436069Y-115181607D01*
X123402091Y-115191915D01*
X123360610Y-115196000D01*
X122759390Y-115196000D01*
X122717909Y-115191915D01*
X122683931Y-115181607D01*
X122652610Y-115164866D01*
X122625161Y-115142339D01*
X122602634Y-115114890D01*
X122585893Y-115083569D01*
X122575585Y-115049591D01*
X122571500Y-115008110D01*
X122571500Y-114331890D01*
X122575585Y-114290409D01*
X122585893Y-114256431D01*
X122602634Y-114225110D01*
X122625161Y-114197661D01*
X122652610Y-114175134D01*
X122683931Y-114158393D01*
X122717909Y-114148085D01*
X122759390Y-114144000D01*
X123360610Y-114144000D01*
X123402091Y-114148085D01*
X123402091Y-114148085D01*
G37*
G36*
X117999591Y-114185585D02*
G01*
X118033569Y-114195893D01*
X118064890Y-114212634D01*
X118092339Y-114235161D01*
X118114866Y-114262610D01*
X118131607Y-114293931D01*
X118141915Y-114327909D01*
X118146000Y-114369390D01*
X118146000Y-114970610D01*
X118141915Y-115012091D01*
X118131607Y-115046069D01*
X118114866Y-115077390D01*
X118092339Y-115104839D01*
X118064890Y-115127366D01*
X118033569Y-115144107D01*
X117999591Y-115154415D01*
X117958110Y-115158500D01*
X117281890Y-115158500D01*
X117240409Y-115154415D01*
X117206431Y-115144107D01*
X117175110Y-115127366D01*
X117147661Y-115104839D01*
X117125134Y-115077390D01*
X117108393Y-115046069D01*
X117098085Y-115012091D01*
X117094000Y-114970610D01*
X117094000Y-114369390D01*
X117098085Y-114327909D01*
X117108393Y-114293931D01*
X117125134Y-114262610D01*
X117147661Y-114235161D01*
X117175110Y-114212634D01*
X117206431Y-114195893D01*
X117240409Y-114185585D01*
X117281890Y-114181500D01*
X117958110Y-114181500D01*
X117999591Y-114185585D01*
X117999591Y-114185585D01*
G37*
G36*
X122021000Y-115046000D02*
G01*
X120859000Y-115046000D01*
X120859000Y-114294000D01*
X122021000Y-114294000D01*
X122021000Y-115046000D01*
X122021000Y-115046000D01*
G37*
G36*
X119619591Y-112515585D02*
G01*
X119653569Y-112525893D01*
X119684890Y-112542634D01*
X119712339Y-112565161D01*
X119734866Y-112592610D01*
X119751607Y-112623931D01*
X119761915Y-112657909D01*
X119766000Y-112699390D01*
X119766000Y-113300610D01*
X119761915Y-113342091D01*
X119751607Y-113376069D01*
X119734866Y-113407390D01*
X119712339Y-113434839D01*
X119684890Y-113457366D01*
X119653569Y-113474107D01*
X119619591Y-113484415D01*
X119578110Y-113488500D01*
X118901890Y-113488500D01*
X118860409Y-113484415D01*
X118826431Y-113474107D01*
X118795110Y-113457366D01*
X118767661Y-113434839D01*
X118745134Y-113407390D01*
X118728393Y-113376069D01*
X118718085Y-113342091D01*
X118714000Y-113300610D01*
X118714000Y-112699390D01*
X118718085Y-112657909D01*
X118728393Y-112623931D01*
X118745134Y-112592610D01*
X118767661Y-112565161D01*
X118795110Y-112542634D01*
X118826431Y-112525893D01*
X118860409Y-112515585D01*
X118901890Y-112511500D01*
X119578110Y-112511500D01*
X119619591Y-112515585D01*
X119619591Y-112515585D01*
G37*
G36*
X119619591Y-110940585D02*
G01*
X119653569Y-110950893D01*
X119684890Y-110967634D01*
X119712339Y-110990161D01*
X119734866Y-111017610D01*
X119751607Y-111048931D01*
X119761915Y-111082909D01*
X119766000Y-111124390D01*
X119766000Y-111725610D01*
X119761915Y-111767091D01*
X119751607Y-111801069D01*
X119734866Y-111832390D01*
X119712339Y-111859839D01*
X119684890Y-111882366D01*
X119653569Y-111899107D01*
X119619591Y-111909415D01*
X119578110Y-111913500D01*
X118901890Y-111913500D01*
X118860409Y-111909415D01*
X118826431Y-111899107D01*
X118795110Y-111882366D01*
X118767661Y-111859839D01*
X118745134Y-111832390D01*
X118728393Y-111801069D01*
X118718085Y-111767091D01*
X118714000Y-111725610D01*
X118714000Y-111124390D01*
X118718085Y-111082909D01*
X118728393Y-111048931D01*
X118745134Y-111017610D01*
X118767661Y-110990161D01*
X118795110Y-110967634D01*
X118826431Y-110950893D01*
X118860409Y-110940585D01*
X118901890Y-110936500D01*
X119578110Y-110936500D01*
X119619591Y-110940585D01*
X119619591Y-110940585D01*
G37*
G36*
X136806242Y-110563404D02*
G01*
X136843337Y-110574657D01*
X136877515Y-110592925D01*
X136907481Y-110617519D01*
X136932075Y-110647485D01*
X136950343Y-110681663D01*
X136961596Y-110718758D01*
X136966000Y-110763474D01*
X136966000Y-111656526D01*
X136961596Y-111701242D01*
X136950343Y-111738337D01*
X136932075Y-111772515D01*
X136907481Y-111802481D01*
X136877515Y-111827075D01*
X136843337Y-111845343D01*
X136806242Y-111856596D01*
X136761526Y-111861000D01*
X135318474Y-111861000D01*
X135273758Y-111856596D01*
X135236663Y-111845343D01*
X135202485Y-111827075D01*
X135172519Y-111802481D01*
X135147925Y-111772515D01*
X135129657Y-111738337D01*
X135118404Y-111701242D01*
X135114000Y-111656526D01*
X135114000Y-110763474D01*
X135118404Y-110718758D01*
X135129657Y-110681663D01*
X135147925Y-110647485D01*
X135172519Y-110617519D01*
X135202485Y-110592925D01*
X135236663Y-110574657D01*
X135273758Y-110563404D01*
X135318474Y-110559000D01*
X136761526Y-110559000D01*
X136806242Y-110563404D01*
X136806242Y-110563404D01*
G37*
G36*
X122639591Y-110090585D02*
G01*
X122673569Y-110100893D01*
X122704890Y-110117634D01*
X122732339Y-110140161D01*
X122754866Y-110167610D01*
X122771607Y-110198931D01*
X122781915Y-110232909D01*
X122786000Y-110274390D01*
X122786000Y-110875610D01*
X122781915Y-110917091D01*
X122771607Y-110951069D01*
X122754866Y-110982390D01*
X122732339Y-111009839D01*
X122704890Y-111032366D01*
X122673569Y-111049107D01*
X122639591Y-111059415D01*
X122598110Y-111063500D01*
X121921890Y-111063500D01*
X121880409Y-111059415D01*
X121846431Y-111049107D01*
X121815110Y-111032366D01*
X121787661Y-111009839D01*
X121765134Y-110982390D01*
X121748393Y-110951069D01*
X121738085Y-110917091D01*
X121734000Y-110875610D01*
X121734000Y-110274390D01*
X121738085Y-110232909D01*
X121748393Y-110198931D01*
X121765134Y-110167610D01*
X121787661Y-110140161D01*
X121815110Y-110117634D01*
X121846431Y-110100893D01*
X121880409Y-110090585D01*
X121921890Y-110086500D01*
X122598110Y-110086500D01*
X122639591Y-110090585D01*
X122639591Y-110090585D01*
G37*
G36*
X119619591Y-109445585D02*
G01*
X119653569Y-109455893D01*
X119684890Y-109472634D01*
X119712339Y-109495161D01*
X119734866Y-109522610D01*
X119751607Y-109553931D01*
X119761915Y-109587909D01*
X119766000Y-109629390D01*
X119766000Y-110230610D01*
X119761915Y-110272091D01*
X119751607Y-110306069D01*
X119734866Y-110337390D01*
X119712339Y-110364839D01*
X119684890Y-110387366D01*
X119653569Y-110404107D01*
X119619591Y-110414415D01*
X119578110Y-110418500D01*
X118901890Y-110418500D01*
X118860409Y-110414415D01*
X118826431Y-110404107D01*
X118795110Y-110387366D01*
X118767661Y-110364839D01*
X118745134Y-110337390D01*
X118728393Y-110306069D01*
X118718085Y-110272091D01*
X118714000Y-110230610D01*
X118714000Y-109629390D01*
X118718085Y-109587909D01*
X118728393Y-109553931D01*
X118745134Y-109522610D01*
X118767661Y-109495161D01*
X118795110Y-109472634D01*
X118826431Y-109455893D01*
X118860409Y-109445585D01*
X118901890Y-109441500D01*
X119578110Y-109441500D01*
X119619591Y-109445585D01*
X119619591Y-109445585D01*
G37*
G36*
X136378855Y-108562140D02*
G01*
X136442618Y-108568420D01*
X136522361Y-108592610D01*
X136565336Y-108605646D01*
X136678425Y-108666094D01*
X136777554Y-108747446D01*
X136858906Y-108846575D01*
X136919354Y-108959664D01*
X136919355Y-108959668D01*
X136956580Y-109082382D01*
X136969149Y-109210000D01*
X136956580Y-109337618D01*
X136935415Y-109407390D01*
X136919354Y-109460336D01*
X136858906Y-109573425D01*
X136777554Y-109672554D01*
X136678425Y-109753906D01*
X136565336Y-109814354D01*
X136533404Y-109824040D01*
X136442618Y-109851580D01*
X136378855Y-109857860D01*
X136346974Y-109861000D01*
X135733026Y-109861000D01*
X135701145Y-109857860D01*
X135637382Y-109851580D01*
X135546596Y-109824040D01*
X135514664Y-109814354D01*
X135401575Y-109753906D01*
X135302446Y-109672554D01*
X135221094Y-109573425D01*
X135160646Y-109460336D01*
X135144585Y-109407390D01*
X135123420Y-109337618D01*
X135110851Y-109210000D01*
X135123420Y-109082382D01*
X135160645Y-108959668D01*
X135160646Y-108959664D01*
X135221094Y-108846575D01*
X135302446Y-108747446D01*
X135401575Y-108666094D01*
X135514664Y-108605646D01*
X135557639Y-108592610D01*
X135637382Y-108568420D01*
X135701145Y-108562140D01*
X135733026Y-108559000D01*
X136346974Y-108559000D01*
X136378855Y-108562140D01*
X136378855Y-108562140D01*
G37*
G36*
X124821000Y-109651000D02*
G01*
X123319000Y-109651000D01*
X123319000Y-108349000D01*
X124821000Y-108349000D01*
X124821000Y-109651000D01*
X124821000Y-109651000D01*
G37*
G36*
X127021000Y-109651000D02*
G01*
X125519000Y-109651000D01*
X125519000Y-108349000D01*
X127021000Y-108349000D01*
X127021000Y-109651000D01*
X127021000Y-109651000D01*
G37*
G36*
X114200443Y-107735519D02*
G01*
X114266627Y-107742037D01*
X114436466Y-107793557D01*
X114592991Y-107877222D01*
X114617863Y-107897634D01*
X114730186Y-107989814D01*
X114813448Y-108091271D01*
X114842778Y-108127009D01*
X114926443Y-108283534D01*
X114977963Y-108453373D01*
X114995359Y-108630000D01*
X114977963Y-108806627D01*
X114926443Y-108976466D01*
X114842778Y-109132991D01*
X114814949Y-109166901D01*
X114730186Y-109270186D01*
X114634019Y-109349107D01*
X114592991Y-109382778D01*
X114529040Y-109416961D01*
X114495593Y-109434839D01*
X114436466Y-109466443D01*
X114266627Y-109517963D01*
X114219444Y-109522610D01*
X114134260Y-109531000D01*
X113745740Y-109531000D01*
X113660556Y-109522610D01*
X113613373Y-109517963D01*
X113443534Y-109466443D01*
X113384408Y-109434839D01*
X113350960Y-109416961D01*
X113287009Y-109382778D01*
X113245981Y-109349107D01*
X113149814Y-109270186D01*
X113065051Y-109166901D01*
X113037222Y-109132991D01*
X112953557Y-108976466D01*
X112902037Y-108806627D01*
X112884641Y-108630000D01*
X112902037Y-108453373D01*
X112953557Y-108283534D01*
X113037222Y-108127009D01*
X113066552Y-108091271D01*
X113149814Y-107989814D01*
X113262137Y-107897634D01*
X113287009Y-107877222D01*
X113443534Y-107793557D01*
X113613373Y-107742037D01*
X113679557Y-107735519D01*
X113745740Y-107729000D01*
X114134260Y-107729000D01*
X114200443Y-107735519D01*
X114200443Y-107735519D01*
G37*
G36*
X122639591Y-108515585D02*
G01*
X122673569Y-108525893D01*
X122704890Y-108542634D01*
X122732339Y-108565161D01*
X122754866Y-108592610D01*
X122771607Y-108623931D01*
X122781915Y-108657909D01*
X122786000Y-108699390D01*
X122786000Y-109300610D01*
X122781915Y-109342091D01*
X122771607Y-109376069D01*
X122754866Y-109407390D01*
X122732339Y-109434839D01*
X122704890Y-109457366D01*
X122673569Y-109474107D01*
X122639591Y-109484415D01*
X122598110Y-109488500D01*
X121921890Y-109488500D01*
X121880409Y-109484415D01*
X121846431Y-109474107D01*
X121815110Y-109457366D01*
X121787661Y-109434839D01*
X121765134Y-109407390D01*
X121748393Y-109376069D01*
X121738085Y-109342091D01*
X121734000Y-109300610D01*
X121734000Y-108699390D01*
X121738085Y-108657909D01*
X121748393Y-108623931D01*
X121765134Y-108592610D01*
X121787661Y-108565161D01*
X121815110Y-108542634D01*
X121846431Y-108525893D01*
X121880409Y-108515585D01*
X121921890Y-108511500D01*
X122598110Y-108511500D01*
X122639591Y-108515585D01*
X122639591Y-108515585D01*
G37*
G36*
X128459591Y-108390585D02*
G01*
X128493569Y-108400893D01*
X128524890Y-108417634D01*
X128552339Y-108440161D01*
X128574866Y-108467610D01*
X128591607Y-108498931D01*
X128601915Y-108532909D01*
X128606000Y-108574390D01*
X128606000Y-109175610D01*
X128601915Y-109217091D01*
X128591607Y-109251069D01*
X128574866Y-109282390D01*
X128552339Y-109309839D01*
X128524890Y-109332366D01*
X128493569Y-109349107D01*
X128459591Y-109359415D01*
X128418110Y-109363500D01*
X127741890Y-109363500D01*
X127700409Y-109359415D01*
X127666431Y-109349107D01*
X127635110Y-109332366D01*
X127607661Y-109309839D01*
X127585134Y-109282390D01*
X127568393Y-109251069D01*
X127558085Y-109217091D01*
X127554000Y-109175610D01*
X127554000Y-108574390D01*
X127558085Y-108532909D01*
X127568393Y-108498931D01*
X127585134Y-108467610D01*
X127607661Y-108440161D01*
X127635110Y-108417634D01*
X127666431Y-108400893D01*
X127700409Y-108390585D01*
X127741890Y-108386500D01*
X128418110Y-108386500D01*
X128459591Y-108390585D01*
X128459591Y-108390585D01*
G37*
G36*
X119619591Y-107870585D02*
G01*
X119653569Y-107880893D01*
X119684890Y-107897634D01*
X119712339Y-107920161D01*
X119734866Y-107947610D01*
X119751607Y-107978931D01*
X119761915Y-108012909D01*
X119766000Y-108054390D01*
X119766000Y-108655610D01*
X119761915Y-108697091D01*
X119751607Y-108731069D01*
X119734866Y-108762390D01*
X119712339Y-108789839D01*
X119684890Y-108812366D01*
X119653569Y-108829107D01*
X119619591Y-108839415D01*
X119578110Y-108843500D01*
X118901890Y-108843500D01*
X118860409Y-108839415D01*
X118826431Y-108829107D01*
X118795110Y-108812366D01*
X118767661Y-108789839D01*
X118745134Y-108762390D01*
X118728393Y-108731069D01*
X118718085Y-108697091D01*
X118714000Y-108655610D01*
X118714000Y-108054390D01*
X118718085Y-108012909D01*
X118728393Y-107978931D01*
X118745134Y-107947610D01*
X118767661Y-107920161D01*
X118795110Y-107897634D01*
X118826431Y-107880893D01*
X118860409Y-107870585D01*
X118901890Y-107866500D01*
X119578110Y-107866500D01*
X119619591Y-107870585D01*
X119619591Y-107870585D01*
G37*
G36*
X124821000Y-107951000D02*
G01*
X123319000Y-107951000D01*
X123319000Y-106649000D01*
X124821000Y-106649000D01*
X124821000Y-107951000D01*
X124821000Y-107951000D01*
G37*
G36*
X127021000Y-107951000D02*
G01*
X125519000Y-107951000D01*
X125519000Y-106649000D01*
X127021000Y-106649000D01*
X127021000Y-107951000D01*
X127021000Y-107951000D01*
G37*
G36*
X136378855Y-106562140D02*
G01*
X136442618Y-106568420D01*
X136533404Y-106595960D01*
X136565336Y-106605646D01*
X136678425Y-106666094D01*
X136777554Y-106747446D01*
X136858906Y-106846575D01*
X136919354Y-106959664D01*
X136925158Y-106978799D01*
X136956580Y-107082382D01*
X136969149Y-107210000D01*
X136956580Y-107337618D01*
X136929040Y-107428404D01*
X136919354Y-107460336D01*
X136858906Y-107573425D01*
X136777554Y-107672554D01*
X136678425Y-107753906D01*
X136565336Y-107814354D01*
X136533404Y-107824040D01*
X136442618Y-107851580D01*
X136378855Y-107857860D01*
X136346974Y-107861000D01*
X135733026Y-107861000D01*
X135701145Y-107857860D01*
X135637382Y-107851580D01*
X135546596Y-107824040D01*
X135514664Y-107814354D01*
X135401575Y-107753906D01*
X135302446Y-107672554D01*
X135221094Y-107573425D01*
X135160646Y-107460336D01*
X135150960Y-107428404D01*
X135123420Y-107337618D01*
X135110851Y-107210000D01*
X135123420Y-107082382D01*
X135154842Y-106978799D01*
X135160646Y-106959664D01*
X135221094Y-106846575D01*
X135302446Y-106747446D01*
X135401575Y-106666094D01*
X135514664Y-106605646D01*
X135546596Y-106595960D01*
X135637382Y-106568420D01*
X135701145Y-106562140D01*
X135733026Y-106559000D01*
X136346974Y-106559000D01*
X136378855Y-106562140D01*
X136378855Y-106562140D01*
G37*
G36*
X128459591Y-106815585D02*
G01*
X128493569Y-106825893D01*
X128524890Y-106842634D01*
X128552339Y-106865161D01*
X128574866Y-106892610D01*
X128591607Y-106923931D01*
X128601915Y-106957909D01*
X128606000Y-106999390D01*
X128606000Y-107600610D01*
X128601915Y-107642091D01*
X128591607Y-107676069D01*
X128574866Y-107707390D01*
X128552339Y-107734839D01*
X128524890Y-107757366D01*
X128493569Y-107774107D01*
X128459591Y-107784415D01*
X128418110Y-107788500D01*
X127741890Y-107788500D01*
X127700409Y-107784415D01*
X127666431Y-107774107D01*
X127635110Y-107757366D01*
X127607661Y-107734839D01*
X127585134Y-107707390D01*
X127568393Y-107676069D01*
X127558085Y-107642091D01*
X127554000Y-107600610D01*
X127554000Y-106999390D01*
X127558085Y-106957909D01*
X127568393Y-106923931D01*
X127585134Y-106892610D01*
X127607661Y-106865161D01*
X127635110Y-106842634D01*
X127666431Y-106825893D01*
X127700409Y-106815585D01*
X127741890Y-106811500D01*
X128418110Y-106811500D01*
X128459591Y-106815585D01*
X128459591Y-106815585D01*
G37*
G36*
X114848600Y-105232989D02*
G01*
X114881652Y-105243015D01*
X114912103Y-105259292D01*
X114938799Y-105281201D01*
X114960708Y-105307897D01*
X114976985Y-105338348D01*
X114987011Y-105371400D01*
X114991000Y-105411903D01*
X114991000Y-106848097D01*
X114987011Y-106888600D01*
X114976985Y-106921652D01*
X114960708Y-106952103D01*
X114938799Y-106978799D01*
X114912103Y-107000708D01*
X114881652Y-107016985D01*
X114848600Y-107027011D01*
X114808097Y-107031000D01*
X113071903Y-107031000D01*
X113031400Y-107027011D01*
X112998348Y-107016985D01*
X112967897Y-107000708D01*
X112941201Y-106978799D01*
X112919292Y-106952103D01*
X112903015Y-106921652D01*
X112892989Y-106888600D01*
X112889000Y-106848097D01*
X112889000Y-105411903D01*
X112892989Y-105371400D01*
X112903015Y-105338348D01*
X112919292Y-105307897D01*
X112941201Y-105281201D01*
X112967897Y-105259292D01*
X112998348Y-105243015D01*
X113031400Y-105232989D01*
X113071903Y-105229000D01*
X114808097Y-105229000D01*
X114848600Y-105232989D01*
X114848600Y-105232989D01*
G37*
G36*
X136378855Y-104562140D02*
G01*
X136442618Y-104568420D01*
X136533404Y-104595960D01*
X136565336Y-104605646D01*
X136678425Y-104666094D01*
X136777554Y-104747446D01*
X136858906Y-104846575D01*
X136919354Y-104959664D01*
X136919355Y-104959668D01*
X136956580Y-105082382D01*
X136969149Y-105210000D01*
X136956580Y-105337618D01*
X136934046Y-105411903D01*
X136919354Y-105460336D01*
X136858906Y-105573425D01*
X136777554Y-105672554D01*
X136678425Y-105753906D01*
X136565336Y-105814354D01*
X136533404Y-105824040D01*
X136442618Y-105851580D01*
X136378855Y-105857860D01*
X136346974Y-105861000D01*
X135733026Y-105861000D01*
X135701145Y-105857860D01*
X135637382Y-105851580D01*
X135546596Y-105824040D01*
X135514664Y-105814354D01*
X135401575Y-105753906D01*
X135302446Y-105672554D01*
X135221094Y-105573425D01*
X135160646Y-105460336D01*
X135145954Y-105411903D01*
X135123420Y-105337618D01*
X135110851Y-105210000D01*
X135123420Y-105082382D01*
X135160645Y-104959668D01*
X135160646Y-104959664D01*
X135221094Y-104846575D01*
X135302446Y-104747446D01*
X135401575Y-104666094D01*
X135514664Y-104605646D01*
X135546596Y-104595960D01*
X135637382Y-104568420D01*
X135701145Y-104562140D01*
X135733026Y-104559000D01*
X136346974Y-104559000D01*
X136378855Y-104562140D01*
X136378855Y-104562140D01*
G37*
G36*
X120119591Y-102125585D02*
G01*
X120153569Y-102135893D01*
X120184890Y-102152634D01*
X120212339Y-102175161D01*
X120234866Y-102202610D01*
X120251607Y-102233931D01*
X120261915Y-102267909D01*
X120266000Y-102309390D01*
X120266000Y-102910610D01*
X120261915Y-102952091D01*
X120251607Y-102986069D01*
X120234866Y-103017390D01*
X120212339Y-103044839D01*
X120184890Y-103067366D01*
X120153569Y-103084107D01*
X120119591Y-103094415D01*
X120078110Y-103098500D01*
X119401890Y-103098500D01*
X119360409Y-103094415D01*
X119326431Y-103084107D01*
X119295110Y-103067366D01*
X119267661Y-103044839D01*
X119245134Y-103017390D01*
X119228393Y-102986069D01*
X119218085Y-102952091D01*
X119214000Y-102910610D01*
X119214000Y-102309390D01*
X119218085Y-102267909D01*
X119228393Y-102233931D01*
X119245134Y-102202610D01*
X119267661Y-102175161D01*
X119295110Y-102152634D01*
X119326431Y-102135893D01*
X119360409Y-102125585D01*
X119401890Y-102121500D01*
X120078110Y-102121500D01*
X120119591Y-102125585D01*
X120119591Y-102125585D01*
G37*
G36*
X123259591Y-102125585D02*
G01*
X123293569Y-102135893D01*
X123324890Y-102152634D01*
X123352339Y-102175161D01*
X123374866Y-102202610D01*
X123391607Y-102233931D01*
X123401915Y-102267909D01*
X123406000Y-102309390D01*
X123406000Y-102910610D01*
X123401915Y-102952091D01*
X123391607Y-102986069D01*
X123374866Y-103017390D01*
X123352339Y-103044839D01*
X123324890Y-103067366D01*
X123293569Y-103084107D01*
X123259591Y-103094415D01*
X123218110Y-103098500D01*
X122541890Y-103098500D01*
X122500409Y-103094415D01*
X122466431Y-103084107D01*
X122435110Y-103067366D01*
X122407661Y-103044839D01*
X122385134Y-103017390D01*
X122368393Y-102986069D01*
X122358085Y-102952091D01*
X122354000Y-102910610D01*
X122354000Y-102309390D01*
X122358085Y-102267909D01*
X122368393Y-102233931D01*
X122385134Y-102202610D01*
X122407661Y-102175161D01*
X122435110Y-102152634D01*
X122466431Y-102135893D01*
X122500409Y-102125585D01*
X122541890Y-102121500D01*
X123218110Y-102121500D01*
X123259591Y-102125585D01*
X123259591Y-102125585D01*
G37*
G36*
X121679591Y-102120585D02*
G01*
X121713569Y-102130893D01*
X121744890Y-102147634D01*
X121772339Y-102170161D01*
X121794866Y-102197610D01*
X121811607Y-102228931D01*
X121821915Y-102262909D01*
X121826000Y-102304390D01*
X121826000Y-102905610D01*
X121821915Y-102947091D01*
X121811607Y-102981069D01*
X121794866Y-103012390D01*
X121772339Y-103039839D01*
X121744890Y-103062366D01*
X121713569Y-103079107D01*
X121679591Y-103089415D01*
X121638110Y-103093500D01*
X120961890Y-103093500D01*
X120920409Y-103089415D01*
X120886431Y-103079107D01*
X120855110Y-103062366D01*
X120827661Y-103039839D01*
X120805134Y-103012390D01*
X120788393Y-102981069D01*
X120778085Y-102947091D01*
X120774000Y-102905610D01*
X120774000Y-102304390D01*
X120778085Y-102262909D01*
X120788393Y-102228931D01*
X120805134Y-102197610D01*
X120827661Y-102170161D01*
X120855110Y-102147634D01*
X120886431Y-102130893D01*
X120920409Y-102120585D01*
X120961890Y-102116500D01*
X121638110Y-102116500D01*
X121679591Y-102120585D01*
X121679591Y-102120585D01*
G37*
G36*
X116977091Y-101798085D02*
G01*
X117011069Y-101808393D01*
X117042390Y-101825134D01*
X117069839Y-101847661D01*
X117092366Y-101875110D01*
X117109107Y-101906431D01*
X117119415Y-101940409D01*
X117123500Y-101981890D01*
X117123500Y-102658110D01*
X117119415Y-102699591D01*
X117109107Y-102733569D01*
X117092366Y-102764890D01*
X117069839Y-102792339D01*
X117042390Y-102814866D01*
X117011069Y-102831607D01*
X116977091Y-102841915D01*
X116935610Y-102846000D01*
X116334390Y-102846000D01*
X116292909Y-102841915D01*
X116258931Y-102831607D01*
X116227610Y-102814866D01*
X116200161Y-102792339D01*
X116177634Y-102764890D01*
X116160893Y-102733569D01*
X116150585Y-102699591D01*
X116146500Y-102658110D01*
X116146500Y-101981890D01*
X116150585Y-101940409D01*
X116160893Y-101906431D01*
X116177634Y-101875110D01*
X116200161Y-101847661D01*
X116227610Y-101825134D01*
X116258931Y-101808393D01*
X116292909Y-101798085D01*
X116334390Y-101794000D01*
X116935610Y-101794000D01*
X116977091Y-101798085D01*
X116977091Y-101798085D01*
G37*
G36*
X118552091Y-101798085D02*
G01*
X118586069Y-101808393D01*
X118617390Y-101825134D01*
X118644839Y-101847661D01*
X118667366Y-101875110D01*
X118684107Y-101906431D01*
X118694415Y-101940409D01*
X118698500Y-101981890D01*
X118698500Y-102658110D01*
X118694415Y-102699591D01*
X118684107Y-102733569D01*
X118667366Y-102764890D01*
X118644839Y-102792339D01*
X118617390Y-102814866D01*
X118586069Y-102831607D01*
X118552091Y-102841915D01*
X118510610Y-102846000D01*
X117909390Y-102846000D01*
X117867909Y-102841915D01*
X117833931Y-102831607D01*
X117802610Y-102814866D01*
X117775161Y-102792339D01*
X117752634Y-102764890D01*
X117735893Y-102733569D01*
X117725585Y-102699591D01*
X117721500Y-102658110D01*
X117721500Y-101981890D01*
X117725585Y-101940409D01*
X117735893Y-101906431D01*
X117752634Y-101875110D01*
X117775161Y-101847661D01*
X117802610Y-101825134D01*
X117833931Y-101808393D01*
X117867909Y-101798085D01*
X117909390Y-101794000D01*
X118510610Y-101794000D01*
X118552091Y-101798085D01*
X118552091Y-101798085D01*
G37*
G36*
X125669591Y-101860585D02*
G01*
X125703569Y-101870893D01*
X125734890Y-101887634D01*
X125762339Y-101910161D01*
X125784866Y-101937610D01*
X125801607Y-101968931D01*
X125811915Y-102002909D01*
X125816000Y-102044390D01*
X125816000Y-102645610D01*
X125811915Y-102687091D01*
X125801607Y-102721069D01*
X125784866Y-102752390D01*
X125762339Y-102779839D01*
X125734890Y-102802366D01*
X125703569Y-102819107D01*
X125669591Y-102829415D01*
X125628110Y-102833500D01*
X124951890Y-102833500D01*
X124910409Y-102829415D01*
X124876431Y-102819107D01*
X124845110Y-102802366D01*
X124817661Y-102779839D01*
X124795134Y-102752390D01*
X124778393Y-102721069D01*
X124768085Y-102687091D01*
X124764000Y-102645610D01*
X124764000Y-102044390D01*
X124768085Y-102002909D01*
X124778393Y-101968931D01*
X124795134Y-101937610D01*
X124817661Y-101910161D01*
X124845110Y-101887634D01*
X124876431Y-101870893D01*
X124910409Y-101860585D01*
X124951890Y-101856500D01*
X125628110Y-101856500D01*
X125669591Y-101860585D01*
X125669591Y-101860585D01*
G37*
G36*
X133389591Y-101210585D02*
G01*
X133423569Y-101220893D01*
X133454890Y-101237634D01*
X133482339Y-101260161D01*
X133504866Y-101287610D01*
X133521607Y-101318931D01*
X133531915Y-101352909D01*
X133536000Y-101394390D01*
X133536000Y-101995610D01*
X133531915Y-102037091D01*
X133521607Y-102071069D01*
X133504866Y-102102390D01*
X133482339Y-102129839D01*
X133454890Y-102152366D01*
X133423569Y-102169107D01*
X133389591Y-102179415D01*
X133348110Y-102183500D01*
X132671890Y-102183500D01*
X132630409Y-102179415D01*
X132596431Y-102169107D01*
X132565110Y-102152366D01*
X132537661Y-102129839D01*
X132515134Y-102102390D01*
X132498393Y-102071069D01*
X132488085Y-102037091D01*
X132484000Y-101995610D01*
X132484000Y-101394390D01*
X132488085Y-101352909D01*
X132498393Y-101318931D01*
X132515134Y-101287610D01*
X132537661Y-101260161D01*
X132565110Y-101237634D01*
X132596431Y-101220893D01*
X132630409Y-101210585D01*
X132671890Y-101206500D01*
X133348110Y-101206500D01*
X133389591Y-101210585D01*
X133389591Y-101210585D01*
G37*
G36*
X120119591Y-100550585D02*
G01*
X120153569Y-100560893D01*
X120184890Y-100577634D01*
X120212339Y-100600161D01*
X120234866Y-100627610D01*
X120251607Y-100658931D01*
X120261915Y-100692909D01*
X120266000Y-100734390D01*
X120266000Y-101335610D01*
X120261915Y-101377091D01*
X120251607Y-101411069D01*
X120234866Y-101442390D01*
X120212339Y-101469839D01*
X120184890Y-101492366D01*
X120153569Y-101509107D01*
X120119591Y-101519415D01*
X120078110Y-101523500D01*
X119401890Y-101523500D01*
X119360409Y-101519415D01*
X119326431Y-101509107D01*
X119295110Y-101492366D01*
X119267661Y-101469839D01*
X119245134Y-101442390D01*
X119228393Y-101411069D01*
X119218085Y-101377091D01*
X119214000Y-101335610D01*
X119214000Y-100734390D01*
X119218085Y-100692909D01*
X119228393Y-100658931D01*
X119245134Y-100627610D01*
X119267661Y-100600161D01*
X119295110Y-100577634D01*
X119326431Y-100560893D01*
X119360409Y-100550585D01*
X119401890Y-100546500D01*
X120078110Y-100546500D01*
X120119591Y-100550585D01*
X120119591Y-100550585D01*
G37*
G36*
X123259591Y-100550585D02*
G01*
X123293569Y-100560893D01*
X123324890Y-100577634D01*
X123352339Y-100600161D01*
X123374866Y-100627610D01*
X123391607Y-100658931D01*
X123401915Y-100692909D01*
X123406000Y-100734390D01*
X123406000Y-101335610D01*
X123401915Y-101377091D01*
X123391607Y-101411069D01*
X123374866Y-101442390D01*
X123352339Y-101469839D01*
X123324890Y-101492366D01*
X123293569Y-101509107D01*
X123259591Y-101519415D01*
X123218110Y-101523500D01*
X122541890Y-101523500D01*
X122500409Y-101519415D01*
X122466431Y-101509107D01*
X122435110Y-101492366D01*
X122407661Y-101469839D01*
X122385134Y-101442390D01*
X122368393Y-101411069D01*
X122358085Y-101377091D01*
X122354000Y-101335610D01*
X122354000Y-100734390D01*
X122358085Y-100692909D01*
X122368393Y-100658931D01*
X122385134Y-100627610D01*
X122407661Y-100600161D01*
X122435110Y-100577634D01*
X122466431Y-100560893D01*
X122500409Y-100550585D01*
X122541890Y-100546500D01*
X123218110Y-100546500D01*
X123259591Y-100550585D01*
X123259591Y-100550585D01*
G37*
G36*
X121679591Y-100545585D02*
G01*
X121713569Y-100555893D01*
X121744890Y-100572634D01*
X121772339Y-100595161D01*
X121794866Y-100622610D01*
X121811607Y-100653931D01*
X121821915Y-100687909D01*
X121826000Y-100729390D01*
X121826000Y-101330610D01*
X121821915Y-101372091D01*
X121811607Y-101406069D01*
X121794866Y-101437390D01*
X121772339Y-101464839D01*
X121744890Y-101487366D01*
X121713569Y-101504107D01*
X121679591Y-101514415D01*
X121638110Y-101518500D01*
X120961890Y-101518500D01*
X120920409Y-101514415D01*
X120886431Y-101504107D01*
X120855110Y-101487366D01*
X120827661Y-101464839D01*
X120805134Y-101437390D01*
X120788393Y-101406069D01*
X120778085Y-101372091D01*
X120774000Y-101330610D01*
X120774000Y-100729390D01*
X120778085Y-100687909D01*
X120788393Y-100653931D01*
X120805134Y-100622610D01*
X120827661Y-100595161D01*
X120855110Y-100572634D01*
X120886431Y-100555893D01*
X120920409Y-100545585D01*
X120961890Y-100541500D01*
X121638110Y-100541500D01*
X121679591Y-100545585D01*
X121679591Y-100545585D01*
G37*
G36*
X118557091Y-100228085D02*
G01*
X118591069Y-100238393D01*
X118622390Y-100255134D01*
X118649839Y-100277661D01*
X118672366Y-100305110D01*
X118689107Y-100336431D01*
X118699415Y-100370409D01*
X118703500Y-100411890D01*
X118703500Y-101088110D01*
X118699415Y-101129591D01*
X118689107Y-101163569D01*
X118672366Y-101194890D01*
X118649839Y-101222339D01*
X118622390Y-101244866D01*
X118591069Y-101261607D01*
X118557091Y-101271915D01*
X118515610Y-101276000D01*
X117914390Y-101276000D01*
X117872909Y-101271915D01*
X117838931Y-101261607D01*
X117807610Y-101244866D01*
X117780161Y-101222339D01*
X117757634Y-101194890D01*
X117740893Y-101163569D01*
X117730585Y-101129591D01*
X117726500Y-101088110D01*
X117726500Y-100411890D01*
X117730585Y-100370409D01*
X117740893Y-100336431D01*
X117757634Y-100305110D01*
X117780161Y-100277661D01*
X117807610Y-100255134D01*
X117838931Y-100238393D01*
X117872909Y-100228085D01*
X117914390Y-100224000D01*
X118515610Y-100224000D01*
X118557091Y-100228085D01*
X118557091Y-100228085D01*
G37*
G36*
X116982091Y-100228085D02*
G01*
X117016069Y-100238393D01*
X117047390Y-100255134D01*
X117074839Y-100277661D01*
X117097366Y-100305110D01*
X117114107Y-100336431D01*
X117124415Y-100370409D01*
X117128500Y-100411890D01*
X117128500Y-101088110D01*
X117124415Y-101129591D01*
X117114107Y-101163569D01*
X117097366Y-101194890D01*
X117074839Y-101222339D01*
X117047390Y-101244866D01*
X117016069Y-101261607D01*
X116982091Y-101271915D01*
X116940610Y-101276000D01*
X116339390Y-101276000D01*
X116297909Y-101271915D01*
X116263931Y-101261607D01*
X116232610Y-101244866D01*
X116205161Y-101222339D01*
X116182634Y-101194890D01*
X116165893Y-101163569D01*
X116155585Y-101129591D01*
X116151500Y-101088110D01*
X116151500Y-100411890D01*
X116155585Y-100370409D01*
X116165893Y-100336431D01*
X116182634Y-100305110D01*
X116205161Y-100277661D01*
X116232610Y-100255134D01*
X116263931Y-100238393D01*
X116297909Y-100228085D01*
X116339390Y-100224000D01*
X116940610Y-100224000D01*
X116982091Y-100228085D01*
X116982091Y-100228085D01*
G37*
G36*
X125669591Y-100285585D02*
G01*
X125703569Y-100295893D01*
X125734890Y-100312634D01*
X125762339Y-100335161D01*
X125784866Y-100362610D01*
X125801607Y-100393931D01*
X125811915Y-100427909D01*
X125816000Y-100469390D01*
X125816000Y-101070610D01*
X125811915Y-101112091D01*
X125801607Y-101146069D01*
X125784866Y-101177390D01*
X125762339Y-101204839D01*
X125734890Y-101227366D01*
X125703569Y-101244107D01*
X125669591Y-101254415D01*
X125628110Y-101258500D01*
X124951890Y-101258500D01*
X124910409Y-101254415D01*
X124876431Y-101244107D01*
X124845110Y-101227366D01*
X124817661Y-101204839D01*
X124795134Y-101177390D01*
X124778393Y-101146069D01*
X124768085Y-101112091D01*
X124764000Y-101070610D01*
X124764000Y-100469390D01*
X124768085Y-100427909D01*
X124778393Y-100393931D01*
X124795134Y-100362610D01*
X124817661Y-100335161D01*
X124845110Y-100312634D01*
X124876431Y-100295893D01*
X124910409Y-100285585D01*
X124951890Y-100281500D01*
X125628110Y-100281500D01*
X125669591Y-100285585D01*
X125669591Y-100285585D01*
G37*
G36*
X136816242Y-99473404D02*
G01*
X136853337Y-99484657D01*
X136887515Y-99502925D01*
X136917481Y-99527519D01*
X136942075Y-99557485D01*
X136960343Y-99591663D01*
X136971596Y-99628758D01*
X136976000Y-99673474D01*
X136976000Y-100566526D01*
X136971596Y-100611242D01*
X136960343Y-100648337D01*
X136942075Y-100682515D01*
X136917481Y-100712481D01*
X136887515Y-100737075D01*
X136853337Y-100755343D01*
X136816242Y-100766596D01*
X136771526Y-100771000D01*
X135328474Y-100771000D01*
X135283758Y-100766596D01*
X135246663Y-100755343D01*
X135212485Y-100737075D01*
X135182519Y-100712481D01*
X135157925Y-100682515D01*
X135139657Y-100648337D01*
X135128404Y-100611242D01*
X135124000Y-100566526D01*
X135124000Y-99673474D01*
X135128404Y-99628758D01*
X135139657Y-99591663D01*
X135157925Y-99557485D01*
X135182519Y-99527519D01*
X135212485Y-99502925D01*
X135246663Y-99484657D01*
X135283758Y-99473404D01*
X135328474Y-99469000D01*
X136771526Y-99469000D01*
X136816242Y-99473404D01*
X136816242Y-99473404D01*
G37*
G36*
X131832091Y-99598085D02*
G01*
X131866069Y-99608393D01*
X131897390Y-99625134D01*
X131924839Y-99647661D01*
X131947366Y-99675110D01*
X131964107Y-99706431D01*
X131974415Y-99740409D01*
X131978500Y-99781890D01*
X131978500Y-100458110D01*
X131974415Y-100499591D01*
X131964107Y-100533569D01*
X131947366Y-100564890D01*
X131924839Y-100592339D01*
X131897390Y-100614866D01*
X131866069Y-100631607D01*
X131832091Y-100641915D01*
X131790610Y-100646000D01*
X131189390Y-100646000D01*
X131147909Y-100641915D01*
X131113931Y-100631607D01*
X131082610Y-100614866D01*
X131055161Y-100592339D01*
X131032634Y-100564890D01*
X131015893Y-100533569D01*
X131005585Y-100499591D01*
X131001500Y-100458110D01*
X131001500Y-99781890D01*
X131005585Y-99740409D01*
X131015893Y-99706431D01*
X131032634Y-99675110D01*
X131055161Y-99647661D01*
X131082610Y-99625134D01*
X131113931Y-99608393D01*
X131147909Y-99598085D01*
X131189390Y-99594000D01*
X131790610Y-99594000D01*
X131832091Y-99598085D01*
X131832091Y-99598085D01*
G37*
G36*
X130257091Y-99598085D02*
G01*
X130291069Y-99608393D01*
X130322390Y-99625134D01*
X130349839Y-99647661D01*
X130372366Y-99675110D01*
X130389107Y-99706431D01*
X130399415Y-99740409D01*
X130403500Y-99781890D01*
X130403500Y-100458110D01*
X130399415Y-100499591D01*
X130389107Y-100533569D01*
X130372366Y-100564890D01*
X130349839Y-100592339D01*
X130322390Y-100614866D01*
X130291069Y-100631607D01*
X130257091Y-100641915D01*
X130215610Y-100646000D01*
X129614390Y-100646000D01*
X129572909Y-100641915D01*
X129538931Y-100631607D01*
X129507610Y-100614866D01*
X129480161Y-100592339D01*
X129457634Y-100564890D01*
X129440893Y-100533569D01*
X129430585Y-100499591D01*
X129426500Y-100458110D01*
X129426500Y-99781890D01*
X129430585Y-99740409D01*
X129440893Y-99706431D01*
X129457634Y-99675110D01*
X129480161Y-99647661D01*
X129507610Y-99625134D01*
X129538931Y-99608393D01*
X129572909Y-99598085D01*
X129614390Y-99594000D01*
X130215610Y-99594000D01*
X130257091Y-99598085D01*
X130257091Y-99598085D01*
G37*
G36*
X111641000Y-100631000D02*
G01*
X108039000Y-100631000D01*
X108039000Y-99029000D01*
X111641000Y-99029000D01*
X111641000Y-100631000D01*
X111641000Y-100631000D01*
G37*
G36*
X133389591Y-99635585D02*
G01*
X133423569Y-99645893D01*
X133454890Y-99662634D01*
X133482339Y-99685161D01*
X133504866Y-99712610D01*
X133521607Y-99743931D01*
X133531915Y-99777909D01*
X133536000Y-99819390D01*
X133536000Y-100420610D01*
X133531915Y-100462091D01*
X133521607Y-100496069D01*
X133504866Y-100527390D01*
X133482339Y-100554839D01*
X133454890Y-100577366D01*
X133423569Y-100594107D01*
X133389591Y-100604415D01*
X133348110Y-100608500D01*
X132671890Y-100608500D01*
X132630409Y-100604415D01*
X132596431Y-100594107D01*
X132565110Y-100577366D01*
X132537661Y-100554839D01*
X132515134Y-100527390D01*
X132498393Y-100496069D01*
X132488085Y-100462091D01*
X132484000Y-100420610D01*
X132484000Y-99819390D01*
X132488085Y-99777909D01*
X132498393Y-99743931D01*
X132515134Y-99712610D01*
X132537661Y-99685161D01*
X132565110Y-99662634D01*
X132596431Y-99645893D01*
X132630409Y-99635585D01*
X132671890Y-99631500D01*
X133348110Y-99631500D01*
X133389591Y-99635585D01*
X133389591Y-99635585D01*
G37*
G36*
X125496000Y-94809001D02*
G01*
X125498402Y-94833387D01*
X125505515Y-94856836D01*
X125517066Y-94878447D01*
X125532611Y-94897389D01*
X125551553Y-94912934D01*
X125573164Y-94924485D01*
X125596613Y-94931598D01*
X125620999Y-94934000D01*
X126461200Y-94934000D01*
X126461200Y-98846000D01*
X125620999Y-98846000D01*
X125596613Y-98848402D01*
X125573164Y-98855515D01*
X125551553Y-98867066D01*
X125532611Y-98882611D01*
X125517066Y-98901553D01*
X125505515Y-98923164D01*
X125498402Y-98946613D01*
X125496000Y-98970999D01*
X125496000Y-99811200D01*
X121584000Y-99811200D01*
X121584000Y-98970999D01*
X121581598Y-98946613D01*
X121574485Y-98923164D01*
X121562934Y-98901553D01*
X121547389Y-98882611D01*
X121528447Y-98867066D01*
X121506836Y-98855515D01*
X121483387Y-98848402D01*
X121459001Y-98846000D01*
X120618800Y-98846000D01*
X120618800Y-95008599D01*
X121533600Y-95008599D01*
X121533600Y-98771401D01*
X121536002Y-98795787D01*
X121543115Y-98819236D01*
X121554666Y-98840847D01*
X121570211Y-98859789D01*
X121589153Y-98875334D01*
X121610764Y-98886885D01*
X121634213Y-98893998D01*
X121658599Y-98896400D01*
X125421401Y-98896400D01*
X125445787Y-98893998D01*
X125469236Y-98886885D01*
X125490847Y-98875334D01*
X125509789Y-98859789D01*
X125525334Y-98840847D01*
X125536885Y-98819236D01*
X125543998Y-98795787D01*
X125546400Y-98771401D01*
X125546400Y-95008599D01*
X125543998Y-94984213D01*
X125536885Y-94960764D01*
X125525334Y-94939153D01*
X125509789Y-94920211D01*
X125490847Y-94904666D01*
X125469236Y-94893115D01*
X125445787Y-94886002D01*
X125421401Y-94883600D01*
X121658599Y-94883600D01*
X121634213Y-94886002D01*
X121610764Y-94893115D01*
X121589153Y-94904666D01*
X121570211Y-94920211D01*
X121554666Y-94939153D01*
X121543115Y-94960764D01*
X121536002Y-94984213D01*
X121533600Y-95008599D01*
X120618800Y-95008599D01*
X120618800Y-94934000D01*
X121459001Y-94934000D01*
X121483387Y-94931598D01*
X121506836Y-94924485D01*
X121528447Y-94912934D01*
X121547389Y-94897389D01*
X121562934Y-94878447D01*
X121574485Y-94856836D01*
X121581598Y-94833387D01*
X121584000Y-94809001D01*
X121584000Y-93968800D01*
X125496000Y-93968800D01*
X125496000Y-94809001D01*
X125496000Y-94809001D01*
G37*
G36*
X125216600Y-98566600D02*
G01*
X121863400Y-98566600D01*
X121863400Y-95213400D01*
X125216600Y-95213400D01*
X125216600Y-98566600D01*
X125216600Y-98566600D01*
G37*
G36*
X116982091Y-98668085D02*
G01*
X117016069Y-98678393D01*
X117047390Y-98695134D01*
X117074839Y-98717661D01*
X117097366Y-98745110D01*
X117114107Y-98776431D01*
X117124415Y-98810409D01*
X117128500Y-98851890D01*
X117128500Y-99528110D01*
X117124415Y-99569591D01*
X117114107Y-99603569D01*
X117097366Y-99634890D01*
X117074839Y-99662339D01*
X117047390Y-99684866D01*
X117016069Y-99701607D01*
X116982091Y-99711915D01*
X116940610Y-99716000D01*
X116339390Y-99716000D01*
X116297909Y-99711915D01*
X116263931Y-99701607D01*
X116232610Y-99684866D01*
X116205161Y-99662339D01*
X116182634Y-99634890D01*
X116165893Y-99603569D01*
X116155585Y-99569591D01*
X116151500Y-99528110D01*
X116151500Y-98851890D01*
X116155585Y-98810409D01*
X116165893Y-98776431D01*
X116182634Y-98745110D01*
X116205161Y-98717661D01*
X116232610Y-98695134D01*
X116263931Y-98678393D01*
X116297909Y-98668085D01*
X116339390Y-98664000D01*
X116940610Y-98664000D01*
X116982091Y-98668085D01*
X116982091Y-98668085D01*
G37*
G36*
X118557091Y-98668085D02*
G01*
X118591069Y-98678393D01*
X118622390Y-98695134D01*
X118649839Y-98717661D01*
X118672366Y-98745110D01*
X118689107Y-98776431D01*
X118699415Y-98810409D01*
X118703500Y-98851890D01*
X118703500Y-99528110D01*
X118699415Y-99569591D01*
X118689107Y-99603569D01*
X118672366Y-99634890D01*
X118649839Y-99662339D01*
X118622390Y-99684866D01*
X118591069Y-99701607D01*
X118557091Y-99711915D01*
X118515610Y-99716000D01*
X117914390Y-99716000D01*
X117872909Y-99711915D01*
X117838931Y-99701607D01*
X117807610Y-99684866D01*
X117780161Y-99662339D01*
X117757634Y-99634890D01*
X117740893Y-99603569D01*
X117730585Y-99569591D01*
X117726500Y-99528110D01*
X117726500Y-98851890D01*
X117730585Y-98810409D01*
X117740893Y-98776431D01*
X117757634Y-98745110D01*
X117780161Y-98717661D01*
X117807610Y-98695134D01*
X117838931Y-98678393D01*
X117872909Y-98668085D01*
X117914390Y-98664000D01*
X118515610Y-98664000D01*
X118557091Y-98668085D01*
X118557091Y-98668085D01*
G37*
G36*
X136388855Y-97472140D02*
G01*
X136452618Y-97478420D01*
X136529810Y-97501836D01*
X136575336Y-97515646D01*
X136688425Y-97576094D01*
X136787554Y-97657446D01*
X136868906Y-97756575D01*
X136929354Y-97869664D01*
X136929355Y-97869668D01*
X136966580Y-97992382D01*
X136979149Y-98120000D01*
X136966580Y-98247618D01*
X136939163Y-98338000D01*
X136929354Y-98370336D01*
X136868906Y-98483425D01*
X136787554Y-98582554D01*
X136688425Y-98663906D01*
X136575336Y-98724354D01*
X136543404Y-98734040D01*
X136452618Y-98761580D01*
X136388855Y-98767860D01*
X136356974Y-98771000D01*
X135743026Y-98771000D01*
X135711145Y-98767860D01*
X135647382Y-98761580D01*
X135556596Y-98734040D01*
X135524664Y-98724354D01*
X135411575Y-98663906D01*
X135312446Y-98582554D01*
X135231094Y-98483425D01*
X135170646Y-98370336D01*
X135160837Y-98338000D01*
X135133420Y-98247618D01*
X135120851Y-98120000D01*
X135133420Y-97992382D01*
X135170645Y-97869668D01*
X135170646Y-97869664D01*
X135231094Y-97756575D01*
X135312446Y-97657446D01*
X135411575Y-97576094D01*
X135524664Y-97515646D01*
X135570190Y-97501836D01*
X135647382Y-97478420D01*
X135711145Y-97472140D01*
X135743026Y-97469000D01*
X136356974Y-97469000D01*
X136388855Y-97472140D01*
X136388855Y-97472140D01*
G37*
G36*
X119096000Y-95804001D02*
G01*
X119098402Y-95828387D01*
X119105515Y-95851836D01*
X119117066Y-95873447D01*
X119132611Y-95892389D01*
X119151553Y-95907934D01*
X119173164Y-95919485D01*
X119196613Y-95926598D01*
X119220999Y-95929000D01*
X119771000Y-95929000D01*
X119771000Y-97831000D01*
X119220999Y-97831000D01*
X119196613Y-97833402D01*
X119173164Y-97840515D01*
X119151553Y-97852066D01*
X119132611Y-97867611D01*
X119117066Y-97886553D01*
X119105515Y-97908164D01*
X119098402Y-97931613D01*
X119096000Y-97955999D01*
X119096000Y-98181000D01*
X118594000Y-98181000D01*
X118594000Y-97955999D01*
X118591598Y-97931613D01*
X118584485Y-97908164D01*
X118572934Y-97886553D01*
X118557389Y-97867611D01*
X118538447Y-97852066D01*
X118516836Y-97840515D01*
X118493387Y-97833402D01*
X118469001Y-97831000D01*
X117919000Y-97831000D01*
X117919000Y-96305999D01*
X118521000Y-96305999D01*
X118521000Y-97454001D01*
X118523402Y-97478387D01*
X118530515Y-97501836D01*
X118542066Y-97523447D01*
X118557611Y-97542389D01*
X118576553Y-97557934D01*
X118598164Y-97569485D01*
X118621613Y-97576598D01*
X118645999Y-97579000D01*
X119044001Y-97579000D01*
X119068387Y-97576598D01*
X119091836Y-97569485D01*
X119113447Y-97557934D01*
X119132389Y-97542389D01*
X119147934Y-97523447D01*
X119159485Y-97501836D01*
X119166598Y-97478387D01*
X119169000Y-97454001D01*
X119169000Y-96305999D01*
X119166598Y-96281613D01*
X119159485Y-96258164D01*
X119147934Y-96236553D01*
X119132389Y-96217611D01*
X119113447Y-96202066D01*
X119091836Y-96190515D01*
X119068387Y-96183402D01*
X119044001Y-96181000D01*
X118645999Y-96181000D01*
X118621613Y-96183402D01*
X118598164Y-96190515D01*
X118576553Y-96202066D01*
X118557611Y-96217611D01*
X118542066Y-96236553D01*
X118530515Y-96258164D01*
X118523402Y-96281613D01*
X118521000Y-96305999D01*
X117919000Y-96305999D01*
X117919000Y-95929000D01*
X118469001Y-95929000D01*
X118493387Y-95926598D01*
X118516836Y-95919485D01*
X118538447Y-95907934D01*
X118557389Y-95892389D01*
X118572934Y-95873447D01*
X118584485Y-95851836D01*
X118591598Y-95828387D01*
X118594000Y-95804001D01*
X118594000Y-95579000D01*
X119096000Y-95579000D01*
X119096000Y-95804001D01*
X119096000Y-95804001D01*
G37*
G36*
X111641000Y-97931000D02*
G01*
X108039000Y-97931000D01*
X108039000Y-96329000D01*
X111641000Y-96329000D01*
X111641000Y-97931000D01*
X111641000Y-97931000D01*
G37*
G36*
X115617091Y-96608085D02*
G01*
X115651069Y-96618393D01*
X115682390Y-96635134D01*
X115709839Y-96657661D01*
X115732366Y-96685110D01*
X115749107Y-96716431D01*
X115759415Y-96750409D01*
X115763500Y-96791890D01*
X115763500Y-97468110D01*
X115759415Y-97509591D01*
X115749107Y-97543569D01*
X115732366Y-97574890D01*
X115709839Y-97602339D01*
X115682390Y-97624866D01*
X115651069Y-97641607D01*
X115617091Y-97651915D01*
X115575610Y-97656000D01*
X114974390Y-97656000D01*
X114932909Y-97651915D01*
X114898931Y-97641607D01*
X114867610Y-97624866D01*
X114840161Y-97602339D01*
X114817634Y-97574890D01*
X114800893Y-97543569D01*
X114790585Y-97509591D01*
X114786500Y-97468110D01*
X114786500Y-96791890D01*
X114790585Y-96750409D01*
X114800893Y-96716431D01*
X114817634Y-96685110D01*
X114840161Y-96657661D01*
X114867610Y-96635134D01*
X114898931Y-96618393D01*
X114932909Y-96608085D01*
X114974390Y-96604000D01*
X115575610Y-96604000D01*
X115617091Y-96608085D01*
X115617091Y-96608085D01*
G37*
G36*
X117192091Y-96608085D02*
G01*
X117226069Y-96618393D01*
X117257390Y-96635134D01*
X117284839Y-96657661D01*
X117307366Y-96685110D01*
X117324107Y-96716431D01*
X117334415Y-96750409D01*
X117338500Y-96791890D01*
X117338500Y-97468110D01*
X117334415Y-97509591D01*
X117324107Y-97543569D01*
X117307366Y-97574890D01*
X117284839Y-97602339D01*
X117257390Y-97624866D01*
X117226069Y-97641607D01*
X117192091Y-97651915D01*
X117150610Y-97656000D01*
X116549390Y-97656000D01*
X116507909Y-97651915D01*
X116473931Y-97641607D01*
X116442610Y-97624866D01*
X116415161Y-97602339D01*
X116392634Y-97574890D01*
X116375893Y-97543569D01*
X116365585Y-97509591D01*
X116361500Y-97468110D01*
X116361500Y-96791890D01*
X116365585Y-96750409D01*
X116375893Y-96716431D01*
X116392634Y-96685110D01*
X116415161Y-96657661D01*
X116442610Y-96635134D01*
X116473931Y-96618393D01*
X116507909Y-96608085D01*
X116549390Y-96604000D01*
X117150610Y-96604000D01*
X117192091Y-96608085D01*
X117192091Y-96608085D01*
G37*
G36*
X136388855Y-95472140D02*
G01*
X136452618Y-95478420D01*
X136543404Y-95505960D01*
X136575336Y-95515646D01*
X136688425Y-95576094D01*
X136787554Y-95657446D01*
X136868906Y-95756575D01*
X136929354Y-95869664D01*
X136936247Y-95892389D01*
X136966580Y-95992382D01*
X136979149Y-96120000D01*
X136966580Y-96247618D01*
X136948870Y-96305999D01*
X136929354Y-96370336D01*
X136868906Y-96483425D01*
X136787554Y-96582554D01*
X136688425Y-96663906D01*
X136575336Y-96724354D01*
X136543404Y-96734040D01*
X136452618Y-96761580D01*
X136388855Y-96767860D01*
X136356974Y-96771000D01*
X135743026Y-96771000D01*
X135711145Y-96767860D01*
X135647382Y-96761580D01*
X135556596Y-96734040D01*
X135524664Y-96724354D01*
X135411575Y-96663906D01*
X135312446Y-96582554D01*
X135231094Y-96483425D01*
X135170646Y-96370336D01*
X135151130Y-96305999D01*
X135133420Y-96247618D01*
X135120851Y-96120000D01*
X135133420Y-95992382D01*
X135163753Y-95892389D01*
X135170646Y-95869664D01*
X135231094Y-95756575D01*
X135312446Y-95657446D01*
X135411575Y-95576094D01*
X135524664Y-95515646D01*
X135556596Y-95505960D01*
X135647382Y-95478420D01*
X135711145Y-95472140D01*
X135743026Y-95469000D01*
X136356974Y-95469000D01*
X136388855Y-95472140D01*
X136388855Y-95472140D01*
G37*
G36*
X111641000Y-95231000D02*
G01*
X108039000Y-95231000D01*
X108039000Y-93629000D01*
X111641000Y-93629000D01*
X111641000Y-95231000D01*
X111641000Y-95231000D01*
G37*
G36*
X116681591Y-93887085D02*
G01*
X116715569Y-93897393D01*
X116746890Y-93914134D01*
X116774339Y-93936661D01*
X116796866Y-93964110D01*
X116813607Y-93995431D01*
X116823915Y-94029409D01*
X116828000Y-94070890D01*
X116828000Y-94672110D01*
X116823915Y-94713591D01*
X116813607Y-94747569D01*
X116796866Y-94778890D01*
X116774339Y-94806339D01*
X116746890Y-94828866D01*
X116715569Y-94845607D01*
X116681591Y-94855915D01*
X116640110Y-94860000D01*
X115963890Y-94860000D01*
X115922409Y-94855915D01*
X115888431Y-94845607D01*
X115857110Y-94828866D01*
X115829661Y-94806339D01*
X115807134Y-94778890D01*
X115790393Y-94747569D01*
X115780085Y-94713591D01*
X115776000Y-94672110D01*
X115776000Y-94070890D01*
X115780085Y-94029409D01*
X115790393Y-93995431D01*
X115807134Y-93964110D01*
X115829661Y-93936661D01*
X115857110Y-93914134D01*
X115888431Y-93897393D01*
X115922409Y-93887085D01*
X115963890Y-93883000D01*
X116640110Y-93883000D01*
X116681591Y-93887085D01*
X116681591Y-93887085D01*
G37*
G36*
X118211591Y-93887085D02*
G01*
X118245569Y-93897393D01*
X118276890Y-93914134D01*
X118304339Y-93936661D01*
X118326866Y-93964110D01*
X118343607Y-93995431D01*
X118353915Y-94029409D01*
X118358000Y-94070890D01*
X118358000Y-94672110D01*
X118353915Y-94713591D01*
X118343607Y-94747569D01*
X118326866Y-94778890D01*
X118304339Y-94806339D01*
X118276890Y-94828866D01*
X118245569Y-94845607D01*
X118211591Y-94855915D01*
X118170110Y-94860000D01*
X117493890Y-94860000D01*
X117452409Y-94855915D01*
X117418431Y-94845607D01*
X117387110Y-94828866D01*
X117359661Y-94806339D01*
X117337134Y-94778890D01*
X117320393Y-94747569D01*
X117310085Y-94713591D01*
X117306000Y-94672110D01*
X117306000Y-94070890D01*
X117310085Y-94029409D01*
X117320393Y-93995431D01*
X117337134Y-93964110D01*
X117359661Y-93936661D01*
X117387110Y-93914134D01*
X117418431Y-93897393D01*
X117452409Y-93887085D01*
X117493890Y-93883000D01*
X118170110Y-93883000D01*
X118211591Y-93887085D01*
X118211591Y-93887085D01*
G37*
G36*
X136388855Y-93472140D02*
G01*
X136452618Y-93478420D01*
X136543404Y-93505960D01*
X136575336Y-93515646D01*
X136688425Y-93576094D01*
X136787554Y-93657446D01*
X136868906Y-93756575D01*
X136929354Y-93869664D01*
X136934823Y-93887693D01*
X136966580Y-93992382D01*
X136979149Y-94120000D01*
X136966580Y-94247618D01*
X136939040Y-94338404D01*
X136929354Y-94370336D01*
X136868906Y-94483425D01*
X136787554Y-94582554D01*
X136688425Y-94663906D01*
X136575336Y-94724354D01*
X136543404Y-94734040D01*
X136452618Y-94761580D01*
X136388855Y-94767860D01*
X136356974Y-94771000D01*
X135743026Y-94771000D01*
X135711145Y-94767860D01*
X135647382Y-94761580D01*
X135556596Y-94734040D01*
X135524664Y-94724354D01*
X135411575Y-94663906D01*
X135312446Y-94582554D01*
X135231094Y-94483425D01*
X135170646Y-94370336D01*
X135160960Y-94338404D01*
X135133420Y-94247618D01*
X135120851Y-94120000D01*
X135133420Y-93992382D01*
X135165177Y-93887693D01*
X135170646Y-93869664D01*
X135231094Y-93756575D01*
X135312446Y-93657446D01*
X135411575Y-93576094D01*
X135524664Y-93515646D01*
X135556596Y-93505960D01*
X135647382Y-93478420D01*
X135711145Y-93472140D01*
X135743026Y-93469000D01*
X136356974Y-93469000D01*
X136388855Y-93472140D01*
X136388855Y-93472140D01*
G37*
G36*
X118211591Y-92312085D02*
G01*
X118245569Y-92322393D01*
X118276890Y-92339134D01*
X118304339Y-92361661D01*
X118326866Y-92389110D01*
X118343607Y-92420431D01*
X118353915Y-92454409D01*
X118358000Y-92495890D01*
X118358000Y-93097110D01*
X118353915Y-93138591D01*
X118343607Y-93172569D01*
X118326866Y-93203890D01*
X118304339Y-93231339D01*
X118276890Y-93253866D01*
X118245569Y-93270607D01*
X118211591Y-93280915D01*
X118170110Y-93285000D01*
X117493890Y-93285000D01*
X117452409Y-93280915D01*
X117418431Y-93270607D01*
X117387110Y-93253866D01*
X117359661Y-93231339D01*
X117337134Y-93203890D01*
X117320393Y-93172569D01*
X117310085Y-93138591D01*
X117306000Y-93097110D01*
X117306000Y-92495890D01*
X117310085Y-92454409D01*
X117320393Y-92420431D01*
X117337134Y-92389110D01*
X117359661Y-92361661D01*
X117387110Y-92339134D01*
X117418431Y-92322393D01*
X117452409Y-92312085D01*
X117493890Y-92308000D01*
X118170110Y-92308000D01*
X118211591Y-92312085D01*
X118211591Y-92312085D01*
G37*
G36*
X116681591Y-92312085D02*
G01*
X116715569Y-92322393D01*
X116746890Y-92339134D01*
X116774339Y-92361661D01*
X116796866Y-92389110D01*
X116813607Y-92420431D01*
X116823915Y-92454409D01*
X116828000Y-92495890D01*
X116828000Y-93097110D01*
X116823915Y-93138591D01*
X116813607Y-93172569D01*
X116796866Y-93203890D01*
X116774339Y-93231339D01*
X116746890Y-93253866D01*
X116715569Y-93270607D01*
X116681591Y-93280915D01*
X116640110Y-93285000D01*
X115963890Y-93285000D01*
X115922409Y-93280915D01*
X115888431Y-93270607D01*
X115857110Y-93253866D01*
X115829661Y-93231339D01*
X115807134Y-93203890D01*
X115790393Y-93172569D01*
X115780085Y-93138591D01*
X115776000Y-93097110D01*
X115776000Y-92495890D01*
X115780085Y-92454409D01*
X115790393Y-92420431D01*
X115807134Y-92389110D01*
X115829661Y-92361661D01*
X115857110Y-92339134D01*
X115888431Y-92322393D01*
X115922409Y-92312085D01*
X115963890Y-92308000D01*
X116640110Y-92308000D01*
X116681591Y-92312085D01*
X116681591Y-92312085D01*
G37*
G36*
X136388855Y-91472140D02*
G01*
X136452618Y-91478420D01*
X136543404Y-91505960D01*
X136575336Y-91515646D01*
X136688425Y-91576094D01*
X136787554Y-91657446D01*
X136868906Y-91756575D01*
X136929354Y-91869664D01*
X136934601Y-91886961D01*
X136966580Y-91992382D01*
X136979149Y-92120000D01*
X136966580Y-92247618D01*
X136943897Y-92322393D01*
X136929354Y-92370336D01*
X136868906Y-92483425D01*
X136787554Y-92582554D01*
X136688425Y-92663906D01*
X136575336Y-92724354D01*
X136543404Y-92734040D01*
X136452618Y-92761580D01*
X136388855Y-92767860D01*
X136356974Y-92771000D01*
X135743026Y-92771000D01*
X135711145Y-92767860D01*
X135647382Y-92761580D01*
X135556596Y-92734040D01*
X135524664Y-92724354D01*
X135411575Y-92663906D01*
X135312446Y-92582554D01*
X135231094Y-92483425D01*
X135170646Y-92370336D01*
X135156103Y-92322393D01*
X135133420Y-92247618D01*
X135120851Y-92120000D01*
X135133420Y-91992382D01*
X135165399Y-91886961D01*
X135170646Y-91869664D01*
X135231094Y-91756575D01*
X135312446Y-91657446D01*
X135411575Y-91576094D01*
X135524664Y-91515646D01*
X135556596Y-91505960D01*
X135647382Y-91478420D01*
X135711145Y-91472140D01*
X135743026Y-91469000D01*
X136356974Y-91469000D01*
X136388855Y-91472140D01*
X136388855Y-91472140D01*
G37*
G36*
X133409591Y-91640585D02*
G01*
X133443569Y-91650893D01*
X133474890Y-91667634D01*
X133502339Y-91690161D01*
X133524866Y-91717610D01*
X133541607Y-91748931D01*
X133551915Y-91782909D01*
X133556000Y-91824390D01*
X133556000Y-92425610D01*
X133551915Y-92467091D01*
X133541607Y-92501069D01*
X133524866Y-92532390D01*
X133502339Y-92559839D01*
X133474890Y-92582366D01*
X133443569Y-92599107D01*
X133409591Y-92609415D01*
X133368110Y-92613500D01*
X132691890Y-92613500D01*
X132650409Y-92609415D01*
X132616431Y-92599107D01*
X132585110Y-92582366D01*
X132557661Y-92559839D01*
X132535134Y-92532390D01*
X132518393Y-92501069D01*
X132508085Y-92467091D01*
X132504000Y-92425610D01*
X132504000Y-91824390D01*
X132508085Y-91782909D01*
X132518393Y-91748931D01*
X132535134Y-91717610D01*
X132557661Y-91690161D01*
X132585110Y-91667634D01*
X132616431Y-91650893D01*
X132650409Y-91640585D01*
X132691890Y-91636500D01*
X133368110Y-91636500D01*
X133409591Y-91640585D01*
X133409591Y-91640585D01*
G37*
G36*
X128001000Y-92421000D02*
G01*
X126899000Y-92421000D01*
X126899000Y-90519000D01*
X128001000Y-90519000D01*
X128001000Y-92421000D01*
X128001000Y-92421000D01*
G37*
G36*
X130501000Y-92421000D02*
G01*
X129399000Y-92421000D01*
X129399000Y-90519000D01*
X130501000Y-90519000D01*
X130501000Y-92421000D01*
X130501000Y-92421000D01*
G37*
G36*
X131889591Y-90985585D02*
G01*
X131923569Y-90995893D01*
X131954890Y-91012634D01*
X131982339Y-91035161D01*
X132004866Y-91062610D01*
X132021607Y-91093931D01*
X132031915Y-91127909D01*
X132036000Y-91169390D01*
X132036000Y-91770610D01*
X132031915Y-91812091D01*
X132021607Y-91846069D01*
X132004866Y-91877390D01*
X131982339Y-91904839D01*
X131954890Y-91927366D01*
X131923569Y-91944107D01*
X131889591Y-91954415D01*
X131848110Y-91958500D01*
X131171890Y-91958500D01*
X131130409Y-91954415D01*
X131096431Y-91944107D01*
X131065110Y-91927366D01*
X131037661Y-91904839D01*
X131015134Y-91877390D01*
X130998393Y-91846069D01*
X130988085Y-91812091D01*
X130984000Y-91770610D01*
X130984000Y-91169390D01*
X130988085Y-91127909D01*
X130998393Y-91093931D01*
X131015134Y-91062610D01*
X131037661Y-91035161D01*
X131065110Y-91012634D01*
X131096431Y-90995893D01*
X131130409Y-90985585D01*
X131171890Y-90981500D01*
X131848110Y-90981500D01*
X131889591Y-90985585D01*
X131889591Y-90985585D01*
G37*
G36*
X126249591Y-90985585D02*
G01*
X126283569Y-90995893D01*
X126314890Y-91012634D01*
X126342339Y-91035161D01*
X126364866Y-91062610D01*
X126381607Y-91093931D01*
X126391915Y-91127909D01*
X126396000Y-91169390D01*
X126396000Y-91770610D01*
X126391915Y-91812091D01*
X126381607Y-91846069D01*
X126364866Y-91877390D01*
X126342339Y-91904839D01*
X126314890Y-91927366D01*
X126283569Y-91944107D01*
X126249591Y-91954415D01*
X126208110Y-91958500D01*
X125531890Y-91958500D01*
X125490409Y-91954415D01*
X125456431Y-91944107D01*
X125425110Y-91927366D01*
X125397661Y-91904839D01*
X125375134Y-91877390D01*
X125358393Y-91846069D01*
X125348085Y-91812091D01*
X125344000Y-91770610D01*
X125344000Y-91169390D01*
X125348085Y-91127909D01*
X125358393Y-91093931D01*
X125375134Y-91062610D01*
X125397661Y-91035161D01*
X125425110Y-91012634D01*
X125456431Y-90995893D01*
X125490409Y-90985585D01*
X125531890Y-90981500D01*
X126208110Y-90981500D01*
X126249591Y-90985585D01*
X126249591Y-90985585D01*
G37*
G36*
X123117091Y-90908085D02*
G01*
X123151069Y-90918393D01*
X123182390Y-90935134D01*
X123209839Y-90957661D01*
X123232366Y-90985110D01*
X123249107Y-91016431D01*
X123259415Y-91050409D01*
X123263500Y-91091890D01*
X123263500Y-91768110D01*
X123259415Y-91809591D01*
X123249107Y-91843569D01*
X123232366Y-91874890D01*
X123209839Y-91902339D01*
X123182390Y-91924866D01*
X123151069Y-91941607D01*
X123117091Y-91951915D01*
X123075610Y-91956000D01*
X122474390Y-91956000D01*
X122432909Y-91951915D01*
X122398931Y-91941607D01*
X122367610Y-91924866D01*
X122340161Y-91902339D01*
X122317634Y-91874890D01*
X122300893Y-91843569D01*
X122290585Y-91809591D01*
X122286500Y-91768110D01*
X122286500Y-91091890D01*
X122290585Y-91050409D01*
X122300893Y-91016431D01*
X122317634Y-90985110D01*
X122340161Y-90957661D01*
X122367610Y-90935134D01*
X122398931Y-90918393D01*
X122432909Y-90908085D01*
X122474390Y-90904000D01*
X123075610Y-90904000D01*
X123117091Y-90908085D01*
X123117091Y-90908085D01*
G37*
G36*
X124692091Y-90908085D02*
G01*
X124726069Y-90918393D01*
X124757390Y-90935134D01*
X124784839Y-90957661D01*
X124807366Y-90985110D01*
X124824107Y-91016431D01*
X124834415Y-91050409D01*
X124838500Y-91091890D01*
X124838500Y-91768110D01*
X124834415Y-91809591D01*
X124824107Y-91843569D01*
X124807366Y-91874890D01*
X124784839Y-91902339D01*
X124757390Y-91924866D01*
X124726069Y-91941607D01*
X124692091Y-91951915D01*
X124650610Y-91956000D01*
X124049390Y-91956000D01*
X124007909Y-91951915D01*
X123973931Y-91941607D01*
X123942610Y-91924866D01*
X123915161Y-91902339D01*
X123892634Y-91874890D01*
X123875893Y-91843569D01*
X123865585Y-91809591D01*
X123861500Y-91768110D01*
X123861500Y-91091890D01*
X123865585Y-91050409D01*
X123875893Y-91016431D01*
X123892634Y-90985110D01*
X123915161Y-90957661D01*
X123942610Y-90935134D01*
X123973931Y-90918393D01*
X124007909Y-90908085D01*
X124049390Y-90904000D01*
X124650610Y-90904000D01*
X124692091Y-90908085D01*
X124692091Y-90908085D01*
G37*
G36*
X133409591Y-90065585D02*
G01*
X133443569Y-90075893D01*
X133474890Y-90092634D01*
X133502339Y-90115161D01*
X133524866Y-90142610D01*
X133541607Y-90173931D01*
X133551915Y-90207909D01*
X133556000Y-90249390D01*
X133556000Y-90850610D01*
X133551915Y-90892091D01*
X133541607Y-90926069D01*
X133524866Y-90957390D01*
X133502339Y-90984839D01*
X133474890Y-91007366D01*
X133443569Y-91024107D01*
X133409591Y-91034415D01*
X133368110Y-91038500D01*
X132691890Y-91038500D01*
X132650409Y-91034415D01*
X132616431Y-91024107D01*
X132585110Y-91007366D01*
X132557661Y-90984839D01*
X132535134Y-90957390D01*
X132518393Y-90926069D01*
X132508085Y-90892091D01*
X132504000Y-90850610D01*
X132504000Y-90249390D01*
X132508085Y-90207909D01*
X132518393Y-90173931D01*
X132535134Y-90142610D01*
X132557661Y-90115161D01*
X132585110Y-90092634D01*
X132616431Y-90075893D01*
X132650409Y-90065585D01*
X132691890Y-90061500D01*
X133368110Y-90061500D01*
X133409591Y-90065585D01*
X133409591Y-90065585D01*
G37*
G36*
X123122091Y-89378085D02*
G01*
X123156069Y-89388393D01*
X123187390Y-89405134D01*
X123214839Y-89427661D01*
X123237366Y-89455110D01*
X123254107Y-89486431D01*
X123264415Y-89520409D01*
X123268500Y-89561890D01*
X123268500Y-90238110D01*
X123264415Y-90279591D01*
X123254107Y-90313569D01*
X123237366Y-90344890D01*
X123214839Y-90372339D01*
X123187390Y-90394866D01*
X123156069Y-90411607D01*
X123122091Y-90421915D01*
X123080610Y-90426000D01*
X122479390Y-90426000D01*
X122437909Y-90421915D01*
X122403931Y-90411607D01*
X122372610Y-90394866D01*
X122345161Y-90372339D01*
X122322634Y-90344890D01*
X122305893Y-90313569D01*
X122295585Y-90279591D01*
X122291500Y-90238110D01*
X122291500Y-89561890D01*
X122295585Y-89520409D01*
X122305893Y-89486431D01*
X122322634Y-89455110D01*
X122345161Y-89427661D01*
X122372610Y-89405134D01*
X122403931Y-89388393D01*
X122437909Y-89378085D01*
X122479390Y-89374000D01*
X123080610Y-89374000D01*
X123122091Y-89378085D01*
X123122091Y-89378085D01*
G37*
G36*
X124697091Y-89378085D02*
G01*
X124731069Y-89388393D01*
X124762390Y-89405134D01*
X124789839Y-89427661D01*
X124812366Y-89455110D01*
X124829107Y-89486431D01*
X124839415Y-89520409D01*
X124843500Y-89561890D01*
X124843500Y-90238110D01*
X124839415Y-90279591D01*
X124829107Y-90313569D01*
X124812366Y-90344890D01*
X124789839Y-90372339D01*
X124762390Y-90394866D01*
X124731069Y-90411607D01*
X124697091Y-90421915D01*
X124655610Y-90426000D01*
X124054390Y-90426000D01*
X124012909Y-90421915D01*
X123978931Y-90411607D01*
X123947610Y-90394866D01*
X123920161Y-90372339D01*
X123897634Y-90344890D01*
X123880893Y-90313569D01*
X123870585Y-90279591D01*
X123866500Y-90238110D01*
X123866500Y-89561890D01*
X123870585Y-89520409D01*
X123880893Y-89486431D01*
X123897634Y-89455110D01*
X123920161Y-89427661D01*
X123947610Y-89405134D01*
X123978931Y-89388393D01*
X124012909Y-89378085D01*
X124054390Y-89374000D01*
X124655610Y-89374000D01*
X124697091Y-89378085D01*
X124697091Y-89378085D01*
G37*
G36*
X131889591Y-89410585D02*
G01*
X131923569Y-89420893D01*
X131954890Y-89437634D01*
X131982339Y-89460161D01*
X132004866Y-89487610D01*
X132021607Y-89518931D01*
X132031915Y-89552909D01*
X132036000Y-89594390D01*
X132036000Y-90195610D01*
X132031915Y-90237091D01*
X132021607Y-90271069D01*
X132004866Y-90302390D01*
X131982339Y-90329839D01*
X131954890Y-90352366D01*
X131923569Y-90369107D01*
X131889591Y-90379415D01*
X131848110Y-90383500D01*
X131171890Y-90383500D01*
X131130409Y-90379415D01*
X131096431Y-90369107D01*
X131065110Y-90352366D01*
X131037661Y-90329839D01*
X131015134Y-90302390D01*
X130998393Y-90271069D01*
X130988085Y-90237091D01*
X130984000Y-90195610D01*
X130984000Y-89594390D01*
X130988085Y-89552909D01*
X130998393Y-89518931D01*
X131015134Y-89487610D01*
X131037661Y-89460161D01*
X131065110Y-89437634D01*
X131096431Y-89420893D01*
X131130409Y-89410585D01*
X131171890Y-89406500D01*
X131848110Y-89406500D01*
X131889591Y-89410585D01*
X131889591Y-89410585D01*
G37*
G36*
X126249591Y-89410585D02*
G01*
X126283569Y-89420893D01*
X126314890Y-89437634D01*
X126342339Y-89460161D01*
X126364866Y-89487610D01*
X126381607Y-89518931D01*
X126391915Y-89552909D01*
X126396000Y-89594390D01*
X126396000Y-90195610D01*
X126391915Y-90237091D01*
X126381607Y-90271069D01*
X126364866Y-90302390D01*
X126342339Y-90329839D01*
X126314890Y-90352366D01*
X126283569Y-90369107D01*
X126249591Y-90379415D01*
X126208110Y-90383500D01*
X125531890Y-90383500D01*
X125490409Y-90379415D01*
X125456431Y-90369107D01*
X125425110Y-90352366D01*
X125397661Y-90329839D01*
X125375134Y-90302390D01*
X125358393Y-90271069D01*
X125348085Y-90237091D01*
X125344000Y-90195610D01*
X125344000Y-89594390D01*
X125348085Y-89552909D01*
X125358393Y-89518931D01*
X125375134Y-89487610D01*
X125397661Y-89460161D01*
X125425110Y-89437634D01*
X125456431Y-89420893D01*
X125490409Y-89410585D01*
X125531890Y-89406500D01*
X126208110Y-89406500D01*
X126249591Y-89410585D01*
X126249591Y-89410585D01*
G37*
G36*
X124692091Y-87858085D02*
G01*
X124726069Y-87868393D01*
X124757390Y-87885134D01*
X124784839Y-87907661D01*
X124807366Y-87935110D01*
X124824107Y-87966431D01*
X124834415Y-88000409D01*
X124838500Y-88041890D01*
X124838500Y-88718110D01*
X124834415Y-88759591D01*
X124824107Y-88793569D01*
X124807366Y-88824890D01*
X124784839Y-88852339D01*
X124757390Y-88874866D01*
X124726069Y-88891607D01*
X124692091Y-88901915D01*
X124650610Y-88906000D01*
X124049390Y-88906000D01*
X124007909Y-88901915D01*
X123973931Y-88891607D01*
X123942610Y-88874866D01*
X123915161Y-88852339D01*
X123892634Y-88824890D01*
X123875893Y-88793569D01*
X123865585Y-88759591D01*
X123861500Y-88718110D01*
X123861500Y-88041890D01*
X123865585Y-88000409D01*
X123875893Y-87966431D01*
X123892634Y-87935110D01*
X123915161Y-87907661D01*
X123942610Y-87885134D01*
X123973931Y-87868393D01*
X124007909Y-87858085D01*
X124049390Y-87854000D01*
X124650610Y-87854000D01*
X124692091Y-87858085D01*
X124692091Y-87858085D01*
G37*
G36*
X123117091Y-87858085D02*
G01*
X123151069Y-87868393D01*
X123182390Y-87885134D01*
X123209839Y-87907661D01*
X123232366Y-87935110D01*
X123249107Y-87966431D01*
X123259415Y-88000409D01*
X123263500Y-88041890D01*
X123263500Y-88718110D01*
X123259415Y-88759591D01*
X123249107Y-88793569D01*
X123232366Y-88824890D01*
X123209839Y-88852339D01*
X123182390Y-88874866D01*
X123151069Y-88891607D01*
X123117091Y-88901915D01*
X123075610Y-88906000D01*
X122474390Y-88906000D01*
X122432909Y-88901915D01*
X122398931Y-88891607D01*
X122367610Y-88874866D01*
X122340161Y-88852339D01*
X122317634Y-88824890D01*
X122300893Y-88793569D01*
X122290585Y-88759591D01*
X122286500Y-88718110D01*
X122286500Y-88041890D01*
X122290585Y-88000409D01*
X122300893Y-87966431D01*
X122317634Y-87935110D01*
X122340161Y-87907661D01*
X122367610Y-87885134D01*
X122398931Y-87868393D01*
X122432909Y-87858085D01*
X122474390Y-87854000D01*
X123075610Y-87854000D01*
X123117091Y-87858085D01*
X123117091Y-87858085D01*
G37*
G36*
X138634239Y-80811467D02*
G01*
X138948282Y-80873934D01*
X139539926Y-81119001D01*
X140072392Y-81474784D01*
X140525216Y-81927608D01*
X140880999Y-82460074D01*
X141126066Y-83051718D01*
X141126066Y-83051719D01*
X141251000Y-83679803D01*
X141251000Y-84320197D01*
X141218466Y-84483758D01*
X141126066Y-84948282D01*
X140880999Y-85539926D01*
X140648139Y-85888425D01*
X140527546Y-86068906D01*
X140525216Y-86072392D01*
X140072392Y-86525216D01*
X139539926Y-86880999D01*
X138948282Y-87126066D01*
X138634239Y-87188533D01*
X138320197Y-87251000D01*
X137679803Y-87251000D01*
X137365761Y-87188533D01*
X137051718Y-87126066D01*
X136460074Y-86880999D01*
X135927608Y-86525216D01*
X135474784Y-86072392D01*
X135472455Y-86068906D01*
X135351861Y-85888425D01*
X135119001Y-85539926D01*
X134873934Y-84948282D01*
X134781534Y-84483758D01*
X134749000Y-84320197D01*
X134749000Y-83679803D01*
X134873934Y-83051719D01*
X134873934Y-83051718D01*
X135119001Y-82460074D01*
X135474784Y-81927608D01*
X135927608Y-81474784D01*
X136460074Y-81119001D01*
X137051718Y-80873934D01*
X137365761Y-80811467D01*
X137679803Y-80749000D01*
X138320197Y-80749000D01*
X138634239Y-80811467D01*
X138634239Y-80811467D01*
G37*
G36*
X112384239Y-80811467D02*
G01*
X112698282Y-80873934D01*
X113289926Y-81119001D01*
X113822392Y-81474784D01*
X114275216Y-81927608D01*
X114630999Y-82460074D01*
X114876066Y-83051718D01*
X114876066Y-83051719D01*
X115001000Y-83679803D01*
X115001000Y-84320197D01*
X114968466Y-84483758D01*
X114876066Y-84948282D01*
X114630999Y-85539926D01*
X114398139Y-85888425D01*
X114277546Y-86068906D01*
X114275216Y-86072392D01*
X113822392Y-86525216D01*
X113289926Y-86880999D01*
X112698282Y-87126066D01*
X112384239Y-87188533D01*
X112070197Y-87251000D01*
X111429803Y-87251000D01*
X111115761Y-87188533D01*
X110801718Y-87126066D01*
X110210074Y-86880999D01*
X109677608Y-86525216D01*
X109224784Y-86072392D01*
X109222455Y-86068906D01*
X109101861Y-85888425D01*
X108869001Y-85539926D01*
X108623934Y-84948282D01*
X108531534Y-84483758D01*
X108499000Y-84320197D01*
X108499000Y-83679803D01*
X108623934Y-83051719D01*
X108623934Y-83051718D01*
X108869001Y-82460074D01*
X109224784Y-81927608D01*
X109677608Y-81474784D01*
X110210074Y-81119001D01*
X110801718Y-80873934D01*
X111115761Y-80811467D01*
X111429803Y-80749000D01*
X112070197Y-80749000D01*
X112384239Y-80811467D01*
X112384239Y-80811467D01*
G37*
G36*
X119327618Y-84333420D02*
G01*
X119408400Y-84357925D01*
X119450336Y-84370646D01*
X119563425Y-84431094D01*
X119662554Y-84512446D01*
X119743906Y-84611575D01*
X119804354Y-84724664D01*
X119804355Y-84724668D01*
X119841580Y-84847382D01*
X119851000Y-84943027D01*
X119851000Y-85556973D01*
X119841580Y-85652618D01*
X119814625Y-85741476D01*
X119804354Y-85775336D01*
X119743906Y-85888425D01*
X119662554Y-85987553D01*
X119563424Y-86068906D01*
X119450335Y-86129354D01*
X119418403Y-86139040D01*
X119327617Y-86166580D01*
X119200000Y-86179149D01*
X119072382Y-86166580D01*
X118981596Y-86139040D01*
X118949664Y-86129354D01*
X118836575Y-86068906D01*
X118737447Y-85987554D01*
X118656094Y-85888424D01*
X118595646Y-85775335D01*
X118558426Y-85652636D01*
X118558420Y-85652617D01*
X118549000Y-85556972D01*
X118549000Y-84943027D01*
X118558420Y-84847382D01*
X118595645Y-84724668D01*
X118595645Y-84724667D01*
X118627957Y-84664217D01*
X118656095Y-84611574D01*
X118669493Y-84595249D01*
X118737447Y-84512446D01*
X118836576Y-84431094D01*
X118949665Y-84370646D01*
X118991601Y-84357925D01*
X119072383Y-84333420D01*
X119200000Y-84320851D01*
X119327618Y-84333420D01*
X119327618Y-84333420D01*
G37*
G36*
X121691242Y-84328404D02*
G01*
X121728337Y-84339657D01*
X121762515Y-84357925D01*
X121792481Y-84382519D01*
X121817075Y-84412485D01*
X121835343Y-84446663D01*
X121846596Y-84483758D01*
X121851000Y-84528474D01*
X121851000Y-85971526D01*
X121846596Y-86016242D01*
X121835343Y-86053337D01*
X121817075Y-86087515D01*
X121792481Y-86117481D01*
X121762515Y-86142075D01*
X121728337Y-86160343D01*
X121691242Y-86171596D01*
X121646526Y-86176000D01*
X120753474Y-86176000D01*
X120708758Y-86171596D01*
X120671663Y-86160343D01*
X120637485Y-86142075D01*
X120607519Y-86117481D01*
X120582925Y-86087515D01*
X120564657Y-86053337D01*
X120553404Y-86016242D01*
X120549000Y-85971526D01*
X120549000Y-84528474D01*
X120553404Y-84483758D01*
X120564657Y-84446663D01*
X120582925Y-84412485D01*
X120607519Y-84382519D01*
X120637485Y-84357925D01*
X120671663Y-84339657D01*
X120708758Y-84328404D01*
X120753474Y-84324000D01*
X121646526Y-84324000D01*
X121691242Y-84328404D01*
X121691242Y-84328404D01*
G37*
M02*
