G04 #@! TF.GenerationSoftware,KiCad,Pcbnew,(5.1.4)-1*
G04 #@! TF.CreationDate,2022-02-20T14:50:57-05:00*
G04 #@! TF.ProjectId,Telemetry PCB,54656c65-6d65-4747-9279-205043422e6b,rev?*
G04 #@! TF.SameCoordinates,Original*
G04 #@! TF.FileFunction,Paste,Bot*
G04 #@! TF.FilePolarity,Positive*
%FSLAX46Y46*%
G04 Gerber Fmt 4.6, Leading zero omitted, Abs format (unit mm)*
G04 Created by KiCad (PCBNEW (5.1.4)-1) date 2022-02-20 14:50:57*
%MOMM*%
%LPD*%
G04 APERTURE LIST*
%ADD10R,3.500000X1.500000*%
%ADD11C,0.100000*%
%ADD12C,0.875000*%
G04 APERTURE END LIST*
D10*
X109840000Y-99830000D03*
X109840000Y-94430000D03*
D11*
G36*
X115885191Y-93726053D02*
G01*
X115906426Y-93729203D01*
X115927250Y-93734419D01*
X115947462Y-93741651D01*
X115966868Y-93750830D01*
X115985281Y-93761866D01*
X116002524Y-93774654D01*
X116018430Y-93789070D01*
X116032846Y-93804976D01*
X116045634Y-93822219D01*
X116056670Y-93840632D01*
X116065849Y-93860038D01*
X116073081Y-93880250D01*
X116078297Y-93901074D01*
X116081447Y-93922309D01*
X116082500Y-93943750D01*
X116082500Y-94456250D01*
X116081447Y-94477691D01*
X116078297Y-94498926D01*
X116073081Y-94519750D01*
X116065849Y-94539962D01*
X116056670Y-94559368D01*
X116045634Y-94577781D01*
X116032846Y-94595024D01*
X116018430Y-94610930D01*
X116002524Y-94625346D01*
X115985281Y-94638134D01*
X115966868Y-94649170D01*
X115947462Y-94658349D01*
X115927250Y-94665581D01*
X115906426Y-94670797D01*
X115885191Y-94673947D01*
X115863750Y-94675000D01*
X115426250Y-94675000D01*
X115404809Y-94673947D01*
X115383574Y-94670797D01*
X115362750Y-94665581D01*
X115342538Y-94658349D01*
X115323132Y-94649170D01*
X115304719Y-94638134D01*
X115287476Y-94625346D01*
X115271570Y-94610930D01*
X115257154Y-94595024D01*
X115244366Y-94577781D01*
X115233330Y-94559368D01*
X115224151Y-94539962D01*
X115216919Y-94519750D01*
X115211703Y-94498926D01*
X115208553Y-94477691D01*
X115207500Y-94456250D01*
X115207500Y-93943750D01*
X115208553Y-93922309D01*
X115211703Y-93901074D01*
X115216919Y-93880250D01*
X115224151Y-93860038D01*
X115233330Y-93840632D01*
X115244366Y-93822219D01*
X115257154Y-93804976D01*
X115271570Y-93789070D01*
X115287476Y-93774654D01*
X115304719Y-93761866D01*
X115323132Y-93750830D01*
X115342538Y-93741651D01*
X115362750Y-93734419D01*
X115383574Y-93729203D01*
X115404809Y-93726053D01*
X115426250Y-93725000D01*
X115863750Y-93725000D01*
X115885191Y-93726053D01*
X115885191Y-93726053D01*
G37*
D12*
X115645000Y-94200000D03*
D11*
G36*
X117460191Y-93726053D02*
G01*
X117481426Y-93729203D01*
X117502250Y-93734419D01*
X117522462Y-93741651D01*
X117541868Y-93750830D01*
X117560281Y-93761866D01*
X117577524Y-93774654D01*
X117593430Y-93789070D01*
X117607846Y-93804976D01*
X117620634Y-93822219D01*
X117631670Y-93840632D01*
X117640849Y-93860038D01*
X117648081Y-93880250D01*
X117653297Y-93901074D01*
X117656447Y-93922309D01*
X117657500Y-93943750D01*
X117657500Y-94456250D01*
X117656447Y-94477691D01*
X117653297Y-94498926D01*
X117648081Y-94519750D01*
X117640849Y-94539962D01*
X117631670Y-94559368D01*
X117620634Y-94577781D01*
X117607846Y-94595024D01*
X117593430Y-94610930D01*
X117577524Y-94625346D01*
X117560281Y-94638134D01*
X117541868Y-94649170D01*
X117522462Y-94658349D01*
X117502250Y-94665581D01*
X117481426Y-94670797D01*
X117460191Y-94673947D01*
X117438750Y-94675000D01*
X117001250Y-94675000D01*
X116979809Y-94673947D01*
X116958574Y-94670797D01*
X116937750Y-94665581D01*
X116917538Y-94658349D01*
X116898132Y-94649170D01*
X116879719Y-94638134D01*
X116862476Y-94625346D01*
X116846570Y-94610930D01*
X116832154Y-94595024D01*
X116819366Y-94577781D01*
X116808330Y-94559368D01*
X116799151Y-94539962D01*
X116791919Y-94519750D01*
X116786703Y-94498926D01*
X116783553Y-94477691D01*
X116782500Y-94456250D01*
X116782500Y-93943750D01*
X116783553Y-93922309D01*
X116786703Y-93901074D01*
X116791919Y-93880250D01*
X116799151Y-93860038D01*
X116808330Y-93840632D01*
X116819366Y-93822219D01*
X116832154Y-93804976D01*
X116846570Y-93789070D01*
X116862476Y-93774654D01*
X116879719Y-93761866D01*
X116898132Y-93750830D01*
X116917538Y-93741651D01*
X116937750Y-93734419D01*
X116958574Y-93729203D01*
X116979809Y-93726053D01*
X117001250Y-93725000D01*
X117438750Y-93725000D01*
X117460191Y-93726053D01*
X117460191Y-93726053D01*
G37*
D12*
X117220000Y-94200000D03*
D11*
G36*
X118935191Y-95226053D02*
G01*
X118956426Y-95229203D01*
X118977250Y-95234419D01*
X118997462Y-95241651D01*
X119016868Y-95250830D01*
X119035281Y-95261866D01*
X119052524Y-95274654D01*
X119068430Y-95289070D01*
X119082846Y-95304976D01*
X119095634Y-95322219D01*
X119106670Y-95340632D01*
X119115849Y-95360038D01*
X119123081Y-95380250D01*
X119128297Y-95401074D01*
X119131447Y-95422309D01*
X119132500Y-95443750D01*
X119132500Y-95956250D01*
X119131447Y-95977691D01*
X119128297Y-95998926D01*
X119123081Y-96019750D01*
X119115849Y-96039962D01*
X119106670Y-96059368D01*
X119095634Y-96077781D01*
X119082846Y-96095024D01*
X119068430Y-96110930D01*
X119052524Y-96125346D01*
X119035281Y-96138134D01*
X119016868Y-96149170D01*
X118997462Y-96158349D01*
X118977250Y-96165581D01*
X118956426Y-96170797D01*
X118935191Y-96173947D01*
X118913750Y-96175000D01*
X118476250Y-96175000D01*
X118454809Y-96173947D01*
X118433574Y-96170797D01*
X118412750Y-96165581D01*
X118392538Y-96158349D01*
X118373132Y-96149170D01*
X118354719Y-96138134D01*
X118337476Y-96125346D01*
X118321570Y-96110930D01*
X118307154Y-96095024D01*
X118294366Y-96077781D01*
X118283330Y-96059368D01*
X118274151Y-96039962D01*
X118266919Y-96019750D01*
X118261703Y-95998926D01*
X118258553Y-95977691D01*
X118257500Y-95956250D01*
X118257500Y-95443750D01*
X118258553Y-95422309D01*
X118261703Y-95401074D01*
X118266919Y-95380250D01*
X118274151Y-95360038D01*
X118283330Y-95340632D01*
X118294366Y-95322219D01*
X118307154Y-95304976D01*
X118321570Y-95289070D01*
X118337476Y-95274654D01*
X118354719Y-95261866D01*
X118373132Y-95250830D01*
X118392538Y-95241651D01*
X118412750Y-95234419D01*
X118433574Y-95229203D01*
X118454809Y-95226053D01*
X118476250Y-95225000D01*
X118913750Y-95225000D01*
X118935191Y-95226053D01*
X118935191Y-95226053D01*
G37*
D12*
X118695000Y-95700000D03*
D11*
G36*
X120510191Y-95226053D02*
G01*
X120531426Y-95229203D01*
X120552250Y-95234419D01*
X120572462Y-95241651D01*
X120591868Y-95250830D01*
X120610281Y-95261866D01*
X120627524Y-95274654D01*
X120643430Y-95289070D01*
X120657846Y-95304976D01*
X120670634Y-95322219D01*
X120681670Y-95340632D01*
X120690849Y-95360038D01*
X120698081Y-95380250D01*
X120703297Y-95401074D01*
X120706447Y-95422309D01*
X120707500Y-95443750D01*
X120707500Y-95956250D01*
X120706447Y-95977691D01*
X120703297Y-95998926D01*
X120698081Y-96019750D01*
X120690849Y-96039962D01*
X120681670Y-96059368D01*
X120670634Y-96077781D01*
X120657846Y-96095024D01*
X120643430Y-96110930D01*
X120627524Y-96125346D01*
X120610281Y-96138134D01*
X120591868Y-96149170D01*
X120572462Y-96158349D01*
X120552250Y-96165581D01*
X120531426Y-96170797D01*
X120510191Y-96173947D01*
X120488750Y-96175000D01*
X120051250Y-96175000D01*
X120029809Y-96173947D01*
X120008574Y-96170797D01*
X119987750Y-96165581D01*
X119967538Y-96158349D01*
X119948132Y-96149170D01*
X119929719Y-96138134D01*
X119912476Y-96125346D01*
X119896570Y-96110930D01*
X119882154Y-96095024D01*
X119869366Y-96077781D01*
X119858330Y-96059368D01*
X119849151Y-96039962D01*
X119841919Y-96019750D01*
X119836703Y-95998926D01*
X119833553Y-95977691D01*
X119832500Y-95956250D01*
X119832500Y-95443750D01*
X119833553Y-95422309D01*
X119836703Y-95401074D01*
X119841919Y-95380250D01*
X119849151Y-95360038D01*
X119858330Y-95340632D01*
X119869366Y-95322219D01*
X119882154Y-95304976D01*
X119896570Y-95289070D01*
X119912476Y-95274654D01*
X119929719Y-95261866D01*
X119948132Y-95250830D01*
X119967538Y-95241651D01*
X119987750Y-95234419D01*
X120008574Y-95229203D01*
X120029809Y-95226053D01*
X120051250Y-95225000D01*
X120488750Y-95225000D01*
X120510191Y-95226053D01*
X120510191Y-95226053D01*
G37*
D12*
X120270000Y-95700000D03*
D11*
G36*
X127515191Y-91776053D02*
G01*
X127536426Y-91779203D01*
X127557250Y-91784419D01*
X127577462Y-91791651D01*
X127596868Y-91800830D01*
X127615281Y-91811866D01*
X127632524Y-91824654D01*
X127648430Y-91839070D01*
X127662846Y-91854976D01*
X127675634Y-91872219D01*
X127686670Y-91890632D01*
X127695849Y-91910038D01*
X127703081Y-91930250D01*
X127708297Y-91951074D01*
X127711447Y-91972309D01*
X127712500Y-91993750D01*
X127712500Y-92506250D01*
X127711447Y-92527691D01*
X127708297Y-92548926D01*
X127703081Y-92569750D01*
X127695849Y-92589962D01*
X127686670Y-92609368D01*
X127675634Y-92627781D01*
X127662846Y-92645024D01*
X127648430Y-92660930D01*
X127632524Y-92675346D01*
X127615281Y-92688134D01*
X127596868Y-92699170D01*
X127577462Y-92708349D01*
X127557250Y-92715581D01*
X127536426Y-92720797D01*
X127515191Y-92723947D01*
X127493750Y-92725000D01*
X127056250Y-92725000D01*
X127034809Y-92723947D01*
X127013574Y-92720797D01*
X126992750Y-92715581D01*
X126972538Y-92708349D01*
X126953132Y-92699170D01*
X126934719Y-92688134D01*
X126917476Y-92675346D01*
X126901570Y-92660930D01*
X126887154Y-92645024D01*
X126874366Y-92627781D01*
X126863330Y-92609368D01*
X126854151Y-92589962D01*
X126846919Y-92569750D01*
X126841703Y-92548926D01*
X126838553Y-92527691D01*
X126837500Y-92506250D01*
X126837500Y-91993750D01*
X126838553Y-91972309D01*
X126841703Y-91951074D01*
X126846919Y-91930250D01*
X126854151Y-91910038D01*
X126863330Y-91890632D01*
X126874366Y-91872219D01*
X126887154Y-91854976D01*
X126901570Y-91839070D01*
X126917476Y-91824654D01*
X126934719Y-91811866D01*
X126953132Y-91800830D01*
X126972538Y-91791651D01*
X126992750Y-91784419D01*
X127013574Y-91779203D01*
X127034809Y-91776053D01*
X127056250Y-91775000D01*
X127493750Y-91775000D01*
X127515191Y-91776053D01*
X127515191Y-91776053D01*
G37*
D12*
X127275000Y-92250000D03*
D11*
G36*
X125940191Y-91776053D02*
G01*
X125961426Y-91779203D01*
X125982250Y-91784419D01*
X126002462Y-91791651D01*
X126021868Y-91800830D01*
X126040281Y-91811866D01*
X126057524Y-91824654D01*
X126073430Y-91839070D01*
X126087846Y-91854976D01*
X126100634Y-91872219D01*
X126111670Y-91890632D01*
X126120849Y-91910038D01*
X126128081Y-91930250D01*
X126133297Y-91951074D01*
X126136447Y-91972309D01*
X126137500Y-91993750D01*
X126137500Y-92506250D01*
X126136447Y-92527691D01*
X126133297Y-92548926D01*
X126128081Y-92569750D01*
X126120849Y-92589962D01*
X126111670Y-92609368D01*
X126100634Y-92627781D01*
X126087846Y-92645024D01*
X126073430Y-92660930D01*
X126057524Y-92675346D01*
X126040281Y-92688134D01*
X126021868Y-92699170D01*
X126002462Y-92708349D01*
X125982250Y-92715581D01*
X125961426Y-92720797D01*
X125940191Y-92723947D01*
X125918750Y-92725000D01*
X125481250Y-92725000D01*
X125459809Y-92723947D01*
X125438574Y-92720797D01*
X125417750Y-92715581D01*
X125397538Y-92708349D01*
X125378132Y-92699170D01*
X125359719Y-92688134D01*
X125342476Y-92675346D01*
X125326570Y-92660930D01*
X125312154Y-92645024D01*
X125299366Y-92627781D01*
X125288330Y-92609368D01*
X125279151Y-92589962D01*
X125271919Y-92569750D01*
X125266703Y-92548926D01*
X125263553Y-92527691D01*
X125262500Y-92506250D01*
X125262500Y-91993750D01*
X125263553Y-91972309D01*
X125266703Y-91951074D01*
X125271919Y-91930250D01*
X125279151Y-91910038D01*
X125288330Y-91890632D01*
X125299366Y-91872219D01*
X125312154Y-91854976D01*
X125326570Y-91839070D01*
X125342476Y-91824654D01*
X125359719Y-91811866D01*
X125378132Y-91800830D01*
X125397538Y-91791651D01*
X125417750Y-91784419D01*
X125438574Y-91779203D01*
X125459809Y-91776053D01*
X125481250Y-91775000D01*
X125918750Y-91775000D01*
X125940191Y-91776053D01*
X125940191Y-91776053D01*
G37*
D12*
X125700000Y-92250000D03*
D11*
G36*
X119715191Y-91886053D02*
G01*
X119736426Y-91889203D01*
X119757250Y-91894419D01*
X119777462Y-91901651D01*
X119796868Y-91910830D01*
X119815281Y-91921866D01*
X119832524Y-91934654D01*
X119848430Y-91949070D01*
X119862846Y-91964976D01*
X119875634Y-91982219D01*
X119886670Y-92000632D01*
X119895849Y-92020038D01*
X119903081Y-92040250D01*
X119908297Y-92061074D01*
X119911447Y-92082309D01*
X119912500Y-92103750D01*
X119912500Y-92616250D01*
X119911447Y-92637691D01*
X119908297Y-92658926D01*
X119903081Y-92679750D01*
X119895849Y-92699962D01*
X119886670Y-92719368D01*
X119875634Y-92737781D01*
X119862846Y-92755024D01*
X119848430Y-92770930D01*
X119832524Y-92785346D01*
X119815281Y-92798134D01*
X119796868Y-92809170D01*
X119777462Y-92818349D01*
X119757250Y-92825581D01*
X119736426Y-92830797D01*
X119715191Y-92833947D01*
X119693750Y-92835000D01*
X119256250Y-92835000D01*
X119234809Y-92833947D01*
X119213574Y-92830797D01*
X119192750Y-92825581D01*
X119172538Y-92818349D01*
X119153132Y-92809170D01*
X119134719Y-92798134D01*
X119117476Y-92785346D01*
X119101570Y-92770930D01*
X119087154Y-92755024D01*
X119074366Y-92737781D01*
X119063330Y-92719368D01*
X119054151Y-92699962D01*
X119046919Y-92679750D01*
X119041703Y-92658926D01*
X119038553Y-92637691D01*
X119037500Y-92616250D01*
X119037500Y-92103750D01*
X119038553Y-92082309D01*
X119041703Y-92061074D01*
X119046919Y-92040250D01*
X119054151Y-92020038D01*
X119063330Y-92000632D01*
X119074366Y-91982219D01*
X119087154Y-91964976D01*
X119101570Y-91949070D01*
X119117476Y-91934654D01*
X119134719Y-91921866D01*
X119153132Y-91910830D01*
X119172538Y-91901651D01*
X119192750Y-91894419D01*
X119213574Y-91889203D01*
X119234809Y-91886053D01*
X119256250Y-91885000D01*
X119693750Y-91885000D01*
X119715191Y-91886053D01*
X119715191Y-91886053D01*
G37*
D12*
X119475000Y-92360000D03*
D11*
G36*
X121290191Y-91886053D02*
G01*
X121311426Y-91889203D01*
X121332250Y-91894419D01*
X121352462Y-91901651D01*
X121371868Y-91910830D01*
X121390281Y-91921866D01*
X121407524Y-91934654D01*
X121423430Y-91949070D01*
X121437846Y-91964976D01*
X121450634Y-91982219D01*
X121461670Y-92000632D01*
X121470849Y-92020038D01*
X121478081Y-92040250D01*
X121483297Y-92061074D01*
X121486447Y-92082309D01*
X121487500Y-92103750D01*
X121487500Y-92616250D01*
X121486447Y-92637691D01*
X121483297Y-92658926D01*
X121478081Y-92679750D01*
X121470849Y-92699962D01*
X121461670Y-92719368D01*
X121450634Y-92737781D01*
X121437846Y-92755024D01*
X121423430Y-92770930D01*
X121407524Y-92785346D01*
X121390281Y-92798134D01*
X121371868Y-92809170D01*
X121352462Y-92818349D01*
X121332250Y-92825581D01*
X121311426Y-92830797D01*
X121290191Y-92833947D01*
X121268750Y-92835000D01*
X120831250Y-92835000D01*
X120809809Y-92833947D01*
X120788574Y-92830797D01*
X120767750Y-92825581D01*
X120747538Y-92818349D01*
X120728132Y-92809170D01*
X120709719Y-92798134D01*
X120692476Y-92785346D01*
X120676570Y-92770930D01*
X120662154Y-92755024D01*
X120649366Y-92737781D01*
X120638330Y-92719368D01*
X120629151Y-92699962D01*
X120621919Y-92679750D01*
X120616703Y-92658926D01*
X120613553Y-92637691D01*
X120612500Y-92616250D01*
X120612500Y-92103750D01*
X120613553Y-92082309D01*
X120616703Y-92061074D01*
X120621919Y-92040250D01*
X120629151Y-92020038D01*
X120638330Y-92000632D01*
X120649366Y-91982219D01*
X120662154Y-91964976D01*
X120676570Y-91949070D01*
X120692476Y-91934654D01*
X120709719Y-91921866D01*
X120728132Y-91910830D01*
X120747538Y-91901651D01*
X120767750Y-91894419D01*
X120788574Y-91889203D01*
X120809809Y-91886053D01*
X120831250Y-91885000D01*
X121268750Y-91885000D01*
X121290191Y-91886053D01*
X121290191Y-91886053D01*
G37*
D12*
X121050000Y-92360000D03*
M02*
