G04 #@! TF.GenerationSoftware,KiCad,Pcbnew,(5.1.4)-1*
G04 #@! TF.CreationDate,2022-02-20T14:50:57-05:00*
G04 #@! TF.ProjectId,Telemetry PCB,54656c65-6d65-4747-9279-205043422e6b,rev?*
G04 #@! TF.SameCoordinates,Original*
G04 #@! TF.FileFunction,Paste,Top*
G04 #@! TF.FilePolarity,Positive*
%FSLAX46Y46*%
G04 Gerber Fmt 4.6, Leading zero omitted, Abs format (unit mm)*
G04 Created by KiCad (PCBNEW (5.1.4)-1) date 2022-02-20 14:50:57*
%MOMM*%
%LPD*%
G04 APERTURE LIST*
%ADD10R,1.400000X1.200000*%
%ADD11R,3.251200X3.251200*%
%ADD12R,0.304800X0.812800*%
%ADD13R,0.812800X0.304800*%
%ADD14R,3.500000X1.500000*%
%ADD15R,0.400000X0.500000*%
%ADD16R,0.500000X0.300000*%
%ADD17R,1.000000X1.800000*%
%ADD18R,1.060000X0.650000*%
%ADD19C,0.100000*%
%ADD20C,0.875000*%
G04 APERTURE END LIST*
D10*
X124070000Y-107300000D03*
X126270000Y-107300000D03*
X126270000Y-109000000D03*
X124070000Y-109000000D03*
D11*
X123540000Y-96890000D03*
D12*
X121787400Y-94426200D03*
X122295400Y-94426200D03*
X122778000Y-94426200D03*
X123286000Y-94426200D03*
X123794000Y-94426200D03*
X124302000Y-94426200D03*
X124784600Y-94426200D03*
X125292600Y-94426200D03*
D13*
X126003800Y-95137400D03*
X126003800Y-95645400D03*
X126003800Y-96128000D03*
X126003800Y-96636000D03*
X126003800Y-97144000D03*
X126003800Y-97652000D03*
X126003800Y-98134600D03*
X126003800Y-98642600D03*
D12*
X125292600Y-99353800D03*
X124784600Y-99353800D03*
X124302000Y-99353800D03*
X123794000Y-99353800D03*
X123286000Y-99353800D03*
X122778000Y-99353800D03*
X122295400Y-99353800D03*
X121787400Y-99353800D03*
D13*
X121076200Y-98642600D03*
X121076200Y-98134600D03*
X121076200Y-97652000D03*
X121076200Y-97144000D03*
X121076200Y-96636000D03*
X121076200Y-96128000D03*
X121076200Y-95645400D03*
X121076200Y-95137400D03*
D14*
X109840000Y-99830000D03*
X109840000Y-94430000D03*
X109840000Y-97130000D03*
D15*
X118845000Y-95880000D03*
X118845000Y-97880000D03*
D16*
X119470000Y-97630000D03*
X119470000Y-97130000D03*
X119470000Y-96630000D03*
X119470000Y-96130000D03*
X118220000Y-97630000D03*
X118220000Y-97130000D03*
X118220000Y-96630000D03*
X118220000Y-96130000D03*
D17*
X129950000Y-91470000D03*
X127450000Y-91470000D03*
D18*
X121440000Y-114670000D03*
X121440000Y-116570000D03*
X119240000Y-116570000D03*
X119240000Y-115620000D03*
X119240000Y-114670000D03*
D19*
G36*
X119517691Y-107918553D02*
G01*
X119538926Y-107921703D01*
X119559750Y-107926919D01*
X119579962Y-107934151D01*
X119599368Y-107943330D01*
X119617781Y-107954366D01*
X119635024Y-107967154D01*
X119650930Y-107981570D01*
X119665346Y-107997476D01*
X119678134Y-108014719D01*
X119689170Y-108033132D01*
X119698349Y-108052538D01*
X119705581Y-108072750D01*
X119710797Y-108093574D01*
X119713947Y-108114809D01*
X119715000Y-108136250D01*
X119715000Y-108573750D01*
X119713947Y-108595191D01*
X119710797Y-108616426D01*
X119705581Y-108637250D01*
X119698349Y-108657462D01*
X119689170Y-108676868D01*
X119678134Y-108695281D01*
X119665346Y-108712524D01*
X119650930Y-108728430D01*
X119635024Y-108742846D01*
X119617781Y-108755634D01*
X119599368Y-108766670D01*
X119579962Y-108775849D01*
X119559750Y-108783081D01*
X119538926Y-108788297D01*
X119517691Y-108791447D01*
X119496250Y-108792500D01*
X118983750Y-108792500D01*
X118962309Y-108791447D01*
X118941074Y-108788297D01*
X118920250Y-108783081D01*
X118900038Y-108775849D01*
X118880632Y-108766670D01*
X118862219Y-108755634D01*
X118844976Y-108742846D01*
X118829070Y-108728430D01*
X118814654Y-108712524D01*
X118801866Y-108695281D01*
X118790830Y-108676868D01*
X118781651Y-108657462D01*
X118774419Y-108637250D01*
X118769203Y-108616426D01*
X118766053Y-108595191D01*
X118765000Y-108573750D01*
X118765000Y-108136250D01*
X118766053Y-108114809D01*
X118769203Y-108093574D01*
X118774419Y-108072750D01*
X118781651Y-108052538D01*
X118790830Y-108033132D01*
X118801866Y-108014719D01*
X118814654Y-107997476D01*
X118829070Y-107981570D01*
X118844976Y-107967154D01*
X118862219Y-107954366D01*
X118880632Y-107943330D01*
X118900038Y-107934151D01*
X118920250Y-107926919D01*
X118941074Y-107921703D01*
X118962309Y-107918553D01*
X118983750Y-107917500D01*
X119496250Y-107917500D01*
X119517691Y-107918553D01*
X119517691Y-107918553D01*
G37*
D20*
X119240000Y-108355000D03*
D19*
G36*
X119517691Y-109493553D02*
G01*
X119538926Y-109496703D01*
X119559750Y-109501919D01*
X119579962Y-109509151D01*
X119599368Y-109518330D01*
X119617781Y-109529366D01*
X119635024Y-109542154D01*
X119650930Y-109556570D01*
X119665346Y-109572476D01*
X119678134Y-109589719D01*
X119689170Y-109608132D01*
X119698349Y-109627538D01*
X119705581Y-109647750D01*
X119710797Y-109668574D01*
X119713947Y-109689809D01*
X119715000Y-109711250D01*
X119715000Y-110148750D01*
X119713947Y-110170191D01*
X119710797Y-110191426D01*
X119705581Y-110212250D01*
X119698349Y-110232462D01*
X119689170Y-110251868D01*
X119678134Y-110270281D01*
X119665346Y-110287524D01*
X119650930Y-110303430D01*
X119635024Y-110317846D01*
X119617781Y-110330634D01*
X119599368Y-110341670D01*
X119579962Y-110350849D01*
X119559750Y-110358081D01*
X119538926Y-110363297D01*
X119517691Y-110366447D01*
X119496250Y-110367500D01*
X118983750Y-110367500D01*
X118962309Y-110366447D01*
X118941074Y-110363297D01*
X118920250Y-110358081D01*
X118900038Y-110350849D01*
X118880632Y-110341670D01*
X118862219Y-110330634D01*
X118844976Y-110317846D01*
X118829070Y-110303430D01*
X118814654Y-110287524D01*
X118801866Y-110270281D01*
X118790830Y-110251868D01*
X118781651Y-110232462D01*
X118774419Y-110212250D01*
X118769203Y-110191426D01*
X118766053Y-110170191D01*
X118765000Y-110148750D01*
X118765000Y-109711250D01*
X118766053Y-109689809D01*
X118769203Y-109668574D01*
X118774419Y-109647750D01*
X118781651Y-109627538D01*
X118790830Y-109608132D01*
X118801866Y-109589719D01*
X118814654Y-109572476D01*
X118829070Y-109556570D01*
X118844976Y-109542154D01*
X118862219Y-109529366D01*
X118880632Y-109518330D01*
X118900038Y-109509151D01*
X118920250Y-109501919D01*
X118941074Y-109496703D01*
X118962309Y-109493553D01*
X118983750Y-109492500D01*
X119496250Y-109492500D01*
X119517691Y-109493553D01*
X119517691Y-109493553D01*
G37*
D20*
X119240000Y-109930000D03*
D19*
G36*
X131730191Y-99646053D02*
G01*
X131751426Y-99649203D01*
X131772250Y-99654419D01*
X131792462Y-99661651D01*
X131811868Y-99670830D01*
X131830281Y-99681866D01*
X131847524Y-99694654D01*
X131863430Y-99709070D01*
X131877846Y-99724976D01*
X131890634Y-99742219D01*
X131901670Y-99760632D01*
X131910849Y-99780038D01*
X131918081Y-99800250D01*
X131923297Y-99821074D01*
X131926447Y-99842309D01*
X131927500Y-99863750D01*
X131927500Y-100376250D01*
X131926447Y-100397691D01*
X131923297Y-100418926D01*
X131918081Y-100439750D01*
X131910849Y-100459962D01*
X131901670Y-100479368D01*
X131890634Y-100497781D01*
X131877846Y-100515024D01*
X131863430Y-100530930D01*
X131847524Y-100545346D01*
X131830281Y-100558134D01*
X131811868Y-100569170D01*
X131792462Y-100578349D01*
X131772250Y-100585581D01*
X131751426Y-100590797D01*
X131730191Y-100593947D01*
X131708750Y-100595000D01*
X131271250Y-100595000D01*
X131249809Y-100593947D01*
X131228574Y-100590797D01*
X131207750Y-100585581D01*
X131187538Y-100578349D01*
X131168132Y-100569170D01*
X131149719Y-100558134D01*
X131132476Y-100545346D01*
X131116570Y-100530930D01*
X131102154Y-100515024D01*
X131089366Y-100497781D01*
X131078330Y-100479368D01*
X131069151Y-100459962D01*
X131061919Y-100439750D01*
X131056703Y-100418926D01*
X131053553Y-100397691D01*
X131052500Y-100376250D01*
X131052500Y-99863750D01*
X131053553Y-99842309D01*
X131056703Y-99821074D01*
X131061919Y-99800250D01*
X131069151Y-99780038D01*
X131078330Y-99760632D01*
X131089366Y-99742219D01*
X131102154Y-99724976D01*
X131116570Y-99709070D01*
X131132476Y-99694654D01*
X131149719Y-99681866D01*
X131168132Y-99670830D01*
X131187538Y-99661651D01*
X131207750Y-99654419D01*
X131228574Y-99649203D01*
X131249809Y-99646053D01*
X131271250Y-99645000D01*
X131708750Y-99645000D01*
X131730191Y-99646053D01*
X131730191Y-99646053D01*
G37*
D20*
X131490000Y-100120000D03*
D19*
G36*
X130155191Y-99646053D02*
G01*
X130176426Y-99649203D01*
X130197250Y-99654419D01*
X130217462Y-99661651D01*
X130236868Y-99670830D01*
X130255281Y-99681866D01*
X130272524Y-99694654D01*
X130288430Y-99709070D01*
X130302846Y-99724976D01*
X130315634Y-99742219D01*
X130326670Y-99760632D01*
X130335849Y-99780038D01*
X130343081Y-99800250D01*
X130348297Y-99821074D01*
X130351447Y-99842309D01*
X130352500Y-99863750D01*
X130352500Y-100376250D01*
X130351447Y-100397691D01*
X130348297Y-100418926D01*
X130343081Y-100439750D01*
X130335849Y-100459962D01*
X130326670Y-100479368D01*
X130315634Y-100497781D01*
X130302846Y-100515024D01*
X130288430Y-100530930D01*
X130272524Y-100545346D01*
X130255281Y-100558134D01*
X130236868Y-100569170D01*
X130217462Y-100578349D01*
X130197250Y-100585581D01*
X130176426Y-100590797D01*
X130155191Y-100593947D01*
X130133750Y-100595000D01*
X129696250Y-100595000D01*
X129674809Y-100593947D01*
X129653574Y-100590797D01*
X129632750Y-100585581D01*
X129612538Y-100578349D01*
X129593132Y-100569170D01*
X129574719Y-100558134D01*
X129557476Y-100545346D01*
X129541570Y-100530930D01*
X129527154Y-100515024D01*
X129514366Y-100497781D01*
X129503330Y-100479368D01*
X129494151Y-100459962D01*
X129486919Y-100439750D01*
X129481703Y-100418926D01*
X129478553Y-100397691D01*
X129477500Y-100376250D01*
X129477500Y-99863750D01*
X129478553Y-99842309D01*
X129481703Y-99821074D01*
X129486919Y-99800250D01*
X129494151Y-99780038D01*
X129503330Y-99760632D01*
X129514366Y-99742219D01*
X129527154Y-99724976D01*
X129541570Y-99709070D01*
X129557476Y-99694654D01*
X129574719Y-99681866D01*
X129593132Y-99670830D01*
X129612538Y-99661651D01*
X129632750Y-99654419D01*
X129653574Y-99649203D01*
X129674809Y-99646053D01*
X129696250Y-99645000D01*
X130133750Y-99645000D01*
X130155191Y-99646053D01*
X130155191Y-99646053D01*
G37*
D20*
X129915000Y-100120000D03*
D19*
G36*
X133307691Y-90113553D02*
G01*
X133328926Y-90116703D01*
X133349750Y-90121919D01*
X133369962Y-90129151D01*
X133389368Y-90138330D01*
X133407781Y-90149366D01*
X133425024Y-90162154D01*
X133440930Y-90176570D01*
X133455346Y-90192476D01*
X133468134Y-90209719D01*
X133479170Y-90228132D01*
X133488349Y-90247538D01*
X133495581Y-90267750D01*
X133500797Y-90288574D01*
X133503947Y-90309809D01*
X133505000Y-90331250D01*
X133505000Y-90768750D01*
X133503947Y-90790191D01*
X133500797Y-90811426D01*
X133495581Y-90832250D01*
X133488349Y-90852462D01*
X133479170Y-90871868D01*
X133468134Y-90890281D01*
X133455346Y-90907524D01*
X133440930Y-90923430D01*
X133425024Y-90937846D01*
X133407781Y-90950634D01*
X133389368Y-90961670D01*
X133369962Y-90970849D01*
X133349750Y-90978081D01*
X133328926Y-90983297D01*
X133307691Y-90986447D01*
X133286250Y-90987500D01*
X132773750Y-90987500D01*
X132752309Y-90986447D01*
X132731074Y-90983297D01*
X132710250Y-90978081D01*
X132690038Y-90970849D01*
X132670632Y-90961670D01*
X132652219Y-90950634D01*
X132634976Y-90937846D01*
X132619070Y-90923430D01*
X132604654Y-90907524D01*
X132591866Y-90890281D01*
X132580830Y-90871868D01*
X132571651Y-90852462D01*
X132564419Y-90832250D01*
X132559203Y-90811426D01*
X132556053Y-90790191D01*
X132555000Y-90768750D01*
X132555000Y-90331250D01*
X132556053Y-90309809D01*
X132559203Y-90288574D01*
X132564419Y-90267750D01*
X132571651Y-90247538D01*
X132580830Y-90228132D01*
X132591866Y-90209719D01*
X132604654Y-90192476D01*
X132619070Y-90176570D01*
X132634976Y-90162154D01*
X132652219Y-90149366D01*
X132670632Y-90138330D01*
X132690038Y-90129151D01*
X132710250Y-90121919D01*
X132731074Y-90116703D01*
X132752309Y-90113553D01*
X132773750Y-90112500D01*
X133286250Y-90112500D01*
X133307691Y-90113553D01*
X133307691Y-90113553D01*
G37*
D20*
X133030000Y-90550000D03*
D19*
G36*
X133307691Y-91688553D02*
G01*
X133328926Y-91691703D01*
X133349750Y-91696919D01*
X133369962Y-91704151D01*
X133389368Y-91713330D01*
X133407781Y-91724366D01*
X133425024Y-91737154D01*
X133440930Y-91751570D01*
X133455346Y-91767476D01*
X133468134Y-91784719D01*
X133479170Y-91803132D01*
X133488349Y-91822538D01*
X133495581Y-91842750D01*
X133500797Y-91863574D01*
X133503947Y-91884809D01*
X133505000Y-91906250D01*
X133505000Y-92343750D01*
X133503947Y-92365191D01*
X133500797Y-92386426D01*
X133495581Y-92407250D01*
X133488349Y-92427462D01*
X133479170Y-92446868D01*
X133468134Y-92465281D01*
X133455346Y-92482524D01*
X133440930Y-92498430D01*
X133425024Y-92512846D01*
X133407781Y-92525634D01*
X133389368Y-92536670D01*
X133369962Y-92545849D01*
X133349750Y-92553081D01*
X133328926Y-92558297D01*
X133307691Y-92561447D01*
X133286250Y-92562500D01*
X132773750Y-92562500D01*
X132752309Y-92561447D01*
X132731074Y-92558297D01*
X132710250Y-92553081D01*
X132690038Y-92545849D01*
X132670632Y-92536670D01*
X132652219Y-92525634D01*
X132634976Y-92512846D01*
X132619070Y-92498430D01*
X132604654Y-92482524D01*
X132591866Y-92465281D01*
X132580830Y-92446868D01*
X132571651Y-92427462D01*
X132564419Y-92407250D01*
X132559203Y-92386426D01*
X132556053Y-92365191D01*
X132555000Y-92343750D01*
X132555000Y-91906250D01*
X132556053Y-91884809D01*
X132559203Y-91863574D01*
X132564419Y-91842750D01*
X132571651Y-91822538D01*
X132580830Y-91803132D01*
X132591866Y-91784719D01*
X132604654Y-91767476D01*
X132619070Y-91751570D01*
X132634976Y-91737154D01*
X132652219Y-91724366D01*
X132670632Y-91713330D01*
X132690038Y-91704151D01*
X132710250Y-91696919D01*
X132731074Y-91691703D01*
X132752309Y-91688553D01*
X132773750Y-91687500D01*
X133286250Y-91687500D01*
X133307691Y-91688553D01*
X133307691Y-91688553D01*
G37*
D20*
X133030000Y-92125000D03*
D19*
G36*
X119517691Y-112563553D02*
G01*
X119538926Y-112566703D01*
X119559750Y-112571919D01*
X119579962Y-112579151D01*
X119599368Y-112588330D01*
X119617781Y-112599366D01*
X119635024Y-112612154D01*
X119650930Y-112626570D01*
X119665346Y-112642476D01*
X119678134Y-112659719D01*
X119689170Y-112678132D01*
X119698349Y-112697538D01*
X119705581Y-112717750D01*
X119710797Y-112738574D01*
X119713947Y-112759809D01*
X119715000Y-112781250D01*
X119715000Y-113218750D01*
X119713947Y-113240191D01*
X119710797Y-113261426D01*
X119705581Y-113282250D01*
X119698349Y-113302462D01*
X119689170Y-113321868D01*
X119678134Y-113340281D01*
X119665346Y-113357524D01*
X119650930Y-113373430D01*
X119635024Y-113387846D01*
X119617781Y-113400634D01*
X119599368Y-113411670D01*
X119579962Y-113420849D01*
X119559750Y-113428081D01*
X119538926Y-113433297D01*
X119517691Y-113436447D01*
X119496250Y-113437500D01*
X118983750Y-113437500D01*
X118962309Y-113436447D01*
X118941074Y-113433297D01*
X118920250Y-113428081D01*
X118900038Y-113420849D01*
X118880632Y-113411670D01*
X118862219Y-113400634D01*
X118844976Y-113387846D01*
X118829070Y-113373430D01*
X118814654Y-113357524D01*
X118801866Y-113340281D01*
X118790830Y-113321868D01*
X118781651Y-113302462D01*
X118774419Y-113282250D01*
X118769203Y-113261426D01*
X118766053Y-113240191D01*
X118765000Y-113218750D01*
X118765000Y-112781250D01*
X118766053Y-112759809D01*
X118769203Y-112738574D01*
X118774419Y-112717750D01*
X118781651Y-112697538D01*
X118790830Y-112678132D01*
X118801866Y-112659719D01*
X118814654Y-112642476D01*
X118829070Y-112626570D01*
X118844976Y-112612154D01*
X118862219Y-112599366D01*
X118880632Y-112588330D01*
X118900038Y-112579151D01*
X118920250Y-112571919D01*
X118941074Y-112566703D01*
X118962309Y-112563553D01*
X118983750Y-112562500D01*
X119496250Y-112562500D01*
X119517691Y-112563553D01*
X119517691Y-112563553D01*
G37*
D20*
X119240000Y-113000000D03*
D19*
G36*
X119517691Y-110988553D02*
G01*
X119538926Y-110991703D01*
X119559750Y-110996919D01*
X119579962Y-111004151D01*
X119599368Y-111013330D01*
X119617781Y-111024366D01*
X119635024Y-111037154D01*
X119650930Y-111051570D01*
X119665346Y-111067476D01*
X119678134Y-111084719D01*
X119689170Y-111103132D01*
X119698349Y-111122538D01*
X119705581Y-111142750D01*
X119710797Y-111163574D01*
X119713947Y-111184809D01*
X119715000Y-111206250D01*
X119715000Y-111643750D01*
X119713947Y-111665191D01*
X119710797Y-111686426D01*
X119705581Y-111707250D01*
X119698349Y-111727462D01*
X119689170Y-111746868D01*
X119678134Y-111765281D01*
X119665346Y-111782524D01*
X119650930Y-111798430D01*
X119635024Y-111812846D01*
X119617781Y-111825634D01*
X119599368Y-111836670D01*
X119579962Y-111845849D01*
X119559750Y-111853081D01*
X119538926Y-111858297D01*
X119517691Y-111861447D01*
X119496250Y-111862500D01*
X118983750Y-111862500D01*
X118962309Y-111861447D01*
X118941074Y-111858297D01*
X118920250Y-111853081D01*
X118900038Y-111845849D01*
X118880632Y-111836670D01*
X118862219Y-111825634D01*
X118844976Y-111812846D01*
X118829070Y-111798430D01*
X118814654Y-111782524D01*
X118801866Y-111765281D01*
X118790830Y-111746868D01*
X118781651Y-111727462D01*
X118774419Y-111707250D01*
X118769203Y-111686426D01*
X118766053Y-111665191D01*
X118765000Y-111643750D01*
X118765000Y-111206250D01*
X118766053Y-111184809D01*
X118769203Y-111163574D01*
X118774419Y-111142750D01*
X118781651Y-111122538D01*
X118790830Y-111103132D01*
X118801866Y-111084719D01*
X118814654Y-111067476D01*
X118829070Y-111051570D01*
X118844976Y-111037154D01*
X118862219Y-111024366D01*
X118880632Y-111013330D01*
X118900038Y-111004151D01*
X118920250Y-110996919D01*
X118941074Y-110991703D01*
X118962309Y-110988553D01*
X118983750Y-110987500D01*
X119496250Y-110987500D01*
X119517691Y-110988553D01*
X119517691Y-110988553D01*
G37*
D20*
X119240000Y-111425000D03*
D19*
G36*
X124875191Y-114196053D02*
G01*
X124896426Y-114199203D01*
X124917250Y-114204419D01*
X124937462Y-114211651D01*
X124956868Y-114220830D01*
X124975281Y-114231866D01*
X124992524Y-114244654D01*
X125008430Y-114259070D01*
X125022846Y-114274976D01*
X125035634Y-114292219D01*
X125046670Y-114310632D01*
X125055849Y-114330038D01*
X125063081Y-114350250D01*
X125068297Y-114371074D01*
X125071447Y-114392309D01*
X125072500Y-114413750D01*
X125072500Y-114926250D01*
X125071447Y-114947691D01*
X125068297Y-114968926D01*
X125063081Y-114989750D01*
X125055849Y-115009962D01*
X125046670Y-115029368D01*
X125035634Y-115047781D01*
X125022846Y-115065024D01*
X125008430Y-115080930D01*
X124992524Y-115095346D01*
X124975281Y-115108134D01*
X124956868Y-115119170D01*
X124937462Y-115128349D01*
X124917250Y-115135581D01*
X124896426Y-115140797D01*
X124875191Y-115143947D01*
X124853750Y-115145000D01*
X124416250Y-115145000D01*
X124394809Y-115143947D01*
X124373574Y-115140797D01*
X124352750Y-115135581D01*
X124332538Y-115128349D01*
X124313132Y-115119170D01*
X124294719Y-115108134D01*
X124277476Y-115095346D01*
X124261570Y-115080930D01*
X124247154Y-115065024D01*
X124234366Y-115047781D01*
X124223330Y-115029368D01*
X124214151Y-115009962D01*
X124206919Y-114989750D01*
X124201703Y-114968926D01*
X124198553Y-114947691D01*
X124197500Y-114926250D01*
X124197500Y-114413750D01*
X124198553Y-114392309D01*
X124201703Y-114371074D01*
X124206919Y-114350250D01*
X124214151Y-114330038D01*
X124223330Y-114310632D01*
X124234366Y-114292219D01*
X124247154Y-114274976D01*
X124261570Y-114259070D01*
X124277476Y-114244654D01*
X124294719Y-114231866D01*
X124313132Y-114220830D01*
X124332538Y-114211651D01*
X124352750Y-114204419D01*
X124373574Y-114199203D01*
X124394809Y-114196053D01*
X124416250Y-114195000D01*
X124853750Y-114195000D01*
X124875191Y-114196053D01*
X124875191Y-114196053D01*
G37*
D20*
X124635000Y-114670000D03*
D19*
G36*
X123300191Y-114196053D02*
G01*
X123321426Y-114199203D01*
X123342250Y-114204419D01*
X123362462Y-114211651D01*
X123381868Y-114220830D01*
X123400281Y-114231866D01*
X123417524Y-114244654D01*
X123433430Y-114259070D01*
X123447846Y-114274976D01*
X123460634Y-114292219D01*
X123471670Y-114310632D01*
X123480849Y-114330038D01*
X123488081Y-114350250D01*
X123493297Y-114371074D01*
X123496447Y-114392309D01*
X123497500Y-114413750D01*
X123497500Y-114926250D01*
X123496447Y-114947691D01*
X123493297Y-114968926D01*
X123488081Y-114989750D01*
X123480849Y-115009962D01*
X123471670Y-115029368D01*
X123460634Y-115047781D01*
X123447846Y-115065024D01*
X123433430Y-115080930D01*
X123417524Y-115095346D01*
X123400281Y-115108134D01*
X123381868Y-115119170D01*
X123362462Y-115128349D01*
X123342250Y-115135581D01*
X123321426Y-115140797D01*
X123300191Y-115143947D01*
X123278750Y-115145000D01*
X122841250Y-115145000D01*
X122819809Y-115143947D01*
X122798574Y-115140797D01*
X122777750Y-115135581D01*
X122757538Y-115128349D01*
X122738132Y-115119170D01*
X122719719Y-115108134D01*
X122702476Y-115095346D01*
X122686570Y-115080930D01*
X122672154Y-115065024D01*
X122659366Y-115047781D01*
X122648330Y-115029368D01*
X122639151Y-115009962D01*
X122631919Y-114989750D01*
X122626703Y-114968926D01*
X122623553Y-114947691D01*
X122622500Y-114926250D01*
X122622500Y-114413750D01*
X122623553Y-114392309D01*
X122626703Y-114371074D01*
X122631919Y-114350250D01*
X122639151Y-114330038D01*
X122648330Y-114310632D01*
X122659366Y-114292219D01*
X122672154Y-114274976D01*
X122686570Y-114259070D01*
X122702476Y-114244654D01*
X122719719Y-114231866D01*
X122738132Y-114220830D01*
X122757538Y-114211651D01*
X122777750Y-114204419D01*
X122798574Y-114199203D01*
X122819809Y-114196053D01*
X122841250Y-114195000D01*
X123278750Y-114195000D01*
X123300191Y-114196053D01*
X123300191Y-114196053D01*
G37*
D20*
X123060000Y-114670000D03*
D19*
G36*
X124875191Y-116096053D02*
G01*
X124896426Y-116099203D01*
X124917250Y-116104419D01*
X124937462Y-116111651D01*
X124956868Y-116120830D01*
X124975281Y-116131866D01*
X124992524Y-116144654D01*
X125008430Y-116159070D01*
X125022846Y-116174976D01*
X125035634Y-116192219D01*
X125046670Y-116210632D01*
X125055849Y-116230038D01*
X125063081Y-116250250D01*
X125068297Y-116271074D01*
X125071447Y-116292309D01*
X125072500Y-116313750D01*
X125072500Y-116826250D01*
X125071447Y-116847691D01*
X125068297Y-116868926D01*
X125063081Y-116889750D01*
X125055849Y-116909962D01*
X125046670Y-116929368D01*
X125035634Y-116947781D01*
X125022846Y-116965024D01*
X125008430Y-116980930D01*
X124992524Y-116995346D01*
X124975281Y-117008134D01*
X124956868Y-117019170D01*
X124937462Y-117028349D01*
X124917250Y-117035581D01*
X124896426Y-117040797D01*
X124875191Y-117043947D01*
X124853750Y-117045000D01*
X124416250Y-117045000D01*
X124394809Y-117043947D01*
X124373574Y-117040797D01*
X124352750Y-117035581D01*
X124332538Y-117028349D01*
X124313132Y-117019170D01*
X124294719Y-117008134D01*
X124277476Y-116995346D01*
X124261570Y-116980930D01*
X124247154Y-116965024D01*
X124234366Y-116947781D01*
X124223330Y-116929368D01*
X124214151Y-116909962D01*
X124206919Y-116889750D01*
X124201703Y-116868926D01*
X124198553Y-116847691D01*
X124197500Y-116826250D01*
X124197500Y-116313750D01*
X124198553Y-116292309D01*
X124201703Y-116271074D01*
X124206919Y-116250250D01*
X124214151Y-116230038D01*
X124223330Y-116210632D01*
X124234366Y-116192219D01*
X124247154Y-116174976D01*
X124261570Y-116159070D01*
X124277476Y-116144654D01*
X124294719Y-116131866D01*
X124313132Y-116120830D01*
X124332538Y-116111651D01*
X124352750Y-116104419D01*
X124373574Y-116099203D01*
X124394809Y-116096053D01*
X124416250Y-116095000D01*
X124853750Y-116095000D01*
X124875191Y-116096053D01*
X124875191Y-116096053D01*
G37*
D20*
X124635000Y-116570000D03*
D19*
G36*
X123300191Y-116096053D02*
G01*
X123321426Y-116099203D01*
X123342250Y-116104419D01*
X123362462Y-116111651D01*
X123381868Y-116120830D01*
X123400281Y-116131866D01*
X123417524Y-116144654D01*
X123433430Y-116159070D01*
X123447846Y-116174976D01*
X123460634Y-116192219D01*
X123471670Y-116210632D01*
X123480849Y-116230038D01*
X123488081Y-116250250D01*
X123493297Y-116271074D01*
X123496447Y-116292309D01*
X123497500Y-116313750D01*
X123497500Y-116826250D01*
X123496447Y-116847691D01*
X123493297Y-116868926D01*
X123488081Y-116889750D01*
X123480849Y-116909962D01*
X123471670Y-116929368D01*
X123460634Y-116947781D01*
X123447846Y-116965024D01*
X123433430Y-116980930D01*
X123417524Y-116995346D01*
X123400281Y-117008134D01*
X123381868Y-117019170D01*
X123362462Y-117028349D01*
X123342250Y-117035581D01*
X123321426Y-117040797D01*
X123300191Y-117043947D01*
X123278750Y-117045000D01*
X122841250Y-117045000D01*
X122819809Y-117043947D01*
X122798574Y-117040797D01*
X122777750Y-117035581D01*
X122757538Y-117028349D01*
X122738132Y-117019170D01*
X122719719Y-117008134D01*
X122702476Y-116995346D01*
X122686570Y-116980930D01*
X122672154Y-116965024D01*
X122659366Y-116947781D01*
X122648330Y-116929368D01*
X122639151Y-116909962D01*
X122631919Y-116889750D01*
X122626703Y-116868926D01*
X122623553Y-116847691D01*
X122622500Y-116826250D01*
X122622500Y-116313750D01*
X122623553Y-116292309D01*
X122626703Y-116271074D01*
X122631919Y-116250250D01*
X122639151Y-116230038D01*
X122648330Y-116210632D01*
X122659366Y-116192219D01*
X122672154Y-116174976D01*
X122686570Y-116159070D01*
X122702476Y-116144654D01*
X122719719Y-116131866D01*
X122738132Y-116120830D01*
X122757538Y-116111651D01*
X122777750Y-116104419D01*
X122798574Y-116099203D01*
X122819809Y-116096053D01*
X122841250Y-116095000D01*
X123278750Y-116095000D01*
X123300191Y-116096053D01*
X123300191Y-116096053D01*
G37*
D20*
X123060000Y-116570000D03*
D19*
G36*
X117897691Y-115808553D02*
G01*
X117918926Y-115811703D01*
X117939750Y-115816919D01*
X117959962Y-115824151D01*
X117979368Y-115833330D01*
X117997781Y-115844366D01*
X118015024Y-115857154D01*
X118030930Y-115871570D01*
X118045346Y-115887476D01*
X118058134Y-115904719D01*
X118069170Y-115923132D01*
X118078349Y-115942538D01*
X118085581Y-115962750D01*
X118090797Y-115983574D01*
X118093947Y-116004809D01*
X118095000Y-116026250D01*
X118095000Y-116463750D01*
X118093947Y-116485191D01*
X118090797Y-116506426D01*
X118085581Y-116527250D01*
X118078349Y-116547462D01*
X118069170Y-116566868D01*
X118058134Y-116585281D01*
X118045346Y-116602524D01*
X118030930Y-116618430D01*
X118015024Y-116632846D01*
X117997781Y-116645634D01*
X117979368Y-116656670D01*
X117959962Y-116665849D01*
X117939750Y-116673081D01*
X117918926Y-116678297D01*
X117897691Y-116681447D01*
X117876250Y-116682500D01*
X117363750Y-116682500D01*
X117342309Y-116681447D01*
X117321074Y-116678297D01*
X117300250Y-116673081D01*
X117280038Y-116665849D01*
X117260632Y-116656670D01*
X117242219Y-116645634D01*
X117224976Y-116632846D01*
X117209070Y-116618430D01*
X117194654Y-116602524D01*
X117181866Y-116585281D01*
X117170830Y-116566868D01*
X117161651Y-116547462D01*
X117154419Y-116527250D01*
X117149203Y-116506426D01*
X117146053Y-116485191D01*
X117145000Y-116463750D01*
X117145000Y-116026250D01*
X117146053Y-116004809D01*
X117149203Y-115983574D01*
X117154419Y-115962750D01*
X117161651Y-115942538D01*
X117170830Y-115923132D01*
X117181866Y-115904719D01*
X117194654Y-115887476D01*
X117209070Y-115871570D01*
X117224976Y-115857154D01*
X117242219Y-115844366D01*
X117260632Y-115833330D01*
X117280038Y-115824151D01*
X117300250Y-115816919D01*
X117321074Y-115811703D01*
X117342309Y-115808553D01*
X117363750Y-115807500D01*
X117876250Y-115807500D01*
X117897691Y-115808553D01*
X117897691Y-115808553D01*
G37*
D20*
X117620000Y-116245000D03*
D19*
G36*
X117897691Y-114233553D02*
G01*
X117918926Y-114236703D01*
X117939750Y-114241919D01*
X117959962Y-114249151D01*
X117979368Y-114258330D01*
X117997781Y-114269366D01*
X118015024Y-114282154D01*
X118030930Y-114296570D01*
X118045346Y-114312476D01*
X118058134Y-114329719D01*
X118069170Y-114348132D01*
X118078349Y-114367538D01*
X118085581Y-114387750D01*
X118090797Y-114408574D01*
X118093947Y-114429809D01*
X118095000Y-114451250D01*
X118095000Y-114888750D01*
X118093947Y-114910191D01*
X118090797Y-114931426D01*
X118085581Y-114952250D01*
X118078349Y-114972462D01*
X118069170Y-114991868D01*
X118058134Y-115010281D01*
X118045346Y-115027524D01*
X118030930Y-115043430D01*
X118015024Y-115057846D01*
X117997781Y-115070634D01*
X117979368Y-115081670D01*
X117959962Y-115090849D01*
X117939750Y-115098081D01*
X117918926Y-115103297D01*
X117897691Y-115106447D01*
X117876250Y-115107500D01*
X117363750Y-115107500D01*
X117342309Y-115106447D01*
X117321074Y-115103297D01*
X117300250Y-115098081D01*
X117280038Y-115090849D01*
X117260632Y-115081670D01*
X117242219Y-115070634D01*
X117224976Y-115057846D01*
X117209070Y-115043430D01*
X117194654Y-115027524D01*
X117181866Y-115010281D01*
X117170830Y-114991868D01*
X117161651Y-114972462D01*
X117154419Y-114952250D01*
X117149203Y-114931426D01*
X117146053Y-114910191D01*
X117145000Y-114888750D01*
X117145000Y-114451250D01*
X117146053Y-114429809D01*
X117149203Y-114408574D01*
X117154419Y-114387750D01*
X117161651Y-114367538D01*
X117170830Y-114348132D01*
X117181866Y-114329719D01*
X117194654Y-114312476D01*
X117209070Y-114296570D01*
X117224976Y-114282154D01*
X117242219Y-114269366D01*
X117260632Y-114258330D01*
X117280038Y-114249151D01*
X117300250Y-114241919D01*
X117321074Y-114236703D01*
X117342309Y-114233553D01*
X117363750Y-114232500D01*
X117876250Y-114232500D01*
X117897691Y-114233553D01*
X117897691Y-114233553D01*
G37*
D20*
X117620000Y-114670000D03*
D19*
G36*
X115515191Y-96656053D02*
G01*
X115536426Y-96659203D01*
X115557250Y-96664419D01*
X115577462Y-96671651D01*
X115596868Y-96680830D01*
X115615281Y-96691866D01*
X115632524Y-96704654D01*
X115648430Y-96719070D01*
X115662846Y-96734976D01*
X115675634Y-96752219D01*
X115686670Y-96770632D01*
X115695849Y-96790038D01*
X115703081Y-96810250D01*
X115708297Y-96831074D01*
X115711447Y-96852309D01*
X115712500Y-96873750D01*
X115712500Y-97386250D01*
X115711447Y-97407691D01*
X115708297Y-97428926D01*
X115703081Y-97449750D01*
X115695849Y-97469962D01*
X115686670Y-97489368D01*
X115675634Y-97507781D01*
X115662846Y-97525024D01*
X115648430Y-97540930D01*
X115632524Y-97555346D01*
X115615281Y-97568134D01*
X115596868Y-97579170D01*
X115577462Y-97588349D01*
X115557250Y-97595581D01*
X115536426Y-97600797D01*
X115515191Y-97603947D01*
X115493750Y-97605000D01*
X115056250Y-97605000D01*
X115034809Y-97603947D01*
X115013574Y-97600797D01*
X114992750Y-97595581D01*
X114972538Y-97588349D01*
X114953132Y-97579170D01*
X114934719Y-97568134D01*
X114917476Y-97555346D01*
X114901570Y-97540930D01*
X114887154Y-97525024D01*
X114874366Y-97507781D01*
X114863330Y-97489368D01*
X114854151Y-97469962D01*
X114846919Y-97449750D01*
X114841703Y-97428926D01*
X114838553Y-97407691D01*
X114837500Y-97386250D01*
X114837500Y-96873750D01*
X114838553Y-96852309D01*
X114841703Y-96831074D01*
X114846919Y-96810250D01*
X114854151Y-96790038D01*
X114863330Y-96770632D01*
X114874366Y-96752219D01*
X114887154Y-96734976D01*
X114901570Y-96719070D01*
X114917476Y-96704654D01*
X114934719Y-96691866D01*
X114953132Y-96680830D01*
X114972538Y-96671651D01*
X114992750Y-96664419D01*
X115013574Y-96659203D01*
X115034809Y-96656053D01*
X115056250Y-96655000D01*
X115493750Y-96655000D01*
X115515191Y-96656053D01*
X115515191Y-96656053D01*
G37*
D20*
X115275000Y-97130000D03*
D19*
G36*
X117090191Y-96656053D02*
G01*
X117111426Y-96659203D01*
X117132250Y-96664419D01*
X117152462Y-96671651D01*
X117171868Y-96680830D01*
X117190281Y-96691866D01*
X117207524Y-96704654D01*
X117223430Y-96719070D01*
X117237846Y-96734976D01*
X117250634Y-96752219D01*
X117261670Y-96770632D01*
X117270849Y-96790038D01*
X117278081Y-96810250D01*
X117283297Y-96831074D01*
X117286447Y-96852309D01*
X117287500Y-96873750D01*
X117287500Y-97386250D01*
X117286447Y-97407691D01*
X117283297Y-97428926D01*
X117278081Y-97449750D01*
X117270849Y-97469962D01*
X117261670Y-97489368D01*
X117250634Y-97507781D01*
X117237846Y-97525024D01*
X117223430Y-97540930D01*
X117207524Y-97555346D01*
X117190281Y-97568134D01*
X117171868Y-97579170D01*
X117152462Y-97588349D01*
X117132250Y-97595581D01*
X117111426Y-97600797D01*
X117090191Y-97603947D01*
X117068750Y-97605000D01*
X116631250Y-97605000D01*
X116609809Y-97603947D01*
X116588574Y-97600797D01*
X116567750Y-97595581D01*
X116547538Y-97588349D01*
X116528132Y-97579170D01*
X116509719Y-97568134D01*
X116492476Y-97555346D01*
X116476570Y-97540930D01*
X116462154Y-97525024D01*
X116449366Y-97507781D01*
X116438330Y-97489368D01*
X116429151Y-97469962D01*
X116421919Y-97449750D01*
X116416703Y-97428926D01*
X116413553Y-97407691D01*
X116412500Y-97386250D01*
X116412500Y-96873750D01*
X116413553Y-96852309D01*
X116416703Y-96831074D01*
X116421919Y-96810250D01*
X116429151Y-96790038D01*
X116438330Y-96770632D01*
X116449366Y-96752219D01*
X116462154Y-96734976D01*
X116476570Y-96719070D01*
X116492476Y-96704654D01*
X116509719Y-96691866D01*
X116528132Y-96680830D01*
X116547538Y-96671651D01*
X116567750Y-96664419D01*
X116588574Y-96659203D01*
X116609809Y-96656053D01*
X116631250Y-96655000D01*
X117068750Y-96655000D01*
X117090191Y-96656053D01*
X117090191Y-96656053D01*
G37*
D20*
X116850000Y-97130000D03*
D19*
G36*
X131787691Y-89458553D02*
G01*
X131808926Y-89461703D01*
X131829750Y-89466919D01*
X131849962Y-89474151D01*
X131869368Y-89483330D01*
X131887781Y-89494366D01*
X131905024Y-89507154D01*
X131920930Y-89521570D01*
X131935346Y-89537476D01*
X131948134Y-89554719D01*
X131959170Y-89573132D01*
X131968349Y-89592538D01*
X131975581Y-89612750D01*
X131980797Y-89633574D01*
X131983947Y-89654809D01*
X131985000Y-89676250D01*
X131985000Y-90113750D01*
X131983947Y-90135191D01*
X131980797Y-90156426D01*
X131975581Y-90177250D01*
X131968349Y-90197462D01*
X131959170Y-90216868D01*
X131948134Y-90235281D01*
X131935346Y-90252524D01*
X131920930Y-90268430D01*
X131905024Y-90282846D01*
X131887781Y-90295634D01*
X131869368Y-90306670D01*
X131849962Y-90315849D01*
X131829750Y-90323081D01*
X131808926Y-90328297D01*
X131787691Y-90331447D01*
X131766250Y-90332500D01*
X131253750Y-90332500D01*
X131232309Y-90331447D01*
X131211074Y-90328297D01*
X131190250Y-90323081D01*
X131170038Y-90315849D01*
X131150632Y-90306670D01*
X131132219Y-90295634D01*
X131114976Y-90282846D01*
X131099070Y-90268430D01*
X131084654Y-90252524D01*
X131071866Y-90235281D01*
X131060830Y-90216868D01*
X131051651Y-90197462D01*
X131044419Y-90177250D01*
X131039203Y-90156426D01*
X131036053Y-90135191D01*
X131035000Y-90113750D01*
X131035000Y-89676250D01*
X131036053Y-89654809D01*
X131039203Y-89633574D01*
X131044419Y-89612750D01*
X131051651Y-89592538D01*
X131060830Y-89573132D01*
X131071866Y-89554719D01*
X131084654Y-89537476D01*
X131099070Y-89521570D01*
X131114976Y-89507154D01*
X131132219Y-89494366D01*
X131150632Y-89483330D01*
X131170038Y-89474151D01*
X131190250Y-89466919D01*
X131211074Y-89461703D01*
X131232309Y-89458553D01*
X131253750Y-89457500D01*
X131766250Y-89457500D01*
X131787691Y-89458553D01*
X131787691Y-89458553D01*
G37*
D20*
X131510000Y-89895000D03*
D19*
G36*
X131787691Y-91033553D02*
G01*
X131808926Y-91036703D01*
X131829750Y-91041919D01*
X131849962Y-91049151D01*
X131869368Y-91058330D01*
X131887781Y-91069366D01*
X131905024Y-91082154D01*
X131920930Y-91096570D01*
X131935346Y-91112476D01*
X131948134Y-91129719D01*
X131959170Y-91148132D01*
X131968349Y-91167538D01*
X131975581Y-91187750D01*
X131980797Y-91208574D01*
X131983947Y-91229809D01*
X131985000Y-91251250D01*
X131985000Y-91688750D01*
X131983947Y-91710191D01*
X131980797Y-91731426D01*
X131975581Y-91752250D01*
X131968349Y-91772462D01*
X131959170Y-91791868D01*
X131948134Y-91810281D01*
X131935346Y-91827524D01*
X131920930Y-91843430D01*
X131905024Y-91857846D01*
X131887781Y-91870634D01*
X131869368Y-91881670D01*
X131849962Y-91890849D01*
X131829750Y-91898081D01*
X131808926Y-91903297D01*
X131787691Y-91906447D01*
X131766250Y-91907500D01*
X131253750Y-91907500D01*
X131232309Y-91906447D01*
X131211074Y-91903297D01*
X131190250Y-91898081D01*
X131170038Y-91890849D01*
X131150632Y-91881670D01*
X131132219Y-91870634D01*
X131114976Y-91857846D01*
X131099070Y-91843430D01*
X131084654Y-91827524D01*
X131071866Y-91810281D01*
X131060830Y-91791868D01*
X131051651Y-91772462D01*
X131044419Y-91752250D01*
X131039203Y-91731426D01*
X131036053Y-91710191D01*
X131035000Y-91688750D01*
X131035000Y-91251250D01*
X131036053Y-91229809D01*
X131039203Y-91208574D01*
X131044419Y-91187750D01*
X131051651Y-91167538D01*
X131060830Y-91148132D01*
X131071866Y-91129719D01*
X131084654Y-91112476D01*
X131099070Y-91096570D01*
X131114976Y-91082154D01*
X131132219Y-91069366D01*
X131150632Y-91058330D01*
X131170038Y-91049151D01*
X131190250Y-91041919D01*
X131211074Y-91036703D01*
X131232309Y-91033553D01*
X131253750Y-91032500D01*
X131766250Y-91032500D01*
X131787691Y-91033553D01*
X131787691Y-91033553D01*
G37*
D20*
X131510000Y-91470000D03*
D19*
G36*
X126147691Y-89458553D02*
G01*
X126168926Y-89461703D01*
X126189750Y-89466919D01*
X126209962Y-89474151D01*
X126229368Y-89483330D01*
X126247781Y-89494366D01*
X126265024Y-89507154D01*
X126280930Y-89521570D01*
X126295346Y-89537476D01*
X126308134Y-89554719D01*
X126319170Y-89573132D01*
X126328349Y-89592538D01*
X126335581Y-89612750D01*
X126340797Y-89633574D01*
X126343947Y-89654809D01*
X126345000Y-89676250D01*
X126345000Y-90113750D01*
X126343947Y-90135191D01*
X126340797Y-90156426D01*
X126335581Y-90177250D01*
X126328349Y-90197462D01*
X126319170Y-90216868D01*
X126308134Y-90235281D01*
X126295346Y-90252524D01*
X126280930Y-90268430D01*
X126265024Y-90282846D01*
X126247781Y-90295634D01*
X126229368Y-90306670D01*
X126209962Y-90315849D01*
X126189750Y-90323081D01*
X126168926Y-90328297D01*
X126147691Y-90331447D01*
X126126250Y-90332500D01*
X125613750Y-90332500D01*
X125592309Y-90331447D01*
X125571074Y-90328297D01*
X125550250Y-90323081D01*
X125530038Y-90315849D01*
X125510632Y-90306670D01*
X125492219Y-90295634D01*
X125474976Y-90282846D01*
X125459070Y-90268430D01*
X125444654Y-90252524D01*
X125431866Y-90235281D01*
X125420830Y-90216868D01*
X125411651Y-90197462D01*
X125404419Y-90177250D01*
X125399203Y-90156426D01*
X125396053Y-90135191D01*
X125395000Y-90113750D01*
X125395000Y-89676250D01*
X125396053Y-89654809D01*
X125399203Y-89633574D01*
X125404419Y-89612750D01*
X125411651Y-89592538D01*
X125420830Y-89573132D01*
X125431866Y-89554719D01*
X125444654Y-89537476D01*
X125459070Y-89521570D01*
X125474976Y-89507154D01*
X125492219Y-89494366D01*
X125510632Y-89483330D01*
X125530038Y-89474151D01*
X125550250Y-89466919D01*
X125571074Y-89461703D01*
X125592309Y-89458553D01*
X125613750Y-89457500D01*
X126126250Y-89457500D01*
X126147691Y-89458553D01*
X126147691Y-89458553D01*
G37*
D20*
X125870000Y-89895000D03*
D19*
G36*
X126147691Y-91033553D02*
G01*
X126168926Y-91036703D01*
X126189750Y-91041919D01*
X126209962Y-91049151D01*
X126229368Y-91058330D01*
X126247781Y-91069366D01*
X126265024Y-91082154D01*
X126280930Y-91096570D01*
X126295346Y-91112476D01*
X126308134Y-91129719D01*
X126319170Y-91148132D01*
X126328349Y-91167538D01*
X126335581Y-91187750D01*
X126340797Y-91208574D01*
X126343947Y-91229809D01*
X126345000Y-91251250D01*
X126345000Y-91688750D01*
X126343947Y-91710191D01*
X126340797Y-91731426D01*
X126335581Y-91752250D01*
X126328349Y-91772462D01*
X126319170Y-91791868D01*
X126308134Y-91810281D01*
X126295346Y-91827524D01*
X126280930Y-91843430D01*
X126265024Y-91857846D01*
X126247781Y-91870634D01*
X126229368Y-91881670D01*
X126209962Y-91890849D01*
X126189750Y-91898081D01*
X126168926Y-91903297D01*
X126147691Y-91906447D01*
X126126250Y-91907500D01*
X125613750Y-91907500D01*
X125592309Y-91906447D01*
X125571074Y-91903297D01*
X125550250Y-91898081D01*
X125530038Y-91890849D01*
X125510632Y-91881670D01*
X125492219Y-91870634D01*
X125474976Y-91857846D01*
X125459070Y-91843430D01*
X125444654Y-91827524D01*
X125431866Y-91810281D01*
X125420830Y-91791868D01*
X125411651Y-91772462D01*
X125404419Y-91752250D01*
X125399203Y-91731426D01*
X125396053Y-91710191D01*
X125395000Y-91688750D01*
X125395000Y-91251250D01*
X125396053Y-91229809D01*
X125399203Y-91208574D01*
X125404419Y-91187750D01*
X125411651Y-91167538D01*
X125420830Y-91148132D01*
X125431866Y-91129719D01*
X125444654Y-91112476D01*
X125459070Y-91096570D01*
X125474976Y-91082154D01*
X125492219Y-91069366D01*
X125510632Y-91058330D01*
X125530038Y-91049151D01*
X125550250Y-91041919D01*
X125571074Y-91036703D01*
X125592309Y-91033553D01*
X125613750Y-91032500D01*
X126126250Y-91032500D01*
X126147691Y-91033553D01*
X126147691Y-91033553D01*
G37*
D20*
X125870000Y-91470000D03*
D19*
G36*
X128357691Y-108438553D02*
G01*
X128378926Y-108441703D01*
X128399750Y-108446919D01*
X128419962Y-108454151D01*
X128439368Y-108463330D01*
X128457781Y-108474366D01*
X128475024Y-108487154D01*
X128490930Y-108501570D01*
X128505346Y-108517476D01*
X128518134Y-108534719D01*
X128529170Y-108553132D01*
X128538349Y-108572538D01*
X128545581Y-108592750D01*
X128550797Y-108613574D01*
X128553947Y-108634809D01*
X128555000Y-108656250D01*
X128555000Y-109093750D01*
X128553947Y-109115191D01*
X128550797Y-109136426D01*
X128545581Y-109157250D01*
X128538349Y-109177462D01*
X128529170Y-109196868D01*
X128518134Y-109215281D01*
X128505346Y-109232524D01*
X128490930Y-109248430D01*
X128475024Y-109262846D01*
X128457781Y-109275634D01*
X128439368Y-109286670D01*
X128419962Y-109295849D01*
X128399750Y-109303081D01*
X128378926Y-109308297D01*
X128357691Y-109311447D01*
X128336250Y-109312500D01*
X127823750Y-109312500D01*
X127802309Y-109311447D01*
X127781074Y-109308297D01*
X127760250Y-109303081D01*
X127740038Y-109295849D01*
X127720632Y-109286670D01*
X127702219Y-109275634D01*
X127684976Y-109262846D01*
X127669070Y-109248430D01*
X127654654Y-109232524D01*
X127641866Y-109215281D01*
X127630830Y-109196868D01*
X127621651Y-109177462D01*
X127614419Y-109157250D01*
X127609203Y-109136426D01*
X127606053Y-109115191D01*
X127605000Y-109093750D01*
X127605000Y-108656250D01*
X127606053Y-108634809D01*
X127609203Y-108613574D01*
X127614419Y-108592750D01*
X127621651Y-108572538D01*
X127630830Y-108553132D01*
X127641866Y-108534719D01*
X127654654Y-108517476D01*
X127669070Y-108501570D01*
X127684976Y-108487154D01*
X127702219Y-108474366D01*
X127720632Y-108463330D01*
X127740038Y-108454151D01*
X127760250Y-108446919D01*
X127781074Y-108441703D01*
X127802309Y-108438553D01*
X127823750Y-108437500D01*
X128336250Y-108437500D01*
X128357691Y-108438553D01*
X128357691Y-108438553D01*
G37*
D20*
X128080000Y-108875000D03*
D19*
G36*
X128357691Y-106863553D02*
G01*
X128378926Y-106866703D01*
X128399750Y-106871919D01*
X128419962Y-106879151D01*
X128439368Y-106888330D01*
X128457781Y-106899366D01*
X128475024Y-106912154D01*
X128490930Y-106926570D01*
X128505346Y-106942476D01*
X128518134Y-106959719D01*
X128529170Y-106978132D01*
X128538349Y-106997538D01*
X128545581Y-107017750D01*
X128550797Y-107038574D01*
X128553947Y-107059809D01*
X128555000Y-107081250D01*
X128555000Y-107518750D01*
X128553947Y-107540191D01*
X128550797Y-107561426D01*
X128545581Y-107582250D01*
X128538349Y-107602462D01*
X128529170Y-107621868D01*
X128518134Y-107640281D01*
X128505346Y-107657524D01*
X128490930Y-107673430D01*
X128475024Y-107687846D01*
X128457781Y-107700634D01*
X128439368Y-107711670D01*
X128419962Y-107720849D01*
X128399750Y-107728081D01*
X128378926Y-107733297D01*
X128357691Y-107736447D01*
X128336250Y-107737500D01*
X127823750Y-107737500D01*
X127802309Y-107736447D01*
X127781074Y-107733297D01*
X127760250Y-107728081D01*
X127740038Y-107720849D01*
X127720632Y-107711670D01*
X127702219Y-107700634D01*
X127684976Y-107687846D01*
X127669070Y-107673430D01*
X127654654Y-107657524D01*
X127641866Y-107640281D01*
X127630830Y-107621868D01*
X127621651Y-107602462D01*
X127614419Y-107582250D01*
X127609203Y-107561426D01*
X127606053Y-107540191D01*
X127605000Y-107518750D01*
X127605000Y-107081250D01*
X127606053Y-107059809D01*
X127609203Y-107038574D01*
X127614419Y-107017750D01*
X127621651Y-106997538D01*
X127630830Y-106978132D01*
X127641866Y-106959719D01*
X127654654Y-106942476D01*
X127669070Y-106926570D01*
X127684976Y-106912154D01*
X127702219Y-106899366D01*
X127720632Y-106888330D01*
X127740038Y-106879151D01*
X127760250Y-106871919D01*
X127781074Y-106866703D01*
X127802309Y-106863553D01*
X127823750Y-106862500D01*
X128336250Y-106862500D01*
X128357691Y-106863553D01*
X128357691Y-106863553D01*
G37*
D20*
X128080000Y-107300000D03*
D19*
G36*
X122537691Y-110138553D02*
G01*
X122558926Y-110141703D01*
X122579750Y-110146919D01*
X122599962Y-110154151D01*
X122619368Y-110163330D01*
X122637781Y-110174366D01*
X122655024Y-110187154D01*
X122670930Y-110201570D01*
X122685346Y-110217476D01*
X122698134Y-110234719D01*
X122709170Y-110253132D01*
X122718349Y-110272538D01*
X122725581Y-110292750D01*
X122730797Y-110313574D01*
X122733947Y-110334809D01*
X122735000Y-110356250D01*
X122735000Y-110793750D01*
X122733947Y-110815191D01*
X122730797Y-110836426D01*
X122725581Y-110857250D01*
X122718349Y-110877462D01*
X122709170Y-110896868D01*
X122698134Y-110915281D01*
X122685346Y-110932524D01*
X122670930Y-110948430D01*
X122655024Y-110962846D01*
X122637781Y-110975634D01*
X122619368Y-110986670D01*
X122599962Y-110995849D01*
X122579750Y-111003081D01*
X122558926Y-111008297D01*
X122537691Y-111011447D01*
X122516250Y-111012500D01*
X122003750Y-111012500D01*
X121982309Y-111011447D01*
X121961074Y-111008297D01*
X121940250Y-111003081D01*
X121920038Y-110995849D01*
X121900632Y-110986670D01*
X121882219Y-110975634D01*
X121864976Y-110962846D01*
X121849070Y-110948430D01*
X121834654Y-110932524D01*
X121821866Y-110915281D01*
X121810830Y-110896868D01*
X121801651Y-110877462D01*
X121794419Y-110857250D01*
X121789203Y-110836426D01*
X121786053Y-110815191D01*
X121785000Y-110793750D01*
X121785000Y-110356250D01*
X121786053Y-110334809D01*
X121789203Y-110313574D01*
X121794419Y-110292750D01*
X121801651Y-110272538D01*
X121810830Y-110253132D01*
X121821866Y-110234719D01*
X121834654Y-110217476D01*
X121849070Y-110201570D01*
X121864976Y-110187154D01*
X121882219Y-110174366D01*
X121900632Y-110163330D01*
X121920038Y-110154151D01*
X121940250Y-110146919D01*
X121961074Y-110141703D01*
X121982309Y-110138553D01*
X122003750Y-110137500D01*
X122516250Y-110137500D01*
X122537691Y-110138553D01*
X122537691Y-110138553D01*
G37*
D20*
X122260000Y-110575000D03*
D19*
G36*
X122537691Y-108563553D02*
G01*
X122558926Y-108566703D01*
X122579750Y-108571919D01*
X122599962Y-108579151D01*
X122619368Y-108588330D01*
X122637781Y-108599366D01*
X122655024Y-108612154D01*
X122670930Y-108626570D01*
X122685346Y-108642476D01*
X122698134Y-108659719D01*
X122709170Y-108678132D01*
X122718349Y-108697538D01*
X122725581Y-108717750D01*
X122730797Y-108738574D01*
X122733947Y-108759809D01*
X122735000Y-108781250D01*
X122735000Y-109218750D01*
X122733947Y-109240191D01*
X122730797Y-109261426D01*
X122725581Y-109282250D01*
X122718349Y-109302462D01*
X122709170Y-109321868D01*
X122698134Y-109340281D01*
X122685346Y-109357524D01*
X122670930Y-109373430D01*
X122655024Y-109387846D01*
X122637781Y-109400634D01*
X122619368Y-109411670D01*
X122599962Y-109420849D01*
X122579750Y-109428081D01*
X122558926Y-109433297D01*
X122537691Y-109436447D01*
X122516250Y-109437500D01*
X122003750Y-109437500D01*
X121982309Y-109436447D01*
X121961074Y-109433297D01*
X121940250Y-109428081D01*
X121920038Y-109420849D01*
X121900632Y-109411670D01*
X121882219Y-109400634D01*
X121864976Y-109387846D01*
X121849070Y-109373430D01*
X121834654Y-109357524D01*
X121821866Y-109340281D01*
X121810830Y-109321868D01*
X121801651Y-109302462D01*
X121794419Y-109282250D01*
X121789203Y-109261426D01*
X121786053Y-109240191D01*
X121785000Y-109218750D01*
X121785000Y-108781250D01*
X121786053Y-108759809D01*
X121789203Y-108738574D01*
X121794419Y-108717750D01*
X121801651Y-108697538D01*
X121810830Y-108678132D01*
X121821866Y-108659719D01*
X121834654Y-108642476D01*
X121849070Y-108626570D01*
X121864976Y-108612154D01*
X121882219Y-108599366D01*
X121900632Y-108588330D01*
X121920038Y-108579151D01*
X121940250Y-108571919D01*
X121961074Y-108566703D01*
X121982309Y-108563553D01*
X122003750Y-108562500D01*
X122516250Y-108562500D01*
X122537691Y-108563553D01*
X122537691Y-108563553D01*
G37*
D20*
X122260000Y-109000000D03*
D19*
G36*
X123157691Y-102173553D02*
G01*
X123178926Y-102176703D01*
X123199750Y-102181919D01*
X123219962Y-102189151D01*
X123239368Y-102198330D01*
X123257781Y-102209366D01*
X123275024Y-102222154D01*
X123290930Y-102236570D01*
X123305346Y-102252476D01*
X123318134Y-102269719D01*
X123329170Y-102288132D01*
X123338349Y-102307538D01*
X123345581Y-102327750D01*
X123350797Y-102348574D01*
X123353947Y-102369809D01*
X123355000Y-102391250D01*
X123355000Y-102828750D01*
X123353947Y-102850191D01*
X123350797Y-102871426D01*
X123345581Y-102892250D01*
X123338349Y-102912462D01*
X123329170Y-102931868D01*
X123318134Y-102950281D01*
X123305346Y-102967524D01*
X123290930Y-102983430D01*
X123275024Y-102997846D01*
X123257781Y-103010634D01*
X123239368Y-103021670D01*
X123219962Y-103030849D01*
X123199750Y-103038081D01*
X123178926Y-103043297D01*
X123157691Y-103046447D01*
X123136250Y-103047500D01*
X122623750Y-103047500D01*
X122602309Y-103046447D01*
X122581074Y-103043297D01*
X122560250Y-103038081D01*
X122540038Y-103030849D01*
X122520632Y-103021670D01*
X122502219Y-103010634D01*
X122484976Y-102997846D01*
X122469070Y-102983430D01*
X122454654Y-102967524D01*
X122441866Y-102950281D01*
X122430830Y-102931868D01*
X122421651Y-102912462D01*
X122414419Y-102892250D01*
X122409203Y-102871426D01*
X122406053Y-102850191D01*
X122405000Y-102828750D01*
X122405000Y-102391250D01*
X122406053Y-102369809D01*
X122409203Y-102348574D01*
X122414419Y-102327750D01*
X122421651Y-102307538D01*
X122430830Y-102288132D01*
X122441866Y-102269719D01*
X122454654Y-102252476D01*
X122469070Y-102236570D01*
X122484976Y-102222154D01*
X122502219Y-102209366D01*
X122520632Y-102198330D01*
X122540038Y-102189151D01*
X122560250Y-102181919D01*
X122581074Y-102176703D01*
X122602309Y-102173553D01*
X122623750Y-102172500D01*
X123136250Y-102172500D01*
X123157691Y-102173553D01*
X123157691Y-102173553D01*
G37*
D20*
X122880000Y-102610000D03*
D19*
G36*
X123157691Y-100598553D02*
G01*
X123178926Y-100601703D01*
X123199750Y-100606919D01*
X123219962Y-100614151D01*
X123239368Y-100623330D01*
X123257781Y-100634366D01*
X123275024Y-100647154D01*
X123290930Y-100661570D01*
X123305346Y-100677476D01*
X123318134Y-100694719D01*
X123329170Y-100713132D01*
X123338349Y-100732538D01*
X123345581Y-100752750D01*
X123350797Y-100773574D01*
X123353947Y-100794809D01*
X123355000Y-100816250D01*
X123355000Y-101253750D01*
X123353947Y-101275191D01*
X123350797Y-101296426D01*
X123345581Y-101317250D01*
X123338349Y-101337462D01*
X123329170Y-101356868D01*
X123318134Y-101375281D01*
X123305346Y-101392524D01*
X123290930Y-101408430D01*
X123275024Y-101422846D01*
X123257781Y-101435634D01*
X123239368Y-101446670D01*
X123219962Y-101455849D01*
X123199750Y-101463081D01*
X123178926Y-101468297D01*
X123157691Y-101471447D01*
X123136250Y-101472500D01*
X122623750Y-101472500D01*
X122602309Y-101471447D01*
X122581074Y-101468297D01*
X122560250Y-101463081D01*
X122540038Y-101455849D01*
X122520632Y-101446670D01*
X122502219Y-101435634D01*
X122484976Y-101422846D01*
X122469070Y-101408430D01*
X122454654Y-101392524D01*
X122441866Y-101375281D01*
X122430830Y-101356868D01*
X122421651Y-101337462D01*
X122414419Y-101317250D01*
X122409203Y-101296426D01*
X122406053Y-101275191D01*
X122405000Y-101253750D01*
X122405000Y-100816250D01*
X122406053Y-100794809D01*
X122409203Y-100773574D01*
X122414419Y-100752750D01*
X122421651Y-100732538D01*
X122430830Y-100713132D01*
X122441866Y-100694719D01*
X122454654Y-100677476D01*
X122469070Y-100661570D01*
X122484976Y-100647154D01*
X122502219Y-100634366D01*
X122520632Y-100623330D01*
X122540038Y-100614151D01*
X122560250Y-100606919D01*
X122581074Y-100601703D01*
X122602309Y-100598553D01*
X122623750Y-100597500D01*
X123136250Y-100597500D01*
X123157691Y-100598553D01*
X123157691Y-100598553D01*
G37*
D20*
X122880000Y-101035000D03*
D19*
G36*
X120017691Y-102173553D02*
G01*
X120038926Y-102176703D01*
X120059750Y-102181919D01*
X120079962Y-102189151D01*
X120099368Y-102198330D01*
X120117781Y-102209366D01*
X120135024Y-102222154D01*
X120150930Y-102236570D01*
X120165346Y-102252476D01*
X120178134Y-102269719D01*
X120189170Y-102288132D01*
X120198349Y-102307538D01*
X120205581Y-102327750D01*
X120210797Y-102348574D01*
X120213947Y-102369809D01*
X120215000Y-102391250D01*
X120215000Y-102828750D01*
X120213947Y-102850191D01*
X120210797Y-102871426D01*
X120205581Y-102892250D01*
X120198349Y-102912462D01*
X120189170Y-102931868D01*
X120178134Y-102950281D01*
X120165346Y-102967524D01*
X120150930Y-102983430D01*
X120135024Y-102997846D01*
X120117781Y-103010634D01*
X120099368Y-103021670D01*
X120079962Y-103030849D01*
X120059750Y-103038081D01*
X120038926Y-103043297D01*
X120017691Y-103046447D01*
X119996250Y-103047500D01*
X119483750Y-103047500D01*
X119462309Y-103046447D01*
X119441074Y-103043297D01*
X119420250Y-103038081D01*
X119400038Y-103030849D01*
X119380632Y-103021670D01*
X119362219Y-103010634D01*
X119344976Y-102997846D01*
X119329070Y-102983430D01*
X119314654Y-102967524D01*
X119301866Y-102950281D01*
X119290830Y-102931868D01*
X119281651Y-102912462D01*
X119274419Y-102892250D01*
X119269203Y-102871426D01*
X119266053Y-102850191D01*
X119265000Y-102828750D01*
X119265000Y-102391250D01*
X119266053Y-102369809D01*
X119269203Y-102348574D01*
X119274419Y-102327750D01*
X119281651Y-102307538D01*
X119290830Y-102288132D01*
X119301866Y-102269719D01*
X119314654Y-102252476D01*
X119329070Y-102236570D01*
X119344976Y-102222154D01*
X119362219Y-102209366D01*
X119380632Y-102198330D01*
X119400038Y-102189151D01*
X119420250Y-102181919D01*
X119441074Y-102176703D01*
X119462309Y-102173553D01*
X119483750Y-102172500D01*
X119996250Y-102172500D01*
X120017691Y-102173553D01*
X120017691Y-102173553D01*
G37*
D20*
X119740000Y-102610000D03*
D19*
G36*
X120017691Y-100598553D02*
G01*
X120038926Y-100601703D01*
X120059750Y-100606919D01*
X120079962Y-100614151D01*
X120099368Y-100623330D01*
X120117781Y-100634366D01*
X120135024Y-100647154D01*
X120150930Y-100661570D01*
X120165346Y-100677476D01*
X120178134Y-100694719D01*
X120189170Y-100713132D01*
X120198349Y-100732538D01*
X120205581Y-100752750D01*
X120210797Y-100773574D01*
X120213947Y-100794809D01*
X120215000Y-100816250D01*
X120215000Y-101253750D01*
X120213947Y-101275191D01*
X120210797Y-101296426D01*
X120205581Y-101317250D01*
X120198349Y-101337462D01*
X120189170Y-101356868D01*
X120178134Y-101375281D01*
X120165346Y-101392524D01*
X120150930Y-101408430D01*
X120135024Y-101422846D01*
X120117781Y-101435634D01*
X120099368Y-101446670D01*
X120079962Y-101455849D01*
X120059750Y-101463081D01*
X120038926Y-101468297D01*
X120017691Y-101471447D01*
X119996250Y-101472500D01*
X119483750Y-101472500D01*
X119462309Y-101471447D01*
X119441074Y-101468297D01*
X119420250Y-101463081D01*
X119400038Y-101455849D01*
X119380632Y-101446670D01*
X119362219Y-101435634D01*
X119344976Y-101422846D01*
X119329070Y-101408430D01*
X119314654Y-101392524D01*
X119301866Y-101375281D01*
X119290830Y-101356868D01*
X119281651Y-101337462D01*
X119274419Y-101317250D01*
X119269203Y-101296426D01*
X119266053Y-101275191D01*
X119265000Y-101253750D01*
X119265000Y-100816250D01*
X119266053Y-100794809D01*
X119269203Y-100773574D01*
X119274419Y-100752750D01*
X119281651Y-100732538D01*
X119290830Y-100713132D01*
X119301866Y-100694719D01*
X119314654Y-100677476D01*
X119329070Y-100661570D01*
X119344976Y-100647154D01*
X119362219Y-100634366D01*
X119380632Y-100623330D01*
X119400038Y-100614151D01*
X119420250Y-100606919D01*
X119441074Y-100601703D01*
X119462309Y-100598553D01*
X119483750Y-100597500D01*
X119996250Y-100597500D01*
X120017691Y-100598553D01*
X120017691Y-100598553D01*
G37*
D20*
X119740000Y-101035000D03*
D19*
G36*
X121577691Y-102168553D02*
G01*
X121598926Y-102171703D01*
X121619750Y-102176919D01*
X121639962Y-102184151D01*
X121659368Y-102193330D01*
X121677781Y-102204366D01*
X121695024Y-102217154D01*
X121710930Y-102231570D01*
X121725346Y-102247476D01*
X121738134Y-102264719D01*
X121749170Y-102283132D01*
X121758349Y-102302538D01*
X121765581Y-102322750D01*
X121770797Y-102343574D01*
X121773947Y-102364809D01*
X121775000Y-102386250D01*
X121775000Y-102823750D01*
X121773947Y-102845191D01*
X121770797Y-102866426D01*
X121765581Y-102887250D01*
X121758349Y-102907462D01*
X121749170Y-102926868D01*
X121738134Y-102945281D01*
X121725346Y-102962524D01*
X121710930Y-102978430D01*
X121695024Y-102992846D01*
X121677781Y-103005634D01*
X121659368Y-103016670D01*
X121639962Y-103025849D01*
X121619750Y-103033081D01*
X121598926Y-103038297D01*
X121577691Y-103041447D01*
X121556250Y-103042500D01*
X121043750Y-103042500D01*
X121022309Y-103041447D01*
X121001074Y-103038297D01*
X120980250Y-103033081D01*
X120960038Y-103025849D01*
X120940632Y-103016670D01*
X120922219Y-103005634D01*
X120904976Y-102992846D01*
X120889070Y-102978430D01*
X120874654Y-102962524D01*
X120861866Y-102945281D01*
X120850830Y-102926868D01*
X120841651Y-102907462D01*
X120834419Y-102887250D01*
X120829203Y-102866426D01*
X120826053Y-102845191D01*
X120825000Y-102823750D01*
X120825000Y-102386250D01*
X120826053Y-102364809D01*
X120829203Y-102343574D01*
X120834419Y-102322750D01*
X120841651Y-102302538D01*
X120850830Y-102283132D01*
X120861866Y-102264719D01*
X120874654Y-102247476D01*
X120889070Y-102231570D01*
X120904976Y-102217154D01*
X120922219Y-102204366D01*
X120940632Y-102193330D01*
X120960038Y-102184151D01*
X120980250Y-102176919D01*
X121001074Y-102171703D01*
X121022309Y-102168553D01*
X121043750Y-102167500D01*
X121556250Y-102167500D01*
X121577691Y-102168553D01*
X121577691Y-102168553D01*
G37*
D20*
X121300000Y-102605000D03*
D19*
G36*
X121577691Y-100593553D02*
G01*
X121598926Y-100596703D01*
X121619750Y-100601919D01*
X121639962Y-100609151D01*
X121659368Y-100618330D01*
X121677781Y-100629366D01*
X121695024Y-100642154D01*
X121710930Y-100656570D01*
X121725346Y-100672476D01*
X121738134Y-100689719D01*
X121749170Y-100708132D01*
X121758349Y-100727538D01*
X121765581Y-100747750D01*
X121770797Y-100768574D01*
X121773947Y-100789809D01*
X121775000Y-100811250D01*
X121775000Y-101248750D01*
X121773947Y-101270191D01*
X121770797Y-101291426D01*
X121765581Y-101312250D01*
X121758349Y-101332462D01*
X121749170Y-101351868D01*
X121738134Y-101370281D01*
X121725346Y-101387524D01*
X121710930Y-101403430D01*
X121695024Y-101417846D01*
X121677781Y-101430634D01*
X121659368Y-101441670D01*
X121639962Y-101450849D01*
X121619750Y-101458081D01*
X121598926Y-101463297D01*
X121577691Y-101466447D01*
X121556250Y-101467500D01*
X121043750Y-101467500D01*
X121022309Y-101466447D01*
X121001074Y-101463297D01*
X120980250Y-101458081D01*
X120960038Y-101450849D01*
X120940632Y-101441670D01*
X120922219Y-101430634D01*
X120904976Y-101417846D01*
X120889070Y-101403430D01*
X120874654Y-101387524D01*
X120861866Y-101370281D01*
X120850830Y-101351868D01*
X120841651Y-101332462D01*
X120834419Y-101312250D01*
X120829203Y-101291426D01*
X120826053Y-101270191D01*
X120825000Y-101248750D01*
X120825000Y-100811250D01*
X120826053Y-100789809D01*
X120829203Y-100768574D01*
X120834419Y-100747750D01*
X120841651Y-100727538D01*
X120850830Y-100708132D01*
X120861866Y-100689719D01*
X120874654Y-100672476D01*
X120889070Y-100656570D01*
X120904976Y-100642154D01*
X120922219Y-100629366D01*
X120940632Y-100618330D01*
X120960038Y-100609151D01*
X120980250Y-100601919D01*
X121001074Y-100596703D01*
X121022309Y-100593553D01*
X121043750Y-100592500D01*
X121556250Y-100592500D01*
X121577691Y-100593553D01*
X121577691Y-100593553D01*
G37*
D20*
X121300000Y-101030000D03*
D19*
G36*
X118109691Y-92360053D02*
G01*
X118130926Y-92363203D01*
X118151750Y-92368419D01*
X118171962Y-92375651D01*
X118191368Y-92384830D01*
X118209781Y-92395866D01*
X118227024Y-92408654D01*
X118242930Y-92423070D01*
X118257346Y-92438976D01*
X118270134Y-92456219D01*
X118281170Y-92474632D01*
X118290349Y-92494038D01*
X118297581Y-92514250D01*
X118302797Y-92535074D01*
X118305947Y-92556309D01*
X118307000Y-92577750D01*
X118307000Y-93015250D01*
X118305947Y-93036691D01*
X118302797Y-93057926D01*
X118297581Y-93078750D01*
X118290349Y-93098962D01*
X118281170Y-93118368D01*
X118270134Y-93136781D01*
X118257346Y-93154024D01*
X118242930Y-93169930D01*
X118227024Y-93184346D01*
X118209781Y-93197134D01*
X118191368Y-93208170D01*
X118171962Y-93217349D01*
X118151750Y-93224581D01*
X118130926Y-93229797D01*
X118109691Y-93232947D01*
X118088250Y-93234000D01*
X117575750Y-93234000D01*
X117554309Y-93232947D01*
X117533074Y-93229797D01*
X117512250Y-93224581D01*
X117492038Y-93217349D01*
X117472632Y-93208170D01*
X117454219Y-93197134D01*
X117436976Y-93184346D01*
X117421070Y-93169930D01*
X117406654Y-93154024D01*
X117393866Y-93136781D01*
X117382830Y-93118368D01*
X117373651Y-93098962D01*
X117366419Y-93078750D01*
X117361203Y-93057926D01*
X117358053Y-93036691D01*
X117357000Y-93015250D01*
X117357000Y-92577750D01*
X117358053Y-92556309D01*
X117361203Y-92535074D01*
X117366419Y-92514250D01*
X117373651Y-92494038D01*
X117382830Y-92474632D01*
X117393866Y-92456219D01*
X117406654Y-92438976D01*
X117421070Y-92423070D01*
X117436976Y-92408654D01*
X117454219Y-92395866D01*
X117472632Y-92384830D01*
X117492038Y-92375651D01*
X117512250Y-92368419D01*
X117533074Y-92363203D01*
X117554309Y-92360053D01*
X117575750Y-92359000D01*
X118088250Y-92359000D01*
X118109691Y-92360053D01*
X118109691Y-92360053D01*
G37*
D20*
X117832000Y-92796500D03*
D19*
G36*
X118109691Y-93935053D02*
G01*
X118130926Y-93938203D01*
X118151750Y-93943419D01*
X118171962Y-93950651D01*
X118191368Y-93959830D01*
X118209781Y-93970866D01*
X118227024Y-93983654D01*
X118242930Y-93998070D01*
X118257346Y-94013976D01*
X118270134Y-94031219D01*
X118281170Y-94049632D01*
X118290349Y-94069038D01*
X118297581Y-94089250D01*
X118302797Y-94110074D01*
X118305947Y-94131309D01*
X118307000Y-94152750D01*
X118307000Y-94590250D01*
X118305947Y-94611691D01*
X118302797Y-94632926D01*
X118297581Y-94653750D01*
X118290349Y-94673962D01*
X118281170Y-94693368D01*
X118270134Y-94711781D01*
X118257346Y-94729024D01*
X118242930Y-94744930D01*
X118227024Y-94759346D01*
X118209781Y-94772134D01*
X118191368Y-94783170D01*
X118171962Y-94792349D01*
X118151750Y-94799581D01*
X118130926Y-94804797D01*
X118109691Y-94807947D01*
X118088250Y-94809000D01*
X117575750Y-94809000D01*
X117554309Y-94807947D01*
X117533074Y-94804797D01*
X117512250Y-94799581D01*
X117492038Y-94792349D01*
X117472632Y-94783170D01*
X117454219Y-94772134D01*
X117436976Y-94759346D01*
X117421070Y-94744930D01*
X117406654Y-94729024D01*
X117393866Y-94711781D01*
X117382830Y-94693368D01*
X117373651Y-94673962D01*
X117366419Y-94653750D01*
X117361203Y-94632926D01*
X117358053Y-94611691D01*
X117357000Y-94590250D01*
X117357000Y-94152750D01*
X117358053Y-94131309D01*
X117361203Y-94110074D01*
X117366419Y-94089250D01*
X117373651Y-94069038D01*
X117382830Y-94049632D01*
X117393866Y-94031219D01*
X117406654Y-94013976D01*
X117421070Y-93998070D01*
X117436976Y-93983654D01*
X117454219Y-93970866D01*
X117472632Y-93959830D01*
X117492038Y-93950651D01*
X117512250Y-93943419D01*
X117533074Y-93938203D01*
X117554309Y-93935053D01*
X117575750Y-93934000D01*
X118088250Y-93934000D01*
X118109691Y-93935053D01*
X118109691Y-93935053D01*
G37*
D20*
X117832000Y-94371500D03*
D19*
G36*
X116579691Y-92360053D02*
G01*
X116600926Y-92363203D01*
X116621750Y-92368419D01*
X116641962Y-92375651D01*
X116661368Y-92384830D01*
X116679781Y-92395866D01*
X116697024Y-92408654D01*
X116712930Y-92423070D01*
X116727346Y-92438976D01*
X116740134Y-92456219D01*
X116751170Y-92474632D01*
X116760349Y-92494038D01*
X116767581Y-92514250D01*
X116772797Y-92535074D01*
X116775947Y-92556309D01*
X116777000Y-92577750D01*
X116777000Y-93015250D01*
X116775947Y-93036691D01*
X116772797Y-93057926D01*
X116767581Y-93078750D01*
X116760349Y-93098962D01*
X116751170Y-93118368D01*
X116740134Y-93136781D01*
X116727346Y-93154024D01*
X116712930Y-93169930D01*
X116697024Y-93184346D01*
X116679781Y-93197134D01*
X116661368Y-93208170D01*
X116641962Y-93217349D01*
X116621750Y-93224581D01*
X116600926Y-93229797D01*
X116579691Y-93232947D01*
X116558250Y-93234000D01*
X116045750Y-93234000D01*
X116024309Y-93232947D01*
X116003074Y-93229797D01*
X115982250Y-93224581D01*
X115962038Y-93217349D01*
X115942632Y-93208170D01*
X115924219Y-93197134D01*
X115906976Y-93184346D01*
X115891070Y-93169930D01*
X115876654Y-93154024D01*
X115863866Y-93136781D01*
X115852830Y-93118368D01*
X115843651Y-93098962D01*
X115836419Y-93078750D01*
X115831203Y-93057926D01*
X115828053Y-93036691D01*
X115827000Y-93015250D01*
X115827000Y-92577750D01*
X115828053Y-92556309D01*
X115831203Y-92535074D01*
X115836419Y-92514250D01*
X115843651Y-92494038D01*
X115852830Y-92474632D01*
X115863866Y-92456219D01*
X115876654Y-92438976D01*
X115891070Y-92423070D01*
X115906976Y-92408654D01*
X115924219Y-92395866D01*
X115942632Y-92384830D01*
X115962038Y-92375651D01*
X115982250Y-92368419D01*
X116003074Y-92363203D01*
X116024309Y-92360053D01*
X116045750Y-92359000D01*
X116558250Y-92359000D01*
X116579691Y-92360053D01*
X116579691Y-92360053D01*
G37*
D20*
X116302000Y-92796500D03*
D19*
G36*
X116579691Y-93935053D02*
G01*
X116600926Y-93938203D01*
X116621750Y-93943419D01*
X116641962Y-93950651D01*
X116661368Y-93959830D01*
X116679781Y-93970866D01*
X116697024Y-93983654D01*
X116712930Y-93998070D01*
X116727346Y-94013976D01*
X116740134Y-94031219D01*
X116751170Y-94049632D01*
X116760349Y-94069038D01*
X116767581Y-94089250D01*
X116772797Y-94110074D01*
X116775947Y-94131309D01*
X116777000Y-94152750D01*
X116777000Y-94590250D01*
X116775947Y-94611691D01*
X116772797Y-94632926D01*
X116767581Y-94653750D01*
X116760349Y-94673962D01*
X116751170Y-94693368D01*
X116740134Y-94711781D01*
X116727346Y-94729024D01*
X116712930Y-94744930D01*
X116697024Y-94759346D01*
X116679781Y-94772134D01*
X116661368Y-94783170D01*
X116641962Y-94792349D01*
X116621750Y-94799581D01*
X116600926Y-94804797D01*
X116579691Y-94807947D01*
X116558250Y-94809000D01*
X116045750Y-94809000D01*
X116024309Y-94807947D01*
X116003074Y-94804797D01*
X115982250Y-94799581D01*
X115962038Y-94792349D01*
X115942632Y-94783170D01*
X115924219Y-94772134D01*
X115906976Y-94759346D01*
X115891070Y-94744930D01*
X115876654Y-94729024D01*
X115863866Y-94711781D01*
X115852830Y-94693368D01*
X115843651Y-94673962D01*
X115836419Y-94653750D01*
X115831203Y-94632926D01*
X115828053Y-94611691D01*
X115827000Y-94590250D01*
X115827000Y-94152750D01*
X115828053Y-94131309D01*
X115831203Y-94110074D01*
X115836419Y-94089250D01*
X115843651Y-94069038D01*
X115852830Y-94049632D01*
X115863866Y-94031219D01*
X115876654Y-94013976D01*
X115891070Y-93998070D01*
X115906976Y-93983654D01*
X115924219Y-93970866D01*
X115942632Y-93959830D01*
X115962038Y-93950651D01*
X115982250Y-93943419D01*
X116003074Y-93938203D01*
X116024309Y-93935053D01*
X116045750Y-93934000D01*
X116558250Y-93934000D01*
X116579691Y-93935053D01*
X116579691Y-93935053D01*
G37*
D20*
X116302000Y-94371500D03*
D19*
G36*
X125567691Y-101908553D02*
G01*
X125588926Y-101911703D01*
X125609750Y-101916919D01*
X125629962Y-101924151D01*
X125649368Y-101933330D01*
X125667781Y-101944366D01*
X125685024Y-101957154D01*
X125700930Y-101971570D01*
X125715346Y-101987476D01*
X125728134Y-102004719D01*
X125739170Y-102023132D01*
X125748349Y-102042538D01*
X125755581Y-102062750D01*
X125760797Y-102083574D01*
X125763947Y-102104809D01*
X125765000Y-102126250D01*
X125765000Y-102563750D01*
X125763947Y-102585191D01*
X125760797Y-102606426D01*
X125755581Y-102627250D01*
X125748349Y-102647462D01*
X125739170Y-102666868D01*
X125728134Y-102685281D01*
X125715346Y-102702524D01*
X125700930Y-102718430D01*
X125685024Y-102732846D01*
X125667781Y-102745634D01*
X125649368Y-102756670D01*
X125629962Y-102765849D01*
X125609750Y-102773081D01*
X125588926Y-102778297D01*
X125567691Y-102781447D01*
X125546250Y-102782500D01*
X125033750Y-102782500D01*
X125012309Y-102781447D01*
X124991074Y-102778297D01*
X124970250Y-102773081D01*
X124950038Y-102765849D01*
X124930632Y-102756670D01*
X124912219Y-102745634D01*
X124894976Y-102732846D01*
X124879070Y-102718430D01*
X124864654Y-102702524D01*
X124851866Y-102685281D01*
X124840830Y-102666868D01*
X124831651Y-102647462D01*
X124824419Y-102627250D01*
X124819203Y-102606426D01*
X124816053Y-102585191D01*
X124815000Y-102563750D01*
X124815000Y-102126250D01*
X124816053Y-102104809D01*
X124819203Y-102083574D01*
X124824419Y-102062750D01*
X124831651Y-102042538D01*
X124840830Y-102023132D01*
X124851866Y-102004719D01*
X124864654Y-101987476D01*
X124879070Y-101971570D01*
X124894976Y-101957154D01*
X124912219Y-101944366D01*
X124930632Y-101933330D01*
X124950038Y-101924151D01*
X124970250Y-101916919D01*
X124991074Y-101911703D01*
X125012309Y-101908553D01*
X125033750Y-101907500D01*
X125546250Y-101907500D01*
X125567691Y-101908553D01*
X125567691Y-101908553D01*
G37*
D20*
X125290000Y-102345000D03*
D19*
G36*
X125567691Y-100333553D02*
G01*
X125588926Y-100336703D01*
X125609750Y-100341919D01*
X125629962Y-100349151D01*
X125649368Y-100358330D01*
X125667781Y-100369366D01*
X125685024Y-100382154D01*
X125700930Y-100396570D01*
X125715346Y-100412476D01*
X125728134Y-100429719D01*
X125739170Y-100448132D01*
X125748349Y-100467538D01*
X125755581Y-100487750D01*
X125760797Y-100508574D01*
X125763947Y-100529809D01*
X125765000Y-100551250D01*
X125765000Y-100988750D01*
X125763947Y-101010191D01*
X125760797Y-101031426D01*
X125755581Y-101052250D01*
X125748349Y-101072462D01*
X125739170Y-101091868D01*
X125728134Y-101110281D01*
X125715346Y-101127524D01*
X125700930Y-101143430D01*
X125685024Y-101157846D01*
X125667781Y-101170634D01*
X125649368Y-101181670D01*
X125629962Y-101190849D01*
X125609750Y-101198081D01*
X125588926Y-101203297D01*
X125567691Y-101206447D01*
X125546250Y-101207500D01*
X125033750Y-101207500D01*
X125012309Y-101206447D01*
X124991074Y-101203297D01*
X124970250Y-101198081D01*
X124950038Y-101190849D01*
X124930632Y-101181670D01*
X124912219Y-101170634D01*
X124894976Y-101157846D01*
X124879070Y-101143430D01*
X124864654Y-101127524D01*
X124851866Y-101110281D01*
X124840830Y-101091868D01*
X124831651Y-101072462D01*
X124824419Y-101052250D01*
X124819203Y-101031426D01*
X124816053Y-101010191D01*
X124815000Y-100988750D01*
X124815000Y-100551250D01*
X124816053Y-100529809D01*
X124819203Y-100508574D01*
X124824419Y-100487750D01*
X124831651Y-100467538D01*
X124840830Y-100448132D01*
X124851866Y-100429719D01*
X124864654Y-100412476D01*
X124879070Y-100396570D01*
X124894976Y-100382154D01*
X124912219Y-100369366D01*
X124930632Y-100358330D01*
X124950038Y-100349151D01*
X124970250Y-100341919D01*
X124991074Y-100336703D01*
X125012309Y-100333553D01*
X125033750Y-100332500D01*
X125546250Y-100332500D01*
X125567691Y-100333553D01*
X125567691Y-100333553D01*
G37*
D20*
X125290000Y-100770000D03*
D19*
G36*
X133287691Y-99683553D02*
G01*
X133308926Y-99686703D01*
X133329750Y-99691919D01*
X133349962Y-99699151D01*
X133369368Y-99708330D01*
X133387781Y-99719366D01*
X133405024Y-99732154D01*
X133420930Y-99746570D01*
X133435346Y-99762476D01*
X133448134Y-99779719D01*
X133459170Y-99798132D01*
X133468349Y-99817538D01*
X133475581Y-99837750D01*
X133480797Y-99858574D01*
X133483947Y-99879809D01*
X133485000Y-99901250D01*
X133485000Y-100338750D01*
X133483947Y-100360191D01*
X133480797Y-100381426D01*
X133475581Y-100402250D01*
X133468349Y-100422462D01*
X133459170Y-100441868D01*
X133448134Y-100460281D01*
X133435346Y-100477524D01*
X133420930Y-100493430D01*
X133405024Y-100507846D01*
X133387781Y-100520634D01*
X133369368Y-100531670D01*
X133349962Y-100540849D01*
X133329750Y-100548081D01*
X133308926Y-100553297D01*
X133287691Y-100556447D01*
X133266250Y-100557500D01*
X132753750Y-100557500D01*
X132732309Y-100556447D01*
X132711074Y-100553297D01*
X132690250Y-100548081D01*
X132670038Y-100540849D01*
X132650632Y-100531670D01*
X132632219Y-100520634D01*
X132614976Y-100507846D01*
X132599070Y-100493430D01*
X132584654Y-100477524D01*
X132571866Y-100460281D01*
X132560830Y-100441868D01*
X132551651Y-100422462D01*
X132544419Y-100402250D01*
X132539203Y-100381426D01*
X132536053Y-100360191D01*
X132535000Y-100338750D01*
X132535000Y-99901250D01*
X132536053Y-99879809D01*
X132539203Y-99858574D01*
X132544419Y-99837750D01*
X132551651Y-99817538D01*
X132560830Y-99798132D01*
X132571866Y-99779719D01*
X132584654Y-99762476D01*
X132599070Y-99746570D01*
X132614976Y-99732154D01*
X132632219Y-99719366D01*
X132650632Y-99708330D01*
X132670038Y-99699151D01*
X132690250Y-99691919D01*
X132711074Y-99686703D01*
X132732309Y-99683553D01*
X132753750Y-99682500D01*
X133266250Y-99682500D01*
X133287691Y-99683553D01*
X133287691Y-99683553D01*
G37*
D20*
X133010000Y-100120000D03*
D19*
G36*
X133287691Y-101258553D02*
G01*
X133308926Y-101261703D01*
X133329750Y-101266919D01*
X133349962Y-101274151D01*
X133369368Y-101283330D01*
X133387781Y-101294366D01*
X133405024Y-101307154D01*
X133420930Y-101321570D01*
X133435346Y-101337476D01*
X133448134Y-101354719D01*
X133459170Y-101373132D01*
X133468349Y-101392538D01*
X133475581Y-101412750D01*
X133480797Y-101433574D01*
X133483947Y-101454809D01*
X133485000Y-101476250D01*
X133485000Y-101913750D01*
X133483947Y-101935191D01*
X133480797Y-101956426D01*
X133475581Y-101977250D01*
X133468349Y-101997462D01*
X133459170Y-102016868D01*
X133448134Y-102035281D01*
X133435346Y-102052524D01*
X133420930Y-102068430D01*
X133405024Y-102082846D01*
X133387781Y-102095634D01*
X133369368Y-102106670D01*
X133349962Y-102115849D01*
X133329750Y-102123081D01*
X133308926Y-102128297D01*
X133287691Y-102131447D01*
X133266250Y-102132500D01*
X132753750Y-102132500D01*
X132732309Y-102131447D01*
X132711074Y-102128297D01*
X132690250Y-102123081D01*
X132670038Y-102115849D01*
X132650632Y-102106670D01*
X132632219Y-102095634D01*
X132614976Y-102082846D01*
X132599070Y-102068430D01*
X132584654Y-102052524D01*
X132571866Y-102035281D01*
X132560830Y-102016868D01*
X132551651Y-101997462D01*
X132544419Y-101977250D01*
X132539203Y-101956426D01*
X132536053Y-101935191D01*
X132535000Y-101913750D01*
X132535000Y-101476250D01*
X132536053Y-101454809D01*
X132539203Y-101433574D01*
X132544419Y-101412750D01*
X132551651Y-101392538D01*
X132560830Y-101373132D01*
X132571866Y-101354719D01*
X132584654Y-101337476D01*
X132599070Y-101321570D01*
X132614976Y-101307154D01*
X132632219Y-101294366D01*
X132650632Y-101283330D01*
X132670038Y-101274151D01*
X132690250Y-101266919D01*
X132711074Y-101261703D01*
X132732309Y-101258553D01*
X132753750Y-101257500D01*
X133266250Y-101257500D01*
X133287691Y-101258553D01*
X133287691Y-101258553D01*
G37*
D20*
X133010000Y-101695000D03*
D19*
G36*
X116880191Y-98716053D02*
G01*
X116901426Y-98719203D01*
X116922250Y-98724419D01*
X116942462Y-98731651D01*
X116961868Y-98740830D01*
X116980281Y-98751866D01*
X116997524Y-98764654D01*
X117013430Y-98779070D01*
X117027846Y-98794976D01*
X117040634Y-98812219D01*
X117051670Y-98830632D01*
X117060849Y-98850038D01*
X117068081Y-98870250D01*
X117073297Y-98891074D01*
X117076447Y-98912309D01*
X117077500Y-98933750D01*
X117077500Y-99446250D01*
X117076447Y-99467691D01*
X117073297Y-99488926D01*
X117068081Y-99509750D01*
X117060849Y-99529962D01*
X117051670Y-99549368D01*
X117040634Y-99567781D01*
X117027846Y-99585024D01*
X117013430Y-99600930D01*
X116997524Y-99615346D01*
X116980281Y-99628134D01*
X116961868Y-99639170D01*
X116942462Y-99648349D01*
X116922250Y-99655581D01*
X116901426Y-99660797D01*
X116880191Y-99663947D01*
X116858750Y-99665000D01*
X116421250Y-99665000D01*
X116399809Y-99663947D01*
X116378574Y-99660797D01*
X116357750Y-99655581D01*
X116337538Y-99648349D01*
X116318132Y-99639170D01*
X116299719Y-99628134D01*
X116282476Y-99615346D01*
X116266570Y-99600930D01*
X116252154Y-99585024D01*
X116239366Y-99567781D01*
X116228330Y-99549368D01*
X116219151Y-99529962D01*
X116211919Y-99509750D01*
X116206703Y-99488926D01*
X116203553Y-99467691D01*
X116202500Y-99446250D01*
X116202500Y-98933750D01*
X116203553Y-98912309D01*
X116206703Y-98891074D01*
X116211919Y-98870250D01*
X116219151Y-98850038D01*
X116228330Y-98830632D01*
X116239366Y-98812219D01*
X116252154Y-98794976D01*
X116266570Y-98779070D01*
X116282476Y-98764654D01*
X116299719Y-98751866D01*
X116318132Y-98740830D01*
X116337538Y-98731651D01*
X116357750Y-98724419D01*
X116378574Y-98719203D01*
X116399809Y-98716053D01*
X116421250Y-98715000D01*
X116858750Y-98715000D01*
X116880191Y-98716053D01*
X116880191Y-98716053D01*
G37*
D20*
X116640000Y-99190000D03*
D19*
G36*
X118455191Y-98716053D02*
G01*
X118476426Y-98719203D01*
X118497250Y-98724419D01*
X118517462Y-98731651D01*
X118536868Y-98740830D01*
X118555281Y-98751866D01*
X118572524Y-98764654D01*
X118588430Y-98779070D01*
X118602846Y-98794976D01*
X118615634Y-98812219D01*
X118626670Y-98830632D01*
X118635849Y-98850038D01*
X118643081Y-98870250D01*
X118648297Y-98891074D01*
X118651447Y-98912309D01*
X118652500Y-98933750D01*
X118652500Y-99446250D01*
X118651447Y-99467691D01*
X118648297Y-99488926D01*
X118643081Y-99509750D01*
X118635849Y-99529962D01*
X118626670Y-99549368D01*
X118615634Y-99567781D01*
X118602846Y-99585024D01*
X118588430Y-99600930D01*
X118572524Y-99615346D01*
X118555281Y-99628134D01*
X118536868Y-99639170D01*
X118517462Y-99648349D01*
X118497250Y-99655581D01*
X118476426Y-99660797D01*
X118455191Y-99663947D01*
X118433750Y-99665000D01*
X117996250Y-99665000D01*
X117974809Y-99663947D01*
X117953574Y-99660797D01*
X117932750Y-99655581D01*
X117912538Y-99648349D01*
X117893132Y-99639170D01*
X117874719Y-99628134D01*
X117857476Y-99615346D01*
X117841570Y-99600930D01*
X117827154Y-99585024D01*
X117814366Y-99567781D01*
X117803330Y-99549368D01*
X117794151Y-99529962D01*
X117786919Y-99509750D01*
X117781703Y-99488926D01*
X117778553Y-99467691D01*
X117777500Y-99446250D01*
X117777500Y-98933750D01*
X117778553Y-98912309D01*
X117781703Y-98891074D01*
X117786919Y-98870250D01*
X117794151Y-98850038D01*
X117803330Y-98830632D01*
X117814366Y-98812219D01*
X117827154Y-98794976D01*
X117841570Y-98779070D01*
X117857476Y-98764654D01*
X117874719Y-98751866D01*
X117893132Y-98740830D01*
X117912538Y-98731651D01*
X117932750Y-98724419D01*
X117953574Y-98719203D01*
X117974809Y-98716053D01*
X117996250Y-98715000D01*
X118433750Y-98715000D01*
X118455191Y-98716053D01*
X118455191Y-98716053D01*
G37*
D20*
X118215000Y-99190000D03*
D19*
G36*
X116880191Y-100276053D02*
G01*
X116901426Y-100279203D01*
X116922250Y-100284419D01*
X116942462Y-100291651D01*
X116961868Y-100300830D01*
X116980281Y-100311866D01*
X116997524Y-100324654D01*
X117013430Y-100339070D01*
X117027846Y-100354976D01*
X117040634Y-100372219D01*
X117051670Y-100390632D01*
X117060849Y-100410038D01*
X117068081Y-100430250D01*
X117073297Y-100451074D01*
X117076447Y-100472309D01*
X117077500Y-100493750D01*
X117077500Y-101006250D01*
X117076447Y-101027691D01*
X117073297Y-101048926D01*
X117068081Y-101069750D01*
X117060849Y-101089962D01*
X117051670Y-101109368D01*
X117040634Y-101127781D01*
X117027846Y-101145024D01*
X117013430Y-101160930D01*
X116997524Y-101175346D01*
X116980281Y-101188134D01*
X116961868Y-101199170D01*
X116942462Y-101208349D01*
X116922250Y-101215581D01*
X116901426Y-101220797D01*
X116880191Y-101223947D01*
X116858750Y-101225000D01*
X116421250Y-101225000D01*
X116399809Y-101223947D01*
X116378574Y-101220797D01*
X116357750Y-101215581D01*
X116337538Y-101208349D01*
X116318132Y-101199170D01*
X116299719Y-101188134D01*
X116282476Y-101175346D01*
X116266570Y-101160930D01*
X116252154Y-101145024D01*
X116239366Y-101127781D01*
X116228330Y-101109368D01*
X116219151Y-101089962D01*
X116211919Y-101069750D01*
X116206703Y-101048926D01*
X116203553Y-101027691D01*
X116202500Y-101006250D01*
X116202500Y-100493750D01*
X116203553Y-100472309D01*
X116206703Y-100451074D01*
X116211919Y-100430250D01*
X116219151Y-100410038D01*
X116228330Y-100390632D01*
X116239366Y-100372219D01*
X116252154Y-100354976D01*
X116266570Y-100339070D01*
X116282476Y-100324654D01*
X116299719Y-100311866D01*
X116318132Y-100300830D01*
X116337538Y-100291651D01*
X116357750Y-100284419D01*
X116378574Y-100279203D01*
X116399809Y-100276053D01*
X116421250Y-100275000D01*
X116858750Y-100275000D01*
X116880191Y-100276053D01*
X116880191Y-100276053D01*
G37*
D20*
X116640000Y-100750000D03*
D19*
G36*
X118455191Y-100276053D02*
G01*
X118476426Y-100279203D01*
X118497250Y-100284419D01*
X118517462Y-100291651D01*
X118536868Y-100300830D01*
X118555281Y-100311866D01*
X118572524Y-100324654D01*
X118588430Y-100339070D01*
X118602846Y-100354976D01*
X118615634Y-100372219D01*
X118626670Y-100390632D01*
X118635849Y-100410038D01*
X118643081Y-100430250D01*
X118648297Y-100451074D01*
X118651447Y-100472309D01*
X118652500Y-100493750D01*
X118652500Y-101006250D01*
X118651447Y-101027691D01*
X118648297Y-101048926D01*
X118643081Y-101069750D01*
X118635849Y-101089962D01*
X118626670Y-101109368D01*
X118615634Y-101127781D01*
X118602846Y-101145024D01*
X118588430Y-101160930D01*
X118572524Y-101175346D01*
X118555281Y-101188134D01*
X118536868Y-101199170D01*
X118517462Y-101208349D01*
X118497250Y-101215581D01*
X118476426Y-101220797D01*
X118455191Y-101223947D01*
X118433750Y-101225000D01*
X117996250Y-101225000D01*
X117974809Y-101223947D01*
X117953574Y-101220797D01*
X117932750Y-101215581D01*
X117912538Y-101208349D01*
X117893132Y-101199170D01*
X117874719Y-101188134D01*
X117857476Y-101175346D01*
X117841570Y-101160930D01*
X117827154Y-101145024D01*
X117814366Y-101127781D01*
X117803330Y-101109368D01*
X117794151Y-101089962D01*
X117786919Y-101069750D01*
X117781703Y-101048926D01*
X117778553Y-101027691D01*
X117777500Y-101006250D01*
X117777500Y-100493750D01*
X117778553Y-100472309D01*
X117781703Y-100451074D01*
X117786919Y-100430250D01*
X117794151Y-100410038D01*
X117803330Y-100390632D01*
X117814366Y-100372219D01*
X117827154Y-100354976D01*
X117841570Y-100339070D01*
X117857476Y-100324654D01*
X117874719Y-100311866D01*
X117893132Y-100300830D01*
X117912538Y-100291651D01*
X117932750Y-100284419D01*
X117953574Y-100279203D01*
X117974809Y-100276053D01*
X117996250Y-100275000D01*
X118433750Y-100275000D01*
X118455191Y-100276053D01*
X118455191Y-100276053D01*
G37*
D20*
X118215000Y-100750000D03*
D19*
G36*
X116875191Y-101846053D02*
G01*
X116896426Y-101849203D01*
X116917250Y-101854419D01*
X116937462Y-101861651D01*
X116956868Y-101870830D01*
X116975281Y-101881866D01*
X116992524Y-101894654D01*
X117008430Y-101909070D01*
X117022846Y-101924976D01*
X117035634Y-101942219D01*
X117046670Y-101960632D01*
X117055849Y-101980038D01*
X117063081Y-102000250D01*
X117068297Y-102021074D01*
X117071447Y-102042309D01*
X117072500Y-102063750D01*
X117072500Y-102576250D01*
X117071447Y-102597691D01*
X117068297Y-102618926D01*
X117063081Y-102639750D01*
X117055849Y-102659962D01*
X117046670Y-102679368D01*
X117035634Y-102697781D01*
X117022846Y-102715024D01*
X117008430Y-102730930D01*
X116992524Y-102745346D01*
X116975281Y-102758134D01*
X116956868Y-102769170D01*
X116937462Y-102778349D01*
X116917250Y-102785581D01*
X116896426Y-102790797D01*
X116875191Y-102793947D01*
X116853750Y-102795000D01*
X116416250Y-102795000D01*
X116394809Y-102793947D01*
X116373574Y-102790797D01*
X116352750Y-102785581D01*
X116332538Y-102778349D01*
X116313132Y-102769170D01*
X116294719Y-102758134D01*
X116277476Y-102745346D01*
X116261570Y-102730930D01*
X116247154Y-102715024D01*
X116234366Y-102697781D01*
X116223330Y-102679368D01*
X116214151Y-102659962D01*
X116206919Y-102639750D01*
X116201703Y-102618926D01*
X116198553Y-102597691D01*
X116197500Y-102576250D01*
X116197500Y-102063750D01*
X116198553Y-102042309D01*
X116201703Y-102021074D01*
X116206919Y-102000250D01*
X116214151Y-101980038D01*
X116223330Y-101960632D01*
X116234366Y-101942219D01*
X116247154Y-101924976D01*
X116261570Y-101909070D01*
X116277476Y-101894654D01*
X116294719Y-101881866D01*
X116313132Y-101870830D01*
X116332538Y-101861651D01*
X116352750Y-101854419D01*
X116373574Y-101849203D01*
X116394809Y-101846053D01*
X116416250Y-101845000D01*
X116853750Y-101845000D01*
X116875191Y-101846053D01*
X116875191Y-101846053D01*
G37*
D20*
X116635000Y-102320000D03*
D19*
G36*
X118450191Y-101846053D02*
G01*
X118471426Y-101849203D01*
X118492250Y-101854419D01*
X118512462Y-101861651D01*
X118531868Y-101870830D01*
X118550281Y-101881866D01*
X118567524Y-101894654D01*
X118583430Y-101909070D01*
X118597846Y-101924976D01*
X118610634Y-101942219D01*
X118621670Y-101960632D01*
X118630849Y-101980038D01*
X118638081Y-102000250D01*
X118643297Y-102021074D01*
X118646447Y-102042309D01*
X118647500Y-102063750D01*
X118647500Y-102576250D01*
X118646447Y-102597691D01*
X118643297Y-102618926D01*
X118638081Y-102639750D01*
X118630849Y-102659962D01*
X118621670Y-102679368D01*
X118610634Y-102697781D01*
X118597846Y-102715024D01*
X118583430Y-102730930D01*
X118567524Y-102745346D01*
X118550281Y-102758134D01*
X118531868Y-102769170D01*
X118512462Y-102778349D01*
X118492250Y-102785581D01*
X118471426Y-102790797D01*
X118450191Y-102793947D01*
X118428750Y-102795000D01*
X117991250Y-102795000D01*
X117969809Y-102793947D01*
X117948574Y-102790797D01*
X117927750Y-102785581D01*
X117907538Y-102778349D01*
X117888132Y-102769170D01*
X117869719Y-102758134D01*
X117852476Y-102745346D01*
X117836570Y-102730930D01*
X117822154Y-102715024D01*
X117809366Y-102697781D01*
X117798330Y-102679368D01*
X117789151Y-102659962D01*
X117781919Y-102639750D01*
X117776703Y-102618926D01*
X117773553Y-102597691D01*
X117772500Y-102576250D01*
X117772500Y-102063750D01*
X117773553Y-102042309D01*
X117776703Y-102021074D01*
X117781919Y-102000250D01*
X117789151Y-101980038D01*
X117798330Y-101960632D01*
X117809366Y-101942219D01*
X117822154Y-101924976D01*
X117836570Y-101909070D01*
X117852476Y-101894654D01*
X117869719Y-101881866D01*
X117888132Y-101870830D01*
X117907538Y-101861651D01*
X117927750Y-101854419D01*
X117948574Y-101849203D01*
X117969809Y-101846053D01*
X117991250Y-101845000D01*
X118428750Y-101845000D01*
X118450191Y-101846053D01*
X118450191Y-101846053D01*
G37*
D20*
X118210000Y-102320000D03*
D19*
G36*
X124590191Y-87906053D02*
G01*
X124611426Y-87909203D01*
X124632250Y-87914419D01*
X124652462Y-87921651D01*
X124671868Y-87930830D01*
X124690281Y-87941866D01*
X124707524Y-87954654D01*
X124723430Y-87969070D01*
X124737846Y-87984976D01*
X124750634Y-88002219D01*
X124761670Y-88020632D01*
X124770849Y-88040038D01*
X124778081Y-88060250D01*
X124783297Y-88081074D01*
X124786447Y-88102309D01*
X124787500Y-88123750D01*
X124787500Y-88636250D01*
X124786447Y-88657691D01*
X124783297Y-88678926D01*
X124778081Y-88699750D01*
X124770849Y-88719962D01*
X124761670Y-88739368D01*
X124750634Y-88757781D01*
X124737846Y-88775024D01*
X124723430Y-88790930D01*
X124707524Y-88805346D01*
X124690281Y-88818134D01*
X124671868Y-88829170D01*
X124652462Y-88838349D01*
X124632250Y-88845581D01*
X124611426Y-88850797D01*
X124590191Y-88853947D01*
X124568750Y-88855000D01*
X124131250Y-88855000D01*
X124109809Y-88853947D01*
X124088574Y-88850797D01*
X124067750Y-88845581D01*
X124047538Y-88838349D01*
X124028132Y-88829170D01*
X124009719Y-88818134D01*
X123992476Y-88805346D01*
X123976570Y-88790930D01*
X123962154Y-88775024D01*
X123949366Y-88757781D01*
X123938330Y-88739368D01*
X123929151Y-88719962D01*
X123921919Y-88699750D01*
X123916703Y-88678926D01*
X123913553Y-88657691D01*
X123912500Y-88636250D01*
X123912500Y-88123750D01*
X123913553Y-88102309D01*
X123916703Y-88081074D01*
X123921919Y-88060250D01*
X123929151Y-88040038D01*
X123938330Y-88020632D01*
X123949366Y-88002219D01*
X123962154Y-87984976D01*
X123976570Y-87969070D01*
X123992476Y-87954654D01*
X124009719Y-87941866D01*
X124028132Y-87930830D01*
X124047538Y-87921651D01*
X124067750Y-87914419D01*
X124088574Y-87909203D01*
X124109809Y-87906053D01*
X124131250Y-87905000D01*
X124568750Y-87905000D01*
X124590191Y-87906053D01*
X124590191Y-87906053D01*
G37*
D20*
X124350000Y-88380000D03*
D19*
G36*
X123015191Y-87906053D02*
G01*
X123036426Y-87909203D01*
X123057250Y-87914419D01*
X123077462Y-87921651D01*
X123096868Y-87930830D01*
X123115281Y-87941866D01*
X123132524Y-87954654D01*
X123148430Y-87969070D01*
X123162846Y-87984976D01*
X123175634Y-88002219D01*
X123186670Y-88020632D01*
X123195849Y-88040038D01*
X123203081Y-88060250D01*
X123208297Y-88081074D01*
X123211447Y-88102309D01*
X123212500Y-88123750D01*
X123212500Y-88636250D01*
X123211447Y-88657691D01*
X123208297Y-88678926D01*
X123203081Y-88699750D01*
X123195849Y-88719962D01*
X123186670Y-88739368D01*
X123175634Y-88757781D01*
X123162846Y-88775024D01*
X123148430Y-88790930D01*
X123132524Y-88805346D01*
X123115281Y-88818134D01*
X123096868Y-88829170D01*
X123077462Y-88838349D01*
X123057250Y-88845581D01*
X123036426Y-88850797D01*
X123015191Y-88853947D01*
X122993750Y-88855000D01*
X122556250Y-88855000D01*
X122534809Y-88853947D01*
X122513574Y-88850797D01*
X122492750Y-88845581D01*
X122472538Y-88838349D01*
X122453132Y-88829170D01*
X122434719Y-88818134D01*
X122417476Y-88805346D01*
X122401570Y-88790930D01*
X122387154Y-88775024D01*
X122374366Y-88757781D01*
X122363330Y-88739368D01*
X122354151Y-88719962D01*
X122346919Y-88699750D01*
X122341703Y-88678926D01*
X122338553Y-88657691D01*
X122337500Y-88636250D01*
X122337500Y-88123750D01*
X122338553Y-88102309D01*
X122341703Y-88081074D01*
X122346919Y-88060250D01*
X122354151Y-88040038D01*
X122363330Y-88020632D01*
X122374366Y-88002219D01*
X122387154Y-87984976D01*
X122401570Y-87969070D01*
X122417476Y-87954654D01*
X122434719Y-87941866D01*
X122453132Y-87930830D01*
X122472538Y-87921651D01*
X122492750Y-87914419D01*
X122513574Y-87909203D01*
X122534809Y-87906053D01*
X122556250Y-87905000D01*
X122993750Y-87905000D01*
X123015191Y-87906053D01*
X123015191Y-87906053D01*
G37*
D20*
X122775000Y-88380000D03*
D19*
G36*
X124595191Y-89426053D02*
G01*
X124616426Y-89429203D01*
X124637250Y-89434419D01*
X124657462Y-89441651D01*
X124676868Y-89450830D01*
X124695281Y-89461866D01*
X124712524Y-89474654D01*
X124728430Y-89489070D01*
X124742846Y-89504976D01*
X124755634Y-89522219D01*
X124766670Y-89540632D01*
X124775849Y-89560038D01*
X124783081Y-89580250D01*
X124788297Y-89601074D01*
X124791447Y-89622309D01*
X124792500Y-89643750D01*
X124792500Y-90156250D01*
X124791447Y-90177691D01*
X124788297Y-90198926D01*
X124783081Y-90219750D01*
X124775849Y-90239962D01*
X124766670Y-90259368D01*
X124755634Y-90277781D01*
X124742846Y-90295024D01*
X124728430Y-90310930D01*
X124712524Y-90325346D01*
X124695281Y-90338134D01*
X124676868Y-90349170D01*
X124657462Y-90358349D01*
X124637250Y-90365581D01*
X124616426Y-90370797D01*
X124595191Y-90373947D01*
X124573750Y-90375000D01*
X124136250Y-90375000D01*
X124114809Y-90373947D01*
X124093574Y-90370797D01*
X124072750Y-90365581D01*
X124052538Y-90358349D01*
X124033132Y-90349170D01*
X124014719Y-90338134D01*
X123997476Y-90325346D01*
X123981570Y-90310930D01*
X123967154Y-90295024D01*
X123954366Y-90277781D01*
X123943330Y-90259368D01*
X123934151Y-90239962D01*
X123926919Y-90219750D01*
X123921703Y-90198926D01*
X123918553Y-90177691D01*
X123917500Y-90156250D01*
X123917500Y-89643750D01*
X123918553Y-89622309D01*
X123921703Y-89601074D01*
X123926919Y-89580250D01*
X123934151Y-89560038D01*
X123943330Y-89540632D01*
X123954366Y-89522219D01*
X123967154Y-89504976D01*
X123981570Y-89489070D01*
X123997476Y-89474654D01*
X124014719Y-89461866D01*
X124033132Y-89450830D01*
X124052538Y-89441651D01*
X124072750Y-89434419D01*
X124093574Y-89429203D01*
X124114809Y-89426053D01*
X124136250Y-89425000D01*
X124573750Y-89425000D01*
X124595191Y-89426053D01*
X124595191Y-89426053D01*
G37*
D20*
X124355000Y-89900000D03*
D19*
G36*
X123020191Y-89426053D02*
G01*
X123041426Y-89429203D01*
X123062250Y-89434419D01*
X123082462Y-89441651D01*
X123101868Y-89450830D01*
X123120281Y-89461866D01*
X123137524Y-89474654D01*
X123153430Y-89489070D01*
X123167846Y-89504976D01*
X123180634Y-89522219D01*
X123191670Y-89540632D01*
X123200849Y-89560038D01*
X123208081Y-89580250D01*
X123213297Y-89601074D01*
X123216447Y-89622309D01*
X123217500Y-89643750D01*
X123217500Y-90156250D01*
X123216447Y-90177691D01*
X123213297Y-90198926D01*
X123208081Y-90219750D01*
X123200849Y-90239962D01*
X123191670Y-90259368D01*
X123180634Y-90277781D01*
X123167846Y-90295024D01*
X123153430Y-90310930D01*
X123137524Y-90325346D01*
X123120281Y-90338134D01*
X123101868Y-90349170D01*
X123082462Y-90358349D01*
X123062250Y-90365581D01*
X123041426Y-90370797D01*
X123020191Y-90373947D01*
X122998750Y-90375000D01*
X122561250Y-90375000D01*
X122539809Y-90373947D01*
X122518574Y-90370797D01*
X122497750Y-90365581D01*
X122477538Y-90358349D01*
X122458132Y-90349170D01*
X122439719Y-90338134D01*
X122422476Y-90325346D01*
X122406570Y-90310930D01*
X122392154Y-90295024D01*
X122379366Y-90277781D01*
X122368330Y-90259368D01*
X122359151Y-90239962D01*
X122351919Y-90219750D01*
X122346703Y-90198926D01*
X122343553Y-90177691D01*
X122342500Y-90156250D01*
X122342500Y-89643750D01*
X122343553Y-89622309D01*
X122346703Y-89601074D01*
X122351919Y-89580250D01*
X122359151Y-89560038D01*
X122368330Y-89540632D01*
X122379366Y-89522219D01*
X122392154Y-89504976D01*
X122406570Y-89489070D01*
X122422476Y-89474654D01*
X122439719Y-89461866D01*
X122458132Y-89450830D01*
X122477538Y-89441651D01*
X122497750Y-89434419D01*
X122518574Y-89429203D01*
X122539809Y-89426053D01*
X122561250Y-89425000D01*
X122998750Y-89425000D01*
X123020191Y-89426053D01*
X123020191Y-89426053D01*
G37*
D20*
X122780000Y-89900000D03*
D19*
G36*
X124590191Y-90956053D02*
G01*
X124611426Y-90959203D01*
X124632250Y-90964419D01*
X124652462Y-90971651D01*
X124671868Y-90980830D01*
X124690281Y-90991866D01*
X124707524Y-91004654D01*
X124723430Y-91019070D01*
X124737846Y-91034976D01*
X124750634Y-91052219D01*
X124761670Y-91070632D01*
X124770849Y-91090038D01*
X124778081Y-91110250D01*
X124783297Y-91131074D01*
X124786447Y-91152309D01*
X124787500Y-91173750D01*
X124787500Y-91686250D01*
X124786447Y-91707691D01*
X124783297Y-91728926D01*
X124778081Y-91749750D01*
X124770849Y-91769962D01*
X124761670Y-91789368D01*
X124750634Y-91807781D01*
X124737846Y-91825024D01*
X124723430Y-91840930D01*
X124707524Y-91855346D01*
X124690281Y-91868134D01*
X124671868Y-91879170D01*
X124652462Y-91888349D01*
X124632250Y-91895581D01*
X124611426Y-91900797D01*
X124590191Y-91903947D01*
X124568750Y-91905000D01*
X124131250Y-91905000D01*
X124109809Y-91903947D01*
X124088574Y-91900797D01*
X124067750Y-91895581D01*
X124047538Y-91888349D01*
X124028132Y-91879170D01*
X124009719Y-91868134D01*
X123992476Y-91855346D01*
X123976570Y-91840930D01*
X123962154Y-91825024D01*
X123949366Y-91807781D01*
X123938330Y-91789368D01*
X123929151Y-91769962D01*
X123921919Y-91749750D01*
X123916703Y-91728926D01*
X123913553Y-91707691D01*
X123912500Y-91686250D01*
X123912500Y-91173750D01*
X123913553Y-91152309D01*
X123916703Y-91131074D01*
X123921919Y-91110250D01*
X123929151Y-91090038D01*
X123938330Y-91070632D01*
X123949366Y-91052219D01*
X123962154Y-91034976D01*
X123976570Y-91019070D01*
X123992476Y-91004654D01*
X124009719Y-90991866D01*
X124028132Y-90980830D01*
X124047538Y-90971651D01*
X124067750Y-90964419D01*
X124088574Y-90959203D01*
X124109809Y-90956053D01*
X124131250Y-90955000D01*
X124568750Y-90955000D01*
X124590191Y-90956053D01*
X124590191Y-90956053D01*
G37*
D20*
X124350000Y-91430000D03*
D19*
G36*
X123015191Y-90956053D02*
G01*
X123036426Y-90959203D01*
X123057250Y-90964419D01*
X123077462Y-90971651D01*
X123096868Y-90980830D01*
X123115281Y-90991866D01*
X123132524Y-91004654D01*
X123148430Y-91019070D01*
X123162846Y-91034976D01*
X123175634Y-91052219D01*
X123186670Y-91070632D01*
X123195849Y-91090038D01*
X123203081Y-91110250D01*
X123208297Y-91131074D01*
X123211447Y-91152309D01*
X123212500Y-91173750D01*
X123212500Y-91686250D01*
X123211447Y-91707691D01*
X123208297Y-91728926D01*
X123203081Y-91749750D01*
X123195849Y-91769962D01*
X123186670Y-91789368D01*
X123175634Y-91807781D01*
X123162846Y-91825024D01*
X123148430Y-91840930D01*
X123132524Y-91855346D01*
X123115281Y-91868134D01*
X123096868Y-91879170D01*
X123077462Y-91888349D01*
X123057250Y-91895581D01*
X123036426Y-91900797D01*
X123015191Y-91903947D01*
X122993750Y-91905000D01*
X122556250Y-91905000D01*
X122534809Y-91903947D01*
X122513574Y-91900797D01*
X122492750Y-91895581D01*
X122472538Y-91888349D01*
X122453132Y-91879170D01*
X122434719Y-91868134D01*
X122417476Y-91855346D01*
X122401570Y-91840930D01*
X122387154Y-91825024D01*
X122374366Y-91807781D01*
X122363330Y-91789368D01*
X122354151Y-91769962D01*
X122346919Y-91749750D01*
X122341703Y-91728926D01*
X122338553Y-91707691D01*
X122337500Y-91686250D01*
X122337500Y-91173750D01*
X122338553Y-91152309D01*
X122341703Y-91131074D01*
X122346919Y-91110250D01*
X122354151Y-91090038D01*
X122363330Y-91070632D01*
X122374366Y-91052219D01*
X122387154Y-91034976D01*
X122401570Y-91019070D01*
X122417476Y-91004654D01*
X122434719Y-90991866D01*
X122453132Y-90980830D01*
X122472538Y-90971651D01*
X122492750Y-90964419D01*
X122513574Y-90959203D01*
X122534809Y-90956053D01*
X122556250Y-90955000D01*
X122993750Y-90955000D01*
X123015191Y-90956053D01*
X123015191Y-90956053D01*
G37*
D20*
X122775000Y-91430000D03*
M02*
