G04 #@! TF.GenerationSoftware,KiCad,Pcbnew,(5.1.4)-1*
G04 #@! TF.CreationDate,2022-02-20T14:50:57-05:00*
G04 #@! TF.ProjectId,Telemetry PCB,54656c65-6d65-4747-9279-205043422e6b,rev?*
G04 #@! TF.SameCoordinates,Original*
G04 #@! TF.FileFunction,Legend,Bot*
G04 #@! TF.FilePolarity,Positive*
%FSLAX46Y46*%
G04 Gerber Fmt 4.6, Leading zero omitted, Abs format (unit mm)*
G04 Created by KiCad (PCBNEW (5.1.4)-1) date 2022-02-20 14:50:57*
%MOMM*%
%LPD*%
G04 APERTURE LIST*
%ADD10C,0.300000*%
%ADD11C,0.120000*%
%ADD12C,0.150000*%
%ADD13R,3.602000X1.602000*%
%ADD14C,0.100000*%
%ADD15C,0.977000*%
%ADD16O,2.102000X1.802000*%
%ADD17C,1.802000*%
%ADD18O,1.852000X1.302000*%
%ADD19C,1.302000*%
%ADD20O,1.302000X1.852000*%
%ADD21C,0.902000*%
%ADD22C,6.502000*%
G04 APERTURE END LIST*
D10*
X137752142Y-112063571D02*
X136895000Y-112063571D01*
X137323571Y-113563571D02*
X137323571Y-112063571D01*
X135823571Y-113492142D02*
X135966428Y-113563571D01*
X136252142Y-113563571D01*
X136395000Y-113492142D01*
X136466428Y-113349285D01*
X136466428Y-112777857D01*
X136395000Y-112635000D01*
X136252142Y-112563571D01*
X135966428Y-112563571D01*
X135823571Y-112635000D01*
X135752142Y-112777857D01*
X135752142Y-112920714D01*
X136466428Y-113063571D01*
X134895000Y-113563571D02*
X135037857Y-113492142D01*
X135109285Y-113349285D01*
X135109285Y-112063571D01*
X133752142Y-113492142D02*
X133895000Y-113563571D01*
X134180714Y-113563571D01*
X134323571Y-113492142D01*
X134395000Y-113349285D01*
X134395000Y-112777857D01*
X134323571Y-112635000D01*
X134180714Y-112563571D01*
X133895000Y-112563571D01*
X133752142Y-112635000D01*
X133680714Y-112777857D01*
X133680714Y-112920714D01*
X134395000Y-113063571D01*
X133037857Y-113563571D02*
X133037857Y-112563571D01*
X133037857Y-112706428D02*
X132966428Y-112635000D01*
X132823571Y-112563571D01*
X132609285Y-112563571D01*
X132466428Y-112635000D01*
X132395000Y-112777857D01*
X132395000Y-113563571D01*
X132395000Y-112777857D02*
X132323571Y-112635000D01*
X132180714Y-112563571D01*
X131966428Y-112563571D01*
X131823571Y-112635000D01*
X131752142Y-112777857D01*
X131752142Y-113563571D01*
X130466428Y-113492142D02*
X130609285Y-113563571D01*
X130895000Y-113563571D01*
X131037857Y-113492142D01*
X131109285Y-113349285D01*
X131109285Y-112777857D01*
X131037857Y-112635000D01*
X130895000Y-112563571D01*
X130609285Y-112563571D01*
X130466428Y-112635000D01*
X130395000Y-112777857D01*
X130395000Y-112920714D01*
X131109285Y-113063571D01*
X129966428Y-112563571D02*
X129395000Y-112563571D01*
X129752142Y-112063571D02*
X129752142Y-113349285D01*
X129680714Y-113492142D01*
X129537857Y-113563571D01*
X129395000Y-113563571D01*
X128895000Y-113563571D02*
X128895000Y-112563571D01*
X128895000Y-112849285D02*
X128823571Y-112706428D01*
X128752142Y-112635000D01*
X128609285Y-112563571D01*
X128466428Y-112563571D01*
X128109285Y-112563571D02*
X127752142Y-113563571D01*
X127395000Y-112563571D02*
X127752142Y-113563571D01*
X127895000Y-113920714D01*
X127966428Y-113992142D01*
X128109285Y-114063571D01*
X125680714Y-113563571D02*
X125680714Y-112063571D01*
X125109285Y-112063571D01*
X124966428Y-112135000D01*
X124895000Y-112206428D01*
X124823571Y-112349285D01*
X124823571Y-112563571D01*
X124895000Y-112706428D01*
X124966428Y-112777857D01*
X125109285Y-112849285D01*
X125680714Y-112849285D01*
X123323571Y-113420714D02*
X123395000Y-113492142D01*
X123609285Y-113563571D01*
X123752142Y-113563571D01*
X123966428Y-113492142D01*
X124109285Y-113349285D01*
X124180714Y-113206428D01*
X124252142Y-112920714D01*
X124252142Y-112706428D01*
X124180714Y-112420714D01*
X124109285Y-112277857D01*
X123966428Y-112135000D01*
X123752142Y-112063571D01*
X123609285Y-112063571D01*
X123395000Y-112135000D01*
X123323571Y-112206428D01*
X122180714Y-112777857D02*
X121966428Y-112849285D01*
X121895000Y-112920714D01*
X121823571Y-113063571D01*
X121823571Y-113277857D01*
X121895000Y-113420714D01*
X121966428Y-113492142D01*
X122109285Y-113563571D01*
X122680714Y-113563571D01*
X122680714Y-112063571D01*
X122180714Y-112063571D01*
X122037857Y-112135000D01*
X121966428Y-112206428D01*
X121895000Y-112349285D01*
X121895000Y-112492142D01*
X121966428Y-112635000D01*
X122037857Y-112706428D01*
X122180714Y-112777857D01*
X122680714Y-112777857D01*
X120037857Y-112992142D02*
X118895000Y-112992142D01*
X116180714Y-113563571D02*
X116680714Y-112849285D01*
X117037857Y-113563571D02*
X117037857Y-112063571D01*
X116466428Y-112063571D01*
X116323571Y-112135000D01*
X116252142Y-112206428D01*
X116180714Y-112349285D01*
X116180714Y-112563571D01*
X116252142Y-112706428D01*
X116323571Y-112777857D01*
X116466428Y-112849285D01*
X117037857Y-112849285D01*
X114966428Y-113492142D02*
X115109285Y-113563571D01*
X115395000Y-113563571D01*
X115537857Y-113492142D01*
X115609285Y-113349285D01*
X115609285Y-112777857D01*
X115537857Y-112635000D01*
X115395000Y-112563571D01*
X115109285Y-112563571D01*
X114966428Y-112635000D01*
X114895000Y-112777857D01*
X114895000Y-112920714D01*
X115609285Y-113063571D01*
X114395000Y-112563571D02*
X114037857Y-113563571D01*
X113680714Y-112563571D01*
X111180714Y-113563571D02*
X112037857Y-113563571D01*
X111609285Y-113563571D02*
X111609285Y-112063571D01*
X111752142Y-112277857D01*
X111895000Y-112420714D01*
X112037857Y-112492142D01*
X110537857Y-113420714D02*
X110466428Y-113492142D01*
X110537857Y-113563571D01*
X110609285Y-113492142D01*
X110537857Y-113420714D01*
X110537857Y-113563571D01*
X109537857Y-112063571D02*
X109395000Y-112063571D01*
X109252142Y-112135000D01*
X109180714Y-112206428D01*
X109109285Y-112349285D01*
X109037857Y-112635000D01*
X109037857Y-112992142D01*
X109109285Y-113277857D01*
X109180714Y-113420714D01*
X109252142Y-113492142D01*
X109395000Y-113563571D01*
X109537857Y-113563571D01*
X109680714Y-113492142D01*
X109752142Y-113420714D01*
X109823571Y-113277857D01*
X109895000Y-112992142D01*
X109895000Y-112635000D01*
X109823571Y-112349285D01*
X109752142Y-112206428D01*
X109680714Y-112135000D01*
X109537857Y-112063571D01*
X137537857Y-116113571D02*
X137537857Y-114613571D01*
X136966428Y-114613571D01*
X136823571Y-114685000D01*
X136752142Y-114756428D01*
X136680714Y-114899285D01*
X136680714Y-115113571D01*
X136752142Y-115256428D01*
X136823571Y-115327857D01*
X136966428Y-115399285D01*
X137537857Y-115399285D01*
X135395000Y-116113571D02*
X135395000Y-115327857D01*
X135466428Y-115185000D01*
X135609285Y-115113571D01*
X135895000Y-115113571D01*
X136037857Y-115185000D01*
X135395000Y-116042142D02*
X135537857Y-116113571D01*
X135895000Y-116113571D01*
X136037857Y-116042142D01*
X136109285Y-115899285D01*
X136109285Y-115756428D01*
X136037857Y-115613571D01*
X135895000Y-115542142D01*
X135537857Y-115542142D01*
X135395000Y-115470714D01*
X134680714Y-116113571D02*
X134680714Y-115113571D01*
X134680714Y-115399285D02*
X134609285Y-115256428D01*
X134537857Y-115185000D01*
X134395000Y-115113571D01*
X134252142Y-115113571D01*
X133966428Y-115113571D02*
X133395000Y-115113571D01*
X133752142Y-114613571D02*
X133752142Y-115899285D01*
X133680714Y-116042142D01*
X133537857Y-116113571D01*
X133395000Y-116113571D01*
X131752142Y-116113571D02*
X131752142Y-114613571D01*
X131037857Y-116113571D02*
X131037857Y-114613571D01*
X130680714Y-114613571D01*
X130466428Y-114685000D01*
X130323571Y-114827857D01*
X130252142Y-114970714D01*
X130180714Y-115256428D01*
X130180714Y-115470714D01*
X130252142Y-115756428D01*
X130323571Y-115899285D01*
X130466428Y-116042142D01*
X130680714Y-116113571D01*
X131037857Y-116113571D01*
X129537857Y-115970714D02*
X129466428Y-116042142D01*
X129537857Y-116113571D01*
X129609285Y-116042142D01*
X129537857Y-115970714D01*
X129537857Y-116113571D01*
X129537857Y-115185000D02*
X129466428Y-115256428D01*
X129537857Y-115327857D01*
X129609285Y-115256428D01*
X129537857Y-115185000D01*
X129537857Y-115327857D01*
X127680714Y-116113571D02*
X127680714Y-114613571D01*
X127109285Y-114613571D01*
X126966428Y-114685000D01*
X126895000Y-114756428D01*
X126823571Y-114899285D01*
X126823571Y-115113571D01*
X126895000Y-115256428D01*
X126966428Y-115327857D01*
X127109285Y-115399285D01*
X127680714Y-115399285D01*
X125323571Y-115970714D02*
X125395000Y-116042142D01*
X125609285Y-116113571D01*
X125752142Y-116113571D01*
X125966428Y-116042142D01*
X126109285Y-115899285D01*
X126180714Y-115756428D01*
X126252142Y-115470714D01*
X126252142Y-115256428D01*
X126180714Y-114970714D01*
X126109285Y-114827857D01*
X125966428Y-114685000D01*
X125752142Y-114613571D01*
X125609285Y-114613571D01*
X125395000Y-114685000D01*
X125323571Y-114756428D01*
X124180714Y-115327857D02*
X123966428Y-115399285D01*
X123895000Y-115470714D01*
X123823571Y-115613571D01*
X123823571Y-115827857D01*
X123895000Y-115970714D01*
X123966428Y-116042142D01*
X124109285Y-116113571D01*
X124680714Y-116113571D01*
X124680714Y-114613571D01*
X124180714Y-114613571D01*
X124037857Y-114685000D01*
X123966428Y-114756428D01*
X123895000Y-114899285D01*
X123895000Y-115042142D01*
X123966428Y-115185000D01*
X124037857Y-115256428D01*
X124180714Y-115327857D01*
X124680714Y-115327857D01*
X123180714Y-115542142D02*
X122037857Y-115542142D01*
X121537857Y-114613571D02*
X120680714Y-114613571D01*
X121109285Y-116113571D02*
X121109285Y-114613571D01*
X119395000Y-116113571D02*
X120252142Y-116113571D01*
X119823571Y-116113571D02*
X119823571Y-114613571D01*
X119966428Y-114827857D01*
X120109285Y-114970714D01*
X120252142Y-115042142D01*
X137609285Y-118235000D02*
X136895000Y-118235000D01*
X137752142Y-118663571D02*
X137252142Y-117163571D01*
X136752142Y-118663571D01*
X136323571Y-118592142D02*
X136180714Y-118663571D01*
X135895000Y-118663571D01*
X135752142Y-118592142D01*
X135680714Y-118449285D01*
X135680714Y-118377857D01*
X135752142Y-118235000D01*
X135895000Y-118163571D01*
X136109285Y-118163571D01*
X136252142Y-118092142D01*
X136323571Y-117949285D01*
X136323571Y-117877857D01*
X136252142Y-117735000D01*
X136109285Y-117663571D01*
X135895000Y-117663571D01*
X135752142Y-117735000D01*
X135252142Y-117663571D02*
X134680714Y-117663571D01*
X135037857Y-117163571D02*
X135037857Y-118449285D01*
X134966428Y-118592142D01*
X134823571Y-118663571D01*
X134680714Y-118663571D01*
X134180714Y-118663571D02*
X134180714Y-117663571D01*
X134180714Y-117949285D02*
X134109285Y-117806428D01*
X134037857Y-117735000D01*
X133895000Y-117663571D01*
X133752142Y-117663571D01*
X133037857Y-118663571D02*
X133180714Y-118592142D01*
X133252142Y-118520714D01*
X133323571Y-118377857D01*
X133323571Y-117949285D01*
X133252142Y-117806428D01*
X133180714Y-117735000D01*
X133037857Y-117663571D01*
X132823571Y-117663571D01*
X132680714Y-117735000D01*
X132609285Y-117806428D01*
X132537857Y-117949285D01*
X132537857Y-118377857D01*
X132609285Y-118520714D01*
X132680714Y-118592142D01*
X132823571Y-118663571D01*
X133037857Y-118663571D01*
X131466428Y-117163571D02*
X131466428Y-118235000D01*
X131537857Y-118449285D01*
X131680714Y-118592142D01*
X131895000Y-118663571D01*
X132037857Y-118663571D01*
X130109285Y-118663571D02*
X130109285Y-117877857D01*
X130180714Y-117735000D01*
X130323571Y-117663571D01*
X130609285Y-117663571D01*
X130752142Y-117735000D01*
X130109285Y-118592142D02*
X130252142Y-118663571D01*
X130609285Y-118663571D01*
X130752142Y-118592142D01*
X130823571Y-118449285D01*
X130823571Y-118306428D01*
X130752142Y-118163571D01*
X130609285Y-118092142D01*
X130252142Y-118092142D01*
X130109285Y-118020714D01*
X129537857Y-117663571D02*
X129180714Y-118663571D01*
X128823571Y-117663571D02*
X129180714Y-118663571D01*
X129323571Y-119020714D01*
X129395000Y-119092142D01*
X129537857Y-119163571D01*
X128323571Y-118592142D02*
X128180714Y-118663571D01*
X127895000Y-118663571D01*
X127752142Y-118592142D01*
X127680714Y-118449285D01*
X127680714Y-118377857D01*
X127752142Y-118235000D01*
X127895000Y-118163571D01*
X128109285Y-118163571D01*
X128252142Y-118092142D01*
X128323571Y-117949285D01*
X128323571Y-117877857D01*
X128252142Y-117735000D01*
X128109285Y-117663571D01*
X127895000Y-117663571D01*
X127752142Y-117735000D01*
X125037857Y-118663571D02*
X125537857Y-117949285D01*
X125895000Y-118663571D02*
X125895000Y-117163571D01*
X125323571Y-117163571D01*
X125180714Y-117235000D01*
X125109285Y-117306428D01*
X125037857Y-117449285D01*
X125037857Y-117663571D01*
X125109285Y-117806428D01*
X125180714Y-117877857D01*
X125323571Y-117949285D01*
X125895000Y-117949285D01*
X124180714Y-118663571D02*
X124323571Y-118592142D01*
X124395000Y-118520714D01*
X124466428Y-118377857D01*
X124466428Y-117949285D01*
X124395000Y-117806428D01*
X124323571Y-117735000D01*
X124180714Y-117663571D01*
X123966428Y-117663571D01*
X123823571Y-117735000D01*
X123752142Y-117806428D01*
X123680714Y-117949285D01*
X123680714Y-118377857D01*
X123752142Y-118520714D01*
X123823571Y-118592142D01*
X123966428Y-118663571D01*
X124180714Y-118663571D01*
X122395000Y-118592142D02*
X122537857Y-118663571D01*
X122823571Y-118663571D01*
X122966428Y-118592142D01*
X123037857Y-118520714D01*
X123109285Y-118377857D01*
X123109285Y-117949285D01*
X123037857Y-117806428D01*
X122966428Y-117735000D01*
X122823571Y-117663571D01*
X122537857Y-117663571D01*
X122395000Y-117735000D01*
X121752142Y-118663571D02*
X121752142Y-117163571D01*
X121609285Y-118092142D02*
X121180714Y-118663571D01*
X121180714Y-117663571D02*
X121752142Y-118235000D01*
X119966428Y-118592142D02*
X120109285Y-118663571D01*
X120395000Y-118663571D01*
X120537857Y-118592142D01*
X120609285Y-118449285D01*
X120609285Y-117877857D01*
X120537857Y-117735000D01*
X120395000Y-117663571D01*
X120109285Y-117663571D01*
X119966428Y-117735000D01*
X119895000Y-117877857D01*
X119895000Y-118020714D01*
X120609285Y-118163571D01*
X119466428Y-117663571D02*
X118895000Y-117663571D01*
X119252142Y-117163571D02*
X119252142Y-118449285D01*
X119180714Y-118592142D01*
X119037857Y-118663571D01*
X118895000Y-118663571D01*
X118395000Y-118663571D02*
X118395000Y-117663571D01*
X118395000Y-117949285D02*
X118323571Y-117806428D01*
X118252142Y-117735000D01*
X118109285Y-117663571D01*
X117966428Y-117663571D01*
X117609285Y-117663571D02*
X117252142Y-118663571D01*
X116895000Y-117663571D02*
X117252142Y-118663571D01*
X117395000Y-119020714D01*
X117466428Y-119092142D01*
X117609285Y-119163571D01*
X137109285Y-119713571D02*
X137109285Y-120785000D01*
X137180714Y-120999285D01*
X137323571Y-121142142D01*
X137537857Y-121213571D01*
X137680714Y-121213571D01*
X136395000Y-121213571D02*
X136395000Y-119713571D01*
X136395000Y-120427857D02*
X135537857Y-120427857D01*
X135537857Y-121213571D02*
X135537857Y-119713571D01*
X134823571Y-119713571D02*
X134823571Y-120927857D01*
X134752142Y-121070714D01*
X134680714Y-121142142D01*
X134537857Y-121213571D01*
X134252142Y-121213571D01*
X134109285Y-121142142D01*
X134037857Y-121070714D01*
X133966428Y-120927857D01*
X133966428Y-119713571D01*
X133180714Y-121142142D02*
X133180714Y-121213571D01*
X133252142Y-121356428D01*
X133323571Y-121427857D01*
X130966428Y-119713571D02*
X130966428Y-120785000D01*
X131037857Y-120999285D01*
X131180714Y-121142142D01*
X131395000Y-121213571D01*
X131537857Y-121213571D01*
X129609285Y-121213571D02*
X129609285Y-120427857D01*
X129680714Y-120285000D01*
X129823571Y-120213571D01*
X130109285Y-120213571D01*
X130252142Y-120285000D01*
X129609285Y-121142142D02*
X129752142Y-121213571D01*
X130109285Y-121213571D01*
X130252142Y-121142142D01*
X130323571Y-120999285D01*
X130323571Y-120856428D01*
X130252142Y-120713571D01*
X130109285Y-120642142D01*
X129752142Y-120642142D01*
X129609285Y-120570714D01*
X128895000Y-120213571D02*
X128895000Y-121213571D01*
X128895000Y-120356428D02*
X128823571Y-120285000D01*
X128680714Y-120213571D01*
X128466428Y-120213571D01*
X128323571Y-120285000D01*
X128252142Y-120427857D01*
X128252142Y-121213571D01*
X126466428Y-119856428D02*
X126395000Y-119785000D01*
X126252142Y-119713571D01*
X125895000Y-119713571D01*
X125752142Y-119785000D01*
X125680714Y-119856428D01*
X125609285Y-119999285D01*
X125609285Y-120142142D01*
X125680714Y-120356428D01*
X126537857Y-121213571D01*
X125609285Y-121213571D01*
X124680714Y-119713571D02*
X124537857Y-119713571D01*
X124395000Y-119785000D01*
X124323571Y-119856428D01*
X124252142Y-119999285D01*
X124180714Y-120285000D01*
X124180714Y-120642142D01*
X124252142Y-120927857D01*
X124323571Y-121070714D01*
X124395000Y-121142142D01*
X124537857Y-121213571D01*
X124680714Y-121213571D01*
X124823571Y-121142142D01*
X124895000Y-121070714D01*
X124966428Y-120927857D01*
X125037857Y-120642142D01*
X125037857Y-120285000D01*
X124966428Y-119999285D01*
X124895000Y-119856428D01*
X124823571Y-119785000D01*
X124680714Y-119713571D01*
X123609285Y-119856428D02*
X123537857Y-119785000D01*
X123395000Y-119713571D01*
X123037857Y-119713571D01*
X122895000Y-119785000D01*
X122823571Y-119856428D01*
X122752142Y-119999285D01*
X122752142Y-120142142D01*
X122823571Y-120356428D01*
X123680714Y-121213571D01*
X122752142Y-121213571D01*
X122180714Y-119856428D02*
X122109285Y-119785000D01*
X121966428Y-119713571D01*
X121609285Y-119713571D01*
X121466428Y-119785000D01*
X121395000Y-119856428D01*
X121323571Y-119999285D01*
X121323571Y-120142142D01*
X121395000Y-120356428D01*
X122252142Y-121213571D01*
X121323571Y-121213571D01*
D11*
X116595279Y-94710000D02*
X116269721Y-94710000D01*
X116595279Y-93690000D02*
X116269721Y-93690000D01*
X119645279Y-96210000D02*
X119319721Y-96210000D01*
X119645279Y-95190000D02*
X119319721Y-95190000D01*
X126324721Y-91740000D02*
X126650279Y-91740000D01*
X126324721Y-92760000D02*
X126650279Y-92760000D01*
X120425279Y-92870000D02*
X120099721Y-92870000D01*
X120425279Y-91850000D02*
X120099721Y-91850000D01*
D12*
X116599166Y-93222380D02*
X116932500Y-92746190D01*
X117170595Y-93222380D02*
X117170595Y-92222380D01*
X116789642Y-92222380D01*
X116694404Y-92270000D01*
X116646785Y-92317619D01*
X116599166Y-92412857D01*
X116599166Y-92555714D01*
X116646785Y-92650952D01*
X116694404Y-92698571D01*
X116789642Y-92746190D01*
X117170595Y-92746190D01*
X116265833Y-92222380D02*
X115646785Y-92222380D01*
X115980119Y-92603333D01*
X115837261Y-92603333D01*
X115742023Y-92650952D01*
X115694404Y-92698571D01*
X115646785Y-92793809D01*
X115646785Y-93031904D01*
X115694404Y-93127142D01*
X115742023Y-93174761D01*
X115837261Y-93222380D01*
X116122976Y-93222380D01*
X116218214Y-93174761D01*
X116265833Y-93127142D01*
X120112857Y-94667142D02*
X120160476Y-94714761D01*
X120303333Y-94762380D01*
X120398571Y-94762380D01*
X120541428Y-94714761D01*
X120636666Y-94619523D01*
X120684285Y-94524285D01*
X120731904Y-94333809D01*
X120731904Y-94190952D01*
X120684285Y-94000476D01*
X120636666Y-93905238D01*
X120541428Y-93810000D01*
X120398571Y-93762380D01*
X120303333Y-93762380D01*
X120160476Y-93810000D01*
X120112857Y-93857619D01*
X119160476Y-94762380D02*
X119731904Y-94762380D01*
X119446190Y-94762380D02*
X119446190Y-93762380D01*
X119541428Y-93905238D01*
X119636666Y-94000476D01*
X119731904Y-94048095D01*
X118208095Y-94762380D02*
X118779523Y-94762380D01*
X118493809Y-94762380D02*
X118493809Y-93762380D01*
X118589047Y-93905238D01*
X118684285Y-94000476D01*
X118779523Y-94048095D01*
X127217857Y-91297142D02*
X127265476Y-91344761D01*
X127408333Y-91392380D01*
X127503571Y-91392380D01*
X127646428Y-91344761D01*
X127741666Y-91249523D01*
X127789285Y-91154285D01*
X127836904Y-90963809D01*
X127836904Y-90820952D01*
X127789285Y-90630476D01*
X127741666Y-90535238D01*
X127646428Y-90440000D01*
X127503571Y-90392380D01*
X127408333Y-90392380D01*
X127265476Y-90440000D01*
X127217857Y-90487619D01*
X126265476Y-91392380D02*
X126836904Y-91392380D01*
X126551190Y-91392380D02*
X126551190Y-90392380D01*
X126646428Y-90535238D01*
X126741666Y-90630476D01*
X126836904Y-90678095D01*
X125646428Y-90392380D02*
X125551190Y-90392380D01*
X125455952Y-90440000D01*
X125408333Y-90487619D01*
X125360714Y-90582857D01*
X125313095Y-90773333D01*
X125313095Y-91011428D01*
X125360714Y-91201904D01*
X125408333Y-91297142D01*
X125455952Y-91344761D01*
X125551190Y-91392380D01*
X125646428Y-91392380D01*
X125741666Y-91344761D01*
X125789285Y-91297142D01*
X125836904Y-91201904D01*
X125884523Y-91011428D01*
X125884523Y-90773333D01*
X125836904Y-90582857D01*
X125789285Y-90487619D01*
X125741666Y-90440000D01*
X125646428Y-90392380D01*
X120429166Y-91287142D02*
X120476785Y-91334761D01*
X120619642Y-91382380D01*
X120714880Y-91382380D01*
X120857738Y-91334761D01*
X120952976Y-91239523D01*
X121000595Y-91144285D01*
X121048214Y-90953809D01*
X121048214Y-90810952D01*
X121000595Y-90620476D01*
X120952976Y-90525238D01*
X120857738Y-90430000D01*
X120714880Y-90382380D01*
X120619642Y-90382380D01*
X120476785Y-90430000D01*
X120429166Y-90477619D01*
X119857738Y-90810952D02*
X119952976Y-90763333D01*
X120000595Y-90715714D01*
X120048214Y-90620476D01*
X120048214Y-90572857D01*
X120000595Y-90477619D01*
X119952976Y-90430000D01*
X119857738Y-90382380D01*
X119667261Y-90382380D01*
X119572023Y-90430000D01*
X119524404Y-90477619D01*
X119476785Y-90572857D01*
X119476785Y-90620476D01*
X119524404Y-90715714D01*
X119572023Y-90763333D01*
X119667261Y-90810952D01*
X119857738Y-90810952D01*
X119952976Y-90858571D01*
X120000595Y-90906190D01*
X120048214Y-91001428D01*
X120048214Y-91191904D01*
X120000595Y-91287142D01*
X119952976Y-91334761D01*
X119857738Y-91382380D01*
X119667261Y-91382380D01*
X119572023Y-91334761D01*
X119524404Y-91287142D01*
X119476785Y-91191904D01*
X119476785Y-91001428D01*
X119524404Y-90906190D01*
X119572023Y-90858571D01*
X119667261Y-90810952D01*
%LPC*%
D13*
X109840000Y-99830000D03*
X109840000Y-94430000D03*
D14*
G36*
X115913191Y-93675176D02*
G01*
X115936901Y-93678693D01*
X115960152Y-93684517D01*
X115982720Y-93692592D01*
X116004389Y-93702841D01*
X116024948Y-93715164D01*
X116044201Y-93729442D01*
X116061961Y-93745539D01*
X116078058Y-93763299D01*
X116092336Y-93782552D01*
X116104659Y-93803111D01*
X116114908Y-93824780D01*
X116122983Y-93847348D01*
X116128807Y-93870599D01*
X116132324Y-93894309D01*
X116133500Y-93918250D01*
X116133500Y-94481750D01*
X116132324Y-94505691D01*
X116128807Y-94529401D01*
X116122983Y-94552652D01*
X116114908Y-94575220D01*
X116104659Y-94596889D01*
X116092336Y-94617448D01*
X116078058Y-94636701D01*
X116061961Y-94654461D01*
X116044201Y-94670558D01*
X116024948Y-94684836D01*
X116004389Y-94697159D01*
X115982720Y-94707408D01*
X115960152Y-94715483D01*
X115936901Y-94721307D01*
X115913191Y-94724824D01*
X115889250Y-94726000D01*
X115400750Y-94726000D01*
X115376809Y-94724824D01*
X115353099Y-94721307D01*
X115329848Y-94715483D01*
X115307280Y-94707408D01*
X115285611Y-94697159D01*
X115265052Y-94684836D01*
X115245799Y-94670558D01*
X115228039Y-94654461D01*
X115211942Y-94636701D01*
X115197664Y-94617448D01*
X115185341Y-94596889D01*
X115175092Y-94575220D01*
X115167017Y-94552652D01*
X115161193Y-94529401D01*
X115157676Y-94505691D01*
X115156500Y-94481750D01*
X115156500Y-93918250D01*
X115157676Y-93894309D01*
X115161193Y-93870599D01*
X115167017Y-93847348D01*
X115175092Y-93824780D01*
X115185341Y-93803111D01*
X115197664Y-93782552D01*
X115211942Y-93763299D01*
X115228039Y-93745539D01*
X115245799Y-93729442D01*
X115265052Y-93715164D01*
X115285611Y-93702841D01*
X115307280Y-93692592D01*
X115329848Y-93684517D01*
X115353099Y-93678693D01*
X115376809Y-93675176D01*
X115400750Y-93674000D01*
X115889250Y-93674000D01*
X115913191Y-93675176D01*
X115913191Y-93675176D01*
G37*
D15*
X115645000Y-94200000D03*
D14*
G36*
X117488191Y-93675176D02*
G01*
X117511901Y-93678693D01*
X117535152Y-93684517D01*
X117557720Y-93692592D01*
X117579389Y-93702841D01*
X117599948Y-93715164D01*
X117619201Y-93729442D01*
X117636961Y-93745539D01*
X117653058Y-93763299D01*
X117667336Y-93782552D01*
X117679659Y-93803111D01*
X117689908Y-93824780D01*
X117697983Y-93847348D01*
X117703807Y-93870599D01*
X117707324Y-93894309D01*
X117708500Y-93918250D01*
X117708500Y-94481750D01*
X117707324Y-94505691D01*
X117703807Y-94529401D01*
X117697983Y-94552652D01*
X117689908Y-94575220D01*
X117679659Y-94596889D01*
X117667336Y-94617448D01*
X117653058Y-94636701D01*
X117636961Y-94654461D01*
X117619201Y-94670558D01*
X117599948Y-94684836D01*
X117579389Y-94697159D01*
X117557720Y-94707408D01*
X117535152Y-94715483D01*
X117511901Y-94721307D01*
X117488191Y-94724824D01*
X117464250Y-94726000D01*
X116975750Y-94726000D01*
X116951809Y-94724824D01*
X116928099Y-94721307D01*
X116904848Y-94715483D01*
X116882280Y-94707408D01*
X116860611Y-94697159D01*
X116840052Y-94684836D01*
X116820799Y-94670558D01*
X116803039Y-94654461D01*
X116786942Y-94636701D01*
X116772664Y-94617448D01*
X116760341Y-94596889D01*
X116750092Y-94575220D01*
X116742017Y-94552652D01*
X116736193Y-94529401D01*
X116732676Y-94505691D01*
X116731500Y-94481750D01*
X116731500Y-93918250D01*
X116732676Y-93894309D01*
X116736193Y-93870599D01*
X116742017Y-93847348D01*
X116750092Y-93824780D01*
X116760341Y-93803111D01*
X116772664Y-93782552D01*
X116786942Y-93763299D01*
X116803039Y-93745539D01*
X116820799Y-93729442D01*
X116840052Y-93715164D01*
X116860611Y-93702841D01*
X116882280Y-93692592D01*
X116904848Y-93684517D01*
X116928099Y-93678693D01*
X116951809Y-93675176D01*
X116975750Y-93674000D01*
X117464250Y-93674000D01*
X117488191Y-93675176D01*
X117488191Y-93675176D01*
G37*
D15*
X117220000Y-94200000D03*
D16*
X113940000Y-108630000D03*
D14*
G36*
X114751975Y-105230276D02*
G01*
X114777699Y-105234092D01*
X114802925Y-105240411D01*
X114827411Y-105249172D01*
X114850920Y-105260291D01*
X114873226Y-105273661D01*
X114894114Y-105289152D01*
X114913383Y-105306617D01*
X114930848Y-105325886D01*
X114946339Y-105346774D01*
X114959709Y-105369080D01*
X114970828Y-105392589D01*
X114979589Y-105417075D01*
X114985908Y-105442301D01*
X114989724Y-105468025D01*
X114991000Y-105494000D01*
X114991000Y-106766000D01*
X114989724Y-106791975D01*
X114985908Y-106817699D01*
X114979589Y-106842925D01*
X114970828Y-106867411D01*
X114959709Y-106890920D01*
X114946339Y-106913226D01*
X114930848Y-106934114D01*
X114913383Y-106953383D01*
X114894114Y-106970848D01*
X114873226Y-106986339D01*
X114850920Y-106999709D01*
X114827411Y-107010828D01*
X114802925Y-107019589D01*
X114777699Y-107025908D01*
X114751975Y-107029724D01*
X114726000Y-107031000D01*
X113154000Y-107031000D01*
X113128025Y-107029724D01*
X113102301Y-107025908D01*
X113077075Y-107019589D01*
X113052589Y-107010828D01*
X113029080Y-106999709D01*
X113006774Y-106986339D01*
X112985886Y-106970848D01*
X112966617Y-106953383D01*
X112949152Y-106934114D01*
X112933661Y-106913226D01*
X112920291Y-106890920D01*
X112909172Y-106867411D01*
X112900411Y-106842925D01*
X112894092Y-106817699D01*
X112890276Y-106791975D01*
X112889000Y-106766000D01*
X112889000Y-105494000D01*
X112890276Y-105468025D01*
X112894092Y-105442301D01*
X112900411Y-105417075D01*
X112909172Y-105392589D01*
X112920291Y-105369080D01*
X112933661Y-105346774D01*
X112949152Y-105325886D01*
X112966617Y-105306617D01*
X112985886Y-105289152D01*
X113006774Y-105273661D01*
X113029080Y-105260291D01*
X113052589Y-105249172D01*
X113077075Y-105240411D01*
X113102301Y-105234092D01*
X113128025Y-105230276D01*
X113154000Y-105229000D01*
X114726000Y-105229000D01*
X114751975Y-105230276D01*
X114751975Y-105230276D01*
G37*
D17*
X113940000Y-106130000D03*
D16*
X113930000Y-117160000D03*
D14*
G36*
X114741975Y-113760276D02*
G01*
X114767699Y-113764092D01*
X114792925Y-113770411D01*
X114817411Y-113779172D01*
X114840920Y-113790291D01*
X114863226Y-113803661D01*
X114884114Y-113819152D01*
X114903383Y-113836617D01*
X114920848Y-113855886D01*
X114936339Y-113876774D01*
X114949709Y-113899080D01*
X114960828Y-113922589D01*
X114969589Y-113947075D01*
X114975908Y-113972301D01*
X114979724Y-113998025D01*
X114981000Y-114024000D01*
X114981000Y-115296000D01*
X114979724Y-115321975D01*
X114975908Y-115347699D01*
X114969589Y-115372925D01*
X114960828Y-115397411D01*
X114949709Y-115420920D01*
X114936339Y-115443226D01*
X114920848Y-115464114D01*
X114903383Y-115483383D01*
X114884114Y-115500848D01*
X114863226Y-115516339D01*
X114840920Y-115529709D01*
X114817411Y-115540828D01*
X114792925Y-115549589D01*
X114767699Y-115555908D01*
X114741975Y-115559724D01*
X114716000Y-115561000D01*
X113144000Y-115561000D01*
X113118025Y-115559724D01*
X113092301Y-115555908D01*
X113067075Y-115549589D01*
X113042589Y-115540828D01*
X113019080Y-115529709D01*
X112996774Y-115516339D01*
X112975886Y-115500848D01*
X112956617Y-115483383D01*
X112939152Y-115464114D01*
X112923661Y-115443226D01*
X112910291Y-115420920D01*
X112899172Y-115397411D01*
X112890411Y-115372925D01*
X112884092Y-115347699D01*
X112880276Y-115321975D01*
X112879000Y-115296000D01*
X112879000Y-114024000D01*
X112880276Y-113998025D01*
X112884092Y-113972301D01*
X112890411Y-113947075D01*
X112899172Y-113922589D01*
X112910291Y-113899080D01*
X112923661Y-113876774D01*
X112939152Y-113855886D01*
X112956617Y-113836617D01*
X112975886Y-113819152D01*
X112996774Y-113803661D01*
X113019080Y-113790291D01*
X113042589Y-113779172D01*
X113067075Y-113770411D01*
X113092301Y-113764092D01*
X113118025Y-113760276D01*
X113144000Y-113759000D01*
X114716000Y-113759000D01*
X114741975Y-113760276D01*
X114741975Y-113760276D01*
G37*
D17*
X113930000Y-114660000D03*
D18*
X136040000Y-105210000D03*
X136040000Y-107210000D03*
X136040000Y-109210000D03*
D14*
G36*
X136721338Y-110560306D02*
G01*
X136747669Y-110564212D01*
X136773490Y-110570680D01*
X136798553Y-110579648D01*
X136822617Y-110591029D01*
X136845449Y-110604714D01*
X136866830Y-110620571D01*
X136886553Y-110638447D01*
X136904429Y-110658170D01*
X136920286Y-110679551D01*
X136933971Y-110702383D01*
X136945352Y-110726447D01*
X136954320Y-110751510D01*
X136960788Y-110777331D01*
X136964694Y-110803662D01*
X136966000Y-110830249D01*
X136966000Y-111589751D01*
X136964694Y-111616338D01*
X136960788Y-111642669D01*
X136954320Y-111668490D01*
X136945352Y-111693553D01*
X136933971Y-111717617D01*
X136920286Y-111740449D01*
X136904429Y-111761830D01*
X136886553Y-111781553D01*
X136866830Y-111799429D01*
X136845449Y-111815286D01*
X136822617Y-111828971D01*
X136798553Y-111840352D01*
X136773490Y-111849320D01*
X136747669Y-111855788D01*
X136721338Y-111859694D01*
X136694751Y-111861000D01*
X135385249Y-111861000D01*
X135358662Y-111859694D01*
X135332331Y-111855788D01*
X135306510Y-111849320D01*
X135281447Y-111840352D01*
X135257383Y-111828971D01*
X135234551Y-111815286D01*
X135213170Y-111799429D01*
X135193447Y-111781553D01*
X135175571Y-111761830D01*
X135159714Y-111740449D01*
X135146029Y-111717617D01*
X135134648Y-111693553D01*
X135125680Y-111668490D01*
X135119212Y-111642669D01*
X135115306Y-111616338D01*
X135114000Y-111589751D01*
X135114000Y-110830249D01*
X135115306Y-110803662D01*
X135119212Y-110777331D01*
X135125680Y-110751510D01*
X135134648Y-110726447D01*
X135146029Y-110702383D01*
X135159714Y-110679551D01*
X135175571Y-110658170D01*
X135193447Y-110638447D01*
X135213170Y-110620571D01*
X135234551Y-110604714D01*
X135257383Y-110591029D01*
X135281447Y-110579648D01*
X135306510Y-110570680D01*
X135332331Y-110564212D01*
X135358662Y-110560306D01*
X135385249Y-110559000D01*
X136694751Y-110559000D01*
X136721338Y-110560306D01*
X136721338Y-110560306D01*
G37*
D19*
X136040000Y-111210000D03*
D18*
X136050000Y-92120000D03*
X136050000Y-94120000D03*
X136050000Y-96120000D03*
X136050000Y-98120000D03*
D14*
G36*
X136731338Y-99470306D02*
G01*
X136757669Y-99474212D01*
X136783490Y-99480680D01*
X136808553Y-99489648D01*
X136832617Y-99501029D01*
X136855449Y-99514714D01*
X136876830Y-99530571D01*
X136896553Y-99548447D01*
X136914429Y-99568170D01*
X136930286Y-99589551D01*
X136943971Y-99612383D01*
X136955352Y-99636447D01*
X136964320Y-99661510D01*
X136970788Y-99687331D01*
X136974694Y-99713662D01*
X136976000Y-99740249D01*
X136976000Y-100499751D01*
X136974694Y-100526338D01*
X136970788Y-100552669D01*
X136964320Y-100578490D01*
X136955352Y-100603553D01*
X136943971Y-100627617D01*
X136930286Y-100650449D01*
X136914429Y-100671830D01*
X136896553Y-100691553D01*
X136876830Y-100709429D01*
X136855449Y-100725286D01*
X136832617Y-100738971D01*
X136808553Y-100750352D01*
X136783490Y-100759320D01*
X136757669Y-100765788D01*
X136731338Y-100769694D01*
X136704751Y-100771000D01*
X135395249Y-100771000D01*
X135368662Y-100769694D01*
X135342331Y-100765788D01*
X135316510Y-100759320D01*
X135291447Y-100750352D01*
X135267383Y-100738971D01*
X135244551Y-100725286D01*
X135223170Y-100709429D01*
X135203447Y-100691553D01*
X135185571Y-100671830D01*
X135169714Y-100650449D01*
X135156029Y-100627617D01*
X135144648Y-100603553D01*
X135135680Y-100578490D01*
X135129212Y-100552669D01*
X135125306Y-100526338D01*
X135124000Y-100499751D01*
X135124000Y-99740249D01*
X135125306Y-99713662D01*
X135129212Y-99687331D01*
X135135680Y-99661510D01*
X135144648Y-99636447D01*
X135156029Y-99612383D01*
X135169714Y-99589551D01*
X135185571Y-99568170D01*
X135203447Y-99548447D01*
X135223170Y-99530571D01*
X135244551Y-99514714D01*
X135267383Y-99501029D01*
X135291447Y-99489648D01*
X135316510Y-99480680D01*
X135342331Y-99474212D01*
X135368662Y-99470306D01*
X135395249Y-99469000D01*
X136704751Y-99469000D01*
X136731338Y-99470306D01*
X136731338Y-99470306D01*
G37*
D19*
X136050000Y-100120000D03*
D20*
X119200000Y-85250000D03*
D14*
G36*
X121606338Y-84325306D02*
G01*
X121632669Y-84329212D01*
X121658490Y-84335680D01*
X121683553Y-84344648D01*
X121707617Y-84356029D01*
X121730449Y-84369714D01*
X121751830Y-84385571D01*
X121771553Y-84403447D01*
X121789429Y-84423170D01*
X121805286Y-84444551D01*
X121818971Y-84467383D01*
X121830352Y-84491447D01*
X121839320Y-84516510D01*
X121845788Y-84542331D01*
X121849694Y-84568662D01*
X121851000Y-84595249D01*
X121851000Y-85904751D01*
X121849694Y-85931338D01*
X121845788Y-85957669D01*
X121839320Y-85983490D01*
X121830352Y-86008553D01*
X121818971Y-86032617D01*
X121805286Y-86055449D01*
X121789429Y-86076830D01*
X121771553Y-86096553D01*
X121751830Y-86114429D01*
X121730449Y-86130286D01*
X121707617Y-86143971D01*
X121683553Y-86155352D01*
X121658490Y-86164320D01*
X121632669Y-86170788D01*
X121606338Y-86174694D01*
X121579751Y-86176000D01*
X120820249Y-86176000D01*
X120793662Y-86174694D01*
X120767331Y-86170788D01*
X120741510Y-86164320D01*
X120716447Y-86155352D01*
X120692383Y-86143971D01*
X120669551Y-86130286D01*
X120648170Y-86114429D01*
X120628447Y-86096553D01*
X120610571Y-86076830D01*
X120594714Y-86055449D01*
X120581029Y-86032617D01*
X120569648Y-86008553D01*
X120560680Y-85983490D01*
X120554212Y-85957669D01*
X120550306Y-85931338D01*
X120549000Y-85904751D01*
X120549000Y-84595249D01*
X120550306Y-84568662D01*
X120554212Y-84542331D01*
X120560680Y-84516510D01*
X120569648Y-84491447D01*
X120581029Y-84467383D01*
X120594714Y-84444551D01*
X120610571Y-84423170D01*
X120628447Y-84403447D01*
X120648170Y-84385571D01*
X120669551Y-84369714D01*
X120692383Y-84356029D01*
X120716447Y-84344648D01*
X120741510Y-84335680D01*
X120767331Y-84329212D01*
X120793662Y-84325306D01*
X120820249Y-84324000D01*
X121579751Y-84324000D01*
X121606338Y-84325306D01*
X121606338Y-84325306D01*
G37*
D19*
X121200000Y-85250000D03*
D21*
X139697056Y-123802944D03*
X138000000Y-123100000D03*
X136302944Y-123802944D03*
X135600000Y-125500000D03*
X136302944Y-127197056D03*
X138000000Y-127900000D03*
X139697056Y-127197056D03*
X140400000Y-125500000D03*
D22*
X138000000Y-125500000D03*
D21*
X113447056Y-123802944D03*
X111750000Y-123100000D03*
X110052944Y-123802944D03*
X109350000Y-125500000D03*
X110052944Y-127197056D03*
X111750000Y-127900000D03*
X113447056Y-127197056D03*
X114150000Y-125500000D03*
D22*
X111750000Y-125500000D03*
D21*
X139697056Y-82302944D03*
X138000000Y-81600000D03*
X136302944Y-82302944D03*
X135600000Y-84000000D03*
X136302944Y-85697056D03*
X138000000Y-86400000D03*
X139697056Y-85697056D03*
X140400000Y-84000000D03*
D22*
X138000000Y-84000000D03*
D21*
X113447056Y-82302944D03*
X111750000Y-81600000D03*
X110052944Y-82302944D03*
X109350000Y-84000000D03*
X110052944Y-85697056D03*
X111750000Y-86400000D03*
X113447056Y-85697056D03*
X114150000Y-84000000D03*
D22*
X111750000Y-84000000D03*
D14*
G36*
X118963191Y-95175176D02*
G01*
X118986901Y-95178693D01*
X119010152Y-95184517D01*
X119032720Y-95192592D01*
X119054389Y-95202841D01*
X119074948Y-95215164D01*
X119094201Y-95229442D01*
X119111961Y-95245539D01*
X119128058Y-95263299D01*
X119142336Y-95282552D01*
X119154659Y-95303111D01*
X119164908Y-95324780D01*
X119172983Y-95347348D01*
X119178807Y-95370599D01*
X119182324Y-95394309D01*
X119183500Y-95418250D01*
X119183500Y-95981750D01*
X119182324Y-96005691D01*
X119178807Y-96029401D01*
X119172983Y-96052652D01*
X119164908Y-96075220D01*
X119154659Y-96096889D01*
X119142336Y-96117448D01*
X119128058Y-96136701D01*
X119111961Y-96154461D01*
X119094201Y-96170558D01*
X119074948Y-96184836D01*
X119054389Y-96197159D01*
X119032720Y-96207408D01*
X119010152Y-96215483D01*
X118986901Y-96221307D01*
X118963191Y-96224824D01*
X118939250Y-96226000D01*
X118450750Y-96226000D01*
X118426809Y-96224824D01*
X118403099Y-96221307D01*
X118379848Y-96215483D01*
X118357280Y-96207408D01*
X118335611Y-96197159D01*
X118315052Y-96184836D01*
X118295799Y-96170558D01*
X118278039Y-96154461D01*
X118261942Y-96136701D01*
X118247664Y-96117448D01*
X118235341Y-96096889D01*
X118225092Y-96075220D01*
X118217017Y-96052652D01*
X118211193Y-96029401D01*
X118207676Y-96005691D01*
X118206500Y-95981750D01*
X118206500Y-95418250D01*
X118207676Y-95394309D01*
X118211193Y-95370599D01*
X118217017Y-95347348D01*
X118225092Y-95324780D01*
X118235341Y-95303111D01*
X118247664Y-95282552D01*
X118261942Y-95263299D01*
X118278039Y-95245539D01*
X118295799Y-95229442D01*
X118315052Y-95215164D01*
X118335611Y-95202841D01*
X118357280Y-95192592D01*
X118379848Y-95184517D01*
X118403099Y-95178693D01*
X118426809Y-95175176D01*
X118450750Y-95174000D01*
X118939250Y-95174000D01*
X118963191Y-95175176D01*
X118963191Y-95175176D01*
G37*
D15*
X118695000Y-95700000D03*
D14*
G36*
X120538191Y-95175176D02*
G01*
X120561901Y-95178693D01*
X120585152Y-95184517D01*
X120607720Y-95192592D01*
X120629389Y-95202841D01*
X120649948Y-95215164D01*
X120669201Y-95229442D01*
X120686961Y-95245539D01*
X120703058Y-95263299D01*
X120717336Y-95282552D01*
X120729659Y-95303111D01*
X120739908Y-95324780D01*
X120747983Y-95347348D01*
X120753807Y-95370599D01*
X120757324Y-95394309D01*
X120758500Y-95418250D01*
X120758500Y-95981750D01*
X120757324Y-96005691D01*
X120753807Y-96029401D01*
X120747983Y-96052652D01*
X120739908Y-96075220D01*
X120729659Y-96096889D01*
X120717336Y-96117448D01*
X120703058Y-96136701D01*
X120686961Y-96154461D01*
X120669201Y-96170558D01*
X120649948Y-96184836D01*
X120629389Y-96197159D01*
X120607720Y-96207408D01*
X120585152Y-96215483D01*
X120561901Y-96221307D01*
X120538191Y-96224824D01*
X120514250Y-96226000D01*
X120025750Y-96226000D01*
X120001809Y-96224824D01*
X119978099Y-96221307D01*
X119954848Y-96215483D01*
X119932280Y-96207408D01*
X119910611Y-96197159D01*
X119890052Y-96184836D01*
X119870799Y-96170558D01*
X119853039Y-96154461D01*
X119836942Y-96136701D01*
X119822664Y-96117448D01*
X119810341Y-96096889D01*
X119800092Y-96075220D01*
X119792017Y-96052652D01*
X119786193Y-96029401D01*
X119782676Y-96005691D01*
X119781500Y-95981750D01*
X119781500Y-95418250D01*
X119782676Y-95394309D01*
X119786193Y-95370599D01*
X119792017Y-95347348D01*
X119800092Y-95324780D01*
X119810341Y-95303111D01*
X119822664Y-95282552D01*
X119836942Y-95263299D01*
X119853039Y-95245539D01*
X119870799Y-95229442D01*
X119890052Y-95215164D01*
X119910611Y-95202841D01*
X119932280Y-95192592D01*
X119954848Y-95184517D01*
X119978099Y-95178693D01*
X120001809Y-95175176D01*
X120025750Y-95174000D01*
X120514250Y-95174000D01*
X120538191Y-95175176D01*
X120538191Y-95175176D01*
G37*
D15*
X120270000Y-95700000D03*
D14*
G36*
X127543191Y-91725176D02*
G01*
X127566901Y-91728693D01*
X127590152Y-91734517D01*
X127612720Y-91742592D01*
X127634389Y-91752841D01*
X127654948Y-91765164D01*
X127674201Y-91779442D01*
X127691961Y-91795539D01*
X127708058Y-91813299D01*
X127722336Y-91832552D01*
X127734659Y-91853111D01*
X127744908Y-91874780D01*
X127752983Y-91897348D01*
X127758807Y-91920599D01*
X127762324Y-91944309D01*
X127763500Y-91968250D01*
X127763500Y-92531750D01*
X127762324Y-92555691D01*
X127758807Y-92579401D01*
X127752983Y-92602652D01*
X127744908Y-92625220D01*
X127734659Y-92646889D01*
X127722336Y-92667448D01*
X127708058Y-92686701D01*
X127691961Y-92704461D01*
X127674201Y-92720558D01*
X127654948Y-92734836D01*
X127634389Y-92747159D01*
X127612720Y-92757408D01*
X127590152Y-92765483D01*
X127566901Y-92771307D01*
X127543191Y-92774824D01*
X127519250Y-92776000D01*
X127030750Y-92776000D01*
X127006809Y-92774824D01*
X126983099Y-92771307D01*
X126959848Y-92765483D01*
X126937280Y-92757408D01*
X126915611Y-92747159D01*
X126895052Y-92734836D01*
X126875799Y-92720558D01*
X126858039Y-92704461D01*
X126841942Y-92686701D01*
X126827664Y-92667448D01*
X126815341Y-92646889D01*
X126805092Y-92625220D01*
X126797017Y-92602652D01*
X126791193Y-92579401D01*
X126787676Y-92555691D01*
X126786500Y-92531750D01*
X126786500Y-91968250D01*
X126787676Y-91944309D01*
X126791193Y-91920599D01*
X126797017Y-91897348D01*
X126805092Y-91874780D01*
X126815341Y-91853111D01*
X126827664Y-91832552D01*
X126841942Y-91813299D01*
X126858039Y-91795539D01*
X126875799Y-91779442D01*
X126895052Y-91765164D01*
X126915611Y-91752841D01*
X126937280Y-91742592D01*
X126959848Y-91734517D01*
X126983099Y-91728693D01*
X127006809Y-91725176D01*
X127030750Y-91724000D01*
X127519250Y-91724000D01*
X127543191Y-91725176D01*
X127543191Y-91725176D01*
G37*
D15*
X127275000Y-92250000D03*
D14*
G36*
X125968191Y-91725176D02*
G01*
X125991901Y-91728693D01*
X126015152Y-91734517D01*
X126037720Y-91742592D01*
X126059389Y-91752841D01*
X126079948Y-91765164D01*
X126099201Y-91779442D01*
X126116961Y-91795539D01*
X126133058Y-91813299D01*
X126147336Y-91832552D01*
X126159659Y-91853111D01*
X126169908Y-91874780D01*
X126177983Y-91897348D01*
X126183807Y-91920599D01*
X126187324Y-91944309D01*
X126188500Y-91968250D01*
X126188500Y-92531750D01*
X126187324Y-92555691D01*
X126183807Y-92579401D01*
X126177983Y-92602652D01*
X126169908Y-92625220D01*
X126159659Y-92646889D01*
X126147336Y-92667448D01*
X126133058Y-92686701D01*
X126116961Y-92704461D01*
X126099201Y-92720558D01*
X126079948Y-92734836D01*
X126059389Y-92747159D01*
X126037720Y-92757408D01*
X126015152Y-92765483D01*
X125991901Y-92771307D01*
X125968191Y-92774824D01*
X125944250Y-92776000D01*
X125455750Y-92776000D01*
X125431809Y-92774824D01*
X125408099Y-92771307D01*
X125384848Y-92765483D01*
X125362280Y-92757408D01*
X125340611Y-92747159D01*
X125320052Y-92734836D01*
X125300799Y-92720558D01*
X125283039Y-92704461D01*
X125266942Y-92686701D01*
X125252664Y-92667448D01*
X125240341Y-92646889D01*
X125230092Y-92625220D01*
X125222017Y-92602652D01*
X125216193Y-92579401D01*
X125212676Y-92555691D01*
X125211500Y-92531750D01*
X125211500Y-91968250D01*
X125212676Y-91944309D01*
X125216193Y-91920599D01*
X125222017Y-91897348D01*
X125230092Y-91874780D01*
X125240341Y-91853111D01*
X125252664Y-91832552D01*
X125266942Y-91813299D01*
X125283039Y-91795539D01*
X125300799Y-91779442D01*
X125320052Y-91765164D01*
X125340611Y-91752841D01*
X125362280Y-91742592D01*
X125384848Y-91734517D01*
X125408099Y-91728693D01*
X125431809Y-91725176D01*
X125455750Y-91724000D01*
X125944250Y-91724000D01*
X125968191Y-91725176D01*
X125968191Y-91725176D01*
G37*
D15*
X125700000Y-92250000D03*
D14*
G36*
X119743191Y-91835176D02*
G01*
X119766901Y-91838693D01*
X119790152Y-91844517D01*
X119812720Y-91852592D01*
X119834389Y-91862841D01*
X119854948Y-91875164D01*
X119874201Y-91889442D01*
X119891961Y-91905539D01*
X119908058Y-91923299D01*
X119922336Y-91942552D01*
X119934659Y-91963111D01*
X119944908Y-91984780D01*
X119952983Y-92007348D01*
X119958807Y-92030599D01*
X119962324Y-92054309D01*
X119963500Y-92078250D01*
X119963500Y-92641750D01*
X119962324Y-92665691D01*
X119958807Y-92689401D01*
X119952983Y-92712652D01*
X119944908Y-92735220D01*
X119934659Y-92756889D01*
X119922336Y-92777448D01*
X119908058Y-92796701D01*
X119891961Y-92814461D01*
X119874201Y-92830558D01*
X119854948Y-92844836D01*
X119834389Y-92857159D01*
X119812720Y-92867408D01*
X119790152Y-92875483D01*
X119766901Y-92881307D01*
X119743191Y-92884824D01*
X119719250Y-92886000D01*
X119230750Y-92886000D01*
X119206809Y-92884824D01*
X119183099Y-92881307D01*
X119159848Y-92875483D01*
X119137280Y-92867408D01*
X119115611Y-92857159D01*
X119095052Y-92844836D01*
X119075799Y-92830558D01*
X119058039Y-92814461D01*
X119041942Y-92796701D01*
X119027664Y-92777448D01*
X119015341Y-92756889D01*
X119005092Y-92735220D01*
X118997017Y-92712652D01*
X118991193Y-92689401D01*
X118987676Y-92665691D01*
X118986500Y-92641750D01*
X118986500Y-92078250D01*
X118987676Y-92054309D01*
X118991193Y-92030599D01*
X118997017Y-92007348D01*
X119005092Y-91984780D01*
X119015341Y-91963111D01*
X119027664Y-91942552D01*
X119041942Y-91923299D01*
X119058039Y-91905539D01*
X119075799Y-91889442D01*
X119095052Y-91875164D01*
X119115611Y-91862841D01*
X119137280Y-91852592D01*
X119159848Y-91844517D01*
X119183099Y-91838693D01*
X119206809Y-91835176D01*
X119230750Y-91834000D01*
X119719250Y-91834000D01*
X119743191Y-91835176D01*
X119743191Y-91835176D01*
G37*
D15*
X119475000Y-92360000D03*
D14*
G36*
X121318191Y-91835176D02*
G01*
X121341901Y-91838693D01*
X121365152Y-91844517D01*
X121387720Y-91852592D01*
X121409389Y-91862841D01*
X121429948Y-91875164D01*
X121449201Y-91889442D01*
X121466961Y-91905539D01*
X121483058Y-91923299D01*
X121497336Y-91942552D01*
X121509659Y-91963111D01*
X121519908Y-91984780D01*
X121527983Y-92007348D01*
X121533807Y-92030599D01*
X121537324Y-92054309D01*
X121538500Y-92078250D01*
X121538500Y-92641750D01*
X121537324Y-92665691D01*
X121533807Y-92689401D01*
X121527983Y-92712652D01*
X121519908Y-92735220D01*
X121509659Y-92756889D01*
X121497336Y-92777448D01*
X121483058Y-92796701D01*
X121466961Y-92814461D01*
X121449201Y-92830558D01*
X121429948Y-92844836D01*
X121409389Y-92857159D01*
X121387720Y-92867408D01*
X121365152Y-92875483D01*
X121341901Y-92881307D01*
X121318191Y-92884824D01*
X121294250Y-92886000D01*
X120805750Y-92886000D01*
X120781809Y-92884824D01*
X120758099Y-92881307D01*
X120734848Y-92875483D01*
X120712280Y-92867408D01*
X120690611Y-92857159D01*
X120670052Y-92844836D01*
X120650799Y-92830558D01*
X120633039Y-92814461D01*
X120616942Y-92796701D01*
X120602664Y-92777448D01*
X120590341Y-92756889D01*
X120580092Y-92735220D01*
X120572017Y-92712652D01*
X120566193Y-92689401D01*
X120562676Y-92665691D01*
X120561500Y-92641750D01*
X120561500Y-92078250D01*
X120562676Y-92054309D01*
X120566193Y-92030599D01*
X120572017Y-92007348D01*
X120580092Y-91984780D01*
X120590341Y-91963111D01*
X120602664Y-91942552D01*
X120616942Y-91923299D01*
X120633039Y-91905539D01*
X120650799Y-91889442D01*
X120670052Y-91875164D01*
X120690611Y-91862841D01*
X120712280Y-91852592D01*
X120734848Y-91844517D01*
X120758099Y-91838693D01*
X120781809Y-91835176D01*
X120805750Y-91834000D01*
X121294250Y-91834000D01*
X121318191Y-91835176D01*
X121318191Y-91835176D01*
G37*
D15*
X121050000Y-92360000D03*
M02*
