G04 #@! TF.GenerationSoftware,KiCad,Pcbnew,(5.1.4)-1*
G04 #@! TF.CreationDate,2022-02-20T14:50:57-05:00*
G04 #@! TF.ProjectId,Telemetry PCB,54656c65-6d65-4747-9279-205043422e6b,rev?*
G04 #@! TF.SameCoordinates,Original*
G04 #@! TF.FileFunction,Soldermask,Bot*
G04 #@! TF.FilePolarity,Negative*
%FSLAX46Y46*%
G04 Gerber Fmt 4.6, Leading zero omitted, Abs format (unit mm)*
G04 Created by KiCad (PCBNEW (5.1.4)-1) date 2022-02-20 14:50:57*
%MOMM*%
%LPD*%
G04 APERTURE LIST*
%ADD10C,0.100000*%
G04 APERTURE END LIST*
D10*
G36*
X138634239Y-122311467D02*
G01*
X138948282Y-122373934D01*
X139539926Y-122619001D01*
X140072392Y-122974784D01*
X140525216Y-123427608D01*
X140880999Y-123960074D01*
X141126066Y-124551718D01*
X141126066Y-124551719D01*
X141251000Y-125179803D01*
X141251000Y-125820197D01*
X141188533Y-126134239D01*
X141126066Y-126448282D01*
X140880999Y-127039926D01*
X140525216Y-127572392D01*
X140072392Y-128025216D01*
X139539926Y-128380999D01*
X138948282Y-128626066D01*
X138634239Y-128688533D01*
X138320197Y-128751000D01*
X137679803Y-128751000D01*
X137365761Y-128688533D01*
X137051718Y-128626066D01*
X136460074Y-128380999D01*
X135927608Y-128025216D01*
X135474784Y-127572392D01*
X135119001Y-127039926D01*
X134873934Y-126448282D01*
X134811467Y-126134239D01*
X134749000Y-125820197D01*
X134749000Y-125179803D01*
X134873934Y-124551719D01*
X134873934Y-124551718D01*
X135119001Y-123960074D01*
X135474784Y-123427608D01*
X135927608Y-122974784D01*
X136460074Y-122619001D01*
X137051718Y-122373934D01*
X137365761Y-122311467D01*
X137679803Y-122249000D01*
X138320197Y-122249000D01*
X138634239Y-122311467D01*
X138634239Y-122311467D01*
G37*
G36*
X112384239Y-122311467D02*
G01*
X112698282Y-122373934D01*
X113289926Y-122619001D01*
X113822392Y-122974784D01*
X114275216Y-123427608D01*
X114630999Y-123960074D01*
X114876066Y-124551718D01*
X114876066Y-124551719D01*
X115001000Y-125179803D01*
X115001000Y-125820197D01*
X114938533Y-126134239D01*
X114876066Y-126448282D01*
X114630999Y-127039926D01*
X114275216Y-127572392D01*
X113822392Y-128025216D01*
X113289926Y-128380999D01*
X112698282Y-128626066D01*
X112384239Y-128688533D01*
X112070197Y-128751000D01*
X111429803Y-128751000D01*
X111115761Y-128688533D01*
X110801718Y-128626066D01*
X110210074Y-128380999D01*
X109677608Y-128025216D01*
X109224784Y-127572392D01*
X108869001Y-127039926D01*
X108623934Y-126448282D01*
X108561467Y-126134239D01*
X108499000Y-125820197D01*
X108499000Y-125179803D01*
X108623934Y-124551719D01*
X108623934Y-124551718D01*
X108869001Y-123960074D01*
X109224784Y-123427608D01*
X109677608Y-122974784D01*
X110210074Y-122619001D01*
X110801718Y-122373934D01*
X111115761Y-122311467D01*
X111429803Y-122249000D01*
X112070197Y-122249000D01*
X112384239Y-122311467D01*
X112384239Y-122311467D01*
G37*
G36*
X114190443Y-116265519D02*
G01*
X114256627Y-116272037D01*
X114426466Y-116323557D01*
X114582991Y-116407222D01*
X114618729Y-116436552D01*
X114720186Y-116519814D01*
X114803448Y-116621271D01*
X114832778Y-116657009D01*
X114916443Y-116813534D01*
X114967963Y-116983373D01*
X114985359Y-117160000D01*
X114967963Y-117336627D01*
X114916443Y-117506466D01*
X114832778Y-117662991D01*
X114803448Y-117698729D01*
X114720186Y-117800186D01*
X114618729Y-117883448D01*
X114582991Y-117912778D01*
X114426466Y-117996443D01*
X114256627Y-118047963D01*
X114190443Y-118054481D01*
X114124260Y-118061000D01*
X113735740Y-118061000D01*
X113669557Y-118054481D01*
X113603373Y-118047963D01*
X113433534Y-117996443D01*
X113277009Y-117912778D01*
X113241271Y-117883448D01*
X113139814Y-117800186D01*
X113056552Y-117698729D01*
X113027222Y-117662991D01*
X112943557Y-117506466D01*
X112892037Y-117336627D01*
X112874641Y-117160000D01*
X112892037Y-116983373D01*
X112943557Y-116813534D01*
X113027222Y-116657009D01*
X113056552Y-116621271D01*
X113139814Y-116519814D01*
X113241271Y-116436552D01*
X113277009Y-116407222D01*
X113433534Y-116323557D01*
X113603373Y-116272037D01*
X113669557Y-116265519D01*
X113735740Y-116259000D01*
X114124260Y-116259000D01*
X114190443Y-116265519D01*
X114190443Y-116265519D01*
G37*
G36*
X114838600Y-113762989D02*
G01*
X114871652Y-113773015D01*
X114902103Y-113789292D01*
X114928799Y-113811201D01*
X114950708Y-113837897D01*
X114966985Y-113868348D01*
X114977011Y-113901400D01*
X114981000Y-113941903D01*
X114981000Y-115378097D01*
X114977011Y-115418600D01*
X114966985Y-115451652D01*
X114950708Y-115482103D01*
X114928799Y-115508799D01*
X114902103Y-115530708D01*
X114871652Y-115546985D01*
X114838600Y-115557011D01*
X114798097Y-115561000D01*
X113061903Y-115561000D01*
X113021400Y-115557011D01*
X112988348Y-115546985D01*
X112957897Y-115530708D01*
X112931201Y-115508799D01*
X112909292Y-115482103D01*
X112893015Y-115451652D01*
X112882989Y-115418600D01*
X112879000Y-115378097D01*
X112879000Y-113941903D01*
X112882989Y-113901400D01*
X112893015Y-113868348D01*
X112909292Y-113837897D01*
X112931201Y-113811201D01*
X112957897Y-113789292D01*
X112988348Y-113773015D01*
X113021400Y-113762989D01*
X113061903Y-113759000D01*
X114798097Y-113759000D01*
X114838600Y-113762989D01*
X114838600Y-113762989D01*
G37*
G36*
X136806242Y-110563404D02*
G01*
X136843337Y-110574657D01*
X136877515Y-110592925D01*
X136907481Y-110617519D01*
X136932075Y-110647485D01*
X136950343Y-110681663D01*
X136961596Y-110718758D01*
X136966000Y-110763474D01*
X136966000Y-111656526D01*
X136961596Y-111701242D01*
X136950343Y-111738337D01*
X136932075Y-111772515D01*
X136907481Y-111802481D01*
X136877515Y-111827075D01*
X136843337Y-111845343D01*
X136806242Y-111856596D01*
X136761526Y-111861000D01*
X135318474Y-111861000D01*
X135273758Y-111856596D01*
X135236663Y-111845343D01*
X135202485Y-111827075D01*
X135172519Y-111802481D01*
X135147925Y-111772515D01*
X135129657Y-111738337D01*
X135118404Y-111701242D01*
X135114000Y-111656526D01*
X135114000Y-110763474D01*
X135118404Y-110718758D01*
X135129657Y-110681663D01*
X135147925Y-110647485D01*
X135172519Y-110617519D01*
X135202485Y-110592925D01*
X135236663Y-110574657D01*
X135273758Y-110563404D01*
X135318474Y-110559000D01*
X136761526Y-110559000D01*
X136806242Y-110563404D01*
X136806242Y-110563404D01*
G37*
G36*
X136378855Y-108562140D02*
G01*
X136442618Y-108568420D01*
X136533404Y-108595960D01*
X136565336Y-108605646D01*
X136678425Y-108666094D01*
X136777554Y-108747446D01*
X136858906Y-108846575D01*
X136919354Y-108959664D01*
X136919355Y-108959668D01*
X136956580Y-109082382D01*
X136969149Y-109210000D01*
X136956580Y-109337618D01*
X136929040Y-109428404D01*
X136919354Y-109460336D01*
X136858906Y-109573425D01*
X136777554Y-109672554D01*
X136678425Y-109753906D01*
X136565336Y-109814354D01*
X136533404Y-109824040D01*
X136442618Y-109851580D01*
X136378855Y-109857860D01*
X136346974Y-109861000D01*
X135733026Y-109861000D01*
X135701145Y-109857860D01*
X135637382Y-109851580D01*
X135546596Y-109824040D01*
X135514664Y-109814354D01*
X135401575Y-109753906D01*
X135302446Y-109672554D01*
X135221094Y-109573425D01*
X135160646Y-109460336D01*
X135150960Y-109428404D01*
X135123420Y-109337618D01*
X135110851Y-109210000D01*
X135123420Y-109082382D01*
X135160645Y-108959668D01*
X135160646Y-108959664D01*
X135221094Y-108846575D01*
X135302446Y-108747446D01*
X135401575Y-108666094D01*
X135514664Y-108605646D01*
X135546596Y-108595960D01*
X135637382Y-108568420D01*
X135701145Y-108562140D01*
X135733026Y-108559000D01*
X136346974Y-108559000D01*
X136378855Y-108562140D01*
X136378855Y-108562140D01*
G37*
G36*
X114200443Y-107735519D02*
G01*
X114266627Y-107742037D01*
X114436466Y-107793557D01*
X114592991Y-107877222D01*
X114628729Y-107906552D01*
X114730186Y-107989814D01*
X114813448Y-108091271D01*
X114842778Y-108127009D01*
X114926443Y-108283534D01*
X114977963Y-108453373D01*
X114995359Y-108630000D01*
X114977963Y-108806627D01*
X114926443Y-108976466D01*
X114842778Y-109132991D01*
X114813448Y-109168729D01*
X114730186Y-109270186D01*
X114628729Y-109353448D01*
X114592991Y-109382778D01*
X114436466Y-109466443D01*
X114266627Y-109517963D01*
X114200442Y-109524482D01*
X114134260Y-109531000D01*
X113745740Y-109531000D01*
X113679558Y-109524482D01*
X113613373Y-109517963D01*
X113443534Y-109466443D01*
X113287009Y-109382778D01*
X113251271Y-109353448D01*
X113149814Y-109270186D01*
X113066552Y-109168729D01*
X113037222Y-109132991D01*
X112953557Y-108976466D01*
X112902037Y-108806627D01*
X112884641Y-108630000D01*
X112902037Y-108453373D01*
X112953557Y-108283534D01*
X113037222Y-108127009D01*
X113066552Y-108091271D01*
X113149814Y-107989814D01*
X113251271Y-107906552D01*
X113287009Y-107877222D01*
X113443534Y-107793557D01*
X113613373Y-107742037D01*
X113679557Y-107735519D01*
X113745740Y-107729000D01*
X114134260Y-107729000D01*
X114200443Y-107735519D01*
X114200443Y-107735519D01*
G37*
G36*
X136378855Y-106562140D02*
G01*
X136442618Y-106568420D01*
X136533404Y-106595960D01*
X136565336Y-106605646D01*
X136678425Y-106666094D01*
X136777554Y-106747446D01*
X136858906Y-106846575D01*
X136919354Y-106959664D01*
X136919355Y-106959668D01*
X136956580Y-107082382D01*
X136969149Y-107210000D01*
X136956580Y-107337618D01*
X136929040Y-107428404D01*
X136919354Y-107460336D01*
X136858906Y-107573425D01*
X136777554Y-107672554D01*
X136678425Y-107753906D01*
X136565336Y-107814354D01*
X136533404Y-107824040D01*
X136442618Y-107851580D01*
X136378855Y-107857860D01*
X136346974Y-107861000D01*
X135733026Y-107861000D01*
X135701145Y-107857860D01*
X135637382Y-107851580D01*
X135546596Y-107824040D01*
X135514664Y-107814354D01*
X135401575Y-107753906D01*
X135302446Y-107672554D01*
X135221094Y-107573425D01*
X135160646Y-107460336D01*
X135150960Y-107428404D01*
X135123420Y-107337618D01*
X135110851Y-107210000D01*
X135123420Y-107082382D01*
X135160645Y-106959668D01*
X135160646Y-106959664D01*
X135221094Y-106846575D01*
X135302446Y-106747446D01*
X135401575Y-106666094D01*
X135514664Y-106605646D01*
X135546596Y-106595960D01*
X135637382Y-106568420D01*
X135701145Y-106562140D01*
X135733026Y-106559000D01*
X136346974Y-106559000D01*
X136378855Y-106562140D01*
X136378855Y-106562140D01*
G37*
G36*
X114848600Y-105232989D02*
G01*
X114881652Y-105243015D01*
X114912103Y-105259292D01*
X114938799Y-105281201D01*
X114960708Y-105307897D01*
X114976985Y-105338348D01*
X114987011Y-105371400D01*
X114991000Y-105411903D01*
X114991000Y-106848097D01*
X114987011Y-106888600D01*
X114976985Y-106921652D01*
X114960708Y-106952103D01*
X114938799Y-106978799D01*
X114912103Y-107000708D01*
X114881652Y-107016985D01*
X114848600Y-107027011D01*
X114808097Y-107031000D01*
X113071903Y-107031000D01*
X113031400Y-107027011D01*
X112998348Y-107016985D01*
X112967897Y-107000708D01*
X112941201Y-106978799D01*
X112919292Y-106952103D01*
X112903015Y-106921652D01*
X112892989Y-106888600D01*
X112889000Y-106848097D01*
X112889000Y-105411903D01*
X112892989Y-105371400D01*
X112903015Y-105338348D01*
X112919292Y-105307897D01*
X112941201Y-105281201D01*
X112967897Y-105259292D01*
X112998348Y-105243015D01*
X113031400Y-105232989D01*
X113071903Y-105229000D01*
X114808097Y-105229000D01*
X114848600Y-105232989D01*
X114848600Y-105232989D01*
G37*
G36*
X136378855Y-104562140D02*
G01*
X136442618Y-104568420D01*
X136533404Y-104595960D01*
X136565336Y-104605646D01*
X136678425Y-104666094D01*
X136777554Y-104747446D01*
X136858906Y-104846575D01*
X136919354Y-104959664D01*
X136919355Y-104959668D01*
X136956580Y-105082382D01*
X136969149Y-105210000D01*
X136956580Y-105337618D01*
X136934046Y-105411903D01*
X136919354Y-105460336D01*
X136858906Y-105573425D01*
X136777554Y-105672554D01*
X136678425Y-105753906D01*
X136565336Y-105814354D01*
X136533404Y-105824040D01*
X136442618Y-105851580D01*
X136378855Y-105857860D01*
X136346974Y-105861000D01*
X135733026Y-105861000D01*
X135701145Y-105857860D01*
X135637382Y-105851580D01*
X135546596Y-105824040D01*
X135514664Y-105814354D01*
X135401575Y-105753906D01*
X135302446Y-105672554D01*
X135221094Y-105573425D01*
X135160646Y-105460336D01*
X135145954Y-105411903D01*
X135123420Y-105337618D01*
X135110851Y-105210000D01*
X135123420Y-105082382D01*
X135160645Y-104959668D01*
X135160646Y-104959664D01*
X135221094Y-104846575D01*
X135302446Y-104747446D01*
X135401575Y-104666094D01*
X135514664Y-104605646D01*
X135546596Y-104595960D01*
X135637382Y-104568420D01*
X135701145Y-104562140D01*
X135733026Y-104559000D01*
X136346974Y-104559000D01*
X136378855Y-104562140D01*
X136378855Y-104562140D01*
G37*
G36*
X136816242Y-99473404D02*
G01*
X136853337Y-99484657D01*
X136887515Y-99502925D01*
X136917481Y-99527519D01*
X136942075Y-99557485D01*
X136960343Y-99591663D01*
X136971596Y-99628758D01*
X136976000Y-99673474D01*
X136976000Y-100566526D01*
X136971596Y-100611242D01*
X136960343Y-100648337D01*
X136942075Y-100682515D01*
X136917481Y-100712481D01*
X136887515Y-100737075D01*
X136853337Y-100755343D01*
X136816242Y-100766596D01*
X136771526Y-100771000D01*
X135328474Y-100771000D01*
X135283758Y-100766596D01*
X135246663Y-100755343D01*
X135212485Y-100737075D01*
X135182519Y-100712481D01*
X135157925Y-100682515D01*
X135139657Y-100648337D01*
X135128404Y-100611242D01*
X135124000Y-100566526D01*
X135124000Y-99673474D01*
X135128404Y-99628758D01*
X135139657Y-99591663D01*
X135157925Y-99557485D01*
X135182519Y-99527519D01*
X135212485Y-99502925D01*
X135246663Y-99484657D01*
X135283758Y-99473404D01*
X135328474Y-99469000D01*
X136771526Y-99469000D01*
X136816242Y-99473404D01*
X136816242Y-99473404D01*
G37*
G36*
X111641000Y-100631000D02*
G01*
X108039000Y-100631000D01*
X108039000Y-99029000D01*
X111641000Y-99029000D01*
X111641000Y-100631000D01*
X111641000Y-100631000D01*
G37*
G36*
X136388855Y-97472140D02*
G01*
X136452618Y-97478420D01*
X136543404Y-97505960D01*
X136575336Y-97515646D01*
X136688425Y-97576094D01*
X136787554Y-97657446D01*
X136868906Y-97756575D01*
X136929354Y-97869664D01*
X136929355Y-97869668D01*
X136966580Y-97992382D01*
X136979149Y-98120000D01*
X136966580Y-98247618D01*
X136939040Y-98338404D01*
X136929354Y-98370336D01*
X136868906Y-98483425D01*
X136787554Y-98582554D01*
X136688425Y-98663906D01*
X136575336Y-98724354D01*
X136543404Y-98734040D01*
X136452618Y-98761580D01*
X136388855Y-98767860D01*
X136356974Y-98771000D01*
X135743026Y-98771000D01*
X135711145Y-98767860D01*
X135647382Y-98761580D01*
X135556596Y-98734040D01*
X135524664Y-98724354D01*
X135411575Y-98663906D01*
X135312446Y-98582554D01*
X135231094Y-98483425D01*
X135170646Y-98370336D01*
X135160960Y-98338404D01*
X135133420Y-98247618D01*
X135120851Y-98120000D01*
X135133420Y-97992382D01*
X135170645Y-97869668D01*
X135170646Y-97869664D01*
X135231094Y-97756575D01*
X135312446Y-97657446D01*
X135411575Y-97576094D01*
X135524664Y-97515646D01*
X135556596Y-97505960D01*
X135647382Y-97478420D01*
X135711145Y-97472140D01*
X135743026Y-97469000D01*
X136356974Y-97469000D01*
X136388855Y-97472140D01*
X136388855Y-97472140D01*
G37*
G36*
X136388855Y-95472140D02*
G01*
X136452618Y-95478420D01*
X136543404Y-95505960D01*
X136575336Y-95515646D01*
X136688425Y-95576094D01*
X136787554Y-95657446D01*
X136868906Y-95756575D01*
X136929354Y-95869664D01*
X136929355Y-95869668D01*
X136966580Y-95992382D01*
X136979149Y-96120000D01*
X136966580Y-96247618D01*
X136939040Y-96338404D01*
X136929354Y-96370336D01*
X136868906Y-96483425D01*
X136787554Y-96582554D01*
X136688425Y-96663906D01*
X136575336Y-96724354D01*
X136543404Y-96734040D01*
X136452618Y-96761580D01*
X136388855Y-96767860D01*
X136356974Y-96771000D01*
X135743026Y-96771000D01*
X135711145Y-96767860D01*
X135647382Y-96761580D01*
X135556596Y-96734040D01*
X135524664Y-96724354D01*
X135411575Y-96663906D01*
X135312446Y-96582554D01*
X135231094Y-96483425D01*
X135170646Y-96370336D01*
X135160960Y-96338404D01*
X135133420Y-96247618D01*
X135120851Y-96120000D01*
X135133420Y-95992382D01*
X135170645Y-95869668D01*
X135170646Y-95869664D01*
X135231094Y-95756575D01*
X135312446Y-95657446D01*
X135411575Y-95576094D01*
X135524664Y-95515646D01*
X135556596Y-95505960D01*
X135647382Y-95478420D01*
X135711145Y-95472140D01*
X135743026Y-95469000D01*
X136356974Y-95469000D01*
X136388855Y-95472140D01*
X136388855Y-95472140D01*
G37*
G36*
X120612091Y-95178085D02*
G01*
X120646069Y-95188393D01*
X120677390Y-95205134D01*
X120704839Y-95227661D01*
X120727366Y-95255110D01*
X120744107Y-95286431D01*
X120754415Y-95320409D01*
X120758500Y-95361890D01*
X120758500Y-96038110D01*
X120754415Y-96079591D01*
X120744107Y-96113569D01*
X120727366Y-96144890D01*
X120704839Y-96172339D01*
X120677390Y-96194866D01*
X120646069Y-96211607D01*
X120612091Y-96221915D01*
X120570610Y-96226000D01*
X119969390Y-96226000D01*
X119927909Y-96221915D01*
X119893931Y-96211607D01*
X119862610Y-96194866D01*
X119835161Y-96172339D01*
X119812634Y-96144890D01*
X119795893Y-96113569D01*
X119785585Y-96079591D01*
X119781500Y-96038110D01*
X119781500Y-95361890D01*
X119785585Y-95320409D01*
X119795893Y-95286431D01*
X119812634Y-95255110D01*
X119835161Y-95227661D01*
X119862610Y-95205134D01*
X119893931Y-95188393D01*
X119927909Y-95178085D01*
X119969390Y-95174000D01*
X120570610Y-95174000D01*
X120612091Y-95178085D01*
X120612091Y-95178085D01*
G37*
G36*
X119037091Y-95178085D02*
G01*
X119071069Y-95188393D01*
X119102390Y-95205134D01*
X119129839Y-95227661D01*
X119152366Y-95255110D01*
X119169107Y-95286431D01*
X119179415Y-95320409D01*
X119183500Y-95361890D01*
X119183500Y-96038110D01*
X119179415Y-96079591D01*
X119169107Y-96113569D01*
X119152366Y-96144890D01*
X119129839Y-96172339D01*
X119102390Y-96194866D01*
X119071069Y-96211607D01*
X119037091Y-96221915D01*
X118995610Y-96226000D01*
X118394390Y-96226000D01*
X118352909Y-96221915D01*
X118318931Y-96211607D01*
X118287610Y-96194866D01*
X118260161Y-96172339D01*
X118237634Y-96144890D01*
X118220893Y-96113569D01*
X118210585Y-96079591D01*
X118206500Y-96038110D01*
X118206500Y-95361890D01*
X118210585Y-95320409D01*
X118220893Y-95286431D01*
X118237634Y-95255110D01*
X118260161Y-95227661D01*
X118287610Y-95205134D01*
X118318931Y-95188393D01*
X118352909Y-95178085D01*
X118394390Y-95174000D01*
X118995610Y-95174000D01*
X119037091Y-95178085D01*
X119037091Y-95178085D01*
G37*
G36*
X111641000Y-95231000D02*
G01*
X108039000Y-95231000D01*
X108039000Y-93629000D01*
X111641000Y-93629000D01*
X111641000Y-95231000D01*
X111641000Y-95231000D01*
G37*
G36*
X136388855Y-93472140D02*
G01*
X136452618Y-93478420D01*
X136543404Y-93505960D01*
X136575336Y-93515646D01*
X136688425Y-93576094D01*
X136787554Y-93657446D01*
X136868906Y-93756575D01*
X136929354Y-93869664D01*
X136939040Y-93901596D01*
X136966580Y-93992382D01*
X136979149Y-94120000D01*
X136966580Y-94247618D01*
X136939040Y-94338404D01*
X136929354Y-94370336D01*
X136868906Y-94483425D01*
X136787554Y-94582554D01*
X136688425Y-94663906D01*
X136575336Y-94724354D01*
X136543404Y-94734040D01*
X136452618Y-94761580D01*
X136388855Y-94767860D01*
X136356974Y-94771000D01*
X135743026Y-94771000D01*
X135711145Y-94767860D01*
X135647382Y-94761580D01*
X135556596Y-94734040D01*
X135524664Y-94724354D01*
X135411575Y-94663906D01*
X135312446Y-94582554D01*
X135231094Y-94483425D01*
X135170646Y-94370336D01*
X135160960Y-94338404D01*
X135133420Y-94247618D01*
X135120851Y-94120000D01*
X135133420Y-93992382D01*
X135160960Y-93901596D01*
X135170646Y-93869664D01*
X135231094Y-93756575D01*
X135312446Y-93657446D01*
X135411575Y-93576094D01*
X135524664Y-93515646D01*
X135556596Y-93505960D01*
X135647382Y-93478420D01*
X135711145Y-93472140D01*
X135743026Y-93469000D01*
X136356974Y-93469000D01*
X136388855Y-93472140D01*
X136388855Y-93472140D01*
G37*
G36*
X115987091Y-93678085D02*
G01*
X116021069Y-93688393D01*
X116052390Y-93705134D01*
X116079839Y-93727661D01*
X116102366Y-93755110D01*
X116119107Y-93786431D01*
X116129415Y-93820409D01*
X116133500Y-93861890D01*
X116133500Y-94538110D01*
X116129415Y-94579591D01*
X116119107Y-94613569D01*
X116102366Y-94644890D01*
X116079839Y-94672339D01*
X116052390Y-94694866D01*
X116021069Y-94711607D01*
X115987091Y-94721915D01*
X115945610Y-94726000D01*
X115344390Y-94726000D01*
X115302909Y-94721915D01*
X115268931Y-94711607D01*
X115237610Y-94694866D01*
X115210161Y-94672339D01*
X115187634Y-94644890D01*
X115170893Y-94613569D01*
X115160585Y-94579591D01*
X115156500Y-94538110D01*
X115156500Y-93861890D01*
X115160585Y-93820409D01*
X115170893Y-93786431D01*
X115187634Y-93755110D01*
X115210161Y-93727661D01*
X115237610Y-93705134D01*
X115268931Y-93688393D01*
X115302909Y-93678085D01*
X115344390Y-93674000D01*
X115945610Y-93674000D01*
X115987091Y-93678085D01*
X115987091Y-93678085D01*
G37*
G36*
X117562091Y-93678085D02*
G01*
X117596069Y-93688393D01*
X117627390Y-93705134D01*
X117654839Y-93727661D01*
X117677366Y-93755110D01*
X117694107Y-93786431D01*
X117704415Y-93820409D01*
X117708500Y-93861890D01*
X117708500Y-94538110D01*
X117704415Y-94579591D01*
X117694107Y-94613569D01*
X117677366Y-94644890D01*
X117654839Y-94672339D01*
X117627390Y-94694866D01*
X117596069Y-94711607D01*
X117562091Y-94721915D01*
X117520610Y-94726000D01*
X116919390Y-94726000D01*
X116877909Y-94721915D01*
X116843931Y-94711607D01*
X116812610Y-94694866D01*
X116785161Y-94672339D01*
X116762634Y-94644890D01*
X116745893Y-94613569D01*
X116735585Y-94579591D01*
X116731500Y-94538110D01*
X116731500Y-93861890D01*
X116735585Y-93820409D01*
X116745893Y-93786431D01*
X116762634Y-93755110D01*
X116785161Y-93727661D01*
X116812610Y-93705134D01*
X116843931Y-93688393D01*
X116877909Y-93678085D01*
X116919390Y-93674000D01*
X117520610Y-93674000D01*
X117562091Y-93678085D01*
X117562091Y-93678085D01*
G37*
G36*
X119817091Y-91838085D02*
G01*
X119851069Y-91848393D01*
X119882390Y-91865134D01*
X119909839Y-91887661D01*
X119932366Y-91915110D01*
X119949107Y-91946431D01*
X119959415Y-91980409D01*
X119963500Y-92021890D01*
X119963500Y-92698110D01*
X119959415Y-92739591D01*
X119949107Y-92773569D01*
X119932366Y-92804890D01*
X119909839Y-92832339D01*
X119882390Y-92854866D01*
X119851069Y-92871607D01*
X119817091Y-92881915D01*
X119775610Y-92886000D01*
X119174390Y-92886000D01*
X119132909Y-92881915D01*
X119098931Y-92871607D01*
X119067610Y-92854866D01*
X119040161Y-92832339D01*
X119017634Y-92804890D01*
X119000893Y-92773569D01*
X118990585Y-92739591D01*
X118986500Y-92698110D01*
X118986500Y-92021890D01*
X118990585Y-91980409D01*
X119000893Y-91946431D01*
X119017634Y-91915110D01*
X119040161Y-91887661D01*
X119067610Y-91865134D01*
X119098931Y-91848393D01*
X119132909Y-91838085D01*
X119174390Y-91834000D01*
X119775610Y-91834000D01*
X119817091Y-91838085D01*
X119817091Y-91838085D01*
G37*
G36*
X121392091Y-91838085D02*
G01*
X121426069Y-91848393D01*
X121457390Y-91865134D01*
X121484839Y-91887661D01*
X121507366Y-91915110D01*
X121524107Y-91946431D01*
X121534415Y-91980409D01*
X121538500Y-92021890D01*
X121538500Y-92698110D01*
X121534415Y-92739591D01*
X121524107Y-92773569D01*
X121507366Y-92804890D01*
X121484839Y-92832339D01*
X121457390Y-92854866D01*
X121426069Y-92871607D01*
X121392091Y-92881915D01*
X121350610Y-92886000D01*
X120749390Y-92886000D01*
X120707909Y-92881915D01*
X120673931Y-92871607D01*
X120642610Y-92854866D01*
X120615161Y-92832339D01*
X120592634Y-92804890D01*
X120575893Y-92773569D01*
X120565585Y-92739591D01*
X120561500Y-92698110D01*
X120561500Y-92021890D01*
X120565585Y-91980409D01*
X120575893Y-91946431D01*
X120592634Y-91915110D01*
X120615161Y-91887661D01*
X120642610Y-91865134D01*
X120673931Y-91848393D01*
X120707909Y-91838085D01*
X120749390Y-91834000D01*
X121350610Y-91834000D01*
X121392091Y-91838085D01*
X121392091Y-91838085D01*
G37*
G36*
X127617091Y-91728085D02*
G01*
X127651069Y-91738393D01*
X127682390Y-91755134D01*
X127709839Y-91777661D01*
X127732366Y-91805110D01*
X127749107Y-91836431D01*
X127759415Y-91870409D01*
X127763500Y-91911890D01*
X127763500Y-92588110D01*
X127759415Y-92629591D01*
X127749107Y-92663569D01*
X127732366Y-92694890D01*
X127709839Y-92722339D01*
X127682390Y-92744866D01*
X127651069Y-92761607D01*
X127617091Y-92771915D01*
X127575610Y-92776000D01*
X126974390Y-92776000D01*
X126932909Y-92771915D01*
X126898931Y-92761607D01*
X126867610Y-92744866D01*
X126840161Y-92722339D01*
X126817634Y-92694890D01*
X126800893Y-92663569D01*
X126790585Y-92629591D01*
X126786500Y-92588110D01*
X126786500Y-91911890D01*
X126790585Y-91870409D01*
X126800893Y-91836431D01*
X126817634Y-91805110D01*
X126840161Y-91777661D01*
X126867610Y-91755134D01*
X126898931Y-91738393D01*
X126932909Y-91728085D01*
X126974390Y-91724000D01*
X127575610Y-91724000D01*
X127617091Y-91728085D01*
X127617091Y-91728085D01*
G37*
G36*
X126042091Y-91728085D02*
G01*
X126076069Y-91738393D01*
X126107390Y-91755134D01*
X126134839Y-91777661D01*
X126157366Y-91805110D01*
X126174107Y-91836431D01*
X126184415Y-91870409D01*
X126188500Y-91911890D01*
X126188500Y-92588110D01*
X126184415Y-92629591D01*
X126174107Y-92663569D01*
X126157366Y-92694890D01*
X126134839Y-92722339D01*
X126107390Y-92744866D01*
X126076069Y-92761607D01*
X126042091Y-92771915D01*
X126000610Y-92776000D01*
X125399390Y-92776000D01*
X125357909Y-92771915D01*
X125323931Y-92761607D01*
X125292610Y-92744866D01*
X125265161Y-92722339D01*
X125242634Y-92694890D01*
X125225893Y-92663569D01*
X125215585Y-92629591D01*
X125211500Y-92588110D01*
X125211500Y-91911890D01*
X125215585Y-91870409D01*
X125225893Y-91836431D01*
X125242634Y-91805110D01*
X125265161Y-91777661D01*
X125292610Y-91755134D01*
X125323931Y-91738393D01*
X125357909Y-91728085D01*
X125399390Y-91724000D01*
X126000610Y-91724000D01*
X126042091Y-91728085D01*
X126042091Y-91728085D01*
G37*
G36*
X136388855Y-91472140D02*
G01*
X136452618Y-91478420D01*
X136543404Y-91505960D01*
X136575336Y-91515646D01*
X136688425Y-91576094D01*
X136787554Y-91657446D01*
X136868906Y-91756575D01*
X136929354Y-91869664D01*
X136929355Y-91869668D01*
X136966580Y-91992382D01*
X136979149Y-92120000D01*
X136966580Y-92247618D01*
X136939040Y-92338404D01*
X136929354Y-92370336D01*
X136868906Y-92483425D01*
X136787554Y-92582554D01*
X136688425Y-92663906D01*
X136575336Y-92724354D01*
X136543404Y-92734040D01*
X136452618Y-92761580D01*
X136388855Y-92767860D01*
X136356974Y-92771000D01*
X135743026Y-92771000D01*
X135711145Y-92767860D01*
X135647382Y-92761580D01*
X135556596Y-92734040D01*
X135524664Y-92724354D01*
X135411575Y-92663906D01*
X135312446Y-92582554D01*
X135231094Y-92483425D01*
X135170646Y-92370336D01*
X135160960Y-92338404D01*
X135133420Y-92247618D01*
X135120851Y-92120000D01*
X135133420Y-91992382D01*
X135170645Y-91869668D01*
X135170646Y-91869664D01*
X135231094Y-91756575D01*
X135312446Y-91657446D01*
X135411575Y-91576094D01*
X135524664Y-91515646D01*
X135556596Y-91505960D01*
X135647382Y-91478420D01*
X135711145Y-91472140D01*
X135743026Y-91469000D01*
X136356974Y-91469000D01*
X136388855Y-91472140D01*
X136388855Y-91472140D01*
G37*
G36*
X138634239Y-80811467D02*
G01*
X138948282Y-80873934D01*
X139539926Y-81119001D01*
X140072392Y-81474784D01*
X140525216Y-81927608D01*
X140880999Y-82460074D01*
X141126066Y-83051718D01*
X141126066Y-83051719D01*
X141251000Y-83679803D01*
X141251000Y-84320197D01*
X141218466Y-84483758D01*
X141126066Y-84948282D01*
X140880999Y-85539926D01*
X140648139Y-85888425D01*
X140527546Y-86068906D01*
X140525216Y-86072392D01*
X140072392Y-86525216D01*
X139539926Y-86880999D01*
X138948282Y-87126066D01*
X138634239Y-87188533D01*
X138320197Y-87251000D01*
X137679803Y-87251000D01*
X137365761Y-87188533D01*
X137051718Y-87126066D01*
X136460074Y-86880999D01*
X135927608Y-86525216D01*
X135474784Y-86072392D01*
X135472455Y-86068906D01*
X135351861Y-85888425D01*
X135119001Y-85539926D01*
X134873934Y-84948282D01*
X134781534Y-84483758D01*
X134749000Y-84320197D01*
X134749000Y-83679803D01*
X134873934Y-83051719D01*
X134873934Y-83051718D01*
X135119001Y-82460074D01*
X135474784Y-81927608D01*
X135927608Y-81474784D01*
X136460074Y-81119001D01*
X137051718Y-80873934D01*
X137365761Y-80811467D01*
X137679803Y-80749000D01*
X138320197Y-80749000D01*
X138634239Y-80811467D01*
X138634239Y-80811467D01*
G37*
G36*
X112384239Y-80811467D02*
G01*
X112698282Y-80873934D01*
X113289926Y-81119001D01*
X113822392Y-81474784D01*
X114275216Y-81927608D01*
X114630999Y-82460074D01*
X114876066Y-83051718D01*
X114876066Y-83051719D01*
X115001000Y-83679803D01*
X115001000Y-84320197D01*
X114968466Y-84483758D01*
X114876066Y-84948282D01*
X114630999Y-85539926D01*
X114398139Y-85888425D01*
X114277546Y-86068906D01*
X114275216Y-86072392D01*
X113822392Y-86525216D01*
X113289926Y-86880999D01*
X112698282Y-87126066D01*
X112384239Y-87188533D01*
X112070197Y-87251000D01*
X111429803Y-87251000D01*
X111115761Y-87188533D01*
X110801718Y-87126066D01*
X110210074Y-86880999D01*
X109677608Y-86525216D01*
X109224784Y-86072392D01*
X109222455Y-86068906D01*
X109101861Y-85888425D01*
X108869001Y-85539926D01*
X108623934Y-84948282D01*
X108531534Y-84483758D01*
X108499000Y-84320197D01*
X108499000Y-83679803D01*
X108623934Y-83051719D01*
X108623934Y-83051718D01*
X108869001Y-82460074D01*
X109224784Y-81927608D01*
X109677608Y-81474784D01*
X110210074Y-81119001D01*
X110801718Y-80873934D01*
X111115761Y-80811467D01*
X111429803Y-80749000D01*
X112070197Y-80749000D01*
X112384239Y-80811467D01*
X112384239Y-80811467D01*
G37*
G36*
X119327618Y-84333420D02*
G01*
X119408400Y-84357925D01*
X119450336Y-84370646D01*
X119563425Y-84431094D01*
X119662554Y-84512446D01*
X119743906Y-84611575D01*
X119804354Y-84724664D01*
X119804355Y-84724668D01*
X119841580Y-84847382D01*
X119851000Y-84943027D01*
X119851000Y-85556973D01*
X119841580Y-85652618D01*
X119814625Y-85741476D01*
X119804354Y-85775336D01*
X119743906Y-85888425D01*
X119662554Y-85987553D01*
X119563424Y-86068906D01*
X119450335Y-86129354D01*
X119418403Y-86139040D01*
X119327617Y-86166580D01*
X119200000Y-86179149D01*
X119072382Y-86166580D01*
X118981596Y-86139040D01*
X118949664Y-86129354D01*
X118836575Y-86068906D01*
X118737447Y-85987554D01*
X118656094Y-85888424D01*
X118595646Y-85775335D01*
X118558426Y-85652636D01*
X118558420Y-85652617D01*
X118549000Y-85556972D01*
X118549000Y-84943027D01*
X118558420Y-84847382D01*
X118595645Y-84724668D01*
X118595645Y-84724667D01*
X118627957Y-84664217D01*
X118656095Y-84611574D01*
X118669493Y-84595249D01*
X118737447Y-84512446D01*
X118836576Y-84431094D01*
X118949665Y-84370646D01*
X118991601Y-84357925D01*
X119072383Y-84333420D01*
X119200000Y-84320851D01*
X119327618Y-84333420D01*
X119327618Y-84333420D01*
G37*
G36*
X121691242Y-84328404D02*
G01*
X121728337Y-84339657D01*
X121762515Y-84357925D01*
X121792481Y-84382519D01*
X121817075Y-84412485D01*
X121835343Y-84446663D01*
X121846596Y-84483758D01*
X121851000Y-84528474D01*
X121851000Y-85971526D01*
X121846596Y-86016242D01*
X121835343Y-86053337D01*
X121817075Y-86087515D01*
X121792481Y-86117481D01*
X121762515Y-86142075D01*
X121728337Y-86160343D01*
X121691242Y-86171596D01*
X121646526Y-86176000D01*
X120753474Y-86176000D01*
X120708758Y-86171596D01*
X120671663Y-86160343D01*
X120637485Y-86142075D01*
X120607519Y-86117481D01*
X120582925Y-86087515D01*
X120564657Y-86053337D01*
X120553404Y-86016242D01*
X120549000Y-85971526D01*
X120549000Y-84528474D01*
X120553404Y-84483758D01*
X120564657Y-84446663D01*
X120582925Y-84412485D01*
X120607519Y-84382519D01*
X120637485Y-84357925D01*
X120671663Y-84339657D01*
X120708758Y-84328404D01*
X120753474Y-84324000D01*
X121646526Y-84324000D01*
X121691242Y-84328404D01*
X121691242Y-84328404D01*
G37*
M02*
