G04 #@! TF.GenerationSoftware,KiCad,Pcbnew,(5.1.4)-1*
G04 #@! TF.CreationDate,2022-02-20T14:50:57-05:00*
G04 #@! TF.ProjectId,Telemetry PCB,54656c65-6d65-4747-9279-205043422e6b,rev?*
G04 #@! TF.SameCoordinates,Original*
G04 #@! TF.FileFunction,Copper,L3,Inr*
G04 #@! TF.FilePolarity,Positive*
%FSLAX46Y46*%
G04 Gerber Fmt 4.6, Leading zero omitted, Abs format (unit mm)*
G04 Created by KiCad (PCBNEW (5.1.4)-1) date 2022-02-20 14:50:57*
%MOMM*%
%LPD*%
G04 APERTURE LIST*
%ADD10O,2.000000X1.700000*%
%ADD11C,0.100000*%
%ADD12C,1.700000*%
%ADD13O,1.750000X1.200000*%
%ADD14C,1.200000*%
%ADD15O,1.200000X1.750000*%
%ADD16C,0.800000*%
%ADD17C,6.400000*%
%ADD18C,0.254000*%
G04 APERTURE END LIST*
D10*
X113940000Y-108630000D03*
D11*
G36*
X114714504Y-105281204D02*
G01*
X114738773Y-105284804D01*
X114762571Y-105290765D01*
X114785671Y-105299030D01*
X114807849Y-105309520D01*
X114828893Y-105322133D01*
X114848598Y-105336747D01*
X114866777Y-105353223D01*
X114883253Y-105371402D01*
X114897867Y-105391107D01*
X114910480Y-105412151D01*
X114920970Y-105434329D01*
X114929235Y-105457429D01*
X114935196Y-105481227D01*
X114938796Y-105505496D01*
X114940000Y-105530000D01*
X114940000Y-106730000D01*
X114938796Y-106754504D01*
X114935196Y-106778773D01*
X114929235Y-106802571D01*
X114920970Y-106825671D01*
X114910480Y-106847849D01*
X114897867Y-106868893D01*
X114883253Y-106888598D01*
X114866777Y-106906777D01*
X114848598Y-106923253D01*
X114828893Y-106937867D01*
X114807849Y-106950480D01*
X114785671Y-106960970D01*
X114762571Y-106969235D01*
X114738773Y-106975196D01*
X114714504Y-106978796D01*
X114690000Y-106980000D01*
X113190000Y-106980000D01*
X113165496Y-106978796D01*
X113141227Y-106975196D01*
X113117429Y-106969235D01*
X113094329Y-106960970D01*
X113072151Y-106950480D01*
X113051107Y-106937867D01*
X113031402Y-106923253D01*
X113013223Y-106906777D01*
X112996747Y-106888598D01*
X112982133Y-106868893D01*
X112969520Y-106847849D01*
X112959030Y-106825671D01*
X112950765Y-106802571D01*
X112944804Y-106778773D01*
X112941204Y-106754504D01*
X112940000Y-106730000D01*
X112940000Y-105530000D01*
X112941204Y-105505496D01*
X112944804Y-105481227D01*
X112950765Y-105457429D01*
X112959030Y-105434329D01*
X112969520Y-105412151D01*
X112982133Y-105391107D01*
X112996747Y-105371402D01*
X113013223Y-105353223D01*
X113031402Y-105336747D01*
X113051107Y-105322133D01*
X113072151Y-105309520D01*
X113094329Y-105299030D01*
X113117429Y-105290765D01*
X113141227Y-105284804D01*
X113165496Y-105281204D01*
X113190000Y-105280000D01*
X114690000Y-105280000D01*
X114714504Y-105281204D01*
X114714504Y-105281204D01*
G37*
D12*
X113940000Y-106130000D03*
D10*
X113930000Y-117160000D03*
D11*
G36*
X114704504Y-113811204D02*
G01*
X114728773Y-113814804D01*
X114752571Y-113820765D01*
X114775671Y-113829030D01*
X114797849Y-113839520D01*
X114818893Y-113852133D01*
X114838598Y-113866747D01*
X114856777Y-113883223D01*
X114873253Y-113901402D01*
X114887867Y-113921107D01*
X114900480Y-113942151D01*
X114910970Y-113964329D01*
X114919235Y-113987429D01*
X114925196Y-114011227D01*
X114928796Y-114035496D01*
X114930000Y-114060000D01*
X114930000Y-115260000D01*
X114928796Y-115284504D01*
X114925196Y-115308773D01*
X114919235Y-115332571D01*
X114910970Y-115355671D01*
X114900480Y-115377849D01*
X114887867Y-115398893D01*
X114873253Y-115418598D01*
X114856777Y-115436777D01*
X114838598Y-115453253D01*
X114818893Y-115467867D01*
X114797849Y-115480480D01*
X114775671Y-115490970D01*
X114752571Y-115499235D01*
X114728773Y-115505196D01*
X114704504Y-115508796D01*
X114680000Y-115510000D01*
X113180000Y-115510000D01*
X113155496Y-115508796D01*
X113131227Y-115505196D01*
X113107429Y-115499235D01*
X113084329Y-115490970D01*
X113062151Y-115480480D01*
X113041107Y-115467867D01*
X113021402Y-115453253D01*
X113003223Y-115436777D01*
X112986747Y-115418598D01*
X112972133Y-115398893D01*
X112959520Y-115377849D01*
X112949030Y-115355671D01*
X112940765Y-115332571D01*
X112934804Y-115308773D01*
X112931204Y-115284504D01*
X112930000Y-115260000D01*
X112930000Y-114060000D01*
X112931204Y-114035496D01*
X112934804Y-114011227D01*
X112940765Y-113987429D01*
X112949030Y-113964329D01*
X112959520Y-113942151D01*
X112972133Y-113921107D01*
X112986747Y-113901402D01*
X113003223Y-113883223D01*
X113021402Y-113866747D01*
X113041107Y-113852133D01*
X113062151Y-113839520D01*
X113084329Y-113829030D01*
X113107429Y-113820765D01*
X113131227Y-113814804D01*
X113155496Y-113811204D01*
X113180000Y-113810000D01*
X114680000Y-113810000D01*
X114704504Y-113811204D01*
X114704504Y-113811204D01*
G37*
D12*
X113930000Y-114660000D03*
D13*
X136040000Y-105210000D03*
X136040000Y-107210000D03*
X136040000Y-109210000D03*
D11*
G36*
X136689505Y-110611204D02*
G01*
X136713773Y-110614804D01*
X136737572Y-110620765D01*
X136760671Y-110629030D01*
X136782850Y-110639520D01*
X136803893Y-110652132D01*
X136823599Y-110666747D01*
X136841777Y-110683223D01*
X136858253Y-110701401D01*
X136872868Y-110721107D01*
X136885480Y-110742150D01*
X136895970Y-110764329D01*
X136904235Y-110787428D01*
X136910196Y-110811227D01*
X136913796Y-110835495D01*
X136915000Y-110859999D01*
X136915000Y-111560001D01*
X136913796Y-111584505D01*
X136910196Y-111608773D01*
X136904235Y-111632572D01*
X136895970Y-111655671D01*
X136885480Y-111677850D01*
X136872868Y-111698893D01*
X136858253Y-111718599D01*
X136841777Y-111736777D01*
X136823599Y-111753253D01*
X136803893Y-111767868D01*
X136782850Y-111780480D01*
X136760671Y-111790970D01*
X136737572Y-111799235D01*
X136713773Y-111805196D01*
X136689505Y-111808796D01*
X136665001Y-111810000D01*
X135414999Y-111810000D01*
X135390495Y-111808796D01*
X135366227Y-111805196D01*
X135342428Y-111799235D01*
X135319329Y-111790970D01*
X135297150Y-111780480D01*
X135276107Y-111767868D01*
X135256401Y-111753253D01*
X135238223Y-111736777D01*
X135221747Y-111718599D01*
X135207132Y-111698893D01*
X135194520Y-111677850D01*
X135184030Y-111655671D01*
X135175765Y-111632572D01*
X135169804Y-111608773D01*
X135166204Y-111584505D01*
X135165000Y-111560001D01*
X135165000Y-110859999D01*
X135166204Y-110835495D01*
X135169804Y-110811227D01*
X135175765Y-110787428D01*
X135184030Y-110764329D01*
X135194520Y-110742150D01*
X135207132Y-110721107D01*
X135221747Y-110701401D01*
X135238223Y-110683223D01*
X135256401Y-110666747D01*
X135276107Y-110652132D01*
X135297150Y-110639520D01*
X135319329Y-110629030D01*
X135342428Y-110620765D01*
X135366227Y-110614804D01*
X135390495Y-110611204D01*
X135414999Y-110610000D01*
X136665001Y-110610000D01*
X136689505Y-110611204D01*
X136689505Y-110611204D01*
G37*
D14*
X136040000Y-111210000D03*
D13*
X136050000Y-92120000D03*
X136050000Y-94120000D03*
X136050000Y-96120000D03*
X136050000Y-98120000D03*
D11*
G36*
X136699505Y-99521204D02*
G01*
X136723773Y-99524804D01*
X136747572Y-99530765D01*
X136770671Y-99539030D01*
X136792850Y-99549520D01*
X136813893Y-99562132D01*
X136833599Y-99576747D01*
X136851777Y-99593223D01*
X136868253Y-99611401D01*
X136882868Y-99631107D01*
X136895480Y-99652150D01*
X136905970Y-99674329D01*
X136914235Y-99697428D01*
X136920196Y-99721227D01*
X136923796Y-99745495D01*
X136925000Y-99769999D01*
X136925000Y-100470001D01*
X136923796Y-100494505D01*
X136920196Y-100518773D01*
X136914235Y-100542572D01*
X136905970Y-100565671D01*
X136895480Y-100587850D01*
X136882868Y-100608893D01*
X136868253Y-100628599D01*
X136851777Y-100646777D01*
X136833599Y-100663253D01*
X136813893Y-100677868D01*
X136792850Y-100690480D01*
X136770671Y-100700970D01*
X136747572Y-100709235D01*
X136723773Y-100715196D01*
X136699505Y-100718796D01*
X136675001Y-100720000D01*
X135424999Y-100720000D01*
X135400495Y-100718796D01*
X135376227Y-100715196D01*
X135352428Y-100709235D01*
X135329329Y-100700970D01*
X135307150Y-100690480D01*
X135286107Y-100677868D01*
X135266401Y-100663253D01*
X135248223Y-100646777D01*
X135231747Y-100628599D01*
X135217132Y-100608893D01*
X135204520Y-100587850D01*
X135194030Y-100565671D01*
X135185765Y-100542572D01*
X135179804Y-100518773D01*
X135176204Y-100494505D01*
X135175000Y-100470001D01*
X135175000Y-99769999D01*
X135176204Y-99745495D01*
X135179804Y-99721227D01*
X135185765Y-99697428D01*
X135194030Y-99674329D01*
X135204520Y-99652150D01*
X135217132Y-99631107D01*
X135231747Y-99611401D01*
X135248223Y-99593223D01*
X135266401Y-99576747D01*
X135286107Y-99562132D01*
X135307150Y-99549520D01*
X135329329Y-99539030D01*
X135352428Y-99530765D01*
X135376227Y-99524804D01*
X135400495Y-99521204D01*
X135424999Y-99520000D01*
X136675001Y-99520000D01*
X136699505Y-99521204D01*
X136699505Y-99521204D01*
G37*
D14*
X136050000Y-100120000D03*
D15*
X119200000Y-85250000D03*
D11*
G36*
X121574505Y-84376204D02*
G01*
X121598773Y-84379804D01*
X121622572Y-84385765D01*
X121645671Y-84394030D01*
X121667850Y-84404520D01*
X121688893Y-84417132D01*
X121708599Y-84431747D01*
X121726777Y-84448223D01*
X121743253Y-84466401D01*
X121757868Y-84486107D01*
X121770480Y-84507150D01*
X121780970Y-84529329D01*
X121789235Y-84552428D01*
X121795196Y-84576227D01*
X121798796Y-84600495D01*
X121800000Y-84624999D01*
X121800000Y-85875001D01*
X121798796Y-85899505D01*
X121795196Y-85923773D01*
X121789235Y-85947572D01*
X121780970Y-85970671D01*
X121770480Y-85992850D01*
X121757868Y-86013893D01*
X121743253Y-86033599D01*
X121726777Y-86051777D01*
X121708599Y-86068253D01*
X121688893Y-86082868D01*
X121667850Y-86095480D01*
X121645671Y-86105970D01*
X121622572Y-86114235D01*
X121598773Y-86120196D01*
X121574505Y-86123796D01*
X121550001Y-86125000D01*
X120849999Y-86125000D01*
X120825495Y-86123796D01*
X120801227Y-86120196D01*
X120777428Y-86114235D01*
X120754329Y-86105970D01*
X120732150Y-86095480D01*
X120711107Y-86082868D01*
X120691401Y-86068253D01*
X120673223Y-86051777D01*
X120656747Y-86033599D01*
X120642132Y-86013893D01*
X120629520Y-85992850D01*
X120619030Y-85970671D01*
X120610765Y-85947572D01*
X120604804Y-85923773D01*
X120601204Y-85899505D01*
X120600000Y-85875001D01*
X120600000Y-84624999D01*
X120601204Y-84600495D01*
X120604804Y-84576227D01*
X120610765Y-84552428D01*
X120619030Y-84529329D01*
X120629520Y-84507150D01*
X120642132Y-84486107D01*
X120656747Y-84466401D01*
X120673223Y-84448223D01*
X120691401Y-84431747D01*
X120711107Y-84417132D01*
X120732150Y-84404520D01*
X120754329Y-84394030D01*
X120777428Y-84385765D01*
X120801227Y-84379804D01*
X120825495Y-84376204D01*
X120849999Y-84375000D01*
X121550001Y-84375000D01*
X121574505Y-84376204D01*
X121574505Y-84376204D01*
G37*
D14*
X121200000Y-85250000D03*
D16*
X139697056Y-123802944D03*
X138000000Y-123100000D03*
X136302944Y-123802944D03*
X135600000Y-125500000D03*
X136302944Y-127197056D03*
X138000000Y-127900000D03*
X139697056Y-127197056D03*
X140400000Y-125500000D03*
D17*
X138000000Y-125500000D03*
D16*
X113447056Y-123802944D03*
X111750000Y-123100000D03*
X110052944Y-123802944D03*
X109350000Y-125500000D03*
X110052944Y-127197056D03*
X111750000Y-127900000D03*
X113447056Y-127197056D03*
X114150000Y-125500000D03*
D17*
X111750000Y-125500000D03*
D16*
X139697056Y-82302944D03*
X138000000Y-81600000D03*
X136302944Y-82302944D03*
X135600000Y-84000000D03*
X136302944Y-85697056D03*
X138000000Y-86400000D03*
X139697056Y-85697056D03*
X140400000Y-84000000D03*
D17*
X138000000Y-84000000D03*
D16*
X113447056Y-82302944D03*
X111750000Y-81600000D03*
X110052944Y-82302944D03*
X109350000Y-84000000D03*
X110052944Y-85697056D03*
X111750000Y-86400000D03*
X113447056Y-85697056D03*
X114150000Y-84000000D03*
D17*
X111750000Y-84000000D03*
D16*
X124710000Y-98060000D03*
X123570000Y-98060000D03*
X122380000Y-98070000D03*
X124720000Y-96920000D03*
X122360000Y-96940000D03*
X124750000Y-95660000D03*
X123600000Y-95690000D03*
X122340000Y-95680000D03*
X117140000Y-95710000D03*
X108430000Y-101260000D03*
X109260000Y-101250000D03*
X110080000Y-101260000D03*
X110910000Y-101250000D03*
X111740000Y-101260000D03*
X108390000Y-93000000D03*
X109210000Y-92990000D03*
X110020000Y-93000000D03*
X110830000Y-93000000D03*
X111640000Y-93000000D03*
X119240000Y-107210000D03*
X119740000Y-103770000D03*
X121300000Y-103770000D03*
X122880000Y-103770000D03*
X125290000Y-103540000D03*
X122260000Y-111720000D03*
X128080000Y-110040000D03*
X115500000Y-99190000D03*
X115500000Y-100770000D03*
X115500000Y-102310000D03*
X116300000Y-91660000D03*
X117830000Y-91660000D03*
X124340000Y-87200000D03*
X125880000Y-88760000D03*
X131510000Y-88760000D03*
X133010000Y-102830000D03*
X117430000Y-98290000D03*
X123540000Y-96890000D03*
X117610000Y-117380000D03*
X125780000Y-114670000D03*
X125790000Y-116570000D03*
X114490000Y-94200000D03*
X118753657Y-91200698D03*
X127270000Y-93410000D03*
X133030000Y-89400000D03*
X121430000Y-113350000D03*
X121640000Y-88390000D03*
X118230000Y-103520000D03*
X121045147Y-93544853D03*
X125700000Y-93420001D03*
X120263048Y-94463342D03*
X127070000Y-94412400D03*
X119165403Y-94204597D03*
D18*
G36*
X135555330Y-81021161D02*
G01*
X135021161Y-81555330D01*
X134601467Y-82183446D01*
X134312377Y-82881372D01*
X134165000Y-83622285D01*
X134165000Y-84377715D01*
X134312377Y-85118628D01*
X134601467Y-85816554D01*
X135021161Y-86444670D01*
X135555330Y-86978839D01*
X136183446Y-87398533D01*
X136881372Y-87687623D01*
X137622285Y-87835000D01*
X138377715Y-87835000D01*
X139118628Y-87687623D01*
X139816554Y-87398533D01*
X140444670Y-86978839D01*
X140978839Y-86444670D01*
X141398533Y-85816554D01*
X141590001Y-85354309D01*
X141590000Y-122217581D01*
X141590000Y-124145689D01*
X141398533Y-123683446D01*
X140978839Y-123055330D01*
X140444670Y-122521161D01*
X139816554Y-122101467D01*
X139118628Y-121812377D01*
X138377715Y-121665000D01*
X137622285Y-121665000D01*
X136881372Y-121812377D01*
X136183446Y-122101467D01*
X135555330Y-122521161D01*
X135021161Y-123055330D01*
X134601467Y-123683446D01*
X134312377Y-124381372D01*
X134165000Y-125122285D01*
X134165000Y-125877715D01*
X134312377Y-126618628D01*
X134601467Y-127316554D01*
X135021161Y-127944670D01*
X135555330Y-128478839D01*
X136183446Y-128898533D01*
X136645689Y-129090000D01*
X113104311Y-129090000D01*
X113566554Y-128898533D01*
X114194670Y-128478839D01*
X114728839Y-127944670D01*
X115148533Y-127316554D01*
X115437623Y-126618628D01*
X115585000Y-125877715D01*
X115585000Y-125122285D01*
X115437623Y-124381372D01*
X115148533Y-123683446D01*
X114728839Y-123055330D01*
X114194670Y-122521161D01*
X113566554Y-122101467D01*
X112868628Y-121812377D01*
X112127715Y-121665000D01*
X111372285Y-121665000D01*
X110631372Y-121812377D01*
X109933446Y-122101467D01*
X109305330Y-122521161D01*
X108771161Y-123055330D01*
X108351467Y-123683446D01*
X108160000Y-124145689D01*
X108160000Y-117160000D01*
X112287815Y-117160000D01*
X112316487Y-117451111D01*
X112401401Y-117731034D01*
X112539294Y-117989014D01*
X112724866Y-118215134D01*
X112950986Y-118400706D01*
X113208966Y-118538599D01*
X113488889Y-118623513D01*
X113707050Y-118645000D01*
X114152950Y-118645000D01*
X114371111Y-118623513D01*
X114651034Y-118538599D01*
X114909014Y-118400706D01*
X115135134Y-118215134D01*
X115320706Y-117989014D01*
X115458599Y-117731034D01*
X115543513Y-117451111D01*
X115560556Y-117278061D01*
X116575000Y-117278061D01*
X116575000Y-117481939D01*
X116614774Y-117681898D01*
X116692795Y-117870256D01*
X116806063Y-118039774D01*
X116950226Y-118183937D01*
X117119744Y-118297205D01*
X117308102Y-118375226D01*
X117508061Y-118415000D01*
X117711939Y-118415000D01*
X117911898Y-118375226D01*
X118100256Y-118297205D01*
X118269774Y-118183937D01*
X118413937Y-118039774D01*
X118527205Y-117870256D01*
X118605226Y-117681898D01*
X118645000Y-117481939D01*
X118645000Y-117278061D01*
X118605226Y-117078102D01*
X118527205Y-116889744D01*
X118413937Y-116720226D01*
X118269774Y-116576063D01*
X118100256Y-116462795D01*
X117911898Y-116384774D01*
X117711939Y-116345000D01*
X117508061Y-116345000D01*
X117308102Y-116384774D01*
X117119744Y-116462795D01*
X116950226Y-116576063D01*
X116806063Y-116720226D01*
X116692795Y-116889744D01*
X116614774Y-117078102D01*
X116575000Y-117278061D01*
X115560556Y-117278061D01*
X115572185Y-117160000D01*
X115543513Y-116868889D01*
X115458599Y-116588966D01*
X115320706Y-116330986D01*
X115135134Y-116104866D01*
X115071663Y-116052777D01*
X115173386Y-115998405D01*
X115307962Y-115887962D01*
X115418405Y-115753386D01*
X115500472Y-115599850D01*
X115551008Y-115433254D01*
X115568072Y-115260000D01*
X115568072Y-114568061D01*
X124745000Y-114568061D01*
X124745000Y-114771939D01*
X124784774Y-114971898D01*
X124862795Y-115160256D01*
X124976063Y-115329774D01*
X125120226Y-115473937D01*
X125289744Y-115587205D01*
X125373918Y-115622071D01*
X125299744Y-115652795D01*
X125130226Y-115766063D01*
X124986063Y-115910226D01*
X124872795Y-116079744D01*
X124794774Y-116268102D01*
X124755000Y-116468061D01*
X124755000Y-116671939D01*
X124794774Y-116871898D01*
X124872795Y-117060256D01*
X124986063Y-117229774D01*
X125130226Y-117373937D01*
X125299744Y-117487205D01*
X125488102Y-117565226D01*
X125688061Y-117605000D01*
X125891939Y-117605000D01*
X126091898Y-117565226D01*
X126280256Y-117487205D01*
X126449774Y-117373937D01*
X126593937Y-117229774D01*
X126707205Y-117060256D01*
X126785226Y-116871898D01*
X126825000Y-116671939D01*
X126825000Y-116468061D01*
X126785226Y-116268102D01*
X126707205Y-116079744D01*
X126593937Y-115910226D01*
X126449774Y-115766063D01*
X126280256Y-115652795D01*
X126196082Y-115617929D01*
X126270256Y-115587205D01*
X126439774Y-115473937D01*
X126583937Y-115329774D01*
X126697205Y-115160256D01*
X126775226Y-114971898D01*
X126815000Y-114771939D01*
X126815000Y-114568061D01*
X126775226Y-114368102D01*
X126697205Y-114179744D01*
X126583937Y-114010226D01*
X126439774Y-113866063D01*
X126270256Y-113752795D01*
X126081898Y-113674774D01*
X125881939Y-113635000D01*
X125678061Y-113635000D01*
X125478102Y-113674774D01*
X125289744Y-113752795D01*
X125120226Y-113866063D01*
X124976063Y-114010226D01*
X124862795Y-114179744D01*
X124784774Y-114368102D01*
X124745000Y-114568061D01*
X115568072Y-114568061D01*
X115568072Y-114060000D01*
X115551008Y-113886746D01*
X115500472Y-113720150D01*
X115418405Y-113566614D01*
X115307962Y-113432038D01*
X115173386Y-113321595D01*
X115019850Y-113239528D01*
X114853254Y-113188992D01*
X114680000Y-113171928D01*
X113180000Y-113171928D01*
X113006746Y-113188992D01*
X112840150Y-113239528D01*
X112686614Y-113321595D01*
X112552038Y-113432038D01*
X112441595Y-113566614D01*
X112359528Y-113720150D01*
X112308992Y-113886746D01*
X112291928Y-114060000D01*
X112291928Y-115260000D01*
X112308992Y-115433254D01*
X112359528Y-115599850D01*
X112441595Y-115753386D01*
X112552038Y-115887962D01*
X112686614Y-115998405D01*
X112788337Y-116052777D01*
X112724866Y-116104866D01*
X112539294Y-116330986D01*
X112401401Y-116588966D01*
X112316487Y-116868889D01*
X112287815Y-117160000D01*
X108160000Y-117160000D01*
X108160000Y-111618061D01*
X121225000Y-111618061D01*
X121225000Y-111821939D01*
X121264774Y-112021898D01*
X121342795Y-112210256D01*
X121456063Y-112379774D01*
X121600226Y-112523937D01*
X121769744Y-112637205D01*
X121958102Y-112715226D01*
X122158061Y-112755000D01*
X122361939Y-112755000D01*
X122561898Y-112715226D01*
X122750256Y-112637205D01*
X122919774Y-112523937D01*
X123063937Y-112379774D01*
X123177205Y-112210256D01*
X123255226Y-112021898D01*
X123295000Y-111821939D01*
X123295000Y-111618061D01*
X123255226Y-111418102D01*
X123177205Y-111229744D01*
X123063937Y-111060226D01*
X122919774Y-110916063D01*
X122750256Y-110802795D01*
X122561898Y-110724774D01*
X122361939Y-110685000D01*
X122158061Y-110685000D01*
X121958102Y-110724774D01*
X121769744Y-110802795D01*
X121600226Y-110916063D01*
X121456063Y-111060226D01*
X121342795Y-111229744D01*
X121264774Y-111418102D01*
X121225000Y-111618061D01*
X108160000Y-111618061D01*
X108160000Y-108630000D01*
X112297815Y-108630000D01*
X112326487Y-108921111D01*
X112411401Y-109201034D01*
X112549294Y-109459014D01*
X112734866Y-109685134D01*
X112960986Y-109870706D01*
X113218966Y-110008599D01*
X113498889Y-110093513D01*
X113717050Y-110115000D01*
X114162950Y-110115000D01*
X114381111Y-110093513D01*
X114661034Y-110008599D01*
X114793001Y-109938061D01*
X127045000Y-109938061D01*
X127045000Y-110141939D01*
X127084774Y-110341898D01*
X127162795Y-110530256D01*
X127276063Y-110699774D01*
X127420226Y-110843937D01*
X127589744Y-110957205D01*
X127778102Y-111035226D01*
X127978061Y-111075000D01*
X128181939Y-111075000D01*
X128381898Y-111035226D01*
X128570256Y-110957205D01*
X128739774Y-110843937D01*
X128883937Y-110699774D01*
X128997205Y-110530256D01*
X129075226Y-110341898D01*
X129115000Y-110141939D01*
X129115000Y-109938061D01*
X129075226Y-109738102D01*
X128997205Y-109549744D01*
X128883937Y-109380226D01*
X128739774Y-109236063D01*
X128570256Y-109122795D01*
X128381898Y-109044774D01*
X128181939Y-109005000D01*
X127978061Y-109005000D01*
X127778102Y-109044774D01*
X127589744Y-109122795D01*
X127420226Y-109236063D01*
X127276063Y-109380226D01*
X127162795Y-109549744D01*
X127084774Y-109738102D01*
X127045000Y-109938061D01*
X114793001Y-109938061D01*
X114919014Y-109870706D01*
X115145134Y-109685134D01*
X115330706Y-109459014D01*
X115468599Y-109201034D01*
X115553513Y-108921111D01*
X115582185Y-108630000D01*
X115553513Y-108338889D01*
X115468599Y-108058966D01*
X115330706Y-107800986D01*
X115149392Y-107580055D01*
X115184180Y-107569502D01*
X115294494Y-107510537D01*
X115391185Y-107431185D01*
X115470537Y-107334494D01*
X115529502Y-107224180D01*
X115564726Y-107108061D01*
X118205000Y-107108061D01*
X118205000Y-107311939D01*
X118244774Y-107511898D01*
X118322795Y-107700256D01*
X118436063Y-107869774D01*
X118580226Y-108013937D01*
X118749744Y-108127205D01*
X118938102Y-108205226D01*
X119138061Y-108245000D01*
X119341939Y-108245000D01*
X119541898Y-108205226D01*
X119730256Y-108127205D01*
X119899774Y-108013937D01*
X120043937Y-107869774D01*
X120157205Y-107700256D01*
X120235226Y-107511898D01*
X120275000Y-107311939D01*
X120275000Y-107108061D01*
X120235226Y-106908102D01*
X120157205Y-106719744D01*
X120043937Y-106550226D01*
X119899774Y-106406063D01*
X119730256Y-106292795D01*
X119541898Y-106214774D01*
X119341939Y-106175000D01*
X119138061Y-106175000D01*
X118938102Y-106214774D01*
X118749744Y-106292795D01*
X118580226Y-106406063D01*
X118436063Y-106550226D01*
X118322795Y-106719744D01*
X118244774Y-106908102D01*
X118205000Y-107108061D01*
X115564726Y-107108061D01*
X115565812Y-107104482D01*
X115578072Y-106980000D01*
X115575000Y-106415750D01*
X115416250Y-106257000D01*
X114067000Y-106257000D01*
X114067000Y-106277000D01*
X113813000Y-106277000D01*
X113813000Y-106257000D01*
X112463750Y-106257000D01*
X112305000Y-106415750D01*
X112301928Y-106980000D01*
X112314188Y-107104482D01*
X112350498Y-107224180D01*
X112409463Y-107334494D01*
X112488815Y-107431185D01*
X112585506Y-107510537D01*
X112695820Y-107569502D01*
X112730608Y-107580055D01*
X112549294Y-107800986D01*
X112411401Y-108058966D01*
X112326487Y-108338889D01*
X112297815Y-108630000D01*
X108160000Y-108630000D01*
X108160000Y-105280000D01*
X112301928Y-105280000D01*
X112305000Y-105844250D01*
X112463750Y-106003000D01*
X113813000Y-106003000D01*
X113813000Y-104803750D01*
X114067000Y-104803750D01*
X114067000Y-106003000D01*
X115416250Y-106003000D01*
X115575000Y-105844250D01*
X115578072Y-105280000D01*
X115571178Y-105210000D01*
X134524025Y-105210000D01*
X134547870Y-105452102D01*
X134618489Y-105684901D01*
X134733167Y-105899449D01*
X134887498Y-106087502D01*
X135036762Y-106210000D01*
X134887498Y-106332498D01*
X134733167Y-106520551D01*
X134618489Y-106735099D01*
X134547870Y-106967898D01*
X134524025Y-107210000D01*
X134547870Y-107452102D01*
X134618489Y-107684901D01*
X134733167Y-107899449D01*
X134887498Y-108087502D01*
X135036762Y-108210000D01*
X134887498Y-108332498D01*
X134733167Y-108520551D01*
X134618489Y-108735099D01*
X134547870Y-108967898D01*
X134524025Y-109210000D01*
X134547870Y-109452102D01*
X134618489Y-109684901D01*
X134733167Y-109899449D01*
X134887498Y-110087502D01*
X134926111Y-110119191D01*
X134921613Y-110121595D01*
X134787038Y-110232038D01*
X134676595Y-110366613D01*
X134594528Y-110520149D01*
X134543992Y-110686745D01*
X134526928Y-110859999D01*
X134526928Y-111560001D01*
X134543992Y-111733255D01*
X134594528Y-111899851D01*
X134676595Y-112053387D01*
X134787038Y-112187962D01*
X134921613Y-112298405D01*
X135075149Y-112380472D01*
X135241745Y-112431008D01*
X135414999Y-112448072D01*
X136665001Y-112448072D01*
X136838255Y-112431008D01*
X137004851Y-112380472D01*
X137158387Y-112298405D01*
X137292962Y-112187962D01*
X137403405Y-112053387D01*
X137485472Y-111899851D01*
X137536008Y-111733255D01*
X137553072Y-111560001D01*
X137553072Y-110859999D01*
X137536008Y-110686745D01*
X137485472Y-110520149D01*
X137403405Y-110366613D01*
X137292962Y-110232038D01*
X137158387Y-110121595D01*
X137153889Y-110119191D01*
X137192502Y-110087502D01*
X137346833Y-109899449D01*
X137461511Y-109684901D01*
X137532130Y-109452102D01*
X137555975Y-109210000D01*
X137532130Y-108967898D01*
X137461511Y-108735099D01*
X137346833Y-108520551D01*
X137192502Y-108332498D01*
X137043238Y-108210000D01*
X137192502Y-108087502D01*
X137346833Y-107899449D01*
X137461511Y-107684901D01*
X137532130Y-107452102D01*
X137555975Y-107210000D01*
X137532130Y-106967898D01*
X137461511Y-106735099D01*
X137346833Y-106520551D01*
X137192502Y-106332498D01*
X137043238Y-106210000D01*
X137192502Y-106087502D01*
X137346833Y-105899449D01*
X137461511Y-105684901D01*
X137532130Y-105452102D01*
X137555975Y-105210000D01*
X137532130Y-104967898D01*
X137461511Y-104735099D01*
X137346833Y-104520551D01*
X137192502Y-104332498D01*
X137004449Y-104178167D01*
X136789901Y-104063489D01*
X136557102Y-103992870D01*
X136375665Y-103975000D01*
X135704335Y-103975000D01*
X135522898Y-103992870D01*
X135290099Y-104063489D01*
X135075551Y-104178167D01*
X134887498Y-104332498D01*
X134733167Y-104520551D01*
X134618489Y-104735099D01*
X134547870Y-104967898D01*
X134524025Y-105210000D01*
X115571178Y-105210000D01*
X115565812Y-105155518D01*
X115529502Y-105035820D01*
X115470537Y-104925506D01*
X115391185Y-104828815D01*
X115294494Y-104749463D01*
X115184180Y-104690498D01*
X115064482Y-104654188D01*
X114940000Y-104641928D01*
X114225750Y-104645000D01*
X114067000Y-104803750D01*
X113813000Y-104803750D01*
X113654250Y-104645000D01*
X112940000Y-104641928D01*
X112815518Y-104654188D01*
X112695820Y-104690498D01*
X112585506Y-104749463D01*
X112488815Y-104828815D01*
X112409463Y-104925506D01*
X112350498Y-105035820D01*
X112314188Y-105155518D01*
X112301928Y-105280000D01*
X108160000Y-105280000D01*
X108160000Y-103668061D01*
X118705000Y-103668061D01*
X118705000Y-103871939D01*
X118744774Y-104071898D01*
X118822795Y-104260256D01*
X118936063Y-104429774D01*
X119080226Y-104573937D01*
X119249744Y-104687205D01*
X119438102Y-104765226D01*
X119638061Y-104805000D01*
X119841939Y-104805000D01*
X120041898Y-104765226D01*
X120230256Y-104687205D01*
X120399774Y-104573937D01*
X120520000Y-104453711D01*
X120640226Y-104573937D01*
X120809744Y-104687205D01*
X120998102Y-104765226D01*
X121198061Y-104805000D01*
X121401939Y-104805000D01*
X121601898Y-104765226D01*
X121790256Y-104687205D01*
X121959774Y-104573937D01*
X122090000Y-104443711D01*
X122220226Y-104573937D01*
X122389744Y-104687205D01*
X122578102Y-104765226D01*
X122778061Y-104805000D01*
X122981939Y-104805000D01*
X123181898Y-104765226D01*
X123370256Y-104687205D01*
X123539774Y-104573937D01*
X123683937Y-104429774D01*
X123797205Y-104260256D01*
X123875226Y-104071898D01*
X123915000Y-103871939D01*
X123915000Y-103668061D01*
X123875226Y-103468102D01*
X123862783Y-103438061D01*
X124255000Y-103438061D01*
X124255000Y-103641939D01*
X124294774Y-103841898D01*
X124372795Y-104030256D01*
X124486063Y-104199774D01*
X124630226Y-104343937D01*
X124799744Y-104457205D01*
X124988102Y-104535226D01*
X125188061Y-104575000D01*
X125391939Y-104575000D01*
X125591898Y-104535226D01*
X125780256Y-104457205D01*
X125949774Y-104343937D01*
X126093937Y-104199774D01*
X126207205Y-104030256D01*
X126285226Y-103841898D01*
X126325000Y-103641939D01*
X126325000Y-103438061D01*
X126285226Y-103238102D01*
X126207205Y-103049744D01*
X126093937Y-102880226D01*
X125949774Y-102736063D01*
X125937799Y-102728061D01*
X131975000Y-102728061D01*
X131975000Y-102931939D01*
X132014774Y-103131898D01*
X132092795Y-103320256D01*
X132206063Y-103489774D01*
X132350226Y-103633937D01*
X132519744Y-103747205D01*
X132708102Y-103825226D01*
X132908061Y-103865000D01*
X133111939Y-103865000D01*
X133311898Y-103825226D01*
X133500256Y-103747205D01*
X133669774Y-103633937D01*
X133813937Y-103489774D01*
X133927205Y-103320256D01*
X134005226Y-103131898D01*
X134045000Y-102931939D01*
X134045000Y-102728061D01*
X134005226Y-102528102D01*
X133927205Y-102339744D01*
X133813937Y-102170226D01*
X133669774Y-102026063D01*
X133500256Y-101912795D01*
X133311898Y-101834774D01*
X133111939Y-101795000D01*
X132908061Y-101795000D01*
X132708102Y-101834774D01*
X132519744Y-101912795D01*
X132350226Y-102026063D01*
X132206063Y-102170226D01*
X132092795Y-102339744D01*
X132014774Y-102528102D01*
X131975000Y-102728061D01*
X125937799Y-102728061D01*
X125780256Y-102622795D01*
X125591898Y-102544774D01*
X125391939Y-102505000D01*
X125188061Y-102505000D01*
X124988102Y-102544774D01*
X124799744Y-102622795D01*
X124630226Y-102736063D01*
X124486063Y-102880226D01*
X124372795Y-103049744D01*
X124294774Y-103238102D01*
X124255000Y-103438061D01*
X123862783Y-103438061D01*
X123797205Y-103279744D01*
X123683937Y-103110226D01*
X123539774Y-102966063D01*
X123370256Y-102852795D01*
X123181898Y-102774774D01*
X122981939Y-102735000D01*
X122778061Y-102735000D01*
X122578102Y-102774774D01*
X122389744Y-102852795D01*
X122220226Y-102966063D01*
X122090000Y-103096289D01*
X121959774Y-102966063D01*
X121790256Y-102852795D01*
X121601898Y-102774774D01*
X121401939Y-102735000D01*
X121198061Y-102735000D01*
X120998102Y-102774774D01*
X120809744Y-102852795D01*
X120640226Y-102966063D01*
X120520000Y-103086289D01*
X120399774Y-102966063D01*
X120230256Y-102852795D01*
X120041898Y-102774774D01*
X119841939Y-102735000D01*
X119638061Y-102735000D01*
X119438102Y-102774774D01*
X119249744Y-102852795D01*
X119080226Y-102966063D01*
X118936063Y-103110226D01*
X118822795Y-103279744D01*
X118744774Y-103468102D01*
X118705000Y-103668061D01*
X108160000Y-103668061D01*
X108160000Y-102261571D01*
X108328061Y-102295000D01*
X108531939Y-102295000D01*
X108731898Y-102255226D01*
X108857071Y-102203377D01*
X108958102Y-102245226D01*
X109158061Y-102285000D01*
X109361939Y-102285000D01*
X109561898Y-102245226D01*
X109657929Y-102205448D01*
X109778102Y-102255226D01*
X109978061Y-102295000D01*
X110181939Y-102295000D01*
X110381898Y-102255226D01*
X110507071Y-102203377D01*
X110608102Y-102245226D01*
X110808061Y-102285000D01*
X111011939Y-102285000D01*
X111211898Y-102245226D01*
X111312929Y-102203377D01*
X111438102Y-102255226D01*
X111638061Y-102295000D01*
X111841939Y-102295000D01*
X112041898Y-102255226D01*
X112230256Y-102177205D01*
X112399774Y-102063937D01*
X112543937Y-101919774D01*
X112657205Y-101750256D01*
X112735226Y-101561898D01*
X112775000Y-101361939D01*
X112775000Y-101158061D01*
X112735226Y-100958102D01*
X112657205Y-100769744D01*
X112543937Y-100600226D01*
X112399774Y-100456063D01*
X112230256Y-100342795D01*
X112041898Y-100264774D01*
X111841939Y-100225000D01*
X111638061Y-100225000D01*
X111438102Y-100264774D01*
X111337071Y-100306623D01*
X111211898Y-100254774D01*
X111011939Y-100215000D01*
X110808061Y-100215000D01*
X110608102Y-100254774D01*
X110482929Y-100306623D01*
X110381898Y-100264774D01*
X110181939Y-100225000D01*
X109978061Y-100225000D01*
X109778102Y-100264774D01*
X109682071Y-100304552D01*
X109561898Y-100254774D01*
X109361939Y-100215000D01*
X109158061Y-100215000D01*
X108958102Y-100254774D01*
X108832929Y-100306623D01*
X108731898Y-100264774D01*
X108531939Y-100225000D01*
X108328061Y-100225000D01*
X108160000Y-100258429D01*
X108160000Y-99088061D01*
X114465000Y-99088061D01*
X114465000Y-99291939D01*
X114504774Y-99491898D01*
X114582795Y-99680256D01*
X114696063Y-99849774D01*
X114826289Y-99980000D01*
X114696063Y-100110226D01*
X114582795Y-100279744D01*
X114504774Y-100468102D01*
X114465000Y-100668061D01*
X114465000Y-100871939D01*
X114504774Y-101071898D01*
X114582795Y-101260256D01*
X114696063Y-101429774D01*
X114806289Y-101540000D01*
X114696063Y-101650226D01*
X114582795Y-101819744D01*
X114504774Y-102008102D01*
X114465000Y-102208061D01*
X114465000Y-102411939D01*
X114504774Y-102611898D01*
X114582795Y-102800256D01*
X114696063Y-102969774D01*
X114840226Y-103113937D01*
X115009744Y-103227205D01*
X115198102Y-103305226D01*
X115398061Y-103345000D01*
X115601939Y-103345000D01*
X115801898Y-103305226D01*
X115990256Y-103227205D01*
X116159774Y-103113937D01*
X116303937Y-102969774D01*
X116417205Y-102800256D01*
X116495226Y-102611898D01*
X116535000Y-102411939D01*
X116535000Y-102208061D01*
X116495226Y-102008102D01*
X116417205Y-101819744D01*
X116303937Y-101650226D01*
X116193711Y-101540000D01*
X116303937Y-101429774D01*
X116417205Y-101260256D01*
X116495226Y-101071898D01*
X116535000Y-100871939D01*
X116535000Y-100668061D01*
X116495226Y-100468102D01*
X116417205Y-100279744D01*
X116303937Y-100110226D01*
X116173711Y-99980000D01*
X116303937Y-99849774D01*
X116417205Y-99680256D01*
X116495226Y-99491898D01*
X116535000Y-99291939D01*
X116535000Y-99088061D01*
X116495226Y-98888102D01*
X116417205Y-98699744D01*
X116303937Y-98530226D01*
X116159774Y-98386063D01*
X115990256Y-98272795D01*
X115801898Y-98194774D01*
X115768150Y-98188061D01*
X116395000Y-98188061D01*
X116395000Y-98391939D01*
X116434774Y-98591898D01*
X116512795Y-98780256D01*
X116626063Y-98949774D01*
X116770226Y-99093937D01*
X116939744Y-99207205D01*
X117128102Y-99285226D01*
X117328061Y-99325000D01*
X117531939Y-99325000D01*
X117731898Y-99285226D01*
X117920256Y-99207205D01*
X118089774Y-99093937D01*
X118233937Y-98949774D01*
X118347205Y-98780256D01*
X118425226Y-98591898D01*
X118465000Y-98391939D01*
X118465000Y-98188061D01*
X118425226Y-97988102D01*
X118347205Y-97799744D01*
X118233937Y-97630226D01*
X118089774Y-97486063D01*
X117920256Y-97372795D01*
X117731898Y-97294774D01*
X117531939Y-97255000D01*
X117328061Y-97255000D01*
X117128102Y-97294774D01*
X116939744Y-97372795D01*
X116770226Y-97486063D01*
X116626063Y-97630226D01*
X116512795Y-97799744D01*
X116434774Y-97988102D01*
X116395000Y-98188061D01*
X115768150Y-98188061D01*
X115601939Y-98155000D01*
X115398061Y-98155000D01*
X115198102Y-98194774D01*
X115009744Y-98272795D01*
X114840226Y-98386063D01*
X114696063Y-98530226D01*
X114582795Y-98699744D01*
X114504774Y-98888102D01*
X114465000Y-99088061D01*
X108160000Y-99088061D01*
X108160000Y-95608061D01*
X116105000Y-95608061D01*
X116105000Y-95811939D01*
X116144774Y-96011898D01*
X116222795Y-96200256D01*
X116336063Y-96369774D01*
X116480226Y-96513937D01*
X116649744Y-96627205D01*
X116838102Y-96705226D01*
X117038061Y-96745000D01*
X117241939Y-96745000D01*
X117441898Y-96705226D01*
X117630256Y-96627205D01*
X117799774Y-96513937D01*
X117943937Y-96369774D01*
X118057205Y-96200256D01*
X118135226Y-96011898D01*
X118175000Y-95811939D01*
X118175000Y-95608061D01*
X118169033Y-95578061D01*
X121305000Y-95578061D01*
X121305000Y-95781939D01*
X121344774Y-95981898D01*
X121422795Y-96170256D01*
X121526169Y-96324966D01*
X121442795Y-96449744D01*
X121364774Y-96638102D01*
X121325000Y-96838061D01*
X121325000Y-97041939D01*
X121364774Y-97241898D01*
X121442795Y-97430256D01*
X121502737Y-97519966D01*
X121462795Y-97579744D01*
X121384774Y-97768102D01*
X121345000Y-97968061D01*
X121345000Y-98171939D01*
X121384774Y-98371898D01*
X121462795Y-98560256D01*
X121576063Y-98729774D01*
X121720226Y-98873937D01*
X121889744Y-98987205D01*
X122078102Y-99065226D01*
X122278061Y-99105000D01*
X122481939Y-99105000D01*
X122681898Y-99065226D01*
X122870256Y-98987205D01*
X122982483Y-98912217D01*
X123079744Y-98977205D01*
X123268102Y-99055226D01*
X123468061Y-99095000D01*
X123671939Y-99095000D01*
X123871898Y-99055226D01*
X124060256Y-98977205D01*
X124140000Y-98923922D01*
X124219744Y-98977205D01*
X124408102Y-99055226D01*
X124608061Y-99095000D01*
X124811939Y-99095000D01*
X125011898Y-99055226D01*
X125200256Y-98977205D01*
X125369774Y-98863937D01*
X125513937Y-98719774D01*
X125627205Y-98550256D01*
X125705226Y-98361898D01*
X125745000Y-98161939D01*
X125745000Y-97958061D01*
X125705226Y-97758102D01*
X125627205Y-97569744D01*
X125578922Y-97497483D01*
X125637205Y-97410256D01*
X125715226Y-97221898D01*
X125755000Y-97021939D01*
X125755000Y-96818061D01*
X125715226Y-96618102D01*
X125637205Y-96429744D01*
X125558831Y-96312449D01*
X125667205Y-96150256D01*
X125745226Y-95961898D01*
X125785000Y-95761939D01*
X125785000Y-95558061D01*
X125745226Y-95358102D01*
X125667205Y-95169744D01*
X125553937Y-95000226D01*
X125409774Y-94856063D01*
X125240256Y-94742795D01*
X125051898Y-94664774D01*
X124851939Y-94625000D01*
X124648061Y-94625000D01*
X124448102Y-94664774D01*
X124259744Y-94742795D01*
X124152551Y-94814419D01*
X124090256Y-94772795D01*
X123901898Y-94694774D01*
X123701939Y-94655000D01*
X123498061Y-94655000D01*
X123298102Y-94694774D01*
X123109744Y-94772795D01*
X122977483Y-94861169D01*
X122830256Y-94762795D01*
X122641898Y-94684774D01*
X122441939Y-94645000D01*
X122238061Y-94645000D01*
X122038102Y-94684774D01*
X121849744Y-94762795D01*
X121680226Y-94876063D01*
X121536063Y-95020226D01*
X121422795Y-95189744D01*
X121344774Y-95378102D01*
X121305000Y-95578061D01*
X118169033Y-95578061D01*
X118135226Y-95408102D01*
X118057205Y-95219744D01*
X117943937Y-95050226D01*
X117799774Y-94906063D01*
X117630256Y-94792795D01*
X117441898Y-94714774D01*
X117241939Y-94675000D01*
X117038061Y-94675000D01*
X116838102Y-94714774D01*
X116649744Y-94792795D01*
X116480226Y-94906063D01*
X116336063Y-95050226D01*
X116222795Y-95219744D01*
X116144774Y-95408102D01*
X116105000Y-95608061D01*
X108160000Y-95608061D01*
X108160000Y-94098061D01*
X113455000Y-94098061D01*
X113455000Y-94301939D01*
X113494774Y-94501898D01*
X113572795Y-94690256D01*
X113686063Y-94859774D01*
X113830226Y-95003937D01*
X113999744Y-95117205D01*
X114188102Y-95195226D01*
X114388061Y-95235000D01*
X114591939Y-95235000D01*
X114791898Y-95195226D01*
X114980256Y-95117205D01*
X115149774Y-95003937D01*
X115293937Y-94859774D01*
X115407205Y-94690256D01*
X115485226Y-94501898D01*
X115525000Y-94301939D01*
X115525000Y-94102658D01*
X118130403Y-94102658D01*
X118130403Y-94306536D01*
X118170177Y-94506495D01*
X118248198Y-94694853D01*
X118361466Y-94864371D01*
X118505629Y-95008534D01*
X118675147Y-95121802D01*
X118863505Y-95199823D01*
X119063464Y-95239597D01*
X119267342Y-95239597D01*
X119467301Y-95199823D01*
X119515750Y-95179755D01*
X119603274Y-95267279D01*
X119772792Y-95380547D01*
X119961150Y-95458568D01*
X120161109Y-95498342D01*
X120364987Y-95498342D01*
X120564946Y-95458568D01*
X120753304Y-95380547D01*
X120922822Y-95267279D01*
X121066985Y-95123116D01*
X121180253Y-94953598D01*
X121258274Y-94765240D01*
X121298048Y-94565281D01*
X121298048Y-94549825D01*
X121347045Y-94540079D01*
X121535403Y-94462058D01*
X121704921Y-94348790D01*
X121849084Y-94204627D01*
X121962352Y-94035109D01*
X122040373Y-93846751D01*
X122080147Y-93646792D01*
X122080147Y-93442914D01*
X122055313Y-93318062D01*
X124665000Y-93318062D01*
X124665000Y-93521940D01*
X124704774Y-93721899D01*
X124782795Y-93910257D01*
X124896063Y-94079775D01*
X125040226Y-94223938D01*
X125209744Y-94337206D01*
X125398102Y-94415227D01*
X125598061Y-94455001D01*
X125801939Y-94455001D01*
X126001898Y-94415227D01*
X126035000Y-94401516D01*
X126035000Y-94514339D01*
X126074774Y-94714298D01*
X126152795Y-94902656D01*
X126266063Y-95072174D01*
X126410226Y-95216337D01*
X126579744Y-95329605D01*
X126768102Y-95407626D01*
X126968061Y-95447400D01*
X127171939Y-95447400D01*
X127371898Y-95407626D01*
X127560256Y-95329605D01*
X127729774Y-95216337D01*
X127873937Y-95072174D01*
X127987205Y-94902656D01*
X128065226Y-94714298D01*
X128105000Y-94514339D01*
X128105000Y-94310461D01*
X128065226Y-94110502D01*
X128055848Y-94087863D01*
X128073937Y-94069774D01*
X128187205Y-93900256D01*
X128265226Y-93711898D01*
X128305000Y-93511939D01*
X128305000Y-93308061D01*
X128265226Y-93108102D01*
X128187205Y-92919744D01*
X128073937Y-92750226D01*
X127929774Y-92606063D01*
X127760256Y-92492795D01*
X127571898Y-92414774D01*
X127371939Y-92375000D01*
X127168061Y-92375000D01*
X126968102Y-92414774D01*
X126779744Y-92492795D01*
X126610226Y-92606063D01*
X126480000Y-92736290D01*
X126359774Y-92616064D01*
X126190256Y-92502796D01*
X126001898Y-92424775D01*
X125801939Y-92385001D01*
X125598061Y-92385001D01*
X125398102Y-92424775D01*
X125209744Y-92502796D01*
X125040226Y-92616064D01*
X124896063Y-92760227D01*
X124782795Y-92929745D01*
X124704774Y-93118103D01*
X124665000Y-93318062D01*
X122055313Y-93318062D01*
X122040373Y-93242955D01*
X121962352Y-93054597D01*
X121849084Y-92885079D01*
X121704921Y-92740916D01*
X121535403Y-92627648D01*
X121347045Y-92549627D01*
X121147086Y-92509853D01*
X120943208Y-92509853D01*
X120743249Y-92549627D01*
X120554891Y-92627648D01*
X120385373Y-92740916D01*
X120241210Y-92885079D01*
X120127942Y-93054597D01*
X120049921Y-93242955D01*
X120010147Y-93442914D01*
X120010147Y-93458370D01*
X119961150Y-93468116D01*
X119912701Y-93488184D01*
X119825177Y-93400660D01*
X119655659Y-93287392D01*
X119467301Y-93209371D01*
X119267342Y-93169597D01*
X119063464Y-93169597D01*
X118863505Y-93209371D01*
X118675147Y-93287392D01*
X118505629Y-93400660D01*
X118361466Y-93544823D01*
X118248198Y-93714341D01*
X118170177Y-93902699D01*
X118130403Y-94102658D01*
X115525000Y-94102658D01*
X115525000Y-94098061D01*
X115485226Y-93898102D01*
X115407205Y-93709744D01*
X115293937Y-93540226D01*
X115149774Y-93396063D01*
X114980256Y-93282795D01*
X114791898Y-93204774D01*
X114591939Y-93165000D01*
X114388061Y-93165000D01*
X114188102Y-93204774D01*
X113999744Y-93282795D01*
X113830226Y-93396063D01*
X113686063Y-93540226D01*
X113572795Y-93709744D01*
X113494774Y-93898102D01*
X113455000Y-94098061D01*
X108160000Y-94098061D01*
X108160000Y-94009527D01*
X108288061Y-94035000D01*
X108491939Y-94035000D01*
X108691898Y-93995226D01*
X108812071Y-93945448D01*
X108908102Y-93985226D01*
X109108061Y-94025000D01*
X109311939Y-94025000D01*
X109511898Y-93985226D01*
X109602929Y-93947519D01*
X109718102Y-93995226D01*
X109918061Y-94035000D01*
X110121939Y-94035000D01*
X110321898Y-93995226D01*
X110425000Y-93952519D01*
X110528102Y-93995226D01*
X110728061Y-94035000D01*
X110931939Y-94035000D01*
X111131898Y-93995226D01*
X111235000Y-93952519D01*
X111338102Y-93995226D01*
X111538061Y-94035000D01*
X111741939Y-94035000D01*
X111941898Y-93995226D01*
X112130256Y-93917205D01*
X112299774Y-93803937D01*
X112443937Y-93659774D01*
X112557205Y-93490256D01*
X112635226Y-93301898D01*
X112675000Y-93101939D01*
X112675000Y-92898061D01*
X112635226Y-92698102D01*
X112557205Y-92509744D01*
X112443937Y-92340226D01*
X112299774Y-92196063D01*
X112130256Y-92082795D01*
X111941898Y-92004774D01*
X111741939Y-91965000D01*
X111538061Y-91965000D01*
X111338102Y-92004774D01*
X111235000Y-92047481D01*
X111131898Y-92004774D01*
X110931939Y-91965000D01*
X110728061Y-91965000D01*
X110528102Y-92004774D01*
X110425000Y-92047481D01*
X110321898Y-92004774D01*
X110121939Y-91965000D01*
X109918061Y-91965000D01*
X109718102Y-92004774D01*
X109627071Y-92042481D01*
X109511898Y-91994774D01*
X109311939Y-91955000D01*
X109108061Y-91955000D01*
X108908102Y-91994774D01*
X108787929Y-92044552D01*
X108691898Y-92004774D01*
X108491939Y-91965000D01*
X108288061Y-91965000D01*
X108160000Y-91990473D01*
X108160000Y-91558061D01*
X115265000Y-91558061D01*
X115265000Y-91761939D01*
X115304774Y-91961898D01*
X115382795Y-92150256D01*
X115496063Y-92319774D01*
X115640226Y-92463937D01*
X115809744Y-92577205D01*
X115998102Y-92655226D01*
X116198061Y-92695000D01*
X116401939Y-92695000D01*
X116601898Y-92655226D01*
X116790256Y-92577205D01*
X116959774Y-92463937D01*
X117065000Y-92358711D01*
X117170226Y-92463937D01*
X117339744Y-92577205D01*
X117528102Y-92655226D01*
X117728061Y-92695000D01*
X117931939Y-92695000D01*
X118131898Y-92655226D01*
X118320256Y-92577205D01*
X118489774Y-92463937D01*
X118633937Y-92319774D01*
X118690115Y-92235698D01*
X118855596Y-92235698D01*
X119055555Y-92195924D01*
X119238850Y-92120000D01*
X134534025Y-92120000D01*
X134557870Y-92362102D01*
X134628489Y-92594901D01*
X134743167Y-92809449D01*
X134897498Y-92997502D01*
X135046762Y-93120000D01*
X134897498Y-93242498D01*
X134743167Y-93430551D01*
X134628489Y-93645099D01*
X134557870Y-93877898D01*
X134534025Y-94120000D01*
X134557870Y-94362102D01*
X134628489Y-94594901D01*
X134743167Y-94809449D01*
X134897498Y-94997502D01*
X135046762Y-95120000D01*
X134897498Y-95242498D01*
X134743167Y-95430551D01*
X134628489Y-95645099D01*
X134557870Y-95877898D01*
X134534025Y-96120000D01*
X134557870Y-96362102D01*
X134628489Y-96594901D01*
X134743167Y-96809449D01*
X134897498Y-96997502D01*
X135046762Y-97120000D01*
X134897498Y-97242498D01*
X134743167Y-97430551D01*
X134628489Y-97645099D01*
X134557870Y-97877898D01*
X134534025Y-98120000D01*
X134557870Y-98362102D01*
X134628489Y-98594901D01*
X134743167Y-98809449D01*
X134897498Y-98997502D01*
X134936111Y-99029191D01*
X134931613Y-99031595D01*
X134797038Y-99142038D01*
X134686595Y-99276613D01*
X134604528Y-99430149D01*
X134553992Y-99596745D01*
X134536928Y-99769999D01*
X134536928Y-100470001D01*
X134553992Y-100643255D01*
X134604528Y-100809851D01*
X134686595Y-100963387D01*
X134797038Y-101097962D01*
X134931613Y-101208405D01*
X135085149Y-101290472D01*
X135251745Y-101341008D01*
X135424999Y-101358072D01*
X136675001Y-101358072D01*
X136848255Y-101341008D01*
X137014851Y-101290472D01*
X137168387Y-101208405D01*
X137302962Y-101097962D01*
X137413405Y-100963387D01*
X137495472Y-100809851D01*
X137546008Y-100643255D01*
X137563072Y-100470001D01*
X137563072Y-99769999D01*
X137546008Y-99596745D01*
X137495472Y-99430149D01*
X137413405Y-99276613D01*
X137302962Y-99142038D01*
X137168387Y-99031595D01*
X137163889Y-99029191D01*
X137202502Y-98997502D01*
X137356833Y-98809449D01*
X137471511Y-98594901D01*
X137542130Y-98362102D01*
X137565975Y-98120000D01*
X137542130Y-97877898D01*
X137471511Y-97645099D01*
X137356833Y-97430551D01*
X137202502Y-97242498D01*
X137053238Y-97120000D01*
X137202502Y-96997502D01*
X137356833Y-96809449D01*
X137471511Y-96594901D01*
X137542130Y-96362102D01*
X137565975Y-96120000D01*
X137542130Y-95877898D01*
X137471511Y-95645099D01*
X137356833Y-95430551D01*
X137202502Y-95242498D01*
X137053238Y-95120000D01*
X137202502Y-94997502D01*
X137356833Y-94809449D01*
X137471511Y-94594901D01*
X137542130Y-94362102D01*
X137565975Y-94120000D01*
X137542130Y-93877898D01*
X137471511Y-93645099D01*
X137356833Y-93430551D01*
X137202502Y-93242498D01*
X137053238Y-93120000D01*
X137202502Y-92997502D01*
X137356833Y-92809449D01*
X137471511Y-92594901D01*
X137542130Y-92362102D01*
X137565975Y-92120000D01*
X137542130Y-91877898D01*
X137471511Y-91645099D01*
X137356833Y-91430551D01*
X137202502Y-91242498D01*
X137014449Y-91088167D01*
X136799901Y-90973489D01*
X136567102Y-90902870D01*
X136385665Y-90885000D01*
X135714335Y-90885000D01*
X135532898Y-90902870D01*
X135300099Y-90973489D01*
X135085551Y-91088167D01*
X134897498Y-91242498D01*
X134743167Y-91430551D01*
X134628489Y-91645099D01*
X134557870Y-91877898D01*
X134534025Y-92120000D01*
X119238850Y-92120000D01*
X119243913Y-92117903D01*
X119413431Y-92004635D01*
X119557594Y-91860472D01*
X119670862Y-91690954D01*
X119748883Y-91502596D01*
X119788657Y-91302637D01*
X119788657Y-91098759D01*
X119748883Y-90898800D01*
X119670862Y-90710442D01*
X119557594Y-90540924D01*
X119413431Y-90396761D01*
X119243913Y-90283493D01*
X119055555Y-90205472D01*
X118855596Y-90165698D01*
X118651718Y-90165698D01*
X118451759Y-90205472D01*
X118263401Y-90283493D01*
X118093883Y-90396761D01*
X117949720Y-90540924D01*
X117893542Y-90625000D01*
X117728061Y-90625000D01*
X117528102Y-90664774D01*
X117339744Y-90742795D01*
X117170226Y-90856063D01*
X117065000Y-90961289D01*
X116959774Y-90856063D01*
X116790256Y-90742795D01*
X116601898Y-90664774D01*
X116401939Y-90625000D01*
X116198061Y-90625000D01*
X115998102Y-90664774D01*
X115809744Y-90742795D01*
X115640226Y-90856063D01*
X115496063Y-91000226D01*
X115382795Y-91169744D01*
X115304774Y-91358102D01*
X115265000Y-91558061D01*
X108160000Y-91558061D01*
X108160000Y-88658061D01*
X124845000Y-88658061D01*
X124845000Y-88861939D01*
X124884774Y-89061898D01*
X124962795Y-89250256D01*
X125076063Y-89419774D01*
X125220226Y-89563937D01*
X125389744Y-89677205D01*
X125578102Y-89755226D01*
X125778061Y-89795000D01*
X125981939Y-89795000D01*
X126181898Y-89755226D01*
X126370256Y-89677205D01*
X126539774Y-89563937D01*
X126683937Y-89419774D01*
X126797205Y-89250256D01*
X126875226Y-89061898D01*
X126915000Y-88861939D01*
X126915000Y-88658061D01*
X130475000Y-88658061D01*
X130475000Y-88861939D01*
X130514774Y-89061898D01*
X130592795Y-89250256D01*
X130706063Y-89419774D01*
X130850226Y-89563937D01*
X131019744Y-89677205D01*
X131208102Y-89755226D01*
X131408061Y-89795000D01*
X131611939Y-89795000D01*
X131811898Y-89755226D01*
X132000256Y-89677205D01*
X132169774Y-89563937D01*
X132313937Y-89419774D01*
X132427205Y-89250256D01*
X132505226Y-89061898D01*
X132545000Y-88861939D01*
X132545000Y-88658061D01*
X132505226Y-88458102D01*
X132427205Y-88269744D01*
X132313937Y-88100226D01*
X132169774Y-87956063D01*
X132000256Y-87842795D01*
X131811898Y-87764774D01*
X131611939Y-87725000D01*
X131408061Y-87725000D01*
X131208102Y-87764774D01*
X131019744Y-87842795D01*
X130850226Y-87956063D01*
X130706063Y-88100226D01*
X130592795Y-88269744D01*
X130514774Y-88458102D01*
X130475000Y-88658061D01*
X126915000Y-88658061D01*
X126875226Y-88458102D01*
X126797205Y-88269744D01*
X126683937Y-88100226D01*
X126539774Y-87956063D01*
X126370256Y-87842795D01*
X126181898Y-87764774D01*
X125981939Y-87725000D01*
X125778061Y-87725000D01*
X125578102Y-87764774D01*
X125389744Y-87842795D01*
X125220226Y-87956063D01*
X125076063Y-88100226D01*
X124962795Y-88269744D01*
X124884774Y-88458102D01*
X124845000Y-88658061D01*
X108160000Y-88658061D01*
X108160000Y-85354311D01*
X108351467Y-85816554D01*
X108771161Y-86444670D01*
X109305330Y-86978839D01*
X109933446Y-87398533D01*
X110631372Y-87687623D01*
X111372285Y-87835000D01*
X112127715Y-87835000D01*
X112868628Y-87687623D01*
X113566554Y-87398533D01*
X114016241Y-87098061D01*
X123305000Y-87098061D01*
X123305000Y-87301939D01*
X123344774Y-87501898D01*
X123422795Y-87690256D01*
X123536063Y-87859774D01*
X123680226Y-88003937D01*
X123849744Y-88117205D01*
X124038102Y-88195226D01*
X124238061Y-88235000D01*
X124441939Y-88235000D01*
X124641898Y-88195226D01*
X124830256Y-88117205D01*
X124999774Y-88003937D01*
X125143937Y-87859774D01*
X125257205Y-87690256D01*
X125335226Y-87501898D01*
X125375000Y-87301939D01*
X125375000Y-87098061D01*
X125335226Y-86898102D01*
X125257205Y-86709744D01*
X125143937Y-86540226D01*
X124999774Y-86396063D01*
X124830256Y-86282795D01*
X124641898Y-86204774D01*
X124441939Y-86165000D01*
X124238061Y-86165000D01*
X124038102Y-86204774D01*
X123849744Y-86282795D01*
X123680226Y-86396063D01*
X123536063Y-86540226D01*
X123422795Y-86709744D01*
X123344774Y-86898102D01*
X123305000Y-87098061D01*
X114016241Y-87098061D01*
X114194670Y-86978839D01*
X114728839Y-86444670D01*
X115148533Y-85816554D01*
X115437623Y-85118628D01*
X115478259Y-84914335D01*
X117965000Y-84914335D01*
X117965000Y-85585664D01*
X117982870Y-85767101D01*
X118053489Y-85999900D01*
X118168167Y-86214448D01*
X118322498Y-86402502D01*
X118510551Y-86556833D01*
X118725099Y-86671511D01*
X118957898Y-86742130D01*
X119200000Y-86765975D01*
X119442101Y-86742130D01*
X119674900Y-86671511D01*
X119889448Y-86556833D01*
X120077502Y-86402502D01*
X120109191Y-86363889D01*
X120111595Y-86368387D01*
X120222038Y-86502962D01*
X120356613Y-86613405D01*
X120510149Y-86695472D01*
X120676745Y-86746008D01*
X120849999Y-86763072D01*
X121550001Y-86763072D01*
X121723255Y-86746008D01*
X121889851Y-86695472D01*
X122043387Y-86613405D01*
X122177962Y-86502962D01*
X122288405Y-86368387D01*
X122370472Y-86214851D01*
X122421008Y-86048255D01*
X122438072Y-85875001D01*
X122438072Y-84624999D01*
X122421008Y-84451745D01*
X122370472Y-84285149D01*
X122288405Y-84131613D01*
X122177962Y-83997038D01*
X122043387Y-83886595D01*
X121889851Y-83804528D01*
X121723255Y-83753992D01*
X121550001Y-83736928D01*
X120849999Y-83736928D01*
X120676745Y-83753992D01*
X120510149Y-83804528D01*
X120356613Y-83886595D01*
X120222038Y-83997038D01*
X120111595Y-84131613D01*
X120109191Y-84136111D01*
X120077502Y-84097498D01*
X119889449Y-83943167D01*
X119674901Y-83828489D01*
X119442102Y-83757870D01*
X119200000Y-83734025D01*
X118957899Y-83757870D01*
X118725100Y-83828489D01*
X118510552Y-83943167D01*
X118322499Y-84097498D01*
X118168168Y-84285551D01*
X118053489Y-84500099D01*
X117982870Y-84732898D01*
X117965000Y-84914335D01*
X115478259Y-84914335D01*
X115585000Y-84377715D01*
X115585000Y-83622285D01*
X115437623Y-82881372D01*
X115148533Y-82183446D01*
X114728839Y-81555330D01*
X114194670Y-81021161D01*
X113654155Y-80660000D01*
X136095845Y-80660000D01*
X135555330Y-81021161D01*
X135555330Y-81021161D01*
G37*
X135555330Y-81021161D02*
X135021161Y-81555330D01*
X134601467Y-82183446D01*
X134312377Y-82881372D01*
X134165000Y-83622285D01*
X134165000Y-84377715D01*
X134312377Y-85118628D01*
X134601467Y-85816554D01*
X135021161Y-86444670D01*
X135555330Y-86978839D01*
X136183446Y-87398533D01*
X136881372Y-87687623D01*
X137622285Y-87835000D01*
X138377715Y-87835000D01*
X139118628Y-87687623D01*
X139816554Y-87398533D01*
X140444670Y-86978839D01*
X140978839Y-86444670D01*
X141398533Y-85816554D01*
X141590001Y-85354309D01*
X141590000Y-122217581D01*
X141590000Y-124145689D01*
X141398533Y-123683446D01*
X140978839Y-123055330D01*
X140444670Y-122521161D01*
X139816554Y-122101467D01*
X139118628Y-121812377D01*
X138377715Y-121665000D01*
X137622285Y-121665000D01*
X136881372Y-121812377D01*
X136183446Y-122101467D01*
X135555330Y-122521161D01*
X135021161Y-123055330D01*
X134601467Y-123683446D01*
X134312377Y-124381372D01*
X134165000Y-125122285D01*
X134165000Y-125877715D01*
X134312377Y-126618628D01*
X134601467Y-127316554D01*
X135021161Y-127944670D01*
X135555330Y-128478839D01*
X136183446Y-128898533D01*
X136645689Y-129090000D01*
X113104311Y-129090000D01*
X113566554Y-128898533D01*
X114194670Y-128478839D01*
X114728839Y-127944670D01*
X115148533Y-127316554D01*
X115437623Y-126618628D01*
X115585000Y-125877715D01*
X115585000Y-125122285D01*
X115437623Y-124381372D01*
X115148533Y-123683446D01*
X114728839Y-123055330D01*
X114194670Y-122521161D01*
X113566554Y-122101467D01*
X112868628Y-121812377D01*
X112127715Y-121665000D01*
X111372285Y-121665000D01*
X110631372Y-121812377D01*
X109933446Y-122101467D01*
X109305330Y-122521161D01*
X108771161Y-123055330D01*
X108351467Y-123683446D01*
X108160000Y-124145689D01*
X108160000Y-117160000D01*
X112287815Y-117160000D01*
X112316487Y-117451111D01*
X112401401Y-117731034D01*
X112539294Y-117989014D01*
X112724866Y-118215134D01*
X112950986Y-118400706D01*
X113208966Y-118538599D01*
X113488889Y-118623513D01*
X113707050Y-118645000D01*
X114152950Y-118645000D01*
X114371111Y-118623513D01*
X114651034Y-118538599D01*
X114909014Y-118400706D01*
X115135134Y-118215134D01*
X115320706Y-117989014D01*
X115458599Y-117731034D01*
X115543513Y-117451111D01*
X115560556Y-117278061D01*
X116575000Y-117278061D01*
X116575000Y-117481939D01*
X116614774Y-117681898D01*
X116692795Y-117870256D01*
X116806063Y-118039774D01*
X116950226Y-118183937D01*
X117119744Y-118297205D01*
X117308102Y-118375226D01*
X117508061Y-118415000D01*
X117711939Y-118415000D01*
X117911898Y-118375226D01*
X118100256Y-118297205D01*
X118269774Y-118183937D01*
X118413937Y-118039774D01*
X118527205Y-117870256D01*
X118605226Y-117681898D01*
X118645000Y-117481939D01*
X118645000Y-117278061D01*
X118605226Y-117078102D01*
X118527205Y-116889744D01*
X118413937Y-116720226D01*
X118269774Y-116576063D01*
X118100256Y-116462795D01*
X117911898Y-116384774D01*
X117711939Y-116345000D01*
X117508061Y-116345000D01*
X117308102Y-116384774D01*
X117119744Y-116462795D01*
X116950226Y-116576063D01*
X116806063Y-116720226D01*
X116692795Y-116889744D01*
X116614774Y-117078102D01*
X116575000Y-117278061D01*
X115560556Y-117278061D01*
X115572185Y-117160000D01*
X115543513Y-116868889D01*
X115458599Y-116588966D01*
X115320706Y-116330986D01*
X115135134Y-116104866D01*
X115071663Y-116052777D01*
X115173386Y-115998405D01*
X115307962Y-115887962D01*
X115418405Y-115753386D01*
X115500472Y-115599850D01*
X115551008Y-115433254D01*
X115568072Y-115260000D01*
X115568072Y-114568061D01*
X124745000Y-114568061D01*
X124745000Y-114771939D01*
X124784774Y-114971898D01*
X124862795Y-115160256D01*
X124976063Y-115329774D01*
X125120226Y-115473937D01*
X125289744Y-115587205D01*
X125373918Y-115622071D01*
X125299744Y-115652795D01*
X125130226Y-115766063D01*
X124986063Y-115910226D01*
X124872795Y-116079744D01*
X124794774Y-116268102D01*
X124755000Y-116468061D01*
X124755000Y-116671939D01*
X124794774Y-116871898D01*
X124872795Y-117060256D01*
X124986063Y-117229774D01*
X125130226Y-117373937D01*
X125299744Y-117487205D01*
X125488102Y-117565226D01*
X125688061Y-117605000D01*
X125891939Y-117605000D01*
X126091898Y-117565226D01*
X126280256Y-117487205D01*
X126449774Y-117373937D01*
X126593937Y-117229774D01*
X126707205Y-117060256D01*
X126785226Y-116871898D01*
X126825000Y-116671939D01*
X126825000Y-116468061D01*
X126785226Y-116268102D01*
X126707205Y-116079744D01*
X126593937Y-115910226D01*
X126449774Y-115766063D01*
X126280256Y-115652795D01*
X126196082Y-115617929D01*
X126270256Y-115587205D01*
X126439774Y-115473937D01*
X126583937Y-115329774D01*
X126697205Y-115160256D01*
X126775226Y-114971898D01*
X126815000Y-114771939D01*
X126815000Y-114568061D01*
X126775226Y-114368102D01*
X126697205Y-114179744D01*
X126583937Y-114010226D01*
X126439774Y-113866063D01*
X126270256Y-113752795D01*
X126081898Y-113674774D01*
X125881939Y-113635000D01*
X125678061Y-113635000D01*
X125478102Y-113674774D01*
X125289744Y-113752795D01*
X125120226Y-113866063D01*
X124976063Y-114010226D01*
X124862795Y-114179744D01*
X124784774Y-114368102D01*
X124745000Y-114568061D01*
X115568072Y-114568061D01*
X115568072Y-114060000D01*
X115551008Y-113886746D01*
X115500472Y-113720150D01*
X115418405Y-113566614D01*
X115307962Y-113432038D01*
X115173386Y-113321595D01*
X115019850Y-113239528D01*
X114853254Y-113188992D01*
X114680000Y-113171928D01*
X113180000Y-113171928D01*
X113006746Y-113188992D01*
X112840150Y-113239528D01*
X112686614Y-113321595D01*
X112552038Y-113432038D01*
X112441595Y-113566614D01*
X112359528Y-113720150D01*
X112308992Y-113886746D01*
X112291928Y-114060000D01*
X112291928Y-115260000D01*
X112308992Y-115433254D01*
X112359528Y-115599850D01*
X112441595Y-115753386D01*
X112552038Y-115887962D01*
X112686614Y-115998405D01*
X112788337Y-116052777D01*
X112724866Y-116104866D01*
X112539294Y-116330986D01*
X112401401Y-116588966D01*
X112316487Y-116868889D01*
X112287815Y-117160000D01*
X108160000Y-117160000D01*
X108160000Y-111618061D01*
X121225000Y-111618061D01*
X121225000Y-111821939D01*
X121264774Y-112021898D01*
X121342795Y-112210256D01*
X121456063Y-112379774D01*
X121600226Y-112523937D01*
X121769744Y-112637205D01*
X121958102Y-112715226D01*
X122158061Y-112755000D01*
X122361939Y-112755000D01*
X122561898Y-112715226D01*
X122750256Y-112637205D01*
X122919774Y-112523937D01*
X123063937Y-112379774D01*
X123177205Y-112210256D01*
X123255226Y-112021898D01*
X123295000Y-111821939D01*
X123295000Y-111618061D01*
X123255226Y-111418102D01*
X123177205Y-111229744D01*
X123063937Y-111060226D01*
X122919774Y-110916063D01*
X122750256Y-110802795D01*
X122561898Y-110724774D01*
X122361939Y-110685000D01*
X122158061Y-110685000D01*
X121958102Y-110724774D01*
X121769744Y-110802795D01*
X121600226Y-110916063D01*
X121456063Y-111060226D01*
X121342795Y-111229744D01*
X121264774Y-111418102D01*
X121225000Y-111618061D01*
X108160000Y-111618061D01*
X108160000Y-108630000D01*
X112297815Y-108630000D01*
X112326487Y-108921111D01*
X112411401Y-109201034D01*
X112549294Y-109459014D01*
X112734866Y-109685134D01*
X112960986Y-109870706D01*
X113218966Y-110008599D01*
X113498889Y-110093513D01*
X113717050Y-110115000D01*
X114162950Y-110115000D01*
X114381111Y-110093513D01*
X114661034Y-110008599D01*
X114793001Y-109938061D01*
X127045000Y-109938061D01*
X127045000Y-110141939D01*
X127084774Y-110341898D01*
X127162795Y-110530256D01*
X127276063Y-110699774D01*
X127420226Y-110843937D01*
X127589744Y-110957205D01*
X127778102Y-111035226D01*
X127978061Y-111075000D01*
X128181939Y-111075000D01*
X128381898Y-111035226D01*
X128570256Y-110957205D01*
X128739774Y-110843937D01*
X128883937Y-110699774D01*
X128997205Y-110530256D01*
X129075226Y-110341898D01*
X129115000Y-110141939D01*
X129115000Y-109938061D01*
X129075226Y-109738102D01*
X128997205Y-109549744D01*
X128883937Y-109380226D01*
X128739774Y-109236063D01*
X128570256Y-109122795D01*
X128381898Y-109044774D01*
X128181939Y-109005000D01*
X127978061Y-109005000D01*
X127778102Y-109044774D01*
X127589744Y-109122795D01*
X127420226Y-109236063D01*
X127276063Y-109380226D01*
X127162795Y-109549744D01*
X127084774Y-109738102D01*
X127045000Y-109938061D01*
X114793001Y-109938061D01*
X114919014Y-109870706D01*
X115145134Y-109685134D01*
X115330706Y-109459014D01*
X115468599Y-109201034D01*
X115553513Y-108921111D01*
X115582185Y-108630000D01*
X115553513Y-108338889D01*
X115468599Y-108058966D01*
X115330706Y-107800986D01*
X115149392Y-107580055D01*
X115184180Y-107569502D01*
X115294494Y-107510537D01*
X115391185Y-107431185D01*
X115470537Y-107334494D01*
X115529502Y-107224180D01*
X115564726Y-107108061D01*
X118205000Y-107108061D01*
X118205000Y-107311939D01*
X118244774Y-107511898D01*
X118322795Y-107700256D01*
X118436063Y-107869774D01*
X118580226Y-108013937D01*
X118749744Y-108127205D01*
X118938102Y-108205226D01*
X119138061Y-108245000D01*
X119341939Y-108245000D01*
X119541898Y-108205226D01*
X119730256Y-108127205D01*
X119899774Y-108013937D01*
X120043937Y-107869774D01*
X120157205Y-107700256D01*
X120235226Y-107511898D01*
X120275000Y-107311939D01*
X120275000Y-107108061D01*
X120235226Y-106908102D01*
X120157205Y-106719744D01*
X120043937Y-106550226D01*
X119899774Y-106406063D01*
X119730256Y-106292795D01*
X119541898Y-106214774D01*
X119341939Y-106175000D01*
X119138061Y-106175000D01*
X118938102Y-106214774D01*
X118749744Y-106292795D01*
X118580226Y-106406063D01*
X118436063Y-106550226D01*
X118322795Y-106719744D01*
X118244774Y-106908102D01*
X118205000Y-107108061D01*
X115564726Y-107108061D01*
X115565812Y-107104482D01*
X115578072Y-106980000D01*
X115575000Y-106415750D01*
X115416250Y-106257000D01*
X114067000Y-106257000D01*
X114067000Y-106277000D01*
X113813000Y-106277000D01*
X113813000Y-106257000D01*
X112463750Y-106257000D01*
X112305000Y-106415750D01*
X112301928Y-106980000D01*
X112314188Y-107104482D01*
X112350498Y-107224180D01*
X112409463Y-107334494D01*
X112488815Y-107431185D01*
X112585506Y-107510537D01*
X112695820Y-107569502D01*
X112730608Y-107580055D01*
X112549294Y-107800986D01*
X112411401Y-108058966D01*
X112326487Y-108338889D01*
X112297815Y-108630000D01*
X108160000Y-108630000D01*
X108160000Y-105280000D01*
X112301928Y-105280000D01*
X112305000Y-105844250D01*
X112463750Y-106003000D01*
X113813000Y-106003000D01*
X113813000Y-104803750D01*
X114067000Y-104803750D01*
X114067000Y-106003000D01*
X115416250Y-106003000D01*
X115575000Y-105844250D01*
X115578072Y-105280000D01*
X115571178Y-105210000D01*
X134524025Y-105210000D01*
X134547870Y-105452102D01*
X134618489Y-105684901D01*
X134733167Y-105899449D01*
X134887498Y-106087502D01*
X135036762Y-106210000D01*
X134887498Y-106332498D01*
X134733167Y-106520551D01*
X134618489Y-106735099D01*
X134547870Y-106967898D01*
X134524025Y-107210000D01*
X134547870Y-107452102D01*
X134618489Y-107684901D01*
X134733167Y-107899449D01*
X134887498Y-108087502D01*
X135036762Y-108210000D01*
X134887498Y-108332498D01*
X134733167Y-108520551D01*
X134618489Y-108735099D01*
X134547870Y-108967898D01*
X134524025Y-109210000D01*
X134547870Y-109452102D01*
X134618489Y-109684901D01*
X134733167Y-109899449D01*
X134887498Y-110087502D01*
X134926111Y-110119191D01*
X134921613Y-110121595D01*
X134787038Y-110232038D01*
X134676595Y-110366613D01*
X134594528Y-110520149D01*
X134543992Y-110686745D01*
X134526928Y-110859999D01*
X134526928Y-111560001D01*
X134543992Y-111733255D01*
X134594528Y-111899851D01*
X134676595Y-112053387D01*
X134787038Y-112187962D01*
X134921613Y-112298405D01*
X135075149Y-112380472D01*
X135241745Y-112431008D01*
X135414999Y-112448072D01*
X136665001Y-112448072D01*
X136838255Y-112431008D01*
X137004851Y-112380472D01*
X137158387Y-112298405D01*
X137292962Y-112187962D01*
X137403405Y-112053387D01*
X137485472Y-111899851D01*
X137536008Y-111733255D01*
X137553072Y-111560001D01*
X137553072Y-110859999D01*
X137536008Y-110686745D01*
X137485472Y-110520149D01*
X137403405Y-110366613D01*
X137292962Y-110232038D01*
X137158387Y-110121595D01*
X137153889Y-110119191D01*
X137192502Y-110087502D01*
X137346833Y-109899449D01*
X137461511Y-109684901D01*
X137532130Y-109452102D01*
X137555975Y-109210000D01*
X137532130Y-108967898D01*
X137461511Y-108735099D01*
X137346833Y-108520551D01*
X137192502Y-108332498D01*
X137043238Y-108210000D01*
X137192502Y-108087502D01*
X137346833Y-107899449D01*
X137461511Y-107684901D01*
X137532130Y-107452102D01*
X137555975Y-107210000D01*
X137532130Y-106967898D01*
X137461511Y-106735099D01*
X137346833Y-106520551D01*
X137192502Y-106332498D01*
X137043238Y-106210000D01*
X137192502Y-106087502D01*
X137346833Y-105899449D01*
X137461511Y-105684901D01*
X137532130Y-105452102D01*
X137555975Y-105210000D01*
X137532130Y-104967898D01*
X137461511Y-104735099D01*
X137346833Y-104520551D01*
X137192502Y-104332498D01*
X137004449Y-104178167D01*
X136789901Y-104063489D01*
X136557102Y-103992870D01*
X136375665Y-103975000D01*
X135704335Y-103975000D01*
X135522898Y-103992870D01*
X135290099Y-104063489D01*
X135075551Y-104178167D01*
X134887498Y-104332498D01*
X134733167Y-104520551D01*
X134618489Y-104735099D01*
X134547870Y-104967898D01*
X134524025Y-105210000D01*
X115571178Y-105210000D01*
X115565812Y-105155518D01*
X115529502Y-105035820D01*
X115470537Y-104925506D01*
X115391185Y-104828815D01*
X115294494Y-104749463D01*
X115184180Y-104690498D01*
X115064482Y-104654188D01*
X114940000Y-104641928D01*
X114225750Y-104645000D01*
X114067000Y-104803750D01*
X113813000Y-104803750D01*
X113654250Y-104645000D01*
X112940000Y-104641928D01*
X112815518Y-104654188D01*
X112695820Y-104690498D01*
X112585506Y-104749463D01*
X112488815Y-104828815D01*
X112409463Y-104925506D01*
X112350498Y-105035820D01*
X112314188Y-105155518D01*
X112301928Y-105280000D01*
X108160000Y-105280000D01*
X108160000Y-103668061D01*
X118705000Y-103668061D01*
X118705000Y-103871939D01*
X118744774Y-104071898D01*
X118822795Y-104260256D01*
X118936063Y-104429774D01*
X119080226Y-104573937D01*
X119249744Y-104687205D01*
X119438102Y-104765226D01*
X119638061Y-104805000D01*
X119841939Y-104805000D01*
X120041898Y-104765226D01*
X120230256Y-104687205D01*
X120399774Y-104573937D01*
X120520000Y-104453711D01*
X120640226Y-104573937D01*
X120809744Y-104687205D01*
X120998102Y-104765226D01*
X121198061Y-104805000D01*
X121401939Y-104805000D01*
X121601898Y-104765226D01*
X121790256Y-104687205D01*
X121959774Y-104573937D01*
X122090000Y-104443711D01*
X122220226Y-104573937D01*
X122389744Y-104687205D01*
X122578102Y-104765226D01*
X122778061Y-104805000D01*
X122981939Y-104805000D01*
X123181898Y-104765226D01*
X123370256Y-104687205D01*
X123539774Y-104573937D01*
X123683937Y-104429774D01*
X123797205Y-104260256D01*
X123875226Y-104071898D01*
X123915000Y-103871939D01*
X123915000Y-103668061D01*
X123875226Y-103468102D01*
X123862783Y-103438061D01*
X124255000Y-103438061D01*
X124255000Y-103641939D01*
X124294774Y-103841898D01*
X124372795Y-104030256D01*
X124486063Y-104199774D01*
X124630226Y-104343937D01*
X124799744Y-104457205D01*
X124988102Y-104535226D01*
X125188061Y-104575000D01*
X125391939Y-104575000D01*
X125591898Y-104535226D01*
X125780256Y-104457205D01*
X125949774Y-104343937D01*
X126093937Y-104199774D01*
X126207205Y-104030256D01*
X126285226Y-103841898D01*
X126325000Y-103641939D01*
X126325000Y-103438061D01*
X126285226Y-103238102D01*
X126207205Y-103049744D01*
X126093937Y-102880226D01*
X125949774Y-102736063D01*
X125937799Y-102728061D01*
X131975000Y-102728061D01*
X131975000Y-102931939D01*
X132014774Y-103131898D01*
X132092795Y-103320256D01*
X132206063Y-103489774D01*
X132350226Y-103633937D01*
X132519744Y-103747205D01*
X132708102Y-103825226D01*
X132908061Y-103865000D01*
X133111939Y-103865000D01*
X133311898Y-103825226D01*
X133500256Y-103747205D01*
X133669774Y-103633937D01*
X133813937Y-103489774D01*
X133927205Y-103320256D01*
X134005226Y-103131898D01*
X134045000Y-102931939D01*
X134045000Y-102728061D01*
X134005226Y-102528102D01*
X133927205Y-102339744D01*
X133813937Y-102170226D01*
X133669774Y-102026063D01*
X133500256Y-101912795D01*
X133311898Y-101834774D01*
X133111939Y-101795000D01*
X132908061Y-101795000D01*
X132708102Y-101834774D01*
X132519744Y-101912795D01*
X132350226Y-102026063D01*
X132206063Y-102170226D01*
X132092795Y-102339744D01*
X132014774Y-102528102D01*
X131975000Y-102728061D01*
X125937799Y-102728061D01*
X125780256Y-102622795D01*
X125591898Y-102544774D01*
X125391939Y-102505000D01*
X125188061Y-102505000D01*
X124988102Y-102544774D01*
X124799744Y-102622795D01*
X124630226Y-102736063D01*
X124486063Y-102880226D01*
X124372795Y-103049744D01*
X124294774Y-103238102D01*
X124255000Y-103438061D01*
X123862783Y-103438061D01*
X123797205Y-103279744D01*
X123683937Y-103110226D01*
X123539774Y-102966063D01*
X123370256Y-102852795D01*
X123181898Y-102774774D01*
X122981939Y-102735000D01*
X122778061Y-102735000D01*
X122578102Y-102774774D01*
X122389744Y-102852795D01*
X122220226Y-102966063D01*
X122090000Y-103096289D01*
X121959774Y-102966063D01*
X121790256Y-102852795D01*
X121601898Y-102774774D01*
X121401939Y-102735000D01*
X121198061Y-102735000D01*
X120998102Y-102774774D01*
X120809744Y-102852795D01*
X120640226Y-102966063D01*
X120520000Y-103086289D01*
X120399774Y-102966063D01*
X120230256Y-102852795D01*
X120041898Y-102774774D01*
X119841939Y-102735000D01*
X119638061Y-102735000D01*
X119438102Y-102774774D01*
X119249744Y-102852795D01*
X119080226Y-102966063D01*
X118936063Y-103110226D01*
X118822795Y-103279744D01*
X118744774Y-103468102D01*
X118705000Y-103668061D01*
X108160000Y-103668061D01*
X108160000Y-102261571D01*
X108328061Y-102295000D01*
X108531939Y-102295000D01*
X108731898Y-102255226D01*
X108857071Y-102203377D01*
X108958102Y-102245226D01*
X109158061Y-102285000D01*
X109361939Y-102285000D01*
X109561898Y-102245226D01*
X109657929Y-102205448D01*
X109778102Y-102255226D01*
X109978061Y-102295000D01*
X110181939Y-102295000D01*
X110381898Y-102255226D01*
X110507071Y-102203377D01*
X110608102Y-102245226D01*
X110808061Y-102285000D01*
X111011939Y-102285000D01*
X111211898Y-102245226D01*
X111312929Y-102203377D01*
X111438102Y-102255226D01*
X111638061Y-102295000D01*
X111841939Y-102295000D01*
X112041898Y-102255226D01*
X112230256Y-102177205D01*
X112399774Y-102063937D01*
X112543937Y-101919774D01*
X112657205Y-101750256D01*
X112735226Y-101561898D01*
X112775000Y-101361939D01*
X112775000Y-101158061D01*
X112735226Y-100958102D01*
X112657205Y-100769744D01*
X112543937Y-100600226D01*
X112399774Y-100456063D01*
X112230256Y-100342795D01*
X112041898Y-100264774D01*
X111841939Y-100225000D01*
X111638061Y-100225000D01*
X111438102Y-100264774D01*
X111337071Y-100306623D01*
X111211898Y-100254774D01*
X111011939Y-100215000D01*
X110808061Y-100215000D01*
X110608102Y-100254774D01*
X110482929Y-100306623D01*
X110381898Y-100264774D01*
X110181939Y-100225000D01*
X109978061Y-100225000D01*
X109778102Y-100264774D01*
X109682071Y-100304552D01*
X109561898Y-100254774D01*
X109361939Y-100215000D01*
X109158061Y-100215000D01*
X108958102Y-100254774D01*
X108832929Y-100306623D01*
X108731898Y-100264774D01*
X108531939Y-100225000D01*
X108328061Y-100225000D01*
X108160000Y-100258429D01*
X108160000Y-99088061D01*
X114465000Y-99088061D01*
X114465000Y-99291939D01*
X114504774Y-99491898D01*
X114582795Y-99680256D01*
X114696063Y-99849774D01*
X114826289Y-99980000D01*
X114696063Y-100110226D01*
X114582795Y-100279744D01*
X114504774Y-100468102D01*
X114465000Y-100668061D01*
X114465000Y-100871939D01*
X114504774Y-101071898D01*
X114582795Y-101260256D01*
X114696063Y-101429774D01*
X114806289Y-101540000D01*
X114696063Y-101650226D01*
X114582795Y-101819744D01*
X114504774Y-102008102D01*
X114465000Y-102208061D01*
X114465000Y-102411939D01*
X114504774Y-102611898D01*
X114582795Y-102800256D01*
X114696063Y-102969774D01*
X114840226Y-103113937D01*
X115009744Y-103227205D01*
X115198102Y-103305226D01*
X115398061Y-103345000D01*
X115601939Y-103345000D01*
X115801898Y-103305226D01*
X115990256Y-103227205D01*
X116159774Y-103113937D01*
X116303937Y-102969774D01*
X116417205Y-102800256D01*
X116495226Y-102611898D01*
X116535000Y-102411939D01*
X116535000Y-102208061D01*
X116495226Y-102008102D01*
X116417205Y-101819744D01*
X116303937Y-101650226D01*
X116193711Y-101540000D01*
X116303937Y-101429774D01*
X116417205Y-101260256D01*
X116495226Y-101071898D01*
X116535000Y-100871939D01*
X116535000Y-100668061D01*
X116495226Y-100468102D01*
X116417205Y-100279744D01*
X116303937Y-100110226D01*
X116173711Y-99980000D01*
X116303937Y-99849774D01*
X116417205Y-99680256D01*
X116495226Y-99491898D01*
X116535000Y-99291939D01*
X116535000Y-99088061D01*
X116495226Y-98888102D01*
X116417205Y-98699744D01*
X116303937Y-98530226D01*
X116159774Y-98386063D01*
X115990256Y-98272795D01*
X115801898Y-98194774D01*
X115768150Y-98188061D01*
X116395000Y-98188061D01*
X116395000Y-98391939D01*
X116434774Y-98591898D01*
X116512795Y-98780256D01*
X116626063Y-98949774D01*
X116770226Y-99093937D01*
X116939744Y-99207205D01*
X117128102Y-99285226D01*
X117328061Y-99325000D01*
X117531939Y-99325000D01*
X117731898Y-99285226D01*
X117920256Y-99207205D01*
X118089774Y-99093937D01*
X118233937Y-98949774D01*
X118347205Y-98780256D01*
X118425226Y-98591898D01*
X118465000Y-98391939D01*
X118465000Y-98188061D01*
X118425226Y-97988102D01*
X118347205Y-97799744D01*
X118233937Y-97630226D01*
X118089774Y-97486063D01*
X117920256Y-97372795D01*
X117731898Y-97294774D01*
X117531939Y-97255000D01*
X117328061Y-97255000D01*
X117128102Y-97294774D01*
X116939744Y-97372795D01*
X116770226Y-97486063D01*
X116626063Y-97630226D01*
X116512795Y-97799744D01*
X116434774Y-97988102D01*
X116395000Y-98188061D01*
X115768150Y-98188061D01*
X115601939Y-98155000D01*
X115398061Y-98155000D01*
X115198102Y-98194774D01*
X115009744Y-98272795D01*
X114840226Y-98386063D01*
X114696063Y-98530226D01*
X114582795Y-98699744D01*
X114504774Y-98888102D01*
X114465000Y-99088061D01*
X108160000Y-99088061D01*
X108160000Y-95608061D01*
X116105000Y-95608061D01*
X116105000Y-95811939D01*
X116144774Y-96011898D01*
X116222795Y-96200256D01*
X116336063Y-96369774D01*
X116480226Y-96513937D01*
X116649744Y-96627205D01*
X116838102Y-96705226D01*
X117038061Y-96745000D01*
X117241939Y-96745000D01*
X117441898Y-96705226D01*
X117630256Y-96627205D01*
X117799774Y-96513937D01*
X117943937Y-96369774D01*
X118057205Y-96200256D01*
X118135226Y-96011898D01*
X118175000Y-95811939D01*
X118175000Y-95608061D01*
X118169033Y-95578061D01*
X121305000Y-95578061D01*
X121305000Y-95781939D01*
X121344774Y-95981898D01*
X121422795Y-96170256D01*
X121526169Y-96324966D01*
X121442795Y-96449744D01*
X121364774Y-96638102D01*
X121325000Y-96838061D01*
X121325000Y-97041939D01*
X121364774Y-97241898D01*
X121442795Y-97430256D01*
X121502737Y-97519966D01*
X121462795Y-97579744D01*
X121384774Y-97768102D01*
X121345000Y-97968061D01*
X121345000Y-98171939D01*
X121384774Y-98371898D01*
X121462795Y-98560256D01*
X121576063Y-98729774D01*
X121720226Y-98873937D01*
X121889744Y-98987205D01*
X122078102Y-99065226D01*
X122278061Y-99105000D01*
X122481939Y-99105000D01*
X122681898Y-99065226D01*
X122870256Y-98987205D01*
X122982483Y-98912217D01*
X123079744Y-98977205D01*
X123268102Y-99055226D01*
X123468061Y-99095000D01*
X123671939Y-99095000D01*
X123871898Y-99055226D01*
X124060256Y-98977205D01*
X124140000Y-98923922D01*
X124219744Y-98977205D01*
X124408102Y-99055226D01*
X124608061Y-99095000D01*
X124811939Y-99095000D01*
X125011898Y-99055226D01*
X125200256Y-98977205D01*
X125369774Y-98863937D01*
X125513937Y-98719774D01*
X125627205Y-98550256D01*
X125705226Y-98361898D01*
X125745000Y-98161939D01*
X125745000Y-97958061D01*
X125705226Y-97758102D01*
X125627205Y-97569744D01*
X125578922Y-97497483D01*
X125637205Y-97410256D01*
X125715226Y-97221898D01*
X125755000Y-97021939D01*
X125755000Y-96818061D01*
X125715226Y-96618102D01*
X125637205Y-96429744D01*
X125558831Y-96312449D01*
X125667205Y-96150256D01*
X125745226Y-95961898D01*
X125785000Y-95761939D01*
X125785000Y-95558061D01*
X125745226Y-95358102D01*
X125667205Y-95169744D01*
X125553937Y-95000226D01*
X125409774Y-94856063D01*
X125240256Y-94742795D01*
X125051898Y-94664774D01*
X124851939Y-94625000D01*
X124648061Y-94625000D01*
X124448102Y-94664774D01*
X124259744Y-94742795D01*
X124152551Y-94814419D01*
X124090256Y-94772795D01*
X123901898Y-94694774D01*
X123701939Y-94655000D01*
X123498061Y-94655000D01*
X123298102Y-94694774D01*
X123109744Y-94772795D01*
X122977483Y-94861169D01*
X122830256Y-94762795D01*
X122641898Y-94684774D01*
X122441939Y-94645000D01*
X122238061Y-94645000D01*
X122038102Y-94684774D01*
X121849744Y-94762795D01*
X121680226Y-94876063D01*
X121536063Y-95020226D01*
X121422795Y-95189744D01*
X121344774Y-95378102D01*
X121305000Y-95578061D01*
X118169033Y-95578061D01*
X118135226Y-95408102D01*
X118057205Y-95219744D01*
X117943937Y-95050226D01*
X117799774Y-94906063D01*
X117630256Y-94792795D01*
X117441898Y-94714774D01*
X117241939Y-94675000D01*
X117038061Y-94675000D01*
X116838102Y-94714774D01*
X116649744Y-94792795D01*
X116480226Y-94906063D01*
X116336063Y-95050226D01*
X116222795Y-95219744D01*
X116144774Y-95408102D01*
X116105000Y-95608061D01*
X108160000Y-95608061D01*
X108160000Y-94098061D01*
X113455000Y-94098061D01*
X113455000Y-94301939D01*
X113494774Y-94501898D01*
X113572795Y-94690256D01*
X113686063Y-94859774D01*
X113830226Y-95003937D01*
X113999744Y-95117205D01*
X114188102Y-95195226D01*
X114388061Y-95235000D01*
X114591939Y-95235000D01*
X114791898Y-95195226D01*
X114980256Y-95117205D01*
X115149774Y-95003937D01*
X115293937Y-94859774D01*
X115407205Y-94690256D01*
X115485226Y-94501898D01*
X115525000Y-94301939D01*
X115525000Y-94102658D01*
X118130403Y-94102658D01*
X118130403Y-94306536D01*
X118170177Y-94506495D01*
X118248198Y-94694853D01*
X118361466Y-94864371D01*
X118505629Y-95008534D01*
X118675147Y-95121802D01*
X118863505Y-95199823D01*
X119063464Y-95239597D01*
X119267342Y-95239597D01*
X119467301Y-95199823D01*
X119515750Y-95179755D01*
X119603274Y-95267279D01*
X119772792Y-95380547D01*
X119961150Y-95458568D01*
X120161109Y-95498342D01*
X120364987Y-95498342D01*
X120564946Y-95458568D01*
X120753304Y-95380547D01*
X120922822Y-95267279D01*
X121066985Y-95123116D01*
X121180253Y-94953598D01*
X121258274Y-94765240D01*
X121298048Y-94565281D01*
X121298048Y-94549825D01*
X121347045Y-94540079D01*
X121535403Y-94462058D01*
X121704921Y-94348790D01*
X121849084Y-94204627D01*
X121962352Y-94035109D01*
X122040373Y-93846751D01*
X122080147Y-93646792D01*
X122080147Y-93442914D01*
X122055313Y-93318062D01*
X124665000Y-93318062D01*
X124665000Y-93521940D01*
X124704774Y-93721899D01*
X124782795Y-93910257D01*
X124896063Y-94079775D01*
X125040226Y-94223938D01*
X125209744Y-94337206D01*
X125398102Y-94415227D01*
X125598061Y-94455001D01*
X125801939Y-94455001D01*
X126001898Y-94415227D01*
X126035000Y-94401516D01*
X126035000Y-94514339D01*
X126074774Y-94714298D01*
X126152795Y-94902656D01*
X126266063Y-95072174D01*
X126410226Y-95216337D01*
X126579744Y-95329605D01*
X126768102Y-95407626D01*
X126968061Y-95447400D01*
X127171939Y-95447400D01*
X127371898Y-95407626D01*
X127560256Y-95329605D01*
X127729774Y-95216337D01*
X127873937Y-95072174D01*
X127987205Y-94902656D01*
X128065226Y-94714298D01*
X128105000Y-94514339D01*
X128105000Y-94310461D01*
X128065226Y-94110502D01*
X128055848Y-94087863D01*
X128073937Y-94069774D01*
X128187205Y-93900256D01*
X128265226Y-93711898D01*
X128305000Y-93511939D01*
X128305000Y-93308061D01*
X128265226Y-93108102D01*
X128187205Y-92919744D01*
X128073937Y-92750226D01*
X127929774Y-92606063D01*
X127760256Y-92492795D01*
X127571898Y-92414774D01*
X127371939Y-92375000D01*
X127168061Y-92375000D01*
X126968102Y-92414774D01*
X126779744Y-92492795D01*
X126610226Y-92606063D01*
X126480000Y-92736290D01*
X126359774Y-92616064D01*
X126190256Y-92502796D01*
X126001898Y-92424775D01*
X125801939Y-92385001D01*
X125598061Y-92385001D01*
X125398102Y-92424775D01*
X125209744Y-92502796D01*
X125040226Y-92616064D01*
X124896063Y-92760227D01*
X124782795Y-92929745D01*
X124704774Y-93118103D01*
X124665000Y-93318062D01*
X122055313Y-93318062D01*
X122040373Y-93242955D01*
X121962352Y-93054597D01*
X121849084Y-92885079D01*
X121704921Y-92740916D01*
X121535403Y-92627648D01*
X121347045Y-92549627D01*
X121147086Y-92509853D01*
X120943208Y-92509853D01*
X120743249Y-92549627D01*
X120554891Y-92627648D01*
X120385373Y-92740916D01*
X120241210Y-92885079D01*
X120127942Y-93054597D01*
X120049921Y-93242955D01*
X120010147Y-93442914D01*
X120010147Y-93458370D01*
X119961150Y-93468116D01*
X119912701Y-93488184D01*
X119825177Y-93400660D01*
X119655659Y-93287392D01*
X119467301Y-93209371D01*
X119267342Y-93169597D01*
X119063464Y-93169597D01*
X118863505Y-93209371D01*
X118675147Y-93287392D01*
X118505629Y-93400660D01*
X118361466Y-93544823D01*
X118248198Y-93714341D01*
X118170177Y-93902699D01*
X118130403Y-94102658D01*
X115525000Y-94102658D01*
X115525000Y-94098061D01*
X115485226Y-93898102D01*
X115407205Y-93709744D01*
X115293937Y-93540226D01*
X115149774Y-93396063D01*
X114980256Y-93282795D01*
X114791898Y-93204774D01*
X114591939Y-93165000D01*
X114388061Y-93165000D01*
X114188102Y-93204774D01*
X113999744Y-93282795D01*
X113830226Y-93396063D01*
X113686063Y-93540226D01*
X113572795Y-93709744D01*
X113494774Y-93898102D01*
X113455000Y-94098061D01*
X108160000Y-94098061D01*
X108160000Y-94009527D01*
X108288061Y-94035000D01*
X108491939Y-94035000D01*
X108691898Y-93995226D01*
X108812071Y-93945448D01*
X108908102Y-93985226D01*
X109108061Y-94025000D01*
X109311939Y-94025000D01*
X109511898Y-93985226D01*
X109602929Y-93947519D01*
X109718102Y-93995226D01*
X109918061Y-94035000D01*
X110121939Y-94035000D01*
X110321898Y-93995226D01*
X110425000Y-93952519D01*
X110528102Y-93995226D01*
X110728061Y-94035000D01*
X110931939Y-94035000D01*
X111131898Y-93995226D01*
X111235000Y-93952519D01*
X111338102Y-93995226D01*
X111538061Y-94035000D01*
X111741939Y-94035000D01*
X111941898Y-93995226D01*
X112130256Y-93917205D01*
X112299774Y-93803937D01*
X112443937Y-93659774D01*
X112557205Y-93490256D01*
X112635226Y-93301898D01*
X112675000Y-93101939D01*
X112675000Y-92898061D01*
X112635226Y-92698102D01*
X112557205Y-92509744D01*
X112443937Y-92340226D01*
X112299774Y-92196063D01*
X112130256Y-92082795D01*
X111941898Y-92004774D01*
X111741939Y-91965000D01*
X111538061Y-91965000D01*
X111338102Y-92004774D01*
X111235000Y-92047481D01*
X111131898Y-92004774D01*
X110931939Y-91965000D01*
X110728061Y-91965000D01*
X110528102Y-92004774D01*
X110425000Y-92047481D01*
X110321898Y-92004774D01*
X110121939Y-91965000D01*
X109918061Y-91965000D01*
X109718102Y-92004774D01*
X109627071Y-92042481D01*
X109511898Y-91994774D01*
X109311939Y-91955000D01*
X109108061Y-91955000D01*
X108908102Y-91994774D01*
X108787929Y-92044552D01*
X108691898Y-92004774D01*
X108491939Y-91965000D01*
X108288061Y-91965000D01*
X108160000Y-91990473D01*
X108160000Y-91558061D01*
X115265000Y-91558061D01*
X115265000Y-91761939D01*
X115304774Y-91961898D01*
X115382795Y-92150256D01*
X115496063Y-92319774D01*
X115640226Y-92463937D01*
X115809744Y-92577205D01*
X115998102Y-92655226D01*
X116198061Y-92695000D01*
X116401939Y-92695000D01*
X116601898Y-92655226D01*
X116790256Y-92577205D01*
X116959774Y-92463937D01*
X117065000Y-92358711D01*
X117170226Y-92463937D01*
X117339744Y-92577205D01*
X117528102Y-92655226D01*
X117728061Y-92695000D01*
X117931939Y-92695000D01*
X118131898Y-92655226D01*
X118320256Y-92577205D01*
X118489774Y-92463937D01*
X118633937Y-92319774D01*
X118690115Y-92235698D01*
X118855596Y-92235698D01*
X119055555Y-92195924D01*
X119238850Y-92120000D01*
X134534025Y-92120000D01*
X134557870Y-92362102D01*
X134628489Y-92594901D01*
X134743167Y-92809449D01*
X134897498Y-92997502D01*
X135046762Y-93120000D01*
X134897498Y-93242498D01*
X134743167Y-93430551D01*
X134628489Y-93645099D01*
X134557870Y-93877898D01*
X134534025Y-94120000D01*
X134557870Y-94362102D01*
X134628489Y-94594901D01*
X134743167Y-94809449D01*
X134897498Y-94997502D01*
X135046762Y-95120000D01*
X134897498Y-95242498D01*
X134743167Y-95430551D01*
X134628489Y-95645099D01*
X134557870Y-95877898D01*
X134534025Y-96120000D01*
X134557870Y-96362102D01*
X134628489Y-96594901D01*
X134743167Y-96809449D01*
X134897498Y-96997502D01*
X135046762Y-97120000D01*
X134897498Y-97242498D01*
X134743167Y-97430551D01*
X134628489Y-97645099D01*
X134557870Y-97877898D01*
X134534025Y-98120000D01*
X134557870Y-98362102D01*
X134628489Y-98594901D01*
X134743167Y-98809449D01*
X134897498Y-98997502D01*
X134936111Y-99029191D01*
X134931613Y-99031595D01*
X134797038Y-99142038D01*
X134686595Y-99276613D01*
X134604528Y-99430149D01*
X134553992Y-99596745D01*
X134536928Y-99769999D01*
X134536928Y-100470001D01*
X134553992Y-100643255D01*
X134604528Y-100809851D01*
X134686595Y-100963387D01*
X134797038Y-101097962D01*
X134931613Y-101208405D01*
X135085149Y-101290472D01*
X135251745Y-101341008D01*
X135424999Y-101358072D01*
X136675001Y-101358072D01*
X136848255Y-101341008D01*
X137014851Y-101290472D01*
X137168387Y-101208405D01*
X137302962Y-101097962D01*
X137413405Y-100963387D01*
X137495472Y-100809851D01*
X137546008Y-100643255D01*
X137563072Y-100470001D01*
X137563072Y-99769999D01*
X137546008Y-99596745D01*
X137495472Y-99430149D01*
X137413405Y-99276613D01*
X137302962Y-99142038D01*
X137168387Y-99031595D01*
X137163889Y-99029191D01*
X137202502Y-98997502D01*
X137356833Y-98809449D01*
X137471511Y-98594901D01*
X137542130Y-98362102D01*
X137565975Y-98120000D01*
X137542130Y-97877898D01*
X137471511Y-97645099D01*
X137356833Y-97430551D01*
X137202502Y-97242498D01*
X137053238Y-97120000D01*
X137202502Y-96997502D01*
X137356833Y-96809449D01*
X137471511Y-96594901D01*
X137542130Y-96362102D01*
X137565975Y-96120000D01*
X137542130Y-95877898D01*
X137471511Y-95645099D01*
X137356833Y-95430551D01*
X137202502Y-95242498D01*
X137053238Y-95120000D01*
X137202502Y-94997502D01*
X137356833Y-94809449D01*
X137471511Y-94594901D01*
X137542130Y-94362102D01*
X137565975Y-94120000D01*
X137542130Y-93877898D01*
X137471511Y-93645099D01*
X137356833Y-93430551D01*
X137202502Y-93242498D01*
X137053238Y-93120000D01*
X137202502Y-92997502D01*
X137356833Y-92809449D01*
X137471511Y-92594901D01*
X137542130Y-92362102D01*
X137565975Y-92120000D01*
X137542130Y-91877898D01*
X137471511Y-91645099D01*
X137356833Y-91430551D01*
X137202502Y-91242498D01*
X137014449Y-91088167D01*
X136799901Y-90973489D01*
X136567102Y-90902870D01*
X136385665Y-90885000D01*
X135714335Y-90885000D01*
X135532898Y-90902870D01*
X135300099Y-90973489D01*
X135085551Y-91088167D01*
X134897498Y-91242498D01*
X134743167Y-91430551D01*
X134628489Y-91645099D01*
X134557870Y-91877898D01*
X134534025Y-92120000D01*
X119238850Y-92120000D01*
X119243913Y-92117903D01*
X119413431Y-92004635D01*
X119557594Y-91860472D01*
X119670862Y-91690954D01*
X119748883Y-91502596D01*
X119788657Y-91302637D01*
X119788657Y-91098759D01*
X119748883Y-90898800D01*
X119670862Y-90710442D01*
X119557594Y-90540924D01*
X119413431Y-90396761D01*
X119243913Y-90283493D01*
X119055555Y-90205472D01*
X118855596Y-90165698D01*
X118651718Y-90165698D01*
X118451759Y-90205472D01*
X118263401Y-90283493D01*
X118093883Y-90396761D01*
X117949720Y-90540924D01*
X117893542Y-90625000D01*
X117728061Y-90625000D01*
X117528102Y-90664774D01*
X117339744Y-90742795D01*
X117170226Y-90856063D01*
X117065000Y-90961289D01*
X116959774Y-90856063D01*
X116790256Y-90742795D01*
X116601898Y-90664774D01*
X116401939Y-90625000D01*
X116198061Y-90625000D01*
X115998102Y-90664774D01*
X115809744Y-90742795D01*
X115640226Y-90856063D01*
X115496063Y-91000226D01*
X115382795Y-91169744D01*
X115304774Y-91358102D01*
X115265000Y-91558061D01*
X108160000Y-91558061D01*
X108160000Y-88658061D01*
X124845000Y-88658061D01*
X124845000Y-88861939D01*
X124884774Y-89061898D01*
X124962795Y-89250256D01*
X125076063Y-89419774D01*
X125220226Y-89563937D01*
X125389744Y-89677205D01*
X125578102Y-89755226D01*
X125778061Y-89795000D01*
X125981939Y-89795000D01*
X126181898Y-89755226D01*
X126370256Y-89677205D01*
X126539774Y-89563937D01*
X126683937Y-89419774D01*
X126797205Y-89250256D01*
X126875226Y-89061898D01*
X126915000Y-88861939D01*
X126915000Y-88658061D01*
X130475000Y-88658061D01*
X130475000Y-88861939D01*
X130514774Y-89061898D01*
X130592795Y-89250256D01*
X130706063Y-89419774D01*
X130850226Y-89563937D01*
X131019744Y-89677205D01*
X131208102Y-89755226D01*
X131408061Y-89795000D01*
X131611939Y-89795000D01*
X131811898Y-89755226D01*
X132000256Y-89677205D01*
X132169774Y-89563937D01*
X132313937Y-89419774D01*
X132427205Y-89250256D01*
X132505226Y-89061898D01*
X132545000Y-88861939D01*
X132545000Y-88658061D01*
X132505226Y-88458102D01*
X132427205Y-88269744D01*
X132313937Y-88100226D01*
X132169774Y-87956063D01*
X132000256Y-87842795D01*
X131811898Y-87764774D01*
X131611939Y-87725000D01*
X131408061Y-87725000D01*
X131208102Y-87764774D01*
X131019744Y-87842795D01*
X130850226Y-87956063D01*
X130706063Y-88100226D01*
X130592795Y-88269744D01*
X130514774Y-88458102D01*
X130475000Y-88658061D01*
X126915000Y-88658061D01*
X126875226Y-88458102D01*
X126797205Y-88269744D01*
X126683937Y-88100226D01*
X126539774Y-87956063D01*
X126370256Y-87842795D01*
X126181898Y-87764774D01*
X125981939Y-87725000D01*
X125778061Y-87725000D01*
X125578102Y-87764774D01*
X125389744Y-87842795D01*
X125220226Y-87956063D01*
X125076063Y-88100226D01*
X124962795Y-88269744D01*
X124884774Y-88458102D01*
X124845000Y-88658061D01*
X108160000Y-88658061D01*
X108160000Y-85354311D01*
X108351467Y-85816554D01*
X108771161Y-86444670D01*
X109305330Y-86978839D01*
X109933446Y-87398533D01*
X110631372Y-87687623D01*
X111372285Y-87835000D01*
X112127715Y-87835000D01*
X112868628Y-87687623D01*
X113566554Y-87398533D01*
X114016241Y-87098061D01*
X123305000Y-87098061D01*
X123305000Y-87301939D01*
X123344774Y-87501898D01*
X123422795Y-87690256D01*
X123536063Y-87859774D01*
X123680226Y-88003937D01*
X123849744Y-88117205D01*
X124038102Y-88195226D01*
X124238061Y-88235000D01*
X124441939Y-88235000D01*
X124641898Y-88195226D01*
X124830256Y-88117205D01*
X124999774Y-88003937D01*
X125143937Y-87859774D01*
X125257205Y-87690256D01*
X125335226Y-87501898D01*
X125375000Y-87301939D01*
X125375000Y-87098061D01*
X125335226Y-86898102D01*
X125257205Y-86709744D01*
X125143937Y-86540226D01*
X124999774Y-86396063D01*
X124830256Y-86282795D01*
X124641898Y-86204774D01*
X124441939Y-86165000D01*
X124238061Y-86165000D01*
X124038102Y-86204774D01*
X123849744Y-86282795D01*
X123680226Y-86396063D01*
X123536063Y-86540226D01*
X123422795Y-86709744D01*
X123344774Y-86898102D01*
X123305000Y-87098061D01*
X114016241Y-87098061D01*
X114194670Y-86978839D01*
X114728839Y-86444670D01*
X115148533Y-85816554D01*
X115437623Y-85118628D01*
X115478259Y-84914335D01*
X117965000Y-84914335D01*
X117965000Y-85585664D01*
X117982870Y-85767101D01*
X118053489Y-85999900D01*
X118168167Y-86214448D01*
X118322498Y-86402502D01*
X118510551Y-86556833D01*
X118725099Y-86671511D01*
X118957898Y-86742130D01*
X119200000Y-86765975D01*
X119442101Y-86742130D01*
X119674900Y-86671511D01*
X119889448Y-86556833D01*
X120077502Y-86402502D01*
X120109191Y-86363889D01*
X120111595Y-86368387D01*
X120222038Y-86502962D01*
X120356613Y-86613405D01*
X120510149Y-86695472D01*
X120676745Y-86746008D01*
X120849999Y-86763072D01*
X121550001Y-86763072D01*
X121723255Y-86746008D01*
X121889851Y-86695472D01*
X122043387Y-86613405D01*
X122177962Y-86502962D01*
X122288405Y-86368387D01*
X122370472Y-86214851D01*
X122421008Y-86048255D01*
X122438072Y-85875001D01*
X122438072Y-84624999D01*
X122421008Y-84451745D01*
X122370472Y-84285149D01*
X122288405Y-84131613D01*
X122177962Y-83997038D01*
X122043387Y-83886595D01*
X121889851Y-83804528D01*
X121723255Y-83753992D01*
X121550001Y-83736928D01*
X120849999Y-83736928D01*
X120676745Y-83753992D01*
X120510149Y-83804528D01*
X120356613Y-83886595D01*
X120222038Y-83997038D01*
X120111595Y-84131613D01*
X120109191Y-84136111D01*
X120077502Y-84097498D01*
X119889449Y-83943167D01*
X119674901Y-83828489D01*
X119442102Y-83757870D01*
X119200000Y-83734025D01*
X118957899Y-83757870D01*
X118725100Y-83828489D01*
X118510552Y-83943167D01*
X118322499Y-84097498D01*
X118168168Y-84285551D01*
X118053489Y-84500099D01*
X117982870Y-84732898D01*
X117965000Y-84914335D01*
X115478259Y-84914335D01*
X115585000Y-84377715D01*
X115585000Y-83622285D01*
X115437623Y-82881372D01*
X115148533Y-82183446D01*
X114728839Y-81555330D01*
X114194670Y-81021161D01*
X113654155Y-80660000D01*
X136095845Y-80660000D01*
X135555330Y-81021161D01*
M02*
