G04 #@! TF.GenerationSoftware,KiCad,Pcbnew,(5.1.4)-1*
G04 #@! TF.CreationDate,2022-02-20T14:42:12-05:00*
G04 #@! TF.ProjectId,Recovery PCB,5265636f-7665-4727-9920-5043422e6b69,rev?*
G04 #@! TF.SameCoordinates,Original*
G04 #@! TF.FileFunction,Soldermask,Bot*
G04 #@! TF.FilePolarity,Negative*
%FSLAX46Y46*%
G04 Gerber Fmt 4.6, Leading zero omitted, Abs format (unit mm)*
G04 Created by KiCad (PCBNEW (5.1.4)-1) date 2022-02-20 14:42:12*
%MOMM*%
%LPD*%
G04 APERTURE LIST*
%ADD10C,0.100000*%
G04 APERTURE END LIST*
D10*
G36*
X171634239Y-118311467D02*
G01*
X171948282Y-118373934D01*
X172539926Y-118619001D01*
X173072392Y-118974784D01*
X173525216Y-119427608D01*
X173880999Y-119960074D01*
X174126066Y-120551718D01*
X174174836Y-120796903D01*
X174251000Y-121179803D01*
X174251000Y-121820197D01*
X174221873Y-121966626D01*
X174126066Y-122448282D01*
X173880999Y-123039926D01*
X173525216Y-123572392D01*
X173072392Y-124025216D01*
X172539926Y-124380999D01*
X171948282Y-124626066D01*
X171634239Y-124688533D01*
X171320197Y-124751000D01*
X170679803Y-124751000D01*
X170365761Y-124688533D01*
X170051718Y-124626066D01*
X169460074Y-124380999D01*
X168927608Y-124025216D01*
X168474784Y-123572392D01*
X168119001Y-123039926D01*
X167873934Y-122448282D01*
X167778127Y-121966626D01*
X167749000Y-121820197D01*
X167749000Y-121179803D01*
X167825164Y-120796903D01*
X167873934Y-120551718D01*
X168119001Y-119960074D01*
X168474784Y-119427608D01*
X168927608Y-118974784D01*
X169460074Y-118619001D01*
X170051718Y-118373934D01*
X170365761Y-118311467D01*
X170679803Y-118249000D01*
X171320197Y-118249000D01*
X171634239Y-118311467D01*
X171634239Y-118311467D01*
G37*
G36*
X97234239Y-118311467D02*
G01*
X97548282Y-118373934D01*
X98139926Y-118619001D01*
X98672392Y-118974784D01*
X99125216Y-119427608D01*
X99480999Y-119960074D01*
X99726066Y-120551718D01*
X99774836Y-120796903D01*
X99851000Y-121179803D01*
X99851000Y-121820197D01*
X99821873Y-121966626D01*
X99726066Y-122448282D01*
X99480999Y-123039926D01*
X99125216Y-123572392D01*
X98672392Y-124025216D01*
X98139926Y-124380999D01*
X97548282Y-124626066D01*
X97234239Y-124688533D01*
X96920197Y-124751000D01*
X96279803Y-124751000D01*
X95965761Y-124688533D01*
X95651718Y-124626066D01*
X95060074Y-124380999D01*
X94527608Y-124025216D01*
X94074784Y-123572392D01*
X93719001Y-123039926D01*
X93473934Y-122448282D01*
X93378127Y-121966626D01*
X93349000Y-121820197D01*
X93349000Y-121179803D01*
X93425164Y-120796903D01*
X93473934Y-120551718D01*
X93719001Y-119960074D01*
X94074784Y-119427608D01*
X94527608Y-118974784D01*
X95060074Y-118619001D01*
X95651718Y-118373934D01*
X95965761Y-118311467D01*
X96279803Y-118249000D01*
X96920197Y-118249000D01*
X97234239Y-118311467D01*
X97234239Y-118311467D01*
G37*
G36*
X140446627Y-120602037D02*
G01*
X140616466Y-120653557D01*
X140772991Y-120737222D01*
X140796359Y-120756400D01*
X140910186Y-120849814D01*
X140993448Y-120951271D01*
X141022778Y-120987009D01*
X141106443Y-121143534D01*
X141157963Y-121313374D01*
X141157963Y-121313376D01*
X141171000Y-121445741D01*
X141171000Y-121834260D01*
X141170635Y-121837963D01*
X141157963Y-121966627D01*
X141106443Y-122136466D01*
X141022778Y-122292991D01*
X140993448Y-122328729D01*
X140910186Y-122430186D01*
X140772989Y-122542779D01*
X140640120Y-122613799D01*
X140616465Y-122626443D01*
X140446626Y-122677963D01*
X140270000Y-122695359D01*
X140093373Y-122677963D01*
X139923534Y-122626443D01*
X139767009Y-122542778D01*
X139717822Y-122502411D01*
X139629814Y-122430186D01*
X139517221Y-122292989D01*
X139433558Y-122136467D01*
X139433557Y-122136465D01*
X139382037Y-121966626D01*
X139370256Y-121847011D01*
X139369000Y-121834259D01*
X139369000Y-121445740D01*
X139376613Y-121368448D01*
X139382037Y-121313373D01*
X139433557Y-121143534D01*
X139517222Y-120987009D01*
X139629815Y-120849815D01*
X139767010Y-120737222D01*
X139923535Y-120653557D01*
X140093374Y-120602037D01*
X140270000Y-120584641D01*
X140446627Y-120602037D01*
X140446627Y-120602037D01*
G37*
G36*
X143528600Y-120592989D02*
G01*
X143561652Y-120603015D01*
X143592103Y-120619292D01*
X143618799Y-120641201D01*
X143640708Y-120667897D01*
X143656985Y-120698348D01*
X143667011Y-120731400D01*
X143671000Y-120771903D01*
X143671000Y-122508097D01*
X143667011Y-122548600D01*
X143656985Y-122581652D01*
X143640708Y-122612103D01*
X143618799Y-122638799D01*
X143592103Y-122660708D01*
X143561652Y-122676985D01*
X143528600Y-122687011D01*
X143488097Y-122691000D01*
X142051903Y-122691000D01*
X142011400Y-122687011D01*
X141978348Y-122676985D01*
X141947897Y-122660708D01*
X141921201Y-122638799D01*
X141899292Y-122612103D01*
X141883015Y-122581652D01*
X141872989Y-122548600D01*
X141869000Y-122508097D01*
X141869000Y-120771903D01*
X141872989Y-120731400D01*
X141883015Y-120698348D01*
X141899292Y-120667897D01*
X141921201Y-120641201D01*
X141947897Y-120619292D01*
X141978348Y-120603015D01*
X142011400Y-120592989D01*
X142051903Y-120589000D01*
X143488097Y-120589000D01*
X143528600Y-120592989D01*
X143528600Y-120592989D01*
G37*
G36*
X151446627Y-120627037D02*
G01*
X151616466Y-120678557D01*
X151772991Y-120762222D01*
X151808729Y-120791552D01*
X151910186Y-120874814D01*
X151993448Y-120976271D01*
X152022778Y-121012009D01*
X152106443Y-121168534D01*
X152157963Y-121338374D01*
X152157963Y-121338376D01*
X152169252Y-121452989D01*
X152171000Y-121470743D01*
X152171000Y-121809258D01*
X152157963Y-121941627D01*
X152106443Y-122111466D01*
X152022778Y-122267991D01*
X152002262Y-122292990D01*
X151910186Y-122405186D01*
X151772989Y-122517779D01*
X151616467Y-122601442D01*
X151616465Y-122601443D01*
X151446626Y-122652963D01*
X151270000Y-122670359D01*
X151093373Y-122652963D01*
X150923534Y-122601443D01*
X150767009Y-122517778D01*
X150718173Y-122477699D01*
X150629814Y-122405186D01*
X150517221Y-122267989D01*
X150433558Y-122111467D01*
X150433557Y-122111465D01*
X150382037Y-121941626D01*
X150371731Y-121836985D01*
X150369000Y-121809259D01*
X150369000Y-121470740D01*
X150382037Y-121338375D01*
X150382037Y-121338373D01*
X150433557Y-121168534D01*
X150443632Y-121149686D01*
X150517221Y-121012011D01*
X150517222Y-121012009D01*
X150629815Y-120874815D01*
X150767010Y-120762222D01*
X150923535Y-120678557D01*
X151093374Y-120627037D01*
X151270000Y-120609641D01*
X151446627Y-120627037D01*
X151446627Y-120627037D01*
G37*
G36*
X148946627Y-120627037D02*
G01*
X149116466Y-120678557D01*
X149272991Y-120762222D01*
X149308729Y-120791552D01*
X149410186Y-120874814D01*
X149493448Y-120976271D01*
X149522778Y-121012009D01*
X149606443Y-121168534D01*
X149657963Y-121338374D01*
X149657963Y-121338376D01*
X149669252Y-121452989D01*
X149671000Y-121470743D01*
X149671000Y-121809258D01*
X149657963Y-121941627D01*
X149606443Y-122111466D01*
X149522778Y-122267991D01*
X149502262Y-122292990D01*
X149410186Y-122405186D01*
X149272989Y-122517779D01*
X149116467Y-122601442D01*
X149116465Y-122601443D01*
X148946626Y-122652963D01*
X148770000Y-122670359D01*
X148593373Y-122652963D01*
X148423534Y-122601443D01*
X148267009Y-122517778D01*
X148218173Y-122477699D01*
X148129814Y-122405186D01*
X148017221Y-122267989D01*
X147933558Y-122111467D01*
X147933557Y-122111465D01*
X147882037Y-121941626D01*
X147871731Y-121836985D01*
X147869000Y-121809259D01*
X147869000Y-121470740D01*
X147882037Y-121338375D01*
X147882037Y-121338373D01*
X147933557Y-121168534D01*
X147943632Y-121149686D01*
X148017221Y-121012011D01*
X148017222Y-121012009D01*
X148129815Y-120874815D01*
X148267010Y-120762222D01*
X148423535Y-120678557D01*
X148593374Y-120627037D01*
X148770000Y-120609641D01*
X148946627Y-120627037D01*
X148946627Y-120627037D01*
G37*
G36*
X154528600Y-120617989D02*
G01*
X154561652Y-120628015D01*
X154592103Y-120644292D01*
X154618799Y-120666201D01*
X154640708Y-120692897D01*
X154656985Y-120723348D01*
X154667011Y-120756400D01*
X154671000Y-120796903D01*
X154671000Y-122483097D01*
X154667011Y-122523600D01*
X154656985Y-122556652D01*
X154640708Y-122587103D01*
X154618799Y-122613799D01*
X154592103Y-122635708D01*
X154561652Y-122651985D01*
X154528600Y-122662011D01*
X154488097Y-122666000D01*
X153051903Y-122666000D01*
X153011400Y-122662011D01*
X152978348Y-122651985D01*
X152947897Y-122635708D01*
X152921201Y-122613799D01*
X152899292Y-122587103D01*
X152883015Y-122556652D01*
X152872989Y-122523600D01*
X152869000Y-122483097D01*
X152869000Y-120796903D01*
X152872989Y-120756400D01*
X152883015Y-120723348D01*
X152899292Y-120692897D01*
X152921201Y-120666201D01*
X152947897Y-120644292D01*
X152978348Y-120628015D01*
X153011400Y-120617989D01*
X153051903Y-120614000D01*
X154488097Y-120614000D01*
X154528600Y-120617989D01*
X154528600Y-120617989D01*
G37*
G36*
X108776626Y-119762037D02*
G01*
X108946465Y-119813557D01*
X108946467Y-119813558D01*
X109102989Y-119897221D01*
X109240186Y-120009814D01*
X109306353Y-120090440D01*
X109352778Y-120147009D01*
X109436443Y-120303534D01*
X109487963Y-120473373D01*
X109487963Y-120473375D01*
X109501000Y-120605740D01*
X109501000Y-120994259D01*
X109495608Y-121049000D01*
X109487963Y-121126626D01*
X109436443Y-121296466D01*
X109352778Y-121452991D01*
X109338211Y-121470741D01*
X109240186Y-121590186D01*
X109145250Y-121668097D01*
X109102991Y-121702778D01*
X108946466Y-121786443D01*
X108776627Y-121837963D01*
X108600000Y-121855359D01*
X108423374Y-121837963D01*
X108253535Y-121786443D01*
X108097010Y-121702778D01*
X107959815Y-121590185D01*
X107847222Y-121452991D01*
X107763557Y-121296466D01*
X107712037Y-121126627D01*
X107705519Y-121060443D01*
X107699000Y-120994260D01*
X107699000Y-120605741D01*
X107712037Y-120473376D01*
X107712037Y-120473374D01*
X107763557Y-120303535D01*
X107847222Y-120147010D01*
X107847223Y-120147009D01*
X107959814Y-120009814D01*
X108061271Y-119926552D01*
X108097009Y-119897222D01*
X108253534Y-119813557D01*
X108423373Y-119762037D01*
X108600000Y-119744641D01*
X108776626Y-119762037D01*
X108776626Y-119762037D01*
G37*
G36*
X106858600Y-119752989D02*
G01*
X106891652Y-119763015D01*
X106922103Y-119779292D01*
X106948799Y-119801201D01*
X106970708Y-119827897D01*
X106986985Y-119858348D01*
X106997011Y-119891400D01*
X107001000Y-119931903D01*
X107001000Y-121668097D01*
X106997011Y-121708600D01*
X106986985Y-121741652D01*
X106970708Y-121772103D01*
X106948799Y-121798799D01*
X106922103Y-121820708D01*
X106891652Y-121836985D01*
X106858600Y-121847011D01*
X106818097Y-121851000D01*
X105381903Y-121851000D01*
X105341400Y-121847011D01*
X105308348Y-121836985D01*
X105277897Y-121820708D01*
X105251201Y-121798799D01*
X105229292Y-121772103D01*
X105213015Y-121741652D01*
X105202989Y-121708600D01*
X105199000Y-121668097D01*
X105199000Y-119931903D01*
X105202989Y-119891400D01*
X105213015Y-119858348D01*
X105229292Y-119827897D01*
X105251201Y-119801201D01*
X105277897Y-119779292D01*
X105308348Y-119763015D01*
X105341400Y-119752989D01*
X105381903Y-119749000D01*
X106818097Y-119749000D01*
X106858600Y-119752989D01*
X106858600Y-119752989D01*
G37*
G36*
X97352585Y-113458802D02*
G01*
X97502410Y-113488604D01*
X97784674Y-113605521D01*
X98038705Y-113775259D01*
X98254741Y-113991295D01*
X98424479Y-114245326D01*
X98541396Y-114527590D01*
X98601000Y-114827240D01*
X98601000Y-115132760D01*
X98541396Y-115432410D01*
X98424479Y-115714674D01*
X98254741Y-115968705D01*
X98038705Y-116184741D01*
X97784674Y-116354479D01*
X97502410Y-116471396D01*
X97352585Y-116501198D01*
X97202761Y-116531000D01*
X96897239Y-116531000D01*
X96747415Y-116501198D01*
X96597590Y-116471396D01*
X96315326Y-116354479D01*
X96061295Y-116184741D01*
X95845259Y-115968705D01*
X95675521Y-115714674D01*
X95558604Y-115432410D01*
X95499000Y-115132760D01*
X95499000Y-114827240D01*
X95558604Y-114527590D01*
X95675521Y-114245326D01*
X95845259Y-113991295D01*
X96061295Y-113775259D01*
X96315326Y-113605521D01*
X96597590Y-113488604D01*
X96747415Y-113458802D01*
X96897239Y-113429000D01*
X97202761Y-113429000D01*
X97352585Y-113458802D01*
X97352585Y-113458802D01*
G37*
G36*
X174541000Y-116181000D02*
G01*
X170939000Y-116181000D01*
X170939000Y-114579000D01*
X174541000Y-114579000D01*
X174541000Y-116181000D01*
X174541000Y-116181000D01*
G37*
G36*
X98601000Y-111451000D02*
G01*
X95499000Y-111451000D01*
X95499000Y-108349000D01*
X98601000Y-108349000D01*
X98601000Y-111451000D01*
X98601000Y-111451000D01*
G37*
G36*
X104234903Y-108719575D02*
G01*
X104462571Y-108813878D01*
X104667466Y-108950785D01*
X104841715Y-109125034D01*
X104978622Y-109329929D01*
X105072925Y-109557597D01*
X105121000Y-109799287D01*
X105121000Y-110045713D01*
X105072925Y-110287403D01*
X104978622Y-110515071D01*
X104841715Y-110719966D01*
X104667466Y-110894215D01*
X104462571Y-111031122D01*
X104462570Y-111031123D01*
X104462569Y-111031123D01*
X104234903Y-111125425D01*
X103993214Y-111173500D01*
X103746786Y-111173500D01*
X103505097Y-111125425D01*
X103277431Y-111031123D01*
X103277430Y-111031123D01*
X103277429Y-111031122D01*
X103072534Y-110894215D01*
X102898285Y-110719966D01*
X102761378Y-110515071D01*
X102667075Y-110287403D01*
X102619000Y-110045713D01*
X102619000Y-109799287D01*
X102667075Y-109557597D01*
X102761378Y-109329929D01*
X102898285Y-109125034D01*
X103072534Y-108950785D01*
X103277429Y-108813878D01*
X103505097Y-108719575D01*
X103746786Y-108671500D01*
X103993214Y-108671500D01*
X104234903Y-108719575D01*
X104234903Y-108719575D01*
G37*
G36*
X109314903Y-108719575D02*
G01*
X109542571Y-108813878D01*
X109747466Y-108950785D01*
X109921715Y-109125034D01*
X110058622Y-109329929D01*
X110152925Y-109557597D01*
X110201000Y-109799287D01*
X110201000Y-110045713D01*
X110152925Y-110287403D01*
X110058622Y-110515071D01*
X109921715Y-110719966D01*
X109747466Y-110894215D01*
X109542571Y-111031122D01*
X109542570Y-111031123D01*
X109542569Y-111031123D01*
X109314903Y-111125425D01*
X109073214Y-111173500D01*
X108826786Y-111173500D01*
X108585097Y-111125425D01*
X108357431Y-111031123D01*
X108357430Y-111031123D01*
X108357429Y-111031122D01*
X108152534Y-110894215D01*
X107978285Y-110719966D01*
X107841378Y-110515071D01*
X107747075Y-110287403D01*
X107699000Y-110045713D01*
X107699000Y-109799287D01*
X107747075Y-109557597D01*
X107841378Y-109329929D01*
X107978285Y-109125034D01*
X108152534Y-108950785D01*
X108357429Y-108813878D01*
X108585097Y-108719575D01*
X108826786Y-108671500D01*
X109073214Y-108671500D01*
X109314903Y-108719575D01*
X109314903Y-108719575D01*
G37*
G36*
X174541000Y-110781000D02*
G01*
X170939000Y-110781000D01*
X170939000Y-109179000D01*
X174541000Y-109179000D01*
X174541000Y-110781000D01*
X174541000Y-110781000D01*
G37*
G36*
X119358228Y-109104203D02*
G01*
X119513100Y-109168353D01*
X119652481Y-109261485D01*
X119771015Y-109380019D01*
X119864147Y-109519400D01*
X119928297Y-109674272D01*
X119961000Y-109838684D01*
X119961000Y-110006316D01*
X119928297Y-110170728D01*
X119864147Y-110325600D01*
X119771015Y-110464981D01*
X119652481Y-110583515D01*
X119513100Y-110676647D01*
X119358228Y-110740797D01*
X119193816Y-110773500D01*
X119026184Y-110773500D01*
X118861772Y-110740797D01*
X118706900Y-110676647D01*
X118567519Y-110583515D01*
X118448985Y-110464981D01*
X118355853Y-110325600D01*
X118291703Y-110170728D01*
X118259000Y-110006316D01*
X118259000Y-109838684D01*
X118291703Y-109674272D01*
X118355853Y-109519400D01*
X118448985Y-109380019D01*
X118567519Y-109261485D01*
X118706900Y-109168353D01*
X118861772Y-109104203D01*
X119026184Y-109071500D01*
X119193816Y-109071500D01*
X119358228Y-109104203D01*
X119358228Y-109104203D01*
G37*
G36*
X121898228Y-109104203D02*
G01*
X122053100Y-109168353D01*
X122192481Y-109261485D01*
X122311015Y-109380019D01*
X122404147Y-109519400D01*
X122468297Y-109674272D01*
X122501000Y-109838684D01*
X122501000Y-110006316D01*
X122468297Y-110170728D01*
X122404147Y-110325600D01*
X122311015Y-110464981D01*
X122192481Y-110583515D01*
X122053100Y-110676647D01*
X121898228Y-110740797D01*
X121733816Y-110773500D01*
X121566184Y-110773500D01*
X121401772Y-110740797D01*
X121246900Y-110676647D01*
X121107519Y-110583515D01*
X120988985Y-110464981D01*
X120895853Y-110325600D01*
X120831703Y-110170728D01*
X120799000Y-110006316D01*
X120799000Y-109838684D01*
X120831703Y-109674272D01*
X120895853Y-109519400D01*
X120988985Y-109380019D01*
X121107519Y-109261485D01*
X121246900Y-109168353D01*
X121401772Y-109104203D01*
X121566184Y-109071500D01*
X121733816Y-109071500D01*
X121898228Y-109104203D01*
X121898228Y-109104203D01*
G37*
G36*
X97352585Y-102558802D02*
G01*
X97502410Y-102588604D01*
X97784674Y-102705521D01*
X98038705Y-102875259D01*
X98254741Y-103091295D01*
X98424479Y-103345326D01*
X98541396Y-103627590D01*
X98601000Y-103927240D01*
X98601000Y-104232760D01*
X98541396Y-104532410D01*
X98424479Y-104814674D01*
X98254741Y-105068705D01*
X98038705Y-105284741D01*
X97784674Y-105454479D01*
X97502410Y-105571396D01*
X97352585Y-105601198D01*
X97202761Y-105631000D01*
X96897239Y-105631000D01*
X96747415Y-105601198D01*
X96597590Y-105571396D01*
X96315326Y-105454479D01*
X96061295Y-105284741D01*
X95845259Y-105068705D01*
X95675521Y-104814674D01*
X95558604Y-104532410D01*
X95499000Y-104232760D01*
X95499000Y-103927240D01*
X95558604Y-103627590D01*
X95675521Y-103345326D01*
X95845259Y-103091295D01*
X96061295Y-102875259D01*
X96315326Y-102705521D01*
X96597590Y-102588604D01*
X96747415Y-102558802D01*
X96897239Y-102529000D01*
X97202761Y-102529000D01*
X97352585Y-102558802D01*
X97352585Y-102558802D01*
G37*
G36*
X98601000Y-100551000D02*
G01*
X95499000Y-100551000D01*
X95499000Y-97449000D01*
X98601000Y-97449000D01*
X98601000Y-100551000D01*
X98601000Y-100551000D01*
G37*
G36*
X109314903Y-97819575D02*
G01*
X109542571Y-97913878D01*
X109747466Y-98050785D01*
X109921715Y-98225034D01*
X110058622Y-98429929D01*
X110152925Y-98657597D01*
X110201000Y-98899287D01*
X110201000Y-99145713D01*
X110152925Y-99387403D01*
X110058622Y-99615071D01*
X109921715Y-99819966D01*
X109747466Y-99994215D01*
X109542571Y-100131122D01*
X109542570Y-100131123D01*
X109542569Y-100131123D01*
X109314903Y-100225425D01*
X109073214Y-100273500D01*
X108826786Y-100273500D01*
X108585097Y-100225425D01*
X108357431Y-100131123D01*
X108357430Y-100131123D01*
X108357429Y-100131122D01*
X108152534Y-99994215D01*
X107978285Y-99819966D01*
X107841378Y-99615071D01*
X107747075Y-99387403D01*
X107699000Y-99145713D01*
X107699000Y-98899287D01*
X107747075Y-98657597D01*
X107841378Y-98429929D01*
X107978285Y-98225034D01*
X108152534Y-98050785D01*
X108357429Y-97913878D01*
X108585097Y-97819575D01*
X108826786Y-97771500D01*
X109073214Y-97771500D01*
X109314903Y-97819575D01*
X109314903Y-97819575D01*
G37*
G36*
X104234903Y-97819575D02*
G01*
X104462571Y-97913878D01*
X104667466Y-98050785D01*
X104841715Y-98225034D01*
X104978622Y-98429929D01*
X105072925Y-98657597D01*
X105121000Y-98899287D01*
X105121000Y-99145713D01*
X105072925Y-99387403D01*
X104978622Y-99615071D01*
X104841715Y-99819966D01*
X104667466Y-99994215D01*
X104462571Y-100131122D01*
X104462570Y-100131123D01*
X104462569Y-100131123D01*
X104234903Y-100225425D01*
X103993214Y-100273500D01*
X103746786Y-100273500D01*
X103505097Y-100225425D01*
X103277431Y-100131123D01*
X103277430Y-100131123D01*
X103277429Y-100131122D01*
X103072534Y-99994215D01*
X102898285Y-99819966D01*
X102761378Y-99615071D01*
X102667075Y-99387403D01*
X102619000Y-99145713D01*
X102619000Y-98899287D01*
X102667075Y-98657597D01*
X102761378Y-98429929D01*
X102898285Y-98225034D01*
X103072534Y-98050785D01*
X103277429Y-97913878D01*
X103505097Y-97819575D01*
X103746786Y-97771500D01*
X103993214Y-97771500D01*
X104234903Y-97819575D01*
X104234903Y-97819575D01*
G37*
G36*
X121898228Y-98204203D02*
G01*
X122053100Y-98268353D01*
X122192481Y-98361485D01*
X122311015Y-98480019D01*
X122404147Y-98619400D01*
X122468297Y-98774272D01*
X122501000Y-98938684D01*
X122501000Y-99106316D01*
X122468297Y-99270728D01*
X122404147Y-99425600D01*
X122311015Y-99564981D01*
X122192481Y-99683515D01*
X122053100Y-99776647D01*
X121898228Y-99840797D01*
X121733816Y-99873500D01*
X121566184Y-99873500D01*
X121401772Y-99840797D01*
X121246900Y-99776647D01*
X121107519Y-99683515D01*
X120988985Y-99564981D01*
X120895853Y-99425600D01*
X120831703Y-99270728D01*
X120799000Y-99106316D01*
X120799000Y-98938684D01*
X120831703Y-98774272D01*
X120895853Y-98619400D01*
X120988985Y-98480019D01*
X121107519Y-98361485D01*
X121246900Y-98268353D01*
X121401772Y-98204203D01*
X121566184Y-98171500D01*
X121733816Y-98171500D01*
X121898228Y-98204203D01*
X121898228Y-98204203D01*
G37*
G36*
X119358228Y-98204203D02*
G01*
X119513100Y-98268353D01*
X119652481Y-98361485D01*
X119771015Y-98480019D01*
X119864147Y-98619400D01*
X119928297Y-98774272D01*
X119961000Y-98938684D01*
X119961000Y-99106316D01*
X119928297Y-99270728D01*
X119864147Y-99425600D01*
X119771015Y-99564981D01*
X119652481Y-99683515D01*
X119513100Y-99776647D01*
X119358228Y-99840797D01*
X119193816Y-99873500D01*
X119026184Y-99873500D01*
X118861772Y-99840797D01*
X118706900Y-99776647D01*
X118567519Y-99683515D01*
X118448985Y-99564981D01*
X118355853Y-99425600D01*
X118291703Y-99270728D01*
X118259000Y-99106316D01*
X118259000Y-98938684D01*
X118291703Y-98774272D01*
X118355853Y-98619400D01*
X118448985Y-98480019D01*
X118567519Y-98361485D01*
X118706900Y-98268353D01*
X118861772Y-98204203D01*
X119026184Y-98171500D01*
X119193816Y-98171500D01*
X119358228Y-98204203D01*
X119358228Y-98204203D01*
G37*
G36*
X164951000Y-98151000D02*
G01*
X162849000Y-98151000D01*
X162849000Y-96049000D01*
X164951000Y-96049000D01*
X164951000Y-98151000D01*
X164951000Y-98151000D01*
G37*
G36*
X133410442Y-92205518D02*
G01*
X133476627Y-92212037D01*
X133646466Y-92263557D01*
X133802991Y-92347222D01*
X133838729Y-92376552D01*
X133940186Y-92459814D01*
X134023448Y-92561271D01*
X134052778Y-92597009D01*
X134136443Y-92753534D01*
X134187963Y-92923373D01*
X134205359Y-93100000D01*
X134187963Y-93276627D01*
X134136443Y-93446466D01*
X134052778Y-93602991D01*
X134040913Y-93617448D01*
X133940186Y-93740186D01*
X133838729Y-93823448D01*
X133802991Y-93852778D01*
X133646466Y-93936443D01*
X133476627Y-93987963D01*
X133410443Y-93994481D01*
X133344260Y-94001000D01*
X133255740Y-94001000D01*
X133189557Y-93994481D01*
X133123373Y-93987963D01*
X132953534Y-93936443D01*
X132797009Y-93852778D01*
X132761271Y-93823448D01*
X132659814Y-93740186D01*
X132559087Y-93617448D01*
X132547222Y-93602991D01*
X132463557Y-93446466D01*
X132412037Y-93276627D01*
X132394641Y-93100000D01*
X132412037Y-92923373D01*
X132463557Y-92753534D01*
X132547222Y-92597009D01*
X132576552Y-92561271D01*
X132659814Y-92459814D01*
X132761271Y-92376552D01*
X132797009Y-92347222D01*
X132953534Y-92263557D01*
X133123373Y-92212037D01*
X133189558Y-92205518D01*
X133255740Y-92199000D01*
X133344260Y-92199000D01*
X133410442Y-92205518D01*
X133410442Y-92205518D01*
G37*
G36*
X135950442Y-92205518D02*
G01*
X136016627Y-92212037D01*
X136186466Y-92263557D01*
X136342991Y-92347222D01*
X136378729Y-92376552D01*
X136480186Y-92459814D01*
X136563448Y-92561271D01*
X136592778Y-92597009D01*
X136676443Y-92753534D01*
X136727963Y-92923373D01*
X136745359Y-93100000D01*
X136727963Y-93276627D01*
X136676443Y-93446466D01*
X136592778Y-93602991D01*
X136580913Y-93617448D01*
X136480186Y-93740186D01*
X136378729Y-93823448D01*
X136342991Y-93852778D01*
X136186466Y-93936443D01*
X136016627Y-93987963D01*
X135950443Y-93994481D01*
X135884260Y-94001000D01*
X135795740Y-94001000D01*
X135729557Y-93994481D01*
X135663373Y-93987963D01*
X135493534Y-93936443D01*
X135337009Y-93852778D01*
X135301271Y-93823448D01*
X135199814Y-93740186D01*
X135099087Y-93617448D01*
X135087222Y-93602991D01*
X135003557Y-93446466D01*
X134952037Y-93276627D01*
X134934641Y-93100000D01*
X134952037Y-92923373D01*
X135003557Y-92753534D01*
X135087222Y-92597009D01*
X135116552Y-92561271D01*
X135199814Y-92459814D01*
X135301271Y-92376552D01*
X135337009Y-92347222D01*
X135493534Y-92263557D01*
X135663373Y-92212037D01*
X135729558Y-92205518D01*
X135795740Y-92199000D01*
X135884260Y-92199000D01*
X135950442Y-92205518D01*
X135950442Y-92205518D01*
G37*
G36*
X130870442Y-92205518D02*
G01*
X130936627Y-92212037D01*
X131106466Y-92263557D01*
X131262991Y-92347222D01*
X131298729Y-92376552D01*
X131400186Y-92459814D01*
X131483448Y-92561271D01*
X131512778Y-92597009D01*
X131596443Y-92753534D01*
X131647963Y-92923373D01*
X131665359Y-93100000D01*
X131647963Y-93276627D01*
X131596443Y-93446466D01*
X131512778Y-93602991D01*
X131500913Y-93617448D01*
X131400186Y-93740186D01*
X131298729Y-93823448D01*
X131262991Y-93852778D01*
X131106466Y-93936443D01*
X130936627Y-93987963D01*
X130870443Y-93994481D01*
X130804260Y-94001000D01*
X130715740Y-94001000D01*
X130649557Y-93994481D01*
X130583373Y-93987963D01*
X130413534Y-93936443D01*
X130257009Y-93852778D01*
X130221271Y-93823448D01*
X130119814Y-93740186D01*
X130019087Y-93617448D01*
X130007222Y-93602991D01*
X129923557Y-93446466D01*
X129872037Y-93276627D01*
X129854641Y-93100000D01*
X129872037Y-92923373D01*
X129923557Y-92753534D01*
X130007222Y-92597009D01*
X130036552Y-92561271D01*
X130119814Y-92459814D01*
X130221271Y-92376552D01*
X130257009Y-92347222D01*
X130413534Y-92263557D01*
X130583373Y-92212037D01*
X130649558Y-92205518D01*
X130715740Y-92199000D01*
X130804260Y-92199000D01*
X130870442Y-92205518D01*
X130870442Y-92205518D01*
G37*
G36*
X129121000Y-94001000D02*
G01*
X127319000Y-94001000D01*
X127319000Y-92199000D01*
X129121000Y-92199000D01*
X129121000Y-94001000D01*
X129121000Y-94001000D01*
G37*
G36*
X120329591Y-92753085D02*
G01*
X120363569Y-92763393D01*
X120394890Y-92780134D01*
X120422339Y-92802661D01*
X120444866Y-92830110D01*
X120461607Y-92861431D01*
X120471915Y-92895409D01*
X120476000Y-92936890D01*
X120476000Y-93538110D01*
X120471915Y-93579591D01*
X120461607Y-93613569D01*
X120444866Y-93644890D01*
X120422339Y-93672339D01*
X120394890Y-93694866D01*
X120363569Y-93711607D01*
X120329591Y-93721915D01*
X120288110Y-93726000D01*
X119611890Y-93726000D01*
X119570409Y-93721915D01*
X119536431Y-93711607D01*
X119505110Y-93694866D01*
X119477661Y-93672339D01*
X119455134Y-93644890D01*
X119438393Y-93613569D01*
X119428085Y-93579591D01*
X119424000Y-93538110D01*
X119424000Y-92936890D01*
X119428085Y-92895409D01*
X119438393Y-92861431D01*
X119455134Y-92830110D01*
X119477661Y-92802661D01*
X119505110Y-92780134D01*
X119536431Y-92763393D01*
X119570409Y-92753085D01*
X119611890Y-92749000D01*
X120288110Y-92749000D01*
X120329591Y-92753085D01*
X120329591Y-92753085D01*
G37*
G36*
X164206564Y-91089389D02*
G01*
X164397833Y-91168615D01*
X164397835Y-91168616D01*
X164452488Y-91205134D01*
X164569973Y-91283635D01*
X164716365Y-91430027D01*
X164831385Y-91602167D01*
X164910611Y-91793436D01*
X164951000Y-91996484D01*
X164951000Y-92203516D01*
X164910611Y-92406564D01*
X164831726Y-92597009D01*
X164831384Y-92597835D01*
X164716365Y-92769973D01*
X164569973Y-92916365D01*
X164397835Y-93031384D01*
X164397834Y-93031385D01*
X164397833Y-93031385D01*
X164206564Y-93110611D01*
X164003516Y-93151000D01*
X163796484Y-93151000D01*
X163593436Y-93110611D01*
X163402167Y-93031385D01*
X163402166Y-93031385D01*
X163402165Y-93031384D01*
X163230027Y-92916365D01*
X163083635Y-92769973D01*
X162968616Y-92597835D01*
X162968274Y-92597009D01*
X162889389Y-92406564D01*
X162849000Y-92203516D01*
X162849000Y-91996484D01*
X162889389Y-91793436D01*
X162968615Y-91602167D01*
X163083635Y-91430027D01*
X163230027Y-91283635D01*
X163347512Y-91205134D01*
X163402165Y-91168616D01*
X163402167Y-91168615D01*
X163593436Y-91089389D01*
X163796484Y-91049000D01*
X164003516Y-91049000D01*
X164206564Y-91089389D01*
X164206564Y-91089389D01*
G37*
G36*
X120329591Y-91178085D02*
G01*
X120363569Y-91188393D01*
X120394890Y-91205134D01*
X120422339Y-91227661D01*
X120444866Y-91255110D01*
X120461607Y-91286431D01*
X120471915Y-91320409D01*
X120476000Y-91361890D01*
X120476000Y-91963110D01*
X120471915Y-92004591D01*
X120461607Y-92038569D01*
X120444866Y-92069890D01*
X120422339Y-92097339D01*
X120394890Y-92119866D01*
X120363569Y-92136607D01*
X120329591Y-92146915D01*
X120288110Y-92151000D01*
X119611890Y-92151000D01*
X119570409Y-92146915D01*
X119536431Y-92136607D01*
X119505110Y-92119866D01*
X119477661Y-92097339D01*
X119455134Y-92069890D01*
X119438393Y-92038569D01*
X119428085Y-92004591D01*
X119424000Y-91963110D01*
X119424000Y-91361890D01*
X119428085Y-91320409D01*
X119438393Y-91286431D01*
X119455134Y-91255110D01*
X119477661Y-91227661D01*
X119505110Y-91205134D01*
X119536431Y-91188393D01*
X119570409Y-91178085D01*
X119611890Y-91174000D01*
X120288110Y-91174000D01*
X120329591Y-91178085D01*
X120329591Y-91178085D01*
G37*
G36*
X97183428Y-86794213D02*
G01*
X97279153Y-86833864D01*
X97365305Y-86891429D01*
X97438571Y-86964695D01*
X97496136Y-87050847D01*
X97535787Y-87146572D01*
X97556000Y-87248192D01*
X97556000Y-87351808D01*
X97535787Y-87453428D01*
X97496136Y-87549153D01*
X97438571Y-87635305D01*
X97365305Y-87708571D01*
X97279153Y-87766136D01*
X97183428Y-87805787D01*
X97081808Y-87826000D01*
X96978192Y-87826000D01*
X96876572Y-87805787D01*
X96780847Y-87766136D01*
X96694695Y-87708571D01*
X96621429Y-87635305D01*
X96563864Y-87549153D01*
X96524213Y-87453428D01*
X96504000Y-87351808D01*
X96504000Y-87248192D01*
X96524213Y-87146572D01*
X96563864Y-87050847D01*
X96621429Y-86964695D01*
X96694695Y-86891429D01*
X96780847Y-86833864D01*
X96876572Y-86794213D01*
X96978192Y-86774000D01*
X97081808Y-86774000D01*
X97183428Y-86794213D01*
X97183428Y-86794213D01*
G37*
G36*
X126681491Y-86219085D02*
G01*
X126715469Y-86229393D01*
X126746790Y-86246134D01*
X126774239Y-86268661D01*
X126796766Y-86296110D01*
X126813507Y-86327431D01*
X126823815Y-86361409D01*
X126827900Y-86402890D01*
X126827900Y-87079110D01*
X126823815Y-87120591D01*
X126813507Y-87154569D01*
X126796766Y-87185890D01*
X126774239Y-87213339D01*
X126746790Y-87235866D01*
X126715469Y-87252607D01*
X126681491Y-87262915D01*
X126640010Y-87267000D01*
X126038790Y-87267000D01*
X125997309Y-87262915D01*
X125963331Y-87252607D01*
X125932010Y-87235866D01*
X125904561Y-87213339D01*
X125882034Y-87185890D01*
X125865293Y-87154569D01*
X125854985Y-87120591D01*
X125850900Y-87079110D01*
X125850900Y-86402890D01*
X125854985Y-86361409D01*
X125865293Y-86327431D01*
X125882034Y-86296110D01*
X125904561Y-86268661D01*
X125932010Y-86246134D01*
X125963331Y-86229393D01*
X125997309Y-86219085D01*
X126038790Y-86215000D01*
X126640010Y-86215000D01*
X126681491Y-86219085D01*
X126681491Y-86219085D01*
G37*
G36*
X128256491Y-86219085D02*
G01*
X128290469Y-86229393D01*
X128321790Y-86246134D01*
X128349239Y-86268661D01*
X128371766Y-86296110D01*
X128388507Y-86327431D01*
X128398815Y-86361409D01*
X128402900Y-86402890D01*
X128402900Y-87079110D01*
X128398815Y-87120591D01*
X128388507Y-87154569D01*
X128371766Y-87185890D01*
X128349239Y-87213339D01*
X128321790Y-87235866D01*
X128290469Y-87252607D01*
X128256491Y-87262915D01*
X128215010Y-87267000D01*
X127613790Y-87267000D01*
X127572309Y-87262915D01*
X127538331Y-87252607D01*
X127507010Y-87235866D01*
X127479561Y-87213339D01*
X127457034Y-87185890D01*
X127440293Y-87154569D01*
X127429985Y-87120591D01*
X127425900Y-87079110D01*
X127425900Y-86402890D01*
X127429985Y-86361409D01*
X127440293Y-86327431D01*
X127457034Y-86296110D01*
X127479561Y-86268661D01*
X127507010Y-86246134D01*
X127538331Y-86229393D01*
X127572309Y-86219085D01*
X127613790Y-86215000D01*
X128215010Y-86215000D01*
X128256491Y-86219085D01*
X128256491Y-86219085D01*
G37*
G36*
X174321000Y-86251000D02*
G01*
X170719000Y-86251000D01*
X170719000Y-84649000D01*
X174321000Y-84649000D01*
X174321000Y-86251000D01*
X174321000Y-86251000D01*
G37*
G36*
X124560191Y-82979985D02*
G01*
X124594169Y-82990293D01*
X124625490Y-83007034D01*
X124652939Y-83029561D01*
X124675466Y-83057010D01*
X124692207Y-83088331D01*
X124702515Y-83122309D01*
X124706600Y-83163790D01*
X124706600Y-83765010D01*
X124702515Y-83806491D01*
X124692207Y-83840469D01*
X124675466Y-83871790D01*
X124652939Y-83899239D01*
X124625490Y-83921766D01*
X124594169Y-83938507D01*
X124560191Y-83948815D01*
X124518710Y-83952900D01*
X123842490Y-83952900D01*
X123801009Y-83948815D01*
X123767031Y-83938507D01*
X123735710Y-83921766D01*
X123708261Y-83899239D01*
X123685734Y-83871790D01*
X123668993Y-83840469D01*
X123658685Y-83806491D01*
X123654600Y-83765010D01*
X123654600Y-83163790D01*
X123658685Y-83122309D01*
X123668993Y-83088331D01*
X123685734Y-83057010D01*
X123708261Y-83029561D01*
X123735710Y-83007034D01*
X123767031Y-82990293D01*
X123801009Y-82979985D01*
X123842490Y-82975900D01*
X124518710Y-82975900D01*
X124560191Y-82979985D01*
X124560191Y-82979985D01*
G37*
G36*
X124560191Y-81404985D02*
G01*
X124594169Y-81415293D01*
X124625490Y-81432034D01*
X124652939Y-81454561D01*
X124675466Y-81482010D01*
X124692207Y-81513331D01*
X124702515Y-81547309D01*
X124706600Y-81588790D01*
X124706600Y-82190010D01*
X124702515Y-82231491D01*
X124692207Y-82265469D01*
X124675466Y-82296790D01*
X124652939Y-82324239D01*
X124625490Y-82346766D01*
X124594169Y-82363507D01*
X124560191Y-82373815D01*
X124518710Y-82377900D01*
X123842490Y-82377900D01*
X123801009Y-82373815D01*
X123767031Y-82363507D01*
X123735710Y-82346766D01*
X123708261Y-82324239D01*
X123685734Y-82296790D01*
X123668993Y-82265469D01*
X123658685Y-82231491D01*
X123654600Y-82190010D01*
X123654600Y-81588790D01*
X123658685Y-81547309D01*
X123668993Y-81513331D01*
X123685734Y-81482010D01*
X123708261Y-81454561D01*
X123735710Y-81432034D01*
X123767031Y-81415293D01*
X123801009Y-81404985D01*
X123842490Y-81400900D01*
X124518710Y-81400900D01*
X124560191Y-81404985D01*
X124560191Y-81404985D01*
G37*
G36*
X131463960Y-80682205D02*
G01*
X131499113Y-80692869D01*
X131531510Y-80710186D01*
X131559909Y-80733491D01*
X131583214Y-80761890D01*
X131600531Y-80794287D01*
X131611195Y-80829440D01*
X131615400Y-80872140D01*
X131615400Y-81485860D01*
X131611195Y-81528560D01*
X131600531Y-81563713D01*
X131583214Y-81596110D01*
X131559909Y-81624509D01*
X131531510Y-81647814D01*
X131499113Y-81665131D01*
X131463960Y-81675795D01*
X131421260Y-81680000D01*
X130757540Y-81680000D01*
X130714840Y-81675795D01*
X130679687Y-81665131D01*
X130647290Y-81647814D01*
X130618891Y-81624509D01*
X130595586Y-81596110D01*
X130578269Y-81563713D01*
X130567605Y-81528560D01*
X130563400Y-81485860D01*
X130563400Y-80872140D01*
X130567605Y-80829440D01*
X130578269Y-80794287D01*
X130595586Y-80761890D01*
X130618891Y-80733491D01*
X130647290Y-80710186D01*
X130679687Y-80692869D01*
X130714840Y-80682205D01*
X130757540Y-80678000D01*
X131421260Y-80678000D01*
X131463960Y-80682205D01*
X131463960Y-80682205D01*
G37*
G36*
X97183428Y-79994213D02*
G01*
X97279153Y-80033864D01*
X97365305Y-80091429D01*
X97438571Y-80164695D01*
X97496136Y-80250847D01*
X97535787Y-80346572D01*
X97556000Y-80448192D01*
X97556000Y-80551808D01*
X97535787Y-80653428D01*
X97496136Y-80749153D01*
X97438571Y-80835305D01*
X97365305Y-80908571D01*
X97279153Y-80966136D01*
X97183428Y-81005787D01*
X97081808Y-81026000D01*
X96978192Y-81026000D01*
X96876572Y-81005787D01*
X96780847Y-80966136D01*
X96694695Y-80908571D01*
X96621429Y-80835305D01*
X96563864Y-80749153D01*
X96524213Y-80653428D01*
X96504000Y-80551808D01*
X96504000Y-80448192D01*
X96524213Y-80346572D01*
X96563864Y-80250847D01*
X96621429Y-80164695D01*
X96694695Y-80091429D01*
X96780847Y-80033864D01*
X96876572Y-79994213D01*
X96978192Y-79974000D01*
X97081808Y-79974000D01*
X97183428Y-79994213D01*
X97183428Y-79994213D01*
G37*
G36*
X174321000Y-80851000D02*
G01*
X170719000Y-80851000D01*
X170719000Y-79249000D01*
X174321000Y-79249000D01*
X174321000Y-80851000D01*
X174321000Y-80851000D01*
G37*
G36*
X126148091Y-79234085D02*
G01*
X126182069Y-79244393D01*
X126213390Y-79261134D01*
X126240839Y-79283661D01*
X126263366Y-79311110D01*
X126280107Y-79342431D01*
X126290415Y-79376409D01*
X126294500Y-79417890D01*
X126294500Y-80094110D01*
X126290415Y-80135591D01*
X126280107Y-80169569D01*
X126263366Y-80200890D01*
X126240839Y-80228339D01*
X126213390Y-80250866D01*
X126182069Y-80267607D01*
X126148091Y-80277915D01*
X126106610Y-80282000D01*
X125505390Y-80282000D01*
X125463909Y-80277915D01*
X125429931Y-80267607D01*
X125398610Y-80250866D01*
X125371161Y-80228339D01*
X125348634Y-80200890D01*
X125331893Y-80169569D01*
X125321585Y-80135591D01*
X125317500Y-80094110D01*
X125317500Y-79417890D01*
X125321585Y-79376409D01*
X125331893Y-79342431D01*
X125348634Y-79311110D01*
X125371161Y-79283661D01*
X125398610Y-79261134D01*
X125429931Y-79244393D01*
X125463909Y-79234085D01*
X125505390Y-79230000D01*
X126106610Y-79230000D01*
X126148091Y-79234085D01*
X126148091Y-79234085D01*
G37*
G36*
X127723091Y-79234085D02*
G01*
X127757069Y-79244393D01*
X127788390Y-79261134D01*
X127815839Y-79283661D01*
X127838366Y-79311110D01*
X127855107Y-79342431D01*
X127865415Y-79376409D01*
X127869500Y-79417890D01*
X127869500Y-80094110D01*
X127865415Y-80135591D01*
X127855107Y-80169569D01*
X127838366Y-80200890D01*
X127815839Y-80228339D01*
X127788390Y-80250866D01*
X127757069Y-80267607D01*
X127723091Y-80277915D01*
X127681610Y-80282000D01*
X127080390Y-80282000D01*
X127038909Y-80277915D01*
X127004931Y-80267607D01*
X126973610Y-80250866D01*
X126946161Y-80228339D01*
X126923634Y-80200890D01*
X126906893Y-80169569D01*
X126896585Y-80135591D01*
X126892500Y-80094110D01*
X126892500Y-79417890D01*
X126896585Y-79376409D01*
X126906893Y-79342431D01*
X126923634Y-79311110D01*
X126946161Y-79283661D01*
X126973610Y-79261134D01*
X127004931Y-79244393D01*
X127038909Y-79234085D01*
X127080390Y-79230000D01*
X127681610Y-79230000D01*
X127723091Y-79234085D01*
X127723091Y-79234085D01*
G37*
G36*
X131463960Y-79132205D02*
G01*
X131499113Y-79142869D01*
X131531510Y-79160186D01*
X131559909Y-79183491D01*
X131583214Y-79211890D01*
X131600531Y-79244287D01*
X131611195Y-79279440D01*
X131615400Y-79322140D01*
X131615400Y-79935860D01*
X131611195Y-79978560D01*
X131600531Y-80013713D01*
X131583214Y-80046110D01*
X131559909Y-80074509D01*
X131531510Y-80097814D01*
X131499113Y-80115131D01*
X131463960Y-80125795D01*
X131421260Y-80130000D01*
X130757540Y-80130000D01*
X130714840Y-80125795D01*
X130679687Y-80115131D01*
X130647290Y-80097814D01*
X130618891Y-80074509D01*
X130595586Y-80046110D01*
X130578269Y-80013713D01*
X130567605Y-79978560D01*
X130563400Y-79935860D01*
X130563400Y-79322140D01*
X130567605Y-79279440D01*
X130578269Y-79244287D01*
X130595586Y-79211890D01*
X130618891Y-79183491D01*
X130647290Y-79160186D01*
X130679687Y-79142869D01*
X130714840Y-79132205D01*
X130757540Y-79128000D01*
X131421260Y-79128000D01*
X131463960Y-79132205D01*
X131463960Y-79132205D01*
G37*
G36*
X127647091Y-76465485D02*
G01*
X127681069Y-76475793D01*
X127712390Y-76492534D01*
X127739839Y-76515061D01*
X127762366Y-76542510D01*
X127779107Y-76573831D01*
X127789415Y-76607809D01*
X127793500Y-76649290D01*
X127793500Y-77325510D01*
X127789415Y-77366991D01*
X127779107Y-77400969D01*
X127762366Y-77432290D01*
X127739839Y-77459739D01*
X127712390Y-77482266D01*
X127681069Y-77499007D01*
X127647091Y-77509315D01*
X127605610Y-77513400D01*
X127004390Y-77513400D01*
X126962909Y-77509315D01*
X126928931Y-77499007D01*
X126897610Y-77482266D01*
X126870161Y-77459739D01*
X126847634Y-77432290D01*
X126830893Y-77400969D01*
X126820585Y-77366991D01*
X126816500Y-77325510D01*
X126816500Y-76649290D01*
X126820585Y-76607809D01*
X126830893Y-76573831D01*
X126847634Y-76542510D01*
X126870161Y-76515061D01*
X126897610Y-76492534D01*
X126928931Y-76475793D01*
X126962909Y-76465485D01*
X127004390Y-76461400D01*
X127605610Y-76461400D01*
X127647091Y-76465485D01*
X127647091Y-76465485D01*
G37*
G36*
X126072091Y-76465485D02*
G01*
X126106069Y-76475793D01*
X126137390Y-76492534D01*
X126164839Y-76515061D01*
X126187366Y-76542510D01*
X126204107Y-76573831D01*
X126214415Y-76607809D01*
X126218500Y-76649290D01*
X126218500Y-77325510D01*
X126214415Y-77366991D01*
X126204107Y-77400969D01*
X126187366Y-77432290D01*
X126164839Y-77459739D01*
X126137390Y-77482266D01*
X126106069Y-77499007D01*
X126072091Y-77509315D01*
X126030610Y-77513400D01*
X125429390Y-77513400D01*
X125387909Y-77509315D01*
X125353931Y-77499007D01*
X125322610Y-77482266D01*
X125295161Y-77459739D01*
X125272634Y-77432290D01*
X125255893Y-77400969D01*
X125245585Y-77366991D01*
X125241500Y-77325510D01*
X125241500Y-76649290D01*
X125245585Y-76607809D01*
X125255893Y-76573831D01*
X125272634Y-76542510D01*
X125295161Y-76515061D01*
X125322610Y-76492534D01*
X125353931Y-76475793D01*
X125387909Y-76465485D01*
X125429390Y-76461400D01*
X126030610Y-76461400D01*
X126072091Y-76465485D01*
X126072091Y-76465485D01*
G37*
G36*
X118698015Y-72536973D02*
G01*
X118801879Y-72568479D01*
X118829055Y-72583005D01*
X118897600Y-72619643D01*
X118981501Y-72688499D01*
X119050357Y-72772400D01*
X119061662Y-72793551D01*
X119101521Y-72868121D01*
X119105388Y-72880869D01*
X119114760Y-72903496D01*
X119128374Y-72923870D01*
X119145701Y-72941197D01*
X119166075Y-72954811D01*
X119188714Y-72964188D01*
X119212747Y-72968969D01*
X119237251Y-72968969D01*
X119261285Y-72964189D01*
X119283924Y-72954812D01*
X119304298Y-72941198D01*
X119321625Y-72923871D01*
X119335239Y-72903497D01*
X119344612Y-72880869D01*
X119348479Y-72868121D01*
X119388338Y-72793551D01*
X119399643Y-72772400D01*
X119468499Y-72688499D01*
X119552400Y-72619643D01*
X119620945Y-72583005D01*
X119648121Y-72568479D01*
X119751985Y-72536973D01*
X119832933Y-72529000D01*
X119887067Y-72529000D01*
X119968015Y-72536973D01*
X120071879Y-72568479D01*
X120099055Y-72583005D01*
X120167600Y-72619643D01*
X120251501Y-72688499D01*
X120320357Y-72772400D01*
X120331662Y-72793551D01*
X120371521Y-72868121D01*
X120375388Y-72880869D01*
X120384760Y-72903496D01*
X120398374Y-72923870D01*
X120415701Y-72941197D01*
X120436075Y-72954811D01*
X120458714Y-72964188D01*
X120482747Y-72968969D01*
X120507251Y-72968969D01*
X120531285Y-72964189D01*
X120553924Y-72954812D01*
X120574298Y-72941198D01*
X120591625Y-72923871D01*
X120605239Y-72903497D01*
X120614612Y-72880869D01*
X120618479Y-72868121D01*
X120658338Y-72793551D01*
X120669643Y-72772400D01*
X120738499Y-72688499D01*
X120822400Y-72619643D01*
X120890945Y-72583005D01*
X120918121Y-72568479D01*
X121021985Y-72536973D01*
X121102933Y-72529000D01*
X121157067Y-72529000D01*
X121238015Y-72536973D01*
X121341879Y-72568479D01*
X121369055Y-72583005D01*
X121437600Y-72619643D01*
X121521501Y-72688499D01*
X121590357Y-72772400D01*
X121601662Y-72793551D01*
X121641521Y-72868121D01*
X121645388Y-72880869D01*
X121654760Y-72903496D01*
X121668374Y-72923870D01*
X121685701Y-72941197D01*
X121706075Y-72954811D01*
X121728714Y-72964188D01*
X121752747Y-72968969D01*
X121777251Y-72968969D01*
X121801285Y-72964189D01*
X121823924Y-72954812D01*
X121844298Y-72941198D01*
X121861625Y-72923871D01*
X121875239Y-72903497D01*
X121884612Y-72880869D01*
X121888479Y-72868121D01*
X121928338Y-72793551D01*
X121939643Y-72772400D01*
X122008499Y-72688499D01*
X122092400Y-72619643D01*
X122160945Y-72583005D01*
X122188121Y-72568479D01*
X122291985Y-72536973D01*
X122372933Y-72529000D01*
X122427067Y-72529000D01*
X122508015Y-72536973D01*
X122611879Y-72568479D01*
X122639055Y-72583005D01*
X122707600Y-72619643D01*
X122742221Y-72648056D01*
X122791501Y-72688499D01*
X122860356Y-72772400D01*
X122883764Y-72816193D01*
X122897375Y-72836563D01*
X122914702Y-72853890D01*
X122935076Y-72867504D01*
X122957715Y-72876881D01*
X122981748Y-72881662D01*
X123006252Y-72881662D01*
X123030286Y-72876882D01*
X123052924Y-72867505D01*
X123073299Y-72853891D01*
X123090626Y-72836564D01*
X123104240Y-72816190D01*
X123113617Y-72793551D01*
X123118398Y-72769518D01*
X123119000Y-72757265D01*
X123119000Y-72529000D01*
X124221000Y-72529000D01*
X124221000Y-73631000D01*
X123992735Y-73631000D01*
X123968349Y-73633402D01*
X123944900Y-73640515D01*
X123923289Y-73652066D01*
X123904347Y-73667611D01*
X123888802Y-73686553D01*
X123877251Y-73708164D01*
X123870138Y-73731613D01*
X123867736Y-73755999D01*
X123870138Y-73780385D01*
X123877251Y-73803834D01*
X123888802Y-73825445D01*
X123904347Y-73844387D01*
X123923289Y-73859932D01*
X123933802Y-73866233D01*
X123977600Y-73889644D01*
X123977602Y-73889645D01*
X123977601Y-73889645D01*
X124061501Y-73958499D01*
X124130357Y-74042400D01*
X124166995Y-74110945D01*
X124181521Y-74138121D01*
X124213027Y-74241985D01*
X124223666Y-74350000D01*
X124213027Y-74458015D01*
X124181521Y-74561879D01*
X124181519Y-74561882D01*
X124130357Y-74657600D01*
X124061501Y-74741501D01*
X123977600Y-74810357D01*
X123909055Y-74846995D01*
X123881879Y-74861521D01*
X123778015Y-74893027D01*
X123697067Y-74901000D01*
X123642933Y-74901000D01*
X123561985Y-74893027D01*
X123458121Y-74861521D01*
X123430945Y-74846995D01*
X123362400Y-74810357D01*
X123278499Y-74741501D01*
X123209643Y-74657600D01*
X123158481Y-74561882D01*
X123158479Y-74561879D01*
X123154612Y-74549131D01*
X123145240Y-74526504D01*
X123131626Y-74506130D01*
X123114299Y-74488803D01*
X123093925Y-74475189D01*
X123071286Y-74465812D01*
X123047253Y-74461031D01*
X123022749Y-74461031D01*
X122998715Y-74465811D01*
X122976076Y-74475188D01*
X122955702Y-74488802D01*
X122938375Y-74506129D01*
X122924761Y-74526503D01*
X122915388Y-74549131D01*
X122911521Y-74561879D01*
X122911519Y-74561882D01*
X122860357Y-74657600D01*
X122791501Y-74741501D01*
X122707600Y-74810357D01*
X122639055Y-74846995D01*
X122611879Y-74861521D01*
X122508015Y-74893027D01*
X122427067Y-74901000D01*
X122372933Y-74901000D01*
X122291985Y-74893027D01*
X122188121Y-74861521D01*
X122160945Y-74846995D01*
X122092400Y-74810357D01*
X122008499Y-74741501D01*
X121939643Y-74657600D01*
X121888481Y-74561882D01*
X121888479Y-74561879D01*
X121884612Y-74549131D01*
X121875240Y-74526504D01*
X121861626Y-74506130D01*
X121844299Y-74488803D01*
X121823925Y-74475189D01*
X121801286Y-74465812D01*
X121777253Y-74461031D01*
X121752749Y-74461031D01*
X121728715Y-74465811D01*
X121706076Y-74475188D01*
X121685702Y-74488802D01*
X121668375Y-74506129D01*
X121654761Y-74526503D01*
X121645388Y-74549131D01*
X121641521Y-74561879D01*
X121641519Y-74561882D01*
X121590357Y-74657600D01*
X121521501Y-74741501D01*
X121437600Y-74810357D01*
X121369055Y-74846995D01*
X121341879Y-74861521D01*
X121238015Y-74893027D01*
X121157067Y-74901000D01*
X121102933Y-74901000D01*
X121021985Y-74893027D01*
X120918121Y-74861521D01*
X120890945Y-74846995D01*
X120822400Y-74810357D01*
X120738499Y-74741501D01*
X120669643Y-74657600D01*
X120618481Y-74561882D01*
X120618479Y-74561879D01*
X120614612Y-74549131D01*
X120605240Y-74526504D01*
X120591626Y-74506130D01*
X120574299Y-74488803D01*
X120553925Y-74475189D01*
X120531286Y-74465812D01*
X120507253Y-74461031D01*
X120482749Y-74461031D01*
X120458715Y-74465811D01*
X120436076Y-74475188D01*
X120415702Y-74488802D01*
X120398375Y-74506129D01*
X120384761Y-74526503D01*
X120375388Y-74549131D01*
X120371521Y-74561879D01*
X120371519Y-74561882D01*
X120320357Y-74657600D01*
X120251501Y-74741501D01*
X120167600Y-74810357D01*
X120099055Y-74846995D01*
X120071879Y-74861521D01*
X119968015Y-74893027D01*
X119887067Y-74901000D01*
X119832933Y-74901000D01*
X119751985Y-74893027D01*
X119648121Y-74861521D01*
X119620945Y-74846995D01*
X119552400Y-74810357D01*
X119468499Y-74741501D01*
X119399643Y-74657600D01*
X119348481Y-74561882D01*
X119348479Y-74561879D01*
X119344612Y-74549131D01*
X119335240Y-74526504D01*
X119321626Y-74506130D01*
X119304299Y-74488803D01*
X119283925Y-74475189D01*
X119261286Y-74465812D01*
X119237253Y-74461031D01*
X119212749Y-74461031D01*
X119188715Y-74465811D01*
X119166076Y-74475188D01*
X119145702Y-74488802D01*
X119128375Y-74506129D01*
X119114761Y-74526503D01*
X119105388Y-74549131D01*
X119101521Y-74561879D01*
X119101519Y-74561882D01*
X119050357Y-74657600D01*
X118981501Y-74741501D01*
X118897600Y-74810357D01*
X118829055Y-74846995D01*
X118801879Y-74861521D01*
X118698015Y-74893027D01*
X118617067Y-74901000D01*
X118562933Y-74901000D01*
X118481985Y-74893027D01*
X118378121Y-74861521D01*
X118350945Y-74846995D01*
X118282400Y-74810357D01*
X118198499Y-74741501D01*
X118129643Y-74657600D01*
X118078481Y-74561882D01*
X118078479Y-74561879D01*
X118046973Y-74458015D01*
X118036334Y-74350000D01*
X118046973Y-74241985D01*
X118078479Y-74138121D01*
X118093005Y-74110945D01*
X118129643Y-74042400D01*
X118198499Y-73958499D01*
X118282400Y-73889643D01*
X118351656Y-73852625D01*
X118378121Y-73838479D01*
X118390869Y-73834612D01*
X118413496Y-73825240D01*
X118433870Y-73811626D01*
X118451197Y-73794299D01*
X118464811Y-73773925D01*
X118474188Y-73751286D01*
X118478969Y-73727253D01*
X118478969Y-73702749D01*
X118478969Y-73702747D01*
X118701031Y-73702747D01*
X118701031Y-73727251D01*
X118705811Y-73751285D01*
X118715188Y-73773924D01*
X118728802Y-73794298D01*
X118746129Y-73811625D01*
X118766503Y-73825239D01*
X118789131Y-73834612D01*
X118801879Y-73838479D01*
X118828344Y-73852625D01*
X118897600Y-73889643D01*
X118981501Y-73958499D01*
X119050357Y-74042400D01*
X119086995Y-74110945D01*
X119101521Y-74138121D01*
X119105388Y-74150869D01*
X119114760Y-74173496D01*
X119128374Y-74193870D01*
X119145701Y-74211197D01*
X119166075Y-74224811D01*
X119188714Y-74234188D01*
X119212747Y-74238969D01*
X119237251Y-74238969D01*
X119261285Y-74234189D01*
X119283924Y-74224812D01*
X119304298Y-74211198D01*
X119321625Y-74193871D01*
X119335239Y-74173497D01*
X119344612Y-74150869D01*
X119348479Y-74138121D01*
X119363005Y-74110945D01*
X119399643Y-74042400D01*
X119468499Y-73958499D01*
X119552400Y-73889643D01*
X119621656Y-73852625D01*
X119648121Y-73838479D01*
X119660869Y-73834612D01*
X119683496Y-73825240D01*
X119703870Y-73811626D01*
X119721197Y-73794299D01*
X119734811Y-73773925D01*
X119744188Y-73751286D01*
X119748969Y-73727253D01*
X119748969Y-73702749D01*
X119748969Y-73702747D01*
X119971031Y-73702747D01*
X119971031Y-73727251D01*
X119975811Y-73751285D01*
X119985188Y-73773924D01*
X119998802Y-73794298D01*
X120016129Y-73811625D01*
X120036503Y-73825239D01*
X120059131Y-73834612D01*
X120071879Y-73838479D01*
X120098344Y-73852625D01*
X120167600Y-73889643D01*
X120251501Y-73958499D01*
X120320357Y-74042400D01*
X120356995Y-74110945D01*
X120371521Y-74138121D01*
X120375388Y-74150869D01*
X120384760Y-74173496D01*
X120398374Y-74193870D01*
X120415701Y-74211197D01*
X120436075Y-74224811D01*
X120458714Y-74234188D01*
X120482747Y-74238969D01*
X120507251Y-74238969D01*
X120531285Y-74234189D01*
X120553924Y-74224812D01*
X120574298Y-74211198D01*
X120591625Y-74193871D01*
X120605239Y-74173497D01*
X120614612Y-74150869D01*
X120618479Y-74138121D01*
X120633005Y-74110945D01*
X120669643Y-74042400D01*
X120738499Y-73958499D01*
X120822400Y-73889643D01*
X120891656Y-73852625D01*
X120918121Y-73838479D01*
X120930869Y-73834612D01*
X120953496Y-73825240D01*
X120973870Y-73811626D01*
X120991197Y-73794299D01*
X121004811Y-73773925D01*
X121014188Y-73751286D01*
X121018969Y-73727253D01*
X121018969Y-73702749D01*
X121018969Y-73702747D01*
X121241031Y-73702747D01*
X121241031Y-73727251D01*
X121245811Y-73751285D01*
X121255188Y-73773924D01*
X121268802Y-73794298D01*
X121286129Y-73811625D01*
X121306503Y-73825239D01*
X121329131Y-73834612D01*
X121341879Y-73838479D01*
X121368344Y-73852625D01*
X121437600Y-73889643D01*
X121521501Y-73958499D01*
X121590357Y-74042400D01*
X121626995Y-74110945D01*
X121641521Y-74138121D01*
X121645388Y-74150869D01*
X121654760Y-74173496D01*
X121668374Y-74193870D01*
X121685701Y-74211197D01*
X121706075Y-74224811D01*
X121728714Y-74234188D01*
X121752747Y-74238969D01*
X121777251Y-74238969D01*
X121801285Y-74234189D01*
X121823924Y-74224812D01*
X121844298Y-74211198D01*
X121861625Y-74193871D01*
X121875239Y-74173497D01*
X121884612Y-74150869D01*
X121888479Y-74138121D01*
X121903005Y-74110945D01*
X121939643Y-74042400D01*
X122008499Y-73958499D01*
X122092400Y-73889643D01*
X122161656Y-73852625D01*
X122188121Y-73838479D01*
X122200869Y-73834612D01*
X122223496Y-73825240D01*
X122243870Y-73811626D01*
X122261197Y-73794299D01*
X122274811Y-73773925D01*
X122284188Y-73751286D01*
X122288969Y-73727253D01*
X122288969Y-73702749D01*
X122288969Y-73702747D01*
X122511031Y-73702747D01*
X122511031Y-73727251D01*
X122515811Y-73751285D01*
X122525188Y-73773924D01*
X122538802Y-73794298D01*
X122556129Y-73811625D01*
X122576503Y-73825239D01*
X122599131Y-73834612D01*
X122611879Y-73838479D01*
X122638344Y-73852625D01*
X122707600Y-73889643D01*
X122791501Y-73958499D01*
X122860357Y-74042400D01*
X122896995Y-74110945D01*
X122911521Y-74138121D01*
X122915388Y-74150869D01*
X122924760Y-74173496D01*
X122938374Y-74193870D01*
X122955701Y-74211197D01*
X122976075Y-74224811D01*
X122998714Y-74234188D01*
X123022747Y-74238969D01*
X123047251Y-74238969D01*
X123071285Y-74234189D01*
X123093924Y-74224812D01*
X123114298Y-74211198D01*
X123131625Y-74193871D01*
X123145239Y-74173497D01*
X123154612Y-74150869D01*
X123158479Y-74138121D01*
X123173005Y-74110945D01*
X123209643Y-74042400D01*
X123278499Y-73958499D01*
X123362399Y-73889645D01*
X123362398Y-73889645D01*
X123362400Y-73889644D01*
X123406193Y-73866236D01*
X123426563Y-73852625D01*
X123443890Y-73835298D01*
X123457504Y-73814924D01*
X123466881Y-73792285D01*
X123471662Y-73768252D01*
X123471662Y-73743748D01*
X123466882Y-73719714D01*
X123457505Y-73697076D01*
X123443891Y-73676701D01*
X123426564Y-73659374D01*
X123406190Y-73645760D01*
X123383551Y-73636383D01*
X123359518Y-73631602D01*
X123347265Y-73631000D01*
X123119000Y-73631000D01*
X123119000Y-73402735D01*
X123116598Y-73378349D01*
X123109485Y-73354900D01*
X123097934Y-73333289D01*
X123082389Y-73314347D01*
X123063447Y-73298802D01*
X123041836Y-73287251D01*
X123018387Y-73280138D01*
X122994001Y-73277736D01*
X122969615Y-73280138D01*
X122946166Y-73287251D01*
X122924555Y-73298802D01*
X122905613Y-73314347D01*
X122890068Y-73333289D01*
X122883767Y-73343802D01*
X122863884Y-73380999D01*
X122860355Y-73387601D01*
X122791501Y-73471501D01*
X122707600Y-73540357D01*
X122639055Y-73576995D01*
X122611879Y-73591521D01*
X122599131Y-73595388D01*
X122576504Y-73604760D01*
X122556130Y-73618374D01*
X122538803Y-73635701D01*
X122525189Y-73656075D01*
X122515812Y-73678714D01*
X122511031Y-73702747D01*
X122288969Y-73702747D01*
X122284189Y-73678715D01*
X122274812Y-73656076D01*
X122261198Y-73635702D01*
X122243871Y-73618375D01*
X122223497Y-73604761D01*
X122200869Y-73595388D01*
X122188121Y-73591521D01*
X122160945Y-73576995D01*
X122092400Y-73540357D01*
X122008499Y-73471501D01*
X121939643Y-73387600D01*
X121892644Y-73299671D01*
X121888479Y-73291879D01*
X121884612Y-73279131D01*
X121875240Y-73256504D01*
X121861626Y-73236130D01*
X121844299Y-73218803D01*
X121823925Y-73205189D01*
X121801286Y-73195812D01*
X121777253Y-73191031D01*
X121752749Y-73191031D01*
X121728715Y-73195811D01*
X121706076Y-73205188D01*
X121685702Y-73218802D01*
X121668375Y-73236129D01*
X121654761Y-73256503D01*
X121645388Y-73279131D01*
X121641521Y-73291879D01*
X121637356Y-73299671D01*
X121590357Y-73387600D01*
X121521501Y-73471501D01*
X121437600Y-73540357D01*
X121369055Y-73576995D01*
X121341879Y-73591521D01*
X121329131Y-73595388D01*
X121306504Y-73604760D01*
X121286130Y-73618374D01*
X121268803Y-73635701D01*
X121255189Y-73656075D01*
X121245812Y-73678714D01*
X121241031Y-73702747D01*
X121018969Y-73702747D01*
X121014189Y-73678715D01*
X121004812Y-73656076D01*
X120991198Y-73635702D01*
X120973871Y-73618375D01*
X120953497Y-73604761D01*
X120930869Y-73595388D01*
X120918121Y-73591521D01*
X120890945Y-73576995D01*
X120822400Y-73540357D01*
X120738499Y-73471501D01*
X120669643Y-73387600D01*
X120622644Y-73299671D01*
X120618479Y-73291879D01*
X120614612Y-73279131D01*
X120605240Y-73256504D01*
X120591626Y-73236130D01*
X120574299Y-73218803D01*
X120553925Y-73205189D01*
X120531286Y-73195812D01*
X120507253Y-73191031D01*
X120482749Y-73191031D01*
X120458715Y-73195811D01*
X120436076Y-73205188D01*
X120415702Y-73218802D01*
X120398375Y-73236129D01*
X120384761Y-73256503D01*
X120375388Y-73279131D01*
X120371521Y-73291879D01*
X120367356Y-73299671D01*
X120320357Y-73387600D01*
X120251501Y-73471501D01*
X120167600Y-73540357D01*
X120099055Y-73576995D01*
X120071879Y-73591521D01*
X120059131Y-73595388D01*
X120036504Y-73604760D01*
X120016130Y-73618374D01*
X119998803Y-73635701D01*
X119985189Y-73656075D01*
X119975812Y-73678714D01*
X119971031Y-73702747D01*
X119748969Y-73702747D01*
X119744189Y-73678715D01*
X119734812Y-73656076D01*
X119721198Y-73635702D01*
X119703871Y-73618375D01*
X119683497Y-73604761D01*
X119660869Y-73595388D01*
X119648121Y-73591521D01*
X119620945Y-73576995D01*
X119552400Y-73540357D01*
X119468499Y-73471501D01*
X119399643Y-73387600D01*
X119352644Y-73299671D01*
X119348479Y-73291879D01*
X119344612Y-73279131D01*
X119335240Y-73256504D01*
X119321626Y-73236130D01*
X119304299Y-73218803D01*
X119283925Y-73205189D01*
X119261286Y-73195812D01*
X119237253Y-73191031D01*
X119212749Y-73191031D01*
X119188715Y-73195811D01*
X119166076Y-73205188D01*
X119145702Y-73218802D01*
X119128375Y-73236129D01*
X119114761Y-73256503D01*
X119105388Y-73279131D01*
X119101521Y-73291879D01*
X119097356Y-73299671D01*
X119050357Y-73387600D01*
X118981501Y-73471501D01*
X118897600Y-73540357D01*
X118829055Y-73576995D01*
X118801879Y-73591521D01*
X118789131Y-73595388D01*
X118766504Y-73604760D01*
X118746130Y-73618374D01*
X118728803Y-73635701D01*
X118715189Y-73656075D01*
X118705812Y-73678714D01*
X118701031Y-73702747D01*
X118478969Y-73702747D01*
X118474189Y-73678715D01*
X118464812Y-73656076D01*
X118451198Y-73635702D01*
X118433871Y-73618375D01*
X118413497Y-73604761D01*
X118390869Y-73595388D01*
X118378121Y-73591521D01*
X118350945Y-73576995D01*
X118282400Y-73540357D01*
X118198499Y-73471501D01*
X118129643Y-73387600D01*
X118082644Y-73299671D01*
X118078479Y-73291879D01*
X118046973Y-73188015D01*
X118036334Y-73080000D01*
X118046973Y-72971985D01*
X118078479Y-72868121D01*
X118118338Y-72793551D01*
X118129643Y-72772400D01*
X118198499Y-72688499D01*
X118282400Y-72619643D01*
X118350945Y-72583005D01*
X118378121Y-72568479D01*
X118481985Y-72536973D01*
X118562933Y-72529000D01*
X118617067Y-72529000D01*
X118698015Y-72536973D01*
X118698015Y-72536973D01*
G37*
G36*
X97234239Y-67311467D02*
G01*
X97548282Y-67373934D01*
X98139926Y-67619001D01*
X98672392Y-67974784D01*
X99125216Y-68427608D01*
X99480999Y-68960074D01*
X99726066Y-69551718D01*
X99726066Y-69551719D01*
X99851000Y-70179803D01*
X99851000Y-70820197D01*
X99788533Y-71134239D01*
X99726066Y-71448282D01*
X99480999Y-72039926D01*
X99233265Y-72410685D01*
X99127830Y-72568481D01*
X99125216Y-72572392D01*
X98672392Y-73025216D01*
X98139926Y-73380999D01*
X97548282Y-73626066D01*
X97283602Y-73678714D01*
X96920197Y-73751000D01*
X96279803Y-73751000D01*
X95916398Y-73678714D01*
X95651718Y-73626066D01*
X95060074Y-73380999D01*
X94527608Y-73025216D01*
X94074784Y-72572392D01*
X94072171Y-72568481D01*
X93966735Y-72410685D01*
X93719001Y-72039926D01*
X93473934Y-71448282D01*
X93411467Y-71134239D01*
X93349000Y-70820197D01*
X93349000Y-70179803D01*
X93473934Y-69551719D01*
X93473934Y-69551718D01*
X93719001Y-68960074D01*
X94074784Y-68427608D01*
X94527608Y-67974784D01*
X95060074Y-67619001D01*
X95651718Y-67373934D01*
X95965761Y-67311467D01*
X96279803Y-67249000D01*
X96920197Y-67249000D01*
X97234239Y-67311467D01*
X97234239Y-67311467D01*
G37*
G36*
X171634239Y-67311467D02*
G01*
X171948282Y-67373934D01*
X172539926Y-67619001D01*
X173072392Y-67974784D01*
X173525216Y-68427608D01*
X173880999Y-68960074D01*
X174126066Y-69551718D01*
X174126066Y-69551719D01*
X174251000Y-70179803D01*
X174251000Y-70820197D01*
X174188533Y-71134239D01*
X174126066Y-71448282D01*
X173880999Y-72039926D01*
X173633265Y-72410685D01*
X173527830Y-72568481D01*
X173525216Y-72572392D01*
X173072392Y-73025216D01*
X172539926Y-73380999D01*
X171948282Y-73626066D01*
X171683602Y-73678714D01*
X171320197Y-73751000D01*
X170679803Y-73751000D01*
X170316398Y-73678714D01*
X170051718Y-73626066D01*
X169460074Y-73380999D01*
X168927608Y-73025216D01*
X168474784Y-72572392D01*
X168472171Y-72568481D01*
X168366735Y-72410685D01*
X168119001Y-72039926D01*
X167873934Y-71448282D01*
X167811467Y-71134239D01*
X167749000Y-70820197D01*
X167749000Y-70179803D01*
X167873934Y-69551719D01*
X167873934Y-69551718D01*
X168119001Y-68960074D01*
X168474784Y-68427608D01*
X168927608Y-67974784D01*
X169460074Y-67619001D01*
X170051718Y-67373934D01*
X170365761Y-67311467D01*
X170679803Y-67249000D01*
X171320197Y-67249000D01*
X171634239Y-67311467D01*
X171634239Y-67311467D01*
G37*
M02*
