G04 #@! TF.GenerationSoftware,KiCad,Pcbnew,(5.1.4)-1*
G04 #@! TF.CreationDate,2022-02-20T14:42:12-05:00*
G04 #@! TF.ProjectId,Recovery PCB,5265636f-7665-4727-9920-5043422e6b69,rev?*
G04 #@! TF.SameCoordinates,Original*
G04 #@! TF.FileFunction,Copper,L3,Inr*
G04 #@! TF.FilePolarity,Positive*
%FSLAX46Y46*%
G04 Gerber Fmt 4.6, Leading zero omitted, Abs format (unit mm)*
G04 Created by KiCad (PCBNEW (5.1.4)-1) date 2022-02-20 14:42:12*
%MOMM*%
%LPD*%
G04 APERTURE LIST*
%ADD10C,2.400000*%
%ADD11C,1.600000*%
%ADD12C,0.800000*%
%ADD13C,6.400000*%
%ADD14R,1.700000X1.700000*%
%ADD15O,1.700000X1.700000*%
%ADD16O,1.700000X2.000000*%
%ADD17C,0.100000*%
%ADD18C,1.700000*%
%ADD19O,1.700000X1.950000*%
%ADD20C,3.000000*%
%ADD21R,3.000000X3.000000*%
%ADD22O,1.000000X1.000000*%
%ADD23R,1.000000X1.000000*%
%ADD24R,2.000000X2.000000*%
%ADD25C,2.000000*%
%ADD26C,0.600000*%
%ADD27C,0.254000*%
G04 APERTURE END LIST*
D10*
X103870000Y-109922500D03*
X108950000Y-109922500D03*
D11*
X119110000Y-109922500D03*
X121650000Y-109922500D03*
D10*
X103870000Y-99022500D03*
X108950000Y-99022500D03*
D11*
X119110000Y-99022500D03*
X121650000Y-99022500D03*
D12*
X172697056Y-119802944D03*
X171000000Y-119100000D03*
X169302944Y-119802944D03*
X168600000Y-121500000D03*
X169302944Y-123197056D03*
X171000000Y-123900000D03*
X172697056Y-123197056D03*
X173400000Y-121500000D03*
D13*
X171000000Y-121500000D03*
D12*
X98297056Y-119802944D03*
X96600000Y-119100000D03*
X94902944Y-119802944D03*
X94200000Y-121500000D03*
X94902944Y-123197056D03*
X96600000Y-123900000D03*
X98297056Y-123197056D03*
X99000000Y-121500000D03*
D13*
X96600000Y-121500000D03*
D12*
X172697056Y-68802944D03*
X171000000Y-68100000D03*
X169302944Y-68802944D03*
X168600000Y-70500000D03*
X169302944Y-72197056D03*
X171000000Y-72900000D03*
X172697056Y-72197056D03*
X173400000Y-70500000D03*
D13*
X171000000Y-70500000D03*
D12*
X98297056Y-68802944D03*
X96600000Y-68100000D03*
X94902944Y-68802944D03*
X94200000Y-70500000D03*
X94902944Y-72197056D03*
X96600000Y-72900000D03*
X98297056Y-72197056D03*
X99000000Y-70500000D03*
D13*
X96600000Y-70500000D03*
D14*
X128220000Y-93100000D03*
D15*
X130760000Y-93100000D03*
X133300000Y-93100000D03*
X135840000Y-93100000D03*
D16*
X108600000Y-120800000D03*
D17*
G36*
X106724504Y-119801204D02*
G01*
X106748773Y-119804804D01*
X106772571Y-119810765D01*
X106795671Y-119819030D01*
X106817849Y-119829520D01*
X106838893Y-119842133D01*
X106858598Y-119856747D01*
X106876777Y-119873223D01*
X106893253Y-119891402D01*
X106907867Y-119911107D01*
X106920480Y-119932151D01*
X106930970Y-119954329D01*
X106939235Y-119977429D01*
X106945196Y-120001227D01*
X106948796Y-120025496D01*
X106950000Y-120050000D01*
X106950000Y-121550000D01*
X106948796Y-121574504D01*
X106945196Y-121598773D01*
X106939235Y-121622571D01*
X106930970Y-121645671D01*
X106920480Y-121667849D01*
X106907867Y-121688893D01*
X106893253Y-121708598D01*
X106876777Y-121726777D01*
X106858598Y-121743253D01*
X106838893Y-121757867D01*
X106817849Y-121770480D01*
X106795671Y-121780970D01*
X106772571Y-121789235D01*
X106748773Y-121795196D01*
X106724504Y-121798796D01*
X106700000Y-121800000D01*
X105500000Y-121800000D01*
X105475496Y-121798796D01*
X105451227Y-121795196D01*
X105427429Y-121789235D01*
X105404329Y-121780970D01*
X105382151Y-121770480D01*
X105361107Y-121757867D01*
X105341402Y-121743253D01*
X105323223Y-121726777D01*
X105306747Y-121708598D01*
X105292133Y-121688893D01*
X105279520Y-121667849D01*
X105269030Y-121645671D01*
X105260765Y-121622571D01*
X105254804Y-121598773D01*
X105251204Y-121574504D01*
X105250000Y-121550000D01*
X105250000Y-120050000D01*
X105251204Y-120025496D01*
X105254804Y-120001227D01*
X105260765Y-119977429D01*
X105269030Y-119954329D01*
X105279520Y-119932151D01*
X105292133Y-119911107D01*
X105306747Y-119891402D01*
X105323223Y-119873223D01*
X105341402Y-119856747D01*
X105361107Y-119842133D01*
X105382151Y-119829520D01*
X105404329Y-119819030D01*
X105427429Y-119810765D01*
X105451227Y-119804804D01*
X105475496Y-119801204D01*
X105500000Y-119800000D01*
X106700000Y-119800000D01*
X106724504Y-119801204D01*
X106724504Y-119801204D01*
G37*
D18*
X106100000Y-120800000D03*
D17*
G36*
X154394504Y-120666204D02*
G01*
X154418773Y-120669804D01*
X154442571Y-120675765D01*
X154465671Y-120684030D01*
X154487849Y-120694520D01*
X154508893Y-120707133D01*
X154528598Y-120721747D01*
X154546777Y-120738223D01*
X154563253Y-120756402D01*
X154577867Y-120776107D01*
X154590480Y-120797151D01*
X154600970Y-120819329D01*
X154609235Y-120842429D01*
X154615196Y-120866227D01*
X154618796Y-120890496D01*
X154620000Y-120915000D01*
X154620000Y-122365000D01*
X154618796Y-122389504D01*
X154615196Y-122413773D01*
X154609235Y-122437571D01*
X154600970Y-122460671D01*
X154590480Y-122482849D01*
X154577867Y-122503893D01*
X154563253Y-122523598D01*
X154546777Y-122541777D01*
X154528598Y-122558253D01*
X154508893Y-122572867D01*
X154487849Y-122585480D01*
X154465671Y-122595970D01*
X154442571Y-122604235D01*
X154418773Y-122610196D01*
X154394504Y-122613796D01*
X154370000Y-122615000D01*
X153170000Y-122615000D01*
X153145496Y-122613796D01*
X153121227Y-122610196D01*
X153097429Y-122604235D01*
X153074329Y-122595970D01*
X153052151Y-122585480D01*
X153031107Y-122572867D01*
X153011402Y-122558253D01*
X152993223Y-122541777D01*
X152976747Y-122523598D01*
X152962133Y-122503893D01*
X152949520Y-122482849D01*
X152939030Y-122460671D01*
X152930765Y-122437571D01*
X152924804Y-122413773D01*
X152921204Y-122389504D01*
X152920000Y-122365000D01*
X152920000Y-120915000D01*
X152921204Y-120890496D01*
X152924804Y-120866227D01*
X152930765Y-120842429D01*
X152939030Y-120819329D01*
X152949520Y-120797151D01*
X152962133Y-120776107D01*
X152976747Y-120756402D01*
X152993223Y-120738223D01*
X153011402Y-120721747D01*
X153031107Y-120707133D01*
X153052151Y-120694520D01*
X153074329Y-120684030D01*
X153097429Y-120675765D01*
X153121227Y-120669804D01*
X153145496Y-120666204D01*
X153170000Y-120665000D01*
X154370000Y-120665000D01*
X154394504Y-120666204D01*
X154394504Y-120666204D01*
G37*
D18*
X153770000Y-121640000D03*
D19*
X151270000Y-121640000D03*
X148770000Y-121640000D03*
D20*
X97050000Y-114980000D03*
D21*
X97050000Y-109900000D03*
D20*
X97050000Y-104080000D03*
D21*
X97050000Y-99000000D03*
D16*
X140270000Y-121640000D03*
D17*
G36*
X143394504Y-120641204D02*
G01*
X143418773Y-120644804D01*
X143442571Y-120650765D01*
X143465671Y-120659030D01*
X143487849Y-120669520D01*
X143508893Y-120682133D01*
X143528598Y-120696747D01*
X143546777Y-120713223D01*
X143563253Y-120731402D01*
X143577867Y-120751107D01*
X143590480Y-120772151D01*
X143600970Y-120794329D01*
X143609235Y-120817429D01*
X143615196Y-120841227D01*
X143618796Y-120865496D01*
X143620000Y-120890000D01*
X143620000Y-122390000D01*
X143618796Y-122414504D01*
X143615196Y-122438773D01*
X143609235Y-122462571D01*
X143600970Y-122485671D01*
X143590480Y-122507849D01*
X143577867Y-122528893D01*
X143563253Y-122548598D01*
X143546777Y-122566777D01*
X143528598Y-122583253D01*
X143508893Y-122597867D01*
X143487849Y-122610480D01*
X143465671Y-122620970D01*
X143442571Y-122629235D01*
X143418773Y-122635196D01*
X143394504Y-122638796D01*
X143370000Y-122640000D01*
X142170000Y-122640000D01*
X142145496Y-122638796D01*
X142121227Y-122635196D01*
X142097429Y-122629235D01*
X142074329Y-122620970D01*
X142052151Y-122610480D01*
X142031107Y-122597867D01*
X142011402Y-122583253D01*
X141993223Y-122566777D01*
X141976747Y-122548598D01*
X141962133Y-122528893D01*
X141949520Y-122507849D01*
X141939030Y-122485671D01*
X141930765Y-122462571D01*
X141924804Y-122438773D01*
X141921204Y-122414504D01*
X141920000Y-122390000D01*
X141920000Y-120890000D01*
X141921204Y-120865496D01*
X141924804Y-120841227D01*
X141930765Y-120817429D01*
X141939030Y-120794329D01*
X141949520Y-120772151D01*
X141962133Y-120751107D01*
X141976747Y-120731402D01*
X141993223Y-120713223D01*
X142011402Y-120696747D01*
X142031107Y-120682133D01*
X142052151Y-120669520D01*
X142074329Y-120659030D01*
X142097429Y-120650765D01*
X142121227Y-120644804D01*
X142145496Y-120641204D01*
X142170000Y-120640000D01*
X143370000Y-120640000D01*
X143394504Y-120641204D01*
X143394504Y-120641204D01*
G37*
D18*
X142770000Y-121640000D03*
D22*
X118590000Y-74350000D03*
X118590000Y-73080000D03*
X119860000Y-74350000D03*
X119860000Y-73080000D03*
X121130000Y-74350000D03*
X121130000Y-73080000D03*
X122400000Y-74350000D03*
X122400000Y-73080000D03*
X123670000Y-74350000D03*
D23*
X123670000Y-73080000D03*
D24*
X163900000Y-97100000D03*
D25*
X163900000Y-92100000D03*
D12*
X143710000Y-79640000D03*
X143680000Y-81140000D03*
X125170000Y-73090000D03*
X130420000Y-71310000D03*
X110900000Y-82800000D03*
X134800000Y-80700002D03*
X119999200Y-90400810D03*
X127810000Y-112910000D03*
X127820000Y-101830000D03*
X116400000Y-81000000D03*
X146250000Y-116400000D03*
X146250000Y-117250000D03*
X145930200Y-77992000D03*
X138390000Y-111660000D03*
X138390000Y-104060000D03*
X155650000Y-72440000D03*
X168220000Y-79600000D03*
X170154600Y-90297000D03*
X160502600Y-104800400D03*
D26*
X150560200Y-86562000D03*
D12*
X107000000Y-77400000D03*
D26*
X170170000Y-112110000D03*
X170160000Y-113490000D03*
X158010000Y-113490000D03*
X161040000Y-113490000D03*
X160280000Y-113490000D03*
X158760000Y-113490000D03*
X159520000Y-113490000D03*
X161800000Y-113490000D03*
X167120000Y-113490000D03*
X163320000Y-113490000D03*
X166360000Y-113490000D03*
X164840000Y-113490000D03*
X165600000Y-113490000D03*
X167880000Y-113490000D03*
X168640000Y-113490000D03*
X162560000Y-113490000D03*
X169400000Y-113490000D03*
X164080000Y-113490000D03*
D12*
X165270000Y-81250000D03*
X165300000Y-78290000D03*
X172770000Y-78620000D03*
X174080000Y-78620000D03*
X171430000Y-78620000D03*
X172610000Y-86960000D03*
X171160000Y-86960000D03*
X174060000Y-86910000D03*
X172590000Y-108585000D03*
X171119800Y-108585000D03*
X174117000Y-108585000D03*
X172618400Y-116763800D03*
X171196000Y-116763800D03*
X174091600Y-116763800D03*
X107040000Y-80960000D03*
D26*
X158020000Y-112110000D03*
X158779375Y-112110000D03*
X159538750Y-112110000D03*
X160298125Y-112110000D03*
X161057500Y-112110000D03*
X161816875Y-112110000D03*
X162576250Y-112110000D03*
X163335625Y-112110000D03*
X164095000Y-112110000D03*
X164854375Y-112110000D03*
X165613750Y-112110000D03*
X166373125Y-112110000D03*
X167132500Y-112110000D03*
X168651250Y-112110000D03*
X167891875Y-112110000D03*
D12*
X117700000Y-79300000D03*
X120050000Y-81700000D03*
X120050000Y-82400000D03*
D26*
X169410625Y-112110000D03*
X131400000Y-74000000D03*
D12*
X134200000Y-74500000D03*
X134200000Y-72400000D03*
X134700000Y-82300000D03*
X119900000Y-94300000D03*
X121362510Y-90674282D03*
X118100000Y-90650000D03*
X105400000Y-91400000D03*
X107400000Y-91400000D03*
X96600000Y-91400000D03*
X98500000Y-91400000D03*
X96400000Y-77400000D03*
X98500000Y-77400000D03*
X105600000Y-77400000D03*
X125270000Y-108080000D03*
X154000000Y-89300000D03*
D26*
X171100000Y-114100000D03*
X171875000Y-114100000D03*
X172650000Y-114100000D03*
X173425000Y-114100000D03*
X174200000Y-114100000D03*
X171145200Y-111302800D03*
X171856400Y-111302800D03*
X172593000Y-111302800D03*
X173380400Y-111302800D03*
X174167800Y-111328200D03*
D12*
X154900000Y-112400000D03*
X154900000Y-113100000D03*
X131200000Y-86800000D03*
D26*
X168000000Y-82100000D03*
X170100000Y-82100000D03*
X170100000Y-83500000D03*
X171170600Y-81407000D03*
X168700000Y-82110000D03*
X169400000Y-82110000D03*
X170120000Y-84240000D03*
D12*
X170100000Y-84943333D03*
X168000000Y-84074000D03*
X168010000Y-84886800D03*
X167995600Y-85699600D03*
X147330200Y-83782000D03*
X145950200Y-79592000D03*
X123012200Y-82143600D03*
X132308600Y-80975200D03*
X127508000Y-87884000D03*
D26*
X171831000Y-81381600D03*
X172466000Y-81381600D03*
X173126400Y-81381600D03*
X173761400Y-81381600D03*
D12*
X127751704Y-78450432D03*
D26*
X170129200Y-85674200D03*
X170154600Y-86309200D03*
X167995600Y-86436200D03*
X171069000Y-84124800D03*
X171780200Y-84124800D03*
X172491400Y-84124800D03*
X173151800Y-84124800D03*
X173812200Y-84124800D03*
X152130200Y-86572000D03*
X154152600Y-75285600D03*
X156083000Y-77698600D03*
X132222861Y-80079282D03*
X126614192Y-87778507D03*
X118440200Y-86995000D03*
X125730000Y-78003400D03*
X109650000Y-77700000D03*
X132130800Y-83972400D03*
X112340097Y-88989748D03*
X129250000Y-89000000D03*
X131100000Y-88838390D03*
X111661610Y-88411610D03*
X111150000Y-89550000D03*
X130247119Y-89102881D03*
X133200000Y-81500000D03*
X142896610Y-88203390D03*
X153289000Y-77266800D03*
X143992600Y-83185000D03*
X128407395Y-77833918D03*
X129491817Y-78308584D03*
X128560013Y-90538390D03*
X123290000Y-116470000D03*
X127772245Y-90510635D03*
X123250000Y-104780000D03*
X126860680Y-78323553D03*
X122961400Y-83286600D03*
X124256800Y-78409800D03*
X122885200Y-77012800D03*
D27*
X119223707Y-87778507D02*
X126614192Y-87778507D01*
X118440200Y-86995000D02*
X119223707Y-87778507D01*
X132647125Y-80079282D02*
X132222861Y-80079282D01*
X132707244Y-80079282D02*
X132647125Y-80079282D01*
X133827001Y-85248961D02*
X133827001Y-81199039D01*
X133827001Y-81199039D02*
X132707244Y-80079282D01*
X131548961Y-87527001D02*
X133827001Y-85248961D01*
X129795037Y-87527001D02*
X131548961Y-87527001D01*
X128622999Y-88699039D02*
X129795037Y-87527001D01*
X127110460Y-88699039D02*
X128622999Y-88699039D01*
X126614192Y-88202771D02*
X127110460Y-88699039D01*
X126614192Y-87778507D02*
X126614192Y-88202771D01*
X132222861Y-80079282D02*
X127399482Y-80079282D01*
X127399482Y-80079282D02*
X126494361Y-79174161D01*
X125730000Y-78427664D02*
X125730000Y-78003400D01*
X126476497Y-79174161D02*
X125730000Y-78427664D01*
X126494361Y-79174161D02*
X126476497Y-79174161D01*
G36*
X168555330Y-67521161D02*
G01*
X168021161Y-68055330D01*
X167601467Y-68683446D01*
X167312377Y-69381372D01*
X167165000Y-70122285D01*
X167165000Y-70877715D01*
X167312377Y-71618628D01*
X167601467Y-72316554D01*
X168021161Y-72944670D01*
X168555330Y-73478839D01*
X169183446Y-73898533D01*
X169881372Y-74187623D01*
X170622285Y-74335000D01*
X171377715Y-74335000D01*
X172118628Y-74187623D01*
X172816554Y-73898533D01*
X173444670Y-73478839D01*
X173978839Y-72944670D01*
X174340000Y-72404155D01*
X174340000Y-77616440D01*
X174181939Y-77585000D01*
X173978061Y-77585000D01*
X173778102Y-77624774D01*
X173589744Y-77702795D01*
X173425000Y-77812873D01*
X173260256Y-77702795D01*
X173071898Y-77624774D01*
X172871939Y-77585000D01*
X172668061Y-77585000D01*
X172468102Y-77624774D01*
X172279744Y-77702795D01*
X172110226Y-77816063D01*
X172100000Y-77826289D01*
X172089774Y-77816063D01*
X171920256Y-77702795D01*
X171731898Y-77624774D01*
X171531939Y-77585000D01*
X171328061Y-77585000D01*
X171128102Y-77624774D01*
X170939744Y-77702795D01*
X170770226Y-77816063D01*
X170626063Y-77960226D01*
X170512795Y-78129744D01*
X170434774Y-78318102D01*
X170395000Y-78518061D01*
X170395000Y-78721939D01*
X170434774Y-78921898D01*
X170512795Y-79110256D01*
X170626063Y-79279774D01*
X170770226Y-79423937D01*
X170939744Y-79537205D01*
X171128102Y-79615226D01*
X171328061Y-79655000D01*
X171531939Y-79655000D01*
X171731898Y-79615226D01*
X171920256Y-79537205D01*
X172089774Y-79423937D01*
X172100000Y-79413711D01*
X172110226Y-79423937D01*
X172279744Y-79537205D01*
X172468102Y-79615226D01*
X172668061Y-79655000D01*
X172871939Y-79655000D01*
X173071898Y-79615226D01*
X173260256Y-79537205D01*
X173425000Y-79427127D01*
X173589744Y-79537205D01*
X173778102Y-79615226D01*
X173978061Y-79655000D01*
X174181939Y-79655000D01*
X174340000Y-79623560D01*
X174340000Y-80643693D01*
X174204289Y-80553014D01*
X174034129Y-80482532D01*
X173853489Y-80446600D01*
X173669311Y-80446600D01*
X173488671Y-80482532D01*
X173443900Y-80501077D01*
X173399129Y-80482532D01*
X173218489Y-80446600D01*
X173034311Y-80446600D01*
X172853671Y-80482532D01*
X172796200Y-80506337D01*
X172738729Y-80482532D01*
X172558089Y-80446600D01*
X172373911Y-80446600D01*
X172193271Y-80482532D01*
X172148500Y-80501077D01*
X172103729Y-80482532D01*
X171923089Y-80446600D01*
X171738911Y-80446600D01*
X171558271Y-80482532D01*
X171470139Y-80519037D01*
X171443329Y-80507932D01*
X171262689Y-80472000D01*
X171078511Y-80472000D01*
X170897871Y-80507932D01*
X170727711Y-80578414D01*
X170574572Y-80680738D01*
X170444338Y-80810972D01*
X170342014Y-80964111D01*
X170271532Y-81134271D01*
X170262628Y-81179031D01*
X170192089Y-81165000D01*
X170007911Y-81165000D01*
X169827271Y-81200932D01*
X169737929Y-81237938D01*
X169672729Y-81210932D01*
X169492089Y-81175000D01*
X169307911Y-81175000D01*
X169127271Y-81210932D01*
X169050000Y-81242938D01*
X168972729Y-81210932D01*
X168792089Y-81175000D01*
X168607911Y-81175000D01*
X168427271Y-81210932D01*
X168362071Y-81237938D01*
X168272729Y-81200932D01*
X168092089Y-81165000D01*
X167907911Y-81165000D01*
X167727271Y-81200932D01*
X167557111Y-81271414D01*
X167403972Y-81373738D01*
X167273738Y-81503972D01*
X167171414Y-81657111D01*
X167100932Y-81827271D01*
X167065000Y-82007911D01*
X167065000Y-82192089D01*
X167100932Y-82372729D01*
X167171414Y-82542889D01*
X167273738Y-82696028D01*
X167403972Y-82826262D01*
X167557111Y-82928586D01*
X167727271Y-82999068D01*
X167907911Y-83035000D01*
X168092089Y-83035000D01*
X168272729Y-82999068D01*
X168337929Y-82972062D01*
X168427271Y-83009068D01*
X168607911Y-83045000D01*
X168792089Y-83045000D01*
X168972729Y-83009068D01*
X169050000Y-82977062D01*
X169127271Y-83009068D01*
X169282839Y-83040013D01*
X169271414Y-83057111D01*
X169200932Y-83227271D01*
X169165000Y-83407911D01*
X169165000Y-83592089D01*
X169200932Y-83772729D01*
X169251223Y-83894142D01*
X169220932Y-83967271D01*
X169185000Y-84147911D01*
X169185000Y-84332089D01*
X169203040Y-84422779D01*
X169182795Y-84453077D01*
X169104774Y-84641435D01*
X169065000Y-84841394D01*
X169065000Y-85045272D01*
X169104774Y-85245231D01*
X169182795Y-85433589D01*
X169214350Y-85480814D01*
X169194200Y-85582111D01*
X169194200Y-85766289D01*
X169230132Y-85946929D01*
X169261377Y-86022361D01*
X169255532Y-86036471D01*
X169219600Y-86217111D01*
X169219600Y-86401289D01*
X169255532Y-86581929D01*
X169326014Y-86752089D01*
X169428338Y-86905228D01*
X169558572Y-87035462D01*
X169711711Y-87137786D01*
X169881871Y-87208268D01*
X170062511Y-87244200D01*
X170161254Y-87244200D01*
X170164774Y-87261898D01*
X170242795Y-87450256D01*
X170356063Y-87619774D01*
X170500226Y-87763937D01*
X170669744Y-87877205D01*
X170858102Y-87955226D01*
X171058061Y-87995000D01*
X171261939Y-87995000D01*
X171461898Y-87955226D01*
X171650256Y-87877205D01*
X171819774Y-87763937D01*
X171885000Y-87698711D01*
X171950226Y-87763937D01*
X172119744Y-87877205D01*
X172308102Y-87955226D01*
X172508061Y-87995000D01*
X172711939Y-87995000D01*
X172911898Y-87955226D01*
X173100256Y-87877205D01*
X173269774Y-87763937D01*
X173360000Y-87673711D01*
X173400226Y-87713937D01*
X173569744Y-87827205D01*
X173758102Y-87905226D01*
X173958061Y-87945000D01*
X174161939Y-87945000D01*
X174340000Y-87909582D01*
X174340001Y-107574080D01*
X174218939Y-107550000D01*
X174015061Y-107550000D01*
X173815102Y-107589774D01*
X173626744Y-107667795D01*
X173457226Y-107781063D01*
X173353500Y-107884789D01*
X173249774Y-107781063D01*
X173080256Y-107667795D01*
X172891898Y-107589774D01*
X172691939Y-107550000D01*
X172488061Y-107550000D01*
X172288102Y-107589774D01*
X172099744Y-107667795D01*
X171930226Y-107781063D01*
X171854900Y-107856389D01*
X171779574Y-107781063D01*
X171610056Y-107667795D01*
X171421698Y-107589774D01*
X171221739Y-107550000D01*
X171017861Y-107550000D01*
X170817902Y-107589774D01*
X170629544Y-107667795D01*
X170460026Y-107781063D01*
X170315863Y-107925226D01*
X170202595Y-108094744D01*
X170124574Y-108283102D01*
X170084800Y-108483061D01*
X170084800Y-108686939D01*
X170124574Y-108886898D01*
X170202595Y-109075256D01*
X170315863Y-109244774D01*
X170460026Y-109388937D01*
X170629544Y-109502205D01*
X170817902Y-109580226D01*
X171017861Y-109620000D01*
X171221739Y-109620000D01*
X171421698Y-109580226D01*
X171610056Y-109502205D01*
X171779574Y-109388937D01*
X171854900Y-109313611D01*
X171930226Y-109388937D01*
X172099744Y-109502205D01*
X172288102Y-109580226D01*
X172488061Y-109620000D01*
X172691939Y-109620000D01*
X172891898Y-109580226D01*
X173080256Y-109502205D01*
X173249774Y-109388937D01*
X173353500Y-109285211D01*
X173457226Y-109388937D01*
X173626744Y-109502205D01*
X173815102Y-109580226D01*
X174015061Y-109620000D01*
X174218939Y-109620000D01*
X174340001Y-109595920D01*
X174340001Y-110409135D01*
X174259889Y-110393200D01*
X174075711Y-110393200D01*
X173895071Y-110429132D01*
X173804761Y-110466539D01*
X173653129Y-110403732D01*
X173472489Y-110367800D01*
X173288311Y-110367800D01*
X173107671Y-110403732D01*
X172986700Y-110453839D01*
X172865729Y-110403732D01*
X172685089Y-110367800D01*
X172500911Y-110367800D01*
X172320271Y-110403732D01*
X172224700Y-110443318D01*
X172129129Y-110403732D01*
X171948489Y-110367800D01*
X171764311Y-110367800D01*
X171583671Y-110403732D01*
X171500800Y-110438058D01*
X171417929Y-110403732D01*
X171237289Y-110367800D01*
X171053111Y-110367800D01*
X170872471Y-110403732D01*
X170702311Y-110474214D01*
X170549172Y-110576538D01*
X170418938Y-110706772D01*
X170316614Y-110859911D01*
X170246132Y-111030071D01*
X170217303Y-111175000D01*
X170077911Y-111175000D01*
X169897271Y-111210932D01*
X169790313Y-111255235D01*
X169683354Y-111210932D01*
X169502714Y-111175000D01*
X169318536Y-111175000D01*
X169137896Y-111210932D01*
X169030938Y-111255235D01*
X168923979Y-111210932D01*
X168743339Y-111175000D01*
X168559161Y-111175000D01*
X168378521Y-111210932D01*
X168271563Y-111255235D01*
X168164604Y-111210932D01*
X167983964Y-111175000D01*
X167799786Y-111175000D01*
X167619146Y-111210932D01*
X167512188Y-111255235D01*
X167405229Y-111210932D01*
X167224589Y-111175000D01*
X167040411Y-111175000D01*
X166859771Y-111210932D01*
X166752813Y-111255235D01*
X166645854Y-111210932D01*
X166465214Y-111175000D01*
X166281036Y-111175000D01*
X166100396Y-111210932D01*
X165993438Y-111255235D01*
X165886479Y-111210932D01*
X165705839Y-111175000D01*
X165521661Y-111175000D01*
X165341021Y-111210932D01*
X165234063Y-111255235D01*
X165127104Y-111210932D01*
X164946464Y-111175000D01*
X164762286Y-111175000D01*
X164581646Y-111210932D01*
X164474688Y-111255235D01*
X164367729Y-111210932D01*
X164187089Y-111175000D01*
X164002911Y-111175000D01*
X163822271Y-111210932D01*
X163715313Y-111255235D01*
X163608354Y-111210932D01*
X163427714Y-111175000D01*
X163243536Y-111175000D01*
X163062896Y-111210932D01*
X162955938Y-111255235D01*
X162848979Y-111210932D01*
X162668339Y-111175000D01*
X162484161Y-111175000D01*
X162303521Y-111210932D01*
X162196563Y-111255235D01*
X162089604Y-111210932D01*
X161908964Y-111175000D01*
X161724786Y-111175000D01*
X161544146Y-111210932D01*
X161437188Y-111255235D01*
X161330229Y-111210932D01*
X161149589Y-111175000D01*
X160965411Y-111175000D01*
X160784771Y-111210932D01*
X160677813Y-111255235D01*
X160570854Y-111210932D01*
X160390214Y-111175000D01*
X160206036Y-111175000D01*
X160025396Y-111210932D01*
X159918438Y-111255235D01*
X159811479Y-111210932D01*
X159630839Y-111175000D01*
X159446661Y-111175000D01*
X159266021Y-111210932D01*
X159159063Y-111255235D01*
X159052104Y-111210932D01*
X158871464Y-111175000D01*
X158687286Y-111175000D01*
X158506646Y-111210932D01*
X158399688Y-111255235D01*
X158292729Y-111210932D01*
X158112089Y-111175000D01*
X157927911Y-111175000D01*
X157747271Y-111210932D01*
X157577111Y-111281414D01*
X157423972Y-111383738D01*
X157293738Y-111513972D01*
X157191414Y-111667111D01*
X157120932Y-111837271D01*
X157085000Y-112017911D01*
X157085000Y-112202089D01*
X157120932Y-112382729D01*
X157191414Y-112552889D01*
X157293738Y-112706028D01*
X157382710Y-112795000D01*
X157283738Y-112893972D01*
X157181414Y-113047111D01*
X157110932Y-113217271D01*
X157075000Y-113397911D01*
X157075000Y-113582089D01*
X157110932Y-113762729D01*
X157181414Y-113932889D01*
X157283738Y-114086028D01*
X157413972Y-114216262D01*
X157567111Y-114318586D01*
X157737271Y-114389068D01*
X157917911Y-114425000D01*
X158102089Y-114425000D01*
X158282729Y-114389068D01*
X158385000Y-114346706D01*
X158487271Y-114389068D01*
X158667911Y-114425000D01*
X158852089Y-114425000D01*
X159032729Y-114389068D01*
X159140000Y-114344635D01*
X159247271Y-114389068D01*
X159427911Y-114425000D01*
X159612089Y-114425000D01*
X159792729Y-114389068D01*
X159900000Y-114344635D01*
X160007271Y-114389068D01*
X160187911Y-114425000D01*
X160372089Y-114425000D01*
X160552729Y-114389068D01*
X160660000Y-114344635D01*
X160767271Y-114389068D01*
X160947911Y-114425000D01*
X161132089Y-114425000D01*
X161312729Y-114389068D01*
X161420000Y-114344635D01*
X161527271Y-114389068D01*
X161707911Y-114425000D01*
X161892089Y-114425000D01*
X162072729Y-114389068D01*
X162180000Y-114344635D01*
X162287271Y-114389068D01*
X162467911Y-114425000D01*
X162652089Y-114425000D01*
X162832729Y-114389068D01*
X162940000Y-114344635D01*
X163047271Y-114389068D01*
X163227911Y-114425000D01*
X163412089Y-114425000D01*
X163592729Y-114389068D01*
X163700000Y-114344635D01*
X163807271Y-114389068D01*
X163987911Y-114425000D01*
X164172089Y-114425000D01*
X164352729Y-114389068D01*
X164460000Y-114344635D01*
X164567271Y-114389068D01*
X164747911Y-114425000D01*
X164932089Y-114425000D01*
X165112729Y-114389068D01*
X165220000Y-114344635D01*
X165327271Y-114389068D01*
X165507911Y-114425000D01*
X165692089Y-114425000D01*
X165872729Y-114389068D01*
X165980000Y-114344635D01*
X166087271Y-114389068D01*
X166267911Y-114425000D01*
X166452089Y-114425000D01*
X166632729Y-114389068D01*
X166740000Y-114344635D01*
X166847271Y-114389068D01*
X167027911Y-114425000D01*
X167212089Y-114425000D01*
X167392729Y-114389068D01*
X167500000Y-114344635D01*
X167607271Y-114389068D01*
X167787911Y-114425000D01*
X167972089Y-114425000D01*
X168152729Y-114389068D01*
X168260000Y-114344635D01*
X168367271Y-114389068D01*
X168547911Y-114425000D01*
X168732089Y-114425000D01*
X168912729Y-114389068D01*
X169020000Y-114344635D01*
X169127271Y-114389068D01*
X169307911Y-114425000D01*
X169492089Y-114425000D01*
X169672729Y-114389068D01*
X169780000Y-114344635D01*
X169887271Y-114389068D01*
X170067911Y-114425000D01*
X170222583Y-114425000D01*
X170271414Y-114542889D01*
X170373738Y-114696028D01*
X170503972Y-114826262D01*
X170657111Y-114928586D01*
X170827271Y-114999068D01*
X171007911Y-115035000D01*
X171192089Y-115035000D01*
X171372729Y-114999068D01*
X171487500Y-114951529D01*
X171602271Y-114999068D01*
X171782911Y-115035000D01*
X171967089Y-115035000D01*
X172147729Y-114999068D01*
X172262500Y-114951529D01*
X172377271Y-114999068D01*
X172557911Y-115035000D01*
X172742089Y-115035000D01*
X172922729Y-114999068D01*
X173037500Y-114951529D01*
X173152271Y-114999068D01*
X173332911Y-115035000D01*
X173517089Y-115035000D01*
X173697729Y-114999068D01*
X173812500Y-114951529D01*
X173927271Y-114999068D01*
X174107911Y-115035000D01*
X174292089Y-115035000D01*
X174340001Y-115025470D01*
X174340001Y-115757933D01*
X174193539Y-115728800D01*
X173989661Y-115728800D01*
X173789702Y-115768574D01*
X173601344Y-115846595D01*
X173431826Y-115959863D01*
X173355000Y-116036689D01*
X173278174Y-115959863D01*
X173108656Y-115846595D01*
X172920298Y-115768574D01*
X172720339Y-115728800D01*
X172516461Y-115728800D01*
X172316502Y-115768574D01*
X172128144Y-115846595D01*
X171958626Y-115959863D01*
X171907200Y-116011289D01*
X171855774Y-115959863D01*
X171686256Y-115846595D01*
X171497898Y-115768574D01*
X171297939Y-115728800D01*
X171094061Y-115728800D01*
X170894102Y-115768574D01*
X170705744Y-115846595D01*
X170536226Y-115959863D01*
X170392063Y-116104026D01*
X170278795Y-116273544D01*
X170200774Y-116461902D01*
X170161000Y-116661861D01*
X170161000Y-116865739D01*
X170200774Y-117065698D01*
X170278795Y-117254056D01*
X170392063Y-117423574D01*
X170536226Y-117567737D01*
X170681791Y-117665000D01*
X170622285Y-117665000D01*
X169881372Y-117812377D01*
X169183446Y-118101467D01*
X168555330Y-118521161D01*
X168021161Y-119055330D01*
X167601467Y-119683446D01*
X167312377Y-120381372D01*
X167165000Y-121122285D01*
X167165000Y-121877715D01*
X167312377Y-122618628D01*
X167601467Y-123316554D01*
X168021161Y-123944670D01*
X168555330Y-124478839D01*
X169095845Y-124840000D01*
X98504155Y-124840000D01*
X99044670Y-124478839D01*
X99578839Y-123944670D01*
X99998533Y-123316554D01*
X100287623Y-122618628D01*
X100435000Y-121877715D01*
X100435000Y-121122285D01*
X100287623Y-120381372D01*
X100150365Y-120050000D01*
X104611928Y-120050000D01*
X104611928Y-121550000D01*
X104628992Y-121723254D01*
X104679528Y-121889850D01*
X104761595Y-122043386D01*
X104872038Y-122177962D01*
X105006614Y-122288405D01*
X105160150Y-122370472D01*
X105326746Y-122421008D01*
X105500000Y-122438072D01*
X106700000Y-122438072D01*
X106873254Y-122421008D01*
X107039850Y-122370472D01*
X107193386Y-122288405D01*
X107327962Y-122177962D01*
X107438405Y-122043386D01*
X107492777Y-121941663D01*
X107544866Y-122005134D01*
X107770987Y-122190706D01*
X108028967Y-122328599D01*
X108308890Y-122413513D01*
X108600000Y-122442185D01*
X108891111Y-122413513D01*
X109171034Y-122328599D01*
X109429014Y-122190706D01*
X109655134Y-122005134D01*
X109840706Y-121779014D01*
X109978599Y-121521033D01*
X110010142Y-121417050D01*
X138785000Y-121417050D01*
X138785000Y-121862949D01*
X138806487Y-122081110D01*
X138891401Y-122361033D01*
X139029294Y-122619013D01*
X139214866Y-122845134D01*
X139440986Y-123030706D01*
X139698966Y-123168599D01*
X139978889Y-123253513D01*
X140270000Y-123282185D01*
X140561110Y-123253513D01*
X140841033Y-123168599D01*
X141099013Y-123030706D01*
X141325134Y-122845134D01*
X141377223Y-122781663D01*
X141431595Y-122883386D01*
X141542038Y-123017962D01*
X141676614Y-123128405D01*
X141830150Y-123210472D01*
X141996746Y-123261008D01*
X142170000Y-123278072D01*
X143370000Y-123278072D01*
X143543254Y-123261008D01*
X143709850Y-123210472D01*
X143863386Y-123128405D01*
X143997962Y-123017962D01*
X144108405Y-122883386D01*
X144190472Y-122729850D01*
X144241008Y-122563254D01*
X144258072Y-122390000D01*
X144258072Y-121442050D01*
X147285000Y-121442050D01*
X147285000Y-121837949D01*
X147306487Y-122056110D01*
X147391401Y-122336033D01*
X147529294Y-122594013D01*
X147714866Y-122820134D01*
X147940986Y-123005706D01*
X148198966Y-123143599D01*
X148478889Y-123228513D01*
X148770000Y-123257185D01*
X149061110Y-123228513D01*
X149341033Y-123143599D01*
X149599013Y-123005706D01*
X149825134Y-122820134D01*
X150010706Y-122594014D01*
X150020000Y-122576626D01*
X150029294Y-122594013D01*
X150214866Y-122820134D01*
X150440986Y-123005706D01*
X150698966Y-123143599D01*
X150978889Y-123228513D01*
X151270000Y-123257185D01*
X151561110Y-123228513D01*
X151841033Y-123143599D01*
X152099013Y-123005706D01*
X152325134Y-122820134D01*
X152377223Y-122756663D01*
X152431595Y-122858386D01*
X152542038Y-122992962D01*
X152676614Y-123103405D01*
X152830150Y-123185472D01*
X152996746Y-123236008D01*
X153170000Y-123253072D01*
X154370000Y-123253072D01*
X154543254Y-123236008D01*
X154709850Y-123185472D01*
X154863386Y-123103405D01*
X154997962Y-122992962D01*
X155108405Y-122858386D01*
X155190472Y-122704850D01*
X155241008Y-122538254D01*
X155258072Y-122365000D01*
X155258072Y-120915000D01*
X155241008Y-120741746D01*
X155190472Y-120575150D01*
X155108405Y-120421614D01*
X154997962Y-120287038D01*
X154863386Y-120176595D01*
X154709850Y-120094528D01*
X154543254Y-120043992D01*
X154370000Y-120026928D01*
X153170000Y-120026928D01*
X152996746Y-120043992D01*
X152830150Y-120094528D01*
X152676614Y-120176595D01*
X152542038Y-120287038D01*
X152431595Y-120421614D01*
X152377223Y-120523337D01*
X152325134Y-120459866D01*
X152099014Y-120274294D01*
X151841034Y-120136401D01*
X151561111Y-120051487D01*
X151270000Y-120022815D01*
X150978890Y-120051487D01*
X150698967Y-120136401D01*
X150440987Y-120274294D01*
X150214866Y-120459866D01*
X150029294Y-120685986D01*
X150020000Y-120703374D01*
X150010706Y-120685986D01*
X149825134Y-120459866D01*
X149599014Y-120274294D01*
X149341034Y-120136401D01*
X149061111Y-120051487D01*
X148770000Y-120022815D01*
X148478890Y-120051487D01*
X148198967Y-120136401D01*
X147940987Y-120274294D01*
X147714866Y-120459866D01*
X147529294Y-120685986D01*
X147391401Y-120943966D01*
X147306487Y-121223889D01*
X147285000Y-121442050D01*
X144258072Y-121442050D01*
X144258072Y-120890000D01*
X144241008Y-120716746D01*
X144190472Y-120550150D01*
X144108405Y-120396614D01*
X143997962Y-120262038D01*
X143863386Y-120151595D01*
X143709850Y-120069528D01*
X143543254Y-120018992D01*
X143370000Y-120001928D01*
X142170000Y-120001928D01*
X141996746Y-120018992D01*
X141830150Y-120069528D01*
X141676614Y-120151595D01*
X141542038Y-120262038D01*
X141431595Y-120396614D01*
X141377223Y-120498337D01*
X141325134Y-120434866D01*
X141099014Y-120249294D01*
X140841034Y-120111401D01*
X140561111Y-120026487D01*
X140270000Y-119997815D01*
X139978890Y-120026487D01*
X139698967Y-120111401D01*
X139440987Y-120249294D01*
X139214866Y-120434866D01*
X139029294Y-120660986D01*
X138891401Y-120918966D01*
X138806487Y-121198889D01*
X138785000Y-121417050D01*
X110010142Y-121417050D01*
X110063513Y-121241110D01*
X110085000Y-121022949D01*
X110085000Y-120577050D01*
X110063513Y-120358889D01*
X109978599Y-120078966D01*
X109840706Y-119820986D01*
X109655134Y-119594866D01*
X109429013Y-119409294D01*
X109171033Y-119271401D01*
X108891110Y-119186487D01*
X108600000Y-119157815D01*
X108308889Y-119186487D01*
X108028966Y-119271401D01*
X107770986Y-119409294D01*
X107544866Y-119594866D01*
X107492777Y-119658337D01*
X107438405Y-119556614D01*
X107327962Y-119422038D01*
X107193386Y-119311595D01*
X107039850Y-119229528D01*
X106873254Y-119178992D01*
X106700000Y-119161928D01*
X105500000Y-119161928D01*
X105326746Y-119178992D01*
X105160150Y-119229528D01*
X105006614Y-119311595D01*
X104872038Y-119422038D01*
X104761595Y-119556614D01*
X104679528Y-119710150D01*
X104628992Y-119876746D01*
X104611928Y-120050000D01*
X100150365Y-120050000D01*
X99998533Y-119683446D01*
X99578839Y-119055330D01*
X99044670Y-118521161D01*
X98416554Y-118101467D01*
X97718628Y-117812377D01*
X96977715Y-117665000D01*
X96222285Y-117665000D01*
X95481372Y-117812377D01*
X94783446Y-118101467D01*
X94155330Y-118521161D01*
X93621161Y-119055330D01*
X93201467Y-119683446D01*
X93160000Y-119783556D01*
X93160000Y-114769721D01*
X94915000Y-114769721D01*
X94915000Y-115190279D01*
X94997047Y-115602756D01*
X95157988Y-115991302D01*
X95391637Y-116340983D01*
X95689017Y-116638363D01*
X96038698Y-116872012D01*
X96427244Y-117032953D01*
X96839721Y-117115000D01*
X97260279Y-117115000D01*
X97672756Y-117032953D01*
X98061302Y-116872012D01*
X98410983Y-116638363D01*
X98671435Y-116377911D01*
X122355000Y-116377911D01*
X122355000Y-116562089D01*
X122390932Y-116742729D01*
X122461414Y-116912889D01*
X122563738Y-117066028D01*
X122693972Y-117196262D01*
X122847111Y-117298586D01*
X123017271Y-117369068D01*
X123197911Y-117405000D01*
X123382089Y-117405000D01*
X123562729Y-117369068D01*
X123732889Y-117298586D01*
X123886028Y-117196262D01*
X124016262Y-117066028D01*
X124118586Y-116912889D01*
X124189068Y-116742729D01*
X124225000Y-116562089D01*
X124225000Y-116377911D01*
X124189068Y-116197271D01*
X124118586Y-116027111D01*
X124016262Y-115873972D01*
X123886028Y-115743738D01*
X123732889Y-115641414D01*
X123562729Y-115570932D01*
X123382089Y-115535000D01*
X123197911Y-115535000D01*
X123017271Y-115570932D01*
X122847111Y-115641414D01*
X122693972Y-115743738D01*
X122563738Y-115873972D01*
X122461414Y-116027111D01*
X122390932Y-116197271D01*
X122355000Y-116377911D01*
X98671435Y-116377911D01*
X98708363Y-116340983D01*
X98942012Y-115991302D01*
X99102953Y-115602756D01*
X99185000Y-115190279D01*
X99185000Y-114769721D01*
X99102953Y-114357244D01*
X98942012Y-113968698D01*
X98708363Y-113619017D01*
X98410983Y-113321637D01*
X98061302Y-113087988D01*
X97672756Y-112927047D01*
X97260279Y-112845000D01*
X96839721Y-112845000D01*
X96427244Y-112927047D01*
X96038698Y-113087988D01*
X95689017Y-113321637D01*
X95391637Y-113619017D01*
X95157988Y-113968698D01*
X94997047Y-114357244D01*
X94915000Y-114769721D01*
X93160000Y-114769721D01*
X93160000Y-112298061D01*
X153865000Y-112298061D01*
X153865000Y-112501939D01*
X153904774Y-112701898D01*
X153924699Y-112750000D01*
X153904774Y-112798102D01*
X153865000Y-112998061D01*
X153865000Y-113201939D01*
X153904774Y-113401898D01*
X153982795Y-113590256D01*
X154096063Y-113759774D01*
X154240226Y-113903937D01*
X154409744Y-114017205D01*
X154598102Y-114095226D01*
X154798061Y-114135000D01*
X155001939Y-114135000D01*
X155201898Y-114095226D01*
X155390256Y-114017205D01*
X155559774Y-113903937D01*
X155703937Y-113759774D01*
X155817205Y-113590256D01*
X155895226Y-113401898D01*
X155935000Y-113201939D01*
X155935000Y-112998061D01*
X155895226Y-112798102D01*
X155875301Y-112750000D01*
X155895226Y-112701898D01*
X155935000Y-112501939D01*
X155935000Y-112298061D01*
X155895226Y-112098102D01*
X155817205Y-111909744D01*
X155703937Y-111740226D01*
X155559774Y-111596063D01*
X155390256Y-111482795D01*
X155201898Y-111404774D01*
X155001939Y-111365000D01*
X154798061Y-111365000D01*
X154598102Y-111404774D01*
X154409744Y-111482795D01*
X154240226Y-111596063D01*
X154096063Y-111740226D01*
X153982795Y-111909744D01*
X153904774Y-112098102D01*
X153865000Y-112298061D01*
X93160000Y-112298061D01*
X93160000Y-108400000D01*
X94911928Y-108400000D01*
X94911928Y-111400000D01*
X94924188Y-111524482D01*
X94960498Y-111644180D01*
X95019463Y-111754494D01*
X95098815Y-111851185D01*
X95195506Y-111930537D01*
X95305820Y-111989502D01*
X95425518Y-112025812D01*
X95550000Y-112038072D01*
X98550000Y-112038072D01*
X98674482Y-112025812D01*
X98794180Y-111989502D01*
X98904494Y-111930537D01*
X99001185Y-111851185D01*
X99080537Y-111754494D01*
X99139502Y-111644180D01*
X99175812Y-111524482D01*
X99188072Y-111400000D01*
X99188072Y-109741768D01*
X102035000Y-109741768D01*
X102035000Y-110103232D01*
X102105518Y-110457750D01*
X102243844Y-110791699D01*
X102444662Y-111092244D01*
X102700256Y-111347838D01*
X103000801Y-111548656D01*
X103334750Y-111686982D01*
X103689268Y-111757500D01*
X104050732Y-111757500D01*
X104405250Y-111686982D01*
X104739199Y-111548656D01*
X105039744Y-111347838D01*
X105295338Y-111092244D01*
X105496156Y-110791699D01*
X105634482Y-110457750D01*
X105705000Y-110103232D01*
X105705000Y-109741768D01*
X107115000Y-109741768D01*
X107115000Y-110103232D01*
X107185518Y-110457750D01*
X107323844Y-110791699D01*
X107524662Y-111092244D01*
X107780256Y-111347838D01*
X108080801Y-111548656D01*
X108414750Y-111686982D01*
X108769268Y-111757500D01*
X109130732Y-111757500D01*
X109485250Y-111686982D01*
X109819199Y-111548656D01*
X110119744Y-111347838D01*
X110375338Y-111092244D01*
X110493633Y-110915202D01*
X118296903Y-110915202D01*
X118368486Y-111159171D01*
X118623996Y-111280071D01*
X118898184Y-111348800D01*
X119180512Y-111362717D01*
X119460130Y-111321287D01*
X119726292Y-111226103D01*
X119851514Y-111159171D01*
X119923097Y-110915202D01*
X119110000Y-110102105D01*
X118296903Y-110915202D01*
X110493633Y-110915202D01*
X110576156Y-110791699D01*
X110714482Y-110457750D01*
X110785000Y-110103232D01*
X110785000Y-109993012D01*
X117669783Y-109993012D01*
X117711213Y-110272630D01*
X117806397Y-110538792D01*
X117873329Y-110664014D01*
X118117298Y-110735597D01*
X118930395Y-109922500D01*
X119289605Y-109922500D01*
X120102702Y-110735597D01*
X120346671Y-110664014D01*
X120377194Y-110599508D01*
X120378320Y-110602227D01*
X120535363Y-110837259D01*
X120735241Y-111037137D01*
X120970273Y-111194180D01*
X121231426Y-111302353D01*
X121508665Y-111357500D01*
X121791335Y-111357500D01*
X122068574Y-111302353D01*
X122329727Y-111194180D01*
X122564759Y-111037137D01*
X122764637Y-110837259D01*
X122921680Y-110602227D01*
X123029853Y-110341074D01*
X123085000Y-110063835D01*
X123085000Y-109781165D01*
X123029853Y-109503926D01*
X122921680Y-109242773D01*
X122764637Y-109007741D01*
X122564759Y-108807863D01*
X122329727Y-108650820D01*
X122068574Y-108542647D01*
X121791335Y-108487500D01*
X121508665Y-108487500D01*
X121231426Y-108542647D01*
X120970273Y-108650820D01*
X120735241Y-108807863D01*
X120535363Y-109007741D01*
X120379085Y-109241628D01*
X120346671Y-109180986D01*
X120102702Y-109109403D01*
X119289605Y-109922500D01*
X118930395Y-109922500D01*
X118117298Y-109109403D01*
X117873329Y-109180986D01*
X117752429Y-109436496D01*
X117683700Y-109710684D01*
X117669783Y-109993012D01*
X110785000Y-109993012D01*
X110785000Y-109741768D01*
X110714482Y-109387250D01*
X110576156Y-109053301D01*
X110493634Y-108929798D01*
X118296903Y-108929798D01*
X119110000Y-109742895D01*
X119923097Y-108929798D01*
X119851514Y-108685829D01*
X119596004Y-108564929D01*
X119321816Y-108496200D01*
X119039488Y-108482283D01*
X118759870Y-108523713D01*
X118493708Y-108618897D01*
X118368486Y-108685829D01*
X118296903Y-108929798D01*
X110493634Y-108929798D01*
X110375338Y-108752756D01*
X110119744Y-108497162D01*
X109819199Y-108296344D01*
X109485250Y-108158018D01*
X109130732Y-108087500D01*
X108769268Y-108087500D01*
X108414750Y-108158018D01*
X108080801Y-108296344D01*
X107780256Y-108497162D01*
X107524662Y-108752756D01*
X107323844Y-109053301D01*
X107185518Y-109387250D01*
X107115000Y-109741768D01*
X105705000Y-109741768D01*
X105634482Y-109387250D01*
X105496156Y-109053301D01*
X105295338Y-108752756D01*
X105039744Y-108497162D01*
X104739199Y-108296344D01*
X104405250Y-108158018D01*
X104050732Y-108087500D01*
X103689268Y-108087500D01*
X103334750Y-108158018D01*
X103000801Y-108296344D01*
X102700256Y-108497162D01*
X102444662Y-108752756D01*
X102243844Y-109053301D01*
X102105518Y-109387250D01*
X102035000Y-109741768D01*
X99188072Y-109741768D01*
X99188072Y-108400000D01*
X99175812Y-108275518D01*
X99139502Y-108155820D01*
X99080537Y-108045506D01*
X99025187Y-107978061D01*
X124235000Y-107978061D01*
X124235000Y-108181939D01*
X124274774Y-108381898D01*
X124352795Y-108570256D01*
X124466063Y-108739774D01*
X124610226Y-108883937D01*
X124779744Y-108997205D01*
X124968102Y-109075226D01*
X125168061Y-109115000D01*
X125371939Y-109115000D01*
X125571898Y-109075226D01*
X125760256Y-108997205D01*
X125929774Y-108883937D01*
X126073937Y-108739774D01*
X126187205Y-108570256D01*
X126265226Y-108381898D01*
X126305000Y-108181939D01*
X126305000Y-107978061D01*
X126265226Y-107778102D01*
X126187205Y-107589744D01*
X126073937Y-107420226D01*
X125929774Y-107276063D01*
X125760256Y-107162795D01*
X125571898Y-107084774D01*
X125371939Y-107045000D01*
X125168061Y-107045000D01*
X124968102Y-107084774D01*
X124779744Y-107162795D01*
X124610226Y-107276063D01*
X124466063Y-107420226D01*
X124352795Y-107589744D01*
X124274774Y-107778102D01*
X124235000Y-107978061D01*
X99025187Y-107978061D01*
X99001185Y-107948815D01*
X98904494Y-107869463D01*
X98794180Y-107810498D01*
X98674482Y-107774188D01*
X98550000Y-107761928D01*
X95550000Y-107761928D01*
X95425518Y-107774188D01*
X95305820Y-107810498D01*
X95195506Y-107869463D01*
X95098815Y-107948815D01*
X95019463Y-108045506D01*
X94960498Y-108155820D01*
X94924188Y-108275518D01*
X94911928Y-108400000D01*
X93160000Y-108400000D01*
X93160000Y-103869721D01*
X94915000Y-103869721D01*
X94915000Y-104290279D01*
X94997047Y-104702756D01*
X95157988Y-105091302D01*
X95391637Y-105440983D01*
X95689017Y-105738363D01*
X96038698Y-105972012D01*
X96427244Y-106132953D01*
X96839721Y-106215000D01*
X97260279Y-106215000D01*
X97672756Y-106132953D01*
X98061302Y-105972012D01*
X98410983Y-105738363D01*
X98708363Y-105440983D01*
X98942012Y-105091302D01*
X99102953Y-104702756D01*
X99105905Y-104687911D01*
X122315000Y-104687911D01*
X122315000Y-104872089D01*
X122350932Y-105052729D01*
X122421414Y-105222889D01*
X122523738Y-105376028D01*
X122653972Y-105506262D01*
X122807111Y-105608586D01*
X122977271Y-105679068D01*
X123157911Y-105715000D01*
X123342089Y-105715000D01*
X123522729Y-105679068D01*
X123692889Y-105608586D01*
X123846028Y-105506262D01*
X123976262Y-105376028D01*
X124078586Y-105222889D01*
X124149068Y-105052729D01*
X124185000Y-104872089D01*
X124185000Y-104687911D01*
X124149068Y-104507271D01*
X124078586Y-104337111D01*
X123976262Y-104183972D01*
X123846028Y-104053738D01*
X123692889Y-103951414D01*
X123522729Y-103880932D01*
X123342089Y-103845000D01*
X123157911Y-103845000D01*
X122977271Y-103880932D01*
X122807111Y-103951414D01*
X122653972Y-104053738D01*
X122523738Y-104183972D01*
X122421414Y-104337111D01*
X122350932Y-104507271D01*
X122315000Y-104687911D01*
X99105905Y-104687911D01*
X99185000Y-104290279D01*
X99185000Y-103869721D01*
X99102953Y-103457244D01*
X98942012Y-103068698D01*
X98708363Y-102719017D01*
X98410983Y-102421637D01*
X98061302Y-102187988D01*
X97672756Y-102027047D01*
X97260279Y-101945000D01*
X96839721Y-101945000D01*
X96427244Y-102027047D01*
X96038698Y-102187988D01*
X95689017Y-102421637D01*
X95391637Y-102719017D01*
X95157988Y-103068698D01*
X94997047Y-103457244D01*
X94915000Y-103869721D01*
X93160000Y-103869721D01*
X93160000Y-97500000D01*
X94911928Y-97500000D01*
X94911928Y-100500000D01*
X94924188Y-100624482D01*
X94960498Y-100744180D01*
X95019463Y-100854494D01*
X95098815Y-100951185D01*
X95195506Y-101030537D01*
X95305820Y-101089502D01*
X95425518Y-101125812D01*
X95550000Y-101138072D01*
X98550000Y-101138072D01*
X98674482Y-101125812D01*
X98794180Y-101089502D01*
X98904494Y-101030537D01*
X99001185Y-100951185D01*
X99080537Y-100854494D01*
X99139502Y-100744180D01*
X99175812Y-100624482D01*
X99188072Y-100500000D01*
X99188072Y-98841768D01*
X102035000Y-98841768D01*
X102035000Y-99203232D01*
X102105518Y-99557750D01*
X102243844Y-99891699D01*
X102444662Y-100192244D01*
X102700256Y-100447838D01*
X103000801Y-100648656D01*
X103334750Y-100786982D01*
X103689268Y-100857500D01*
X104050732Y-100857500D01*
X104405250Y-100786982D01*
X104739199Y-100648656D01*
X105039744Y-100447838D01*
X105295338Y-100192244D01*
X105496156Y-99891699D01*
X105634482Y-99557750D01*
X105705000Y-99203232D01*
X105705000Y-98841768D01*
X107115000Y-98841768D01*
X107115000Y-99203232D01*
X107185518Y-99557750D01*
X107323844Y-99891699D01*
X107524662Y-100192244D01*
X107780256Y-100447838D01*
X108080801Y-100648656D01*
X108414750Y-100786982D01*
X108769268Y-100857500D01*
X109130732Y-100857500D01*
X109485250Y-100786982D01*
X109819199Y-100648656D01*
X110119744Y-100447838D01*
X110375338Y-100192244D01*
X110493633Y-100015202D01*
X118296903Y-100015202D01*
X118368486Y-100259171D01*
X118623996Y-100380071D01*
X118898184Y-100448800D01*
X119180512Y-100462717D01*
X119460130Y-100421287D01*
X119726292Y-100326103D01*
X119851514Y-100259171D01*
X119923097Y-100015202D01*
X119110000Y-99202105D01*
X118296903Y-100015202D01*
X110493633Y-100015202D01*
X110576156Y-99891699D01*
X110714482Y-99557750D01*
X110785000Y-99203232D01*
X110785000Y-99093012D01*
X117669783Y-99093012D01*
X117711213Y-99372630D01*
X117806397Y-99638792D01*
X117873329Y-99764014D01*
X118117298Y-99835597D01*
X118930395Y-99022500D01*
X119289605Y-99022500D01*
X120102702Y-99835597D01*
X120346671Y-99764014D01*
X120377194Y-99699508D01*
X120378320Y-99702227D01*
X120535363Y-99937259D01*
X120735241Y-100137137D01*
X120970273Y-100294180D01*
X121231426Y-100402353D01*
X121508665Y-100457500D01*
X121791335Y-100457500D01*
X122068574Y-100402353D01*
X122329727Y-100294180D01*
X122564759Y-100137137D01*
X122764637Y-99937259D01*
X122921680Y-99702227D01*
X123029853Y-99441074D01*
X123085000Y-99163835D01*
X123085000Y-98881165D01*
X123029853Y-98603926D01*
X122921680Y-98342773D01*
X122764637Y-98107741D01*
X122756896Y-98100000D01*
X162261928Y-98100000D01*
X162274188Y-98224482D01*
X162310498Y-98344180D01*
X162369463Y-98454494D01*
X162448815Y-98551185D01*
X162545506Y-98630537D01*
X162655820Y-98689502D01*
X162775518Y-98725812D01*
X162900000Y-98738072D01*
X163614250Y-98735000D01*
X163773000Y-98576250D01*
X163773000Y-97227000D01*
X164027000Y-97227000D01*
X164027000Y-98576250D01*
X164185750Y-98735000D01*
X164900000Y-98738072D01*
X165024482Y-98725812D01*
X165144180Y-98689502D01*
X165254494Y-98630537D01*
X165351185Y-98551185D01*
X165430537Y-98454494D01*
X165489502Y-98344180D01*
X165525812Y-98224482D01*
X165538072Y-98100000D01*
X165535000Y-97385750D01*
X165376250Y-97227000D01*
X164027000Y-97227000D01*
X163773000Y-97227000D01*
X162423750Y-97227000D01*
X162265000Y-97385750D01*
X162261928Y-98100000D01*
X122756896Y-98100000D01*
X122564759Y-97907863D01*
X122329727Y-97750820D01*
X122068574Y-97642647D01*
X121791335Y-97587500D01*
X121508665Y-97587500D01*
X121231426Y-97642647D01*
X120970273Y-97750820D01*
X120735241Y-97907863D01*
X120535363Y-98107741D01*
X120379085Y-98341628D01*
X120346671Y-98280986D01*
X120102702Y-98209403D01*
X119289605Y-99022500D01*
X118930395Y-99022500D01*
X118117298Y-98209403D01*
X117873329Y-98280986D01*
X117752429Y-98536496D01*
X117683700Y-98810684D01*
X117669783Y-99093012D01*
X110785000Y-99093012D01*
X110785000Y-98841768D01*
X110714482Y-98487250D01*
X110576156Y-98153301D01*
X110493634Y-98029798D01*
X118296903Y-98029798D01*
X119110000Y-98842895D01*
X119923097Y-98029798D01*
X119851514Y-97785829D01*
X119596004Y-97664929D01*
X119321816Y-97596200D01*
X119039488Y-97582283D01*
X118759870Y-97623713D01*
X118493708Y-97718897D01*
X118368486Y-97785829D01*
X118296903Y-98029798D01*
X110493634Y-98029798D01*
X110375338Y-97852756D01*
X110119744Y-97597162D01*
X109819199Y-97396344D01*
X109485250Y-97258018D01*
X109130732Y-97187500D01*
X108769268Y-97187500D01*
X108414750Y-97258018D01*
X108080801Y-97396344D01*
X107780256Y-97597162D01*
X107524662Y-97852756D01*
X107323844Y-98153301D01*
X107185518Y-98487250D01*
X107115000Y-98841768D01*
X105705000Y-98841768D01*
X105634482Y-98487250D01*
X105496156Y-98153301D01*
X105295338Y-97852756D01*
X105039744Y-97597162D01*
X104739199Y-97396344D01*
X104405250Y-97258018D01*
X104050732Y-97187500D01*
X103689268Y-97187500D01*
X103334750Y-97258018D01*
X103000801Y-97396344D01*
X102700256Y-97597162D01*
X102444662Y-97852756D01*
X102243844Y-98153301D01*
X102105518Y-98487250D01*
X102035000Y-98841768D01*
X99188072Y-98841768D01*
X99188072Y-97500000D01*
X99175812Y-97375518D01*
X99139502Y-97255820D01*
X99080537Y-97145506D01*
X99001185Y-97048815D01*
X98904494Y-96969463D01*
X98794180Y-96910498D01*
X98674482Y-96874188D01*
X98550000Y-96861928D01*
X95550000Y-96861928D01*
X95425518Y-96874188D01*
X95305820Y-96910498D01*
X95195506Y-96969463D01*
X95098815Y-97048815D01*
X95019463Y-97145506D01*
X94960498Y-97255820D01*
X94924188Y-97375518D01*
X94911928Y-97500000D01*
X93160000Y-97500000D01*
X93160000Y-96100000D01*
X162261928Y-96100000D01*
X162265000Y-96814250D01*
X162423750Y-96973000D01*
X163773000Y-96973000D01*
X163773000Y-95623750D01*
X164027000Y-95623750D01*
X164027000Y-96973000D01*
X165376250Y-96973000D01*
X165535000Y-96814250D01*
X165538072Y-96100000D01*
X165525812Y-95975518D01*
X165489502Y-95855820D01*
X165430537Y-95745506D01*
X165351185Y-95648815D01*
X165254494Y-95569463D01*
X165144180Y-95510498D01*
X165024482Y-95474188D01*
X164900000Y-95461928D01*
X164185750Y-95465000D01*
X164027000Y-95623750D01*
X163773000Y-95623750D01*
X163614250Y-95465000D01*
X162900000Y-95461928D01*
X162775518Y-95474188D01*
X162655820Y-95510498D01*
X162545506Y-95569463D01*
X162448815Y-95648815D01*
X162369463Y-95745506D01*
X162310498Y-95855820D01*
X162274188Y-95975518D01*
X162261928Y-96100000D01*
X93160000Y-96100000D01*
X93160000Y-94198061D01*
X118865000Y-94198061D01*
X118865000Y-94401939D01*
X118904774Y-94601898D01*
X118982795Y-94790256D01*
X119096063Y-94959774D01*
X119240226Y-95103937D01*
X119409744Y-95217205D01*
X119598102Y-95295226D01*
X119798061Y-95335000D01*
X120001939Y-95335000D01*
X120201898Y-95295226D01*
X120390256Y-95217205D01*
X120559774Y-95103937D01*
X120703937Y-94959774D01*
X120817205Y-94790256D01*
X120895226Y-94601898D01*
X120935000Y-94401939D01*
X120935000Y-94198061D01*
X120895226Y-93998102D01*
X120875302Y-93950000D01*
X126731928Y-93950000D01*
X126744188Y-94074482D01*
X126780498Y-94194180D01*
X126839463Y-94304494D01*
X126918815Y-94401185D01*
X127015506Y-94480537D01*
X127125820Y-94539502D01*
X127245518Y-94575812D01*
X127370000Y-94588072D01*
X127934250Y-94585000D01*
X128093000Y-94426250D01*
X128093000Y-93227000D01*
X126893750Y-93227000D01*
X126735000Y-93385750D01*
X126731928Y-93950000D01*
X120875302Y-93950000D01*
X120817205Y-93809744D01*
X120703937Y-93640226D01*
X120559774Y-93496063D01*
X120390256Y-93382795D01*
X120201898Y-93304774D01*
X120001939Y-93265000D01*
X119798061Y-93265000D01*
X119598102Y-93304774D01*
X119409744Y-93382795D01*
X119240226Y-93496063D01*
X119096063Y-93640226D01*
X118982795Y-93809744D01*
X118904774Y-93998102D01*
X118865000Y-94198061D01*
X93160000Y-94198061D01*
X93160000Y-91298061D01*
X95565000Y-91298061D01*
X95565000Y-91501939D01*
X95604774Y-91701898D01*
X95682795Y-91890256D01*
X95796063Y-92059774D01*
X95940226Y-92203937D01*
X96109744Y-92317205D01*
X96298102Y-92395226D01*
X96498061Y-92435000D01*
X96701939Y-92435000D01*
X96901898Y-92395226D01*
X97090256Y-92317205D01*
X97259774Y-92203937D01*
X97403937Y-92059774D01*
X97517205Y-91890256D01*
X97550000Y-91811082D01*
X97582795Y-91890256D01*
X97696063Y-92059774D01*
X97840226Y-92203937D01*
X98009744Y-92317205D01*
X98198102Y-92395226D01*
X98398061Y-92435000D01*
X98601939Y-92435000D01*
X98801898Y-92395226D01*
X98990256Y-92317205D01*
X99159774Y-92203937D01*
X99303937Y-92059774D01*
X99417205Y-91890256D01*
X99495226Y-91701898D01*
X99535000Y-91501939D01*
X99535000Y-91298061D01*
X104365000Y-91298061D01*
X104365000Y-91501939D01*
X104404774Y-91701898D01*
X104482795Y-91890256D01*
X104596063Y-92059774D01*
X104740226Y-92203937D01*
X104909744Y-92317205D01*
X105098102Y-92395226D01*
X105298061Y-92435000D01*
X105501939Y-92435000D01*
X105701898Y-92395226D01*
X105890256Y-92317205D01*
X106059774Y-92203937D01*
X106203937Y-92059774D01*
X106317205Y-91890256D01*
X106395226Y-91701898D01*
X106400000Y-91677897D01*
X106404774Y-91701898D01*
X106482795Y-91890256D01*
X106596063Y-92059774D01*
X106740226Y-92203937D01*
X106909744Y-92317205D01*
X107098102Y-92395226D01*
X107298061Y-92435000D01*
X107501939Y-92435000D01*
X107701898Y-92395226D01*
X107890256Y-92317205D01*
X107990835Y-92250000D01*
X126731928Y-92250000D01*
X126735000Y-92814250D01*
X126893750Y-92973000D01*
X128093000Y-92973000D01*
X128093000Y-91773750D01*
X128347000Y-91773750D01*
X128347000Y-92973000D01*
X128367000Y-92973000D01*
X128367000Y-93227000D01*
X128347000Y-93227000D01*
X128347000Y-94426250D01*
X128505750Y-94585000D01*
X129070000Y-94588072D01*
X129194482Y-94575812D01*
X129314180Y-94539502D01*
X129424494Y-94480537D01*
X129521185Y-94401185D01*
X129600537Y-94304494D01*
X129659502Y-94194180D01*
X129680393Y-94125313D01*
X129704866Y-94155134D01*
X129930986Y-94340706D01*
X130188966Y-94478599D01*
X130468889Y-94563513D01*
X130687050Y-94585000D01*
X130832950Y-94585000D01*
X131051111Y-94563513D01*
X131331034Y-94478599D01*
X131589014Y-94340706D01*
X131815134Y-94155134D01*
X132000706Y-93929014D01*
X132030000Y-93874209D01*
X132059294Y-93929014D01*
X132244866Y-94155134D01*
X132470986Y-94340706D01*
X132728966Y-94478599D01*
X133008889Y-94563513D01*
X133227050Y-94585000D01*
X133372950Y-94585000D01*
X133591111Y-94563513D01*
X133871034Y-94478599D01*
X134129014Y-94340706D01*
X134355134Y-94155134D01*
X134540706Y-93929014D01*
X134570000Y-93874209D01*
X134599294Y-93929014D01*
X134784866Y-94155134D01*
X135010986Y-94340706D01*
X135268966Y-94478599D01*
X135548889Y-94563513D01*
X135767050Y-94585000D01*
X135912950Y-94585000D01*
X136131111Y-94563513D01*
X136411034Y-94478599D01*
X136669014Y-94340706D01*
X136895134Y-94155134D01*
X137080706Y-93929014D01*
X137218599Y-93671034D01*
X137303513Y-93391111D01*
X137332185Y-93100000D01*
X137303513Y-92808889D01*
X137218599Y-92528966D01*
X137080706Y-92270986D01*
X136895134Y-92044866D01*
X136766096Y-91938967D01*
X162265000Y-91938967D01*
X162265000Y-92261033D01*
X162327832Y-92576912D01*
X162451082Y-92874463D01*
X162630013Y-93142252D01*
X162857748Y-93369987D01*
X163125537Y-93548918D01*
X163423088Y-93672168D01*
X163738967Y-93735000D01*
X164061033Y-93735000D01*
X164376912Y-93672168D01*
X164674463Y-93548918D01*
X164942252Y-93369987D01*
X165169987Y-93142252D01*
X165348918Y-92874463D01*
X165472168Y-92576912D01*
X165535000Y-92261033D01*
X165535000Y-91938967D01*
X165472168Y-91623088D01*
X165348918Y-91325537D01*
X165169987Y-91057748D01*
X164942252Y-90830013D01*
X164674463Y-90651082D01*
X164376912Y-90527832D01*
X164061033Y-90465000D01*
X163738967Y-90465000D01*
X163423088Y-90527832D01*
X163125537Y-90651082D01*
X162857748Y-90830013D01*
X162630013Y-91057748D01*
X162451082Y-91325537D01*
X162327832Y-91623088D01*
X162265000Y-91938967D01*
X136766096Y-91938967D01*
X136669014Y-91859294D01*
X136411034Y-91721401D01*
X136131111Y-91636487D01*
X135912950Y-91615000D01*
X135767050Y-91615000D01*
X135548889Y-91636487D01*
X135268966Y-91721401D01*
X135010986Y-91859294D01*
X134784866Y-92044866D01*
X134599294Y-92270986D01*
X134570000Y-92325791D01*
X134540706Y-92270986D01*
X134355134Y-92044866D01*
X134129014Y-91859294D01*
X133871034Y-91721401D01*
X133591111Y-91636487D01*
X133372950Y-91615000D01*
X133227050Y-91615000D01*
X133008889Y-91636487D01*
X132728966Y-91721401D01*
X132470986Y-91859294D01*
X132244866Y-92044866D01*
X132059294Y-92270986D01*
X132030000Y-92325791D01*
X132000706Y-92270986D01*
X131815134Y-92044866D01*
X131589014Y-91859294D01*
X131331034Y-91721401D01*
X131051111Y-91636487D01*
X130832950Y-91615000D01*
X130687050Y-91615000D01*
X130468889Y-91636487D01*
X130188966Y-91721401D01*
X129930986Y-91859294D01*
X129704866Y-92044866D01*
X129680393Y-92074687D01*
X129659502Y-92005820D01*
X129600537Y-91895506D01*
X129521185Y-91798815D01*
X129424494Y-91719463D01*
X129314180Y-91660498D01*
X129194482Y-91624188D01*
X129070000Y-91611928D01*
X128505750Y-91615000D01*
X128347000Y-91773750D01*
X128093000Y-91773750D01*
X127934250Y-91615000D01*
X127370000Y-91611928D01*
X127245518Y-91624188D01*
X127125820Y-91660498D01*
X127015506Y-91719463D01*
X126918815Y-91798815D01*
X126839463Y-91895506D01*
X126780498Y-92005820D01*
X126744188Y-92125518D01*
X126731928Y-92250000D01*
X107990835Y-92250000D01*
X108059774Y-92203937D01*
X108203937Y-92059774D01*
X108317205Y-91890256D01*
X108395226Y-91701898D01*
X108435000Y-91501939D01*
X108435000Y-91298061D01*
X108395226Y-91098102D01*
X108317205Y-90909744D01*
X108203937Y-90740226D01*
X108059774Y-90596063D01*
X107987934Y-90548061D01*
X117065000Y-90548061D01*
X117065000Y-90751939D01*
X117104774Y-90951898D01*
X117182795Y-91140256D01*
X117296063Y-91309774D01*
X117440226Y-91453937D01*
X117609744Y-91567205D01*
X117798102Y-91645226D01*
X117998061Y-91685000D01*
X118201939Y-91685000D01*
X118401898Y-91645226D01*
X118590256Y-91567205D01*
X118759774Y-91453937D01*
X118903937Y-91309774D01*
X119017205Y-91140256D01*
X119095226Y-90951898D01*
X119135000Y-90751939D01*
X119135000Y-90572343D01*
X120327510Y-90572343D01*
X120327510Y-90776221D01*
X120367284Y-90976180D01*
X120445305Y-91164538D01*
X120558573Y-91334056D01*
X120702736Y-91478219D01*
X120872254Y-91591487D01*
X121060612Y-91669508D01*
X121260571Y-91709282D01*
X121464449Y-91709282D01*
X121664408Y-91669508D01*
X121852766Y-91591487D01*
X122022284Y-91478219D01*
X122166447Y-91334056D01*
X122279715Y-91164538D01*
X122357736Y-90976180D01*
X122397510Y-90776221D01*
X122397510Y-90572343D01*
X122357736Y-90372384D01*
X122279715Y-90184026D01*
X122166447Y-90014508D01*
X122022284Y-89870345D01*
X121852766Y-89757077D01*
X121664408Y-89679056D01*
X121464449Y-89639282D01*
X121260571Y-89639282D01*
X121060612Y-89679056D01*
X120872254Y-89757077D01*
X120702736Y-89870345D01*
X120558573Y-90014508D01*
X120445305Y-90184026D01*
X120367284Y-90372384D01*
X120327510Y-90572343D01*
X119135000Y-90572343D01*
X119135000Y-90548061D01*
X119095226Y-90348102D01*
X119017205Y-90159744D01*
X118903937Y-89990226D01*
X118759774Y-89846063D01*
X118590256Y-89732795D01*
X118401898Y-89654774D01*
X118201939Y-89615000D01*
X117998061Y-89615000D01*
X117798102Y-89654774D01*
X117609744Y-89732795D01*
X117440226Y-89846063D01*
X117296063Y-89990226D01*
X117182795Y-90159744D01*
X117104774Y-90348102D01*
X117065000Y-90548061D01*
X107987934Y-90548061D01*
X107890256Y-90482795D01*
X107701898Y-90404774D01*
X107501939Y-90365000D01*
X107298061Y-90365000D01*
X107098102Y-90404774D01*
X106909744Y-90482795D01*
X106740226Y-90596063D01*
X106596063Y-90740226D01*
X106482795Y-90909744D01*
X106404774Y-91098102D01*
X106400000Y-91122103D01*
X106395226Y-91098102D01*
X106317205Y-90909744D01*
X106203937Y-90740226D01*
X106059774Y-90596063D01*
X105890256Y-90482795D01*
X105701898Y-90404774D01*
X105501939Y-90365000D01*
X105298061Y-90365000D01*
X105098102Y-90404774D01*
X104909744Y-90482795D01*
X104740226Y-90596063D01*
X104596063Y-90740226D01*
X104482795Y-90909744D01*
X104404774Y-91098102D01*
X104365000Y-91298061D01*
X99535000Y-91298061D01*
X99495226Y-91098102D01*
X99417205Y-90909744D01*
X99303937Y-90740226D01*
X99159774Y-90596063D01*
X98990256Y-90482795D01*
X98801898Y-90404774D01*
X98601939Y-90365000D01*
X98398061Y-90365000D01*
X98198102Y-90404774D01*
X98009744Y-90482795D01*
X97840226Y-90596063D01*
X97696063Y-90740226D01*
X97582795Y-90909744D01*
X97550000Y-90988918D01*
X97517205Y-90909744D01*
X97403937Y-90740226D01*
X97259774Y-90596063D01*
X97090256Y-90482795D01*
X96901898Y-90404774D01*
X96701939Y-90365000D01*
X96498061Y-90365000D01*
X96298102Y-90404774D01*
X96109744Y-90482795D01*
X95940226Y-90596063D01*
X95796063Y-90740226D01*
X95682795Y-90909744D01*
X95604774Y-91098102D01*
X95565000Y-91298061D01*
X93160000Y-91298061D01*
X93160000Y-89457911D01*
X110215000Y-89457911D01*
X110215000Y-89642089D01*
X110250932Y-89822729D01*
X110321414Y-89992889D01*
X110423738Y-90146028D01*
X110553972Y-90276262D01*
X110707111Y-90378586D01*
X110877271Y-90449068D01*
X111057911Y-90485000D01*
X111242089Y-90485000D01*
X111422729Y-90449068D01*
X111592889Y-90378586D01*
X111746028Y-90276262D01*
X111876262Y-90146028D01*
X111978586Y-89992889D01*
X112028383Y-89872668D01*
X112067368Y-89888816D01*
X112248008Y-89924748D01*
X112432186Y-89924748D01*
X112612826Y-89888816D01*
X112782986Y-89818334D01*
X112936125Y-89716010D01*
X113066359Y-89585776D01*
X113168683Y-89432637D01*
X113239165Y-89262477D01*
X113275097Y-89081837D01*
X113275097Y-88897659D01*
X113239165Y-88717019D01*
X113168683Y-88546859D01*
X113066359Y-88393720D01*
X112936125Y-88263486D01*
X112782986Y-88161162D01*
X112612826Y-88090680D01*
X112534238Y-88075048D01*
X112490196Y-87968721D01*
X112387872Y-87815582D01*
X112257638Y-87685348D01*
X112104499Y-87583024D01*
X111934339Y-87512542D01*
X111753699Y-87476610D01*
X111569521Y-87476610D01*
X111388881Y-87512542D01*
X111218721Y-87583024D01*
X111065582Y-87685348D01*
X110935348Y-87815582D01*
X110833024Y-87968721D01*
X110762542Y-88138881D01*
X110726610Y-88319521D01*
X110726610Y-88503699D01*
X110762542Y-88684339D01*
X110767532Y-88696387D01*
X110707111Y-88721414D01*
X110553972Y-88823738D01*
X110423738Y-88953972D01*
X110321414Y-89107111D01*
X110250932Y-89277271D01*
X110215000Y-89457911D01*
X93160000Y-89457911D01*
X93160000Y-87190675D01*
X95920000Y-87190675D01*
X95920000Y-87409325D01*
X95962657Y-87623775D01*
X96046331Y-87825782D01*
X96167807Y-88007584D01*
X96322416Y-88162193D01*
X96504218Y-88283669D01*
X96706225Y-88367343D01*
X96920675Y-88410000D01*
X97139325Y-88410000D01*
X97353775Y-88367343D01*
X97555782Y-88283669D01*
X97737584Y-88162193D01*
X97892193Y-88007584D01*
X98013669Y-87825782D01*
X98097343Y-87623775D01*
X98140000Y-87409325D01*
X98140000Y-87190675D01*
X98097343Y-86976225D01*
X98066976Y-86902911D01*
X117505200Y-86902911D01*
X117505200Y-87087089D01*
X117541132Y-87267729D01*
X117611614Y-87437889D01*
X117713938Y-87591028D01*
X117844172Y-87721262D01*
X117997311Y-87823586D01*
X118167471Y-87894068D01*
X118285020Y-87917450D01*
X118658427Y-88290858D01*
X118682285Y-88319929D01*
X118798315Y-88415152D01*
X118930692Y-88485909D01*
X119074329Y-88529481D01*
X119186281Y-88540507D01*
X119186283Y-88540507D01*
X119223706Y-88544193D01*
X119261129Y-88540507D01*
X125930694Y-88540507D01*
X125977547Y-88628163D01*
X126072771Y-88744193D01*
X126101841Y-88768050D01*
X126545176Y-89211385D01*
X126569038Y-89240461D01*
X126642679Y-89300896D01*
X126685067Y-89335684D01*
X126755824Y-89373504D01*
X126817445Y-89406441D01*
X126961082Y-89450013D01*
X127073034Y-89461039D01*
X127073037Y-89461039D01*
X127110460Y-89464725D01*
X127147883Y-89461039D01*
X128433541Y-89461039D01*
X128523738Y-89596028D01*
X128531100Y-89603390D01*
X128467924Y-89603390D01*
X128287284Y-89639322D01*
X128199633Y-89675628D01*
X128044974Y-89611567D01*
X127864334Y-89575635D01*
X127680156Y-89575635D01*
X127499516Y-89611567D01*
X127329356Y-89682049D01*
X127176217Y-89784373D01*
X127045983Y-89914607D01*
X126943659Y-90067746D01*
X126873177Y-90237906D01*
X126837245Y-90418546D01*
X126837245Y-90602724D01*
X126873177Y-90783364D01*
X126943659Y-90953524D01*
X127045983Y-91106663D01*
X127176217Y-91236897D01*
X127329356Y-91339221D01*
X127499516Y-91409703D01*
X127680156Y-91445635D01*
X127864334Y-91445635D01*
X128044974Y-91409703D01*
X128132625Y-91373397D01*
X128287284Y-91437458D01*
X128467924Y-91473390D01*
X128652102Y-91473390D01*
X128832742Y-91437458D01*
X129002902Y-91366976D01*
X129156041Y-91264652D01*
X129286275Y-91134418D01*
X129388599Y-90981279D01*
X129459081Y-90811119D01*
X129495013Y-90630479D01*
X129495013Y-90446301D01*
X129459081Y-90265661D01*
X129388599Y-90095501D01*
X129286275Y-89942362D01*
X129278913Y-89935000D01*
X129342089Y-89935000D01*
X129522729Y-89899068D01*
X129666572Y-89839487D01*
X129804230Y-89931467D01*
X129974390Y-90001949D01*
X130155030Y-90037881D01*
X130339208Y-90037881D01*
X130519848Y-90001949D01*
X130690008Y-89931467D01*
X130843147Y-89829143D01*
X130916986Y-89755304D01*
X131007911Y-89773390D01*
X131192089Y-89773390D01*
X131372729Y-89737458D01*
X131542889Y-89666976D01*
X131696028Y-89564652D01*
X131826262Y-89434418D01*
X131928586Y-89281279D01*
X131963055Y-89198061D01*
X152965000Y-89198061D01*
X152965000Y-89401939D01*
X153004774Y-89601898D01*
X153082795Y-89790256D01*
X153196063Y-89959774D01*
X153340226Y-90103937D01*
X153509744Y-90217205D01*
X153698102Y-90295226D01*
X153898061Y-90335000D01*
X154101939Y-90335000D01*
X154301898Y-90295226D01*
X154490256Y-90217205D01*
X154659774Y-90103937D01*
X154803937Y-89959774D01*
X154917205Y-89790256D01*
X154995226Y-89601898D01*
X155035000Y-89401939D01*
X155035000Y-89198061D01*
X154995226Y-88998102D01*
X154917205Y-88809744D01*
X154803937Y-88640226D01*
X154659774Y-88496063D01*
X154490256Y-88382795D01*
X154301898Y-88304774D01*
X154101939Y-88265000D01*
X153898061Y-88265000D01*
X153698102Y-88304774D01*
X153509744Y-88382795D01*
X153340226Y-88496063D01*
X153196063Y-88640226D01*
X153082795Y-88809744D01*
X153004774Y-88998102D01*
X152965000Y-89198061D01*
X131963055Y-89198061D01*
X131999068Y-89111119D01*
X132035000Y-88930479D01*
X132035000Y-88746301D01*
X131999068Y-88565661D01*
X131928586Y-88395501D01*
X131826262Y-88242362D01*
X131823813Y-88239913D01*
X131841976Y-88234403D01*
X131974353Y-88163646D01*
X132038135Y-88111301D01*
X141961610Y-88111301D01*
X141961610Y-88295479D01*
X141997542Y-88476119D01*
X142068024Y-88646279D01*
X142170348Y-88799418D01*
X142300582Y-88929652D01*
X142453721Y-89031976D01*
X142623881Y-89102458D01*
X142804521Y-89138390D01*
X142988699Y-89138390D01*
X143169339Y-89102458D01*
X143339499Y-89031976D01*
X143492638Y-88929652D01*
X143622872Y-88799418D01*
X143725196Y-88646279D01*
X143795678Y-88476119D01*
X143831610Y-88295479D01*
X143831610Y-88111301D01*
X143795678Y-87930661D01*
X143725196Y-87760501D01*
X143622872Y-87607362D01*
X143492638Y-87477128D01*
X143339499Y-87374804D01*
X143169339Y-87304322D01*
X142988699Y-87268390D01*
X142804521Y-87268390D01*
X142623881Y-87304322D01*
X142453721Y-87374804D01*
X142300582Y-87477128D01*
X142170348Y-87607362D01*
X142068024Y-87760501D01*
X141997542Y-87930661D01*
X141961610Y-88111301D01*
X132038135Y-88111301D01*
X132090383Y-88068423D01*
X132114245Y-88039347D01*
X133673681Y-86479911D01*
X151195200Y-86479911D01*
X151195200Y-86664089D01*
X151231132Y-86844729D01*
X151301614Y-87014889D01*
X151403938Y-87168028D01*
X151534172Y-87298262D01*
X151687311Y-87400586D01*
X151857471Y-87471068D01*
X152038111Y-87507000D01*
X152222289Y-87507000D01*
X152402929Y-87471068D01*
X152573089Y-87400586D01*
X152726228Y-87298262D01*
X152856462Y-87168028D01*
X152958786Y-87014889D01*
X153029268Y-86844729D01*
X153065200Y-86664089D01*
X153065200Y-86479911D01*
X153029268Y-86299271D01*
X152958786Y-86129111D01*
X152856462Y-85975972D01*
X152726228Y-85845738D01*
X152573089Y-85743414D01*
X152402929Y-85672932D01*
X152222289Y-85637000D01*
X152038111Y-85637000D01*
X151857471Y-85672932D01*
X151687311Y-85743414D01*
X151534172Y-85845738D01*
X151403938Y-85975972D01*
X151301614Y-86129111D01*
X151231132Y-86299271D01*
X151195200Y-86479911D01*
X133673681Y-86479911D01*
X134339354Y-85814239D01*
X134368423Y-85790383D01*
X134463646Y-85674353D01*
X134504638Y-85597661D01*
X166960600Y-85597661D01*
X166960600Y-85801539D01*
X167000374Y-86001498D01*
X167078395Y-86189856D01*
X167088327Y-86204720D01*
X167060600Y-86344111D01*
X167060600Y-86528289D01*
X167096532Y-86708929D01*
X167167014Y-86879089D01*
X167269338Y-87032228D01*
X167399572Y-87162462D01*
X167552711Y-87264786D01*
X167722871Y-87335268D01*
X167903511Y-87371200D01*
X168087689Y-87371200D01*
X168268329Y-87335268D01*
X168438489Y-87264786D01*
X168591628Y-87162462D01*
X168721862Y-87032228D01*
X168824186Y-86879089D01*
X168894668Y-86708929D01*
X168930600Y-86528289D01*
X168930600Y-86344111D01*
X168902873Y-86204720D01*
X168912805Y-86189856D01*
X168990826Y-86001498D01*
X169030600Y-85801539D01*
X169030600Y-85597661D01*
X168990826Y-85397702D01*
X168954740Y-85310582D01*
X169005226Y-85188698D01*
X169045000Y-84988739D01*
X169045000Y-84784861D01*
X169005226Y-84584902D01*
X168956940Y-84468329D01*
X168995226Y-84375898D01*
X169035000Y-84175939D01*
X169035000Y-83972061D01*
X168995226Y-83772102D01*
X168917205Y-83583744D01*
X168803937Y-83414226D01*
X168659774Y-83270063D01*
X168490256Y-83156795D01*
X168301898Y-83078774D01*
X168101939Y-83039000D01*
X167898061Y-83039000D01*
X167698102Y-83078774D01*
X167509744Y-83156795D01*
X167340226Y-83270063D01*
X167196063Y-83414226D01*
X167082795Y-83583744D01*
X167004774Y-83772102D01*
X166965000Y-83972061D01*
X166965000Y-84175939D01*
X167004774Y-84375898D01*
X167053060Y-84492471D01*
X167014774Y-84584902D01*
X166975000Y-84784861D01*
X166975000Y-84988739D01*
X167014774Y-85188698D01*
X167050860Y-85275818D01*
X167000374Y-85397702D01*
X166960600Y-85597661D01*
X134504638Y-85597661D01*
X134534403Y-85541976D01*
X134577975Y-85398339D01*
X134589001Y-85286387D01*
X134589001Y-85286385D01*
X134592687Y-85248962D01*
X134589001Y-85211539D01*
X134589001Y-83333198D01*
X134598061Y-83335000D01*
X134801939Y-83335000D01*
X135001898Y-83295226D01*
X135190256Y-83217205D01*
X135359774Y-83103937D01*
X135370800Y-83092911D01*
X143057600Y-83092911D01*
X143057600Y-83277089D01*
X143093532Y-83457729D01*
X143164014Y-83627889D01*
X143266338Y-83781028D01*
X143396572Y-83911262D01*
X143549711Y-84013586D01*
X143719871Y-84084068D01*
X143900511Y-84120000D01*
X144084689Y-84120000D01*
X144265329Y-84084068D01*
X144435489Y-84013586D01*
X144588628Y-83911262D01*
X144718862Y-83781028D01*
X144786325Y-83680061D01*
X146295200Y-83680061D01*
X146295200Y-83883939D01*
X146334974Y-84083898D01*
X146412995Y-84272256D01*
X146526263Y-84441774D01*
X146670426Y-84585937D01*
X146839944Y-84699205D01*
X147028302Y-84777226D01*
X147228261Y-84817000D01*
X147432139Y-84817000D01*
X147632098Y-84777226D01*
X147820456Y-84699205D01*
X147989974Y-84585937D01*
X148134137Y-84441774D01*
X148247405Y-84272256D01*
X148325426Y-84083898D01*
X148365200Y-83883939D01*
X148365200Y-83680061D01*
X148325426Y-83480102D01*
X148247405Y-83291744D01*
X148134137Y-83122226D01*
X147989974Y-82978063D01*
X147820456Y-82864795D01*
X147632098Y-82786774D01*
X147432139Y-82747000D01*
X147228261Y-82747000D01*
X147028302Y-82786774D01*
X146839944Y-82864795D01*
X146670426Y-82978063D01*
X146526263Y-83122226D01*
X146412995Y-83291744D01*
X146334974Y-83480102D01*
X146295200Y-83680061D01*
X144786325Y-83680061D01*
X144821186Y-83627889D01*
X144891668Y-83457729D01*
X144927600Y-83277089D01*
X144927600Y-83092911D01*
X144891668Y-82912271D01*
X144821186Y-82742111D01*
X144718862Y-82588972D01*
X144588628Y-82458738D01*
X144435489Y-82356414D01*
X144265329Y-82285932D01*
X144084689Y-82250000D01*
X143900511Y-82250000D01*
X143719871Y-82285932D01*
X143549711Y-82356414D01*
X143396572Y-82458738D01*
X143266338Y-82588972D01*
X143164014Y-82742111D01*
X143093532Y-82912271D01*
X143057600Y-83092911D01*
X135370800Y-83092911D01*
X135503937Y-82959774D01*
X135617205Y-82790256D01*
X135695226Y-82601898D01*
X135735000Y-82401939D01*
X135735000Y-82198061D01*
X135695226Y-81998102D01*
X135617205Y-81809744D01*
X135503937Y-81640226D01*
X135359774Y-81496063D01*
X135190256Y-81382795D01*
X135001898Y-81304774D01*
X134801939Y-81265000D01*
X134598061Y-81265000D01*
X134589001Y-81266802D01*
X134589001Y-81236462D01*
X134592687Y-81199039D01*
X134587667Y-81148061D01*
X164235000Y-81148061D01*
X164235000Y-81351939D01*
X164274774Y-81551898D01*
X164352795Y-81740256D01*
X164466063Y-81909774D01*
X164610226Y-82053937D01*
X164779744Y-82167205D01*
X164968102Y-82245226D01*
X165168061Y-82285000D01*
X165371939Y-82285000D01*
X165571898Y-82245226D01*
X165760256Y-82167205D01*
X165929774Y-82053937D01*
X166073937Y-81909774D01*
X166187205Y-81740256D01*
X166265226Y-81551898D01*
X166305000Y-81351939D01*
X166305000Y-81148061D01*
X166265226Y-80948102D01*
X166187205Y-80759744D01*
X166073937Y-80590226D01*
X165929774Y-80446063D01*
X165760256Y-80332795D01*
X165571898Y-80254774D01*
X165371939Y-80215000D01*
X165168061Y-80215000D01*
X164968102Y-80254774D01*
X164779744Y-80332795D01*
X164610226Y-80446063D01*
X164466063Y-80590226D01*
X164352795Y-80759744D01*
X164274774Y-80948102D01*
X164235000Y-81148061D01*
X134587667Y-81148061D01*
X134586308Y-81134271D01*
X134577975Y-81049661D01*
X134534403Y-80906024D01*
X134483597Y-80810972D01*
X134463646Y-80773646D01*
X134428858Y-80731258D01*
X134368423Y-80657617D01*
X134339347Y-80633755D01*
X133272528Y-79566936D01*
X133248666Y-79537860D01*
X133190423Y-79490061D01*
X144915200Y-79490061D01*
X144915200Y-79693939D01*
X144954974Y-79893898D01*
X145032995Y-80082256D01*
X145146263Y-80251774D01*
X145290426Y-80395937D01*
X145459944Y-80509205D01*
X145648302Y-80587226D01*
X145848261Y-80627000D01*
X146052139Y-80627000D01*
X146252098Y-80587226D01*
X146440456Y-80509205D01*
X146609974Y-80395937D01*
X146754137Y-80251774D01*
X146867405Y-80082256D01*
X146945426Y-79893898D01*
X146985200Y-79693939D01*
X146985200Y-79490061D01*
X146945426Y-79290102D01*
X146867405Y-79101744D01*
X146754137Y-78932226D01*
X146609974Y-78788063D01*
X146440456Y-78674795D01*
X146252098Y-78596774D01*
X146052139Y-78557000D01*
X145848261Y-78557000D01*
X145648302Y-78596774D01*
X145459944Y-78674795D01*
X145290426Y-78788063D01*
X145146263Y-78932226D01*
X145032995Y-79101744D01*
X144954974Y-79290102D01*
X144915200Y-79490061D01*
X133190423Y-79490061D01*
X133132636Y-79442637D01*
X133000259Y-79371880D01*
X132856622Y-79328308D01*
X132768988Y-79319677D01*
X132665750Y-79250696D01*
X132495590Y-79180214D01*
X132314950Y-79144282D01*
X132130772Y-79144282D01*
X131950132Y-79180214D01*
X131779972Y-79250696D01*
X131680319Y-79317282D01*
X128317322Y-79317282D01*
X128411478Y-79254369D01*
X128555641Y-79110206D01*
X128668909Y-78940688D01*
X128715119Y-78829129D01*
X128765555Y-78904612D01*
X128895789Y-79034846D01*
X129048928Y-79137170D01*
X129219088Y-79207652D01*
X129399728Y-79243584D01*
X129583906Y-79243584D01*
X129764546Y-79207652D01*
X129934706Y-79137170D01*
X130087845Y-79034846D01*
X130218079Y-78904612D01*
X130320403Y-78751473D01*
X130390885Y-78581313D01*
X130426817Y-78400673D01*
X130426817Y-78216495D01*
X130390885Y-78035855D01*
X130320403Y-77865695D01*
X130218079Y-77712556D01*
X130087845Y-77582322D01*
X129934706Y-77479998D01*
X129764546Y-77409516D01*
X129583906Y-77373584D01*
X129399728Y-77373584D01*
X129241770Y-77405004D01*
X129235981Y-77391029D01*
X129133657Y-77237890D01*
X129070478Y-77174711D01*
X152354000Y-77174711D01*
X152354000Y-77358889D01*
X152389932Y-77539529D01*
X152460414Y-77709689D01*
X152562738Y-77862828D01*
X152692972Y-77993062D01*
X152846111Y-78095386D01*
X153016271Y-78165868D01*
X153196911Y-78201800D01*
X153381089Y-78201800D01*
X153561729Y-78165868D01*
X153731889Y-78095386D01*
X153885028Y-77993062D01*
X154015262Y-77862828D01*
X154117586Y-77709689D01*
X154160323Y-77606511D01*
X155148000Y-77606511D01*
X155148000Y-77790689D01*
X155183932Y-77971329D01*
X155254414Y-78141489D01*
X155356738Y-78294628D01*
X155486972Y-78424862D01*
X155640111Y-78527186D01*
X155810271Y-78597668D01*
X155990911Y-78633600D01*
X156175089Y-78633600D01*
X156355729Y-78597668D01*
X156525889Y-78527186D01*
X156679028Y-78424862D01*
X156809262Y-78294628D01*
X156880467Y-78188061D01*
X164265000Y-78188061D01*
X164265000Y-78391939D01*
X164304774Y-78591898D01*
X164382795Y-78780256D01*
X164496063Y-78949774D01*
X164640226Y-79093937D01*
X164809744Y-79207205D01*
X164998102Y-79285226D01*
X165198061Y-79325000D01*
X165401939Y-79325000D01*
X165601898Y-79285226D01*
X165790256Y-79207205D01*
X165959774Y-79093937D01*
X166103937Y-78949774D01*
X166217205Y-78780256D01*
X166295226Y-78591898D01*
X166335000Y-78391939D01*
X166335000Y-78188061D01*
X166295226Y-77988102D01*
X166217205Y-77799744D01*
X166103937Y-77630226D01*
X165959774Y-77486063D01*
X165790256Y-77372795D01*
X165601898Y-77294774D01*
X165401939Y-77255000D01*
X165198061Y-77255000D01*
X164998102Y-77294774D01*
X164809744Y-77372795D01*
X164640226Y-77486063D01*
X164496063Y-77630226D01*
X164382795Y-77799744D01*
X164304774Y-77988102D01*
X164265000Y-78188061D01*
X156880467Y-78188061D01*
X156911586Y-78141489D01*
X156982068Y-77971329D01*
X157018000Y-77790689D01*
X157018000Y-77606511D01*
X156982068Y-77425871D01*
X156911586Y-77255711D01*
X156809262Y-77102572D01*
X156679028Y-76972338D01*
X156525889Y-76870014D01*
X156355729Y-76799532D01*
X156175089Y-76763600D01*
X155990911Y-76763600D01*
X155810271Y-76799532D01*
X155640111Y-76870014D01*
X155486972Y-76972338D01*
X155356738Y-77102572D01*
X155254414Y-77255711D01*
X155183932Y-77425871D01*
X155148000Y-77606511D01*
X154160323Y-77606511D01*
X154188068Y-77539529D01*
X154224000Y-77358889D01*
X154224000Y-77174711D01*
X154188068Y-76994071D01*
X154117586Y-76823911D01*
X154015262Y-76670772D01*
X153885028Y-76540538D01*
X153731889Y-76438214D01*
X153561729Y-76367732D01*
X153381089Y-76331800D01*
X153196911Y-76331800D01*
X153016271Y-76367732D01*
X152846111Y-76438214D01*
X152692972Y-76540538D01*
X152562738Y-76670772D01*
X152460414Y-76823911D01*
X152389932Y-76994071D01*
X152354000Y-77174711D01*
X129070478Y-77174711D01*
X129003423Y-77107656D01*
X128850284Y-77005332D01*
X128680124Y-76934850D01*
X128499484Y-76898918D01*
X128315306Y-76898918D01*
X128134666Y-76934850D01*
X127964506Y-77005332D01*
X127811367Y-77107656D01*
X127681133Y-77237890D01*
X127578809Y-77391029D01*
X127561422Y-77433004D01*
X127449806Y-77455206D01*
X127322797Y-77507815D01*
X127303569Y-77494967D01*
X127133409Y-77424485D01*
X126952769Y-77388553D01*
X126768591Y-77388553D01*
X126587951Y-77424485D01*
X126493764Y-77463498D01*
X126456262Y-77407372D01*
X126326028Y-77277138D01*
X126172889Y-77174814D01*
X126002729Y-77104332D01*
X125822089Y-77068400D01*
X125637911Y-77068400D01*
X125457271Y-77104332D01*
X125287111Y-77174814D01*
X125133972Y-77277138D01*
X125003738Y-77407372D01*
X124901414Y-77560511D01*
X124850969Y-77682296D01*
X124699689Y-77581214D01*
X124529529Y-77510732D01*
X124348889Y-77474800D01*
X124164711Y-77474800D01*
X123984071Y-77510732D01*
X123813911Y-77581214D01*
X123660772Y-77683538D01*
X123530538Y-77813772D01*
X123428214Y-77966911D01*
X123357732Y-78137071D01*
X123321800Y-78317711D01*
X123321800Y-78501889D01*
X123357732Y-78682529D01*
X123428214Y-78852689D01*
X123530538Y-79005828D01*
X123660772Y-79136062D01*
X123813911Y-79238386D01*
X123984071Y-79308868D01*
X124164711Y-79344800D01*
X124348889Y-79344800D01*
X124529529Y-79308868D01*
X124699689Y-79238386D01*
X124852828Y-79136062D01*
X124983062Y-79005828D01*
X125085386Y-78852689D01*
X125088780Y-78844496D01*
X125093355Y-78853056D01*
X125116408Y-78881146D01*
X125188578Y-78969086D01*
X125217653Y-78992948D01*
X125911217Y-79686512D01*
X125935075Y-79715583D01*
X126051105Y-79810806D01*
X126055983Y-79813414D01*
X126834203Y-80591633D01*
X126858060Y-80620704D01*
X126974090Y-80715927D01*
X127082247Y-80773738D01*
X127104387Y-80785572D01*
X127106467Y-80786684D01*
X127250104Y-80830256D01*
X127362056Y-80841282D01*
X127362058Y-80841282D01*
X127399481Y-80844968D01*
X127436904Y-80841282D01*
X131279961Y-80841282D01*
X131273600Y-80873261D01*
X131273600Y-81077139D01*
X131313374Y-81277098D01*
X131391395Y-81465456D01*
X131504663Y-81634974D01*
X131648826Y-81779137D01*
X131818344Y-81892405D01*
X132006702Y-81970426D01*
X132206661Y-82010200D01*
X132410539Y-82010200D01*
X132415703Y-82009173D01*
X132473738Y-82096028D01*
X132603972Y-82226262D01*
X132757111Y-82328586D01*
X132927271Y-82399068D01*
X133065002Y-82426465D01*
X133065001Y-83876296D01*
X133029868Y-83699671D01*
X132959386Y-83529511D01*
X132857062Y-83376372D01*
X132726828Y-83246138D01*
X132573689Y-83143814D01*
X132403529Y-83073332D01*
X132222889Y-83037400D01*
X132038711Y-83037400D01*
X131858071Y-83073332D01*
X131687911Y-83143814D01*
X131534772Y-83246138D01*
X131404538Y-83376372D01*
X131302214Y-83529511D01*
X131231732Y-83699671D01*
X131195800Y-83880311D01*
X131195800Y-84064489D01*
X131231732Y-84245129D01*
X131302214Y-84415289D01*
X131404538Y-84568428D01*
X131534772Y-84698662D01*
X131687911Y-84800986D01*
X131858071Y-84871468D01*
X132038711Y-84907400D01*
X132222889Y-84907400D01*
X132403529Y-84871468D01*
X132573689Y-84800986D01*
X132726828Y-84698662D01*
X132857062Y-84568428D01*
X132959386Y-84415289D01*
X133029868Y-84245129D01*
X133065001Y-84068504D01*
X133065001Y-84933330D01*
X131931021Y-86067310D01*
X131859774Y-85996063D01*
X131690256Y-85882795D01*
X131501898Y-85804774D01*
X131301939Y-85765000D01*
X131098061Y-85765000D01*
X130898102Y-85804774D01*
X130709744Y-85882795D01*
X130540226Y-85996063D01*
X130396063Y-86140226D01*
X130282795Y-86309744D01*
X130204774Y-86498102D01*
X130165000Y-86698061D01*
X130165000Y-86765001D01*
X129832459Y-86765001D01*
X129795036Y-86761315D01*
X129757613Y-86765001D01*
X129757611Y-86765001D01*
X129645659Y-86776027D01*
X129502022Y-86819599D01*
X129369645Y-86890356D01*
X129253615Y-86985579D01*
X129229758Y-87014649D01*
X128529619Y-87714789D01*
X128503226Y-87582102D01*
X128425205Y-87393744D01*
X128311937Y-87224226D01*
X128167774Y-87080063D01*
X127998256Y-86966795D01*
X127809898Y-86888774D01*
X127609939Y-86849000D01*
X127406061Y-86849000D01*
X127206102Y-86888774D01*
X127057617Y-86950279D01*
X127057081Y-86949921D01*
X126886921Y-86879439D01*
X126706281Y-86843507D01*
X126522103Y-86843507D01*
X126341463Y-86879439D01*
X126171303Y-86949921D01*
X126071650Y-87016507D01*
X119539338Y-87016507D01*
X119362650Y-86839820D01*
X119339268Y-86722271D01*
X119268786Y-86552111D01*
X119166462Y-86398972D01*
X119036228Y-86268738D01*
X118883089Y-86166414D01*
X118712929Y-86095932D01*
X118532289Y-86060000D01*
X118348111Y-86060000D01*
X118167471Y-86095932D01*
X117997311Y-86166414D01*
X117844172Y-86268738D01*
X117713938Y-86398972D01*
X117611614Y-86552111D01*
X117541132Y-86722271D01*
X117505200Y-86902911D01*
X98066976Y-86902911D01*
X98013669Y-86774218D01*
X97892193Y-86592416D01*
X97737584Y-86437807D01*
X97555782Y-86316331D01*
X97353775Y-86232657D01*
X97139325Y-86190000D01*
X96920675Y-86190000D01*
X96706225Y-86232657D01*
X96504218Y-86316331D01*
X96322416Y-86437807D01*
X96167807Y-86592416D01*
X96046331Y-86774218D01*
X95962657Y-86976225D01*
X95920000Y-87190675D01*
X93160000Y-87190675D01*
X93160000Y-80390675D01*
X95920000Y-80390675D01*
X95920000Y-80609325D01*
X95962657Y-80823775D01*
X96046331Y-81025782D01*
X96167807Y-81207584D01*
X96322416Y-81362193D01*
X96504218Y-81483669D01*
X96706225Y-81567343D01*
X96920675Y-81610000D01*
X97139325Y-81610000D01*
X97353775Y-81567343D01*
X97555782Y-81483669D01*
X97737584Y-81362193D01*
X97892193Y-81207584D01*
X98013669Y-81025782D01*
X98083141Y-80858061D01*
X106005000Y-80858061D01*
X106005000Y-81061939D01*
X106044774Y-81261898D01*
X106122795Y-81450256D01*
X106236063Y-81619774D01*
X106380226Y-81763937D01*
X106549744Y-81877205D01*
X106738102Y-81955226D01*
X106938061Y-81995000D01*
X107141939Y-81995000D01*
X107341898Y-81955226D01*
X107530256Y-81877205D01*
X107699774Y-81763937D01*
X107843937Y-81619774D01*
X107858445Y-81598061D01*
X119015000Y-81598061D01*
X119015000Y-81801939D01*
X119054774Y-82001898D01*
X119074699Y-82050000D01*
X119054774Y-82098102D01*
X119015000Y-82298061D01*
X119015000Y-82501939D01*
X119054774Y-82701898D01*
X119132795Y-82890256D01*
X119246063Y-83059774D01*
X119390226Y-83203937D01*
X119559744Y-83317205D01*
X119748102Y-83395226D01*
X119948061Y-83435000D01*
X120151939Y-83435000D01*
X120351898Y-83395226D01*
X120540256Y-83317205D01*
X120709774Y-83203937D01*
X120853937Y-83059774D01*
X120967205Y-82890256D01*
X121045226Y-82701898D01*
X121085000Y-82501939D01*
X121085000Y-82298061D01*
X121045226Y-82098102D01*
X121025301Y-82050000D01*
X121028755Y-82041661D01*
X121977200Y-82041661D01*
X121977200Y-82245539D01*
X122016974Y-82445498D01*
X122094995Y-82633856D01*
X122184015Y-82767084D01*
X122132814Y-82843711D01*
X122062332Y-83013871D01*
X122026400Y-83194511D01*
X122026400Y-83378689D01*
X122062332Y-83559329D01*
X122132814Y-83729489D01*
X122235138Y-83882628D01*
X122365372Y-84012862D01*
X122518511Y-84115186D01*
X122688671Y-84185668D01*
X122869311Y-84221600D01*
X123053489Y-84221600D01*
X123234129Y-84185668D01*
X123404289Y-84115186D01*
X123557428Y-84012862D01*
X123687662Y-83882628D01*
X123789986Y-83729489D01*
X123860468Y-83559329D01*
X123896400Y-83378689D01*
X123896400Y-83194511D01*
X123860468Y-83013871D01*
X123789986Y-82843711D01*
X123784304Y-82835207D01*
X123816137Y-82803374D01*
X123929405Y-82633856D01*
X124007426Y-82445498D01*
X124047200Y-82245539D01*
X124047200Y-82041661D01*
X124007426Y-81841702D01*
X123929405Y-81653344D01*
X123816137Y-81483826D01*
X123671974Y-81339663D01*
X123502456Y-81226395D01*
X123314098Y-81148374D01*
X123114139Y-81108600D01*
X122910261Y-81108600D01*
X122710302Y-81148374D01*
X122521944Y-81226395D01*
X122352426Y-81339663D01*
X122208263Y-81483826D01*
X122094995Y-81653344D01*
X122016974Y-81841702D01*
X121977200Y-82041661D01*
X121028755Y-82041661D01*
X121045226Y-82001898D01*
X121085000Y-81801939D01*
X121085000Y-81598061D01*
X121045226Y-81398102D01*
X120967205Y-81209744D01*
X120853937Y-81040226D01*
X120709774Y-80896063D01*
X120540256Y-80782795D01*
X120351898Y-80704774D01*
X120151939Y-80665000D01*
X119948061Y-80665000D01*
X119748102Y-80704774D01*
X119559744Y-80782795D01*
X119390226Y-80896063D01*
X119246063Y-81040226D01*
X119132795Y-81209744D01*
X119054774Y-81398102D01*
X119015000Y-81598061D01*
X107858445Y-81598061D01*
X107957205Y-81450256D01*
X108035226Y-81261898D01*
X108075000Y-81061939D01*
X108075000Y-80858061D01*
X108035226Y-80658102D01*
X107957205Y-80469744D01*
X107843937Y-80300226D01*
X107699774Y-80156063D01*
X107530256Y-80042795D01*
X107341898Y-79964774D01*
X107141939Y-79925000D01*
X106938061Y-79925000D01*
X106738102Y-79964774D01*
X106549744Y-80042795D01*
X106380226Y-80156063D01*
X106236063Y-80300226D01*
X106122795Y-80469744D01*
X106044774Y-80658102D01*
X106005000Y-80858061D01*
X98083141Y-80858061D01*
X98097343Y-80823775D01*
X98140000Y-80609325D01*
X98140000Y-80390675D01*
X98097343Y-80176225D01*
X98013669Y-79974218D01*
X97892193Y-79792416D01*
X97737584Y-79637807D01*
X97555782Y-79516331D01*
X97353775Y-79432657D01*
X97139325Y-79390000D01*
X96920675Y-79390000D01*
X96706225Y-79432657D01*
X96504218Y-79516331D01*
X96322416Y-79637807D01*
X96167807Y-79792416D01*
X96046331Y-79974218D01*
X95962657Y-80176225D01*
X95920000Y-80390675D01*
X93160000Y-80390675D01*
X93160000Y-79198061D01*
X116665000Y-79198061D01*
X116665000Y-79401939D01*
X116704774Y-79601898D01*
X116782795Y-79790256D01*
X116896063Y-79959774D01*
X117040226Y-80103937D01*
X117209744Y-80217205D01*
X117398102Y-80295226D01*
X117598061Y-80335000D01*
X117801939Y-80335000D01*
X118001898Y-80295226D01*
X118190256Y-80217205D01*
X118359774Y-80103937D01*
X118503937Y-79959774D01*
X118617205Y-79790256D01*
X118695226Y-79601898D01*
X118735000Y-79401939D01*
X118735000Y-79198061D01*
X118695226Y-78998102D01*
X118617205Y-78809744D01*
X118503937Y-78640226D01*
X118359774Y-78496063D01*
X118190256Y-78382795D01*
X118001898Y-78304774D01*
X117801939Y-78265000D01*
X117598061Y-78265000D01*
X117398102Y-78304774D01*
X117209744Y-78382795D01*
X117040226Y-78496063D01*
X116896063Y-78640226D01*
X116782795Y-78809744D01*
X116704774Y-78998102D01*
X116665000Y-79198061D01*
X93160000Y-79198061D01*
X93160000Y-77298061D01*
X95365000Y-77298061D01*
X95365000Y-77501939D01*
X95404774Y-77701898D01*
X95482795Y-77890256D01*
X95596063Y-78059774D01*
X95740226Y-78203937D01*
X95909744Y-78317205D01*
X96098102Y-78395226D01*
X96298061Y-78435000D01*
X96501939Y-78435000D01*
X96701898Y-78395226D01*
X96890256Y-78317205D01*
X97059774Y-78203937D01*
X97203937Y-78059774D01*
X97317205Y-77890256D01*
X97395226Y-77701898D01*
X97435000Y-77501939D01*
X97435000Y-77298061D01*
X97465000Y-77298061D01*
X97465000Y-77501939D01*
X97504774Y-77701898D01*
X97582795Y-77890256D01*
X97696063Y-78059774D01*
X97840226Y-78203937D01*
X98009744Y-78317205D01*
X98198102Y-78395226D01*
X98398061Y-78435000D01*
X98601939Y-78435000D01*
X98801898Y-78395226D01*
X98990256Y-78317205D01*
X99159774Y-78203937D01*
X99303937Y-78059774D01*
X99417205Y-77890256D01*
X99495226Y-77701898D01*
X99535000Y-77501939D01*
X99535000Y-77298061D01*
X104565000Y-77298061D01*
X104565000Y-77501939D01*
X104604774Y-77701898D01*
X104682795Y-77890256D01*
X104796063Y-78059774D01*
X104940226Y-78203937D01*
X105109744Y-78317205D01*
X105298102Y-78395226D01*
X105498061Y-78435000D01*
X105701939Y-78435000D01*
X105901898Y-78395226D01*
X106090256Y-78317205D01*
X106259774Y-78203937D01*
X106300000Y-78163711D01*
X106340226Y-78203937D01*
X106509744Y-78317205D01*
X106698102Y-78395226D01*
X106898061Y-78435000D01*
X107101939Y-78435000D01*
X107301898Y-78395226D01*
X107490256Y-78317205D01*
X107659774Y-78203937D01*
X107803937Y-78059774D01*
X107917205Y-77890256D01*
X107995226Y-77701898D01*
X108013921Y-77607911D01*
X108715000Y-77607911D01*
X108715000Y-77792089D01*
X108750932Y-77972729D01*
X108821414Y-78142889D01*
X108923738Y-78296028D01*
X109053972Y-78426262D01*
X109207111Y-78528586D01*
X109377271Y-78599068D01*
X109557911Y-78635000D01*
X109742089Y-78635000D01*
X109922729Y-78599068D01*
X110092889Y-78528586D01*
X110246028Y-78426262D01*
X110376262Y-78296028D01*
X110478586Y-78142889D01*
X110549068Y-77972729D01*
X110585000Y-77792089D01*
X110585000Y-77607911D01*
X110549068Y-77427271D01*
X110478586Y-77257111D01*
X110376262Y-77103972D01*
X110246028Y-76973738D01*
X110166668Y-76920711D01*
X121950200Y-76920711D01*
X121950200Y-77104889D01*
X121986132Y-77285529D01*
X122056614Y-77455689D01*
X122158938Y-77608828D01*
X122289172Y-77739062D01*
X122442311Y-77841386D01*
X122612471Y-77911868D01*
X122793111Y-77947800D01*
X122977289Y-77947800D01*
X123157929Y-77911868D01*
X123328089Y-77841386D01*
X123481228Y-77739062D01*
X123611462Y-77608828D01*
X123713786Y-77455689D01*
X123784268Y-77285529D01*
X123820200Y-77104889D01*
X123820200Y-76920711D01*
X123784268Y-76740071D01*
X123713786Y-76569911D01*
X123611462Y-76416772D01*
X123481228Y-76286538D01*
X123328089Y-76184214D01*
X123157929Y-76113732D01*
X122977289Y-76077800D01*
X122793111Y-76077800D01*
X122612471Y-76113732D01*
X122442311Y-76184214D01*
X122289172Y-76286538D01*
X122158938Y-76416772D01*
X122056614Y-76569911D01*
X121986132Y-76740071D01*
X121950200Y-76920711D01*
X110166668Y-76920711D01*
X110092889Y-76871414D01*
X109922729Y-76800932D01*
X109742089Y-76765000D01*
X109557911Y-76765000D01*
X109377271Y-76800932D01*
X109207111Y-76871414D01*
X109053972Y-76973738D01*
X108923738Y-77103972D01*
X108821414Y-77257111D01*
X108750932Y-77427271D01*
X108715000Y-77607911D01*
X108013921Y-77607911D01*
X108035000Y-77501939D01*
X108035000Y-77298061D01*
X107995226Y-77098102D01*
X107917205Y-76909744D01*
X107803937Y-76740226D01*
X107659774Y-76596063D01*
X107490256Y-76482795D01*
X107301898Y-76404774D01*
X107101939Y-76365000D01*
X106898061Y-76365000D01*
X106698102Y-76404774D01*
X106509744Y-76482795D01*
X106340226Y-76596063D01*
X106300000Y-76636289D01*
X106259774Y-76596063D01*
X106090256Y-76482795D01*
X105901898Y-76404774D01*
X105701939Y-76365000D01*
X105498061Y-76365000D01*
X105298102Y-76404774D01*
X105109744Y-76482795D01*
X104940226Y-76596063D01*
X104796063Y-76740226D01*
X104682795Y-76909744D01*
X104604774Y-77098102D01*
X104565000Y-77298061D01*
X99535000Y-77298061D01*
X99495226Y-77098102D01*
X99417205Y-76909744D01*
X99303937Y-76740226D01*
X99159774Y-76596063D01*
X98990256Y-76482795D01*
X98801898Y-76404774D01*
X98601939Y-76365000D01*
X98398061Y-76365000D01*
X98198102Y-76404774D01*
X98009744Y-76482795D01*
X97840226Y-76596063D01*
X97696063Y-76740226D01*
X97582795Y-76909744D01*
X97504774Y-77098102D01*
X97465000Y-77298061D01*
X97435000Y-77298061D01*
X97395226Y-77098102D01*
X97317205Y-76909744D01*
X97203937Y-76740226D01*
X97059774Y-76596063D01*
X96890256Y-76482795D01*
X96701898Y-76404774D01*
X96501939Y-76365000D01*
X96298061Y-76365000D01*
X96098102Y-76404774D01*
X95909744Y-76482795D01*
X95740226Y-76596063D01*
X95596063Y-76740226D01*
X95482795Y-76909744D01*
X95404774Y-77098102D01*
X95365000Y-77298061D01*
X93160000Y-77298061D01*
X93160000Y-72216444D01*
X93201467Y-72316554D01*
X93621161Y-72944670D01*
X94155330Y-73478839D01*
X94783446Y-73898533D01*
X95481372Y-74187623D01*
X96222285Y-74335000D01*
X96977715Y-74335000D01*
X97718628Y-74187623D01*
X98416554Y-73898533D01*
X99044670Y-73478839D01*
X99443509Y-73080000D01*
X117449509Y-73080000D01*
X117471423Y-73302499D01*
X117536324Y-73516447D01*
X117641716Y-73713623D01*
X117642846Y-73715000D01*
X117641716Y-73716377D01*
X117536324Y-73913553D01*
X117471423Y-74127501D01*
X117449509Y-74350000D01*
X117471423Y-74572499D01*
X117536324Y-74786447D01*
X117641716Y-74983623D01*
X117783551Y-75156449D01*
X117956377Y-75298284D01*
X118153553Y-75403676D01*
X118367501Y-75468577D01*
X118534248Y-75485000D01*
X118645752Y-75485000D01*
X118812499Y-75468577D01*
X119026447Y-75403676D01*
X119223623Y-75298284D01*
X119225000Y-75297154D01*
X119226377Y-75298284D01*
X119423553Y-75403676D01*
X119637501Y-75468577D01*
X119804248Y-75485000D01*
X119915752Y-75485000D01*
X120082499Y-75468577D01*
X120296447Y-75403676D01*
X120493623Y-75298284D01*
X120495000Y-75297154D01*
X120496377Y-75298284D01*
X120693553Y-75403676D01*
X120907501Y-75468577D01*
X121074248Y-75485000D01*
X121185752Y-75485000D01*
X121352499Y-75468577D01*
X121566447Y-75403676D01*
X121763623Y-75298284D01*
X121765000Y-75297154D01*
X121766377Y-75298284D01*
X121963553Y-75403676D01*
X122177501Y-75468577D01*
X122344248Y-75485000D01*
X122455752Y-75485000D01*
X122622499Y-75468577D01*
X122836447Y-75403676D01*
X123033623Y-75298284D01*
X123035000Y-75297154D01*
X123036377Y-75298284D01*
X123233553Y-75403676D01*
X123447501Y-75468577D01*
X123614248Y-75485000D01*
X123725752Y-75485000D01*
X123892499Y-75468577D01*
X124106447Y-75403676D01*
X124303623Y-75298284D01*
X124476449Y-75156449D01*
X124618284Y-74983623D01*
X124723676Y-74786447D01*
X124788577Y-74572499D01*
X124810491Y-74350000D01*
X124788577Y-74127501D01*
X124723676Y-73913553D01*
X124720661Y-73907911D01*
X130465000Y-73907911D01*
X130465000Y-74092089D01*
X130500932Y-74272729D01*
X130571414Y-74442889D01*
X130673738Y-74596028D01*
X130803972Y-74726262D01*
X130957111Y-74828586D01*
X131127271Y-74899068D01*
X131307911Y-74935000D01*
X131492089Y-74935000D01*
X131672729Y-74899068D01*
X131842889Y-74828586D01*
X131996028Y-74726262D01*
X132126262Y-74596028D01*
X132228586Y-74442889D01*
X132247154Y-74398061D01*
X133165000Y-74398061D01*
X133165000Y-74601939D01*
X133204774Y-74801898D01*
X133282795Y-74990256D01*
X133396063Y-75159774D01*
X133540226Y-75303937D01*
X133709744Y-75417205D01*
X133898102Y-75495226D01*
X134098061Y-75535000D01*
X134301939Y-75535000D01*
X134501898Y-75495226D01*
X134690256Y-75417205D01*
X134859774Y-75303937D01*
X134970200Y-75193511D01*
X153217600Y-75193511D01*
X153217600Y-75377689D01*
X153253532Y-75558329D01*
X153324014Y-75728489D01*
X153426338Y-75881628D01*
X153556572Y-76011862D01*
X153709711Y-76114186D01*
X153879871Y-76184668D01*
X154060511Y-76220600D01*
X154244689Y-76220600D01*
X154425329Y-76184668D01*
X154595489Y-76114186D01*
X154748628Y-76011862D01*
X154878862Y-75881628D01*
X154981186Y-75728489D01*
X155051668Y-75558329D01*
X155087600Y-75377689D01*
X155087600Y-75193511D01*
X155051668Y-75012871D01*
X154981186Y-74842711D01*
X154878862Y-74689572D01*
X154748628Y-74559338D01*
X154595489Y-74457014D01*
X154425329Y-74386532D01*
X154244689Y-74350600D01*
X154060511Y-74350600D01*
X153879871Y-74386532D01*
X153709711Y-74457014D01*
X153556572Y-74559338D01*
X153426338Y-74689572D01*
X153324014Y-74842711D01*
X153253532Y-75012871D01*
X153217600Y-75193511D01*
X134970200Y-75193511D01*
X135003937Y-75159774D01*
X135117205Y-74990256D01*
X135195226Y-74801898D01*
X135235000Y-74601939D01*
X135235000Y-74398061D01*
X135195226Y-74198102D01*
X135117205Y-74009744D01*
X135003937Y-73840226D01*
X134859774Y-73696063D01*
X134690256Y-73582795D01*
X134501898Y-73504774D01*
X134301939Y-73465000D01*
X134098061Y-73465000D01*
X133898102Y-73504774D01*
X133709744Y-73582795D01*
X133540226Y-73696063D01*
X133396063Y-73840226D01*
X133282795Y-74009744D01*
X133204774Y-74198102D01*
X133165000Y-74398061D01*
X132247154Y-74398061D01*
X132299068Y-74272729D01*
X132335000Y-74092089D01*
X132335000Y-73907911D01*
X132299068Y-73727271D01*
X132228586Y-73557111D01*
X132126262Y-73403972D01*
X131996028Y-73273738D01*
X131842889Y-73171414D01*
X131672729Y-73100932D01*
X131492089Y-73065000D01*
X131307911Y-73065000D01*
X131127271Y-73100932D01*
X130957111Y-73171414D01*
X130803972Y-73273738D01*
X130673738Y-73403972D01*
X130571414Y-73557111D01*
X130500932Y-73727271D01*
X130465000Y-73907911D01*
X124720661Y-73907911D01*
X124717703Y-73902379D01*
X124759502Y-73824180D01*
X124795812Y-73704482D01*
X124808072Y-73580000D01*
X124805000Y-73365750D01*
X124646250Y-73207000D01*
X123797000Y-73207000D01*
X123797000Y-73222017D01*
X123725752Y-73215000D01*
X123614248Y-73215000D01*
X123543000Y-73222017D01*
X123543000Y-73207000D01*
X123527983Y-73207000D01*
X123540491Y-73080000D01*
X123527983Y-72953000D01*
X123543000Y-72953000D01*
X123543000Y-72103750D01*
X123797000Y-72103750D01*
X123797000Y-72953000D01*
X124646250Y-72953000D01*
X124805000Y-72794250D01*
X124808072Y-72580000D01*
X124795812Y-72455518D01*
X124759502Y-72335820D01*
X124739320Y-72298061D01*
X133165000Y-72298061D01*
X133165000Y-72501939D01*
X133204774Y-72701898D01*
X133282795Y-72890256D01*
X133396063Y-73059774D01*
X133540226Y-73203937D01*
X133709744Y-73317205D01*
X133898102Y-73395226D01*
X134098061Y-73435000D01*
X134301939Y-73435000D01*
X134501898Y-73395226D01*
X134690256Y-73317205D01*
X134859774Y-73203937D01*
X135003937Y-73059774D01*
X135117205Y-72890256D01*
X135195226Y-72701898D01*
X135235000Y-72501939D01*
X135235000Y-72298061D01*
X135195226Y-72098102D01*
X135117205Y-71909744D01*
X135003937Y-71740226D01*
X134859774Y-71596063D01*
X134690256Y-71482795D01*
X134501898Y-71404774D01*
X134301939Y-71365000D01*
X134098061Y-71365000D01*
X133898102Y-71404774D01*
X133709744Y-71482795D01*
X133540226Y-71596063D01*
X133396063Y-71740226D01*
X133282795Y-71909744D01*
X133204774Y-72098102D01*
X133165000Y-72298061D01*
X124739320Y-72298061D01*
X124700537Y-72225506D01*
X124621185Y-72128815D01*
X124524494Y-72049463D01*
X124414180Y-71990498D01*
X124294482Y-71954188D01*
X124170000Y-71941928D01*
X123955750Y-71945000D01*
X123797000Y-72103750D01*
X123543000Y-72103750D01*
X123384250Y-71945000D01*
X123170000Y-71941928D01*
X123045518Y-71954188D01*
X122925820Y-71990498D01*
X122847621Y-72032297D01*
X122836447Y-72026324D01*
X122622499Y-71961423D01*
X122455752Y-71945000D01*
X122344248Y-71945000D01*
X122177501Y-71961423D01*
X121963553Y-72026324D01*
X121766377Y-72131716D01*
X121765000Y-72132846D01*
X121763623Y-72131716D01*
X121566447Y-72026324D01*
X121352499Y-71961423D01*
X121185752Y-71945000D01*
X121074248Y-71945000D01*
X120907501Y-71961423D01*
X120693553Y-72026324D01*
X120496377Y-72131716D01*
X120495000Y-72132846D01*
X120493623Y-72131716D01*
X120296447Y-72026324D01*
X120082499Y-71961423D01*
X119915752Y-71945000D01*
X119804248Y-71945000D01*
X119637501Y-71961423D01*
X119423553Y-72026324D01*
X119226377Y-72131716D01*
X119225000Y-72132846D01*
X119223623Y-72131716D01*
X119026447Y-72026324D01*
X118812499Y-71961423D01*
X118645752Y-71945000D01*
X118534248Y-71945000D01*
X118367501Y-71961423D01*
X118153553Y-72026324D01*
X117956377Y-72131716D01*
X117783551Y-72273551D01*
X117641716Y-72446377D01*
X117536324Y-72643553D01*
X117471423Y-72857501D01*
X117449509Y-73080000D01*
X99443509Y-73080000D01*
X99578839Y-72944670D01*
X99998533Y-72316554D01*
X100287623Y-71618628D01*
X100435000Y-70877715D01*
X100435000Y-70122285D01*
X100287623Y-69381372D01*
X99998533Y-68683446D01*
X99578839Y-68055330D01*
X99044670Y-67521161D01*
X98504155Y-67160000D01*
X169095845Y-67160000D01*
X168555330Y-67521161D01*
X168555330Y-67521161D01*
G37*
X168555330Y-67521161D02*
X168021161Y-68055330D01*
X167601467Y-68683446D01*
X167312377Y-69381372D01*
X167165000Y-70122285D01*
X167165000Y-70877715D01*
X167312377Y-71618628D01*
X167601467Y-72316554D01*
X168021161Y-72944670D01*
X168555330Y-73478839D01*
X169183446Y-73898533D01*
X169881372Y-74187623D01*
X170622285Y-74335000D01*
X171377715Y-74335000D01*
X172118628Y-74187623D01*
X172816554Y-73898533D01*
X173444670Y-73478839D01*
X173978839Y-72944670D01*
X174340000Y-72404155D01*
X174340000Y-77616440D01*
X174181939Y-77585000D01*
X173978061Y-77585000D01*
X173778102Y-77624774D01*
X173589744Y-77702795D01*
X173425000Y-77812873D01*
X173260256Y-77702795D01*
X173071898Y-77624774D01*
X172871939Y-77585000D01*
X172668061Y-77585000D01*
X172468102Y-77624774D01*
X172279744Y-77702795D01*
X172110226Y-77816063D01*
X172100000Y-77826289D01*
X172089774Y-77816063D01*
X171920256Y-77702795D01*
X171731898Y-77624774D01*
X171531939Y-77585000D01*
X171328061Y-77585000D01*
X171128102Y-77624774D01*
X170939744Y-77702795D01*
X170770226Y-77816063D01*
X170626063Y-77960226D01*
X170512795Y-78129744D01*
X170434774Y-78318102D01*
X170395000Y-78518061D01*
X170395000Y-78721939D01*
X170434774Y-78921898D01*
X170512795Y-79110256D01*
X170626063Y-79279774D01*
X170770226Y-79423937D01*
X170939744Y-79537205D01*
X171128102Y-79615226D01*
X171328061Y-79655000D01*
X171531939Y-79655000D01*
X171731898Y-79615226D01*
X171920256Y-79537205D01*
X172089774Y-79423937D01*
X172100000Y-79413711D01*
X172110226Y-79423937D01*
X172279744Y-79537205D01*
X172468102Y-79615226D01*
X172668061Y-79655000D01*
X172871939Y-79655000D01*
X173071898Y-79615226D01*
X173260256Y-79537205D01*
X173425000Y-79427127D01*
X173589744Y-79537205D01*
X173778102Y-79615226D01*
X173978061Y-79655000D01*
X174181939Y-79655000D01*
X174340000Y-79623560D01*
X174340000Y-80643693D01*
X174204289Y-80553014D01*
X174034129Y-80482532D01*
X173853489Y-80446600D01*
X173669311Y-80446600D01*
X173488671Y-80482532D01*
X173443900Y-80501077D01*
X173399129Y-80482532D01*
X173218489Y-80446600D01*
X173034311Y-80446600D01*
X172853671Y-80482532D01*
X172796200Y-80506337D01*
X172738729Y-80482532D01*
X172558089Y-80446600D01*
X172373911Y-80446600D01*
X172193271Y-80482532D01*
X172148500Y-80501077D01*
X172103729Y-80482532D01*
X171923089Y-80446600D01*
X171738911Y-80446600D01*
X171558271Y-80482532D01*
X171470139Y-80519037D01*
X171443329Y-80507932D01*
X171262689Y-80472000D01*
X171078511Y-80472000D01*
X170897871Y-80507932D01*
X170727711Y-80578414D01*
X170574572Y-80680738D01*
X170444338Y-80810972D01*
X170342014Y-80964111D01*
X170271532Y-81134271D01*
X170262628Y-81179031D01*
X170192089Y-81165000D01*
X170007911Y-81165000D01*
X169827271Y-81200932D01*
X169737929Y-81237938D01*
X169672729Y-81210932D01*
X169492089Y-81175000D01*
X169307911Y-81175000D01*
X169127271Y-81210932D01*
X169050000Y-81242938D01*
X168972729Y-81210932D01*
X168792089Y-81175000D01*
X168607911Y-81175000D01*
X168427271Y-81210932D01*
X168362071Y-81237938D01*
X168272729Y-81200932D01*
X168092089Y-81165000D01*
X167907911Y-81165000D01*
X167727271Y-81200932D01*
X167557111Y-81271414D01*
X167403972Y-81373738D01*
X167273738Y-81503972D01*
X167171414Y-81657111D01*
X167100932Y-81827271D01*
X167065000Y-82007911D01*
X167065000Y-82192089D01*
X167100932Y-82372729D01*
X167171414Y-82542889D01*
X167273738Y-82696028D01*
X167403972Y-82826262D01*
X167557111Y-82928586D01*
X167727271Y-82999068D01*
X167907911Y-83035000D01*
X168092089Y-83035000D01*
X168272729Y-82999068D01*
X168337929Y-82972062D01*
X168427271Y-83009068D01*
X168607911Y-83045000D01*
X168792089Y-83045000D01*
X168972729Y-83009068D01*
X169050000Y-82977062D01*
X169127271Y-83009068D01*
X169282839Y-83040013D01*
X169271414Y-83057111D01*
X169200932Y-83227271D01*
X169165000Y-83407911D01*
X169165000Y-83592089D01*
X169200932Y-83772729D01*
X169251223Y-83894142D01*
X169220932Y-83967271D01*
X169185000Y-84147911D01*
X169185000Y-84332089D01*
X169203040Y-84422779D01*
X169182795Y-84453077D01*
X169104774Y-84641435D01*
X169065000Y-84841394D01*
X169065000Y-85045272D01*
X169104774Y-85245231D01*
X169182795Y-85433589D01*
X169214350Y-85480814D01*
X169194200Y-85582111D01*
X169194200Y-85766289D01*
X169230132Y-85946929D01*
X169261377Y-86022361D01*
X169255532Y-86036471D01*
X169219600Y-86217111D01*
X169219600Y-86401289D01*
X169255532Y-86581929D01*
X169326014Y-86752089D01*
X169428338Y-86905228D01*
X169558572Y-87035462D01*
X169711711Y-87137786D01*
X169881871Y-87208268D01*
X170062511Y-87244200D01*
X170161254Y-87244200D01*
X170164774Y-87261898D01*
X170242795Y-87450256D01*
X170356063Y-87619774D01*
X170500226Y-87763937D01*
X170669744Y-87877205D01*
X170858102Y-87955226D01*
X171058061Y-87995000D01*
X171261939Y-87995000D01*
X171461898Y-87955226D01*
X171650256Y-87877205D01*
X171819774Y-87763937D01*
X171885000Y-87698711D01*
X171950226Y-87763937D01*
X172119744Y-87877205D01*
X172308102Y-87955226D01*
X172508061Y-87995000D01*
X172711939Y-87995000D01*
X172911898Y-87955226D01*
X173100256Y-87877205D01*
X173269774Y-87763937D01*
X173360000Y-87673711D01*
X173400226Y-87713937D01*
X173569744Y-87827205D01*
X173758102Y-87905226D01*
X173958061Y-87945000D01*
X174161939Y-87945000D01*
X174340000Y-87909582D01*
X174340001Y-107574080D01*
X174218939Y-107550000D01*
X174015061Y-107550000D01*
X173815102Y-107589774D01*
X173626744Y-107667795D01*
X173457226Y-107781063D01*
X173353500Y-107884789D01*
X173249774Y-107781063D01*
X173080256Y-107667795D01*
X172891898Y-107589774D01*
X172691939Y-107550000D01*
X172488061Y-107550000D01*
X172288102Y-107589774D01*
X172099744Y-107667795D01*
X171930226Y-107781063D01*
X171854900Y-107856389D01*
X171779574Y-107781063D01*
X171610056Y-107667795D01*
X171421698Y-107589774D01*
X171221739Y-107550000D01*
X171017861Y-107550000D01*
X170817902Y-107589774D01*
X170629544Y-107667795D01*
X170460026Y-107781063D01*
X170315863Y-107925226D01*
X170202595Y-108094744D01*
X170124574Y-108283102D01*
X170084800Y-108483061D01*
X170084800Y-108686939D01*
X170124574Y-108886898D01*
X170202595Y-109075256D01*
X170315863Y-109244774D01*
X170460026Y-109388937D01*
X170629544Y-109502205D01*
X170817902Y-109580226D01*
X171017861Y-109620000D01*
X171221739Y-109620000D01*
X171421698Y-109580226D01*
X171610056Y-109502205D01*
X171779574Y-109388937D01*
X171854900Y-109313611D01*
X171930226Y-109388937D01*
X172099744Y-109502205D01*
X172288102Y-109580226D01*
X172488061Y-109620000D01*
X172691939Y-109620000D01*
X172891898Y-109580226D01*
X173080256Y-109502205D01*
X173249774Y-109388937D01*
X173353500Y-109285211D01*
X173457226Y-109388937D01*
X173626744Y-109502205D01*
X173815102Y-109580226D01*
X174015061Y-109620000D01*
X174218939Y-109620000D01*
X174340001Y-109595920D01*
X174340001Y-110409135D01*
X174259889Y-110393200D01*
X174075711Y-110393200D01*
X173895071Y-110429132D01*
X173804761Y-110466539D01*
X173653129Y-110403732D01*
X173472489Y-110367800D01*
X173288311Y-110367800D01*
X173107671Y-110403732D01*
X172986700Y-110453839D01*
X172865729Y-110403732D01*
X172685089Y-110367800D01*
X172500911Y-110367800D01*
X172320271Y-110403732D01*
X172224700Y-110443318D01*
X172129129Y-110403732D01*
X171948489Y-110367800D01*
X171764311Y-110367800D01*
X171583671Y-110403732D01*
X171500800Y-110438058D01*
X171417929Y-110403732D01*
X171237289Y-110367800D01*
X171053111Y-110367800D01*
X170872471Y-110403732D01*
X170702311Y-110474214D01*
X170549172Y-110576538D01*
X170418938Y-110706772D01*
X170316614Y-110859911D01*
X170246132Y-111030071D01*
X170217303Y-111175000D01*
X170077911Y-111175000D01*
X169897271Y-111210932D01*
X169790313Y-111255235D01*
X169683354Y-111210932D01*
X169502714Y-111175000D01*
X169318536Y-111175000D01*
X169137896Y-111210932D01*
X169030938Y-111255235D01*
X168923979Y-111210932D01*
X168743339Y-111175000D01*
X168559161Y-111175000D01*
X168378521Y-111210932D01*
X168271563Y-111255235D01*
X168164604Y-111210932D01*
X167983964Y-111175000D01*
X167799786Y-111175000D01*
X167619146Y-111210932D01*
X167512188Y-111255235D01*
X167405229Y-111210932D01*
X167224589Y-111175000D01*
X167040411Y-111175000D01*
X166859771Y-111210932D01*
X166752813Y-111255235D01*
X166645854Y-111210932D01*
X166465214Y-111175000D01*
X166281036Y-111175000D01*
X166100396Y-111210932D01*
X165993438Y-111255235D01*
X165886479Y-111210932D01*
X165705839Y-111175000D01*
X165521661Y-111175000D01*
X165341021Y-111210932D01*
X165234063Y-111255235D01*
X165127104Y-111210932D01*
X164946464Y-111175000D01*
X164762286Y-111175000D01*
X164581646Y-111210932D01*
X164474688Y-111255235D01*
X164367729Y-111210932D01*
X164187089Y-111175000D01*
X164002911Y-111175000D01*
X163822271Y-111210932D01*
X163715313Y-111255235D01*
X163608354Y-111210932D01*
X163427714Y-111175000D01*
X163243536Y-111175000D01*
X163062896Y-111210932D01*
X162955938Y-111255235D01*
X162848979Y-111210932D01*
X162668339Y-111175000D01*
X162484161Y-111175000D01*
X162303521Y-111210932D01*
X162196563Y-111255235D01*
X162089604Y-111210932D01*
X161908964Y-111175000D01*
X161724786Y-111175000D01*
X161544146Y-111210932D01*
X161437188Y-111255235D01*
X161330229Y-111210932D01*
X161149589Y-111175000D01*
X160965411Y-111175000D01*
X160784771Y-111210932D01*
X160677813Y-111255235D01*
X160570854Y-111210932D01*
X160390214Y-111175000D01*
X160206036Y-111175000D01*
X160025396Y-111210932D01*
X159918438Y-111255235D01*
X159811479Y-111210932D01*
X159630839Y-111175000D01*
X159446661Y-111175000D01*
X159266021Y-111210932D01*
X159159063Y-111255235D01*
X159052104Y-111210932D01*
X158871464Y-111175000D01*
X158687286Y-111175000D01*
X158506646Y-111210932D01*
X158399688Y-111255235D01*
X158292729Y-111210932D01*
X158112089Y-111175000D01*
X157927911Y-111175000D01*
X157747271Y-111210932D01*
X157577111Y-111281414D01*
X157423972Y-111383738D01*
X157293738Y-111513972D01*
X157191414Y-111667111D01*
X157120932Y-111837271D01*
X157085000Y-112017911D01*
X157085000Y-112202089D01*
X157120932Y-112382729D01*
X157191414Y-112552889D01*
X157293738Y-112706028D01*
X157382710Y-112795000D01*
X157283738Y-112893972D01*
X157181414Y-113047111D01*
X157110932Y-113217271D01*
X157075000Y-113397911D01*
X157075000Y-113582089D01*
X157110932Y-113762729D01*
X157181414Y-113932889D01*
X157283738Y-114086028D01*
X157413972Y-114216262D01*
X157567111Y-114318586D01*
X157737271Y-114389068D01*
X157917911Y-114425000D01*
X158102089Y-114425000D01*
X158282729Y-114389068D01*
X158385000Y-114346706D01*
X158487271Y-114389068D01*
X158667911Y-114425000D01*
X158852089Y-114425000D01*
X159032729Y-114389068D01*
X159140000Y-114344635D01*
X159247271Y-114389068D01*
X159427911Y-114425000D01*
X159612089Y-114425000D01*
X159792729Y-114389068D01*
X159900000Y-114344635D01*
X160007271Y-114389068D01*
X160187911Y-114425000D01*
X160372089Y-114425000D01*
X160552729Y-114389068D01*
X160660000Y-114344635D01*
X160767271Y-114389068D01*
X160947911Y-114425000D01*
X161132089Y-114425000D01*
X161312729Y-114389068D01*
X161420000Y-114344635D01*
X161527271Y-114389068D01*
X161707911Y-114425000D01*
X161892089Y-114425000D01*
X162072729Y-114389068D01*
X162180000Y-114344635D01*
X162287271Y-114389068D01*
X162467911Y-114425000D01*
X162652089Y-114425000D01*
X162832729Y-114389068D01*
X162940000Y-114344635D01*
X163047271Y-114389068D01*
X163227911Y-114425000D01*
X163412089Y-114425000D01*
X163592729Y-114389068D01*
X163700000Y-114344635D01*
X163807271Y-114389068D01*
X163987911Y-114425000D01*
X164172089Y-114425000D01*
X164352729Y-114389068D01*
X164460000Y-114344635D01*
X164567271Y-114389068D01*
X164747911Y-114425000D01*
X164932089Y-114425000D01*
X165112729Y-114389068D01*
X165220000Y-114344635D01*
X165327271Y-114389068D01*
X165507911Y-114425000D01*
X165692089Y-114425000D01*
X165872729Y-114389068D01*
X165980000Y-114344635D01*
X166087271Y-114389068D01*
X166267911Y-114425000D01*
X166452089Y-114425000D01*
X166632729Y-114389068D01*
X166740000Y-114344635D01*
X166847271Y-114389068D01*
X167027911Y-114425000D01*
X167212089Y-114425000D01*
X167392729Y-114389068D01*
X167500000Y-114344635D01*
X167607271Y-114389068D01*
X167787911Y-114425000D01*
X167972089Y-114425000D01*
X168152729Y-114389068D01*
X168260000Y-114344635D01*
X168367271Y-114389068D01*
X168547911Y-114425000D01*
X168732089Y-114425000D01*
X168912729Y-114389068D01*
X169020000Y-114344635D01*
X169127271Y-114389068D01*
X169307911Y-114425000D01*
X169492089Y-114425000D01*
X169672729Y-114389068D01*
X169780000Y-114344635D01*
X169887271Y-114389068D01*
X170067911Y-114425000D01*
X170222583Y-114425000D01*
X170271414Y-114542889D01*
X170373738Y-114696028D01*
X170503972Y-114826262D01*
X170657111Y-114928586D01*
X170827271Y-114999068D01*
X171007911Y-115035000D01*
X171192089Y-115035000D01*
X171372729Y-114999068D01*
X171487500Y-114951529D01*
X171602271Y-114999068D01*
X171782911Y-115035000D01*
X171967089Y-115035000D01*
X172147729Y-114999068D01*
X172262500Y-114951529D01*
X172377271Y-114999068D01*
X172557911Y-115035000D01*
X172742089Y-115035000D01*
X172922729Y-114999068D01*
X173037500Y-114951529D01*
X173152271Y-114999068D01*
X173332911Y-115035000D01*
X173517089Y-115035000D01*
X173697729Y-114999068D01*
X173812500Y-114951529D01*
X173927271Y-114999068D01*
X174107911Y-115035000D01*
X174292089Y-115035000D01*
X174340001Y-115025470D01*
X174340001Y-115757933D01*
X174193539Y-115728800D01*
X173989661Y-115728800D01*
X173789702Y-115768574D01*
X173601344Y-115846595D01*
X173431826Y-115959863D01*
X173355000Y-116036689D01*
X173278174Y-115959863D01*
X173108656Y-115846595D01*
X172920298Y-115768574D01*
X172720339Y-115728800D01*
X172516461Y-115728800D01*
X172316502Y-115768574D01*
X172128144Y-115846595D01*
X171958626Y-115959863D01*
X171907200Y-116011289D01*
X171855774Y-115959863D01*
X171686256Y-115846595D01*
X171497898Y-115768574D01*
X171297939Y-115728800D01*
X171094061Y-115728800D01*
X170894102Y-115768574D01*
X170705744Y-115846595D01*
X170536226Y-115959863D01*
X170392063Y-116104026D01*
X170278795Y-116273544D01*
X170200774Y-116461902D01*
X170161000Y-116661861D01*
X170161000Y-116865739D01*
X170200774Y-117065698D01*
X170278795Y-117254056D01*
X170392063Y-117423574D01*
X170536226Y-117567737D01*
X170681791Y-117665000D01*
X170622285Y-117665000D01*
X169881372Y-117812377D01*
X169183446Y-118101467D01*
X168555330Y-118521161D01*
X168021161Y-119055330D01*
X167601467Y-119683446D01*
X167312377Y-120381372D01*
X167165000Y-121122285D01*
X167165000Y-121877715D01*
X167312377Y-122618628D01*
X167601467Y-123316554D01*
X168021161Y-123944670D01*
X168555330Y-124478839D01*
X169095845Y-124840000D01*
X98504155Y-124840000D01*
X99044670Y-124478839D01*
X99578839Y-123944670D01*
X99998533Y-123316554D01*
X100287623Y-122618628D01*
X100435000Y-121877715D01*
X100435000Y-121122285D01*
X100287623Y-120381372D01*
X100150365Y-120050000D01*
X104611928Y-120050000D01*
X104611928Y-121550000D01*
X104628992Y-121723254D01*
X104679528Y-121889850D01*
X104761595Y-122043386D01*
X104872038Y-122177962D01*
X105006614Y-122288405D01*
X105160150Y-122370472D01*
X105326746Y-122421008D01*
X105500000Y-122438072D01*
X106700000Y-122438072D01*
X106873254Y-122421008D01*
X107039850Y-122370472D01*
X107193386Y-122288405D01*
X107327962Y-122177962D01*
X107438405Y-122043386D01*
X107492777Y-121941663D01*
X107544866Y-122005134D01*
X107770987Y-122190706D01*
X108028967Y-122328599D01*
X108308890Y-122413513D01*
X108600000Y-122442185D01*
X108891111Y-122413513D01*
X109171034Y-122328599D01*
X109429014Y-122190706D01*
X109655134Y-122005134D01*
X109840706Y-121779014D01*
X109978599Y-121521033D01*
X110010142Y-121417050D01*
X138785000Y-121417050D01*
X138785000Y-121862949D01*
X138806487Y-122081110D01*
X138891401Y-122361033D01*
X139029294Y-122619013D01*
X139214866Y-122845134D01*
X139440986Y-123030706D01*
X139698966Y-123168599D01*
X139978889Y-123253513D01*
X140270000Y-123282185D01*
X140561110Y-123253513D01*
X140841033Y-123168599D01*
X141099013Y-123030706D01*
X141325134Y-122845134D01*
X141377223Y-122781663D01*
X141431595Y-122883386D01*
X141542038Y-123017962D01*
X141676614Y-123128405D01*
X141830150Y-123210472D01*
X141996746Y-123261008D01*
X142170000Y-123278072D01*
X143370000Y-123278072D01*
X143543254Y-123261008D01*
X143709850Y-123210472D01*
X143863386Y-123128405D01*
X143997962Y-123017962D01*
X144108405Y-122883386D01*
X144190472Y-122729850D01*
X144241008Y-122563254D01*
X144258072Y-122390000D01*
X144258072Y-121442050D01*
X147285000Y-121442050D01*
X147285000Y-121837949D01*
X147306487Y-122056110D01*
X147391401Y-122336033D01*
X147529294Y-122594013D01*
X147714866Y-122820134D01*
X147940986Y-123005706D01*
X148198966Y-123143599D01*
X148478889Y-123228513D01*
X148770000Y-123257185D01*
X149061110Y-123228513D01*
X149341033Y-123143599D01*
X149599013Y-123005706D01*
X149825134Y-122820134D01*
X150010706Y-122594014D01*
X150020000Y-122576626D01*
X150029294Y-122594013D01*
X150214866Y-122820134D01*
X150440986Y-123005706D01*
X150698966Y-123143599D01*
X150978889Y-123228513D01*
X151270000Y-123257185D01*
X151561110Y-123228513D01*
X151841033Y-123143599D01*
X152099013Y-123005706D01*
X152325134Y-122820134D01*
X152377223Y-122756663D01*
X152431595Y-122858386D01*
X152542038Y-122992962D01*
X152676614Y-123103405D01*
X152830150Y-123185472D01*
X152996746Y-123236008D01*
X153170000Y-123253072D01*
X154370000Y-123253072D01*
X154543254Y-123236008D01*
X154709850Y-123185472D01*
X154863386Y-123103405D01*
X154997962Y-122992962D01*
X155108405Y-122858386D01*
X155190472Y-122704850D01*
X155241008Y-122538254D01*
X155258072Y-122365000D01*
X155258072Y-120915000D01*
X155241008Y-120741746D01*
X155190472Y-120575150D01*
X155108405Y-120421614D01*
X154997962Y-120287038D01*
X154863386Y-120176595D01*
X154709850Y-120094528D01*
X154543254Y-120043992D01*
X154370000Y-120026928D01*
X153170000Y-120026928D01*
X152996746Y-120043992D01*
X152830150Y-120094528D01*
X152676614Y-120176595D01*
X152542038Y-120287038D01*
X152431595Y-120421614D01*
X152377223Y-120523337D01*
X152325134Y-120459866D01*
X152099014Y-120274294D01*
X151841034Y-120136401D01*
X151561111Y-120051487D01*
X151270000Y-120022815D01*
X150978890Y-120051487D01*
X150698967Y-120136401D01*
X150440987Y-120274294D01*
X150214866Y-120459866D01*
X150029294Y-120685986D01*
X150020000Y-120703374D01*
X150010706Y-120685986D01*
X149825134Y-120459866D01*
X149599014Y-120274294D01*
X149341034Y-120136401D01*
X149061111Y-120051487D01*
X148770000Y-120022815D01*
X148478890Y-120051487D01*
X148198967Y-120136401D01*
X147940987Y-120274294D01*
X147714866Y-120459866D01*
X147529294Y-120685986D01*
X147391401Y-120943966D01*
X147306487Y-121223889D01*
X147285000Y-121442050D01*
X144258072Y-121442050D01*
X144258072Y-120890000D01*
X144241008Y-120716746D01*
X144190472Y-120550150D01*
X144108405Y-120396614D01*
X143997962Y-120262038D01*
X143863386Y-120151595D01*
X143709850Y-120069528D01*
X143543254Y-120018992D01*
X143370000Y-120001928D01*
X142170000Y-120001928D01*
X141996746Y-120018992D01*
X141830150Y-120069528D01*
X141676614Y-120151595D01*
X141542038Y-120262038D01*
X141431595Y-120396614D01*
X141377223Y-120498337D01*
X141325134Y-120434866D01*
X141099014Y-120249294D01*
X140841034Y-120111401D01*
X140561111Y-120026487D01*
X140270000Y-119997815D01*
X139978890Y-120026487D01*
X139698967Y-120111401D01*
X139440987Y-120249294D01*
X139214866Y-120434866D01*
X139029294Y-120660986D01*
X138891401Y-120918966D01*
X138806487Y-121198889D01*
X138785000Y-121417050D01*
X110010142Y-121417050D01*
X110063513Y-121241110D01*
X110085000Y-121022949D01*
X110085000Y-120577050D01*
X110063513Y-120358889D01*
X109978599Y-120078966D01*
X109840706Y-119820986D01*
X109655134Y-119594866D01*
X109429013Y-119409294D01*
X109171033Y-119271401D01*
X108891110Y-119186487D01*
X108600000Y-119157815D01*
X108308889Y-119186487D01*
X108028966Y-119271401D01*
X107770986Y-119409294D01*
X107544866Y-119594866D01*
X107492777Y-119658337D01*
X107438405Y-119556614D01*
X107327962Y-119422038D01*
X107193386Y-119311595D01*
X107039850Y-119229528D01*
X106873254Y-119178992D01*
X106700000Y-119161928D01*
X105500000Y-119161928D01*
X105326746Y-119178992D01*
X105160150Y-119229528D01*
X105006614Y-119311595D01*
X104872038Y-119422038D01*
X104761595Y-119556614D01*
X104679528Y-119710150D01*
X104628992Y-119876746D01*
X104611928Y-120050000D01*
X100150365Y-120050000D01*
X99998533Y-119683446D01*
X99578839Y-119055330D01*
X99044670Y-118521161D01*
X98416554Y-118101467D01*
X97718628Y-117812377D01*
X96977715Y-117665000D01*
X96222285Y-117665000D01*
X95481372Y-117812377D01*
X94783446Y-118101467D01*
X94155330Y-118521161D01*
X93621161Y-119055330D01*
X93201467Y-119683446D01*
X93160000Y-119783556D01*
X93160000Y-114769721D01*
X94915000Y-114769721D01*
X94915000Y-115190279D01*
X94997047Y-115602756D01*
X95157988Y-115991302D01*
X95391637Y-116340983D01*
X95689017Y-116638363D01*
X96038698Y-116872012D01*
X96427244Y-117032953D01*
X96839721Y-117115000D01*
X97260279Y-117115000D01*
X97672756Y-117032953D01*
X98061302Y-116872012D01*
X98410983Y-116638363D01*
X98671435Y-116377911D01*
X122355000Y-116377911D01*
X122355000Y-116562089D01*
X122390932Y-116742729D01*
X122461414Y-116912889D01*
X122563738Y-117066028D01*
X122693972Y-117196262D01*
X122847111Y-117298586D01*
X123017271Y-117369068D01*
X123197911Y-117405000D01*
X123382089Y-117405000D01*
X123562729Y-117369068D01*
X123732889Y-117298586D01*
X123886028Y-117196262D01*
X124016262Y-117066028D01*
X124118586Y-116912889D01*
X124189068Y-116742729D01*
X124225000Y-116562089D01*
X124225000Y-116377911D01*
X124189068Y-116197271D01*
X124118586Y-116027111D01*
X124016262Y-115873972D01*
X123886028Y-115743738D01*
X123732889Y-115641414D01*
X123562729Y-115570932D01*
X123382089Y-115535000D01*
X123197911Y-115535000D01*
X123017271Y-115570932D01*
X122847111Y-115641414D01*
X122693972Y-115743738D01*
X122563738Y-115873972D01*
X122461414Y-116027111D01*
X122390932Y-116197271D01*
X122355000Y-116377911D01*
X98671435Y-116377911D01*
X98708363Y-116340983D01*
X98942012Y-115991302D01*
X99102953Y-115602756D01*
X99185000Y-115190279D01*
X99185000Y-114769721D01*
X99102953Y-114357244D01*
X98942012Y-113968698D01*
X98708363Y-113619017D01*
X98410983Y-113321637D01*
X98061302Y-113087988D01*
X97672756Y-112927047D01*
X97260279Y-112845000D01*
X96839721Y-112845000D01*
X96427244Y-112927047D01*
X96038698Y-113087988D01*
X95689017Y-113321637D01*
X95391637Y-113619017D01*
X95157988Y-113968698D01*
X94997047Y-114357244D01*
X94915000Y-114769721D01*
X93160000Y-114769721D01*
X93160000Y-112298061D01*
X153865000Y-112298061D01*
X153865000Y-112501939D01*
X153904774Y-112701898D01*
X153924699Y-112750000D01*
X153904774Y-112798102D01*
X153865000Y-112998061D01*
X153865000Y-113201939D01*
X153904774Y-113401898D01*
X153982795Y-113590256D01*
X154096063Y-113759774D01*
X154240226Y-113903937D01*
X154409744Y-114017205D01*
X154598102Y-114095226D01*
X154798061Y-114135000D01*
X155001939Y-114135000D01*
X155201898Y-114095226D01*
X155390256Y-114017205D01*
X155559774Y-113903937D01*
X155703937Y-113759774D01*
X155817205Y-113590256D01*
X155895226Y-113401898D01*
X155935000Y-113201939D01*
X155935000Y-112998061D01*
X155895226Y-112798102D01*
X155875301Y-112750000D01*
X155895226Y-112701898D01*
X155935000Y-112501939D01*
X155935000Y-112298061D01*
X155895226Y-112098102D01*
X155817205Y-111909744D01*
X155703937Y-111740226D01*
X155559774Y-111596063D01*
X155390256Y-111482795D01*
X155201898Y-111404774D01*
X155001939Y-111365000D01*
X154798061Y-111365000D01*
X154598102Y-111404774D01*
X154409744Y-111482795D01*
X154240226Y-111596063D01*
X154096063Y-111740226D01*
X153982795Y-111909744D01*
X153904774Y-112098102D01*
X153865000Y-112298061D01*
X93160000Y-112298061D01*
X93160000Y-108400000D01*
X94911928Y-108400000D01*
X94911928Y-111400000D01*
X94924188Y-111524482D01*
X94960498Y-111644180D01*
X95019463Y-111754494D01*
X95098815Y-111851185D01*
X95195506Y-111930537D01*
X95305820Y-111989502D01*
X95425518Y-112025812D01*
X95550000Y-112038072D01*
X98550000Y-112038072D01*
X98674482Y-112025812D01*
X98794180Y-111989502D01*
X98904494Y-111930537D01*
X99001185Y-111851185D01*
X99080537Y-111754494D01*
X99139502Y-111644180D01*
X99175812Y-111524482D01*
X99188072Y-111400000D01*
X99188072Y-109741768D01*
X102035000Y-109741768D01*
X102035000Y-110103232D01*
X102105518Y-110457750D01*
X102243844Y-110791699D01*
X102444662Y-111092244D01*
X102700256Y-111347838D01*
X103000801Y-111548656D01*
X103334750Y-111686982D01*
X103689268Y-111757500D01*
X104050732Y-111757500D01*
X104405250Y-111686982D01*
X104739199Y-111548656D01*
X105039744Y-111347838D01*
X105295338Y-111092244D01*
X105496156Y-110791699D01*
X105634482Y-110457750D01*
X105705000Y-110103232D01*
X105705000Y-109741768D01*
X107115000Y-109741768D01*
X107115000Y-110103232D01*
X107185518Y-110457750D01*
X107323844Y-110791699D01*
X107524662Y-111092244D01*
X107780256Y-111347838D01*
X108080801Y-111548656D01*
X108414750Y-111686982D01*
X108769268Y-111757500D01*
X109130732Y-111757500D01*
X109485250Y-111686982D01*
X109819199Y-111548656D01*
X110119744Y-111347838D01*
X110375338Y-111092244D01*
X110493633Y-110915202D01*
X118296903Y-110915202D01*
X118368486Y-111159171D01*
X118623996Y-111280071D01*
X118898184Y-111348800D01*
X119180512Y-111362717D01*
X119460130Y-111321287D01*
X119726292Y-111226103D01*
X119851514Y-111159171D01*
X119923097Y-110915202D01*
X119110000Y-110102105D01*
X118296903Y-110915202D01*
X110493633Y-110915202D01*
X110576156Y-110791699D01*
X110714482Y-110457750D01*
X110785000Y-110103232D01*
X110785000Y-109993012D01*
X117669783Y-109993012D01*
X117711213Y-110272630D01*
X117806397Y-110538792D01*
X117873329Y-110664014D01*
X118117298Y-110735597D01*
X118930395Y-109922500D01*
X119289605Y-109922500D01*
X120102702Y-110735597D01*
X120346671Y-110664014D01*
X120377194Y-110599508D01*
X120378320Y-110602227D01*
X120535363Y-110837259D01*
X120735241Y-111037137D01*
X120970273Y-111194180D01*
X121231426Y-111302353D01*
X121508665Y-111357500D01*
X121791335Y-111357500D01*
X122068574Y-111302353D01*
X122329727Y-111194180D01*
X122564759Y-111037137D01*
X122764637Y-110837259D01*
X122921680Y-110602227D01*
X123029853Y-110341074D01*
X123085000Y-110063835D01*
X123085000Y-109781165D01*
X123029853Y-109503926D01*
X122921680Y-109242773D01*
X122764637Y-109007741D01*
X122564759Y-108807863D01*
X122329727Y-108650820D01*
X122068574Y-108542647D01*
X121791335Y-108487500D01*
X121508665Y-108487500D01*
X121231426Y-108542647D01*
X120970273Y-108650820D01*
X120735241Y-108807863D01*
X120535363Y-109007741D01*
X120379085Y-109241628D01*
X120346671Y-109180986D01*
X120102702Y-109109403D01*
X119289605Y-109922500D01*
X118930395Y-109922500D01*
X118117298Y-109109403D01*
X117873329Y-109180986D01*
X117752429Y-109436496D01*
X117683700Y-109710684D01*
X117669783Y-109993012D01*
X110785000Y-109993012D01*
X110785000Y-109741768D01*
X110714482Y-109387250D01*
X110576156Y-109053301D01*
X110493634Y-108929798D01*
X118296903Y-108929798D01*
X119110000Y-109742895D01*
X119923097Y-108929798D01*
X119851514Y-108685829D01*
X119596004Y-108564929D01*
X119321816Y-108496200D01*
X119039488Y-108482283D01*
X118759870Y-108523713D01*
X118493708Y-108618897D01*
X118368486Y-108685829D01*
X118296903Y-108929798D01*
X110493634Y-108929798D01*
X110375338Y-108752756D01*
X110119744Y-108497162D01*
X109819199Y-108296344D01*
X109485250Y-108158018D01*
X109130732Y-108087500D01*
X108769268Y-108087500D01*
X108414750Y-108158018D01*
X108080801Y-108296344D01*
X107780256Y-108497162D01*
X107524662Y-108752756D01*
X107323844Y-109053301D01*
X107185518Y-109387250D01*
X107115000Y-109741768D01*
X105705000Y-109741768D01*
X105634482Y-109387250D01*
X105496156Y-109053301D01*
X105295338Y-108752756D01*
X105039744Y-108497162D01*
X104739199Y-108296344D01*
X104405250Y-108158018D01*
X104050732Y-108087500D01*
X103689268Y-108087500D01*
X103334750Y-108158018D01*
X103000801Y-108296344D01*
X102700256Y-108497162D01*
X102444662Y-108752756D01*
X102243844Y-109053301D01*
X102105518Y-109387250D01*
X102035000Y-109741768D01*
X99188072Y-109741768D01*
X99188072Y-108400000D01*
X99175812Y-108275518D01*
X99139502Y-108155820D01*
X99080537Y-108045506D01*
X99025187Y-107978061D01*
X124235000Y-107978061D01*
X124235000Y-108181939D01*
X124274774Y-108381898D01*
X124352795Y-108570256D01*
X124466063Y-108739774D01*
X124610226Y-108883937D01*
X124779744Y-108997205D01*
X124968102Y-109075226D01*
X125168061Y-109115000D01*
X125371939Y-109115000D01*
X125571898Y-109075226D01*
X125760256Y-108997205D01*
X125929774Y-108883937D01*
X126073937Y-108739774D01*
X126187205Y-108570256D01*
X126265226Y-108381898D01*
X126305000Y-108181939D01*
X126305000Y-107978061D01*
X126265226Y-107778102D01*
X126187205Y-107589744D01*
X126073937Y-107420226D01*
X125929774Y-107276063D01*
X125760256Y-107162795D01*
X125571898Y-107084774D01*
X125371939Y-107045000D01*
X125168061Y-107045000D01*
X124968102Y-107084774D01*
X124779744Y-107162795D01*
X124610226Y-107276063D01*
X124466063Y-107420226D01*
X124352795Y-107589744D01*
X124274774Y-107778102D01*
X124235000Y-107978061D01*
X99025187Y-107978061D01*
X99001185Y-107948815D01*
X98904494Y-107869463D01*
X98794180Y-107810498D01*
X98674482Y-107774188D01*
X98550000Y-107761928D01*
X95550000Y-107761928D01*
X95425518Y-107774188D01*
X95305820Y-107810498D01*
X95195506Y-107869463D01*
X95098815Y-107948815D01*
X95019463Y-108045506D01*
X94960498Y-108155820D01*
X94924188Y-108275518D01*
X94911928Y-108400000D01*
X93160000Y-108400000D01*
X93160000Y-103869721D01*
X94915000Y-103869721D01*
X94915000Y-104290279D01*
X94997047Y-104702756D01*
X95157988Y-105091302D01*
X95391637Y-105440983D01*
X95689017Y-105738363D01*
X96038698Y-105972012D01*
X96427244Y-106132953D01*
X96839721Y-106215000D01*
X97260279Y-106215000D01*
X97672756Y-106132953D01*
X98061302Y-105972012D01*
X98410983Y-105738363D01*
X98708363Y-105440983D01*
X98942012Y-105091302D01*
X99102953Y-104702756D01*
X99105905Y-104687911D01*
X122315000Y-104687911D01*
X122315000Y-104872089D01*
X122350932Y-105052729D01*
X122421414Y-105222889D01*
X122523738Y-105376028D01*
X122653972Y-105506262D01*
X122807111Y-105608586D01*
X122977271Y-105679068D01*
X123157911Y-105715000D01*
X123342089Y-105715000D01*
X123522729Y-105679068D01*
X123692889Y-105608586D01*
X123846028Y-105506262D01*
X123976262Y-105376028D01*
X124078586Y-105222889D01*
X124149068Y-105052729D01*
X124185000Y-104872089D01*
X124185000Y-104687911D01*
X124149068Y-104507271D01*
X124078586Y-104337111D01*
X123976262Y-104183972D01*
X123846028Y-104053738D01*
X123692889Y-103951414D01*
X123522729Y-103880932D01*
X123342089Y-103845000D01*
X123157911Y-103845000D01*
X122977271Y-103880932D01*
X122807111Y-103951414D01*
X122653972Y-104053738D01*
X122523738Y-104183972D01*
X122421414Y-104337111D01*
X122350932Y-104507271D01*
X122315000Y-104687911D01*
X99105905Y-104687911D01*
X99185000Y-104290279D01*
X99185000Y-103869721D01*
X99102953Y-103457244D01*
X98942012Y-103068698D01*
X98708363Y-102719017D01*
X98410983Y-102421637D01*
X98061302Y-102187988D01*
X97672756Y-102027047D01*
X97260279Y-101945000D01*
X96839721Y-101945000D01*
X96427244Y-102027047D01*
X96038698Y-102187988D01*
X95689017Y-102421637D01*
X95391637Y-102719017D01*
X95157988Y-103068698D01*
X94997047Y-103457244D01*
X94915000Y-103869721D01*
X93160000Y-103869721D01*
X93160000Y-97500000D01*
X94911928Y-97500000D01*
X94911928Y-100500000D01*
X94924188Y-100624482D01*
X94960498Y-100744180D01*
X95019463Y-100854494D01*
X95098815Y-100951185D01*
X95195506Y-101030537D01*
X95305820Y-101089502D01*
X95425518Y-101125812D01*
X95550000Y-101138072D01*
X98550000Y-101138072D01*
X98674482Y-101125812D01*
X98794180Y-101089502D01*
X98904494Y-101030537D01*
X99001185Y-100951185D01*
X99080537Y-100854494D01*
X99139502Y-100744180D01*
X99175812Y-100624482D01*
X99188072Y-100500000D01*
X99188072Y-98841768D01*
X102035000Y-98841768D01*
X102035000Y-99203232D01*
X102105518Y-99557750D01*
X102243844Y-99891699D01*
X102444662Y-100192244D01*
X102700256Y-100447838D01*
X103000801Y-100648656D01*
X103334750Y-100786982D01*
X103689268Y-100857500D01*
X104050732Y-100857500D01*
X104405250Y-100786982D01*
X104739199Y-100648656D01*
X105039744Y-100447838D01*
X105295338Y-100192244D01*
X105496156Y-99891699D01*
X105634482Y-99557750D01*
X105705000Y-99203232D01*
X105705000Y-98841768D01*
X107115000Y-98841768D01*
X107115000Y-99203232D01*
X107185518Y-99557750D01*
X107323844Y-99891699D01*
X107524662Y-100192244D01*
X107780256Y-100447838D01*
X108080801Y-100648656D01*
X108414750Y-100786982D01*
X108769268Y-100857500D01*
X109130732Y-100857500D01*
X109485250Y-100786982D01*
X109819199Y-100648656D01*
X110119744Y-100447838D01*
X110375338Y-100192244D01*
X110493633Y-100015202D01*
X118296903Y-100015202D01*
X118368486Y-100259171D01*
X118623996Y-100380071D01*
X118898184Y-100448800D01*
X119180512Y-100462717D01*
X119460130Y-100421287D01*
X119726292Y-100326103D01*
X119851514Y-100259171D01*
X119923097Y-100015202D01*
X119110000Y-99202105D01*
X118296903Y-100015202D01*
X110493633Y-100015202D01*
X110576156Y-99891699D01*
X110714482Y-99557750D01*
X110785000Y-99203232D01*
X110785000Y-99093012D01*
X117669783Y-99093012D01*
X117711213Y-99372630D01*
X117806397Y-99638792D01*
X117873329Y-99764014D01*
X118117298Y-99835597D01*
X118930395Y-99022500D01*
X119289605Y-99022500D01*
X120102702Y-99835597D01*
X120346671Y-99764014D01*
X120377194Y-99699508D01*
X120378320Y-99702227D01*
X120535363Y-99937259D01*
X120735241Y-100137137D01*
X120970273Y-100294180D01*
X121231426Y-100402353D01*
X121508665Y-100457500D01*
X121791335Y-100457500D01*
X122068574Y-100402353D01*
X122329727Y-100294180D01*
X122564759Y-100137137D01*
X122764637Y-99937259D01*
X122921680Y-99702227D01*
X123029853Y-99441074D01*
X123085000Y-99163835D01*
X123085000Y-98881165D01*
X123029853Y-98603926D01*
X122921680Y-98342773D01*
X122764637Y-98107741D01*
X122756896Y-98100000D01*
X162261928Y-98100000D01*
X162274188Y-98224482D01*
X162310498Y-98344180D01*
X162369463Y-98454494D01*
X162448815Y-98551185D01*
X162545506Y-98630537D01*
X162655820Y-98689502D01*
X162775518Y-98725812D01*
X162900000Y-98738072D01*
X163614250Y-98735000D01*
X163773000Y-98576250D01*
X163773000Y-97227000D01*
X164027000Y-97227000D01*
X164027000Y-98576250D01*
X164185750Y-98735000D01*
X164900000Y-98738072D01*
X165024482Y-98725812D01*
X165144180Y-98689502D01*
X165254494Y-98630537D01*
X165351185Y-98551185D01*
X165430537Y-98454494D01*
X165489502Y-98344180D01*
X165525812Y-98224482D01*
X165538072Y-98100000D01*
X165535000Y-97385750D01*
X165376250Y-97227000D01*
X164027000Y-97227000D01*
X163773000Y-97227000D01*
X162423750Y-97227000D01*
X162265000Y-97385750D01*
X162261928Y-98100000D01*
X122756896Y-98100000D01*
X122564759Y-97907863D01*
X122329727Y-97750820D01*
X122068574Y-97642647D01*
X121791335Y-97587500D01*
X121508665Y-97587500D01*
X121231426Y-97642647D01*
X120970273Y-97750820D01*
X120735241Y-97907863D01*
X120535363Y-98107741D01*
X120379085Y-98341628D01*
X120346671Y-98280986D01*
X120102702Y-98209403D01*
X119289605Y-99022500D01*
X118930395Y-99022500D01*
X118117298Y-98209403D01*
X117873329Y-98280986D01*
X117752429Y-98536496D01*
X117683700Y-98810684D01*
X117669783Y-99093012D01*
X110785000Y-99093012D01*
X110785000Y-98841768D01*
X110714482Y-98487250D01*
X110576156Y-98153301D01*
X110493634Y-98029798D01*
X118296903Y-98029798D01*
X119110000Y-98842895D01*
X119923097Y-98029798D01*
X119851514Y-97785829D01*
X119596004Y-97664929D01*
X119321816Y-97596200D01*
X119039488Y-97582283D01*
X118759870Y-97623713D01*
X118493708Y-97718897D01*
X118368486Y-97785829D01*
X118296903Y-98029798D01*
X110493634Y-98029798D01*
X110375338Y-97852756D01*
X110119744Y-97597162D01*
X109819199Y-97396344D01*
X109485250Y-97258018D01*
X109130732Y-97187500D01*
X108769268Y-97187500D01*
X108414750Y-97258018D01*
X108080801Y-97396344D01*
X107780256Y-97597162D01*
X107524662Y-97852756D01*
X107323844Y-98153301D01*
X107185518Y-98487250D01*
X107115000Y-98841768D01*
X105705000Y-98841768D01*
X105634482Y-98487250D01*
X105496156Y-98153301D01*
X105295338Y-97852756D01*
X105039744Y-97597162D01*
X104739199Y-97396344D01*
X104405250Y-97258018D01*
X104050732Y-97187500D01*
X103689268Y-97187500D01*
X103334750Y-97258018D01*
X103000801Y-97396344D01*
X102700256Y-97597162D01*
X102444662Y-97852756D01*
X102243844Y-98153301D01*
X102105518Y-98487250D01*
X102035000Y-98841768D01*
X99188072Y-98841768D01*
X99188072Y-97500000D01*
X99175812Y-97375518D01*
X99139502Y-97255820D01*
X99080537Y-97145506D01*
X99001185Y-97048815D01*
X98904494Y-96969463D01*
X98794180Y-96910498D01*
X98674482Y-96874188D01*
X98550000Y-96861928D01*
X95550000Y-96861928D01*
X95425518Y-96874188D01*
X95305820Y-96910498D01*
X95195506Y-96969463D01*
X95098815Y-97048815D01*
X95019463Y-97145506D01*
X94960498Y-97255820D01*
X94924188Y-97375518D01*
X94911928Y-97500000D01*
X93160000Y-97500000D01*
X93160000Y-96100000D01*
X162261928Y-96100000D01*
X162265000Y-96814250D01*
X162423750Y-96973000D01*
X163773000Y-96973000D01*
X163773000Y-95623750D01*
X164027000Y-95623750D01*
X164027000Y-96973000D01*
X165376250Y-96973000D01*
X165535000Y-96814250D01*
X165538072Y-96100000D01*
X165525812Y-95975518D01*
X165489502Y-95855820D01*
X165430537Y-95745506D01*
X165351185Y-95648815D01*
X165254494Y-95569463D01*
X165144180Y-95510498D01*
X165024482Y-95474188D01*
X164900000Y-95461928D01*
X164185750Y-95465000D01*
X164027000Y-95623750D01*
X163773000Y-95623750D01*
X163614250Y-95465000D01*
X162900000Y-95461928D01*
X162775518Y-95474188D01*
X162655820Y-95510498D01*
X162545506Y-95569463D01*
X162448815Y-95648815D01*
X162369463Y-95745506D01*
X162310498Y-95855820D01*
X162274188Y-95975518D01*
X162261928Y-96100000D01*
X93160000Y-96100000D01*
X93160000Y-94198061D01*
X118865000Y-94198061D01*
X118865000Y-94401939D01*
X118904774Y-94601898D01*
X118982795Y-94790256D01*
X119096063Y-94959774D01*
X119240226Y-95103937D01*
X119409744Y-95217205D01*
X119598102Y-95295226D01*
X119798061Y-95335000D01*
X120001939Y-95335000D01*
X120201898Y-95295226D01*
X120390256Y-95217205D01*
X120559774Y-95103937D01*
X120703937Y-94959774D01*
X120817205Y-94790256D01*
X120895226Y-94601898D01*
X120935000Y-94401939D01*
X120935000Y-94198061D01*
X120895226Y-93998102D01*
X120875302Y-93950000D01*
X126731928Y-93950000D01*
X126744188Y-94074482D01*
X126780498Y-94194180D01*
X126839463Y-94304494D01*
X126918815Y-94401185D01*
X127015506Y-94480537D01*
X127125820Y-94539502D01*
X127245518Y-94575812D01*
X127370000Y-94588072D01*
X127934250Y-94585000D01*
X128093000Y-94426250D01*
X128093000Y-93227000D01*
X126893750Y-93227000D01*
X126735000Y-93385750D01*
X126731928Y-93950000D01*
X120875302Y-93950000D01*
X120817205Y-93809744D01*
X120703937Y-93640226D01*
X120559774Y-93496063D01*
X120390256Y-93382795D01*
X120201898Y-93304774D01*
X120001939Y-93265000D01*
X119798061Y-93265000D01*
X119598102Y-93304774D01*
X119409744Y-93382795D01*
X119240226Y-93496063D01*
X119096063Y-93640226D01*
X118982795Y-93809744D01*
X118904774Y-93998102D01*
X118865000Y-94198061D01*
X93160000Y-94198061D01*
X93160000Y-91298061D01*
X95565000Y-91298061D01*
X95565000Y-91501939D01*
X95604774Y-91701898D01*
X95682795Y-91890256D01*
X95796063Y-92059774D01*
X95940226Y-92203937D01*
X96109744Y-92317205D01*
X96298102Y-92395226D01*
X96498061Y-92435000D01*
X96701939Y-92435000D01*
X96901898Y-92395226D01*
X97090256Y-92317205D01*
X97259774Y-92203937D01*
X97403937Y-92059774D01*
X97517205Y-91890256D01*
X97550000Y-91811082D01*
X97582795Y-91890256D01*
X97696063Y-92059774D01*
X97840226Y-92203937D01*
X98009744Y-92317205D01*
X98198102Y-92395226D01*
X98398061Y-92435000D01*
X98601939Y-92435000D01*
X98801898Y-92395226D01*
X98990256Y-92317205D01*
X99159774Y-92203937D01*
X99303937Y-92059774D01*
X99417205Y-91890256D01*
X99495226Y-91701898D01*
X99535000Y-91501939D01*
X99535000Y-91298061D01*
X104365000Y-91298061D01*
X104365000Y-91501939D01*
X104404774Y-91701898D01*
X104482795Y-91890256D01*
X104596063Y-92059774D01*
X104740226Y-92203937D01*
X104909744Y-92317205D01*
X105098102Y-92395226D01*
X105298061Y-92435000D01*
X105501939Y-92435000D01*
X105701898Y-92395226D01*
X105890256Y-92317205D01*
X106059774Y-92203937D01*
X106203937Y-92059774D01*
X106317205Y-91890256D01*
X106395226Y-91701898D01*
X106400000Y-91677897D01*
X106404774Y-91701898D01*
X106482795Y-91890256D01*
X106596063Y-92059774D01*
X106740226Y-92203937D01*
X106909744Y-92317205D01*
X107098102Y-92395226D01*
X107298061Y-92435000D01*
X107501939Y-92435000D01*
X107701898Y-92395226D01*
X107890256Y-92317205D01*
X107990835Y-92250000D01*
X126731928Y-92250000D01*
X126735000Y-92814250D01*
X126893750Y-92973000D01*
X128093000Y-92973000D01*
X128093000Y-91773750D01*
X128347000Y-91773750D01*
X128347000Y-92973000D01*
X128367000Y-92973000D01*
X128367000Y-93227000D01*
X128347000Y-93227000D01*
X128347000Y-94426250D01*
X128505750Y-94585000D01*
X129070000Y-94588072D01*
X129194482Y-94575812D01*
X129314180Y-94539502D01*
X129424494Y-94480537D01*
X129521185Y-94401185D01*
X129600537Y-94304494D01*
X129659502Y-94194180D01*
X129680393Y-94125313D01*
X129704866Y-94155134D01*
X129930986Y-94340706D01*
X130188966Y-94478599D01*
X130468889Y-94563513D01*
X130687050Y-94585000D01*
X130832950Y-94585000D01*
X131051111Y-94563513D01*
X131331034Y-94478599D01*
X131589014Y-94340706D01*
X131815134Y-94155134D01*
X132000706Y-93929014D01*
X132030000Y-93874209D01*
X132059294Y-93929014D01*
X132244866Y-94155134D01*
X132470986Y-94340706D01*
X132728966Y-94478599D01*
X133008889Y-94563513D01*
X133227050Y-94585000D01*
X133372950Y-94585000D01*
X133591111Y-94563513D01*
X133871034Y-94478599D01*
X134129014Y-94340706D01*
X134355134Y-94155134D01*
X134540706Y-93929014D01*
X134570000Y-93874209D01*
X134599294Y-93929014D01*
X134784866Y-94155134D01*
X135010986Y-94340706D01*
X135268966Y-94478599D01*
X135548889Y-94563513D01*
X135767050Y-94585000D01*
X135912950Y-94585000D01*
X136131111Y-94563513D01*
X136411034Y-94478599D01*
X136669014Y-94340706D01*
X136895134Y-94155134D01*
X137080706Y-93929014D01*
X137218599Y-93671034D01*
X137303513Y-93391111D01*
X137332185Y-93100000D01*
X137303513Y-92808889D01*
X137218599Y-92528966D01*
X137080706Y-92270986D01*
X136895134Y-92044866D01*
X136766096Y-91938967D01*
X162265000Y-91938967D01*
X162265000Y-92261033D01*
X162327832Y-92576912D01*
X162451082Y-92874463D01*
X162630013Y-93142252D01*
X162857748Y-93369987D01*
X163125537Y-93548918D01*
X163423088Y-93672168D01*
X163738967Y-93735000D01*
X164061033Y-93735000D01*
X164376912Y-93672168D01*
X164674463Y-93548918D01*
X164942252Y-93369987D01*
X165169987Y-93142252D01*
X165348918Y-92874463D01*
X165472168Y-92576912D01*
X165535000Y-92261033D01*
X165535000Y-91938967D01*
X165472168Y-91623088D01*
X165348918Y-91325537D01*
X165169987Y-91057748D01*
X164942252Y-90830013D01*
X164674463Y-90651082D01*
X164376912Y-90527832D01*
X164061033Y-90465000D01*
X163738967Y-90465000D01*
X163423088Y-90527832D01*
X163125537Y-90651082D01*
X162857748Y-90830013D01*
X162630013Y-91057748D01*
X162451082Y-91325537D01*
X162327832Y-91623088D01*
X162265000Y-91938967D01*
X136766096Y-91938967D01*
X136669014Y-91859294D01*
X136411034Y-91721401D01*
X136131111Y-91636487D01*
X135912950Y-91615000D01*
X135767050Y-91615000D01*
X135548889Y-91636487D01*
X135268966Y-91721401D01*
X135010986Y-91859294D01*
X134784866Y-92044866D01*
X134599294Y-92270986D01*
X134570000Y-92325791D01*
X134540706Y-92270986D01*
X134355134Y-92044866D01*
X134129014Y-91859294D01*
X133871034Y-91721401D01*
X133591111Y-91636487D01*
X133372950Y-91615000D01*
X133227050Y-91615000D01*
X133008889Y-91636487D01*
X132728966Y-91721401D01*
X132470986Y-91859294D01*
X132244866Y-92044866D01*
X132059294Y-92270986D01*
X132030000Y-92325791D01*
X132000706Y-92270986D01*
X131815134Y-92044866D01*
X131589014Y-91859294D01*
X131331034Y-91721401D01*
X131051111Y-91636487D01*
X130832950Y-91615000D01*
X130687050Y-91615000D01*
X130468889Y-91636487D01*
X130188966Y-91721401D01*
X129930986Y-91859294D01*
X129704866Y-92044866D01*
X129680393Y-92074687D01*
X129659502Y-92005820D01*
X129600537Y-91895506D01*
X129521185Y-91798815D01*
X129424494Y-91719463D01*
X129314180Y-91660498D01*
X129194482Y-91624188D01*
X129070000Y-91611928D01*
X128505750Y-91615000D01*
X128347000Y-91773750D01*
X128093000Y-91773750D01*
X127934250Y-91615000D01*
X127370000Y-91611928D01*
X127245518Y-91624188D01*
X127125820Y-91660498D01*
X127015506Y-91719463D01*
X126918815Y-91798815D01*
X126839463Y-91895506D01*
X126780498Y-92005820D01*
X126744188Y-92125518D01*
X126731928Y-92250000D01*
X107990835Y-92250000D01*
X108059774Y-92203937D01*
X108203937Y-92059774D01*
X108317205Y-91890256D01*
X108395226Y-91701898D01*
X108435000Y-91501939D01*
X108435000Y-91298061D01*
X108395226Y-91098102D01*
X108317205Y-90909744D01*
X108203937Y-90740226D01*
X108059774Y-90596063D01*
X107987934Y-90548061D01*
X117065000Y-90548061D01*
X117065000Y-90751939D01*
X117104774Y-90951898D01*
X117182795Y-91140256D01*
X117296063Y-91309774D01*
X117440226Y-91453937D01*
X117609744Y-91567205D01*
X117798102Y-91645226D01*
X117998061Y-91685000D01*
X118201939Y-91685000D01*
X118401898Y-91645226D01*
X118590256Y-91567205D01*
X118759774Y-91453937D01*
X118903937Y-91309774D01*
X119017205Y-91140256D01*
X119095226Y-90951898D01*
X119135000Y-90751939D01*
X119135000Y-90572343D01*
X120327510Y-90572343D01*
X120327510Y-90776221D01*
X120367284Y-90976180D01*
X120445305Y-91164538D01*
X120558573Y-91334056D01*
X120702736Y-91478219D01*
X120872254Y-91591487D01*
X121060612Y-91669508D01*
X121260571Y-91709282D01*
X121464449Y-91709282D01*
X121664408Y-91669508D01*
X121852766Y-91591487D01*
X122022284Y-91478219D01*
X122166447Y-91334056D01*
X122279715Y-91164538D01*
X122357736Y-90976180D01*
X122397510Y-90776221D01*
X122397510Y-90572343D01*
X122357736Y-90372384D01*
X122279715Y-90184026D01*
X122166447Y-90014508D01*
X122022284Y-89870345D01*
X121852766Y-89757077D01*
X121664408Y-89679056D01*
X121464449Y-89639282D01*
X121260571Y-89639282D01*
X121060612Y-89679056D01*
X120872254Y-89757077D01*
X120702736Y-89870345D01*
X120558573Y-90014508D01*
X120445305Y-90184026D01*
X120367284Y-90372384D01*
X120327510Y-90572343D01*
X119135000Y-90572343D01*
X119135000Y-90548061D01*
X119095226Y-90348102D01*
X119017205Y-90159744D01*
X118903937Y-89990226D01*
X118759774Y-89846063D01*
X118590256Y-89732795D01*
X118401898Y-89654774D01*
X118201939Y-89615000D01*
X117998061Y-89615000D01*
X117798102Y-89654774D01*
X117609744Y-89732795D01*
X117440226Y-89846063D01*
X117296063Y-89990226D01*
X117182795Y-90159744D01*
X117104774Y-90348102D01*
X117065000Y-90548061D01*
X107987934Y-90548061D01*
X107890256Y-90482795D01*
X107701898Y-90404774D01*
X107501939Y-90365000D01*
X107298061Y-90365000D01*
X107098102Y-90404774D01*
X106909744Y-90482795D01*
X106740226Y-90596063D01*
X106596063Y-90740226D01*
X106482795Y-90909744D01*
X106404774Y-91098102D01*
X106400000Y-91122103D01*
X106395226Y-91098102D01*
X106317205Y-90909744D01*
X106203937Y-90740226D01*
X106059774Y-90596063D01*
X105890256Y-90482795D01*
X105701898Y-90404774D01*
X105501939Y-90365000D01*
X105298061Y-90365000D01*
X105098102Y-90404774D01*
X104909744Y-90482795D01*
X104740226Y-90596063D01*
X104596063Y-90740226D01*
X104482795Y-90909744D01*
X104404774Y-91098102D01*
X104365000Y-91298061D01*
X99535000Y-91298061D01*
X99495226Y-91098102D01*
X99417205Y-90909744D01*
X99303937Y-90740226D01*
X99159774Y-90596063D01*
X98990256Y-90482795D01*
X98801898Y-90404774D01*
X98601939Y-90365000D01*
X98398061Y-90365000D01*
X98198102Y-90404774D01*
X98009744Y-90482795D01*
X97840226Y-90596063D01*
X97696063Y-90740226D01*
X97582795Y-90909744D01*
X97550000Y-90988918D01*
X97517205Y-90909744D01*
X97403937Y-90740226D01*
X97259774Y-90596063D01*
X97090256Y-90482795D01*
X96901898Y-90404774D01*
X96701939Y-90365000D01*
X96498061Y-90365000D01*
X96298102Y-90404774D01*
X96109744Y-90482795D01*
X95940226Y-90596063D01*
X95796063Y-90740226D01*
X95682795Y-90909744D01*
X95604774Y-91098102D01*
X95565000Y-91298061D01*
X93160000Y-91298061D01*
X93160000Y-89457911D01*
X110215000Y-89457911D01*
X110215000Y-89642089D01*
X110250932Y-89822729D01*
X110321414Y-89992889D01*
X110423738Y-90146028D01*
X110553972Y-90276262D01*
X110707111Y-90378586D01*
X110877271Y-90449068D01*
X111057911Y-90485000D01*
X111242089Y-90485000D01*
X111422729Y-90449068D01*
X111592889Y-90378586D01*
X111746028Y-90276262D01*
X111876262Y-90146028D01*
X111978586Y-89992889D01*
X112028383Y-89872668D01*
X112067368Y-89888816D01*
X112248008Y-89924748D01*
X112432186Y-89924748D01*
X112612826Y-89888816D01*
X112782986Y-89818334D01*
X112936125Y-89716010D01*
X113066359Y-89585776D01*
X113168683Y-89432637D01*
X113239165Y-89262477D01*
X113275097Y-89081837D01*
X113275097Y-88897659D01*
X113239165Y-88717019D01*
X113168683Y-88546859D01*
X113066359Y-88393720D01*
X112936125Y-88263486D01*
X112782986Y-88161162D01*
X112612826Y-88090680D01*
X112534238Y-88075048D01*
X112490196Y-87968721D01*
X112387872Y-87815582D01*
X112257638Y-87685348D01*
X112104499Y-87583024D01*
X111934339Y-87512542D01*
X111753699Y-87476610D01*
X111569521Y-87476610D01*
X111388881Y-87512542D01*
X111218721Y-87583024D01*
X111065582Y-87685348D01*
X110935348Y-87815582D01*
X110833024Y-87968721D01*
X110762542Y-88138881D01*
X110726610Y-88319521D01*
X110726610Y-88503699D01*
X110762542Y-88684339D01*
X110767532Y-88696387D01*
X110707111Y-88721414D01*
X110553972Y-88823738D01*
X110423738Y-88953972D01*
X110321414Y-89107111D01*
X110250932Y-89277271D01*
X110215000Y-89457911D01*
X93160000Y-89457911D01*
X93160000Y-87190675D01*
X95920000Y-87190675D01*
X95920000Y-87409325D01*
X95962657Y-87623775D01*
X96046331Y-87825782D01*
X96167807Y-88007584D01*
X96322416Y-88162193D01*
X96504218Y-88283669D01*
X96706225Y-88367343D01*
X96920675Y-88410000D01*
X97139325Y-88410000D01*
X97353775Y-88367343D01*
X97555782Y-88283669D01*
X97737584Y-88162193D01*
X97892193Y-88007584D01*
X98013669Y-87825782D01*
X98097343Y-87623775D01*
X98140000Y-87409325D01*
X98140000Y-87190675D01*
X98097343Y-86976225D01*
X98066976Y-86902911D01*
X117505200Y-86902911D01*
X117505200Y-87087089D01*
X117541132Y-87267729D01*
X117611614Y-87437889D01*
X117713938Y-87591028D01*
X117844172Y-87721262D01*
X117997311Y-87823586D01*
X118167471Y-87894068D01*
X118285020Y-87917450D01*
X118658427Y-88290858D01*
X118682285Y-88319929D01*
X118798315Y-88415152D01*
X118930692Y-88485909D01*
X119074329Y-88529481D01*
X119186281Y-88540507D01*
X119186283Y-88540507D01*
X119223706Y-88544193D01*
X119261129Y-88540507D01*
X125930694Y-88540507D01*
X125977547Y-88628163D01*
X126072771Y-88744193D01*
X126101841Y-88768050D01*
X126545176Y-89211385D01*
X126569038Y-89240461D01*
X126642679Y-89300896D01*
X126685067Y-89335684D01*
X126755824Y-89373504D01*
X126817445Y-89406441D01*
X126961082Y-89450013D01*
X127073034Y-89461039D01*
X127073037Y-89461039D01*
X127110460Y-89464725D01*
X127147883Y-89461039D01*
X128433541Y-89461039D01*
X128523738Y-89596028D01*
X128531100Y-89603390D01*
X128467924Y-89603390D01*
X128287284Y-89639322D01*
X128199633Y-89675628D01*
X128044974Y-89611567D01*
X127864334Y-89575635D01*
X127680156Y-89575635D01*
X127499516Y-89611567D01*
X127329356Y-89682049D01*
X127176217Y-89784373D01*
X127045983Y-89914607D01*
X126943659Y-90067746D01*
X126873177Y-90237906D01*
X126837245Y-90418546D01*
X126837245Y-90602724D01*
X126873177Y-90783364D01*
X126943659Y-90953524D01*
X127045983Y-91106663D01*
X127176217Y-91236897D01*
X127329356Y-91339221D01*
X127499516Y-91409703D01*
X127680156Y-91445635D01*
X127864334Y-91445635D01*
X128044974Y-91409703D01*
X128132625Y-91373397D01*
X128287284Y-91437458D01*
X128467924Y-91473390D01*
X128652102Y-91473390D01*
X128832742Y-91437458D01*
X129002902Y-91366976D01*
X129156041Y-91264652D01*
X129286275Y-91134418D01*
X129388599Y-90981279D01*
X129459081Y-90811119D01*
X129495013Y-90630479D01*
X129495013Y-90446301D01*
X129459081Y-90265661D01*
X129388599Y-90095501D01*
X129286275Y-89942362D01*
X129278913Y-89935000D01*
X129342089Y-89935000D01*
X129522729Y-89899068D01*
X129666572Y-89839487D01*
X129804230Y-89931467D01*
X129974390Y-90001949D01*
X130155030Y-90037881D01*
X130339208Y-90037881D01*
X130519848Y-90001949D01*
X130690008Y-89931467D01*
X130843147Y-89829143D01*
X130916986Y-89755304D01*
X131007911Y-89773390D01*
X131192089Y-89773390D01*
X131372729Y-89737458D01*
X131542889Y-89666976D01*
X131696028Y-89564652D01*
X131826262Y-89434418D01*
X131928586Y-89281279D01*
X131963055Y-89198061D01*
X152965000Y-89198061D01*
X152965000Y-89401939D01*
X153004774Y-89601898D01*
X153082795Y-89790256D01*
X153196063Y-89959774D01*
X153340226Y-90103937D01*
X153509744Y-90217205D01*
X153698102Y-90295226D01*
X153898061Y-90335000D01*
X154101939Y-90335000D01*
X154301898Y-90295226D01*
X154490256Y-90217205D01*
X154659774Y-90103937D01*
X154803937Y-89959774D01*
X154917205Y-89790256D01*
X154995226Y-89601898D01*
X155035000Y-89401939D01*
X155035000Y-89198061D01*
X154995226Y-88998102D01*
X154917205Y-88809744D01*
X154803937Y-88640226D01*
X154659774Y-88496063D01*
X154490256Y-88382795D01*
X154301898Y-88304774D01*
X154101939Y-88265000D01*
X153898061Y-88265000D01*
X153698102Y-88304774D01*
X153509744Y-88382795D01*
X153340226Y-88496063D01*
X153196063Y-88640226D01*
X153082795Y-88809744D01*
X153004774Y-88998102D01*
X152965000Y-89198061D01*
X131963055Y-89198061D01*
X131999068Y-89111119D01*
X132035000Y-88930479D01*
X132035000Y-88746301D01*
X131999068Y-88565661D01*
X131928586Y-88395501D01*
X131826262Y-88242362D01*
X131823813Y-88239913D01*
X131841976Y-88234403D01*
X131974353Y-88163646D01*
X132038135Y-88111301D01*
X141961610Y-88111301D01*
X141961610Y-88295479D01*
X141997542Y-88476119D01*
X142068024Y-88646279D01*
X142170348Y-88799418D01*
X142300582Y-88929652D01*
X142453721Y-89031976D01*
X142623881Y-89102458D01*
X142804521Y-89138390D01*
X142988699Y-89138390D01*
X143169339Y-89102458D01*
X143339499Y-89031976D01*
X143492638Y-88929652D01*
X143622872Y-88799418D01*
X143725196Y-88646279D01*
X143795678Y-88476119D01*
X143831610Y-88295479D01*
X143831610Y-88111301D01*
X143795678Y-87930661D01*
X143725196Y-87760501D01*
X143622872Y-87607362D01*
X143492638Y-87477128D01*
X143339499Y-87374804D01*
X143169339Y-87304322D01*
X142988699Y-87268390D01*
X142804521Y-87268390D01*
X142623881Y-87304322D01*
X142453721Y-87374804D01*
X142300582Y-87477128D01*
X142170348Y-87607362D01*
X142068024Y-87760501D01*
X141997542Y-87930661D01*
X141961610Y-88111301D01*
X132038135Y-88111301D01*
X132090383Y-88068423D01*
X132114245Y-88039347D01*
X133673681Y-86479911D01*
X151195200Y-86479911D01*
X151195200Y-86664089D01*
X151231132Y-86844729D01*
X151301614Y-87014889D01*
X151403938Y-87168028D01*
X151534172Y-87298262D01*
X151687311Y-87400586D01*
X151857471Y-87471068D01*
X152038111Y-87507000D01*
X152222289Y-87507000D01*
X152402929Y-87471068D01*
X152573089Y-87400586D01*
X152726228Y-87298262D01*
X152856462Y-87168028D01*
X152958786Y-87014889D01*
X153029268Y-86844729D01*
X153065200Y-86664089D01*
X153065200Y-86479911D01*
X153029268Y-86299271D01*
X152958786Y-86129111D01*
X152856462Y-85975972D01*
X152726228Y-85845738D01*
X152573089Y-85743414D01*
X152402929Y-85672932D01*
X152222289Y-85637000D01*
X152038111Y-85637000D01*
X151857471Y-85672932D01*
X151687311Y-85743414D01*
X151534172Y-85845738D01*
X151403938Y-85975972D01*
X151301614Y-86129111D01*
X151231132Y-86299271D01*
X151195200Y-86479911D01*
X133673681Y-86479911D01*
X134339354Y-85814239D01*
X134368423Y-85790383D01*
X134463646Y-85674353D01*
X134504638Y-85597661D01*
X166960600Y-85597661D01*
X166960600Y-85801539D01*
X167000374Y-86001498D01*
X167078395Y-86189856D01*
X167088327Y-86204720D01*
X167060600Y-86344111D01*
X167060600Y-86528289D01*
X167096532Y-86708929D01*
X167167014Y-86879089D01*
X167269338Y-87032228D01*
X167399572Y-87162462D01*
X167552711Y-87264786D01*
X167722871Y-87335268D01*
X167903511Y-87371200D01*
X168087689Y-87371200D01*
X168268329Y-87335268D01*
X168438489Y-87264786D01*
X168591628Y-87162462D01*
X168721862Y-87032228D01*
X168824186Y-86879089D01*
X168894668Y-86708929D01*
X168930600Y-86528289D01*
X168930600Y-86344111D01*
X168902873Y-86204720D01*
X168912805Y-86189856D01*
X168990826Y-86001498D01*
X169030600Y-85801539D01*
X169030600Y-85597661D01*
X168990826Y-85397702D01*
X168954740Y-85310582D01*
X169005226Y-85188698D01*
X169045000Y-84988739D01*
X169045000Y-84784861D01*
X169005226Y-84584902D01*
X168956940Y-84468329D01*
X168995226Y-84375898D01*
X169035000Y-84175939D01*
X169035000Y-83972061D01*
X168995226Y-83772102D01*
X168917205Y-83583744D01*
X168803937Y-83414226D01*
X168659774Y-83270063D01*
X168490256Y-83156795D01*
X168301898Y-83078774D01*
X168101939Y-83039000D01*
X167898061Y-83039000D01*
X167698102Y-83078774D01*
X167509744Y-83156795D01*
X167340226Y-83270063D01*
X167196063Y-83414226D01*
X167082795Y-83583744D01*
X167004774Y-83772102D01*
X166965000Y-83972061D01*
X166965000Y-84175939D01*
X167004774Y-84375898D01*
X167053060Y-84492471D01*
X167014774Y-84584902D01*
X166975000Y-84784861D01*
X166975000Y-84988739D01*
X167014774Y-85188698D01*
X167050860Y-85275818D01*
X167000374Y-85397702D01*
X166960600Y-85597661D01*
X134504638Y-85597661D01*
X134534403Y-85541976D01*
X134577975Y-85398339D01*
X134589001Y-85286387D01*
X134589001Y-85286385D01*
X134592687Y-85248962D01*
X134589001Y-85211539D01*
X134589001Y-83333198D01*
X134598061Y-83335000D01*
X134801939Y-83335000D01*
X135001898Y-83295226D01*
X135190256Y-83217205D01*
X135359774Y-83103937D01*
X135370800Y-83092911D01*
X143057600Y-83092911D01*
X143057600Y-83277089D01*
X143093532Y-83457729D01*
X143164014Y-83627889D01*
X143266338Y-83781028D01*
X143396572Y-83911262D01*
X143549711Y-84013586D01*
X143719871Y-84084068D01*
X143900511Y-84120000D01*
X144084689Y-84120000D01*
X144265329Y-84084068D01*
X144435489Y-84013586D01*
X144588628Y-83911262D01*
X144718862Y-83781028D01*
X144786325Y-83680061D01*
X146295200Y-83680061D01*
X146295200Y-83883939D01*
X146334974Y-84083898D01*
X146412995Y-84272256D01*
X146526263Y-84441774D01*
X146670426Y-84585937D01*
X146839944Y-84699205D01*
X147028302Y-84777226D01*
X147228261Y-84817000D01*
X147432139Y-84817000D01*
X147632098Y-84777226D01*
X147820456Y-84699205D01*
X147989974Y-84585937D01*
X148134137Y-84441774D01*
X148247405Y-84272256D01*
X148325426Y-84083898D01*
X148365200Y-83883939D01*
X148365200Y-83680061D01*
X148325426Y-83480102D01*
X148247405Y-83291744D01*
X148134137Y-83122226D01*
X147989974Y-82978063D01*
X147820456Y-82864795D01*
X147632098Y-82786774D01*
X147432139Y-82747000D01*
X147228261Y-82747000D01*
X147028302Y-82786774D01*
X146839944Y-82864795D01*
X146670426Y-82978063D01*
X146526263Y-83122226D01*
X146412995Y-83291744D01*
X146334974Y-83480102D01*
X146295200Y-83680061D01*
X144786325Y-83680061D01*
X144821186Y-83627889D01*
X144891668Y-83457729D01*
X144927600Y-83277089D01*
X144927600Y-83092911D01*
X144891668Y-82912271D01*
X144821186Y-82742111D01*
X144718862Y-82588972D01*
X144588628Y-82458738D01*
X144435489Y-82356414D01*
X144265329Y-82285932D01*
X144084689Y-82250000D01*
X143900511Y-82250000D01*
X143719871Y-82285932D01*
X143549711Y-82356414D01*
X143396572Y-82458738D01*
X143266338Y-82588972D01*
X143164014Y-82742111D01*
X143093532Y-82912271D01*
X143057600Y-83092911D01*
X135370800Y-83092911D01*
X135503937Y-82959774D01*
X135617205Y-82790256D01*
X135695226Y-82601898D01*
X135735000Y-82401939D01*
X135735000Y-82198061D01*
X135695226Y-81998102D01*
X135617205Y-81809744D01*
X135503937Y-81640226D01*
X135359774Y-81496063D01*
X135190256Y-81382795D01*
X135001898Y-81304774D01*
X134801939Y-81265000D01*
X134598061Y-81265000D01*
X134589001Y-81266802D01*
X134589001Y-81236462D01*
X134592687Y-81199039D01*
X134587667Y-81148061D01*
X164235000Y-81148061D01*
X164235000Y-81351939D01*
X164274774Y-81551898D01*
X164352795Y-81740256D01*
X164466063Y-81909774D01*
X164610226Y-82053937D01*
X164779744Y-82167205D01*
X164968102Y-82245226D01*
X165168061Y-82285000D01*
X165371939Y-82285000D01*
X165571898Y-82245226D01*
X165760256Y-82167205D01*
X165929774Y-82053937D01*
X166073937Y-81909774D01*
X166187205Y-81740256D01*
X166265226Y-81551898D01*
X166305000Y-81351939D01*
X166305000Y-81148061D01*
X166265226Y-80948102D01*
X166187205Y-80759744D01*
X166073937Y-80590226D01*
X165929774Y-80446063D01*
X165760256Y-80332795D01*
X165571898Y-80254774D01*
X165371939Y-80215000D01*
X165168061Y-80215000D01*
X164968102Y-80254774D01*
X164779744Y-80332795D01*
X164610226Y-80446063D01*
X164466063Y-80590226D01*
X164352795Y-80759744D01*
X164274774Y-80948102D01*
X164235000Y-81148061D01*
X134587667Y-81148061D01*
X134586308Y-81134271D01*
X134577975Y-81049661D01*
X134534403Y-80906024D01*
X134483597Y-80810972D01*
X134463646Y-80773646D01*
X134428858Y-80731258D01*
X134368423Y-80657617D01*
X134339347Y-80633755D01*
X133272528Y-79566936D01*
X133248666Y-79537860D01*
X133190423Y-79490061D01*
X144915200Y-79490061D01*
X144915200Y-79693939D01*
X144954974Y-79893898D01*
X145032995Y-80082256D01*
X145146263Y-80251774D01*
X145290426Y-80395937D01*
X145459944Y-80509205D01*
X145648302Y-80587226D01*
X145848261Y-80627000D01*
X146052139Y-80627000D01*
X146252098Y-80587226D01*
X146440456Y-80509205D01*
X146609974Y-80395937D01*
X146754137Y-80251774D01*
X146867405Y-80082256D01*
X146945426Y-79893898D01*
X146985200Y-79693939D01*
X146985200Y-79490061D01*
X146945426Y-79290102D01*
X146867405Y-79101744D01*
X146754137Y-78932226D01*
X146609974Y-78788063D01*
X146440456Y-78674795D01*
X146252098Y-78596774D01*
X146052139Y-78557000D01*
X145848261Y-78557000D01*
X145648302Y-78596774D01*
X145459944Y-78674795D01*
X145290426Y-78788063D01*
X145146263Y-78932226D01*
X145032995Y-79101744D01*
X144954974Y-79290102D01*
X144915200Y-79490061D01*
X133190423Y-79490061D01*
X133132636Y-79442637D01*
X133000259Y-79371880D01*
X132856622Y-79328308D01*
X132768988Y-79319677D01*
X132665750Y-79250696D01*
X132495590Y-79180214D01*
X132314950Y-79144282D01*
X132130772Y-79144282D01*
X131950132Y-79180214D01*
X131779972Y-79250696D01*
X131680319Y-79317282D01*
X128317322Y-79317282D01*
X128411478Y-79254369D01*
X128555641Y-79110206D01*
X128668909Y-78940688D01*
X128715119Y-78829129D01*
X128765555Y-78904612D01*
X128895789Y-79034846D01*
X129048928Y-79137170D01*
X129219088Y-79207652D01*
X129399728Y-79243584D01*
X129583906Y-79243584D01*
X129764546Y-79207652D01*
X129934706Y-79137170D01*
X130087845Y-79034846D01*
X130218079Y-78904612D01*
X130320403Y-78751473D01*
X130390885Y-78581313D01*
X130426817Y-78400673D01*
X130426817Y-78216495D01*
X130390885Y-78035855D01*
X130320403Y-77865695D01*
X130218079Y-77712556D01*
X130087845Y-77582322D01*
X129934706Y-77479998D01*
X129764546Y-77409516D01*
X129583906Y-77373584D01*
X129399728Y-77373584D01*
X129241770Y-77405004D01*
X129235981Y-77391029D01*
X129133657Y-77237890D01*
X129070478Y-77174711D01*
X152354000Y-77174711D01*
X152354000Y-77358889D01*
X152389932Y-77539529D01*
X152460414Y-77709689D01*
X152562738Y-77862828D01*
X152692972Y-77993062D01*
X152846111Y-78095386D01*
X153016271Y-78165868D01*
X153196911Y-78201800D01*
X153381089Y-78201800D01*
X153561729Y-78165868D01*
X153731889Y-78095386D01*
X153885028Y-77993062D01*
X154015262Y-77862828D01*
X154117586Y-77709689D01*
X154160323Y-77606511D01*
X155148000Y-77606511D01*
X155148000Y-77790689D01*
X155183932Y-77971329D01*
X155254414Y-78141489D01*
X155356738Y-78294628D01*
X155486972Y-78424862D01*
X155640111Y-78527186D01*
X155810271Y-78597668D01*
X155990911Y-78633600D01*
X156175089Y-78633600D01*
X156355729Y-78597668D01*
X156525889Y-78527186D01*
X156679028Y-78424862D01*
X156809262Y-78294628D01*
X156880467Y-78188061D01*
X164265000Y-78188061D01*
X164265000Y-78391939D01*
X164304774Y-78591898D01*
X164382795Y-78780256D01*
X164496063Y-78949774D01*
X164640226Y-79093937D01*
X164809744Y-79207205D01*
X164998102Y-79285226D01*
X165198061Y-79325000D01*
X165401939Y-79325000D01*
X165601898Y-79285226D01*
X165790256Y-79207205D01*
X165959774Y-79093937D01*
X166103937Y-78949774D01*
X166217205Y-78780256D01*
X166295226Y-78591898D01*
X166335000Y-78391939D01*
X166335000Y-78188061D01*
X166295226Y-77988102D01*
X166217205Y-77799744D01*
X166103937Y-77630226D01*
X165959774Y-77486063D01*
X165790256Y-77372795D01*
X165601898Y-77294774D01*
X165401939Y-77255000D01*
X165198061Y-77255000D01*
X164998102Y-77294774D01*
X164809744Y-77372795D01*
X164640226Y-77486063D01*
X164496063Y-77630226D01*
X164382795Y-77799744D01*
X164304774Y-77988102D01*
X164265000Y-78188061D01*
X156880467Y-78188061D01*
X156911586Y-78141489D01*
X156982068Y-77971329D01*
X157018000Y-77790689D01*
X157018000Y-77606511D01*
X156982068Y-77425871D01*
X156911586Y-77255711D01*
X156809262Y-77102572D01*
X156679028Y-76972338D01*
X156525889Y-76870014D01*
X156355729Y-76799532D01*
X156175089Y-76763600D01*
X155990911Y-76763600D01*
X155810271Y-76799532D01*
X155640111Y-76870014D01*
X155486972Y-76972338D01*
X155356738Y-77102572D01*
X155254414Y-77255711D01*
X155183932Y-77425871D01*
X155148000Y-77606511D01*
X154160323Y-77606511D01*
X154188068Y-77539529D01*
X154224000Y-77358889D01*
X154224000Y-77174711D01*
X154188068Y-76994071D01*
X154117586Y-76823911D01*
X154015262Y-76670772D01*
X153885028Y-76540538D01*
X153731889Y-76438214D01*
X153561729Y-76367732D01*
X153381089Y-76331800D01*
X153196911Y-76331800D01*
X153016271Y-76367732D01*
X152846111Y-76438214D01*
X152692972Y-76540538D01*
X152562738Y-76670772D01*
X152460414Y-76823911D01*
X152389932Y-76994071D01*
X152354000Y-77174711D01*
X129070478Y-77174711D01*
X129003423Y-77107656D01*
X128850284Y-77005332D01*
X128680124Y-76934850D01*
X128499484Y-76898918D01*
X128315306Y-76898918D01*
X128134666Y-76934850D01*
X127964506Y-77005332D01*
X127811367Y-77107656D01*
X127681133Y-77237890D01*
X127578809Y-77391029D01*
X127561422Y-77433004D01*
X127449806Y-77455206D01*
X127322797Y-77507815D01*
X127303569Y-77494967D01*
X127133409Y-77424485D01*
X126952769Y-77388553D01*
X126768591Y-77388553D01*
X126587951Y-77424485D01*
X126493764Y-77463498D01*
X126456262Y-77407372D01*
X126326028Y-77277138D01*
X126172889Y-77174814D01*
X126002729Y-77104332D01*
X125822089Y-77068400D01*
X125637911Y-77068400D01*
X125457271Y-77104332D01*
X125287111Y-77174814D01*
X125133972Y-77277138D01*
X125003738Y-77407372D01*
X124901414Y-77560511D01*
X124850969Y-77682296D01*
X124699689Y-77581214D01*
X124529529Y-77510732D01*
X124348889Y-77474800D01*
X124164711Y-77474800D01*
X123984071Y-77510732D01*
X123813911Y-77581214D01*
X123660772Y-77683538D01*
X123530538Y-77813772D01*
X123428214Y-77966911D01*
X123357732Y-78137071D01*
X123321800Y-78317711D01*
X123321800Y-78501889D01*
X123357732Y-78682529D01*
X123428214Y-78852689D01*
X123530538Y-79005828D01*
X123660772Y-79136062D01*
X123813911Y-79238386D01*
X123984071Y-79308868D01*
X124164711Y-79344800D01*
X124348889Y-79344800D01*
X124529529Y-79308868D01*
X124699689Y-79238386D01*
X124852828Y-79136062D01*
X124983062Y-79005828D01*
X125085386Y-78852689D01*
X125088780Y-78844496D01*
X125093355Y-78853056D01*
X125116408Y-78881146D01*
X125188578Y-78969086D01*
X125217653Y-78992948D01*
X125911217Y-79686512D01*
X125935075Y-79715583D01*
X126051105Y-79810806D01*
X126055983Y-79813414D01*
X126834203Y-80591633D01*
X126858060Y-80620704D01*
X126974090Y-80715927D01*
X127082247Y-80773738D01*
X127104387Y-80785572D01*
X127106467Y-80786684D01*
X127250104Y-80830256D01*
X127362056Y-80841282D01*
X127362058Y-80841282D01*
X127399481Y-80844968D01*
X127436904Y-80841282D01*
X131279961Y-80841282D01*
X131273600Y-80873261D01*
X131273600Y-81077139D01*
X131313374Y-81277098D01*
X131391395Y-81465456D01*
X131504663Y-81634974D01*
X131648826Y-81779137D01*
X131818344Y-81892405D01*
X132006702Y-81970426D01*
X132206661Y-82010200D01*
X132410539Y-82010200D01*
X132415703Y-82009173D01*
X132473738Y-82096028D01*
X132603972Y-82226262D01*
X132757111Y-82328586D01*
X132927271Y-82399068D01*
X133065002Y-82426465D01*
X133065001Y-83876296D01*
X133029868Y-83699671D01*
X132959386Y-83529511D01*
X132857062Y-83376372D01*
X132726828Y-83246138D01*
X132573689Y-83143814D01*
X132403529Y-83073332D01*
X132222889Y-83037400D01*
X132038711Y-83037400D01*
X131858071Y-83073332D01*
X131687911Y-83143814D01*
X131534772Y-83246138D01*
X131404538Y-83376372D01*
X131302214Y-83529511D01*
X131231732Y-83699671D01*
X131195800Y-83880311D01*
X131195800Y-84064489D01*
X131231732Y-84245129D01*
X131302214Y-84415289D01*
X131404538Y-84568428D01*
X131534772Y-84698662D01*
X131687911Y-84800986D01*
X131858071Y-84871468D01*
X132038711Y-84907400D01*
X132222889Y-84907400D01*
X132403529Y-84871468D01*
X132573689Y-84800986D01*
X132726828Y-84698662D01*
X132857062Y-84568428D01*
X132959386Y-84415289D01*
X133029868Y-84245129D01*
X133065001Y-84068504D01*
X133065001Y-84933330D01*
X131931021Y-86067310D01*
X131859774Y-85996063D01*
X131690256Y-85882795D01*
X131501898Y-85804774D01*
X131301939Y-85765000D01*
X131098061Y-85765000D01*
X130898102Y-85804774D01*
X130709744Y-85882795D01*
X130540226Y-85996063D01*
X130396063Y-86140226D01*
X130282795Y-86309744D01*
X130204774Y-86498102D01*
X130165000Y-86698061D01*
X130165000Y-86765001D01*
X129832459Y-86765001D01*
X129795036Y-86761315D01*
X129757613Y-86765001D01*
X129757611Y-86765001D01*
X129645659Y-86776027D01*
X129502022Y-86819599D01*
X129369645Y-86890356D01*
X129253615Y-86985579D01*
X129229758Y-87014649D01*
X128529619Y-87714789D01*
X128503226Y-87582102D01*
X128425205Y-87393744D01*
X128311937Y-87224226D01*
X128167774Y-87080063D01*
X127998256Y-86966795D01*
X127809898Y-86888774D01*
X127609939Y-86849000D01*
X127406061Y-86849000D01*
X127206102Y-86888774D01*
X127057617Y-86950279D01*
X127057081Y-86949921D01*
X126886921Y-86879439D01*
X126706281Y-86843507D01*
X126522103Y-86843507D01*
X126341463Y-86879439D01*
X126171303Y-86949921D01*
X126071650Y-87016507D01*
X119539338Y-87016507D01*
X119362650Y-86839820D01*
X119339268Y-86722271D01*
X119268786Y-86552111D01*
X119166462Y-86398972D01*
X119036228Y-86268738D01*
X118883089Y-86166414D01*
X118712929Y-86095932D01*
X118532289Y-86060000D01*
X118348111Y-86060000D01*
X118167471Y-86095932D01*
X117997311Y-86166414D01*
X117844172Y-86268738D01*
X117713938Y-86398972D01*
X117611614Y-86552111D01*
X117541132Y-86722271D01*
X117505200Y-86902911D01*
X98066976Y-86902911D01*
X98013669Y-86774218D01*
X97892193Y-86592416D01*
X97737584Y-86437807D01*
X97555782Y-86316331D01*
X97353775Y-86232657D01*
X97139325Y-86190000D01*
X96920675Y-86190000D01*
X96706225Y-86232657D01*
X96504218Y-86316331D01*
X96322416Y-86437807D01*
X96167807Y-86592416D01*
X96046331Y-86774218D01*
X95962657Y-86976225D01*
X95920000Y-87190675D01*
X93160000Y-87190675D01*
X93160000Y-80390675D01*
X95920000Y-80390675D01*
X95920000Y-80609325D01*
X95962657Y-80823775D01*
X96046331Y-81025782D01*
X96167807Y-81207584D01*
X96322416Y-81362193D01*
X96504218Y-81483669D01*
X96706225Y-81567343D01*
X96920675Y-81610000D01*
X97139325Y-81610000D01*
X97353775Y-81567343D01*
X97555782Y-81483669D01*
X97737584Y-81362193D01*
X97892193Y-81207584D01*
X98013669Y-81025782D01*
X98083141Y-80858061D01*
X106005000Y-80858061D01*
X106005000Y-81061939D01*
X106044774Y-81261898D01*
X106122795Y-81450256D01*
X106236063Y-81619774D01*
X106380226Y-81763937D01*
X106549744Y-81877205D01*
X106738102Y-81955226D01*
X106938061Y-81995000D01*
X107141939Y-81995000D01*
X107341898Y-81955226D01*
X107530256Y-81877205D01*
X107699774Y-81763937D01*
X107843937Y-81619774D01*
X107858445Y-81598061D01*
X119015000Y-81598061D01*
X119015000Y-81801939D01*
X119054774Y-82001898D01*
X119074699Y-82050000D01*
X119054774Y-82098102D01*
X119015000Y-82298061D01*
X119015000Y-82501939D01*
X119054774Y-82701898D01*
X119132795Y-82890256D01*
X119246063Y-83059774D01*
X119390226Y-83203937D01*
X119559744Y-83317205D01*
X119748102Y-83395226D01*
X119948061Y-83435000D01*
X120151939Y-83435000D01*
X120351898Y-83395226D01*
X120540256Y-83317205D01*
X120709774Y-83203937D01*
X120853937Y-83059774D01*
X120967205Y-82890256D01*
X121045226Y-82701898D01*
X121085000Y-82501939D01*
X121085000Y-82298061D01*
X121045226Y-82098102D01*
X121025301Y-82050000D01*
X121028755Y-82041661D01*
X121977200Y-82041661D01*
X121977200Y-82245539D01*
X122016974Y-82445498D01*
X122094995Y-82633856D01*
X122184015Y-82767084D01*
X122132814Y-82843711D01*
X122062332Y-83013871D01*
X122026400Y-83194511D01*
X122026400Y-83378689D01*
X122062332Y-83559329D01*
X122132814Y-83729489D01*
X122235138Y-83882628D01*
X122365372Y-84012862D01*
X122518511Y-84115186D01*
X122688671Y-84185668D01*
X122869311Y-84221600D01*
X123053489Y-84221600D01*
X123234129Y-84185668D01*
X123404289Y-84115186D01*
X123557428Y-84012862D01*
X123687662Y-83882628D01*
X123789986Y-83729489D01*
X123860468Y-83559329D01*
X123896400Y-83378689D01*
X123896400Y-83194511D01*
X123860468Y-83013871D01*
X123789986Y-82843711D01*
X123784304Y-82835207D01*
X123816137Y-82803374D01*
X123929405Y-82633856D01*
X124007426Y-82445498D01*
X124047200Y-82245539D01*
X124047200Y-82041661D01*
X124007426Y-81841702D01*
X123929405Y-81653344D01*
X123816137Y-81483826D01*
X123671974Y-81339663D01*
X123502456Y-81226395D01*
X123314098Y-81148374D01*
X123114139Y-81108600D01*
X122910261Y-81108600D01*
X122710302Y-81148374D01*
X122521944Y-81226395D01*
X122352426Y-81339663D01*
X122208263Y-81483826D01*
X122094995Y-81653344D01*
X122016974Y-81841702D01*
X121977200Y-82041661D01*
X121028755Y-82041661D01*
X121045226Y-82001898D01*
X121085000Y-81801939D01*
X121085000Y-81598061D01*
X121045226Y-81398102D01*
X120967205Y-81209744D01*
X120853937Y-81040226D01*
X120709774Y-80896063D01*
X120540256Y-80782795D01*
X120351898Y-80704774D01*
X120151939Y-80665000D01*
X119948061Y-80665000D01*
X119748102Y-80704774D01*
X119559744Y-80782795D01*
X119390226Y-80896063D01*
X119246063Y-81040226D01*
X119132795Y-81209744D01*
X119054774Y-81398102D01*
X119015000Y-81598061D01*
X107858445Y-81598061D01*
X107957205Y-81450256D01*
X108035226Y-81261898D01*
X108075000Y-81061939D01*
X108075000Y-80858061D01*
X108035226Y-80658102D01*
X107957205Y-80469744D01*
X107843937Y-80300226D01*
X107699774Y-80156063D01*
X107530256Y-80042795D01*
X107341898Y-79964774D01*
X107141939Y-79925000D01*
X106938061Y-79925000D01*
X106738102Y-79964774D01*
X106549744Y-80042795D01*
X106380226Y-80156063D01*
X106236063Y-80300226D01*
X106122795Y-80469744D01*
X106044774Y-80658102D01*
X106005000Y-80858061D01*
X98083141Y-80858061D01*
X98097343Y-80823775D01*
X98140000Y-80609325D01*
X98140000Y-80390675D01*
X98097343Y-80176225D01*
X98013669Y-79974218D01*
X97892193Y-79792416D01*
X97737584Y-79637807D01*
X97555782Y-79516331D01*
X97353775Y-79432657D01*
X97139325Y-79390000D01*
X96920675Y-79390000D01*
X96706225Y-79432657D01*
X96504218Y-79516331D01*
X96322416Y-79637807D01*
X96167807Y-79792416D01*
X96046331Y-79974218D01*
X95962657Y-80176225D01*
X95920000Y-80390675D01*
X93160000Y-80390675D01*
X93160000Y-79198061D01*
X116665000Y-79198061D01*
X116665000Y-79401939D01*
X116704774Y-79601898D01*
X116782795Y-79790256D01*
X116896063Y-79959774D01*
X117040226Y-80103937D01*
X117209744Y-80217205D01*
X117398102Y-80295226D01*
X117598061Y-80335000D01*
X117801939Y-80335000D01*
X118001898Y-80295226D01*
X118190256Y-80217205D01*
X118359774Y-80103937D01*
X118503937Y-79959774D01*
X118617205Y-79790256D01*
X118695226Y-79601898D01*
X118735000Y-79401939D01*
X118735000Y-79198061D01*
X118695226Y-78998102D01*
X118617205Y-78809744D01*
X118503937Y-78640226D01*
X118359774Y-78496063D01*
X118190256Y-78382795D01*
X118001898Y-78304774D01*
X117801939Y-78265000D01*
X117598061Y-78265000D01*
X117398102Y-78304774D01*
X117209744Y-78382795D01*
X117040226Y-78496063D01*
X116896063Y-78640226D01*
X116782795Y-78809744D01*
X116704774Y-78998102D01*
X116665000Y-79198061D01*
X93160000Y-79198061D01*
X93160000Y-77298061D01*
X95365000Y-77298061D01*
X95365000Y-77501939D01*
X95404774Y-77701898D01*
X95482795Y-77890256D01*
X95596063Y-78059774D01*
X95740226Y-78203937D01*
X95909744Y-78317205D01*
X96098102Y-78395226D01*
X96298061Y-78435000D01*
X96501939Y-78435000D01*
X96701898Y-78395226D01*
X96890256Y-78317205D01*
X97059774Y-78203937D01*
X97203937Y-78059774D01*
X97317205Y-77890256D01*
X97395226Y-77701898D01*
X97435000Y-77501939D01*
X97435000Y-77298061D01*
X97465000Y-77298061D01*
X97465000Y-77501939D01*
X97504774Y-77701898D01*
X97582795Y-77890256D01*
X97696063Y-78059774D01*
X97840226Y-78203937D01*
X98009744Y-78317205D01*
X98198102Y-78395226D01*
X98398061Y-78435000D01*
X98601939Y-78435000D01*
X98801898Y-78395226D01*
X98990256Y-78317205D01*
X99159774Y-78203937D01*
X99303937Y-78059774D01*
X99417205Y-77890256D01*
X99495226Y-77701898D01*
X99535000Y-77501939D01*
X99535000Y-77298061D01*
X104565000Y-77298061D01*
X104565000Y-77501939D01*
X104604774Y-77701898D01*
X104682795Y-77890256D01*
X104796063Y-78059774D01*
X104940226Y-78203937D01*
X105109744Y-78317205D01*
X105298102Y-78395226D01*
X105498061Y-78435000D01*
X105701939Y-78435000D01*
X105901898Y-78395226D01*
X106090256Y-78317205D01*
X106259774Y-78203937D01*
X106300000Y-78163711D01*
X106340226Y-78203937D01*
X106509744Y-78317205D01*
X106698102Y-78395226D01*
X106898061Y-78435000D01*
X107101939Y-78435000D01*
X107301898Y-78395226D01*
X107490256Y-78317205D01*
X107659774Y-78203937D01*
X107803937Y-78059774D01*
X107917205Y-77890256D01*
X107995226Y-77701898D01*
X108013921Y-77607911D01*
X108715000Y-77607911D01*
X108715000Y-77792089D01*
X108750932Y-77972729D01*
X108821414Y-78142889D01*
X108923738Y-78296028D01*
X109053972Y-78426262D01*
X109207111Y-78528586D01*
X109377271Y-78599068D01*
X109557911Y-78635000D01*
X109742089Y-78635000D01*
X109922729Y-78599068D01*
X110092889Y-78528586D01*
X110246028Y-78426262D01*
X110376262Y-78296028D01*
X110478586Y-78142889D01*
X110549068Y-77972729D01*
X110585000Y-77792089D01*
X110585000Y-77607911D01*
X110549068Y-77427271D01*
X110478586Y-77257111D01*
X110376262Y-77103972D01*
X110246028Y-76973738D01*
X110166668Y-76920711D01*
X121950200Y-76920711D01*
X121950200Y-77104889D01*
X121986132Y-77285529D01*
X122056614Y-77455689D01*
X122158938Y-77608828D01*
X122289172Y-77739062D01*
X122442311Y-77841386D01*
X122612471Y-77911868D01*
X122793111Y-77947800D01*
X122977289Y-77947800D01*
X123157929Y-77911868D01*
X123328089Y-77841386D01*
X123481228Y-77739062D01*
X123611462Y-77608828D01*
X123713786Y-77455689D01*
X123784268Y-77285529D01*
X123820200Y-77104889D01*
X123820200Y-76920711D01*
X123784268Y-76740071D01*
X123713786Y-76569911D01*
X123611462Y-76416772D01*
X123481228Y-76286538D01*
X123328089Y-76184214D01*
X123157929Y-76113732D01*
X122977289Y-76077800D01*
X122793111Y-76077800D01*
X122612471Y-76113732D01*
X122442311Y-76184214D01*
X122289172Y-76286538D01*
X122158938Y-76416772D01*
X122056614Y-76569911D01*
X121986132Y-76740071D01*
X121950200Y-76920711D01*
X110166668Y-76920711D01*
X110092889Y-76871414D01*
X109922729Y-76800932D01*
X109742089Y-76765000D01*
X109557911Y-76765000D01*
X109377271Y-76800932D01*
X109207111Y-76871414D01*
X109053972Y-76973738D01*
X108923738Y-77103972D01*
X108821414Y-77257111D01*
X108750932Y-77427271D01*
X108715000Y-77607911D01*
X108013921Y-77607911D01*
X108035000Y-77501939D01*
X108035000Y-77298061D01*
X107995226Y-77098102D01*
X107917205Y-76909744D01*
X107803937Y-76740226D01*
X107659774Y-76596063D01*
X107490256Y-76482795D01*
X107301898Y-76404774D01*
X107101939Y-76365000D01*
X106898061Y-76365000D01*
X106698102Y-76404774D01*
X106509744Y-76482795D01*
X106340226Y-76596063D01*
X106300000Y-76636289D01*
X106259774Y-76596063D01*
X106090256Y-76482795D01*
X105901898Y-76404774D01*
X105701939Y-76365000D01*
X105498061Y-76365000D01*
X105298102Y-76404774D01*
X105109744Y-76482795D01*
X104940226Y-76596063D01*
X104796063Y-76740226D01*
X104682795Y-76909744D01*
X104604774Y-77098102D01*
X104565000Y-77298061D01*
X99535000Y-77298061D01*
X99495226Y-77098102D01*
X99417205Y-76909744D01*
X99303937Y-76740226D01*
X99159774Y-76596063D01*
X98990256Y-76482795D01*
X98801898Y-76404774D01*
X98601939Y-76365000D01*
X98398061Y-76365000D01*
X98198102Y-76404774D01*
X98009744Y-76482795D01*
X97840226Y-76596063D01*
X97696063Y-76740226D01*
X97582795Y-76909744D01*
X97504774Y-77098102D01*
X97465000Y-77298061D01*
X97435000Y-77298061D01*
X97395226Y-77098102D01*
X97317205Y-76909744D01*
X97203937Y-76740226D01*
X97059774Y-76596063D01*
X96890256Y-76482795D01*
X96701898Y-76404774D01*
X96501939Y-76365000D01*
X96298061Y-76365000D01*
X96098102Y-76404774D01*
X95909744Y-76482795D01*
X95740226Y-76596063D01*
X95596063Y-76740226D01*
X95482795Y-76909744D01*
X95404774Y-77098102D01*
X95365000Y-77298061D01*
X93160000Y-77298061D01*
X93160000Y-72216444D01*
X93201467Y-72316554D01*
X93621161Y-72944670D01*
X94155330Y-73478839D01*
X94783446Y-73898533D01*
X95481372Y-74187623D01*
X96222285Y-74335000D01*
X96977715Y-74335000D01*
X97718628Y-74187623D01*
X98416554Y-73898533D01*
X99044670Y-73478839D01*
X99443509Y-73080000D01*
X117449509Y-73080000D01*
X117471423Y-73302499D01*
X117536324Y-73516447D01*
X117641716Y-73713623D01*
X117642846Y-73715000D01*
X117641716Y-73716377D01*
X117536324Y-73913553D01*
X117471423Y-74127501D01*
X117449509Y-74350000D01*
X117471423Y-74572499D01*
X117536324Y-74786447D01*
X117641716Y-74983623D01*
X117783551Y-75156449D01*
X117956377Y-75298284D01*
X118153553Y-75403676D01*
X118367501Y-75468577D01*
X118534248Y-75485000D01*
X118645752Y-75485000D01*
X118812499Y-75468577D01*
X119026447Y-75403676D01*
X119223623Y-75298284D01*
X119225000Y-75297154D01*
X119226377Y-75298284D01*
X119423553Y-75403676D01*
X119637501Y-75468577D01*
X119804248Y-75485000D01*
X119915752Y-75485000D01*
X120082499Y-75468577D01*
X120296447Y-75403676D01*
X120493623Y-75298284D01*
X120495000Y-75297154D01*
X120496377Y-75298284D01*
X120693553Y-75403676D01*
X120907501Y-75468577D01*
X121074248Y-75485000D01*
X121185752Y-75485000D01*
X121352499Y-75468577D01*
X121566447Y-75403676D01*
X121763623Y-75298284D01*
X121765000Y-75297154D01*
X121766377Y-75298284D01*
X121963553Y-75403676D01*
X122177501Y-75468577D01*
X122344248Y-75485000D01*
X122455752Y-75485000D01*
X122622499Y-75468577D01*
X122836447Y-75403676D01*
X123033623Y-75298284D01*
X123035000Y-75297154D01*
X123036377Y-75298284D01*
X123233553Y-75403676D01*
X123447501Y-75468577D01*
X123614248Y-75485000D01*
X123725752Y-75485000D01*
X123892499Y-75468577D01*
X124106447Y-75403676D01*
X124303623Y-75298284D01*
X124476449Y-75156449D01*
X124618284Y-74983623D01*
X124723676Y-74786447D01*
X124788577Y-74572499D01*
X124810491Y-74350000D01*
X124788577Y-74127501D01*
X124723676Y-73913553D01*
X124720661Y-73907911D01*
X130465000Y-73907911D01*
X130465000Y-74092089D01*
X130500932Y-74272729D01*
X130571414Y-74442889D01*
X130673738Y-74596028D01*
X130803972Y-74726262D01*
X130957111Y-74828586D01*
X131127271Y-74899068D01*
X131307911Y-74935000D01*
X131492089Y-74935000D01*
X131672729Y-74899068D01*
X131842889Y-74828586D01*
X131996028Y-74726262D01*
X132126262Y-74596028D01*
X132228586Y-74442889D01*
X132247154Y-74398061D01*
X133165000Y-74398061D01*
X133165000Y-74601939D01*
X133204774Y-74801898D01*
X133282795Y-74990256D01*
X133396063Y-75159774D01*
X133540226Y-75303937D01*
X133709744Y-75417205D01*
X133898102Y-75495226D01*
X134098061Y-75535000D01*
X134301939Y-75535000D01*
X134501898Y-75495226D01*
X134690256Y-75417205D01*
X134859774Y-75303937D01*
X134970200Y-75193511D01*
X153217600Y-75193511D01*
X153217600Y-75377689D01*
X153253532Y-75558329D01*
X153324014Y-75728489D01*
X153426338Y-75881628D01*
X153556572Y-76011862D01*
X153709711Y-76114186D01*
X153879871Y-76184668D01*
X154060511Y-76220600D01*
X154244689Y-76220600D01*
X154425329Y-76184668D01*
X154595489Y-76114186D01*
X154748628Y-76011862D01*
X154878862Y-75881628D01*
X154981186Y-75728489D01*
X155051668Y-75558329D01*
X155087600Y-75377689D01*
X155087600Y-75193511D01*
X155051668Y-75012871D01*
X154981186Y-74842711D01*
X154878862Y-74689572D01*
X154748628Y-74559338D01*
X154595489Y-74457014D01*
X154425329Y-74386532D01*
X154244689Y-74350600D01*
X154060511Y-74350600D01*
X153879871Y-74386532D01*
X153709711Y-74457014D01*
X153556572Y-74559338D01*
X153426338Y-74689572D01*
X153324014Y-74842711D01*
X153253532Y-75012871D01*
X153217600Y-75193511D01*
X134970200Y-75193511D01*
X135003937Y-75159774D01*
X135117205Y-74990256D01*
X135195226Y-74801898D01*
X135235000Y-74601939D01*
X135235000Y-74398061D01*
X135195226Y-74198102D01*
X135117205Y-74009744D01*
X135003937Y-73840226D01*
X134859774Y-73696063D01*
X134690256Y-73582795D01*
X134501898Y-73504774D01*
X134301939Y-73465000D01*
X134098061Y-73465000D01*
X133898102Y-73504774D01*
X133709744Y-73582795D01*
X133540226Y-73696063D01*
X133396063Y-73840226D01*
X133282795Y-74009744D01*
X133204774Y-74198102D01*
X133165000Y-74398061D01*
X132247154Y-74398061D01*
X132299068Y-74272729D01*
X132335000Y-74092089D01*
X132335000Y-73907911D01*
X132299068Y-73727271D01*
X132228586Y-73557111D01*
X132126262Y-73403972D01*
X131996028Y-73273738D01*
X131842889Y-73171414D01*
X131672729Y-73100932D01*
X131492089Y-73065000D01*
X131307911Y-73065000D01*
X131127271Y-73100932D01*
X130957111Y-73171414D01*
X130803972Y-73273738D01*
X130673738Y-73403972D01*
X130571414Y-73557111D01*
X130500932Y-73727271D01*
X130465000Y-73907911D01*
X124720661Y-73907911D01*
X124717703Y-73902379D01*
X124759502Y-73824180D01*
X124795812Y-73704482D01*
X124808072Y-73580000D01*
X124805000Y-73365750D01*
X124646250Y-73207000D01*
X123797000Y-73207000D01*
X123797000Y-73222017D01*
X123725752Y-73215000D01*
X123614248Y-73215000D01*
X123543000Y-73222017D01*
X123543000Y-73207000D01*
X123527983Y-73207000D01*
X123540491Y-73080000D01*
X123527983Y-72953000D01*
X123543000Y-72953000D01*
X123543000Y-72103750D01*
X123797000Y-72103750D01*
X123797000Y-72953000D01*
X124646250Y-72953000D01*
X124805000Y-72794250D01*
X124808072Y-72580000D01*
X124795812Y-72455518D01*
X124759502Y-72335820D01*
X124739320Y-72298061D01*
X133165000Y-72298061D01*
X133165000Y-72501939D01*
X133204774Y-72701898D01*
X133282795Y-72890256D01*
X133396063Y-73059774D01*
X133540226Y-73203937D01*
X133709744Y-73317205D01*
X133898102Y-73395226D01*
X134098061Y-73435000D01*
X134301939Y-73435000D01*
X134501898Y-73395226D01*
X134690256Y-73317205D01*
X134859774Y-73203937D01*
X135003937Y-73059774D01*
X135117205Y-72890256D01*
X135195226Y-72701898D01*
X135235000Y-72501939D01*
X135235000Y-72298061D01*
X135195226Y-72098102D01*
X135117205Y-71909744D01*
X135003937Y-71740226D01*
X134859774Y-71596063D01*
X134690256Y-71482795D01*
X134501898Y-71404774D01*
X134301939Y-71365000D01*
X134098061Y-71365000D01*
X133898102Y-71404774D01*
X133709744Y-71482795D01*
X133540226Y-71596063D01*
X133396063Y-71740226D01*
X133282795Y-71909744D01*
X133204774Y-72098102D01*
X133165000Y-72298061D01*
X124739320Y-72298061D01*
X124700537Y-72225506D01*
X124621185Y-72128815D01*
X124524494Y-72049463D01*
X124414180Y-71990498D01*
X124294482Y-71954188D01*
X124170000Y-71941928D01*
X123955750Y-71945000D01*
X123797000Y-72103750D01*
X123543000Y-72103750D01*
X123384250Y-71945000D01*
X123170000Y-71941928D01*
X123045518Y-71954188D01*
X122925820Y-71990498D01*
X122847621Y-72032297D01*
X122836447Y-72026324D01*
X122622499Y-71961423D01*
X122455752Y-71945000D01*
X122344248Y-71945000D01*
X122177501Y-71961423D01*
X121963553Y-72026324D01*
X121766377Y-72131716D01*
X121765000Y-72132846D01*
X121763623Y-72131716D01*
X121566447Y-72026324D01*
X121352499Y-71961423D01*
X121185752Y-71945000D01*
X121074248Y-71945000D01*
X120907501Y-71961423D01*
X120693553Y-72026324D01*
X120496377Y-72131716D01*
X120495000Y-72132846D01*
X120493623Y-72131716D01*
X120296447Y-72026324D01*
X120082499Y-71961423D01*
X119915752Y-71945000D01*
X119804248Y-71945000D01*
X119637501Y-71961423D01*
X119423553Y-72026324D01*
X119226377Y-72131716D01*
X119225000Y-72132846D01*
X119223623Y-72131716D01*
X119026447Y-72026324D01*
X118812499Y-71961423D01*
X118645752Y-71945000D01*
X118534248Y-71945000D01*
X118367501Y-71961423D01*
X118153553Y-72026324D01*
X117956377Y-72131716D01*
X117783551Y-72273551D01*
X117641716Y-72446377D01*
X117536324Y-72643553D01*
X117471423Y-72857501D01*
X117449509Y-73080000D01*
X99443509Y-73080000D01*
X99578839Y-72944670D01*
X99998533Y-72316554D01*
X100287623Y-71618628D01*
X100435000Y-70877715D01*
X100435000Y-70122285D01*
X100287623Y-69381372D01*
X99998533Y-68683446D01*
X99578839Y-68055330D01*
X99044670Y-67521161D01*
X98504155Y-67160000D01*
X169095845Y-67160000D01*
X168555330Y-67521161D01*
M02*
