M48
; DRILL file {KiCad (5.1.4)-1} date 2/20/2022 2:43:17 PM
; FORMAT={-:-/ absolute / metric / decimal}
; #@! TF.CreationDate,2022-02-20T14:43:17-05:00
; #@! TF.GenerationSoftware,Kicad,Pcbnew,(5.1.4)-1
; #@! TF.FileFunction,Plated,1,4,PTH
FMAT,2
METRIC
T1C0.350
T2C0.400
T3C0.500
T4C0.650
T5C0.800
T6C0.950
T7C1.000
T8C1.200
T9C1.520
T10C3.200
%
G90
G05
T1
X109.65Y-77.7
X111.15Y-89.55
X111.662Y-88.412
X112.34Y-88.99
X118.44Y-86.995
X122.885Y-77.013
X122.961Y-83.287
X123.25Y-104.78
X123.29Y-116.47
X124.257Y-78.41
X125.73Y-78.003
X126.614Y-87.779
X126.861Y-78.324
X127.772Y-90.511
X128.407Y-77.834
X128.56Y-90.538
X129.25Y-89.0
X129.492Y-78.309
X130.247Y-89.103
X131.1Y-88.838
X131.4Y-74.0
X132.131Y-83.972
X132.223Y-80.079
X133.2Y-81.5
X142.897Y-88.203
X143.993Y-83.185
X150.56Y-86.562
X152.13Y-86.572
X153.289Y-77.267
X154.153Y-75.286
X156.083Y-77.699
X158.01Y-113.49
X158.02Y-112.11
X158.76Y-113.49
X158.779Y-112.11
X159.52Y-113.49
X159.539Y-112.11
X160.28Y-113.49
X160.298Y-112.11
X161.04Y-113.49
X161.058Y-112.11
X161.8Y-113.49
X161.817Y-112.11
X162.56Y-113.49
X162.576Y-112.11
X163.32Y-113.49
X163.336Y-112.11
X164.08Y-113.49
X164.095Y-112.11
X164.84Y-113.49
X164.854Y-112.11
X165.6Y-113.49
X165.614Y-112.11
X166.36Y-113.49
X166.373Y-112.11
X167.12Y-113.49
X167.132Y-112.11
X167.88Y-113.49
X167.892Y-112.11
X167.996Y-86.436
X168.0Y-82.1
X168.64Y-113.49
X168.651Y-112.11
X168.7Y-82.11
X169.4Y-82.11
X169.4Y-113.49
X169.411Y-112.11
X170.1Y-82.1
X170.1Y-83.5
X170.12Y-84.24
X170.129Y-85.674
X170.155Y-86.309
X170.16Y-113.49
X170.17Y-112.11
X171.069Y-84.125
X171.1Y-114.1
X171.145Y-111.303
X171.78Y-84.125
X171.831Y-81.382
X171.856Y-111.303
X171.875Y-114.1
X172.466Y-81.382
X172.491Y-84.125
X172.593Y-111.303
X172.65Y-114.1
X173.126Y-81.382
X173.152Y-84.125
X173.38Y-111.303
X173.425Y-114.1
X173.761Y-81.382
X173.812Y-84.125
X174.168Y-111.328
X174.2Y-114.1
T2
X96.4Y-77.4
X96.6Y-91.4
X98.5Y-77.4
X98.5Y-91.4
X105.4Y-91.4
X105.6Y-77.4
X107.0Y-77.4
X107.04Y-80.96
X107.4Y-91.4
X110.9Y-82.8
X116.4Y-81.0
X117.7Y-79.3
X118.1Y-90.65
X119.9Y-94.3
X119.999Y-90.401
X120.05Y-81.7
X120.05Y-82.4
X121.363Y-90.674
X123.012Y-82.144
X125.17Y-73.09
X125.27Y-108.08
X127.508Y-87.884
X127.752Y-78.45
X127.81Y-112.91
X127.82Y-101.83
X130.42Y-71.31
X131.2Y-86.8
X132.309Y-80.975
X134.2Y-72.4
X134.2Y-74.5
X134.7Y-82.3
X134.8Y-80.7
X138.39Y-104.06
X138.39Y-111.66
X143.68Y-81.14
X143.71Y-79.64
X145.93Y-77.992
X145.95Y-79.592
X146.25Y-116.4
X146.25Y-117.25
X147.33Y-83.782
X154.0Y-89.3
X154.9Y-112.4
X154.9Y-113.1
X155.65Y-72.44
X160.503Y-104.8
X165.27Y-81.25
X165.3Y-78.29
X167.996Y-85.7
X168.0Y-84.074
X168.01Y-84.887
X168.22Y-79.6
X170.1Y-84.943
X170.155Y-90.297
X171.12Y-108.585
X171.16Y-86.96
X171.171Y-81.407
X171.196Y-116.764
X171.43Y-78.62
X172.59Y-108.585
X172.61Y-86.96
X172.618Y-116.764
X172.77Y-78.62
X174.06Y-86.91
X174.08Y-78.62
X174.092Y-116.764
X174.117Y-108.585
T3
X94.2Y-70.5
X94.903Y-68.803
X94.903Y-72.197
X96.6Y-68.1
X96.6Y-72.9
X98.297Y-68.803
X98.297Y-72.197
X99.0Y-70.5
X94.2Y-121.5
X94.903Y-119.803
X94.903Y-123.197
X96.6Y-119.1
X96.6Y-123.9
X98.297Y-119.803
X98.297Y-123.197
X99.0Y-121.5
X168.6Y-70.5
X169.303Y-68.803
X169.303Y-72.197
X171.0Y-68.1
X171.0Y-72.9
X172.697Y-68.803
X172.697Y-72.197
X173.4Y-70.5
X168.6Y-121.5
X169.303Y-119.803
X169.303Y-123.197
X171.0Y-119.1
X171.0Y-123.9
X172.697Y-119.803
X172.697Y-123.197
X173.4Y-121.5
T4
X118.59Y-73.08
X118.59Y-74.35
X119.86Y-73.08
X119.86Y-74.35
X121.13Y-73.08
X121.13Y-74.35
X122.4Y-73.08
X122.4Y-74.35
X123.67Y-73.08
X123.67Y-74.35
T5
X119.11Y-109.922
X121.65Y-109.922
X119.11Y-99.022
X121.65Y-99.022
T6
X148.77Y-121.64
X151.27Y-121.64
X153.77Y-121.64
T7
X106.1Y-120.8
X108.6Y-120.8
X128.22Y-93.1
X130.76Y-93.1
X133.3Y-93.1
X135.84Y-93.1
X163.9Y-92.1
X163.9Y-97.1
X140.27Y-121.64
X142.77Y-121.64
T8
X103.87Y-109.922
X108.95Y-109.922
X103.87Y-99.022
X108.95Y-99.022
T9
X97.05Y-109.9
X97.05Y-114.98
X97.05Y-99.0
X97.05Y-104.08
T10
X96.6Y-121.5
X171.0Y-70.5
X171.0Y-121.5
X96.6Y-70.5
T0
M30
