%FSLAX45Y45*%
G04 Gerber Fmt 4.5, Leading zero omitted, Abs format (unit mm)*
G04 Created by KiCad (PCBNEW (5.1.4)-1) date 2022-02-20 14:43:40*
%MOMM*%
%LPD*%
G04 APERTURE LIST*
%ADD10C,0.050000*%
%ADD11C,0.200000*%
%ADD12C,0.300000*%
G04 APERTURE END LIST*
D10*
X9250000Y-6650000D02*
X17500000Y-6650000D01*
X9250000Y-12550000D02*
X9250000Y-6650000D01*
X17500000Y-12550000D02*
X9250000Y-12550000D01*
X17500000Y-6650000D02*
X17500000Y-12550000D01*
D11*
X10947500Y-7752500D02*
X10982500Y-7787500D01*
X10982500Y-7752500D02*
X10947500Y-7787500D01*
X11097500Y-8937500D02*
X11132500Y-8972500D01*
X11132500Y-8937500D02*
X11097500Y-8972500D01*
X11148661Y-8823661D02*
X11183661Y-8858661D01*
X11183661Y-8823661D02*
X11148661Y-8858661D01*
X11216510Y-8881475D02*
X11251510Y-8916475D01*
X11251510Y-8881475D02*
X11216510Y-8916475D01*
X11826520Y-8682000D02*
X11861520Y-8717000D01*
X11861520Y-8682000D02*
X11826520Y-8717000D01*
X12271020Y-7683780D02*
X12306020Y-7718780D01*
X12306020Y-7683780D02*
X12271020Y-7718780D01*
X12278640Y-8311160D02*
X12313640Y-8346160D01*
X12313640Y-8311160D02*
X12278640Y-8346160D01*
X12307500Y-10460500D02*
X12342500Y-10495500D01*
X12342500Y-10460500D02*
X12307500Y-10495500D01*
X12311500Y-11629500D02*
X12346500Y-11664500D01*
X12346500Y-11629500D02*
X12311500Y-11664500D01*
X12408180Y-7823480D02*
X12443180Y-7858480D01*
X12443180Y-7823480D02*
X12408180Y-7858480D01*
X12555500Y-7782840D02*
X12590500Y-7817840D01*
X12590500Y-7782840D02*
X12555500Y-7817840D01*
X12643919Y-8760351D02*
X12678919Y-8795351D01*
X12678919Y-8760351D02*
X12643919Y-8795351D01*
X12668568Y-7814855D02*
X12703568Y-7849855D01*
X12703568Y-7814855D02*
X12668568Y-7849855D01*
X12759724Y-9033564D02*
X12794724Y-9068564D01*
X12794724Y-9033564D02*
X12759724Y-9068564D01*
X12823239Y-7765892D02*
X12858239Y-7800892D01*
X12858239Y-7765892D02*
X12823239Y-7800892D01*
X12838501Y-9036339D02*
X12873501Y-9071339D01*
X12873501Y-9036339D02*
X12838501Y-9071339D01*
X12907500Y-8882500D02*
X12942500Y-8917500D01*
X12942500Y-8882500D02*
X12907500Y-8917500D01*
X12931682Y-7813358D02*
X12966682Y-7848358D01*
X12966682Y-7813358D02*
X12931682Y-7848358D01*
X13007212Y-8892788D02*
X13042212Y-8927788D01*
X13042212Y-8892788D02*
X13007212Y-8927788D01*
X13092500Y-8866339D02*
X13127500Y-8901339D01*
X13127500Y-8866339D02*
X13092500Y-8901339D01*
X13122500Y-7382500D02*
X13157500Y-7417500D01*
X13157500Y-7382500D02*
X13122500Y-7417500D01*
X13195580Y-8379740D02*
X13230580Y-8414740D01*
X13230580Y-8379740D02*
X13195580Y-8414740D01*
X13204786Y-7990428D02*
X13239786Y-8025428D01*
X13239786Y-7990428D02*
X13204786Y-8025428D01*
X13302500Y-8132500D02*
X13337500Y-8167500D01*
X13337500Y-8132500D02*
X13302500Y-8167500D01*
X14272161Y-8802839D02*
X14307161Y-8837839D01*
X14307161Y-8802839D02*
X14272161Y-8837839D01*
X14381760Y-8301000D02*
X14416760Y-8336000D01*
X14416760Y-8301000D02*
X14381760Y-8336000D01*
X15038520Y-8638700D02*
X15073520Y-8673700D01*
X15073520Y-8638700D02*
X15038520Y-8673700D01*
X15195520Y-8639700D02*
X15230520Y-8674700D01*
X15230520Y-8639700D02*
X15195520Y-8674700D01*
X15311400Y-7709180D02*
X15346400Y-7744180D01*
X15346400Y-7709180D02*
X15311400Y-7744180D01*
X15397760Y-7511060D02*
X15432760Y-7546060D01*
X15432760Y-7511060D02*
X15397760Y-7546060D01*
X15590800Y-7752360D02*
X15625800Y-7787360D01*
X15625800Y-7752360D02*
X15590800Y-7787360D01*
X15783500Y-11331500D02*
X15818500Y-11366500D01*
X15818500Y-11331500D02*
X15783500Y-11366500D01*
X15784500Y-11193500D02*
X15819500Y-11228500D01*
X15819500Y-11193500D02*
X15784500Y-11228500D01*
X15858500Y-11331500D02*
X15893500Y-11366500D01*
X15893500Y-11331500D02*
X15858500Y-11366500D01*
X15860437Y-11193500D02*
X15895437Y-11228500D01*
X15895437Y-11193500D02*
X15860437Y-11228500D01*
X15934500Y-11331500D02*
X15969500Y-11366500D01*
X15969500Y-11331500D02*
X15934500Y-11366500D01*
X15936375Y-11193500D02*
X15971375Y-11228500D01*
X15971375Y-11193500D02*
X15936375Y-11228500D01*
X16010500Y-11331500D02*
X16045500Y-11366500D01*
X16045500Y-11331500D02*
X16010500Y-11366500D01*
X16012312Y-11193500D02*
X16047312Y-11228500D01*
X16047312Y-11193500D02*
X16012312Y-11228500D01*
X16086500Y-11331500D02*
X16121500Y-11366500D01*
X16121500Y-11331500D02*
X16086500Y-11366500D01*
X16088250Y-11193500D02*
X16123250Y-11228500D01*
X16123250Y-11193500D02*
X16088250Y-11228500D01*
X16162500Y-11331500D02*
X16197500Y-11366500D01*
X16197500Y-11331500D02*
X16162500Y-11366500D01*
X16164187Y-11193500D02*
X16199187Y-11228500D01*
X16199187Y-11193500D02*
X16164187Y-11228500D01*
X16238500Y-11331500D02*
X16273500Y-11366500D01*
X16273500Y-11331500D02*
X16238500Y-11366500D01*
X16240125Y-11193500D02*
X16275125Y-11228500D01*
X16275125Y-11193500D02*
X16240125Y-11228500D01*
X16314500Y-11331500D02*
X16349500Y-11366500D01*
X16349500Y-11331500D02*
X16314500Y-11366500D01*
X16316062Y-11193500D02*
X16351062Y-11228500D01*
X16351062Y-11193500D02*
X16316062Y-11228500D01*
X16390500Y-11331500D02*
X16425500Y-11366500D01*
X16425500Y-11331500D02*
X16390500Y-11366500D01*
X16392000Y-11193500D02*
X16427000Y-11228500D01*
X16427000Y-11193500D02*
X16392000Y-11228500D01*
X16466500Y-11331500D02*
X16501500Y-11366500D01*
X16501500Y-11331500D02*
X16466500Y-11366500D01*
X16467937Y-11193500D02*
X16502937Y-11228500D01*
X16502937Y-11193500D02*
X16467937Y-11228500D01*
X16542500Y-11331500D02*
X16577500Y-11366500D01*
X16577500Y-11331500D02*
X16542500Y-11366500D01*
X16543875Y-11193500D02*
X16578875Y-11228500D01*
X16578875Y-11193500D02*
X16543875Y-11228500D01*
X16618500Y-11331500D02*
X16653500Y-11366500D01*
X16653500Y-11331500D02*
X16618500Y-11366500D01*
X16619812Y-11193500D02*
X16654812Y-11228500D01*
X16654812Y-11193500D02*
X16619812Y-11228500D01*
X16694500Y-11331500D02*
X16729500Y-11366500D01*
X16729500Y-11331500D02*
X16694500Y-11366500D01*
X16695750Y-11193500D02*
X16730750Y-11228500D01*
X16730750Y-11193500D02*
X16695750Y-11228500D01*
X16770500Y-11331500D02*
X16805500Y-11366500D01*
X16805500Y-11331500D02*
X16770500Y-11366500D01*
X16771687Y-11193500D02*
X16806688Y-11228500D01*
X16806688Y-11193500D02*
X16771687Y-11228500D01*
X16782060Y-8626120D02*
X16817060Y-8661120D01*
X16817060Y-8626120D02*
X16782060Y-8661120D01*
X16782500Y-8192500D02*
X16817500Y-8227500D01*
X16817500Y-8192500D02*
X16782500Y-8227500D01*
X16846500Y-11331500D02*
X16881500Y-11366500D01*
X16881500Y-11331500D02*
X16846500Y-11366500D01*
X16847625Y-11193500D02*
X16882625Y-11228500D01*
X16882625Y-11193500D02*
X16847625Y-11228500D01*
X16852500Y-8193500D02*
X16887500Y-8228500D01*
X16887500Y-8193500D02*
X16852500Y-8228500D01*
X16922500Y-8193500D02*
X16957500Y-8228500D01*
X16957500Y-8193500D02*
X16922500Y-8228500D01*
X16922500Y-11331500D02*
X16957500Y-11366500D01*
X16957500Y-11331500D02*
X16922500Y-11366500D01*
X16923563Y-11193500D02*
X16958563Y-11228500D01*
X16958563Y-11193500D02*
X16923563Y-11228500D01*
X16992500Y-8192500D02*
X17027500Y-8227500D01*
X17027500Y-8192500D02*
X16992500Y-8227500D01*
X16992500Y-8332500D02*
X17027500Y-8367500D01*
X17027500Y-8332500D02*
X16992500Y-8367500D01*
X16994500Y-8406500D02*
X17029500Y-8441500D01*
X17029500Y-8406500D02*
X16994500Y-8441500D01*
X16995420Y-8549920D02*
X17030420Y-8584920D01*
X17030420Y-8549920D02*
X16995420Y-8584920D01*
X16997960Y-8613420D02*
X17032960Y-8648420D01*
X17032960Y-8613420D02*
X16997960Y-8648420D01*
X16998500Y-11331500D02*
X17033500Y-11366500D01*
X17033500Y-11331500D02*
X16998500Y-11366500D01*
X16999500Y-11193500D02*
X17034500Y-11228500D01*
X17034500Y-11193500D02*
X16999500Y-11228500D01*
X17089400Y-8394980D02*
X17124400Y-8429980D01*
X17124400Y-8394980D02*
X17089400Y-8429980D01*
X17092500Y-11392500D02*
X17127500Y-11427500D01*
X17127500Y-11392500D02*
X17092500Y-11427500D01*
X17097020Y-11112780D02*
X17132020Y-11147780D01*
X17132020Y-11112780D02*
X17097020Y-11147780D01*
X17160520Y-8394980D02*
X17195520Y-8429980D01*
X17195520Y-8394980D02*
X17160520Y-8429980D01*
X17165600Y-8120660D02*
X17200600Y-8155660D01*
X17200600Y-8120660D02*
X17165600Y-8155660D01*
X17168140Y-11112780D02*
X17203140Y-11147780D01*
X17203140Y-11112780D02*
X17168140Y-11147780D01*
X17170000Y-11392500D02*
X17205000Y-11427500D01*
X17205000Y-11392500D02*
X17170000Y-11427500D01*
X17229100Y-8120660D02*
X17264100Y-8155660D01*
X17264100Y-8120660D02*
X17229100Y-8155660D01*
X17231640Y-8394980D02*
X17266640Y-8429980D01*
X17266640Y-8394980D02*
X17231640Y-8429980D01*
X17241800Y-11112780D02*
X17276800Y-11147780D01*
X17276800Y-11112780D02*
X17241800Y-11147780D01*
X17247500Y-11392500D02*
X17282500Y-11427500D01*
X17282500Y-11392500D02*
X17247500Y-11427500D01*
X17295140Y-8120660D02*
X17330140Y-8155660D01*
X17330140Y-8120660D02*
X17295140Y-8155660D01*
X17297680Y-8394980D02*
X17332680Y-8429980D01*
X17332680Y-8394980D02*
X17297680Y-8429980D01*
X17320540Y-11112780D02*
X17355540Y-11147780D01*
X17355540Y-11112780D02*
X17320540Y-11147780D01*
X17325000Y-11392500D02*
X17360000Y-11427500D01*
X17360000Y-11392500D02*
X17325000Y-11427500D01*
X17358640Y-8120660D02*
X17393640Y-8155660D01*
X17393640Y-8120660D02*
X17358640Y-8155660D01*
X17363720Y-8394980D02*
X17398720Y-8429980D01*
X17398720Y-8394980D02*
X17363720Y-8429980D01*
X17399280Y-11115320D02*
X17434280Y-11150320D01*
X17434280Y-11115320D02*
X17399280Y-11150320D01*
X17402500Y-11392500D02*
X17437500Y-11427500D01*
X17437500Y-11392500D02*
X17402500Y-11427500D01*
X9660000Y-7740000D02*
G75*
G03X9660000Y-7740000I-20000J0D01*
G01*
X9680000Y-9140000D02*
G75*
G03X9680000Y-9140000I-20000J0D01*
G01*
X9870000Y-7740000D02*
G75*
G03X9870000Y-7740000I-20000J0D01*
G01*
X9870000Y-9140000D02*
G75*
G03X9870000Y-9140000I-20000J0D01*
G01*
X10560000Y-9140000D02*
G75*
G03X10560000Y-9140000I-20000J0D01*
G01*
X10580000Y-7740000D02*
G75*
G03X10580000Y-7740000I-20000J0D01*
G01*
X10720000Y-7740000D02*
G75*
G03X10720000Y-7740000I-20000J0D01*
G01*
X10724000Y-8096000D02*
G75*
G03X10724000Y-8096000I-20000J0D01*
G01*
X10760000Y-9140000D02*
G75*
G03X10760000Y-9140000I-20000J0D01*
G01*
X11110000Y-8280000D02*
G75*
G03X11110000Y-8280000I-20000J0D01*
G01*
X11660000Y-8100000D02*
G75*
G03X11660000Y-8100000I-20000J0D01*
G01*
X11790000Y-7930000D02*
G75*
G03X11790000Y-7930000I-20000J0D01*
G01*
X11830000Y-9065000D02*
G75*
G03X11830000Y-9065000I-20000J0D01*
G01*
X12010000Y-9430000D02*
G75*
G03X12010000Y-9430000I-20000J0D01*
G01*
X12019920Y-9040081D02*
G75*
G03X12019920Y-9040081I-20000J0D01*
G01*
X12025000Y-8170000D02*
G75*
G03X12025000Y-8170000I-20000J0D01*
G01*
X12025000Y-8240000D02*
G75*
G03X12025000Y-8240000I-20000J0D01*
G01*
X12156251Y-9067428D02*
G75*
G03X12156251Y-9067428I-20000J0D01*
G01*
X12321220Y-8214360D02*
G75*
G03X12321220Y-8214360I-20000J0D01*
G01*
X12537000Y-7309000D02*
G75*
G03X12537000Y-7309000I-20000J0D01*
G01*
X12547000Y-10808000D02*
G75*
G03X12547000Y-10808000I-20000J0D01*
G01*
X12770800Y-8788400D02*
G75*
G03X12770800Y-8788400I-20000J0D01*
G01*
X12795170Y-7845043D02*
G75*
G03X12795170Y-7845043I-20000J0D01*
G01*
X12801000Y-11291000D02*
G75*
G03X12801000Y-11291000I-20000J0D01*
G01*
X12802000Y-10183000D02*
G75*
G03X12802000Y-10183000I-20000J0D01*
G01*
X13062000Y-7131000D02*
G75*
G03X13062000Y-7131000I-20000J0D01*
G01*
X13140000Y-8680000D02*
G75*
G03X13140000Y-8680000I-20000J0D01*
G01*
X13250860Y-8097520D02*
G75*
G03X13250860Y-8097520I-20000J0D01*
G01*
X13440000Y-7240000D02*
G75*
G03X13440000Y-7240000I-20000J0D01*
G01*
X13440000Y-7450000D02*
G75*
G03X13440000Y-7450000I-20000J0D01*
G01*
X13490000Y-8230000D02*
G75*
G03X13490000Y-8230000I-20000J0D01*
G01*
X13500000Y-8070000D02*
G75*
G03X13500000Y-8070000I-20000J0D01*
G01*
X13859000Y-10406000D02*
G75*
G03X13859000Y-10406000I-20000J0D01*
G01*
X13859000Y-11166000D02*
G75*
G03X13859000Y-11166000I-20000J0D01*
G01*
X14388000Y-8114000D02*
G75*
G03X14388000Y-8114000I-20000J0D01*
G01*
X14391000Y-7964000D02*
G75*
G03X14391000Y-7964000I-20000J0D01*
G01*
X14613020Y-7799200D02*
G75*
G03X14613020Y-7799200I-20000J0D01*
G01*
X14615020Y-7959200D02*
G75*
G03X14615020Y-7959200I-20000J0D01*
G01*
X14645000Y-11640000D02*
G75*
G03X14645000Y-11640000I-20000J0D01*
G01*
X14645000Y-11725000D02*
G75*
G03X14645000Y-11725000I-20000J0D01*
G01*
X14753020Y-8378200D02*
G75*
G03X14753020Y-8378200I-20000J0D01*
G01*
X15420000Y-8930000D02*
G75*
G03X15420000Y-8930000I-20000J0D01*
G01*
X15510000Y-11240000D02*
G75*
G03X15510000Y-11240000I-20000J0D01*
G01*
X15510000Y-11310000D02*
G75*
G03X15510000Y-11310000I-20000J0D01*
G01*
X15585000Y-7244000D02*
G75*
G03X15585000Y-7244000I-20000J0D01*
G01*
X16070260Y-10480040D02*
G75*
G03X16070260Y-10480040I-20000J0D01*
G01*
X16547000Y-8125000D02*
G75*
G03X16547000Y-8125000I-20000J0D01*
G01*
X16550000Y-7829000D02*
G75*
G03X16550000Y-7829000I-20000J0D01*
G01*
X16819560Y-8569960D02*
G75*
G03X16819560Y-8569960I-20000J0D01*
G01*
X16820000Y-8407400D02*
G75*
G03X16820000Y-8407400I-20000J0D01*
G01*
X16821000Y-8488680D02*
G75*
G03X16821000Y-8488680I-20000J0D01*
G01*
X16842000Y-7960000D02*
G75*
G03X16842000Y-7960000I-20000J0D01*
G01*
X17030000Y-8494333D02*
G75*
G03X17030000Y-8494333I-20000J0D01*
G01*
X17035460Y-9029700D02*
G75*
G03X17035460Y-9029700I-20000J0D01*
G01*
X17131980Y-10858500D02*
G75*
G03X17131980Y-10858500I-20000J0D01*
G01*
X17136000Y-8696000D02*
G75*
G03X17136000Y-8696000I-20000J0D01*
G01*
X17137060Y-8140700D02*
G75*
G03X17137060Y-8140700I-20000J0D01*
G01*
X17139600Y-11676380D02*
G75*
G03X17139600Y-11676380I-20000J0D01*
G01*
X17163000Y-7862000D02*
G75*
G03X17163000Y-7862000I-20000J0D01*
G01*
X17279000Y-10858500D02*
G75*
G03X17279000Y-10858500I-20000J0D01*
G01*
X17281000Y-8696000D02*
G75*
G03X17281000Y-8696000I-20000J0D01*
G01*
X17281840Y-11676380D02*
G75*
G03X17281840Y-11676380I-20000J0D01*
G01*
X17297000Y-7862000D02*
G75*
G03X17297000Y-7862000I-20000J0D01*
G01*
X17426000Y-8691000D02*
G75*
G03X17426000Y-8691000I-20000J0D01*
G01*
X17428000Y-7862000D02*
G75*
G03X17428000Y-7862000I-20000J0D01*
G01*
X17429160Y-11676380D02*
G75*
G03X17429160Y-11676380I-20000J0D01*
G01*
X17431700Y-10858500D02*
G75*
G03X17431700Y-10858500I-20000J0D01*
G01*
X9420000Y-7025000D02*
X9420000Y-7075000D01*
X9395000Y-7050000D02*
X9445000Y-7050000D01*
X9490294Y-6855294D02*
X9490294Y-6905294D01*
X9465294Y-6880294D02*
X9515294Y-6880294D01*
X9490294Y-7194706D02*
X9490294Y-7244706D01*
X9465294Y-7219706D02*
X9515294Y-7219706D01*
X9660000Y-6785000D02*
X9660000Y-6835000D01*
X9635000Y-6810000D02*
X9685000Y-6810000D01*
X9660000Y-7265000D02*
X9660000Y-7315000D01*
X9635000Y-7290000D02*
X9685000Y-7290000D01*
X9829706Y-6855294D02*
X9829706Y-6905294D01*
X9804706Y-6880294D02*
X9854706Y-6880294D01*
X9829706Y-7194706D02*
X9829706Y-7244706D01*
X9804706Y-7219706D02*
X9854706Y-7219706D01*
X9900000Y-7025000D02*
X9900000Y-7075000D01*
X9875000Y-7050000D02*
X9925000Y-7050000D01*
X9420000Y-12125000D02*
X9420000Y-12175000D01*
X9395000Y-12150000D02*
X9445000Y-12150000D01*
X9490294Y-11955294D02*
X9490294Y-12005294D01*
X9465294Y-11980294D02*
X9515294Y-11980294D01*
X9490294Y-12294706D02*
X9490294Y-12344706D01*
X9465294Y-12319706D02*
X9515294Y-12319706D01*
X9660000Y-11885000D02*
X9660000Y-11935000D01*
X9635000Y-11910000D02*
X9685000Y-11910000D01*
X9660000Y-12365000D02*
X9660000Y-12415000D01*
X9635000Y-12390000D02*
X9685000Y-12390000D01*
X9829706Y-11955294D02*
X9829706Y-12005294D01*
X9804706Y-11980294D02*
X9854706Y-11980294D01*
X9829706Y-12294706D02*
X9829706Y-12344706D01*
X9804706Y-12319706D02*
X9854706Y-12319706D01*
X9900000Y-12125000D02*
X9900000Y-12175000D01*
X9875000Y-12150000D02*
X9925000Y-12150000D01*
X16860000Y-7025000D02*
X16860000Y-7075000D01*
X16835000Y-7050000D02*
X16885000Y-7050000D01*
X16930294Y-6855294D02*
X16930294Y-6905294D01*
X16905294Y-6880294D02*
X16955294Y-6880294D01*
X16930294Y-7194706D02*
X16930294Y-7244706D01*
X16905294Y-7219706D02*
X16955294Y-7219706D01*
X17100000Y-6785000D02*
X17100000Y-6835000D01*
X17075000Y-6810000D02*
X17125000Y-6810000D01*
X17100000Y-7265000D02*
X17100000Y-7315000D01*
X17075000Y-7290000D02*
X17125000Y-7290000D01*
X17269706Y-6855294D02*
X17269706Y-6905294D01*
X17244706Y-6880294D02*
X17294706Y-6880294D01*
X17269706Y-7194706D02*
X17269706Y-7244706D01*
X17244706Y-7219706D02*
X17294706Y-7219706D01*
X17340000Y-7025000D02*
X17340000Y-7075000D01*
X17315000Y-7050000D02*
X17365000Y-7050000D01*
X16860000Y-12125000D02*
X16860000Y-12175000D01*
X16835000Y-12150000D02*
X16885000Y-12150000D01*
X16930294Y-11955294D02*
X16930294Y-12005294D01*
X16905294Y-11980294D02*
X16955294Y-11980294D01*
X16930294Y-12294706D02*
X16930294Y-12344706D01*
X16905294Y-12319706D02*
X16955294Y-12319706D01*
X17100000Y-11885000D02*
X17100000Y-11935000D01*
X17075000Y-11910000D02*
X17125000Y-11910000D01*
X17100000Y-12365000D02*
X17100000Y-12415000D01*
X17075000Y-12390000D02*
X17125000Y-12390000D01*
X17269706Y-11955294D02*
X17269706Y-12005294D01*
X17244706Y-11980294D02*
X17294706Y-11980294D01*
X17269706Y-12294706D02*
X17269706Y-12344706D01*
X17244706Y-12319706D02*
X17294706Y-12319706D01*
X17340000Y-12125000D02*
X17340000Y-12175000D01*
X17315000Y-12150000D02*
X17365000Y-12150000D01*
X11881981Y-7330981D02*
X11881981Y-7285019D01*
X11836019Y-7285019D01*
X11836019Y-7330981D01*
X11881981Y-7330981D01*
X11881981Y-7457981D02*
X11881981Y-7412019D01*
X11836019Y-7412019D01*
X11836019Y-7457981D01*
X11881981Y-7457981D01*
X12008981Y-7330981D02*
X12008981Y-7285019D01*
X11963019Y-7285019D01*
X11963019Y-7330981D01*
X12008981Y-7330981D01*
X12008981Y-7457981D02*
X12008981Y-7412019D01*
X11963019Y-7412019D01*
X11963019Y-7457981D01*
X12008981Y-7457981D01*
X12135981Y-7330981D02*
X12135981Y-7285019D01*
X12090019Y-7285019D01*
X12090019Y-7330981D01*
X12135981Y-7330981D01*
X12135981Y-7457981D02*
X12135981Y-7412019D01*
X12090019Y-7412019D01*
X12090019Y-7457981D01*
X12135981Y-7457981D01*
X12262981Y-7330981D02*
X12262981Y-7285019D01*
X12217019Y-7285019D01*
X12217019Y-7330981D01*
X12262981Y-7330981D01*
X12262981Y-7457981D02*
X12262981Y-7412019D01*
X12217019Y-7412019D01*
X12217019Y-7457981D01*
X12262981Y-7457981D01*
X12389981Y-7330981D02*
X12389981Y-7285019D01*
X12344019Y-7285019D01*
X12344019Y-7330981D01*
X12389981Y-7330981D01*
X12389981Y-7457981D02*
X12389981Y-7412019D01*
X12344019Y-7412019D01*
X12344019Y-7457981D01*
X12389981Y-7457981D01*
X11911000Y-11032250D02*
X11951000Y-10992250D01*
X11911000Y-10952250D01*
X11871000Y-10992250D01*
X11911000Y-11032250D01*
X12165000Y-11032250D02*
X12205000Y-10992250D01*
X12165000Y-10952250D01*
X12125000Y-10992250D01*
X12165000Y-11032250D01*
X11911000Y-9942250D02*
X11951000Y-9902250D01*
X11911000Y-9862250D01*
X11871000Y-9902250D01*
X11911000Y-9942250D01*
X12165000Y-9942250D02*
X12205000Y-9902250D01*
X12165000Y-9862250D01*
X12125000Y-9902250D01*
X12165000Y-9942250D01*
X14829500Y-12116500D02*
X14924500Y-12211500D01*
X14924500Y-12116500D02*
X14829500Y-12211500D01*
X14924500Y-12164000D02*
G75*
G03X14924500Y-12164000I-47500J0D01*
G01*
X15079500Y-12116500D02*
X15174500Y-12211500D01*
X15174500Y-12116500D02*
X15079500Y-12211500D01*
X15174500Y-12164000D02*
G75*
G03X15174500Y-12164000I-47500J0D01*
G01*
X15329500Y-12116500D02*
X15424500Y-12211500D01*
X15424500Y-12116500D02*
X15329500Y-12211500D01*
X15424500Y-12164000D02*
G75*
G03X15424500Y-12164000I-47500J0D01*
G01*
X10560000Y-12030000D02*
X10660000Y-12130000D01*
X10660000Y-12030000D02*
X10560000Y-12130000D01*
X10610000Y-12030000D02*
X10610000Y-12130000D01*
X10560000Y-12080000D02*
X10660000Y-12080000D01*
X10810000Y-12030000D02*
X10910000Y-12130000D01*
X10910000Y-12030000D02*
X10810000Y-12130000D01*
X10860000Y-12030000D02*
X10860000Y-12130000D01*
X10810000Y-12080000D02*
X10910000Y-12080000D01*
X12772000Y-9260000D02*
X12872000Y-9360000D01*
X12872000Y-9260000D02*
X12772000Y-9360000D01*
X12822000Y-9260000D02*
X12822000Y-9360000D01*
X12772000Y-9310000D02*
X12872000Y-9310000D01*
X13026000Y-9260000D02*
X13126000Y-9360000D01*
X13126000Y-9260000D02*
X13026000Y-9360000D01*
X13076000Y-9260000D02*
X13076000Y-9360000D01*
X13026000Y-9310000D02*
X13126000Y-9310000D01*
X13280000Y-9260000D02*
X13380000Y-9360000D01*
X13380000Y-9260000D02*
X13280000Y-9360000D01*
X13330000Y-9260000D02*
X13330000Y-9360000D01*
X13280000Y-9310000D02*
X13380000Y-9310000D01*
X13534000Y-9260000D02*
X13634000Y-9360000D01*
X13634000Y-9260000D02*
X13534000Y-9360000D01*
X13584000Y-9260000D02*
X13584000Y-9360000D01*
X13534000Y-9310000D02*
X13634000Y-9310000D01*
X16340000Y-9160000D02*
X16440000Y-9260000D01*
X16440000Y-9160000D02*
X16340000Y-9260000D01*
X16390000Y-9160000D02*
X16390000Y-9260000D01*
X16340000Y-9210000D02*
X16440000Y-9210000D01*
X16340000Y-9660000D02*
X16440000Y-9760000D01*
X16440000Y-9660000D02*
X16340000Y-9760000D01*
X16390000Y-9660000D02*
X16390000Y-9760000D01*
X16340000Y-9710000D02*
X16440000Y-9710000D01*
X13977000Y-12114000D02*
X14077000Y-12214000D01*
X14077000Y-12114000D02*
X13977000Y-12214000D01*
X14027000Y-12114000D02*
X14027000Y-12214000D01*
X13977000Y-12164000D02*
X14077000Y-12164000D01*
X14227000Y-12114000D02*
X14327000Y-12214000D01*
X14327000Y-12114000D02*
X14227000Y-12214000D01*
X14277000Y-12114000D02*
X14277000Y-12214000D01*
X14227000Y-12164000D02*
X14327000Y-12164000D01*
X10327000Y-10932250D02*
X10447000Y-11052250D01*
X10447000Y-10932250D02*
X10327000Y-11052250D01*
X10429427Y-11034677D02*
X10429427Y-10949823D01*
X10344573Y-10949823D01*
X10344573Y-11034677D01*
X10429427Y-11034677D01*
X10835000Y-10932250D02*
X10955000Y-11052250D01*
X10955000Y-10932250D02*
X10835000Y-11052250D01*
X10937427Y-11034677D02*
X10937427Y-10949823D01*
X10852573Y-10949823D01*
X10852573Y-11034677D01*
X10937427Y-11034677D01*
X10327000Y-9842250D02*
X10447000Y-9962250D01*
X10447000Y-9842250D02*
X10327000Y-9962250D01*
X10429427Y-9944677D02*
X10429427Y-9859823D01*
X10344573Y-9859823D01*
X10344573Y-9944677D01*
X10429427Y-9944677D01*
X10835000Y-9842250D02*
X10955000Y-9962250D01*
X10955000Y-9842250D02*
X10835000Y-9962250D01*
X10937427Y-9944677D02*
X10937427Y-9859823D01*
X10852573Y-9859823D01*
X10852573Y-9944677D01*
X10937427Y-9944677D01*
X9629000Y-10914000D02*
X9781000Y-11066000D01*
X9781000Y-10914000D02*
X9629000Y-11066000D01*
X9705000Y-11066000D02*
X9781000Y-10990000D01*
X9705000Y-10914000D01*
X9629000Y-10990000D01*
X9705000Y-11066000D01*
X9629000Y-11422000D02*
X9781000Y-11574000D01*
X9781000Y-11422000D02*
X9629000Y-11574000D01*
X9705000Y-11574000D02*
X9781000Y-11498000D01*
X9705000Y-11422000D01*
X9629000Y-11498000D01*
X9705000Y-11574000D01*
X9629000Y-9824000D02*
X9781000Y-9976000D01*
X9781000Y-9824000D02*
X9629000Y-9976000D01*
X9705000Y-9976000D02*
X9781000Y-9900000D01*
X9705000Y-9824000D01*
X9629000Y-9900000D01*
X9705000Y-9976000D01*
X9629000Y-10332000D02*
X9781000Y-10484000D01*
X9781000Y-10332000D02*
X9629000Y-10484000D01*
X9705000Y-10484000D02*
X9781000Y-10408000D01*
X9705000Y-10332000D01*
X9629000Y-10408000D01*
X9705000Y-10484000D01*
X9660000Y-11990000D02*
X9660000Y-12310000D01*
X9500000Y-12150000D02*
X9820000Y-12150000D01*
X9820000Y-12150000D02*
G75*
G03X9820000Y-12150000I-160000J0D01*
G01*
X17100000Y-6890000D02*
X17100000Y-7210000D01*
X16940000Y-7050000D02*
X17260000Y-7050000D01*
X17260000Y-7050000D02*
G75*
G03X17260000Y-7050000I-160000J0D01*
G01*
X17100000Y-11990000D02*
X17100000Y-12310000D01*
X16940000Y-12150000D02*
X17260000Y-12150000D01*
X17260000Y-12150000D02*
G75*
G03X17260000Y-12150000I-160000J0D01*
G01*
X9660000Y-6890000D02*
X9660000Y-7210000D01*
X9500000Y-7050000D02*
X9820000Y-7050000D01*
X9820000Y-7050000D02*
G75*
G03X9820000Y-7050000I-160000J0D01*
G01*
D12*
X9533928Y-13018214D02*
X9533928Y-12718214D01*
X9605357Y-12718214D01*
X9648214Y-12732500D01*
X9676786Y-12761071D01*
X9691071Y-12789643D01*
X9705357Y-12846786D01*
X9705357Y-12889643D01*
X9691071Y-12946786D01*
X9676786Y-12975357D01*
X9648214Y-13003929D01*
X9605357Y-13018214D01*
X9533928Y-13018214D01*
X9833928Y-13018214D02*
X9833928Y-12818214D01*
X9833928Y-12875357D02*
X9848214Y-12846786D01*
X9862500Y-12832500D01*
X9891071Y-12818214D01*
X9919643Y-12818214D01*
X10019643Y-13018214D02*
X10019643Y-12818214D01*
X10019643Y-12718214D02*
X10005357Y-12732500D01*
X10019643Y-12746786D01*
X10033928Y-12732500D01*
X10019643Y-12718214D01*
X10019643Y-12746786D01*
X10205357Y-13018214D02*
X10176786Y-13003929D01*
X10162500Y-12975357D01*
X10162500Y-12718214D01*
X10362500Y-13018214D02*
X10333928Y-13003929D01*
X10319643Y-12975357D01*
X10319643Y-12718214D01*
X10705357Y-13018214D02*
X10705357Y-12718214D01*
X10805357Y-12932500D01*
X10905357Y-12718214D01*
X10905357Y-13018214D01*
X11176786Y-13018214D02*
X11176786Y-12861071D01*
X11162500Y-12832500D01*
X11133928Y-12818214D01*
X11076786Y-12818214D01*
X11048214Y-12832500D01*
X11176786Y-13003929D02*
X11148214Y-13018214D01*
X11076786Y-13018214D01*
X11048214Y-13003929D01*
X11033928Y-12975357D01*
X11033928Y-12946786D01*
X11048214Y-12918214D01*
X11076786Y-12903929D01*
X11148214Y-12903929D01*
X11176786Y-12889643D01*
X11319643Y-12818214D02*
X11319643Y-13118214D01*
X11319643Y-12832500D02*
X11348214Y-12818214D01*
X11405357Y-12818214D01*
X11433928Y-12832500D01*
X11448214Y-12846786D01*
X11462500Y-12875357D01*
X11462500Y-12961071D01*
X11448214Y-12989643D01*
X11433928Y-13003929D01*
X11405357Y-13018214D01*
X11348214Y-13018214D01*
X11319643Y-13003929D01*
X11591071Y-12989643D02*
X11605357Y-13003929D01*
X11591071Y-13018214D01*
X11576786Y-13003929D01*
X11591071Y-12989643D01*
X11591071Y-13018214D01*
X11591071Y-12832500D02*
X11605357Y-12846786D01*
X11591071Y-12861071D01*
X11576786Y-12846786D01*
X11591071Y-12832500D01*
X11591071Y-12861071D01*
X9212500Y-13495000D02*
X9247500Y-13530000D01*
X9247500Y-13495000D02*
X9212500Y-13530000D01*
X9591071Y-13348214D02*
X9619643Y-13348214D01*
X9648214Y-13362500D01*
X9662500Y-13376786D01*
X9676786Y-13405357D01*
X9691071Y-13462500D01*
X9691071Y-13533929D01*
X9676786Y-13591071D01*
X9662500Y-13619643D01*
X9648214Y-13633929D01*
X9619643Y-13648214D01*
X9591071Y-13648214D01*
X9562500Y-13633929D01*
X9548214Y-13619643D01*
X9533928Y-13591071D01*
X9519643Y-13533929D01*
X9519643Y-13462500D01*
X9533928Y-13405357D01*
X9548214Y-13376786D01*
X9562500Y-13362500D01*
X9591071Y-13348214D01*
X9819643Y-13619643D02*
X9833928Y-13633929D01*
X9819643Y-13648214D01*
X9805357Y-13633929D01*
X9819643Y-13619643D01*
X9819643Y-13648214D01*
X9933928Y-13348214D02*
X10119643Y-13348214D01*
X10019643Y-13462500D01*
X10062500Y-13462500D01*
X10091071Y-13476786D01*
X10105357Y-13491071D01*
X10119643Y-13519643D01*
X10119643Y-13591071D01*
X10105357Y-13619643D01*
X10091071Y-13633929D01*
X10062500Y-13648214D01*
X9976786Y-13648214D01*
X9948214Y-13633929D01*
X9933928Y-13619643D01*
X10391071Y-13348214D02*
X10248214Y-13348214D01*
X10233928Y-13491071D01*
X10248214Y-13476786D01*
X10276786Y-13462500D01*
X10348214Y-13462500D01*
X10376786Y-13476786D01*
X10391071Y-13491071D01*
X10405357Y-13519643D01*
X10405357Y-13591071D01*
X10391071Y-13619643D01*
X10376786Y-13633929D01*
X10348214Y-13648214D01*
X10276786Y-13648214D01*
X10248214Y-13633929D01*
X10233928Y-13619643D01*
X10533928Y-13648214D02*
X10533928Y-13448214D01*
X10533928Y-13476786D02*
X10548214Y-13462500D01*
X10576786Y-13448214D01*
X10619643Y-13448214D01*
X10648214Y-13462500D01*
X10662500Y-13491071D01*
X10662500Y-13648214D01*
X10662500Y-13491071D02*
X10676786Y-13462500D01*
X10705357Y-13448214D01*
X10748214Y-13448214D01*
X10776786Y-13462500D01*
X10791071Y-13491071D01*
X10791071Y-13648214D01*
X10933928Y-13648214D02*
X10933928Y-13448214D01*
X10933928Y-13476786D02*
X10948214Y-13462500D01*
X10976786Y-13448214D01*
X11019643Y-13448214D01*
X11048214Y-13462500D01*
X11062500Y-13491071D01*
X11062500Y-13648214D01*
X11062500Y-13491071D02*
X11076786Y-13462500D01*
X11105357Y-13448214D01*
X11148214Y-13448214D01*
X11176786Y-13462500D01*
X11191071Y-13491071D01*
X11191071Y-13648214D01*
X11776786Y-13333929D02*
X11519643Y-13719643D01*
X12162500Y-13348214D02*
X12191071Y-13348214D01*
X12219643Y-13362500D01*
X12233928Y-13376786D01*
X12248214Y-13405357D01*
X12262500Y-13462500D01*
X12262500Y-13533929D01*
X12248214Y-13591071D01*
X12233928Y-13619643D01*
X12219643Y-13633929D01*
X12191071Y-13648214D01*
X12162500Y-13648214D01*
X12133928Y-13633929D01*
X12119643Y-13619643D01*
X12105357Y-13591071D01*
X12091071Y-13533929D01*
X12091071Y-13462500D01*
X12105357Y-13405357D01*
X12119643Y-13376786D01*
X12133928Y-13362500D01*
X12162500Y-13348214D01*
X12391071Y-13619643D02*
X12405357Y-13633929D01*
X12391071Y-13648214D01*
X12376786Y-13633929D01*
X12391071Y-13619643D01*
X12391071Y-13648214D01*
X12591071Y-13348214D02*
X12619643Y-13348214D01*
X12648214Y-13362500D01*
X12662500Y-13376786D01*
X12676786Y-13405357D01*
X12691071Y-13462500D01*
X12691071Y-13533929D01*
X12676786Y-13591071D01*
X12662500Y-13619643D01*
X12648214Y-13633929D01*
X12619643Y-13648214D01*
X12591071Y-13648214D01*
X12562500Y-13633929D01*
X12548214Y-13619643D01*
X12533928Y-13591071D01*
X12519643Y-13533929D01*
X12519643Y-13462500D01*
X12533928Y-13405357D01*
X12548214Y-13376786D01*
X12562500Y-13362500D01*
X12591071Y-13348214D01*
X12976786Y-13648214D02*
X12805357Y-13648214D01*
X12891071Y-13648214D02*
X12891071Y-13348214D01*
X12862500Y-13391071D01*
X12833928Y-13419643D01*
X12805357Y-13433929D01*
X13233928Y-13448214D02*
X13233928Y-13648214D01*
X13162500Y-13333929D02*
X13091071Y-13548214D01*
X13276786Y-13548214D01*
X13376786Y-13348214D02*
X13376786Y-13405357D01*
X13491071Y-13348214D02*
X13491071Y-13405357D01*
X13933928Y-13762500D02*
X13919643Y-13748214D01*
X13891071Y-13705357D01*
X13876786Y-13676786D01*
X13862500Y-13633929D01*
X13848214Y-13562500D01*
X13848214Y-13505357D01*
X13862500Y-13433929D01*
X13876786Y-13391071D01*
X13891071Y-13362500D01*
X13919643Y-13319643D01*
X13933928Y-13305357D01*
X14062500Y-13648214D02*
X14119643Y-13648214D01*
X14148214Y-13633929D01*
X14162500Y-13619643D01*
X14191071Y-13576786D01*
X14205357Y-13519643D01*
X14205357Y-13405357D01*
X14191071Y-13376786D01*
X14176786Y-13362500D01*
X14148214Y-13348214D01*
X14091071Y-13348214D01*
X14062500Y-13362500D01*
X14048214Y-13376786D01*
X14033928Y-13405357D01*
X14033928Y-13476786D01*
X14048214Y-13505357D01*
X14062500Y-13519643D01*
X14091071Y-13533929D01*
X14148214Y-13533929D01*
X14176786Y-13519643D01*
X14191071Y-13505357D01*
X14205357Y-13476786D01*
X14305357Y-13348214D02*
X14491071Y-13348214D01*
X14391071Y-13462500D01*
X14433928Y-13462500D01*
X14462500Y-13476786D01*
X14476786Y-13491071D01*
X14491071Y-13519643D01*
X14491071Y-13591071D01*
X14476786Y-13619643D01*
X14462500Y-13633929D01*
X14433928Y-13648214D01*
X14348214Y-13648214D01*
X14319643Y-13633929D01*
X14305357Y-13619643D01*
X14848214Y-13648214D02*
X14848214Y-13348214D01*
X14976786Y-13648214D02*
X14976786Y-13491071D01*
X14962500Y-13462500D01*
X14933928Y-13448214D01*
X14891071Y-13448214D01*
X14862500Y-13462500D01*
X14848214Y-13476786D01*
X15162500Y-13648214D02*
X15133928Y-13633929D01*
X15119643Y-13619643D01*
X15105357Y-13591071D01*
X15105357Y-13505357D01*
X15119643Y-13476786D01*
X15133928Y-13462500D01*
X15162500Y-13448214D01*
X15205357Y-13448214D01*
X15233928Y-13462500D01*
X15248214Y-13476786D01*
X15262500Y-13505357D01*
X15262500Y-13591071D01*
X15248214Y-13619643D01*
X15233928Y-13633929D01*
X15205357Y-13648214D01*
X15162500Y-13648214D01*
X15433928Y-13648214D02*
X15405357Y-13633929D01*
X15391071Y-13605357D01*
X15391071Y-13348214D01*
X15662500Y-13633929D02*
X15633928Y-13648214D01*
X15576786Y-13648214D01*
X15548214Y-13633929D01*
X15533928Y-13605357D01*
X15533928Y-13491071D01*
X15548214Y-13462500D01*
X15576786Y-13448214D01*
X15633928Y-13448214D01*
X15662500Y-13462500D01*
X15676786Y-13491071D01*
X15676786Y-13519643D01*
X15533928Y-13548214D01*
X15791071Y-13633929D02*
X15819643Y-13648214D01*
X15876786Y-13648214D01*
X15905357Y-13633929D01*
X15919643Y-13605357D01*
X15919643Y-13591071D01*
X15905357Y-13562500D01*
X15876786Y-13548214D01*
X15833928Y-13548214D01*
X15805357Y-13533929D01*
X15791071Y-13505357D01*
X15791071Y-13491071D01*
X15805357Y-13462500D01*
X15833928Y-13448214D01*
X15876786Y-13448214D01*
X15905357Y-13462500D01*
X16019643Y-13762500D02*
X16033928Y-13748214D01*
X16062500Y-13705357D01*
X16076786Y-13676786D01*
X16091071Y-13633929D01*
X16105357Y-13562500D01*
X16105357Y-13505357D01*
X16091071Y-13433929D01*
X16076786Y-13391071D01*
X16062500Y-13362500D01*
X16033928Y-13319643D01*
X16019643Y-13305357D01*
X9247500Y-13908500D02*
G75*
G03X9247500Y-13908500I-20000J0D01*
G01*
X9591071Y-13744214D02*
X9619643Y-13744214D01*
X9648214Y-13758500D01*
X9662500Y-13772786D01*
X9676786Y-13801357D01*
X9691071Y-13858500D01*
X9691071Y-13929929D01*
X9676786Y-13987071D01*
X9662500Y-14015643D01*
X9648214Y-14029929D01*
X9619643Y-14044214D01*
X9591071Y-14044214D01*
X9562500Y-14029929D01*
X9548214Y-14015643D01*
X9533928Y-13987071D01*
X9519643Y-13929929D01*
X9519643Y-13858500D01*
X9533928Y-13801357D01*
X9548214Y-13772786D01*
X9562500Y-13758500D01*
X9591071Y-13744214D01*
X9819643Y-14015643D02*
X9833928Y-14029929D01*
X9819643Y-14044214D01*
X9805357Y-14029929D01*
X9819643Y-14015643D01*
X9819643Y-14044214D01*
X10091071Y-13844214D02*
X10091071Y-14044214D01*
X10019643Y-13729929D02*
X9948214Y-13944214D01*
X10133928Y-13944214D01*
X10305357Y-13744214D02*
X10333928Y-13744214D01*
X10362500Y-13758500D01*
X10376786Y-13772786D01*
X10391071Y-13801357D01*
X10405357Y-13858500D01*
X10405357Y-13929929D01*
X10391071Y-13987071D01*
X10376786Y-14015643D01*
X10362500Y-14029929D01*
X10333928Y-14044214D01*
X10305357Y-14044214D01*
X10276786Y-14029929D01*
X10262500Y-14015643D01*
X10248214Y-13987071D01*
X10233928Y-13929929D01*
X10233928Y-13858500D01*
X10248214Y-13801357D01*
X10262500Y-13772786D01*
X10276786Y-13758500D01*
X10305357Y-13744214D01*
X10533928Y-14044214D02*
X10533928Y-13844214D01*
X10533928Y-13872786D02*
X10548214Y-13858500D01*
X10576786Y-13844214D01*
X10619643Y-13844214D01*
X10648214Y-13858500D01*
X10662500Y-13887071D01*
X10662500Y-14044214D01*
X10662500Y-13887071D02*
X10676786Y-13858500D01*
X10705357Y-13844214D01*
X10748214Y-13844214D01*
X10776786Y-13858500D01*
X10791071Y-13887071D01*
X10791071Y-14044214D01*
X10933928Y-14044214D02*
X10933928Y-13844214D01*
X10933928Y-13872786D02*
X10948214Y-13858500D01*
X10976786Y-13844214D01*
X11019643Y-13844214D01*
X11048214Y-13858500D01*
X11062500Y-13887071D01*
X11062500Y-14044214D01*
X11062500Y-13887071D02*
X11076786Y-13858500D01*
X11105357Y-13844214D01*
X11148214Y-13844214D01*
X11176786Y-13858500D01*
X11191071Y-13887071D01*
X11191071Y-14044214D01*
X11776786Y-13729929D02*
X11519643Y-14115643D01*
X12162500Y-13744214D02*
X12191071Y-13744214D01*
X12219643Y-13758500D01*
X12233928Y-13772786D01*
X12248214Y-13801357D01*
X12262500Y-13858500D01*
X12262500Y-13929929D01*
X12248214Y-13987071D01*
X12233928Y-14015643D01*
X12219643Y-14029929D01*
X12191071Y-14044214D01*
X12162500Y-14044214D01*
X12133928Y-14029929D01*
X12119643Y-14015643D01*
X12105357Y-13987071D01*
X12091071Y-13929929D01*
X12091071Y-13858500D01*
X12105357Y-13801357D01*
X12119643Y-13772786D01*
X12133928Y-13758500D01*
X12162500Y-13744214D01*
X12391071Y-14015643D02*
X12405357Y-14029929D01*
X12391071Y-14044214D01*
X12376786Y-14029929D01*
X12391071Y-14015643D01*
X12391071Y-14044214D01*
X12591071Y-13744214D02*
X12619643Y-13744214D01*
X12648214Y-13758500D01*
X12662500Y-13772786D01*
X12676786Y-13801357D01*
X12691071Y-13858500D01*
X12691071Y-13929929D01*
X12676786Y-13987071D01*
X12662500Y-14015643D01*
X12648214Y-14029929D01*
X12619643Y-14044214D01*
X12591071Y-14044214D01*
X12562500Y-14029929D01*
X12548214Y-14015643D01*
X12533928Y-13987071D01*
X12519643Y-13929929D01*
X12519643Y-13858500D01*
X12533928Y-13801357D01*
X12548214Y-13772786D01*
X12562500Y-13758500D01*
X12591071Y-13744214D01*
X12976786Y-14044214D02*
X12805357Y-14044214D01*
X12891071Y-14044214D02*
X12891071Y-13744214D01*
X12862500Y-13787071D01*
X12833928Y-13815643D01*
X12805357Y-13829929D01*
X13233928Y-13744214D02*
X13176786Y-13744214D01*
X13148214Y-13758500D01*
X13133928Y-13772786D01*
X13105357Y-13815643D01*
X13091071Y-13872786D01*
X13091071Y-13987071D01*
X13105357Y-14015643D01*
X13119643Y-14029929D01*
X13148214Y-14044214D01*
X13205357Y-14044214D01*
X13233928Y-14029929D01*
X13248214Y-14015643D01*
X13262500Y-13987071D01*
X13262500Y-13915643D01*
X13248214Y-13887071D01*
X13233928Y-13872786D01*
X13205357Y-13858500D01*
X13148214Y-13858500D01*
X13119643Y-13872786D01*
X13105357Y-13887071D01*
X13091071Y-13915643D01*
X13376786Y-13744214D02*
X13376786Y-13801357D01*
X13491071Y-13744214D02*
X13491071Y-13801357D01*
X13933928Y-14158500D02*
X13919643Y-14144214D01*
X13891071Y-14101357D01*
X13876786Y-14072786D01*
X13862500Y-14029929D01*
X13848214Y-13958500D01*
X13848214Y-13901357D01*
X13862500Y-13829929D01*
X13876786Y-13787071D01*
X13891071Y-13758500D01*
X13919643Y-13715643D01*
X13933928Y-13701357D01*
X14176786Y-13744214D02*
X14119643Y-13744214D01*
X14091071Y-13758500D01*
X14076786Y-13772786D01*
X14048214Y-13815643D01*
X14033928Y-13872786D01*
X14033928Y-13987071D01*
X14048214Y-14015643D01*
X14062500Y-14029929D01*
X14091071Y-14044214D01*
X14148214Y-14044214D01*
X14176786Y-14029929D01*
X14191071Y-14015643D01*
X14205357Y-13987071D01*
X14205357Y-13915643D01*
X14191071Y-13887071D01*
X14176786Y-13872786D01*
X14148214Y-13858500D01*
X14091071Y-13858500D01*
X14062500Y-13872786D01*
X14048214Y-13887071D01*
X14033928Y-13915643D01*
X14305357Y-13744214D02*
X14505357Y-13744214D01*
X14376786Y-14044214D01*
X14848214Y-14044214D02*
X14848214Y-13744214D01*
X14976786Y-14044214D02*
X14976786Y-13887071D01*
X14962500Y-13858500D01*
X14933928Y-13844214D01*
X14891071Y-13844214D01*
X14862500Y-13858500D01*
X14848214Y-13872786D01*
X15162500Y-14044214D02*
X15133928Y-14029929D01*
X15119643Y-14015643D01*
X15105357Y-13987071D01*
X15105357Y-13901357D01*
X15119643Y-13872786D01*
X15133928Y-13858500D01*
X15162500Y-13844214D01*
X15205357Y-13844214D01*
X15233928Y-13858500D01*
X15248214Y-13872786D01*
X15262500Y-13901357D01*
X15262500Y-13987071D01*
X15248214Y-14015643D01*
X15233928Y-14029929D01*
X15205357Y-14044214D01*
X15162500Y-14044214D01*
X15433928Y-14044214D02*
X15405357Y-14029929D01*
X15391071Y-14001357D01*
X15391071Y-13744214D01*
X15662500Y-14029929D02*
X15633928Y-14044214D01*
X15576786Y-14044214D01*
X15548214Y-14029929D01*
X15533928Y-14001357D01*
X15533928Y-13887071D01*
X15548214Y-13858500D01*
X15576786Y-13844214D01*
X15633928Y-13844214D01*
X15662500Y-13858500D01*
X15676786Y-13887071D01*
X15676786Y-13915643D01*
X15533928Y-13944214D01*
X15791071Y-14029929D02*
X15819643Y-14044214D01*
X15876786Y-14044214D01*
X15905357Y-14029929D01*
X15919643Y-14001357D01*
X15919643Y-13987071D01*
X15905357Y-13958500D01*
X15876786Y-13944214D01*
X15833928Y-13944214D01*
X15805357Y-13929929D01*
X15791071Y-13901357D01*
X15791071Y-13887071D01*
X15805357Y-13858500D01*
X15833928Y-13844214D01*
X15876786Y-13844214D01*
X15905357Y-13858500D01*
X16019643Y-14158500D02*
X16033928Y-14144214D01*
X16062500Y-14101357D01*
X16076786Y-14072786D01*
X16091071Y-14029929D01*
X16105357Y-13958500D01*
X16105357Y-13901357D01*
X16091071Y-13829929D01*
X16076786Y-13787071D01*
X16062500Y-13758500D01*
X16033928Y-13715643D01*
X16019643Y-13701357D01*
X9222500Y-14279500D02*
X9222500Y-14329500D01*
X9197500Y-14304500D02*
X9247500Y-14304500D01*
X9591071Y-14140214D02*
X9619643Y-14140214D01*
X9648214Y-14154500D01*
X9662500Y-14168786D01*
X9676786Y-14197357D01*
X9691071Y-14254500D01*
X9691071Y-14325929D01*
X9676786Y-14383071D01*
X9662500Y-14411643D01*
X9648214Y-14425929D01*
X9619643Y-14440214D01*
X9591071Y-14440214D01*
X9562500Y-14425929D01*
X9548214Y-14411643D01*
X9533928Y-14383071D01*
X9519643Y-14325929D01*
X9519643Y-14254500D01*
X9533928Y-14197357D01*
X9548214Y-14168786D01*
X9562500Y-14154500D01*
X9591071Y-14140214D01*
X9819643Y-14411643D02*
X9833928Y-14425929D01*
X9819643Y-14440214D01*
X9805357Y-14425929D01*
X9819643Y-14411643D01*
X9819643Y-14440214D01*
X10105357Y-14140214D02*
X9962500Y-14140214D01*
X9948214Y-14283071D01*
X9962500Y-14268786D01*
X9991071Y-14254500D01*
X10062500Y-14254500D01*
X10091071Y-14268786D01*
X10105357Y-14283071D01*
X10119643Y-14311643D01*
X10119643Y-14383071D01*
X10105357Y-14411643D01*
X10091071Y-14425929D01*
X10062500Y-14440214D01*
X9991071Y-14440214D01*
X9962500Y-14425929D01*
X9948214Y-14411643D01*
X10305357Y-14140214D02*
X10333928Y-14140214D01*
X10362500Y-14154500D01*
X10376786Y-14168786D01*
X10391071Y-14197357D01*
X10405357Y-14254500D01*
X10405357Y-14325929D01*
X10391071Y-14383071D01*
X10376786Y-14411643D01*
X10362500Y-14425929D01*
X10333928Y-14440214D01*
X10305357Y-14440214D01*
X10276786Y-14425929D01*
X10262500Y-14411643D01*
X10248214Y-14383071D01*
X10233928Y-14325929D01*
X10233928Y-14254500D01*
X10248214Y-14197357D01*
X10262500Y-14168786D01*
X10276786Y-14154500D01*
X10305357Y-14140214D01*
X10533928Y-14440214D02*
X10533928Y-14240214D01*
X10533928Y-14268786D02*
X10548214Y-14254500D01*
X10576786Y-14240214D01*
X10619643Y-14240214D01*
X10648214Y-14254500D01*
X10662500Y-14283071D01*
X10662500Y-14440214D01*
X10662500Y-14283071D02*
X10676786Y-14254500D01*
X10705357Y-14240214D01*
X10748214Y-14240214D01*
X10776786Y-14254500D01*
X10791071Y-14283071D01*
X10791071Y-14440214D01*
X10933928Y-14440214D02*
X10933928Y-14240214D01*
X10933928Y-14268786D02*
X10948214Y-14254500D01*
X10976786Y-14240214D01*
X11019643Y-14240214D01*
X11048214Y-14254500D01*
X11062500Y-14283071D01*
X11062500Y-14440214D01*
X11062500Y-14283071D02*
X11076786Y-14254500D01*
X11105357Y-14240214D01*
X11148214Y-14240214D01*
X11176786Y-14254500D01*
X11191071Y-14283071D01*
X11191071Y-14440214D01*
X11776786Y-14125929D02*
X11519643Y-14511643D01*
X12162500Y-14140214D02*
X12191071Y-14140214D01*
X12219643Y-14154500D01*
X12233928Y-14168786D01*
X12248214Y-14197357D01*
X12262500Y-14254500D01*
X12262500Y-14325929D01*
X12248214Y-14383071D01*
X12233928Y-14411643D01*
X12219643Y-14425929D01*
X12191071Y-14440214D01*
X12162500Y-14440214D01*
X12133928Y-14425929D01*
X12119643Y-14411643D01*
X12105357Y-14383071D01*
X12091071Y-14325929D01*
X12091071Y-14254500D01*
X12105357Y-14197357D01*
X12119643Y-14168786D01*
X12133928Y-14154500D01*
X12162500Y-14140214D01*
X12391071Y-14411643D02*
X12405357Y-14425929D01*
X12391071Y-14440214D01*
X12376786Y-14425929D01*
X12391071Y-14411643D01*
X12391071Y-14440214D01*
X12591071Y-14140214D02*
X12619643Y-14140214D01*
X12648214Y-14154500D01*
X12662500Y-14168786D01*
X12676786Y-14197357D01*
X12691071Y-14254500D01*
X12691071Y-14325929D01*
X12676786Y-14383071D01*
X12662500Y-14411643D01*
X12648214Y-14425929D01*
X12619643Y-14440214D01*
X12591071Y-14440214D01*
X12562500Y-14425929D01*
X12548214Y-14411643D01*
X12533928Y-14383071D01*
X12519643Y-14325929D01*
X12519643Y-14254500D01*
X12533928Y-14197357D01*
X12548214Y-14168786D01*
X12562500Y-14154500D01*
X12591071Y-14140214D01*
X12805357Y-14168786D02*
X12819643Y-14154500D01*
X12848214Y-14140214D01*
X12919643Y-14140214D01*
X12948214Y-14154500D01*
X12962500Y-14168786D01*
X12976786Y-14197357D01*
X12976786Y-14225929D01*
X12962500Y-14268786D01*
X12791071Y-14440214D01*
X12976786Y-14440214D01*
X13162500Y-14140214D02*
X13191071Y-14140214D01*
X13219643Y-14154500D01*
X13233928Y-14168786D01*
X13248214Y-14197357D01*
X13262500Y-14254500D01*
X13262500Y-14325929D01*
X13248214Y-14383071D01*
X13233928Y-14411643D01*
X13219643Y-14425929D01*
X13191071Y-14440214D01*
X13162500Y-14440214D01*
X13133928Y-14425929D01*
X13119643Y-14411643D01*
X13105357Y-14383071D01*
X13091071Y-14325929D01*
X13091071Y-14254500D01*
X13105357Y-14197357D01*
X13119643Y-14168786D01*
X13133928Y-14154500D01*
X13162500Y-14140214D01*
X13376786Y-14140214D02*
X13376786Y-14197357D01*
X13491071Y-14140214D02*
X13491071Y-14197357D01*
X13933928Y-14554500D02*
X13919643Y-14540214D01*
X13891071Y-14497357D01*
X13876786Y-14468786D01*
X13862500Y-14425929D01*
X13848214Y-14354500D01*
X13848214Y-14297357D01*
X13862500Y-14225929D01*
X13876786Y-14183071D01*
X13891071Y-14154500D01*
X13919643Y-14111643D01*
X13933928Y-14097357D01*
X14019643Y-14140214D02*
X14205357Y-14140214D01*
X14105357Y-14254500D01*
X14148214Y-14254500D01*
X14176786Y-14268786D01*
X14191071Y-14283071D01*
X14205357Y-14311643D01*
X14205357Y-14383071D01*
X14191071Y-14411643D01*
X14176786Y-14425929D01*
X14148214Y-14440214D01*
X14062500Y-14440214D01*
X14033928Y-14425929D01*
X14019643Y-14411643D01*
X14319643Y-14168786D02*
X14333928Y-14154500D01*
X14362500Y-14140214D01*
X14433928Y-14140214D01*
X14462500Y-14154500D01*
X14476786Y-14168786D01*
X14491071Y-14197357D01*
X14491071Y-14225929D01*
X14476786Y-14268786D01*
X14305357Y-14440214D01*
X14491071Y-14440214D01*
X14848214Y-14440214D02*
X14848214Y-14140214D01*
X14976786Y-14440214D02*
X14976786Y-14283071D01*
X14962500Y-14254500D01*
X14933928Y-14240214D01*
X14891071Y-14240214D01*
X14862500Y-14254500D01*
X14848214Y-14268786D01*
X15162500Y-14440214D02*
X15133928Y-14425929D01*
X15119643Y-14411643D01*
X15105357Y-14383071D01*
X15105357Y-14297357D01*
X15119643Y-14268786D01*
X15133928Y-14254500D01*
X15162500Y-14240214D01*
X15205357Y-14240214D01*
X15233928Y-14254500D01*
X15248214Y-14268786D01*
X15262500Y-14297357D01*
X15262500Y-14383071D01*
X15248214Y-14411643D01*
X15233928Y-14425929D01*
X15205357Y-14440214D01*
X15162500Y-14440214D01*
X15433928Y-14440214D02*
X15405357Y-14425929D01*
X15391071Y-14397357D01*
X15391071Y-14140214D01*
X15662500Y-14425929D02*
X15633928Y-14440214D01*
X15576786Y-14440214D01*
X15548214Y-14425929D01*
X15533928Y-14397357D01*
X15533928Y-14283071D01*
X15548214Y-14254500D01*
X15576786Y-14240214D01*
X15633928Y-14240214D01*
X15662500Y-14254500D01*
X15676786Y-14283071D01*
X15676786Y-14311643D01*
X15533928Y-14340214D01*
X15791071Y-14425929D02*
X15819643Y-14440214D01*
X15876786Y-14440214D01*
X15905357Y-14425929D01*
X15919643Y-14397357D01*
X15919643Y-14383071D01*
X15905357Y-14354500D01*
X15876786Y-14340214D01*
X15833928Y-14340214D01*
X15805357Y-14325929D01*
X15791071Y-14297357D01*
X15791071Y-14283071D01*
X15805357Y-14254500D01*
X15833928Y-14240214D01*
X15876786Y-14240214D01*
X15905357Y-14254500D01*
X16019643Y-14554500D02*
X16033928Y-14540214D01*
X16062500Y-14497357D01*
X16076786Y-14468786D01*
X16091071Y-14425929D01*
X16105357Y-14354500D01*
X16105357Y-14297357D01*
X16091071Y-14225929D01*
X16076786Y-14183071D01*
X16062500Y-14154500D01*
X16033928Y-14111643D01*
X16019643Y-14097357D01*
X9237981Y-14723481D02*
X9237981Y-14677519D01*
X9192019Y-14677519D01*
X9192019Y-14723481D01*
X9237981Y-14723481D01*
X9591071Y-14536214D02*
X9619643Y-14536214D01*
X9648214Y-14550500D01*
X9662500Y-14564786D01*
X9676786Y-14593357D01*
X9691071Y-14650500D01*
X9691071Y-14721929D01*
X9676786Y-14779071D01*
X9662500Y-14807643D01*
X9648214Y-14821929D01*
X9619643Y-14836214D01*
X9591071Y-14836214D01*
X9562500Y-14821929D01*
X9548214Y-14807643D01*
X9533928Y-14779071D01*
X9519643Y-14721929D01*
X9519643Y-14650500D01*
X9533928Y-14593357D01*
X9548214Y-14564786D01*
X9562500Y-14550500D01*
X9591071Y-14536214D01*
X9819643Y-14807643D02*
X9833928Y-14821929D01*
X9819643Y-14836214D01*
X9805357Y-14821929D01*
X9819643Y-14807643D01*
X9819643Y-14836214D01*
X10091071Y-14536214D02*
X10033928Y-14536214D01*
X10005357Y-14550500D01*
X9991071Y-14564786D01*
X9962500Y-14607643D01*
X9948214Y-14664786D01*
X9948214Y-14779071D01*
X9962500Y-14807643D01*
X9976786Y-14821929D01*
X10005357Y-14836214D01*
X10062500Y-14836214D01*
X10091071Y-14821929D01*
X10105357Y-14807643D01*
X10119643Y-14779071D01*
X10119643Y-14707643D01*
X10105357Y-14679071D01*
X10091071Y-14664786D01*
X10062500Y-14650500D01*
X10005357Y-14650500D01*
X9976786Y-14664786D01*
X9962500Y-14679071D01*
X9948214Y-14707643D01*
X10391071Y-14536214D02*
X10248214Y-14536214D01*
X10233928Y-14679071D01*
X10248214Y-14664786D01*
X10276786Y-14650500D01*
X10348214Y-14650500D01*
X10376786Y-14664786D01*
X10391071Y-14679071D01*
X10405357Y-14707643D01*
X10405357Y-14779071D01*
X10391071Y-14807643D01*
X10376786Y-14821929D01*
X10348214Y-14836214D01*
X10276786Y-14836214D01*
X10248214Y-14821929D01*
X10233928Y-14807643D01*
X10533928Y-14836214D02*
X10533928Y-14636214D01*
X10533928Y-14664786D02*
X10548214Y-14650500D01*
X10576786Y-14636214D01*
X10619643Y-14636214D01*
X10648214Y-14650500D01*
X10662500Y-14679071D01*
X10662500Y-14836214D01*
X10662500Y-14679071D02*
X10676786Y-14650500D01*
X10705357Y-14636214D01*
X10748214Y-14636214D01*
X10776786Y-14650500D01*
X10791071Y-14679071D01*
X10791071Y-14836214D01*
X10933928Y-14836214D02*
X10933928Y-14636214D01*
X10933928Y-14664786D02*
X10948214Y-14650500D01*
X10976786Y-14636214D01*
X11019643Y-14636214D01*
X11048214Y-14650500D01*
X11062500Y-14679071D01*
X11062500Y-14836214D01*
X11062500Y-14679071D02*
X11076786Y-14650500D01*
X11105357Y-14636214D01*
X11148214Y-14636214D01*
X11176786Y-14650500D01*
X11191071Y-14679071D01*
X11191071Y-14836214D01*
X11776786Y-14521929D02*
X11519643Y-14907643D01*
X12162500Y-14536214D02*
X12191071Y-14536214D01*
X12219643Y-14550500D01*
X12233928Y-14564786D01*
X12248214Y-14593357D01*
X12262500Y-14650500D01*
X12262500Y-14721929D01*
X12248214Y-14779071D01*
X12233928Y-14807643D01*
X12219643Y-14821929D01*
X12191071Y-14836214D01*
X12162500Y-14836214D01*
X12133928Y-14821929D01*
X12119643Y-14807643D01*
X12105357Y-14779071D01*
X12091071Y-14721929D01*
X12091071Y-14650500D01*
X12105357Y-14593357D01*
X12119643Y-14564786D01*
X12133928Y-14550500D01*
X12162500Y-14536214D01*
X12391071Y-14807643D02*
X12405357Y-14821929D01*
X12391071Y-14836214D01*
X12376786Y-14821929D01*
X12391071Y-14807643D01*
X12391071Y-14836214D01*
X12591071Y-14536214D02*
X12619643Y-14536214D01*
X12648214Y-14550500D01*
X12662500Y-14564786D01*
X12676786Y-14593357D01*
X12691071Y-14650500D01*
X12691071Y-14721929D01*
X12676786Y-14779071D01*
X12662500Y-14807643D01*
X12648214Y-14821929D01*
X12619643Y-14836214D01*
X12591071Y-14836214D01*
X12562500Y-14821929D01*
X12548214Y-14807643D01*
X12533928Y-14779071D01*
X12519643Y-14721929D01*
X12519643Y-14650500D01*
X12533928Y-14593357D01*
X12548214Y-14564786D01*
X12562500Y-14550500D01*
X12591071Y-14536214D01*
X12805357Y-14564786D02*
X12819643Y-14550500D01*
X12848214Y-14536214D01*
X12919643Y-14536214D01*
X12948214Y-14550500D01*
X12962500Y-14564786D01*
X12976786Y-14593357D01*
X12976786Y-14621929D01*
X12962500Y-14664786D01*
X12791071Y-14836214D01*
X12976786Y-14836214D01*
X13233928Y-14536214D02*
X13176786Y-14536214D01*
X13148214Y-14550500D01*
X13133928Y-14564786D01*
X13105357Y-14607643D01*
X13091071Y-14664786D01*
X13091071Y-14779071D01*
X13105357Y-14807643D01*
X13119643Y-14821929D01*
X13148214Y-14836214D01*
X13205357Y-14836214D01*
X13233928Y-14821929D01*
X13248214Y-14807643D01*
X13262500Y-14779071D01*
X13262500Y-14707643D01*
X13248214Y-14679071D01*
X13233928Y-14664786D01*
X13205357Y-14650500D01*
X13148214Y-14650500D01*
X13119643Y-14664786D01*
X13105357Y-14679071D01*
X13091071Y-14707643D01*
X13376786Y-14536214D02*
X13376786Y-14593357D01*
X13491071Y-14536214D02*
X13491071Y-14593357D01*
X13933928Y-14950500D02*
X13919643Y-14936214D01*
X13891071Y-14893357D01*
X13876786Y-14864786D01*
X13862500Y-14821929D01*
X13848214Y-14750500D01*
X13848214Y-14693357D01*
X13862500Y-14621929D01*
X13876786Y-14579071D01*
X13891071Y-14550500D01*
X13919643Y-14507643D01*
X13933928Y-14493357D01*
X14205357Y-14836214D02*
X14033928Y-14836214D01*
X14119643Y-14836214D02*
X14119643Y-14536214D01*
X14091071Y-14579071D01*
X14062500Y-14607643D01*
X14033928Y-14621929D01*
X14391071Y-14536214D02*
X14419643Y-14536214D01*
X14448214Y-14550500D01*
X14462500Y-14564786D01*
X14476786Y-14593357D01*
X14491071Y-14650500D01*
X14491071Y-14721929D01*
X14476786Y-14779071D01*
X14462500Y-14807643D01*
X14448214Y-14821929D01*
X14419643Y-14836214D01*
X14391071Y-14836214D01*
X14362500Y-14821929D01*
X14348214Y-14807643D01*
X14333928Y-14779071D01*
X14319643Y-14721929D01*
X14319643Y-14650500D01*
X14333928Y-14593357D01*
X14348214Y-14564786D01*
X14362500Y-14550500D01*
X14391071Y-14536214D01*
X14848214Y-14836214D02*
X14848214Y-14536214D01*
X14976786Y-14836214D02*
X14976786Y-14679071D01*
X14962500Y-14650500D01*
X14933928Y-14636214D01*
X14891071Y-14636214D01*
X14862500Y-14650500D01*
X14848214Y-14664786D01*
X15162500Y-14836214D02*
X15133928Y-14821929D01*
X15119643Y-14807643D01*
X15105357Y-14779071D01*
X15105357Y-14693357D01*
X15119643Y-14664786D01*
X15133928Y-14650500D01*
X15162500Y-14636214D01*
X15205357Y-14636214D01*
X15233928Y-14650500D01*
X15248214Y-14664786D01*
X15262500Y-14693357D01*
X15262500Y-14779071D01*
X15248214Y-14807643D01*
X15233928Y-14821929D01*
X15205357Y-14836214D01*
X15162500Y-14836214D01*
X15433928Y-14836214D02*
X15405357Y-14821929D01*
X15391071Y-14793357D01*
X15391071Y-14536214D01*
X15662500Y-14821929D02*
X15633928Y-14836214D01*
X15576786Y-14836214D01*
X15548214Y-14821929D01*
X15533928Y-14793357D01*
X15533928Y-14679071D01*
X15548214Y-14650500D01*
X15576786Y-14636214D01*
X15633928Y-14636214D01*
X15662500Y-14650500D01*
X15676786Y-14679071D01*
X15676786Y-14707643D01*
X15533928Y-14736214D01*
X15791071Y-14821929D02*
X15819643Y-14836214D01*
X15876786Y-14836214D01*
X15905357Y-14821929D01*
X15919643Y-14793357D01*
X15919643Y-14779071D01*
X15905357Y-14750500D01*
X15876786Y-14736214D01*
X15833928Y-14736214D01*
X15805357Y-14721929D01*
X15791071Y-14693357D01*
X15791071Y-14679071D01*
X15805357Y-14650500D01*
X15833928Y-14636214D01*
X15876786Y-14636214D01*
X15905357Y-14650500D01*
X16019643Y-14950500D02*
X16033928Y-14936214D01*
X16062500Y-14893357D01*
X16076786Y-14864786D01*
X16091071Y-14821929D01*
X16105357Y-14750500D01*
X16105357Y-14693357D01*
X16091071Y-14621929D01*
X16076786Y-14579071D01*
X16062500Y-14550500D01*
X16033928Y-14507643D01*
X16019643Y-14493357D01*
X9207500Y-15136500D02*
X9247500Y-15096500D01*
X9207500Y-15056500D01*
X9167500Y-15096500D01*
X9207500Y-15136500D01*
X9591071Y-14932214D02*
X9619643Y-14932214D01*
X9648214Y-14946500D01*
X9662500Y-14960786D01*
X9676786Y-14989357D01*
X9691071Y-15046500D01*
X9691071Y-15117929D01*
X9676786Y-15175071D01*
X9662500Y-15203643D01*
X9648214Y-15217929D01*
X9619643Y-15232214D01*
X9591071Y-15232214D01*
X9562500Y-15217929D01*
X9548214Y-15203643D01*
X9533928Y-15175071D01*
X9519643Y-15117929D01*
X9519643Y-15046500D01*
X9533928Y-14989357D01*
X9548214Y-14960786D01*
X9562500Y-14946500D01*
X9591071Y-14932214D01*
X9819643Y-15203643D02*
X9833928Y-15217929D01*
X9819643Y-15232214D01*
X9805357Y-15217929D01*
X9819643Y-15203643D01*
X9819643Y-15232214D01*
X10005357Y-15060786D02*
X9976786Y-15046500D01*
X9962500Y-15032214D01*
X9948214Y-15003643D01*
X9948214Y-14989357D01*
X9962500Y-14960786D01*
X9976786Y-14946500D01*
X10005357Y-14932214D01*
X10062500Y-14932214D01*
X10091071Y-14946500D01*
X10105357Y-14960786D01*
X10119643Y-14989357D01*
X10119643Y-15003643D01*
X10105357Y-15032214D01*
X10091071Y-15046500D01*
X10062500Y-15060786D01*
X10005357Y-15060786D01*
X9976786Y-15075071D01*
X9962500Y-15089357D01*
X9948214Y-15117929D01*
X9948214Y-15175071D01*
X9962500Y-15203643D01*
X9976786Y-15217929D01*
X10005357Y-15232214D01*
X10062500Y-15232214D01*
X10091071Y-15217929D01*
X10105357Y-15203643D01*
X10119643Y-15175071D01*
X10119643Y-15117929D01*
X10105357Y-15089357D01*
X10091071Y-15075071D01*
X10062500Y-15060786D01*
X10305357Y-14932214D02*
X10333928Y-14932214D01*
X10362500Y-14946500D01*
X10376786Y-14960786D01*
X10391071Y-14989357D01*
X10405357Y-15046500D01*
X10405357Y-15117929D01*
X10391071Y-15175071D01*
X10376786Y-15203643D01*
X10362500Y-15217929D01*
X10333928Y-15232214D01*
X10305357Y-15232214D01*
X10276786Y-15217929D01*
X10262500Y-15203643D01*
X10248214Y-15175071D01*
X10233928Y-15117929D01*
X10233928Y-15046500D01*
X10248214Y-14989357D01*
X10262500Y-14960786D01*
X10276786Y-14946500D01*
X10305357Y-14932214D01*
X10533928Y-15232214D02*
X10533928Y-15032214D01*
X10533928Y-15060786D02*
X10548214Y-15046500D01*
X10576786Y-15032214D01*
X10619643Y-15032214D01*
X10648214Y-15046500D01*
X10662500Y-15075071D01*
X10662500Y-15232214D01*
X10662500Y-15075071D02*
X10676786Y-15046500D01*
X10705357Y-15032214D01*
X10748214Y-15032214D01*
X10776786Y-15046500D01*
X10791071Y-15075071D01*
X10791071Y-15232214D01*
X10933928Y-15232214D02*
X10933928Y-15032214D01*
X10933928Y-15060786D02*
X10948214Y-15046500D01*
X10976786Y-15032214D01*
X11019643Y-15032214D01*
X11048214Y-15046500D01*
X11062500Y-15075071D01*
X11062500Y-15232214D01*
X11062500Y-15075071D02*
X11076786Y-15046500D01*
X11105357Y-15032214D01*
X11148214Y-15032214D01*
X11176786Y-15046500D01*
X11191071Y-15075071D01*
X11191071Y-15232214D01*
X11776786Y-14917929D02*
X11519643Y-15303643D01*
X12162500Y-14932214D02*
X12191071Y-14932214D01*
X12219643Y-14946500D01*
X12233928Y-14960786D01*
X12248214Y-14989357D01*
X12262500Y-15046500D01*
X12262500Y-15117929D01*
X12248214Y-15175071D01*
X12233928Y-15203643D01*
X12219643Y-15217929D01*
X12191071Y-15232214D01*
X12162500Y-15232214D01*
X12133928Y-15217929D01*
X12119643Y-15203643D01*
X12105357Y-15175071D01*
X12091071Y-15117929D01*
X12091071Y-15046500D01*
X12105357Y-14989357D01*
X12119643Y-14960786D01*
X12133928Y-14946500D01*
X12162500Y-14932214D01*
X12391071Y-15203643D02*
X12405357Y-15217929D01*
X12391071Y-15232214D01*
X12376786Y-15217929D01*
X12391071Y-15203643D01*
X12391071Y-15232214D01*
X12591071Y-14932214D02*
X12619643Y-14932214D01*
X12648214Y-14946500D01*
X12662500Y-14960786D01*
X12676786Y-14989357D01*
X12691071Y-15046500D01*
X12691071Y-15117929D01*
X12676786Y-15175071D01*
X12662500Y-15203643D01*
X12648214Y-15217929D01*
X12619643Y-15232214D01*
X12591071Y-15232214D01*
X12562500Y-15217929D01*
X12548214Y-15203643D01*
X12533928Y-15175071D01*
X12519643Y-15117929D01*
X12519643Y-15046500D01*
X12533928Y-14989357D01*
X12548214Y-14960786D01*
X12562500Y-14946500D01*
X12591071Y-14932214D01*
X12791071Y-14932214D02*
X12976786Y-14932214D01*
X12876786Y-15046500D01*
X12919643Y-15046500D01*
X12948214Y-15060786D01*
X12962500Y-15075071D01*
X12976786Y-15103643D01*
X12976786Y-15175071D01*
X12962500Y-15203643D01*
X12948214Y-15217929D01*
X12919643Y-15232214D01*
X12833928Y-15232214D01*
X12805357Y-15217929D01*
X12791071Y-15203643D01*
X13262500Y-15232214D02*
X13091071Y-15232214D01*
X13176786Y-15232214D02*
X13176786Y-14932214D01*
X13148214Y-14975071D01*
X13119643Y-15003643D01*
X13091071Y-15017929D01*
X13376786Y-14932214D02*
X13376786Y-14989357D01*
X13491071Y-14932214D02*
X13491071Y-14989357D01*
X13933928Y-15346500D02*
X13919643Y-15332214D01*
X13891071Y-15289357D01*
X13876786Y-15260786D01*
X13862500Y-15217929D01*
X13848214Y-15146500D01*
X13848214Y-15089357D01*
X13862500Y-15017929D01*
X13876786Y-14975071D01*
X13891071Y-14946500D01*
X13919643Y-14903643D01*
X13933928Y-14889357D01*
X14176786Y-15032214D02*
X14176786Y-15232214D01*
X14105357Y-14917929D02*
X14033928Y-15132214D01*
X14219643Y-15132214D01*
X14562500Y-15232214D02*
X14562500Y-14932214D01*
X14691071Y-15232214D02*
X14691071Y-15075071D01*
X14676786Y-15046500D01*
X14648214Y-15032214D01*
X14605357Y-15032214D01*
X14576786Y-15046500D01*
X14562500Y-15060786D01*
X14876786Y-15232214D02*
X14848214Y-15217929D01*
X14833928Y-15203643D01*
X14819643Y-15175071D01*
X14819643Y-15089357D01*
X14833928Y-15060786D01*
X14848214Y-15046500D01*
X14876786Y-15032214D01*
X14919643Y-15032214D01*
X14948214Y-15046500D01*
X14962500Y-15060786D01*
X14976786Y-15089357D01*
X14976786Y-15175071D01*
X14962500Y-15203643D01*
X14948214Y-15217929D01*
X14919643Y-15232214D01*
X14876786Y-15232214D01*
X15148214Y-15232214D02*
X15119643Y-15217929D01*
X15105357Y-15189357D01*
X15105357Y-14932214D01*
X15376786Y-15217929D02*
X15348214Y-15232214D01*
X15291071Y-15232214D01*
X15262500Y-15217929D01*
X15248214Y-15189357D01*
X15248214Y-15075071D01*
X15262500Y-15046500D01*
X15291071Y-15032214D01*
X15348214Y-15032214D01*
X15376786Y-15046500D01*
X15391071Y-15075071D01*
X15391071Y-15103643D01*
X15248214Y-15132214D01*
X15505357Y-15217929D02*
X15533928Y-15232214D01*
X15591071Y-15232214D01*
X15619643Y-15217929D01*
X15633928Y-15189357D01*
X15633928Y-15175071D01*
X15619643Y-15146500D01*
X15591071Y-15132214D01*
X15548214Y-15132214D01*
X15519643Y-15117929D01*
X15505357Y-15089357D01*
X15505357Y-15075071D01*
X15519643Y-15046500D01*
X15548214Y-15032214D01*
X15591071Y-15032214D01*
X15619643Y-15046500D01*
X15733928Y-15346500D02*
X15748214Y-15332214D01*
X15776786Y-15289357D01*
X15791071Y-15260786D01*
X15805357Y-15217929D01*
X15819643Y-15146500D01*
X15819643Y-15089357D01*
X15805357Y-15017929D01*
X15791071Y-14975071D01*
X15776786Y-14946500D01*
X15748214Y-14903643D01*
X15733928Y-14889357D01*
X9152500Y-15445000D02*
X9247500Y-15540000D01*
X9247500Y-15445000D02*
X9152500Y-15540000D01*
X9247500Y-15492500D02*
G75*
G03X9247500Y-15492500I-47500J0D01*
G01*
X9591071Y-15328214D02*
X9619643Y-15328214D01*
X9648214Y-15342500D01*
X9662500Y-15356786D01*
X9676786Y-15385357D01*
X9691071Y-15442500D01*
X9691071Y-15513929D01*
X9676786Y-15571071D01*
X9662500Y-15599643D01*
X9648214Y-15613929D01*
X9619643Y-15628214D01*
X9591071Y-15628214D01*
X9562500Y-15613929D01*
X9548214Y-15599643D01*
X9533928Y-15571071D01*
X9519643Y-15513929D01*
X9519643Y-15442500D01*
X9533928Y-15385357D01*
X9548214Y-15356786D01*
X9562500Y-15342500D01*
X9591071Y-15328214D01*
X9819643Y-15599643D02*
X9833928Y-15613929D01*
X9819643Y-15628214D01*
X9805357Y-15613929D01*
X9819643Y-15599643D01*
X9819643Y-15628214D01*
X9976786Y-15628214D02*
X10033928Y-15628214D01*
X10062500Y-15613929D01*
X10076786Y-15599643D01*
X10105357Y-15556786D01*
X10119643Y-15499643D01*
X10119643Y-15385357D01*
X10105357Y-15356786D01*
X10091071Y-15342500D01*
X10062500Y-15328214D01*
X10005357Y-15328214D01*
X9976786Y-15342500D01*
X9962500Y-15356786D01*
X9948214Y-15385357D01*
X9948214Y-15456786D01*
X9962500Y-15485357D01*
X9976786Y-15499643D01*
X10005357Y-15513929D01*
X10062500Y-15513929D01*
X10091071Y-15499643D01*
X10105357Y-15485357D01*
X10119643Y-15456786D01*
X10391071Y-15328214D02*
X10248214Y-15328214D01*
X10233928Y-15471071D01*
X10248214Y-15456786D01*
X10276786Y-15442500D01*
X10348214Y-15442500D01*
X10376786Y-15456786D01*
X10391071Y-15471071D01*
X10405357Y-15499643D01*
X10405357Y-15571071D01*
X10391071Y-15599643D01*
X10376786Y-15613929D01*
X10348214Y-15628214D01*
X10276786Y-15628214D01*
X10248214Y-15613929D01*
X10233928Y-15599643D01*
X10533928Y-15628214D02*
X10533928Y-15428214D01*
X10533928Y-15456786D02*
X10548214Y-15442500D01*
X10576786Y-15428214D01*
X10619643Y-15428214D01*
X10648214Y-15442500D01*
X10662500Y-15471071D01*
X10662500Y-15628214D01*
X10662500Y-15471071D02*
X10676786Y-15442500D01*
X10705357Y-15428214D01*
X10748214Y-15428214D01*
X10776786Y-15442500D01*
X10791071Y-15471071D01*
X10791071Y-15628214D01*
X10933928Y-15628214D02*
X10933928Y-15428214D01*
X10933928Y-15456786D02*
X10948214Y-15442500D01*
X10976786Y-15428214D01*
X11019643Y-15428214D01*
X11048214Y-15442500D01*
X11062500Y-15471071D01*
X11062500Y-15628214D01*
X11062500Y-15471071D02*
X11076786Y-15442500D01*
X11105357Y-15428214D01*
X11148214Y-15428214D01*
X11176786Y-15442500D01*
X11191071Y-15471071D01*
X11191071Y-15628214D01*
X11776786Y-15313929D02*
X11519643Y-15699643D01*
X12162500Y-15328214D02*
X12191071Y-15328214D01*
X12219643Y-15342500D01*
X12233928Y-15356786D01*
X12248214Y-15385357D01*
X12262500Y-15442500D01*
X12262500Y-15513929D01*
X12248214Y-15571071D01*
X12233928Y-15599643D01*
X12219643Y-15613929D01*
X12191071Y-15628214D01*
X12162500Y-15628214D01*
X12133928Y-15613929D01*
X12119643Y-15599643D01*
X12105357Y-15571071D01*
X12091071Y-15513929D01*
X12091071Y-15442500D01*
X12105357Y-15385357D01*
X12119643Y-15356786D01*
X12133928Y-15342500D01*
X12162500Y-15328214D01*
X12391071Y-15599643D02*
X12405357Y-15613929D01*
X12391071Y-15628214D01*
X12376786Y-15613929D01*
X12391071Y-15599643D01*
X12391071Y-15628214D01*
X12591071Y-15328214D02*
X12619643Y-15328214D01*
X12648214Y-15342500D01*
X12662500Y-15356786D01*
X12676786Y-15385357D01*
X12691071Y-15442500D01*
X12691071Y-15513929D01*
X12676786Y-15571071D01*
X12662500Y-15599643D01*
X12648214Y-15613929D01*
X12619643Y-15628214D01*
X12591071Y-15628214D01*
X12562500Y-15613929D01*
X12548214Y-15599643D01*
X12533928Y-15571071D01*
X12519643Y-15513929D01*
X12519643Y-15442500D01*
X12533928Y-15385357D01*
X12548214Y-15356786D01*
X12562500Y-15342500D01*
X12591071Y-15328214D01*
X12791071Y-15328214D02*
X12976786Y-15328214D01*
X12876786Y-15442500D01*
X12919643Y-15442500D01*
X12948214Y-15456786D01*
X12962500Y-15471071D01*
X12976786Y-15499643D01*
X12976786Y-15571071D01*
X12962500Y-15599643D01*
X12948214Y-15613929D01*
X12919643Y-15628214D01*
X12833928Y-15628214D01*
X12805357Y-15613929D01*
X12791071Y-15599643D01*
X13076786Y-15328214D02*
X13276786Y-15328214D01*
X13148214Y-15628214D01*
X13376786Y-15328214D02*
X13376786Y-15385357D01*
X13491071Y-15328214D02*
X13491071Y-15385357D01*
X13933928Y-15742500D02*
X13919643Y-15728214D01*
X13891071Y-15685357D01*
X13876786Y-15656786D01*
X13862500Y-15613929D01*
X13848214Y-15542500D01*
X13848214Y-15485357D01*
X13862500Y-15413929D01*
X13876786Y-15371071D01*
X13891071Y-15342500D01*
X13919643Y-15299643D01*
X13933928Y-15285357D01*
X14019643Y-15328214D02*
X14205357Y-15328214D01*
X14105357Y-15442500D01*
X14148214Y-15442500D01*
X14176786Y-15456786D01*
X14191071Y-15471071D01*
X14205357Y-15499643D01*
X14205357Y-15571071D01*
X14191071Y-15599643D01*
X14176786Y-15613929D01*
X14148214Y-15628214D01*
X14062500Y-15628214D01*
X14033928Y-15613929D01*
X14019643Y-15599643D01*
X14562500Y-15628214D02*
X14562500Y-15328214D01*
X14691071Y-15628214D02*
X14691071Y-15471071D01*
X14676786Y-15442500D01*
X14648214Y-15428214D01*
X14605357Y-15428214D01*
X14576786Y-15442500D01*
X14562500Y-15456786D01*
X14876786Y-15628214D02*
X14848214Y-15613929D01*
X14833928Y-15599643D01*
X14819643Y-15571071D01*
X14819643Y-15485357D01*
X14833928Y-15456786D01*
X14848214Y-15442500D01*
X14876786Y-15428214D01*
X14919643Y-15428214D01*
X14948214Y-15442500D01*
X14962500Y-15456786D01*
X14976786Y-15485357D01*
X14976786Y-15571071D01*
X14962500Y-15599643D01*
X14948214Y-15613929D01*
X14919643Y-15628214D01*
X14876786Y-15628214D01*
X15148214Y-15628214D02*
X15119643Y-15613929D01*
X15105357Y-15585357D01*
X15105357Y-15328214D01*
X15376786Y-15613929D02*
X15348214Y-15628214D01*
X15291071Y-15628214D01*
X15262500Y-15613929D01*
X15248214Y-15585357D01*
X15248214Y-15471071D01*
X15262500Y-15442500D01*
X15291071Y-15428214D01*
X15348214Y-15428214D01*
X15376786Y-15442500D01*
X15391071Y-15471071D01*
X15391071Y-15499643D01*
X15248214Y-15528214D01*
X15505357Y-15613929D02*
X15533928Y-15628214D01*
X15591071Y-15628214D01*
X15619643Y-15613929D01*
X15633928Y-15585357D01*
X15633928Y-15571071D01*
X15619643Y-15542500D01*
X15591071Y-15528214D01*
X15548214Y-15528214D01*
X15519643Y-15513929D01*
X15505357Y-15485357D01*
X15505357Y-15471071D01*
X15519643Y-15442500D01*
X15548214Y-15428214D01*
X15591071Y-15428214D01*
X15619643Y-15442500D01*
X15733928Y-15742500D02*
X15748214Y-15728214D01*
X15776786Y-15685357D01*
X15791071Y-15656786D01*
X15805357Y-15613929D01*
X15819643Y-15542500D01*
X15819643Y-15485357D01*
X15805357Y-15413929D01*
X15791071Y-15371071D01*
X15776786Y-15342500D01*
X15748214Y-15299643D01*
X15733928Y-15285357D01*
X9147500Y-15838500D02*
X9247500Y-15938500D01*
X9247500Y-15838500D02*
X9147500Y-15938500D01*
X9197500Y-15838500D02*
X9197500Y-15938500D01*
X9147500Y-15888500D02*
X9247500Y-15888500D01*
X9691071Y-16024214D02*
X9519643Y-16024214D01*
X9605357Y-16024214D02*
X9605357Y-15724214D01*
X9576786Y-15767071D01*
X9548214Y-15795643D01*
X9519643Y-15809929D01*
X9819643Y-15995643D02*
X9833928Y-16009929D01*
X9819643Y-16024214D01*
X9805357Y-16009929D01*
X9819643Y-15995643D01*
X9819643Y-16024214D01*
X10019643Y-15724214D02*
X10048214Y-15724214D01*
X10076786Y-15738500D01*
X10091071Y-15752786D01*
X10105357Y-15781357D01*
X10119643Y-15838500D01*
X10119643Y-15909929D01*
X10105357Y-15967071D01*
X10091071Y-15995643D01*
X10076786Y-16009929D01*
X10048214Y-16024214D01*
X10019643Y-16024214D01*
X9991071Y-16009929D01*
X9976786Y-15995643D01*
X9962500Y-15967071D01*
X9948214Y-15909929D01*
X9948214Y-15838500D01*
X9962500Y-15781357D01*
X9976786Y-15752786D01*
X9991071Y-15738500D01*
X10019643Y-15724214D01*
X10305357Y-15724214D02*
X10333928Y-15724214D01*
X10362500Y-15738500D01*
X10376786Y-15752786D01*
X10391071Y-15781357D01*
X10405357Y-15838500D01*
X10405357Y-15909929D01*
X10391071Y-15967071D01*
X10376786Y-15995643D01*
X10362500Y-16009929D01*
X10333928Y-16024214D01*
X10305357Y-16024214D01*
X10276786Y-16009929D01*
X10262500Y-15995643D01*
X10248214Y-15967071D01*
X10233928Y-15909929D01*
X10233928Y-15838500D01*
X10248214Y-15781357D01*
X10262500Y-15752786D01*
X10276786Y-15738500D01*
X10305357Y-15724214D01*
X10533928Y-16024214D02*
X10533928Y-15824214D01*
X10533928Y-15852786D02*
X10548214Y-15838500D01*
X10576786Y-15824214D01*
X10619643Y-15824214D01*
X10648214Y-15838500D01*
X10662500Y-15867071D01*
X10662500Y-16024214D01*
X10662500Y-15867071D02*
X10676786Y-15838500D01*
X10705357Y-15824214D01*
X10748214Y-15824214D01*
X10776786Y-15838500D01*
X10791071Y-15867071D01*
X10791071Y-16024214D01*
X10933928Y-16024214D02*
X10933928Y-15824214D01*
X10933928Y-15852786D02*
X10948214Y-15838500D01*
X10976786Y-15824214D01*
X11019643Y-15824214D01*
X11048214Y-15838500D01*
X11062500Y-15867071D01*
X11062500Y-16024214D01*
X11062500Y-15867071D02*
X11076786Y-15838500D01*
X11105357Y-15824214D01*
X11148214Y-15824214D01*
X11176786Y-15838500D01*
X11191071Y-15867071D01*
X11191071Y-16024214D01*
X11776786Y-15709929D02*
X11519643Y-16095643D01*
X12162500Y-15724214D02*
X12191071Y-15724214D01*
X12219643Y-15738500D01*
X12233928Y-15752786D01*
X12248214Y-15781357D01*
X12262500Y-15838500D01*
X12262500Y-15909929D01*
X12248214Y-15967071D01*
X12233928Y-15995643D01*
X12219643Y-16009929D01*
X12191071Y-16024214D01*
X12162500Y-16024214D01*
X12133928Y-16009929D01*
X12119643Y-15995643D01*
X12105357Y-15967071D01*
X12091071Y-15909929D01*
X12091071Y-15838500D01*
X12105357Y-15781357D01*
X12119643Y-15752786D01*
X12133928Y-15738500D01*
X12162500Y-15724214D01*
X12391071Y-15995643D02*
X12405357Y-16009929D01*
X12391071Y-16024214D01*
X12376786Y-16009929D01*
X12391071Y-15995643D01*
X12391071Y-16024214D01*
X12591071Y-15724214D02*
X12619643Y-15724214D01*
X12648214Y-15738500D01*
X12662500Y-15752786D01*
X12676786Y-15781357D01*
X12691071Y-15838500D01*
X12691071Y-15909929D01*
X12676786Y-15967071D01*
X12662500Y-15995643D01*
X12648214Y-16009929D01*
X12619643Y-16024214D01*
X12591071Y-16024214D01*
X12562500Y-16009929D01*
X12548214Y-15995643D01*
X12533928Y-15967071D01*
X12519643Y-15909929D01*
X12519643Y-15838500D01*
X12533928Y-15781357D01*
X12548214Y-15752786D01*
X12562500Y-15738500D01*
X12591071Y-15724214D01*
X12791071Y-15724214D02*
X12976786Y-15724214D01*
X12876786Y-15838500D01*
X12919643Y-15838500D01*
X12948214Y-15852786D01*
X12962500Y-15867071D01*
X12976786Y-15895643D01*
X12976786Y-15967071D01*
X12962500Y-15995643D01*
X12948214Y-16009929D01*
X12919643Y-16024214D01*
X12833928Y-16024214D01*
X12805357Y-16009929D01*
X12791071Y-15995643D01*
X13119643Y-16024214D02*
X13176786Y-16024214D01*
X13205357Y-16009929D01*
X13219643Y-15995643D01*
X13248214Y-15952786D01*
X13262500Y-15895643D01*
X13262500Y-15781357D01*
X13248214Y-15752786D01*
X13233928Y-15738500D01*
X13205357Y-15724214D01*
X13148214Y-15724214D01*
X13119643Y-15738500D01*
X13105357Y-15752786D01*
X13091071Y-15781357D01*
X13091071Y-15852786D01*
X13105357Y-15881357D01*
X13119643Y-15895643D01*
X13148214Y-15909929D01*
X13205357Y-15909929D01*
X13233928Y-15895643D01*
X13248214Y-15881357D01*
X13262500Y-15852786D01*
X13376786Y-15724214D02*
X13376786Y-15781357D01*
X13491071Y-15724214D02*
X13491071Y-15781357D01*
X13933928Y-16138500D02*
X13919643Y-16124214D01*
X13891071Y-16081357D01*
X13876786Y-16052786D01*
X13862500Y-16009929D01*
X13848214Y-15938500D01*
X13848214Y-15881357D01*
X13862500Y-15809929D01*
X13876786Y-15767071D01*
X13891071Y-15738500D01*
X13919643Y-15695643D01*
X13933928Y-15681357D01*
X14205357Y-16024214D02*
X14033928Y-16024214D01*
X14119643Y-16024214D02*
X14119643Y-15724214D01*
X14091071Y-15767071D01*
X14062500Y-15795643D01*
X14033928Y-15809929D01*
X14391071Y-15724214D02*
X14419643Y-15724214D01*
X14448214Y-15738500D01*
X14462500Y-15752786D01*
X14476786Y-15781357D01*
X14491071Y-15838500D01*
X14491071Y-15909929D01*
X14476786Y-15967071D01*
X14462500Y-15995643D01*
X14448214Y-16009929D01*
X14419643Y-16024214D01*
X14391071Y-16024214D01*
X14362500Y-16009929D01*
X14348214Y-15995643D01*
X14333928Y-15967071D01*
X14319643Y-15909929D01*
X14319643Y-15838500D01*
X14333928Y-15781357D01*
X14348214Y-15752786D01*
X14362500Y-15738500D01*
X14391071Y-15724214D01*
X14848214Y-16024214D02*
X14848214Y-15724214D01*
X14976786Y-16024214D02*
X14976786Y-15867071D01*
X14962500Y-15838500D01*
X14933928Y-15824214D01*
X14891071Y-15824214D01*
X14862500Y-15838500D01*
X14848214Y-15852786D01*
X15162500Y-16024214D02*
X15133928Y-16009929D01*
X15119643Y-15995643D01*
X15105357Y-15967071D01*
X15105357Y-15881357D01*
X15119643Y-15852786D01*
X15133928Y-15838500D01*
X15162500Y-15824214D01*
X15205357Y-15824214D01*
X15233928Y-15838500D01*
X15248214Y-15852786D01*
X15262500Y-15881357D01*
X15262500Y-15967071D01*
X15248214Y-15995643D01*
X15233928Y-16009929D01*
X15205357Y-16024214D01*
X15162500Y-16024214D01*
X15433928Y-16024214D02*
X15405357Y-16009929D01*
X15391071Y-15981357D01*
X15391071Y-15724214D01*
X15662500Y-16009929D02*
X15633928Y-16024214D01*
X15576786Y-16024214D01*
X15548214Y-16009929D01*
X15533928Y-15981357D01*
X15533928Y-15867071D01*
X15548214Y-15838500D01*
X15576786Y-15824214D01*
X15633928Y-15824214D01*
X15662500Y-15838500D01*
X15676786Y-15867071D01*
X15676786Y-15895643D01*
X15533928Y-15924214D01*
X15791071Y-16009929D02*
X15819643Y-16024214D01*
X15876786Y-16024214D01*
X15905357Y-16009929D01*
X15919643Y-15981357D01*
X15919643Y-15967071D01*
X15905357Y-15938500D01*
X15876786Y-15924214D01*
X15833928Y-15924214D01*
X15805357Y-15909929D01*
X15791071Y-15881357D01*
X15791071Y-15867071D01*
X15805357Y-15838500D01*
X15833928Y-15824214D01*
X15876786Y-15824214D01*
X15905357Y-15838500D01*
X16019643Y-16138500D02*
X16033928Y-16124214D01*
X16062500Y-16081357D01*
X16076786Y-16052786D01*
X16091071Y-16009929D01*
X16105357Y-15938500D01*
X16105357Y-15881357D01*
X16091071Y-15809929D01*
X16076786Y-15767071D01*
X16062500Y-15738500D01*
X16033928Y-15695643D01*
X16019643Y-15681357D01*
X9127500Y-16224500D02*
X9247500Y-16344500D01*
X9247500Y-16224500D02*
X9127500Y-16344500D01*
X9229927Y-16326927D02*
X9229927Y-16242073D01*
X9145073Y-16242073D01*
X9145073Y-16326927D01*
X9229927Y-16326927D01*
X9691071Y-16420214D02*
X9519643Y-16420214D01*
X9605357Y-16420214D02*
X9605357Y-16120214D01*
X9576786Y-16163071D01*
X9548214Y-16191643D01*
X9519643Y-16205929D01*
X9819643Y-16391643D02*
X9833928Y-16405929D01*
X9819643Y-16420214D01*
X9805357Y-16405929D01*
X9819643Y-16391643D01*
X9819643Y-16420214D01*
X9948214Y-16148786D02*
X9962500Y-16134500D01*
X9991071Y-16120214D01*
X10062500Y-16120214D01*
X10091071Y-16134500D01*
X10105357Y-16148786D01*
X10119643Y-16177357D01*
X10119643Y-16205929D01*
X10105357Y-16248786D01*
X9933928Y-16420214D01*
X10119643Y-16420214D01*
X10305357Y-16120214D02*
X10333928Y-16120214D01*
X10362500Y-16134500D01*
X10376786Y-16148786D01*
X10391071Y-16177357D01*
X10405357Y-16234500D01*
X10405357Y-16305929D01*
X10391071Y-16363071D01*
X10376786Y-16391643D01*
X10362500Y-16405929D01*
X10333928Y-16420214D01*
X10305357Y-16420214D01*
X10276786Y-16405929D01*
X10262500Y-16391643D01*
X10248214Y-16363071D01*
X10233928Y-16305929D01*
X10233928Y-16234500D01*
X10248214Y-16177357D01*
X10262500Y-16148786D01*
X10276786Y-16134500D01*
X10305357Y-16120214D01*
X10533928Y-16420214D02*
X10533928Y-16220214D01*
X10533928Y-16248786D02*
X10548214Y-16234500D01*
X10576786Y-16220214D01*
X10619643Y-16220214D01*
X10648214Y-16234500D01*
X10662500Y-16263071D01*
X10662500Y-16420214D01*
X10662500Y-16263071D02*
X10676786Y-16234500D01*
X10705357Y-16220214D01*
X10748214Y-16220214D01*
X10776786Y-16234500D01*
X10791071Y-16263071D01*
X10791071Y-16420214D01*
X10933928Y-16420214D02*
X10933928Y-16220214D01*
X10933928Y-16248786D02*
X10948214Y-16234500D01*
X10976786Y-16220214D01*
X11019643Y-16220214D01*
X11048214Y-16234500D01*
X11062500Y-16263071D01*
X11062500Y-16420214D01*
X11062500Y-16263071D02*
X11076786Y-16234500D01*
X11105357Y-16220214D01*
X11148214Y-16220214D01*
X11176786Y-16234500D01*
X11191071Y-16263071D01*
X11191071Y-16420214D01*
X11776786Y-16105929D02*
X11519643Y-16491643D01*
X12162500Y-16120214D02*
X12191071Y-16120214D01*
X12219643Y-16134500D01*
X12233928Y-16148786D01*
X12248214Y-16177357D01*
X12262500Y-16234500D01*
X12262500Y-16305929D01*
X12248214Y-16363071D01*
X12233928Y-16391643D01*
X12219643Y-16405929D01*
X12191071Y-16420214D01*
X12162500Y-16420214D01*
X12133928Y-16405929D01*
X12119643Y-16391643D01*
X12105357Y-16363071D01*
X12091071Y-16305929D01*
X12091071Y-16234500D01*
X12105357Y-16177357D01*
X12119643Y-16148786D01*
X12133928Y-16134500D01*
X12162500Y-16120214D01*
X12391071Y-16391643D02*
X12405357Y-16405929D01*
X12391071Y-16420214D01*
X12376786Y-16405929D01*
X12391071Y-16391643D01*
X12391071Y-16420214D01*
X12591071Y-16120214D02*
X12619643Y-16120214D01*
X12648214Y-16134500D01*
X12662500Y-16148786D01*
X12676786Y-16177357D01*
X12691071Y-16234500D01*
X12691071Y-16305929D01*
X12676786Y-16363071D01*
X12662500Y-16391643D01*
X12648214Y-16405929D01*
X12619643Y-16420214D01*
X12591071Y-16420214D01*
X12562500Y-16405929D01*
X12548214Y-16391643D01*
X12533928Y-16363071D01*
X12519643Y-16305929D01*
X12519643Y-16234500D01*
X12533928Y-16177357D01*
X12548214Y-16148786D01*
X12562500Y-16134500D01*
X12591071Y-16120214D01*
X12948214Y-16220214D02*
X12948214Y-16420214D01*
X12876786Y-16105929D02*
X12805357Y-16320214D01*
X12991071Y-16320214D01*
X13076786Y-16120214D02*
X13276786Y-16120214D01*
X13148214Y-16420214D01*
X13376786Y-16120214D02*
X13376786Y-16177357D01*
X13491071Y-16120214D02*
X13491071Y-16177357D01*
X13933928Y-16534500D02*
X13919643Y-16520214D01*
X13891071Y-16477357D01*
X13876786Y-16448786D01*
X13862500Y-16405929D01*
X13848214Y-16334500D01*
X13848214Y-16277357D01*
X13862500Y-16205929D01*
X13876786Y-16163071D01*
X13891071Y-16134500D01*
X13919643Y-16091643D01*
X13933928Y-16077357D01*
X14176786Y-16220214D02*
X14176786Y-16420214D01*
X14105357Y-16105929D02*
X14033928Y-16320214D01*
X14219643Y-16320214D01*
X14562500Y-16420214D02*
X14562500Y-16120214D01*
X14691071Y-16420214D02*
X14691071Y-16263071D01*
X14676786Y-16234500D01*
X14648214Y-16220214D01*
X14605357Y-16220214D01*
X14576786Y-16234500D01*
X14562500Y-16248786D01*
X14876786Y-16420214D02*
X14848214Y-16405929D01*
X14833928Y-16391643D01*
X14819643Y-16363071D01*
X14819643Y-16277357D01*
X14833928Y-16248786D01*
X14848214Y-16234500D01*
X14876786Y-16220214D01*
X14919643Y-16220214D01*
X14948214Y-16234500D01*
X14962500Y-16248786D01*
X14976786Y-16277357D01*
X14976786Y-16363071D01*
X14962500Y-16391643D01*
X14948214Y-16405929D01*
X14919643Y-16420214D01*
X14876786Y-16420214D01*
X15148214Y-16420214D02*
X15119643Y-16405929D01*
X15105357Y-16377357D01*
X15105357Y-16120214D01*
X15376786Y-16405929D02*
X15348214Y-16420214D01*
X15291071Y-16420214D01*
X15262500Y-16405929D01*
X15248214Y-16377357D01*
X15248214Y-16263071D01*
X15262500Y-16234500D01*
X15291071Y-16220214D01*
X15348214Y-16220214D01*
X15376786Y-16234500D01*
X15391071Y-16263071D01*
X15391071Y-16291643D01*
X15248214Y-16320214D01*
X15505357Y-16405929D02*
X15533928Y-16420214D01*
X15591071Y-16420214D01*
X15619643Y-16405929D01*
X15633928Y-16377357D01*
X15633928Y-16363071D01*
X15619643Y-16334500D01*
X15591071Y-16320214D01*
X15548214Y-16320214D01*
X15519643Y-16305929D01*
X15505357Y-16277357D01*
X15505357Y-16263071D01*
X15519643Y-16234500D01*
X15548214Y-16220214D01*
X15591071Y-16220214D01*
X15619643Y-16234500D01*
X15733928Y-16534500D02*
X15748214Y-16520214D01*
X15776786Y-16477357D01*
X15791071Y-16448786D01*
X15805357Y-16405929D01*
X15819643Y-16334500D01*
X15819643Y-16277357D01*
X15805357Y-16205929D01*
X15791071Y-16163071D01*
X15776786Y-16134500D01*
X15748214Y-16091643D01*
X15733928Y-16077357D01*
X9095500Y-16604500D02*
X9247500Y-16756500D01*
X9247500Y-16604500D02*
X9095500Y-16756500D01*
X9171500Y-16756500D02*
X9247500Y-16680500D01*
X9171500Y-16604500D01*
X9095500Y-16680500D01*
X9171500Y-16756500D01*
X9691071Y-16816214D02*
X9519643Y-16816214D01*
X9605357Y-16816214D02*
X9605357Y-16516214D01*
X9576786Y-16559071D01*
X9548214Y-16587643D01*
X9519643Y-16601929D01*
X9819643Y-16787643D02*
X9833928Y-16801929D01*
X9819643Y-16816214D01*
X9805357Y-16801929D01*
X9819643Y-16787643D01*
X9819643Y-16816214D01*
X10105357Y-16516214D02*
X9962500Y-16516214D01*
X9948214Y-16659071D01*
X9962500Y-16644786D01*
X9991071Y-16630500D01*
X10062500Y-16630500D01*
X10091071Y-16644786D01*
X10105357Y-16659071D01*
X10119643Y-16687643D01*
X10119643Y-16759071D01*
X10105357Y-16787643D01*
X10091071Y-16801929D01*
X10062500Y-16816214D01*
X9991071Y-16816214D01*
X9962500Y-16801929D01*
X9948214Y-16787643D01*
X10233928Y-16544786D02*
X10248214Y-16530500D01*
X10276786Y-16516214D01*
X10348214Y-16516214D01*
X10376786Y-16530500D01*
X10391071Y-16544786D01*
X10405357Y-16573357D01*
X10405357Y-16601929D01*
X10391071Y-16644786D01*
X10219643Y-16816214D01*
X10405357Y-16816214D01*
X10533928Y-16816214D02*
X10533928Y-16616214D01*
X10533928Y-16644786D02*
X10548214Y-16630500D01*
X10576786Y-16616214D01*
X10619643Y-16616214D01*
X10648214Y-16630500D01*
X10662500Y-16659071D01*
X10662500Y-16816214D01*
X10662500Y-16659071D02*
X10676786Y-16630500D01*
X10705357Y-16616214D01*
X10748214Y-16616214D01*
X10776786Y-16630500D01*
X10791071Y-16659071D01*
X10791071Y-16816214D01*
X10933928Y-16816214D02*
X10933928Y-16616214D01*
X10933928Y-16644786D02*
X10948214Y-16630500D01*
X10976786Y-16616214D01*
X11019643Y-16616214D01*
X11048214Y-16630500D01*
X11062500Y-16659071D01*
X11062500Y-16816214D01*
X11062500Y-16659071D02*
X11076786Y-16630500D01*
X11105357Y-16616214D01*
X11148214Y-16616214D01*
X11176786Y-16630500D01*
X11191071Y-16659071D01*
X11191071Y-16816214D01*
X11776786Y-16501929D02*
X11519643Y-16887643D01*
X12162500Y-16516214D02*
X12191071Y-16516214D01*
X12219643Y-16530500D01*
X12233928Y-16544786D01*
X12248214Y-16573357D01*
X12262500Y-16630500D01*
X12262500Y-16701929D01*
X12248214Y-16759071D01*
X12233928Y-16787643D01*
X12219643Y-16801929D01*
X12191071Y-16816214D01*
X12162500Y-16816214D01*
X12133928Y-16801929D01*
X12119643Y-16787643D01*
X12105357Y-16759071D01*
X12091071Y-16701929D01*
X12091071Y-16630500D01*
X12105357Y-16573357D01*
X12119643Y-16544786D01*
X12133928Y-16530500D01*
X12162500Y-16516214D01*
X12391071Y-16787643D02*
X12405357Y-16801929D01*
X12391071Y-16816214D01*
X12376786Y-16801929D01*
X12391071Y-16787643D01*
X12391071Y-16816214D01*
X12591071Y-16516214D02*
X12619643Y-16516214D01*
X12648214Y-16530500D01*
X12662500Y-16544786D01*
X12676786Y-16573357D01*
X12691071Y-16630500D01*
X12691071Y-16701929D01*
X12676786Y-16759071D01*
X12662500Y-16787643D01*
X12648214Y-16801929D01*
X12619643Y-16816214D01*
X12591071Y-16816214D01*
X12562500Y-16801929D01*
X12548214Y-16787643D01*
X12533928Y-16759071D01*
X12519643Y-16701929D01*
X12519643Y-16630500D01*
X12533928Y-16573357D01*
X12548214Y-16544786D01*
X12562500Y-16530500D01*
X12591071Y-16516214D01*
X12948214Y-16516214D02*
X12891071Y-16516214D01*
X12862500Y-16530500D01*
X12848214Y-16544786D01*
X12819643Y-16587643D01*
X12805357Y-16644786D01*
X12805357Y-16759071D01*
X12819643Y-16787643D01*
X12833928Y-16801929D01*
X12862500Y-16816214D01*
X12919643Y-16816214D01*
X12948214Y-16801929D01*
X12962500Y-16787643D01*
X12976786Y-16759071D01*
X12976786Y-16687643D01*
X12962500Y-16659071D01*
X12948214Y-16644786D01*
X12919643Y-16630500D01*
X12862500Y-16630500D01*
X12833928Y-16644786D01*
X12819643Y-16659071D01*
X12805357Y-16687643D01*
X13162500Y-16516214D02*
X13191071Y-16516214D01*
X13219643Y-16530500D01*
X13233928Y-16544786D01*
X13248214Y-16573357D01*
X13262500Y-16630500D01*
X13262500Y-16701929D01*
X13248214Y-16759071D01*
X13233928Y-16787643D01*
X13219643Y-16801929D01*
X13191071Y-16816214D01*
X13162500Y-16816214D01*
X13133928Y-16801929D01*
X13119643Y-16787643D01*
X13105357Y-16759071D01*
X13091071Y-16701929D01*
X13091071Y-16630500D01*
X13105357Y-16573357D01*
X13119643Y-16544786D01*
X13133928Y-16530500D01*
X13162500Y-16516214D01*
X13376786Y-16516214D02*
X13376786Y-16573357D01*
X13491071Y-16516214D02*
X13491071Y-16573357D01*
X13933928Y-16930500D02*
X13919643Y-16916214D01*
X13891071Y-16873357D01*
X13876786Y-16844786D01*
X13862500Y-16801929D01*
X13848214Y-16730500D01*
X13848214Y-16673357D01*
X13862500Y-16601929D01*
X13876786Y-16559071D01*
X13891071Y-16530500D01*
X13919643Y-16487643D01*
X13933928Y-16473357D01*
X14176786Y-16616214D02*
X14176786Y-16816214D01*
X14105357Y-16501929D02*
X14033928Y-16716214D01*
X14219643Y-16716214D01*
X14562500Y-16816214D02*
X14562500Y-16516214D01*
X14691071Y-16816214D02*
X14691071Y-16659071D01*
X14676786Y-16630500D01*
X14648214Y-16616214D01*
X14605357Y-16616214D01*
X14576786Y-16630500D01*
X14562500Y-16644786D01*
X14876786Y-16816214D02*
X14848214Y-16801929D01*
X14833928Y-16787643D01*
X14819643Y-16759071D01*
X14819643Y-16673357D01*
X14833928Y-16644786D01*
X14848214Y-16630500D01*
X14876786Y-16616214D01*
X14919643Y-16616214D01*
X14948214Y-16630500D01*
X14962500Y-16644786D01*
X14976786Y-16673357D01*
X14976786Y-16759071D01*
X14962500Y-16787643D01*
X14948214Y-16801929D01*
X14919643Y-16816214D01*
X14876786Y-16816214D01*
X15148214Y-16816214D02*
X15119643Y-16801929D01*
X15105357Y-16773357D01*
X15105357Y-16516214D01*
X15376786Y-16801929D02*
X15348214Y-16816214D01*
X15291071Y-16816214D01*
X15262500Y-16801929D01*
X15248214Y-16773357D01*
X15248214Y-16659071D01*
X15262500Y-16630500D01*
X15291071Y-16616214D01*
X15348214Y-16616214D01*
X15376786Y-16630500D01*
X15391071Y-16659071D01*
X15391071Y-16687643D01*
X15248214Y-16716214D01*
X15505357Y-16801929D02*
X15533928Y-16816214D01*
X15591071Y-16816214D01*
X15619643Y-16801929D01*
X15633928Y-16773357D01*
X15633928Y-16759071D01*
X15619643Y-16730500D01*
X15591071Y-16716214D01*
X15548214Y-16716214D01*
X15519643Y-16701929D01*
X15505357Y-16673357D01*
X15505357Y-16659071D01*
X15519643Y-16630500D01*
X15548214Y-16616214D01*
X15591071Y-16616214D01*
X15619643Y-16630500D01*
X15733928Y-16930500D02*
X15748214Y-16916214D01*
X15776786Y-16873357D01*
X15791071Y-16844786D01*
X15805357Y-16801929D01*
X15819643Y-16730500D01*
X15819643Y-16673357D01*
X15805357Y-16601929D01*
X15791071Y-16559071D01*
X15776786Y-16530500D01*
X15748214Y-16487643D01*
X15733928Y-16473357D01*
X9087500Y-16916500D02*
X9087500Y-17236500D01*
X8927500Y-17076500D02*
X9247500Y-17076500D01*
X9247500Y-17076500D02*
G75*
G03X9247500Y-17076500I-160000J0D01*
G01*
X9505357Y-16912214D02*
X9691071Y-16912214D01*
X9591071Y-17026500D01*
X9633928Y-17026500D01*
X9662500Y-17040786D01*
X9676786Y-17055072D01*
X9691071Y-17083643D01*
X9691071Y-17155072D01*
X9676786Y-17183643D01*
X9662500Y-17197929D01*
X9633928Y-17212214D01*
X9548214Y-17212214D01*
X9519643Y-17197929D01*
X9505357Y-17183643D01*
X9819643Y-17183643D02*
X9833928Y-17197929D01*
X9819643Y-17212214D01*
X9805357Y-17197929D01*
X9819643Y-17183643D01*
X9819643Y-17212214D01*
X9948214Y-16940786D02*
X9962500Y-16926500D01*
X9991071Y-16912214D01*
X10062500Y-16912214D01*
X10091071Y-16926500D01*
X10105357Y-16940786D01*
X10119643Y-16969357D01*
X10119643Y-16997929D01*
X10105357Y-17040786D01*
X9933928Y-17212214D01*
X10119643Y-17212214D01*
X10305357Y-16912214D02*
X10333928Y-16912214D01*
X10362500Y-16926500D01*
X10376786Y-16940786D01*
X10391071Y-16969357D01*
X10405357Y-17026500D01*
X10405357Y-17097929D01*
X10391071Y-17155072D01*
X10376786Y-17183643D01*
X10362500Y-17197929D01*
X10333928Y-17212214D01*
X10305357Y-17212214D01*
X10276786Y-17197929D01*
X10262500Y-17183643D01*
X10248214Y-17155072D01*
X10233928Y-17097929D01*
X10233928Y-17026500D01*
X10248214Y-16969357D01*
X10262500Y-16940786D01*
X10276786Y-16926500D01*
X10305357Y-16912214D01*
X10533928Y-17212214D02*
X10533928Y-17012214D01*
X10533928Y-17040786D02*
X10548214Y-17026500D01*
X10576786Y-17012214D01*
X10619643Y-17012214D01*
X10648214Y-17026500D01*
X10662500Y-17055072D01*
X10662500Y-17212214D01*
X10662500Y-17055072D02*
X10676786Y-17026500D01*
X10705357Y-17012214D01*
X10748214Y-17012214D01*
X10776786Y-17026500D01*
X10791071Y-17055072D01*
X10791071Y-17212214D01*
X10933928Y-17212214D02*
X10933928Y-17012214D01*
X10933928Y-17040786D02*
X10948214Y-17026500D01*
X10976786Y-17012214D01*
X11019643Y-17012214D01*
X11048214Y-17026500D01*
X11062500Y-17055072D01*
X11062500Y-17212214D01*
X11062500Y-17055072D02*
X11076786Y-17026500D01*
X11105357Y-17012214D01*
X11148214Y-17012214D01*
X11176786Y-17026500D01*
X11191071Y-17055072D01*
X11191071Y-17212214D01*
X11776786Y-16897929D02*
X11519643Y-17283643D01*
X12162500Y-16912214D02*
X12191071Y-16912214D01*
X12219643Y-16926500D01*
X12233928Y-16940786D01*
X12248214Y-16969357D01*
X12262500Y-17026500D01*
X12262500Y-17097929D01*
X12248214Y-17155072D01*
X12233928Y-17183643D01*
X12219643Y-17197929D01*
X12191071Y-17212214D01*
X12162500Y-17212214D01*
X12133928Y-17197929D01*
X12119643Y-17183643D01*
X12105357Y-17155072D01*
X12091071Y-17097929D01*
X12091071Y-17026500D01*
X12105357Y-16969357D01*
X12119643Y-16940786D01*
X12133928Y-16926500D01*
X12162500Y-16912214D01*
X12391071Y-17183643D02*
X12405357Y-17197929D01*
X12391071Y-17212214D01*
X12376786Y-17197929D01*
X12391071Y-17183643D01*
X12391071Y-17212214D01*
X12691071Y-17212214D02*
X12519643Y-17212214D01*
X12605357Y-17212214D02*
X12605357Y-16912214D01*
X12576786Y-16955072D01*
X12548214Y-16983643D01*
X12519643Y-16997929D01*
X12805357Y-16940786D02*
X12819643Y-16926500D01*
X12848214Y-16912214D01*
X12919643Y-16912214D01*
X12948214Y-16926500D01*
X12962500Y-16940786D01*
X12976786Y-16969357D01*
X12976786Y-16997929D01*
X12962500Y-17040786D01*
X12791071Y-17212214D01*
X12976786Y-17212214D01*
X13233928Y-16912214D02*
X13176786Y-16912214D01*
X13148214Y-16926500D01*
X13133928Y-16940786D01*
X13105357Y-16983643D01*
X13091071Y-17040786D01*
X13091071Y-17155072D01*
X13105357Y-17183643D01*
X13119643Y-17197929D01*
X13148214Y-17212214D01*
X13205357Y-17212214D01*
X13233928Y-17197929D01*
X13248214Y-17183643D01*
X13262500Y-17155072D01*
X13262500Y-17083643D01*
X13248214Y-17055072D01*
X13233928Y-17040786D01*
X13205357Y-17026500D01*
X13148214Y-17026500D01*
X13119643Y-17040786D01*
X13105357Y-17055072D01*
X13091071Y-17083643D01*
X13376786Y-16912214D02*
X13376786Y-16969357D01*
X13491071Y-16912214D02*
X13491071Y-16969357D01*
X13933928Y-17326500D02*
X13919643Y-17312214D01*
X13891071Y-17269357D01*
X13876786Y-17240786D01*
X13862500Y-17197929D01*
X13848214Y-17126500D01*
X13848214Y-17069357D01*
X13862500Y-16997929D01*
X13876786Y-16955072D01*
X13891071Y-16926500D01*
X13919643Y-16883643D01*
X13933928Y-16869357D01*
X14176786Y-17012214D02*
X14176786Y-17212214D01*
X14105357Y-16897929D02*
X14033928Y-17112214D01*
X14219643Y-17112214D01*
X14562500Y-17212214D02*
X14562500Y-16912214D01*
X14691071Y-17212214D02*
X14691071Y-17055072D01*
X14676786Y-17026500D01*
X14648214Y-17012214D01*
X14605357Y-17012214D01*
X14576786Y-17026500D01*
X14562500Y-17040786D01*
X14876786Y-17212214D02*
X14848214Y-17197929D01*
X14833928Y-17183643D01*
X14819643Y-17155072D01*
X14819643Y-17069357D01*
X14833928Y-17040786D01*
X14848214Y-17026500D01*
X14876786Y-17012214D01*
X14919643Y-17012214D01*
X14948214Y-17026500D01*
X14962500Y-17040786D01*
X14976786Y-17069357D01*
X14976786Y-17155072D01*
X14962500Y-17183643D01*
X14948214Y-17197929D01*
X14919643Y-17212214D01*
X14876786Y-17212214D01*
X15148214Y-17212214D02*
X15119643Y-17197929D01*
X15105357Y-17169357D01*
X15105357Y-16912214D01*
X15376786Y-17197929D02*
X15348214Y-17212214D01*
X15291071Y-17212214D01*
X15262500Y-17197929D01*
X15248214Y-17169357D01*
X15248214Y-17055072D01*
X15262500Y-17026500D01*
X15291071Y-17012214D01*
X15348214Y-17012214D01*
X15376786Y-17026500D01*
X15391071Y-17055072D01*
X15391071Y-17083643D01*
X15248214Y-17112214D01*
X15505357Y-17197929D02*
X15533928Y-17212214D01*
X15591071Y-17212214D01*
X15619643Y-17197929D01*
X15633928Y-17169357D01*
X15633928Y-17155072D01*
X15619643Y-17126500D01*
X15591071Y-17112214D01*
X15548214Y-17112214D01*
X15519643Y-17097929D01*
X15505357Y-17069357D01*
X15505357Y-17055072D01*
X15519643Y-17026500D01*
X15548214Y-17012214D01*
X15591071Y-17012214D01*
X15619643Y-17026500D01*
X15733928Y-17326500D02*
X15748214Y-17312214D01*
X15776786Y-17269357D01*
X15791071Y-17240786D01*
X15805357Y-17197929D01*
X15819643Y-17126500D01*
X15819643Y-17069357D01*
X15805357Y-16997929D01*
X15791071Y-16955072D01*
X15776786Y-16926500D01*
X15748214Y-16883643D01*
X15733928Y-16869357D01*
M02*
