G04 #@! TF.GenerationSoftware,KiCad,Pcbnew,(5.1.4)-1*
G04 #@! TF.CreationDate,2022-02-20T14:42:12-05:00*
G04 #@! TF.ProjectId,Recovery PCB,5265636f-7665-4727-9920-5043422e6b69,rev?*
G04 #@! TF.SameCoordinates,Original*
G04 #@! TF.FileFunction,Paste,Bot*
G04 #@! TF.FilePolarity,Positive*
%FSLAX46Y46*%
G04 Gerber Fmt 4.6, Leading zero omitted, Abs format (unit mm)*
G04 Created by KiCad (PCBNEW (5.1.4)-1) date 2022-02-20 14:42:12*
%MOMM*%
%LPD*%
G04 APERTURE LIST*
%ADD10R,3.500000X1.500000*%
%ADD11C,0.100000*%
%ADD12C,0.900000*%
%ADD13C,0.875000*%
G04 APERTURE END LIST*
D10*
X172740000Y-109980000D03*
X172740000Y-115380000D03*
X172520000Y-80050000D03*
X172520000Y-85450000D03*
D11*
G36*
X131361454Y-79180083D02*
G01*
X131383295Y-79183323D01*
X131404714Y-79188688D01*
X131425504Y-79196127D01*
X131445464Y-79205568D01*
X131464403Y-79216919D01*
X131482138Y-79230073D01*
X131498499Y-79244901D01*
X131513327Y-79261262D01*
X131526481Y-79278997D01*
X131537832Y-79297936D01*
X131547273Y-79317896D01*
X131554712Y-79338686D01*
X131560077Y-79360105D01*
X131563317Y-79381946D01*
X131564400Y-79404000D01*
X131564400Y-79854000D01*
X131563317Y-79876054D01*
X131560077Y-79897895D01*
X131554712Y-79919314D01*
X131547273Y-79940104D01*
X131537832Y-79960064D01*
X131526481Y-79979003D01*
X131513327Y-79996738D01*
X131498499Y-80013099D01*
X131482138Y-80027927D01*
X131464403Y-80041081D01*
X131445464Y-80052432D01*
X131425504Y-80061873D01*
X131404714Y-80069312D01*
X131383295Y-80074677D01*
X131361454Y-80077917D01*
X131339400Y-80079000D01*
X130839400Y-80079000D01*
X130817346Y-80077917D01*
X130795505Y-80074677D01*
X130774086Y-80069312D01*
X130753296Y-80061873D01*
X130733336Y-80052432D01*
X130714397Y-80041081D01*
X130696662Y-80027927D01*
X130680301Y-80013099D01*
X130665473Y-79996738D01*
X130652319Y-79979003D01*
X130640968Y-79960064D01*
X130631527Y-79940104D01*
X130624088Y-79919314D01*
X130618723Y-79897895D01*
X130615483Y-79876054D01*
X130614400Y-79854000D01*
X130614400Y-79404000D01*
X130615483Y-79381946D01*
X130618723Y-79360105D01*
X130624088Y-79338686D01*
X130631527Y-79317896D01*
X130640968Y-79297936D01*
X130652319Y-79278997D01*
X130665473Y-79261262D01*
X130680301Y-79244901D01*
X130696662Y-79230073D01*
X130714397Y-79216919D01*
X130733336Y-79205568D01*
X130753296Y-79196127D01*
X130774086Y-79188688D01*
X130795505Y-79183323D01*
X130817346Y-79180083D01*
X130839400Y-79179000D01*
X131339400Y-79179000D01*
X131361454Y-79180083D01*
X131361454Y-79180083D01*
G37*
D12*
X131089400Y-79629000D03*
D11*
G36*
X131361454Y-80730083D02*
G01*
X131383295Y-80733323D01*
X131404714Y-80738688D01*
X131425504Y-80746127D01*
X131445464Y-80755568D01*
X131464403Y-80766919D01*
X131482138Y-80780073D01*
X131498499Y-80794901D01*
X131513327Y-80811262D01*
X131526481Y-80828997D01*
X131537832Y-80847936D01*
X131547273Y-80867896D01*
X131554712Y-80888686D01*
X131560077Y-80910105D01*
X131563317Y-80931946D01*
X131564400Y-80954000D01*
X131564400Y-81404000D01*
X131563317Y-81426054D01*
X131560077Y-81447895D01*
X131554712Y-81469314D01*
X131547273Y-81490104D01*
X131537832Y-81510064D01*
X131526481Y-81529003D01*
X131513327Y-81546738D01*
X131498499Y-81563099D01*
X131482138Y-81577927D01*
X131464403Y-81591081D01*
X131445464Y-81602432D01*
X131425504Y-81611873D01*
X131404714Y-81619312D01*
X131383295Y-81624677D01*
X131361454Y-81627917D01*
X131339400Y-81629000D01*
X130839400Y-81629000D01*
X130817346Y-81627917D01*
X130795505Y-81624677D01*
X130774086Y-81619312D01*
X130753296Y-81611873D01*
X130733336Y-81602432D01*
X130714397Y-81591081D01*
X130696662Y-81577927D01*
X130680301Y-81563099D01*
X130665473Y-81546738D01*
X130652319Y-81529003D01*
X130640968Y-81510064D01*
X130631527Y-81490104D01*
X130624088Y-81469314D01*
X130618723Y-81447895D01*
X130615483Y-81426054D01*
X130614400Y-81404000D01*
X130614400Y-80954000D01*
X130615483Y-80931946D01*
X130618723Y-80910105D01*
X130624088Y-80888686D01*
X130631527Y-80867896D01*
X130640968Y-80847936D01*
X130652319Y-80828997D01*
X130665473Y-80811262D01*
X130680301Y-80794901D01*
X130696662Y-80780073D01*
X130714397Y-80766919D01*
X130733336Y-80755568D01*
X130753296Y-80746127D01*
X130774086Y-80738688D01*
X130795505Y-80733323D01*
X130817346Y-80730083D01*
X130839400Y-80729000D01*
X131339400Y-80729000D01*
X131361454Y-80730083D01*
X131361454Y-80730083D01*
G37*
D12*
X131089400Y-81179000D03*
D11*
G36*
X120227691Y-92801053D02*
G01*
X120248926Y-92804203D01*
X120269750Y-92809419D01*
X120289962Y-92816651D01*
X120309368Y-92825830D01*
X120327781Y-92836866D01*
X120345024Y-92849654D01*
X120360930Y-92864070D01*
X120375346Y-92879976D01*
X120388134Y-92897219D01*
X120399170Y-92915632D01*
X120408349Y-92935038D01*
X120415581Y-92955250D01*
X120420797Y-92976074D01*
X120423947Y-92997309D01*
X120425000Y-93018750D01*
X120425000Y-93456250D01*
X120423947Y-93477691D01*
X120420797Y-93498926D01*
X120415581Y-93519750D01*
X120408349Y-93539962D01*
X120399170Y-93559368D01*
X120388134Y-93577781D01*
X120375346Y-93595024D01*
X120360930Y-93610930D01*
X120345024Y-93625346D01*
X120327781Y-93638134D01*
X120309368Y-93649170D01*
X120289962Y-93658349D01*
X120269750Y-93665581D01*
X120248926Y-93670797D01*
X120227691Y-93673947D01*
X120206250Y-93675000D01*
X119693750Y-93675000D01*
X119672309Y-93673947D01*
X119651074Y-93670797D01*
X119630250Y-93665581D01*
X119610038Y-93658349D01*
X119590632Y-93649170D01*
X119572219Y-93638134D01*
X119554976Y-93625346D01*
X119539070Y-93610930D01*
X119524654Y-93595024D01*
X119511866Y-93577781D01*
X119500830Y-93559368D01*
X119491651Y-93539962D01*
X119484419Y-93519750D01*
X119479203Y-93498926D01*
X119476053Y-93477691D01*
X119475000Y-93456250D01*
X119475000Y-93018750D01*
X119476053Y-92997309D01*
X119479203Y-92976074D01*
X119484419Y-92955250D01*
X119491651Y-92935038D01*
X119500830Y-92915632D01*
X119511866Y-92897219D01*
X119524654Y-92879976D01*
X119539070Y-92864070D01*
X119554976Y-92849654D01*
X119572219Y-92836866D01*
X119590632Y-92825830D01*
X119610038Y-92816651D01*
X119630250Y-92809419D01*
X119651074Y-92804203D01*
X119672309Y-92801053D01*
X119693750Y-92800000D01*
X120206250Y-92800000D01*
X120227691Y-92801053D01*
X120227691Y-92801053D01*
G37*
D13*
X119950000Y-93237500D03*
D11*
G36*
X120227691Y-91226053D02*
G01*
X120248926Y-91229203D01*
X120269750Y-91234419D01*
X120289962Y-91241651D01*
X120309368Y-91250830D01*
X120327781Y-91261866D01*
X120345024Y-91274654D01*
X120360930Y-91289070D01*
X120375346Y-91304976D01*
X120388134Y-91322219D01*
X120399170Y-91340632D01*
X120408349Y-91360038D01*
X120415581Y-91380250D01*
X120420797Y-91401074D01*
X120423947Y-91422309D01*
X120425000Y-91443750D01*
X120425000Y-91881250D01*
X120423947Y-91902691D01*
X120420797Y-91923926D01*
X120415581Y-91944750D01*
X120408349Y-91964962D01*
X120399170Y-91984368D01*
X120388134Y-92002781D01*
X120375346Y-92020024D01*
X120360930Y-92035930D01*
X120345024Y-92050346D01*
X120327781Y-92063134D01*
X120309368Y-92074170D01*
X120289962Y-92083349D01*
X120269750Y-92090581D01*
X120248926Y-92095797D01*
X120227691Y-92098947D01*
X120206250Y-92100000D01*
X119693750Y-92100000D01*
X119672309Y-92098947D01*
X119651074Y-92095797D01*
X119630250Y-92090581D01*
X119610038Y-92083349D01*
X119590632Y-92074170D01*
X119572219Y-92063134D01*
X119554976Y-92050346D01*
X119539070Y-92035930D01*
X119524654Y-92020024D01*
X119511866Y-92002781D01*
X119500830Y-91984368D01*
X119491651Y-91964962D01*
X119484419Y-91944750D01*
X119479203Y-91923926D01*
X119476053Y-91902691D01*
X119475000Y-91881250D01*
X119475000Y-91443750D01*
X119476053Y-91422309D01*
X119479203Y-91401074D01*
X119484419Y-91380250D01*
X119491651Y-91360038D01*
X119500830Y-91340632D01*
X119511866Y-91322219D01*
X119524654Y-91304976D01*
X119539070Y-91289070D01*
X119554976Y-91274654D01*
X119572219Y-91261866D01*
X119590632Y-91250830D01*
X119610038Y-91241651D01*
X119630250Y-91234419D01*
X119651074Y-91229203D01*
X119672309Y-91226053D01*
X119693750Y-91225000D01*
X120206250Y-91225000D01*
X120227691Y-91226053D01*
X120227691Y-91226053D01*
G37*
D13*
X119950000Y-91662500D03*
D11*
G36*
X127621191Y-79282053D02*
G01*
X127642426Y-79285203D01*
X127663250Y-79290419D01*
X127683462Y-79297651D01*
X127702868Y-79306830D01*
X127721281Y-79317866D01*
X127738524Y-79330654D01*
X127754430Y-79345070D01*
X127768846Y-79360976D01*
X127781634Y-79378219D01*
X127792670Y-79396632D01*
X127801849Y-79416038D01*
X127809081Y-79436250D01*
X127814297Y-79457074D01*
X127817447Y-79478309D01*
X127818500Y-79499750D01*
X127818500Y-80012250D01*
X127817447Y-80033691D01*
X127814297Y-80054926D01*
X127809081Y-80075750D01*
X127801849Y-80095962D01*
X127792670Y-80115368D01*
X127781634Y-80133781D01*
X127768846Y-80151024D01*
X127754430Y-80166930D01*
X127738524Y-80181346D01*
X127721281Y-80194134D01*
X127702868Y-80205170D01*
X127683462Y-80214349D01*
X127663250Y-80221581D01*
X127642426Y-80226797D01*
X127621191Y-80229947D01*
X127599750Y-80231000D01*
X127162250Y-80231000D01*
X127140809Y-80229947D01*
X127119574Y-80226797D01*
X127098750Y-80221581D01*
X127078538Y-80214349D01*
X127059132Y-80205170D01*
X127040719Y-80194134D01*
X127023476Y-80181346D01*
X127007570Y-80166930D01*
X126993154Y-80151024D01*
X126980366Y-80133781D01*
X126969330Y-80115368D01*
X126960151Y-80095962D01*
X126952919Y-80075750D01*
X126947703Y-80054926D01*
X126944553Y-80033691D01*
X126943500Y-80012250D01*
X126943500Y-79499750D01*
X126944553Y-79478309D01*
X126947703Y-79457074D01*
X126952919Y-79436250D01*
X126960151Y-79416038D01*
X126969330Y-79396632D01*
X126980366Y-79378219D01*
X126993154Y-79360976D01*
X127007570Y-79345070D01*
X127023476Y-79330654D01*
X127040719Y-79317866D01*
X127059132Y-79306830D01*
X127078538Y-79297651D01*
X127098750Y-79290419D01*
X127119574Y-79285203D01*
X127140809Y-79282053D01*
X127162250Y-79281000D01*
X127599750Y-79281000D01*
X127621191Y-79282053D01*
X127621191Y-79282053D01*
G37*
D13*
X127381000Y-79756000D03*
D11*
G36*
X126046191Y-79282053D02*
G01*
X126067426Y-79285203D01*
X126088250Y-79290419D01*
X126108462Y-79297651D01*
X126127868Y-79306830D01*
X126146281Y-79317866D01*
X126163524Y-79330654D01*
X126179430Y-79345070D01*
X126193846Y-79360976D01*
X126206634Y-79378219D01*
X126217670Y-79396632D01*
X126226849Y-79416038D01*
X126234081Y-79436250D01*
X126239297Y-79457074D01*
X126242447Y-79478309D01*
X126243500Y-79499750D01*
X126243500Y-80012250D01*
X126242447Y-80033691D01*
X126239297Y-80054926D01*
X126234081Y-80075750D01*
X126226849Y-80095962D01*
X126217670Y-80115368D01*
X126206634Y-80133781D01*
X126193846Y-80151024D01*
X126179430Y-80166930D01*
X126163524Y-80181346D01*
X126146281Y-80194134D01*
X126127868Y-80205170D01*
X126108462Y-80214349D01*
X126088250Y-80221581D01*
X126067426Y-80226797D01*
X126046191Y-80229947D01*
X126024750Y-80231000D01*
X125587250Y-80231000D01*
X125565809Y-80229947D01*
X125544574Y-80226797D01*
X125523750Y-80221581D01*
X125503538Y-80214349D01*
X125484132Y-80205170D01*
X125465719Y-80194134D01*
X125448476Y-80181346D01*
X125432570Y-80166930D01*
X125418154Y-80151024D01*
X125405366Y-80133781D01*
X125394330Y-80115368D01*
X125385151Y-80095962D01*
X125377919Y-80075750D01*
X125372703Y-80054926D01*
X125369553Y-80033691D01*
X125368500Y-80012250D01*
X125368500Y-79499750D01*
X125369553Y-79478309D01*
X125372703Y-79457074D01*
X125377919Y-79436250D01*
X125385151Y-79416038D01*
X125394330Y-79396632D01*
X125405366Y-79378219D01*
X125418154Y-79360976D01*
X125432570Y-79345070D01*
X125448476Y-79330654D01*
X125465719Y-79317866D01*
X125484132Y-79306830D01*
X125503538Y-79297651D01*
X125523750Y-79290419D01*
X125544574Y-79285203D01*
X125565809Y-79282053D01*
X125587250Y-79281000D01*
X126024750Y-79281000D01*
X126046191Y-79282053D01*
X126046191Y-79282053D01*
G37*
D13*
X125806000Y-79756000D03*
D11*
G36*
X124458291Y-81452953D02*
G01*
X124479526Y-81456103D01*
X124500350Y-81461319D01*
X124520562Y-81468551D01*
X124539968Y-81477730D01*
X124558381Y-81488766D01*
X124575624Y-81501554D01*
X124591530Y-81515970D01*
X124605946Y-81531876D01*
X124618734Y-81549119D01*
X124629770Y-81567532D01*
X124638949Y-81586938D01*
X124646181Y-81607150D01*
X124651397Y-81627974D01*
X124654547Y-81649209D01*
X124655600Y-81670650D01*
X124655600Y-82108150D01*
X124654547Y-82129591D01*
X124651397Y-82150826D01*
X124646181Y-82171650D01*
X124638949Y-82191862D01*
X124629770Y-82211268D01*
X124618734Y-82229681D01*
X124605946Y-82246924D01*
X124591530Y-82262830D01*
X124575624Y-82277246D01*
X124558381Y-82290034D01*
X124539968Y-82301070D01*
X124520562Y-82310249D01*
X124500350Y-82317481D01*
X124479526Y-82322697D01*
X124458291Y-82325847D01*
X124436850Y-82326900D01*
X123924350Y-82326900D01*
X123902909Y-82325847D01*
X123881674Y-82322697D01*
X123860850Y-82317481D01*
X123840638Y-82310249D01*
X123821232Y-82301070D01*
X123802819Y-82290034D01*
X123785576Y-82277246D01*
X123769670Y-82262830D01*
X123755254Y-82246924D01*
X123742466Y-82229681D01*
X123731430Y-82211268D01*
X123722251Y-82191862D01*
X123715019Y-82171650D01*
X123709803Y-82150826D01*
X123706653Y-82129591D01*
X123705600Y-82108150D01*
X123705600Y-81670650D01*
X123706653Y-81649209D01*
X123709803Y-81627974D01*
X123715019Y-81607150D01*
X123722251Y-81586938D01*
X123731430Y-81567532D01*
X123742466Y-81549119D01*
X123755254Y-81531876D01*
X123769670Y-81515970D01*
X123785576Y-81501554D01*
X123802819Y-81488766D01*
X123821232Y-81477730D01*
X123840638Y-81468551D01*
X123860850Y-81461319D01*
X123881674Y-81456103D01*
X123902909Y-81452953D01*
X123924350Y-81451900D01*
X124436850Y-81451900D01*
X124458291Y-81452953D01*
X124458291Y-81452953D01*
G37*
D13*
X124180600Y-81889400D03*
D11*
G36*
X124458291Y-83027953D02*
G01*
X124479526Y-83031103D01*
X124500350Y-83036319D01*
X124520562Y-83043551D01*
X124539968Y-83052730D01*
X124558381Y-83063766D01*
X124575624Y-83076554D01*
X124591530Y-83090970D01*
X124605946Y-83106876D01*
X124618734Y-83124119D01*
X124629770Y-83142532D01*
X124638949Y-83161938D01*
X124646181Y-83182150D01*
X124651397Y-83202974D01*
X124654547Y-83224209D01*
X124655600Y-83245650D01*
X124655600Y-83683150D01*
X124654547Y-83704591D01*
X124651397Y-83725826D01*
X124646181Y-83746650D01*
X124638949Y-83766862D01*
X124629770Y-83786268D01*
X124618734Y-83804681D01*
X124605946Y-83821924D01*
X124591530Y-83837830D01*
X124575624Y-83852246D01*
X124558381Y-83865034D01*
X124539968Y-83876070D01*
X124520562Y-83885249D01*
X124500350Y-83892481D01*
X124479526Y-83897697D01*
X124458291Y-83900847D01*
X124436850Y-83901900D01*
X123924350Y-83901900D01*
X123902909Y-83900847D01*
X123881674Y-83897697D01*
X123860850Y-83892481D01*
X123840638Y-83885249D01*
X123821232Y-83876070D01*
X123802819Y-83865034D01*
X123785576Y-83852246D01*
X123769670Y-83837830D01*
X123755254Y-83821924D01*
X123742466Y-83804681D01*
X123731430Y-83786268D01*
X123722251Y-83766862D01*
X123715019Y-83746650D01*
X123709803Y-83725826D01*
X123706653Y-83704591D01*
X123705600Y-83683150D01*
X123705600Y-83245650D01*
X123706653Y-83224209D01*
X123709803Y-83202974D01*
X123715019Y-83182150D01*
X123722251Y-83161938D01*
X123731430Y-83142532D01*
X123742466Y-83124119D01*
X123755254Y-83106876D01*
X123769670Y-83090970D01*
X123785576Y-83076554D01*
X123802819Y-83063766D01*
X123821232Y-83052730D01*
X123840638Y-83043551D01*
X123860850Y-83036319D01*
X123881674Y-83031103D01*
X123902909Y-83027953D01*
X123924350Y-83026900D01*
X124436850Y-83026900D01*
X124458291Y-83027953D01*
X124458291Y-83027953D01*
G37*
D13*
X124180600Y-83464400D03*
D11*
G36*
X128154591Y-86267053D02*
G01*
X128175826Y-86270203D01*
X128196650Y-86275419D01*
X128216862Y-86282651D01*
X128236268Y-86291830D01*
X128254681Y-86302866D01*
X128271924Y-86315654D01*
X128287830Y-86330070D01*
X128302246Y-86345976D01*
X128315034Y-86363219D01*
X128326070Y-86381632D01*
X128335249Y-86401038D01*
X128342481Y-86421250D01*
X128347697Y-86442074D01*
X128350847Y-86463309D01*
X128351900Y-86484750D01*
X128351900Y-86997250D01*
X128350847Y-87018691D01*
X128347697Y-87039926D01*
X128342481Y-87060750D01*
X128335249Y-87080962D01*
X128326070Y-87100368D01*
X128315034Y-87118781D01*
X128302246Y-87136024D01*
X128287830Y-87151930D01*
X128271924Y-87166346D01*
X128254681Y-87179134D01*
X128236268Y-87190170D01*
X128216862Y-87199349D01*
X128196650Y-87206581D01*
X128175826Y-87211797D01*
X128154591Y-87214947D01*
X128133150Y-87216000D01*
X127695650Y-87216000D01*
X127674209Y-87214947D01*
X127652974Y-87211797D01*
X127632150Y-87206581D01*
X127611938Y-87199349D01*
X127592532Y-87190170D01*
X127574119Y-87179134D01*
X127556876Y-87166346D01*
X127540970Y-87151930D01*
X127526554Y-87136024D01*
X127513766Y-87118781D01*
X127502730Y-87100368D01*
X127493551Y-87080962D01*
X127486319Y-87060750D01*
X127481103Y-87039926D01*
X127477953Y-87018691D01*
X127476900Y-86997250D01*
X127476900Y-86484750D01*
X127477953Y-86463309D01*
X127481103Y-86442074D01*
X127486319Y-86421250D01*
X127493551Y-86401038D01*
X127502730Y-86381632D01*
X127513766Y-86363219D01*
X127526554Y-86345976D01*
X127540970Y-86330070D01*
X127556876Y-86315654D01*
X127574119Y-86302866D01*
X127592532Y-86291830D01*
X127611938Y-86282651D01*
X127632150Y-86275419D01*
X127652974Y-86270203D01*
X127674209Y-86267053D01*
X127695650Y-86266000D01*
X128133150Y-86266000D01*
X128154591Y-86267053D01*
X128154591Y-86267053D01*
G37*
D13*
X127914400Y-86741000D03*
D11*
G36*
X126579591Y-86267053D02*
G01*
X126600826Y-86270203D01*
X126621650Y-86275419D01*
X126641862Y-86282651D01*
X126661268Y-86291830D01*
X126679681Y-86302866D01*
X126696924Y-86315654D01*
X126712830Y-86330070D01*
X126727246Y-86345976D01*
X126740034Y-86363219D01*
X126751070Y-86381632D01*
X126760249Y-86401038D01*
X126767481Y-86421250D01*
X126772697Y-86442074D01*
X126775847Y-86463309D01*
X126776900Y-86484750D01*
X126776900Y-86997250D01*
X126775847Y-87018691D01*
X126772697Y-87039926D01*
X126767481Y-87060750D01*
X126760249Y-87080962D01*
X126751070Y-87100368D01*
X126740034Y-87118781D01*
X126727246Y-87136024D01*
X126712830Y-87151930D01*
X126696924Y-87166346D01*
X126679681Y-87179134D01*
X126661268Y-87190170D01*
X126641862Y-87199349D01*
X126621650Y-87206581D01*
X126600826Y-87211797D01*
X126579591Y-87214947D01*
X126558150Y-87216000D01*
X126120650Y-87216000D01*
X126099209Y-87214947D01*
X126077974Y-87211797D01*
X126057150Y-87206581D01*
X126036938Y-87199349D01*
X126017532Y-87190170D01*
X125999119Y-87179134D01*
X125981876Y-87166346D01*
X125965970Y-87151930D01*
X125951554Y-87136024D01*
X125938766Y-87118781D01*
X125927730Y-87100368D01*
X125918551Y-87080962D01*
X125911319Y-87060750D01*
X125906103Y-87039926D01*
X125902953Y-87018691D01*
X125901900Y-86997250D01*
X125901900Y-86484750D01*
X125902953Y-86463309D01*
X125906103Y-86442074D01*
X125911319Y-86421250D01*
X125918551Y-86401038D01*
X125927730Y-86381632D01*
X125938766Y-86363219D01*
X125951554Y-86345976D01*
X125965970Y-86330070D01*
X125981876Y-86315654D01*
X125999119Y-86302866D01*
X126017532Y-86291830D01*
X126036938Y-86282651D01*
X126057150Y-86275419D01*
X126077974Y-86270203D01*
X126099209Y-86267053D01*
X126120650Y-86266000D01*
X126558150Y-86266000D01*
X126579591Y-86267053D01*
X126579591Y-86267053D01*
G37*
D13*
X126339400Y-86741000D03*
D11*
G36*
X125970191Y-76513453D02*
G01*
X125991426Y-76516603D01*
X126012250Y-76521819D01*
X126032462Y-76529051D01*
X126051868Y-76538230D01*
X126070281Y-76549266D01*
X126087524Y-76562054D01*
X126103430Y-76576470D01*
X126117846Y-76592376D01*
X126130634Y-76609619D01*
X126141670Y-76628032D01*
X126150849Y-76647438D01*
X126158081Y-76667650D01*
X126163297Y-76688474D01*
X126166447Y-76709709D01*
X126167500Y-76731150D01*
X126167500Y-77243650D01*
X126166447Y-77265091D01*
X126163297Y-77286326D01*
X126158081Y-77307150D01*
X126150849Y-77327362D01*
X126141670Y-77346768D01*
X126130634Y-77365181D01*
X126117846Y-77382424D01*
X126103430Y-77398330D01*
X126087524Y-77412746D01*
X126070281Y-77425534D01*
X126051868Y-77436570D01*
X126032462Y-77445749D01*
X126012250Y-77452981D01*
X125991426Y-77458197D01*
X125970191Y-77461347D01*
X125948750Y-77462400D01*
X125511250Y-77462400D01*
X125489809Y-77461347D01*
X125468574Y-77458197D01*
X125447750Y-77452981D01*
X125427538Y-77445749D01*
X125408132Y-77436570D01*
X125389719Y-77425534D01*
X125372476Y-77412746D01*
X125356570Y-77398330D01*
X125342154Y-77382424D01*
X125329366Y-77365181D01*
X125318330Y-77346768D01*
X125309151Y-77327362D01*
X125301919Y-77307150D01*
X125296703Y-77286326D01*
X125293553Y-77265091D01*
X125292500Y-77243650D01*
X125292500Y-76731150D01*
X125293553Y-76709709D01*
X125296703Y-76688474D01*
X125301919Y-76667650D01*
X125309151Y-76647438D01*
X125318330Y-76628032D01*
X125329366Y-76609619D01*
X125342154Y-76592376D01*
X125356570Y-76576470D01*
X125372476Y-76562054D01*
X125389719Y-76549266D01*
X125408132Y-76538230D01*
X125427538Y-76529051D01*
X125447750Y-76521819D01*
X125468574Y-76516603D01*
X125489809Y-76513453D01*
X125511250Y-76512400D01*
X125948750Y-76512400D01*
X125970191Y-76513453D01*
X125970191Y-76513453D01*
G37*
D13*
X125730000Y-76987400D03*
D11*
G36*
X127545191Y-76513453D02*
G01*
X127566426Y-76516603D01*
X127587250Y-76521819D01*
X127607462Y-76529051D01*
X127626868Y-76538230D01*
X127645281Y-76549266D01*
X127662524Y-76562054D01*
X127678430Y-76576470D01*
X127692846Y-76592376D01*
X127705634Y-76609619D01*
X127716670Y-76628032D01*
X127725849Y-76647438D01*
X127733081Y-76667650D01*
X127738297Y-76688474D01*
X127741447Y-76709709D01*
X127742500Y-76731150D01*
X127742500Y-77243650D01*
X127741447Y-77265091D01*
X127738297Y-77286326D01*
X127733081Y-77307150D01*
X127725849Y-77327362D01*
X127716670Y-77346768D01*
X127705634Y-77365181D01*
X127692846Y-77382424D01*
X127678430Y-77398330D01*
X127662524Y-77412746D01*
X127645281Y-77425534D01*
X127626868Y-77436570D01*
X127607462Y-77445749D01*
X127587250Y-77452981D01*
X127566426Y-77458197D01*
X127545191Y-77461347D01*
X127523750Y-77462400D01*
X127086250Y-77462400D01*
X127064809Y-77461347D01*
X127043574Y-77458197D01*
X127022750Y-77452981D01*
X127002538Y-77445749D01*
X126983132Y-77436570D01*
X126964719Y-77425534D01*
X126947476Y-77412746D01*
X126931570Y-77398330D01*
X126917154Y-77382424D01*
X126904366Y-77365181D01*
X126893330Y-77346768D01*
X126884151Y-77327362D01*
X126876919Y-77307150D01*
X126871703Y-77286326D01*
X126868553Y-77265091D01*
X126867500Y-77243650D01*
X126867500Y-76731150D01*
X126868553Y-76709709D01*
X126871703Y-76688474D01*
X126876919Y-76667650D01*
X126884151Y-76647438D01*
X126893330Y-76628032D01*
X126904366Y-76609619D01*
X126917154Y-76592376D01*
X126931570Y-76576470D01*
X126947476Y-76562054D01*
X126964719Y-76549266D01*
X126983132Y-76538230D01*
X127002538Y-76529051D01*
X127022750Y-76521819D01*
X127043574Y-76516603D01*
X127064809Y-76513453D01*
X127086250Y-76512400D01*
X127523750Y-76512400D01*
X127545191Y-76513453D01*
X127545191Y-76513453D01*
G37*
D13*
X127305000Y-76987400D03*
M02*
